<svg xmlns="http://www.w3.org/2000/svg" fill="none" viewBox="0 0 1024 1024" height="1024" width="1024">
<rect fill="white" height="1024" width="1024"></rect>
<path fill="#411F15" d="M447.512 78.3085C456.466 72.332 467.828 70.7614 478.251 72.9235C480.943 74.331 483.615 76.5339 484.513 79.5935C487.144 93.6066 471.01 102.337 472.601 116.35C474.069 129.588 477.557 143.621 486.614 153.84C486.899 144.988 486.308 136.013 489.082 127.466C491.57 127.038 494.385 124.978 496.812 126.712C497.71 131.505 498.424 136.36 498.75 141.235C498.954 144.58 499.097 147.905 499.301 151.25C503.931 152.922 508.582 154.534 513.294 156.023C511.906 153.289 510.479 150.597 509.051 147.905C509.704 147.252 511.029 145.906 511.682 145.253C512.865 146.416 514.089 147.558 515.333 148.7C522.33 152.229 530.57 152.106 538.056 154.309C541.116 154.534 545.868 158.022 547.255 153.432C550.478 143.009 553.599 132.341 554.394 121.408C555.271 115.779 550.274 111.923 548.255 107.171C545.44 102.5 545.909 96.8906 545.419 91.6688C547.337 93.6678 549.295 95.6463 551.233 97.6657C556.087 96.0135 561.003 94.4633 565.878 92.8111C569.162 95.8503 572.752 98.5427 576.424 101.113C575.649 98.6447 574.873 96.1766 574.119 93.7086C578.055 95.5851 581.829 97.788 585.623 99.9706C583.196 94.7488 580.727 89.5475 578.341 84.3257C579.157 84.5909 580.768 85.1416 581.564 85.4068C586.765 88.2012 590.192 93.9941 589.172 99.9706C589.05 110.863 578.545 116.717 570.325 121.531C564.552 133.994 564.307 148.149 561.962 161.51C569.509 167.201 575.689 174.38 581.605 181.683C593.476 168.792 607.53 157.349 624.256 151.474C645.632 144.09 668.926 145.396 690.711 150.25C683.653 158.226 677.146 167.139 675.005 177.787C672.659 189.087 667.6 200.204 658.319 207.486C640.207 222.253 615.322 223.518 593.088 220.805C595.495 220.254 597.923 219.704 600.37 219.194C620.747 220.948 642.96 217.949 658.727 203.814C672.394 191.943 671.272 171.953 681.164 157.675C682.348 155.778 683.571 153.881 684.836 152.004C683.612 151.862 681.185 151.597 679.961 151.454C667.417 149.373 654.627 148.965 642.022 150.373C634.74 150.903 627.58 152.718 621.012 155.86C603.144 162.632 588.152 175.951 578.361 192.249C577.647 192.534 576.199 193.126 575.485 193.432C575.995 191.29 576.546 189.148 577.117 187.027C577.484 185.619 578.239 182.784 578.627 181.377C573.69 175.706 568.53 170.097 562.023 166.221C560.616 165.304 559.167 164.488 557.678 163.753C545.521 156.696 531.366 155.186 517.679 153.779C518.148 155.288 519.086 158.328 519.556 159.857C520.331 162.387 521.085 164.916 521.86 167.445C518.495 164.427 515.252 161.306 511.682 158.552C502.034 154.003 490.897 155.248 480.78 157.247C485.145 158.858 489.551 160.388 494.059 161.652C494.487 163.407 494.915 165.181 495.364 166.956C491.57 165.467 487.797 163.957 483.942 162.652C477.435 161.285 470.316 160.735 464.34 164.243C452.693 170.444 440.923 177.44 432.377 187.68C425.788 196.349 422.892 207.282 421.403 217.929C421.097 222.029 421.383 226.149 421.913 230.229C421.444 230.494 420.506 230.983 420.036 231.249L417.874 232.432C417.283 226.496 418.078 220.56 419.098 214.727C402.331 215.441 384.157 213.319 370.205 203.202C358.11 194.207 355.091 178.705 348.543 165.997C345.219 159.021 339.426 153.82 334 148.537C349.89 148.741 365.8 148.149 381.71 148.211C400.067 149.822 414.305 162.917 427.808 174.176C430.867 175.849 434.437 180.663 438.109 177.705C445.798 171.708 454.855 167.649 462.3 161.428C462.626 145.579 461.525 129.139 455.181 114.432C444.942 107.864 434.784 95.3811 441.087 82.7143C441.393 83.6934 442.025 85.6924 442.331 86.6714C443.473 90.2818 444.636 93.8921 445.819 97.5025C446.023 98.196 446.431 99.5626 446.635 100.256C449.49 96.0747 452.264 91.8524 454.998 87.6097C458.914 88.5888 462.851 89.8126 466.93 89.8942C471.764 88.6092 475.293 84.7133 479.128 81.7352C475.517 80.7358 471.907 79.7975 468.276 78.8592C469.051 77.8189 469.847 76.7787 470.663 75.7588C462.993 77.0846 455.283 77.9413 447.512 78.3085ZM463.34 109.292C461.872 109.945 458.914 111.25 457.445 111.903C461.851 127.854 465.319 144.172 464.605 160.837C466.257 160.367 469.561 159.45 471.234 159.001C474.742 157.532 478.271 156.043 481.8 154.554C474.498 140.031 467.012 124.549 468.358 107.824C466.665 108.293 464.992 108.782 463.34 109.292ZM556.903 120.042C554.762 132.403 552.334 144.702 549.642 156.941C552.436 158.226 555.251 159.49 558.086 160.775C561.166 147.354 563.981 133.402 561.86 119.613C560.616 119.715 558.147 119.94 556.903 120.042ZM490.775 147.374C490.816 151.107 492.712 152.637 496.486 151.923C496.221 144.417 494.997 136.992 493.753 129.588C490.326 134.85 489.775 141.296 490.775 147.374ZM341.771 153.371L344.036 154.003C356.519 167.935 356.723 189.74 372.51 201.081C381.22 206.547 391.317 210.26 401.536 211.443C406.105 213.115 410.98 213.136 415.794 212.993L414.651 211.096C421.75 212.34 420.832 201.999 422.627 197.409C417.12 196.96 411.612 196.756 406.105 196.92C403.902 196.43 401.74 195.879 399.619 195.227C406.513 195.716 413.428 195.104 420.322 194.615C417.262 189.883 413.815 184.64 408.002 183.151C397.762 182.05 387.074 184.049 377.181 180.357C386.156 180.928 395.804 181.805 404.126 177.726C407.961 176.053 411.816 173.544 416.202 174.523C413.162 175.176 410.246 176.298 407.349 177.297C413.407 183.029 419.649 188.577 425.421 194.615C427.298 191.718 429.256 188.822 430.521 185.579C428.95 183.396 426.768 181.785 424.748 180.071C428.236 181.05 431.745 181.948 435.355 182.499C433.05 179.949 430.867 176.828 427.216 176.298C419.588 170.26 412.408 162.836 403.107 159.511C392.867 150.475 378.181 150.006 365.31 151.556C357.498 152.453 349.278 150.515 341.771 153.371Z"></path>
<path fill="#714837" d="M447.512 78.3085C455.283 77.9413 462.994 77.0846 470.663 75.7588C469.847 76.7787 469.051 77.8189 468.276 78.8592C471.907 79.7975 475.517 80.7358 479.128 81.7352C475.293 84.7133 471.764 88.6092 466.93 89.8942C462.851 89.8126 458.914 88.5888 454.998 87.6097C452.264 91.8524 449.49 96.0747 446.635 100.256C446.431 99.5626 446.023 98.196 445.819 97.5025C446.879 91.8728 449.144 86.5694 451.836 81.5109C448.674 83.265 445.492 84.9784 442.331 86.6714C442.025 85.6924 441.393 83.6934 441.087 82.7143C441.433 79.9199 445.084 78.8184 447.512 78.3085ZM460.607 88.344C465.869 87.7933 470.969 86.0391 474.212 81.5925C468.378 80.797 463.034 82.7143 460.607 88.344Z"></path>
<path fill="#663E32" d="M549.723 80.4298C560.187 76.8806 572.732 78.5736 581.564 85.4068C580.768 85.1416 579.157 84.5909 578.341 84.3257C580.727 89.5475 583.196 94.7488 585.623 99.9706C581.829 97.788 578.055 95.5851 574.119 93.7085C567.122 90.5673 560.35 86.9978 553.966 82.7347C553.374 82.9183 552.171 83.2854 551.58 83.469C556.822 85.7535 561.839 88.6704 565.878 92.8111C561.003 94.4632 556.087 96.0135 551.233 97.6656C549.295 95.6463 547.337 93.6677 545.419 91.6688C546.072 87.8545 545.195 82.0616 549.723 80.4298Z"></path>
<path fill="#E7C9CA" d="M442.331 86.6714C445.493 84.9784 448.675 83.265 451.836 81.5108C449.144 86.5694 446.88 91.8727 445.819 97.5024C444.636 93.8921 443.473 90.2817 442.331 86.6714Z"></path>
<path fill="#E7C9CA" d="M553.966 82.7346C560.35 86.9977 567.122 90.5672 574.119 93.7084C574.873 96.1765 575.648 98.6446 576.423 101.113C572.752 98.5426 569.162 95.8502 565.878 92.811C561.839 88.6703 556.821 85.7534 551.579 83.4689C552.171 83.2854 553.374 82.9182 553.966 82.7346Z"></path>
<path fill="#9F8474" d="M460.607 88.344C463.034 82.7143 468.378 80.7969 474.212 81.5924C470.969 86.0391 465.869 87.7933 460.607 88.344Z"></path>
<path fill="#CDCFD7" d="M532.325 254.155C535.813 253.094 539.382 252.197 542.993 251.503C542.075 253.992 541.177 256.48 540.3 258.969C539.076 258.867 536.629 258.663 535.405 258.561C534.63 257.459 533.079 255.256 532.325 254.155Z"></path>
<path fill="#DC983C" d="M463.34 109.292C464.992 108.782 466.665 108.293 468.358 107.824C467.012 124.549 474.497 140.031 481.8 154.554C478.271 156.043 474.742 157.532 471.234 159.001C470.194 142.173 464.34 126.1 463.34 109.292Z"></path>
<path fill="#F0E19C" d="M457.445 111.903C458.914 111.25 461.872 109.945 463.34 109.292C464.34 126.1 470.194 142.173 471.234 159.001C469.561 159.45 466.257 160.367 464.605 160.837C465.319 144.172 461.851 127.854 457.445 111.903Z"></path>
<path fill="#E8BD5D" d="M556.903 120.042C558.148 119.94 560.616 119.715 561.86 119.613C563.981 133.402 561.166 147.354 558.086 160.775C555.251 159.49 552.436 158.226 549.642 156.941C552.334 144.702 554.762 132.402 556.903 120.042Z"></path>
<path fill="#A56433" d="M498.75 141.234C507.868 137.522 513.885 127.425 524.41 127.201C528.653 126.671 532.427 129.037 536.057 130.913C536.057 132.198 536.037 134.789 536.037 136.094C528.837 139.501 518.719 140.419 515.333 148.7C514.089 147.558 512.865 146.415 511.682 145.253C517.006 139.97 522.86 135.299 528.531 130.383C519.617 131.179 508.969 134.646 507.297 144.763C507.746 145.559 508.602 147.129 509.051 147.904C510.479 150.597 511.907 153.289 513.294 156.023C508.582 154.534 503.931 152.922 499.301 151.25C499.097 147.904 498.954 144.58 498.75 141.234Z"></path>
<path fill="#E4A33E" d="M490.775 147.374C489.776 141.296 490.326 134.85 493.753 129.588C494.997 136.992 496.221 144.417 496.486 151.923C492.713 152.637 490.816 151.107 490.775 147.374Z"></path>
<path fill="#E4A33E" d="M537.261 705.55C539.26 711.568 541.973 717.32 544.441 723.174C546.011 727.661 548.072 732.373 547.358 737.228C545.277 742.531 539.913 745.468 535.853 749.099C537.261 751.649 538.709 754.198 540.178 756.728C534.63 757.625 529.632 760.807 529.469 767.008C533.079 769.027 537.159 769.884 541.157 770.761C543.135 785.773 541.3 800.908 541.728 816.003C542.115 829.342 538.546 842.54 540.015 855.88C541.565 869.423 545.726 882.457 549.051 895.614C551.07 905.792 553.436 915.93 554.374 926.291C539.892 930.208 524.88 929.29 510.316 926.414C519.087 903.14 524.614 877.848 521.698 852.922C519.903 838.236 511.478 824.937 511.988 809.883C512.233 801.704 512.968 793.524 513.702 785.366C518.618 787.16 523.574 788.915 528.551 790.608C531.55 786.957 534.548 783.285 537.485 779.573C533.181 777.268 529 774.657 524.288 773.331C519.943 774.433 517.067 778.186 514.314 781.429C515.476 774.636 516.7 767.824 517.231 760.95C515.028 762.928 512.845 764.948 510.805 767.089C512.458 750.323 510.785 733.617 509.439 716.953C511.458 718.931 513.845 720.685 515.456 723.113C515.925 727.804 515.538 732.557 515.619 737.289C518.638 733.434 521.147 729.232 523.289 724.826C525.308 723.235 527.348 721.644 529.408 720.073C528.225 718.87 527.042 717.666 525.92 716.463C528.449 714.26 530.938 712.016 533.426 709.773C534.405 709.997 536.343 710.446 537.302 710.65C537.302 709.385 537.281 706.835 537.261 705.55ZM531.305 724.561C525.145 728.783 527.368 738.513 533.304 741.899C540.892 743.102 546.195 733.087 542.666 726.927C540.361 723.011 534.997 722.562 531.305 724.561ZM521.065 743.449C514.66 745.448 510.805 753.525 516.578 758.543C521.861 766.09 530.448 757.299 530.163 750.69C531.346 745.652 525.349 742.327 521.065 743.449Z"></path>
<path fill="#E7C95A" d="M507.297 144.763C508.969 134.646 519.617 131.179 528.531 130.383C522.86 135.299 517.006 139.97 511.682 145.253C511.03 145.906 509.704 147.252 509.051 147.905C508.602 147.129 507.746 145.559 507.297 144.763Z"></path>
<path fill="#C0C5D3" d="M548.214 259.621C550.866 263.334 550.376 267.474 547.684 271.003C546.847 269.657 545.154 266.944 544.318 265.598C545.297 264.109 547.235 261.131 548.214 259.621Z"></path>
<path fill="#EED694" d="M642.022 150.373C654.628 148.965 667.417 149.373 679.961 151.454C667.498 155.166 654.138 155.574 642.022 150.373Z"></path>
<path fill="#F3DF74" d="M341.771 153.371C349.278 150.515 357.498 152.453 365.31 151.556C378.181 150.005 392.867 150.475 403.107 159.511C386.789 157.349 370.45 154.085 353.908 155.9C350.563 155.594 347.258 154.88 344.036 154.003L341.771 153.371Z"></path>
<path fill="#E1A340" d="M621.013 155.86C627.581 152.718 634.74 150.903 642.022 150.373C654.138 155.574 667.499 155.166 679.961 151.454C681.185 151.596 683.613 151.862 684.836 152.004C683.572 153.881 682.348 155.778 681.165 157.675C672.292 158.307 665.785 164.324 661.461 171.586C656.464 175.829 651.181 179.888 645.123 182.458C632.435 184.232 620.401 179.235 607.979 178.052C599.881 179.092 593.823 185.477 587.133 189.617L587.622 188.026C593.945 172.81 610.528 167.343 621.013 155.86Z"></path>
<path fill="#F4EBE6" d="M344.036 154.003C347.258 154.88 350.563 155.594 353.908 155.9C356.09 160.428 358.334 164.957 360.659 169.444C364.474 177.522 368.472 186.109 376.141 191.29C386.299 198.347 398.415 201.958 408.43 209.26C406.717 209.811 403.27 210.892 401.536 211.443C391.317 210.259 381.22 206.547 372.511 201.081C356.723 189.74 356.519 167.935 344.036 154.003Z"></path>
<path fill="#E8B14E" d="M353.908 155.9C370.45 154.085 386.789 157.349 403.106 159.511C412.408 162.835 419.588 170.26 427.216 176.298C423.585 175.502 419.914 174.788 416.202 174.523C411.816 173.544 407.961 176.053 404.126 177.726C395.804 181.805 386.156 180.928 377.181 180.357C374.509 179.541 371.898 178.582 369.349 177.481C366.207 175.074 363.372 172.3 360.659 169.444C358.334 164.957 356.09 160.429 353.908 155.9Z"></path>
<path fill="#EBE0A8" d="M480.78 157.247C490.897 155.248 502.034 154.003 511.682 158.552C505.91 160.163 500.035 161.408 494.059 161.652C489.551 160.388 485.145 158.858 480.78 157.247Z"></path>
<path fill="#F4E8A1" d="M517.679 153.779C531.366 155.186 545.521 156.696 557.678 163.753C544.991 162.326 532.365 160.021 519.555 159.857C519.086 158.328 518.148 155.288 517.679 153.779Z"></path>
<path fill="#F4E8A1" d="M578.362 192.249C588.152 175.951 603.144 162.632 621.013 155.86C610.528 167.343 593.945 172.81 587.622 188.026C584.603 189.617 581.503 190.964 578.362 192.249Z"></path>
<path fill="#EDE5E4" d="M661.461 171.586C665.785 164.324 672.292 158.307 681.165 157.675C671.272 171.953 672.394 191.943 658.728 203.814C642.96 217.949 620.748 220.948 600.371 219.194C597.066 218.602 593.823 217.929 590.559 217.297C590.417 215.828 590.131 212.932 589.988 211.483C601.921 206.384 616.688 208.75 626.765 199.449C631.579 193.493 637.269 188.149 644.694 185.66C651.894 183.233 657.687 178.174 661.461 171.586Z"></path>
<path fill="#E4AB4A" d="M511.682 158.552C515.252 161.306 518.495 164.426 521.861 167.445C521.086 164.916 520.331 162.387 519.556 159.857C532.365 160.021 544.991 162.326 557.679 163.753C559.168 164.488 560.616 165.304 562.023 166.221C567.184 173.055 571.936 180.194 577.117 187.027C576.546 189.148 575.995 191.29 575.486 193.432C576.199 193.126 577.648 192.534 578.362 192.249C581.503 190.964 584.603 189.617 587.622 188.026L587.133 189.617L586.684 191.249C584.195 200.224 577.362 209.077 580.238 218.725C583.237 225.843 585.297 233.411 584.828 241.202C584.664 243.303 584.481 245.384 584.318 247.485C581.136 257.255 580.32 267.515 580.707 277.734C574.935 276.857 569.183 275.878 563.431 275.021C566.062 269.371 568.938 263.558 568.856 257.174C569.937 244.017 563.859 231.412 566.184 218.235C568.469 206.18 561.248 193.35 549.989 188.781C542.136 186.293 535.364 192.228 529.51 196.552C521.228 202.509 518.23 212.789 515.905 222.212C511.988 237.694 512.274 253.91 514.558 269.616C515.558 263.946 516.496 258.255 517.434 252.543C516.455 262.538 516.721 272.778 519.739 282.405C520.698 285.302 521.82 288.157 523.146 290.931C522.085 290.972 519.984 291.033 518.923 291.054C513.09 286.75 507.215 281.487 499.668 280.712C483.921 279.223 468.073 280.406 452.489 282.936C452.693 282.181 453.08 280.672 453.264 279.917C455.671 273.879 457.038 267.536 457.874 261.131C462.096 249.443 463.361 236.98 460.444 224.823C461.239 215.685 462.055 206.506 461.28 197.328C460.424 193.656 459.893 188.761 455.773 187.292C452.101 186.272 448.287 186.15 444.575 185.701C450.347 179.827 455.691 173.299 462.769 168.914C469.358 164.651 477.537 166.548 484.88 166.854C484.635 165.793 484.187 163.713 483.942 162.652C487.797 163.957 491.57 165.467 495.364 166.956C494.916 165.181 494.487 163.407 494.059 161.652C500.035 161.408 505.91 160.163 511.682 158.552Z"></path>
<path fill="#FAE493" d="M464.34 164.243C470.316 160.735 477.435 161.285 483.942 162.652C484.186 163.713 484.635 165.793 484.88 166.854C477.537 166.548 469.358 164.651 462.769 168.914C455.691 173.299 450.347 179.827 444.575 185.701C440.781 190.658 430.765 195.104 434.763 202.508C437.986 208.036 433.886 213.564 431.704 218.602C435.6 218.582 439.496 218.561 443.412 218.643C440.454 220.377 437.578 222.212 434.804 224.211C432.703 223.293 430.602 222.355 428.542 221.397C426.258 223.212 423.973 225.007 421.709 226.802C421.546 223.844 421.423 220.887 421.403 217.929C422.892 207.281 425.789 196.348 432.377 187.68C440.923 177.44 452.693 170.444 464.34 164.243Z"></path>
<path fill="#EEE1E0" d="M562.023 166.221C568.53 170.097 573.69 175.706 578.627 181.377C578.239 182.784 577.484 185.619 577.117 187.027C571.936 180.194 567.184 173.055 562.023 166.221Z"></path>
<path fill="#EEE1E0" d="M493.957 937.673C499.505 939.162 504.971 940.896 510.54 942.365C510.846 943.221 511.458 944.955 511.764 945.812C505.644 943.67 498.281 943.079 493.957 937.673Z"></path>
<path fill="#E2BDB5" d="M360.66 169.444C363.373 172.3 366.208 175.074 369.349 177.481C378.875 184.212 388.645 191.106 399.619 195.227C401.74 195.879 403.902 196.43 406.105 196.92C408.961 201.631 411.755 206.404 414.652 211.096L415.794 212.993C410.98 213.136 406.105 213.115 401.536 211.443C403.27 210.892 406.717 209.811 408.431 209.26C398.415 201.958 386.299 198.347 376.141 191.29C368.472 186.109 364.474 177.522 360.66 169.444Z"></path>
<path fill="#C998A0" d="M645.122 182.458C651.18 179.888 656.463 175.829 661.46 171.586C657.687 178.174 651.894 183.233 644.694 185.66C637.269 188.149 631.578 193.493 626.764 199.449C616.158 202.101 605.49 204.671 594.618 205.894C597.616 198.592 600.186 190.902 605.061 184.579C618.381 183.498 632.272 187.843 645.122 182.458Z"></path>
<path fill="#DC9B70" d="M416.202 174.523C419.914 174.788 423.586 175.502 427.216 176.298C430.868 176.828 433.05 179.949 435.355 182.499C431.745 181.948 428.236 181.05 424.748 180.071C426.768 181.785 428.95 183.396 430.521 185.579C429.256 188.822 427.298 191.718 425.421 194.615C419.649 188.577 413.407 183.029 407.349 177.297C410.246 176.298 413.163 175.176 416.202 174.523Z"></path>
<path fill="#CFA19D" d="M369.349 177.481C371.899 178.582 374.509 179.541 377.182 180.357C387.074 184.049 397.763 182.05 408.002 183.151C413.815 184.64 417.262 189.882 420.322 194.615C413.428 195.104 406.513 195.716 399.619 195.227C388.645 191.106 378.874 184.212 369.349 177.481Z"></path>
<path fill="#823F2D" d="M587.132 189.617C593.823 185.477 599.881 179.092 607.979 178.052C620.401 179.235 632.435 184.232 645.122 182.458C632.272 187.843 618.381 183.498 605.062 184.579C600.187 190.902 597.617 198.592 594.618 205.894C605.49 204.671 616.158 202.101 626.765 199.449C616.688 208.75 601.921 206.384 589.988 211.483C590.131 212.932 590.416 215.828 590.559 217.297C593.823 217.929 597.066 218.602 600.37 219.194C597.923 219.704 595.495 220.254 593.088 220.805C591.314 221.172 589.539 221.519 587.806 221.845C586.439 228.23 585.399 234.696 584.827 241.202C585.297 233.411 583.236 225.843 580.238 218.724C590.008 210.647 593.966 198.205 598.371 186.782C594.333 189.515 590.355 192.31 586.337 195.023C586.418 194.084 586.602 192.187 586.684 191.249L587.132 189.617Z"></path>
<path fill="#100908" d="M444.575 185.701C448.287 186.15 452.101 186.272 455.773 187.292C459.893 188.761 460.423 193.656 461.28 197.328C457.486 195.594 453.733 191.759 449.246 193.391C443.677 195.084 439.332 199.123 434.763 202.508C430.765 195.104 440.781 190.658 444.575 185.701Z"></path>
<path fill="#1F1D19" d="M529.51 196.552C535.364 192.228 542.135 186.293 549.989 188.781C561.248 193.35 568.469 206.18 566.184 218.235C563.859 231.412 569.937 244.017 568.856 257.174C568.938 263.558 566.062 269.371 563.43 275.021C562.349 274.919 560.208 274.695 559.127 274.593C568.999 261.763 569.611 241.529 558.107 229.535C552.253 223.212 543.217 223.416 535.323 223.314C534.486 223.273 532.794 223.192 531.957 223.151C542.136 215.889 554.741 220.214 564.246 226.251C565.266 217.011 563.961 206.935 556.862 200.265C549.866 192.616 538.484 193.962 529.51 196.552Z"></path>
<path fill="#D88E4F" d="M586.337 195.023C590.355 192.31 594.333 189.515 598.371 186.782C593.966 198.205 590.008 210.647 580.238 218.724C577.362 209.076 584.195 200.224 586.684 191.249C586.602 192.187 586.418 194.084 586.337 195.023Z"></path>
<path fill="#FCF4BE" d="M434.763 202.508C439.333 199.122 443.677 195.084 449.246 193.391C453.733 191.759 457.486 195.594 461.28 197.327C462.055 206.506 461.239 215.685 460.444 224.823C456.099 222.518 451.775 220.03 446.982 218.826C446.084 218.765 444.309 218.684 443.412 218.643C439.496 218.561 435.6 218.582 431.704 218.602C433.886 213.564 437.986 208.036 434.763 202.508Z"></path>
<path fill="#F2E9DD" d="M529.51 196.552C538.485 193.962 549.866 192.616 556.863 200.265C563.961 206.935 565.266 217.011 564.247 226.251C554.741 220.214 542.136 215.889 531.957 223.151C521.922 229.127 519.474 241.957 517.434 252.543C516.496 258.255 515.558 263.946 514.558 269.616C512.274 253.91 511.988 237.694 515.905 222.212C518.23 212.789 521.228 202.509 529.51 196.552Z"></path>
<path fill="#CE9490" d="M406.105 196.92C411.612 196.756 417.12 196.96 422.627 197.409C420.832 201.998 421.75 212.34 414.652 211.096C411.755 206.404 408.961 201.631 406.105 196.92Z"></path>
<path fill="#C3C4CE" d="M445.289 261.457C445.166 255.521 449.531 251.136 455.487 251.299C453.223 255.685 449.429 258.907 445.289 261.457Z"></path>
<path fill="#9C7C47" d="M421.913 230.229C421.383 226.149 421.097 222.029 421.403 217.929C421.423 220.887 421.546 223.844 421.709 226.802C423.973 225.007 426.258 223.212 428.542 221.397C430.602 222.355 432.703 223.294 434.804 224.211C428.236 236.226 425.544 251.136 429.766 264.374C431.683 271.35 439.006 273.777 445.207 275.654C451.408 272.859 455.181 267.128 457.874 261.131C457.037 267.536 455.671 273.879 453.264 279.917C452.285 282.385 451.244 284.833 450.245 287.301C446.92 289.422 443.718 291.747 440.495 294.012L438.965 294.827C441.821 290.054 444.309 285.077 446.696 280.039C438.313 277.265 427.135 274.736 425.115 264.558C421.097 253.808 428.807 239.917 420.036 231.249C420.506 230.983 421.444 230.494 421.913 230.229Z"></path>
<path fill="#090908" d="M446.981 218.826C451.775 220.03 456.099 222.518 460.444 224.823C463.36 236.98 462.096 249.443 457.874 261.131C455.181 267.128 451.408 272.859 445.207 275.654C441.005 271.88 436.109 268.372 434.049 262.905C432.295 253.992 433.213 244.344 439.455 237.286C439.353 239.754 439.251 242.222 439.108 244.67C442.147 242.263 445.125 239.632 448.695 237.98C451.979 239.224 455.018 240.978 458.139 242.589C458.118 237.98 458.465 233.329 457.874 228.74C456.446 223.64 451.183 221.213 446.981 218.826ZM445.288 261.457C449.429 258.907 453.223 255.685 455.487 251.299C449.531 251.136 445.166 255.521 445.288 261.457Z"></path>
<path fill="#FEFEFE" d="M434.804 224.211C437.578 222.212 440.454 220.377 443.412 218.643C444.309 218.684 446.084 218.765 446.982 218.826C451.183 221.213 456.446 223.64 457.874 228.74C458.465 233.329 458.119 237.98 458.139 242.589C455.018 240.978 451.979 239.224 448.695 237.98C445.125 239.632 442.147 242.263 439.108 244.67C439.251 242.222 439.353 239.754 439.455 237.286C433.213 244.344 432.295 253.992 434.05 262.905C436.11 268.372 441.005 271.88 445.207 275.654C439.006 273.777 431.683 271.35 429.766 264.374C425.544 251.136 428.236 236.225 434.804 224.211Z"></path>
<path fill="#8E8B88" d="M517.434 252.543C519.474 241.957 521.922 229.127 531.957 223.151C532.794 223.192 534.487 223.273 535.323 223.314C527.98 230.698 523.248 240.101 521.575 250.361C524.553 250.035 527.572 249.708 530.591 249.321L529.265 249.831C519.127 255.318 522.024 267.454 521.636 276.939C521.167 278.305 520.208 281.039 519.739 282.405C516.72 272.778 516.455 262.538 517.434 252.543Z"></path>
<path fill="#623527" d="M584.827 241.202C585.399 234.696 586.439 228.23 587.806 221.845C589.07 230.902 585.827 239.917 587.357 248.974C588.479 256.501 588.785 264.15 590.376 271.615C592.273 281.61 595.047 292.257 591.803 302.272C583.4 320.059 572.018 336.234 559.616 351.41C559.494 357.447 562.145 363.159 561.982 369.196C560.575 379.681 555.598 389.573 557.577 400.323C554.17 403.811 551.886 408.115 550.009 412.582C547.072 406.34 543.523 400.405 539.178 395.06C540.993 384.127 544.216 373.5 546.644 362.71C541.483 368.727 536.037 375.438 535.731 383.74C535.098 394.55 533.895 405.32 531.794 415.947C529.612 419.558 528.612 425.045 523.921 426.166C517.638 427.656 509.989 426.982 505.339 422.005C505.339 413.153 508.561 404.729 510.54 396.203C506.053 398.038 501.545 399.772 497.18 401.853C496.568 402.24 495.323 403.015 494.712 403.403C493.814 403.342 491.999 403.179 491.101 403.117C482.432 402.24 473.661 403.383 465.054 401.812C474.885 401.955 485.268 402.873 494.446 398.528C509.255 392.959 523.717 385.004 533.467 372.195C539.933 363.75 543.482 353.409 545.399 343.067C546.827 336.642 542.095 331.237 539.566 325.791C534.854 316.53 527.755 305.964 516.251 305.597C504.094 306.474 495.997 316.653 487.226 323.873C492.978 316.714 499.097 309.779 506.154 303.843C512.233 302.293 519.046 300.763 525.022 303.598C532.08 306.984 536.057 314.082 540.422 320.222C543.074 324.444 547.398 327.994 552.742 326.586C564.206 324.159 574.588 317.489 583.196 309.677C590.151 303.149 591.395 292.971 589.58 284.017C587.479 271.901 586.092 259.662 584.318 247.485C584.481 245.384 584.664 243.303 584.827 241.202ZM551.62 333.256C549.948 341.293 548.173 349.309 546.847 357.427C560.514 347.371 570.549 333.093 578.28 318.182C569.101 322.67 560.534 328.3 551.62 333.256Z"></path>
<path fill="#FDFCFC" d="M535.323 223.314C543.217 223.416 552.253 223.212 558.107 229.535C569.611 241.529 568.999 261.763 559.127 274.593C556.373 274.981 553.66 275.552 550.988 276.306C551.478 275.674 552.457 274.43 552.946 273.818C559.637 266.475 559.881 255.032 555.557 246.465C553.375 241.855 548.051 240.57 543.849 238.49C544.767 241.386 545.664 244.282 546.541 247.199C541.218 247.954 535.874 248.484 530.591 249.321C527.572 249.708 524.553 250.035 521.575 250.361C523.248 240.101 527.98 230.698 535.323 223.314Z"></path>
<path fill="#7E533B" d="M417.874 232.432L420.037 231.249C419.914 244.752 420.077 258.296 418.813 271.758C418.731 281.018 408.634 286.444 409.022 295.827C408.226 302.456 411.245 308.575 414.815 313.919C415.162 308.759 415.1 303.598 414.794 298.438C416.589 300.661 418.405 302.884 420.261 305.087C426.339 301.416 432.601 298.009 438.965 294.827L440.495 294.012L439.108 295.399C437.068 297.438 435.029 299.498 433.009 301.538C437.313 303.415 441.617 305.312 445.941 307.229C445.268 307.637 443.922 308.412 443.249 308.8C436.477 307.963 428.114 304.271 422.545 310.125C414.284 318.713 412.755 331.461 413.265 342.863C413.448 343.761 413.815 345.556 413.999 346.474C416.569 365.79 428.603 383.781 446.349 392.266C461.178 399.813 478.312 398.977 494.446 398.528C485.268 402.873 474.885 401.955 465.054 401.812C433.438 399.793 408.165 369.788 408.94 338.641C408.777 331.767 411.327 325.26 411.796 318.448C409.491 310.941 404.33 304.067 405.126 295.806C404.698 287.26 411.143 280.916 414.142 273.471C418.425 260.172 415.814 246.016 417.874 232.432Z"></path>
<path fill="#DAAF77" d="M420.036 231.249C428.807 239.917 421.097 253.808 425.115 264.558C427.135 274.736 438.313 277.265 446.696 280.039C444.309 285.077 441.821 290.054 438.965 294.827C432.601 298.009 426.339 301.416 420.261 305.087C418.405 302.884 416.589 300.661 414.794 298.438C415.1 303.598 415.161 308.759 414.815 313.919C411.245 308.575 408.226 302.456 409.022 295.827C408.634 286.444 418.731 281.018 418.812 271.758C420.077 258.296 419.914 244.752 420.036 231.249Z"></path>
<path fill="#151927" d="M543.849 238.49C548.051 240.57 553.375 241.855 555.557 246.465C559.881 255.032 559.637 266.475 552.946 273.818C552.885 273.165 552.742 271.86 552.681 271.207C549.254 271.023 545.807 270.983 542.401 270.962C543.013 269.167 543.645 267.372 544.318 265.598C545.155 266.944 546.847 269.657 547.684 271.003C550.376 267.474 550.866 263.334 548.214 259.621C547.643 256.419 547.153 253.176 546.684 249.953C545.44 250.463 544.216 250.993 542.992 251.503C539.382 252.197 535.812 253.094 532.325 254.155C531.549 253.074 530.02 250.912 529.265 249.831L530.591 249.321C535.874 248.484 541.218 247.954 546.541 247.199C545.664 244.282 544.767 241.386 543.849 238.49Z"></path>
<path fill="#0D0D0E" d="M542.992 251.503C544.216 250.993 545.44 250.463 546.684 249.953C547.153 253.176 547.643 256.419 548.214 259.621C547.235 261.131 545.297 264.109 544.318 265.598C543.645 267.372 543.013 269.167 542.401 270.962C545.807 270.983 549.254 271.023 552.681 271.207C552.742 271.86 552.885 273.165 552.946 273.818C552.457 274.43 551.478 275.674 550.988 276.306C543.054 279.04 534.956 281.283 526.776 283.078C525.104 280.977 523.37 278.938 521.636 276.939C522.024 267.454 519.127 255.317 529.265 249.831C530.02 250.912 531.549 253.074 532.324 254.155C533.079 255.256 534.629 257.459 535.405 258.561C536.628 258.663 539.076 258.867 540.3 258.969C541.177 256.48 542.074 253.992 542.992 251.503Z"></path>
<path fill="#D5A092" d="M580.707 277.734C580.32 267.515 581.136 257.255 584.318 247.485C586.092 259.662 587.479 271.901 589.58 284.017C591.395 292.971 590.151 303.15 583.196 309.677C574.588 317.489 564.206 324.159 552.742 326.586C547.398 327.994 543.074 324.444 540.422 320.222C545.256 318.019 550.131 315.837 555.047 313.756C549.254 312.655 542.666 312.777 537.975 308.738C532.1 303.659 527.368 297.397 523.146 290.931C521.82 288.157 520.698 285.302 519.739 282.405C520.208 281.039 521.167 278.305 521.636 276.939C523.37 278.938 525.104 280.977 526.776 283.078C534.956 281.283 543.054 279.04 550.988 276.306C553.66 275.552 556.373 274.981 559.127 274.593C560.208 274.695 562.349 274.919 563.431 275.021C569.183 275.878 574.935 276.857 580.707 277.734Z"></path>
<path fill="#572417" d="M450.245 287.301C451.245 284.833 452.285 282.385 453.264 279.917C453.081 280.672 452.693 282.181 452.489 282.936C468.073 280.406 483.922 279.223 499.668 280.712C507.215 281.487 513.09 286.75 518.924 291.054C518.067 291.115 516.374 291.237 515.538 291.299C506.726 287.138 497.71 282.528 487.756 282.242C475.13 281.691 461.913 281.875 450.245 287.301Z"></path>
<path fill="#572417" d="M423.402 323.302C428.032 320.977 431.52 326.688 434.845 329.136C435.967 331.38 437.13 333.623 438.292 335.887C435.253 335.153 432.234 334.439 429.195 333.807C428.298 331.339 427.4 328.85 426.523 326.362C423.932 327.749 421.362 329.156 418.792 330.564C420.077 328.034 420.975 325.016 423.402 323.302Z"></path>
<path fill="#572417" d="M522.738 327.545C526.838 330.91 530.428 335.235 530.938 340.722C530.122 349.676 522.819 356.122 515.558 360.426C514.518 349.023 516.863 337.417 522.738 327.545ZM518.475 353.205C524.308 349.268 528.408 343.271 525.981 335.969C520.8 340.232 519.821 347.065 518.475 353.205Z"></path>
<path fill="#572417" d="M506.563 761.256C507.684 767.457 508.643 773.678 509.479 779.92C509.255 791.342 506.175 802.561 506.991 814.044C507.623 830.24 518.046 844.375 517.618 860.775C519.087 883.294 510.499 904.528 503.523 925.455C505.216 925.7 508.623 926.19 510.316 926.414C524.879 929.29 539.892 930.208 554.374 926.292C553.436 915.93 551.07 905.792 549.05 895.614C548.928 893.166 548.826 890.718 548.785 888.291C551.355 889.576 553.905 890.963 556.618 891.983L558.454 892.371C570.631 890.413 582.971 890.8 595.251 891.208C595.251 889.862 595.271 887.169 595.271 885.823C596.515 884.13 597.8 882.457 599.126 880.805C599.371 882.498 599.86 885.864 600.105 887.557C599.126 891.106 598.065 894.635 597.046 898.184C599.799 898.265 602.573 898.367 605.368 898.469C616.852 898.979 628.376 898.959 639.88 899.306C640.859 899.387 642.858 899.53 643.837 899.612C646.183 904.65 651.099 911.83 645.102 916.297C634.434 923.864 620.441 923.579 607.938 923.456C599.738 923.069 588.275 922.233 586.255 912.381C575.832 912.381 565.511 910.545 555.108 910.055C554.598 920.111 561.778 929.147 559.943 939.06C553.885 946.995 543.482 949.647 534.14 951.319C521.636 952.421 508.398 952.808 496.731 947.505C491.815 945.69 491.366 937.898 485.696 937.816C471.887 937.531 457.853 937.408 444.697 932.656C445.513 931.881 447.186 930.289 448.001 929.494C453.611 930.289 459.22 931.33 464.829 932.248C463.932 930.657 463.055 929.086 462.178 927.515C465.156 923.15 466.216 918.092 463.381 913.319C475.926 913.788 488.225 917.378 500.79 916.929C503.544 913.36 505.298 908.729 504.115 904.222C499.546 881.56 486.532 860.571 488.429 836.788C489.286 834.197 490.245 831.668 491.183 829.139L491.795 827.405C490.367 837.889 489.735 848.822 493.243 859.021C497.996 873.564 502.503 888.23 507.97 902.549C512.294 888.414 516.313 873.707 514.885 858.796C513.763 847.578 508.5 837.44 505.543 826.691C499.26 805.11 509.01 783.142 506.563 761.256ZM563.594 895.981C562.513 899.285 563.655 900.428 567 899.408C568.02 896.063 566.878 894.941 563.594 895.981ZM594.68 902.447C592.007 905.343 590.253 908.913 588.254 912.279C592.681 915.909 598.066 917.765 603.736 918.377C600.615 914.706 592.497 911.83 595.72 906.078C601.023 906.608 603.858 912.89 607.938 916.011C607.489 912.421 607.754 908.668 606.388 905.282C603.675 901.651 598.657 901.978 594.68 902.447ZM496.323 932.064C500.668 936.939 507.276 938.204 513.375 939.428C513.416 932.003 501.3 926.577 496.323 932.064ZM493.957 937.673C498.281 943.079 505.645 943.67 511.764 945.812C511.458 944.955 510.846 943.221 510.54 942.365C504.972 940.896 499.505 939.162 493.957 937.673Z"></path>
<path fill="#E6C8A0" d="M450.245 287.301C461.912 281.875 475.13 281.691 487.756 282.242C497.71 282.528 506.726 287.138 515.537 291.299C516.475 292.053 518.372 293.542 519.331 294.297C505.95 296.806 495.017 285.302 481.637 286.322C466.624 285.016 453.651 294.032 439.108 295.399L440.495 294.012C443.718 291.747 446.92 289.422 450.245 287.301Z"></path>
<path fill="#E0B279" d="M439.108 295.398C453.652 294.032 466.624 285.016 481.637 286.322C495.018 285.302 505.951 296.806 519.331 294.297C520.106 294.889 521.636 296.051 522.411 296.643C516.7 298.315 510.907 300.171 506.155 303.843C499.097 309.779 492.978 316.714 487.226 323.873C495.997 316.653 504.094 306.474 516.251 305.597C527.756 305.964 534.854 316.53 539.566 325.791C537.016 336.214 537.281 347.432 532.773 357.284C527.735 364.648 519.087 368.217 512.09 373.337C501.606 380.803 490.143 387.819 477.007 388.88C455.855 392.021 434.315 380.231 423.423 362.261C420.139 357.08 416.977 351.818 413.999 346.474C413.815 345.556 413.448 343.761 413.265 342.863C414.754 343.23 417.711 343.965 419.18 344.332C419.017 339.743 418.792 335.153 418.792 330.564C421.362 329.156 423.933 327.749 426.523 326.362C427.4 328.85 428.298 331.339 429.195 333.807C432.234 334.439 435.253 335.153 438.292 335.887C437.13 333.623 435.967 331.38 434.845 329.136C433.805 321.222 436.701 313.552 443.249 308.8C443.922 308.412 445.268 307.637 445.941 307.229C441.617 305.312 437.313 303.415 433.009 301.538C435.029 299.498 437.068 297.438 439.108 295.398ZM522.738 327.545C516.863 337.417 514.518 349.023 515.558 360.426C522.819 356.122 530.122 349.676 530.938 340.722C530.428 335.235 526.838 330.91 522.738 327.545Z"></path>
<path fill="#B9785E" d="M518.923 291.054C519.984 291.033 522.085 290.972 523.145 290.931C527.368 297.397 532.1 303.659 537.974 308.738C542.666 312.777 549.254 312.655 555.047 313.756C550.131 315.837 545.256 318.019 540.422 320.222C536.057 314.083 532.079 306.984 525.022 303.598C519.045 300.763 512.233 302.293 506.154 303.843C510.907 300.172 516.7 298.315 522.411 296.643C521.636 296.051 520.106 294.889 519.331 294.297C518.372 293.542 516.475 292.053 515.537 291.299C516.373 291.237 518.066 291.115 518.923 291.054Z"></path>
<path fill="#EFCB9D" d="M422.545 310.125C428.114 304.271 436.477 307.963 443.249 308.8C436.701 313.552 433.805 321.222 434.845 329.136C431.52 326.688 428.032 320.977 423.402 323.302C420.975 325.016 420.077 328.034 418.792 330.564C418.792 335.153 419.017 339.743 419.18 344.332C417.711 343.965 414.754 343.231 413.265 342.863C412.755 331.461 414.284 318.713 422.545 310.125Z"></path>
<path fill="#DCCA81" d="M551.62 333.256C560.534 328.3 569.101 322.67 578.28 318.182C570.549 333.093 560.514 347.371 546.847 357.427C548.173 349.309 549.948 341.293 551.62 333.256Z"></path>
<path fill="#D6985B" d="M539.566 325.791C542.095 331.237 546.827 336.642 545.399 343.067C543.482 353.409 539.933 363.75 533.467 372.195C523.717 385.004 509.255 392.959 494.447 398.528C478.312 398.977 461.178 399.813 446.349 392.266C428.604 383.781 416.569 365.79 413.999 346.474C416.977 351.818 420.139 357.08 423.423 362.261C434.315 380.231 455.855 392.021 477.007 388.88C490.143 387.819 501.606 380.803 512.09 373.337C519.087 368.217 527.735 364.648 532.773 357.284C537.281 347.432 537.016 336.214 539.566 325.791Z"></path>
<path fill="#A96733" d="M518.475 353.205C519.821 347.065 520.8 340.232 525.981 335.969C528.408 343.271 524.308 349.268 518.475 353.205Z"></path>
<path fill="#AC7939" d="M535.731 383.74C536.037 375.438 541.483 368.727 546.644 362.71C544.216 373.5 540.993 384.127 539.178 395.06C537.383 404.423 535.099 413.663 532.549 422.821C532.263 420.537 532.019 418.232 531.794 415.947C533.895 405.32 535.099 394.55 535.731 383.74Z"></path>
<path fill="#EEBC53" d="M497.179 401.853C501.544 399.772 506.052 398.038 510.54 396.203C508.561 404.729 505.338 413.153 505.338 422.005C509.989 426.982 517.638 427.656 523.92 426.167C528.612 425.045 529.611 419.558 531.794 415.947C532.018 418.232 532.263 420.537 532.549 422.821C527.857 445.748 523.757 468.899 522.88 492.316C522.085 492.438 520.494 492.683 519.719 492.805C521.758 475.61 523.716 458.395 527.041 441.383C521.983 441.628 516.924 441.852 511.906 442.321C505.93 443.076 498.73 445.218 496.69 451.623C493.875 459.68 493.508 468.532 494.589 476.977C495.792 485.462 503.36 491.03 510.825 494.029C514.497 494.886 518.23 495.559 521.922 496.456C521.86 498.476 521.84 500.495 521.819 502.535C515.088 503.84 506.419 503.983 502.768 510.877C496.608 522.667 497.037 540.005 508.602 548.388C515.007 553.345 522.799 548.47 529.305 546.369C530.081 550.02 530.917 553.671 531.712 557.343C523.166 560.79 519.861 570.315 523.676 578.597C530.142 582.166 537.526 583.125 544.726 584.186L546.643 584.573C548.683 586.368 550.743 588.163 552.824 589.979C549.54 594.201 546.092 598.321 543.237 602.87C537.383 610.641 534.955 620.514 536.587 630.141C534.14 627.265 531.182 624.001 527.001 625.103C510.295 627.204 493.222 635.036 476.374 629.509C468.725 624.348 465.033 615.067 462.646 606.46C457.139 582.105 462.565 557.281 464.238 532.825C474.273 531.356 483.391 525.135 486.797 515.324C493.08 502.412 485.206 488.583 476.884 478.751C482.31 461.617 486.471 444.096 492.284 427.105C495.119 418.966 496.751 410.461 497.179 401.853ZM470.255 543.533C467.664 550.183 467.848 557.547 466.298 564.461C467.012 565.338 468.46 567.072 469.174 567.929C473.539 573.865 479.821 579.27 487.654 578.882C499.953 579.78 509.153 568.337 511.009 557.139C508.724 554.507 506.052 552.264 503.482 549.979C498.832 545.002 493.834 539.393 487.123 537.414C481.188 537.679 474.599 539.352 470.255 543.533ZM508.888 588.265C497.526 593.201 495.221 607.663 494.834 618.719C509.907 622.961 525.919 613.089 532.875 599.973C526.899 593.446 518.087 587.143 508.888 588.265Z"></path>
<path fill="#572114" d="M539.178 395.06C543.522 400.405 547.072 406.34 550.009 412.582C551.885 408.115 554.17 403.811 557.576 400.323C557.556 403.729 555.292 406.442 554.211 409.543C554.129 413.765 554.476 417.987 554.721 422.209C552.64 420.904 550.58 419.558 548.54 418.252C549.377 431.613 542.666 443.79 542.319 457.007C542.87 464.697 538.444 472.163 542.176 479.608C540.381 480.852 538.586 482.117 536.812 483.361C538.28 491.663 539.749 500.005 539.973 508.45C536.812 506.451 533.671 504.472 530.57 502.433C535.364 510.224 539.667 518.383 542.564 527.073C541.075 527.236 538.117 527.562 536.649 527.725C538.892 535.803 539.443 544.309 542.645 552.121C543.951 555.588 542.625 559.729 545.032 562.829C547.765 567.235 550.764 571.458 553.66 575.761C551.886 576.516 550.131 577.25 548.398 578.026C548.194 578.841 547.786 580.473 547.582 581.289C547.337 582.125 546.888 583.757 546.643 584.573L544.726 584.186C539.871 576.557 536.037 568.072 529.081 562.014C527.225 567.521 525.491 573.069 523.676 578.597C519.861 570.315 523.166 560.79 531.712 557.343C530.917 553.671 530.081 550.02 529.306 546.369C525.41 530.132 522.228 513.651 523.451 496.864L521.922 496.456C518.23 495.559 514.497 494.886 510.825 494.029C517.291 485.768 516.741 474.876 518.413 465.064C519.127 458.782 520.698 452.357 519.392 446.054C517.006 444.545 514.456 443.402 511.906 442.321C516.924 441.852 521.983 441.628 527.041 441.383C523.717 458.395 521.758 475.61 519.719 492.805C520.494 492.683 522.085 492.438 522.88 492.315C523.757 468.899 527.857 445.748 532.549 422.821C535.098 413.663 537.383 404.423 539.178 395.06Z"></path>
<path fill="#F9E7AF" d="M497.18 401.853C496.751 410.461 495.119 418.966 492.284 427.105C486.471 444.096 482.31 461.617 476.884 478.751C475.925 477.711 474.008 475.63 473.049 474.61C478.638 450.419 487.368 427.084 494.711 403.403C495.323 403.015 496.568 402.24 497.18 401.853Z"></path>
<path fill="#382518" d="M491.101 403.117C491.999 403.179 493.814 403.342 494.712 403.403C487.369 427.084 478.638 450.419 473.05 474.61C474.008 475.63 475.926 477.711 476.884 478.751C485.206 488.583 493.08 502.412 486.797 515.324C483.391 525.135 474.273 531.356 464.238 532.825C463.483 533.049 461.974 533.477 461.219 533.702C460.383 534.64 458.731 536.496 457.915 537.435L456.568 538.985C457.547 516.67 463.687 494.865 469.031 473.264C475.048 449.481 483.779 426.513 491.101 403.117ZM472.172 478.71C467.114 494.865 463.218 511.53 461.566 528.378C462.484 528.725 464.299 529.398 465.217 529.724C475.681 526.379 483.391 516.833 484.492 505.921C484.574 497.374 480.739 489.154 474.987 482.973C474.6 481.301 473.661 479.873 472.172 478.71Z"></path>
<path fill="#684837" d="M496.69 451.623C498.73 445.218 505.93 443.076 511.907 442.321C514.456 443.402 517.006 444.545 519.392 446.054C520.698 452.357 519.127 458.782 518.413 465.064C516.741 474.876 517.292 485.768 510.826 494.029C503.36 491.03 495.793 485.462 494.589 476.977C493.508 468.532 493.875 459.68 496.69 451.623Z"></path>
<path fill="#BBAB97" d="M472.172 478.71C473.661 479.873 474.6 481.301 474.987 482.973C472.07 498.618 469.011 514.263 465.217 529.724C464.299 529.398 462.484 528.725 461.566 528.378C463.218 511.53 467.114 494.865 472.172 478.71Z"></path>
<path fill="#98837D" d="M542.176 479.608C542.645 489.664 540.177 499.781 543.155 509.735C542.38 509.796 540.81 509.918 540.034 509.98L539.973 508.45C539.749 500.005 538.28 491.663 536.812 483.361C538.586 482.117 540.381 480.852 542.176 479.608Z"></path>
<path fill="#7F5E3C" d="M474.987 482.973C480.74 489.154 484.574 497.374 484.493 505.921C483.391 516.833 475.681 526.379 465.217 529.724C469.011 514.263 472.071 498.618 474.987 482.973Z"></path>
<path fill="#69483A" d="M521.922 496.456L523.452 496.864C522.228 513.651 525.41 530.132 529.306 546.369C522.799 548.47 515.007 553.345 508.602 548.388C497.037 540.005 496.609 522.667 502.769 510.877C506.42 503.983 515.089 503.84 521.82 502.535C521.84 500.495 521.861 498.476 521.922 496.456Z"></path>
<path fill="#EAD593" d="M461.219 533.702C461.974 533.477 463.483 533.049 464.238 532.825C462.565 557.281 457.139 582.105 462.647 606.46C465.033 615.067 468.725 624.348 476.374 629.509C493.222 635.036 510.295 627.204 527.001 625.103C531.182 624.001 534.14 627.265 536.587 630.141C540.137 638.83 545.44 646.663 551.885 653.476C546.664 656.515 541.054 658.84 535.119 659.962C531.447 651.171 524.125 644.868 516.068 640.217C516.843 639.993 518.413 639.524 519.188 639.299C518.882 636.444 518.413 633.609 518.005 630.773C507.174 631.793 496.486 634.282 485.594 634.465C477.149 634.526 469.806 629.815 462.422 626.327C462.973 617.719 458.567 609.948 457.302 601.605C453.549 580.29 459.261 558.832 457.914 537.435C458.73 536.496 460.383 534.64 461.219 533.702Z"></path>
<path fill="#674A38" d="M470.255 543.533C474.6 539.352 481.188 537.679 487.124 537.414C493.834 539.393 498.832 545.002 503.482 549.979C506.297 555.69 508.113 562.993 503.034 568.112C496.792 577.862 482.514 577.332 474.906 569.642C473.396 566.338 472.682 562.768 471.825 559.26C470.948 562.156 470.071 565.053 469.174 567.929C468.46 567.072 467.012 565.338 466.298 564.461C467.848 557.546 467.664 550.183 470.255 543.533Z"></path>
<path fill="#785B44" d="M454.61 543.554C454.712 541.779 455.365 540.249 456.568 538.985L457.915 537.435C459.261 558.831 453.549 580.29 457.303 601.605C458.567 609.947 462.973 617.719 462.422 626.327C461.77 636.117 464.238 645.663 466.645 655.046C458.261 643.991 454.141 630.671 450.776 617.413C448.715 622.002 446.635 626.694 446.043 631.752C444.921 640.89 444.289 650.11 444.473 659.309C443.126 653.516 441.719 647.744 440.985 641.849C440.964 640.85 440.903 638.871 440.862 637.892C438.986 641.033 437.109 644.154 435.212 647.295C435.11 646.418 434.906 644.644 434.825 643.766C437.252 631.344 443.657 620.065 450.368 609.458C453.611 604.828 452.061 598.872 452.305 593.63C451.551 576.904 453.04 560.198 454.61 543.554Z"></path>
<path fill="#261812" d="M503.033 568.112C508.112 562.993 506.297 555.69 503.482 549.979C506.052 552.264 508.724 554.507 511.009 557.139C509.153 568.337 499.953 579.78 487.654 578.882C479.821 579.27 473.539 573.864 469.174 567.929C470.071 565.053 470.948 562.156 471.825 559.26C472.682 562.768 473.396 566.338 474.905 569.642C482.514 577.332 496.792 577.862 503.033 568.112Z"></path>
<path fill="#734828" d="M529.081 562.013C536.037 568.071 539.872 576.557 544.726 584.185C537.526 583.125 530.142 582.166 523.676 578.597C525.491 573.069 527.225 567.521 529.081 562.013Z"></path>
<path fill="#6D4D3B" d="M547.582 581.289C550.968 582.921 553.783 585.491 556.659 587.898C568.346 598.362 582.849 604.767 595.883 613.313C594.883 614.027 592.864 615.434 591.865 616.148C579.524 608.866 566.837 602.196 555.068 594.017C554.374 595.894 553.681 597.791 553.028 599.688C564.96 609.54 579.32 616.944 594.822 618.8C597.433 627.265 591.538 635.179 585.97 640.931C574.914 652.211 552.11 651.66 544.522 636.648C538.076 626.408 541.136 613.925 543.237 602.87C546.093 598.321 549.54 594.201 552.824 589.978C550.743 588.163 548.683 586.368 546.643 584.573C546.888 583.757 547.337 582.125 547.582 581.289Z"></path>
<path fill="#744936" d="M508.888 588.265C518.087 587.143 526.899 593.446 532.875 599.973C525.92 613.089 509.907 622.961 494.834 618.718C495.221 607.663 497.526 593.201 508.888 588.265Z"></path>
<path fill="#A69379" d="M555.068 594.017C566.837 602.197 579.524 608.867 591.865 616.148C592.599 616.801 594.088 618.147 594.822 618.8C579.32 616.944 564.96 609.54 553.028 599.688C553.681 597.791 554.374 595.894 555.068 594.017Z"></path>
<path fill="#503326" d="M536.587 630.141C534.956 620.513 537.383 610.641 543.237 602.87C541.136 613.925 538.076 626.408 544.522 636.648C552.11 651.66 574.914 652.211 585.97 640.931C591.538 635.179 597.433 627.265 594.822 618.8C594.088 618.147 592.599 616.801 591.865 616.148C592.864 615.434 594.883 614.027 595.883 613.313C599.126 615.618 602.39 617.902 605.674 620.207C605.102 620.677 603.94 621.656 603.369 622.125C597.331 633.037 592.538 645.867 580.87 652.109C572.12 657.861 561.431 655.209 551.885 653.476C545.44 646.663 540.137 638.83 536.587 630.141Z"></path>
<path fill="#EFF0F3" d="M446.043 631.752C446.635 626.694 448.715 622.002 450.775 617.413C454.141 630.671 458.261 643.991 466.645 655.046C464.238 645.664 461.77 636.117 462.422 626.327C469.806 629.815 477.149 634.527 485.594 634.465C496.486 634.282 507.174 631.793 518.005 630.773C518.413 633.609 518.882 636.444 519.188 639.3C518.413 639.524 516.843 639.993 516.068 640.217C505.012 640.809 500.3 652.048 499.24 661.573C498.097 674.138 498.669 686.805 499.403 699.37C497.791 703.531 496.853 709.589 491.244 709.65C477.272 711.384 467.889 698.065 460.77 688.029C451.856 670.752 446.676 651.212 446.043 631.752Z"></path>
<path fill="#613E24" d="M605.674 620.207C615.567 626.449 624.235 634.384 632.762 642.359C637.208 646.949 640.268 652.639 642.756 658.473C648.182 671.548 652.996 685.418 651.772 699.819C651.425 717.687 642.104 733.434 635.821 749.67C630.151 767.028 629.906 785.733 631.762 803.744C634.189 814.656 634.516 825.997 632.721 837.053C631.007 846.986 630.844 857.43 634.006 867.119C637.473 877.888 641.92 888.393 643.837 899.612C642.858 899.53 640.859 899.387 639.88 899.306C637.004 883.498 628.376 869.056 628.172 852.759C627.887 841.744 631.089 831.015 631.273 820.041C631.456 809.904 626.928 800.562 622.542 791.689C624.113 786.834 625.663 781.939 627.132 777.043C623.501 776.574 619.381 777.329 616.362 774.841C616.994 769.904 620.095 765.886 623.624 762.602C624.378 763.234 625.908 764.499 626.683 765.131C627.438 762.541 628.172 759.95 628.988 757.38C633.965 741.307 642.308 726.478 646.713 710.201C643.817 712.322 640.9 714.423 638.106 716.667C633.435 709.018 631.456 699.044 635.74 690.803C638.391 687.907 643.103 688.559 646.693 687.58C645.49 680.584 644.878 673.159 641.124 666.979C634.924 665.225 628.009 666.041 622.216 663.022C613.547 655.393 615.057 642.624 616.015 632.303C611.813 628.897 607.571 625.552 603.369 622.125C603.94 621.656 605.103 620.677 605.674 620.207ZM619.911 636.036C620.299 640.156 619.238 645.296 622.726 648.397C625.194 650.335 628.131 651.538 630.946 652.945C629.784 645.929 626.071 639.728 619.911 636.036Z"></path>
<path fill="#F0B748" d="M580.87 652.109C592.538 645.867 597.331 633.037 603.369 622.125C607.571 625.552 611.813 628.897 616.015 632.303C615.056 642.624 613.547 655.393 622.216 663.022C628.009 666.041 634.924 665.225 641.124 666.979C644.877 673.159 645.489 680.584 646.693 687.58C643.103 688.559 638.391 687.907 635.74 690.803C631.456 699.044 633.435 709.018 638.106 716.667C637.249 718.523 636.535 720.42 635.923 722.378C632.721 720.869 629.539 719.38 626.357 717.911C623.991 723.928 623.297 730.272 628.111 735.29C627.05 735.575 624.97 736.147 623.909 736.432C618.116 736.575 614.037 742.388 616.464 747.834C617.525 752.301 622.909 752.342 626.336 754.157C627.009 754.973 628.315 756.585 628.988 757.38C628.172 759.95 627.438 762.541 626.683 765.131C625.908 764.499 624.378 763.234 623.623 762.602C621.482 760.787 619.442 758.89 617.423 756.972C612.711 751.118 606.061 747.834 598.494 749.364C597.107 742.143 595.577 734.963 594.251 727.743C596.474 725.193 598.779 722.684 600.676 719.849C599.432 716.585 597.474 713.648 595.577 710.772C595.128 710.119 594.231 708.794 593.782 708.12C597.209 706.835 600.921 705.612 603.512 702.837C605.082 699.105 603.002 695.025 602.553 691.252C595.536 695.025 588.377 698.472 581.115 701.756C582.706 703.857 584.318 705.979 585.97 708.08C587.092 709.487 588.234 710.894 589.396 712.302C586.724 713.016 584.093 713.75 581.462 714.484C578.504 713.016 575.567 711.568 572.609 710.181L573.303 708.875C578.198 700.308 583.236 690.375 580.626 680.257C578.484 675.566 574.772 671.854 571.61 667.897C560.575 668.713 548.275 669.834 540.912 679.238C538.892 678.483 536.893 677.728 534.895 676.994C535.364 671.323 535.486 665.633 535.119 659.962C541.055 658.84 546.664 656.515 551.886 653.476C561.432 655.209 572.12 657.861 580.87 652.109ZM600.778 669.794C593.966 673.995 598.167 684.235 602.879 688.763C610.039 691.904 617.361 682.358 613.812 675.892C612.221 670.65 605.816 667.509 600.778 669.794ZM616.729 691.639C607.367 696.29 617.117 710.446 625.133 706.652C632.211 701.246 625.867 686.56 616.729 691.639ZM610.834 710.507C605.204 712.241 604.797 722.133 610.814 723.5C616.851 725.132 621.93 719.686 623.032 714.178C621.053 709.671 614.975 708.508 610.834 710.507ZM603.104 736.983C605.307 737.595 607.571 738.125 609.876 738.594C610.671 734.719 613.139 728.355 607.53 726.968C601.9 725.193 601.859 733.413 603.104 736.983Z"></path>
<path fill="#CDCBD2" d="M444.473 659.309C444.289 650.11 444.921 640.89 446.043 631.752C446.676 651.211 451.856 670.752 460.77 688.029C467.889 698.064 477.272 711.384 491.244 709.65C496.853 709.589 497.792 703.531 499.403 699.37C500.239 704.734 501.32 710.058 502.157 715.423C502.932 722.705 502.83 730.068 502.279 737.37C494.406 729.782 488.531 720.359 480.229 713.199C485.023 721.216 490.53 728.783 494.956 737.044C490.795 735.433 486.695 733.74 482.738 731.761C478.149 727.11 473.763 722.256 469.623 717.238C456.038 700.675 447.981 680.319 444.473 659.309Z"></path>
<path fill="#786859" d="M619.911 636.036C626.071 639.728 629.783 645.929 630.946 652.945C628.131 651.538 625.194 650.334 622.726 648.397C619.238 645.296 620.298 640.156 619.911 636.036Z"></path>
<path fill="#C09653" d="M435.212 647.295C437.109 644.154 438.986 641.033 440.862 637.892C440.903 638.871 440.964 640.85 440.985 641.849C440.291 655.944 442.637 669.834 444.33 683.766C438.639 672.425 436.763 659.758 435.212 647.295Z"></path>
<path fill="#483E38" d="M499.24 661.573C500.3 652.048 505.012 640.809 516.067 640.217C524.124 644.868 531.447 651.171 535.119 659.962C535.486 665.633 535.364 671.323 534.894 676.994C533.875 681.441 532.569 685.867 530.366 689.906C527.347 688.539 524.696 686.52 522.493 684.092C534.792 674.097 530.835 654.169 519.433 645.194C516.129 642.4 512.029 645.235 508.561 645.99C504.319 656.087 505.379 667.142 504.217 677.789C503.197 683.684 503.747 689.661 504.808 695.515C509.418 693.21 513.905 689.069 519.453 689.987C524.859 694.087 523.553 702.613 518.821 706.631C513.783 708.345 509.275 703.735 504.808 702.083C505.583 705.897 506.399 709.732 507.256 713.546C513.62 715.647 518.74 720.033 523.288 724.826C521.146 729.232 518.638 733.434 515.619 737.289C515.537 732.557 515.925 727.804 515.456 723.113C513.844 720.685 511.458 718.931 509.438 716.953C510.785 733.617 512.457 750.323 510.805 767.089C510.315 771.353 509.805 775.616 509.479 779.919C508.643 773.678 507.684 767.457 506.562 761.256C506.012 760.848 504.951 760.012 504.421 759.583C505.971 754.912 507.093 750.037 506.644 745.081C505.481 735.147 503.809 725.275 502.156 715.423C501.32 710.058 500.239 704.734 499.403 699.37C498.668 686.805 498.097 674.138 499.24 661.573ZM512.702 693.985C509.867 696.535 511.519 700.716 512.049 703.878C516.965 706.937 517.924 701.328 518.964 697.759C517.964 695.902 514.456 689.987 512.702 693.985Z"></path>
<path fill="#7F542B" d="M440.984 641.849C441.719 647.744 443.126 653.516 444.472 659.309C447.981 680.319 456.038 700.675 469.623 717.238C467.562 718.911 465.502 720.583 463.544 722.358C466.318 715.015 458.2 711.017 452.611 708.896C448.695 701.716 443.901 695.086 439.292 688.355C433.886 674.444 431.541 658.493 434.825 643.766C434.906 644.644 435.11 646.418 435.212 647.295C436.762 659.758 438.639 672.425 444.33 683.766C442.637 669.834 440.291 655.944 440.984 641.849Z"></path>
<path fill="#A4742A" d="M632.762 642.359C648.937 647.397 663.011 660.758 666.397 677.708C670.252 691.945 664.99 706.489 667.07 720.91C663.093 721.848 659.197 723.051 655.301 724.234C658.748 719.482 660.38 713.75 660.38 707.916C660.645 695.229 662.338 681.624 656.3 669.916C653.445 663.613 648.529 658.595 643.368 654.169C643.205 655.23 642.899 657.392 642.757 658.473C640.268 652.639 637.208 646.948 632.762 642.359Z"></path>
<path fill="#A3795E" d="M508.561 645.99C512.029 645.235 516.129 642.4 519.433 645.194C530.835 654.169 534.792 674.098 522.493 684.092C520.943 681.951 519.515 679.768 518.087 677.606C518.577 673.017 519.739 668.366 518.984 663.776C516.537 657.31 512.029 651.885 508.561 645.99Z"></path>
<path fill="#715849" d="M504.217 677.789C505.379 667.142 504.319 656.087 508.561 645.99C512.029 651.885 516.537 657.31 518.984 663.776C519.739 668.366 518.576 673.016 518.087 677.606C513.436 677.647 508.826 677.708 504.217 677.789Z"></path>
<path fill="#FDFDFE" d="M489.225 748.936C494.263 752.485 499.383 755.973 504.421 759.583C504.951 760.012 506.012 760.848 506.562 761.256C509.01 783.142 499.26 805.11 505.543 826.691C508.5 837.44 513.763 847.578 514.885 858.796C516.312 873.707 512.294 888.413 507.97 902.549C502.503 888.23 497.995 873.564 493.243 859.021C489.735 848.822 490.367 837.889 491.795 827.405C495.629 808.272 490.938 788.874 489.571 769.721C489.184 762.786 489.225 755.871 489.225 748.936Z"></path>
<path fill="#624135" d="M540.912 679.238C548.275 669.834 560.575 668.713 571.61 667.897C574.772 671.854 578.484 675.566 580.626 680.258C583.237 690.375 578.198 700.308 573.303 708.875C572.854 707.916 571.977 706.02 571.528 705.061C574.751 694.882 576.505 683.786 571.386 673.873C566.674 673.649 561.982 673.404 557.291 673.098C562.207 675.974 568.856 678.055 570.651 684.153C573.772 693.618 570.713 705.591 562.186 711.221C557.862 712.057 553.456 711.364 549.132 711.119C548.316 713.22 547.5 715.341 546.705 717.463C546.134 718.89 545.012 721.746 544.441 723.174C541.973 717.32 539.26 711.568 537.261 705.55C536.873 696.657 537.363 687.539 540.912 679.238Z"></path>
<path fill="#69482F" d="M600.778 669.794C605.816 667.509 612.221 670.65 613.812 675.893C617.361 682.358 610.039 691.904 602.879 688.763C598.167 684.235 593.965 673.995 600.778 669.794Z"></path>
<path fill="#CA8030" d="M557.291 673.098C561.982 673.404 566.674 673.649 571.386 673.873C576.505 683.786 574.751 694.883 571.528 705.061C565.756 714.484 559.983 724.112 551.62 731.516C549.927 726.825 548.296 722.154 546.705 717.463C547.5 715.341 548.316 713.22 549.132 711.119C553.456 711.364 557.862 712.057 562.186 711.221C570.712 705.591 573.772 693.618 570.651 684.153C568.856 678.055 562.207 675.974 557.291 673.098Z"></path>
<path fill="#EDBE52" d="M504.216 677.789C508.826 677.708 513.436 677.647 518.087 677.606C519.515 679.768 520.942 681.951 522.493 684.092C524.696 686.52 527.347 688.539 530.366 689.906C532.569 685.867 533.874 681.441 534.894 676.994C536.893 677.728 538.892 678.483 540.912 679.238C537.362 687.539 536.873 696.657 537.26 705.55C537.281 706.835 537.301 709.385 537.301 710.65C536.343 710.446 534.405 709.997 533.426 709.773C529.224 708.222 525.063 709.304 521.371 711.527C522.493 712.751 524.777 715.219 525.919 716.463C527.041 717.666 528.224 718.87 529.407 720.073C527.347 721.644 525.308 723.235 523.288 724.826C518.74 720.033 513.62 715.647 507.256 713.546C506.399 709.732 505.583 705.897 504.808 702.083C509.275 703.735 513.783 708.345 518.821 706.632C523.553 702.613 524.859 694.087 519.453 689.987C513.905 689.069 509.418 693.21 504.808 695.515C503.747 689.661 503.197 683.684 504.216 677.789Z"></path>
<path fill="#6D4A29" d="M439.292 688.355C443.901 695.086 448.695 701.716 452.611 708.896C453.733 718.136 453.835 727.6 456.956 736.473C459.832 743.918 458.261 751.893 457.078 759.502C461.892 757.951 466.767 756.626 471.703 755.463C472.172 759.644 473.212 763.887 472.662 768.13C471.132 773.107 465.135 772.372 461.076 772.434C460.158 772.434 458.281 772.393 457.364 772.372C456.894 776.126 456.446 779.858 456.017 783.632C455.018 771.047 453.896 758.441 451.367 746.06C449.266 735.392 450.061 724.234 446.594 713.832C443.738 705.469 439.863 697.31 439.292 688.355Z"></path>
<path fill="#714F2E" d="M581.115 701.756C588.376 698.472 595.536 695.025 602.553 691.252C603.001 695.025 605.082 699.105 603.511 702.838C600.921 705.612 597.209 706.835 593.782 708.12C591.171 708.141 588.56 708.141 585.97 708.08C584.317 705.979 582.706 703.857 581.115 701.756Z"></path>
<path fill="#6C4E33" d="M616.729 691.639C625.867 686.56 632.211 701.246 625.133 706.652C617.116 710.446 607.367 696.29 616.729 691.639Z"></path>
<path fill="#B27C49" d="M512.702 693.985C514.456 689.987 517.965 695.902 518.964 697.759C517.924 701.328 516.965 706.937 512.049 703.878C511.519 700.716 509.867 696.535 512.702 693.985Z"></path>
<path fill="#794A27" d="M551.621 731.516C559.984 724.112 565.756 714.484 571.529 705.061C571.977 706.02 572.854 707.916 573.303 708.875L572.61 710.181C564.92 724.846 549.255 736.167 549.091 754.015C560.494 756.034 572.161 756.156 583.685 755.239C582.727 755.81 580.789 756.952 579.83 757.503C581.768 763.52 583.645 769.537 585.746 775.514C582.91 781.49 576.771 785.896 570.019 782.999C560.534 779.817 564.593 768.089 564.859 760.746C560.8 759.42 556.761 758.135 552.743 756.83C551.152 764.295 549.703 771.781 548.337 779.287C551.131 781.001 553.926 782.714 556.781 784.366C561.473 802.683 562.737 821.653 562.37 840.5C562.023 855.186 556.822 869.138 554.966 883.62C554.313 886.537 555.476 889.331 556.618 891.983C553.905 890.963 551.356 889.576 548.785 888.291C548.826 890.718 548.928 893.166 549.051 895.614C545.726 882.457 541.565 869.423 540.015 855.88C538.546 842.54 542.115 829.343 541.728 816.003C541.3 800.908 543.135 785.774 541.157 770.761C537.159 769.884 533.079 769.027 529.469 767.008C529.632 760.807 534.63 757.625 540.178 756.728C538.709 754.198 537.261 751.649 535.853 749.099C539.912 745.468 545.277 742.531 547.358 737.228C548.072 732.373 546.011 727.661 544.441 723.174C545.012 721.746 546.134 718.89 546.705 717.463C548.296 722.154 549.928 726.825 551.621 731.516ZM547.092 782.898C544.012 797.135 546.419 811.801 544.522 826.181C543.768 835.727 540.749 845.191 542.401 854.839C544.094 864.752 545.909 874.87 550.458 883.947C553.497 872.198 556.129 860.326 558.76 848.455C561.758 836.359 557.842 824.121 558.209 811.923C558.148 801.439 557.393 788.609 547.092 782.898Z"></path>
<path fill="#DD9738" d="M452.611 708.896C458.2 711.017 466.318 715.015 463.544 722.358C461.769 725.968 458.057 730.354 460.994 734.372C463.993 738.329 468.439 740.818 472.437 743.714C472.458 746.651 472.498 749.609 472.539 752.587C474.803 752.771 477.067 752.974 479.352 753.219C477.74 763.051 475.966 772.882 475.476 782.857C475.721 786.569 476.211 790.281 476.884 793.973C479.597 808.537 486.328 822.061 488.429 836.788C486.532 860.571 499.545 881.56 504.114 904.222C505.297 908.729 503.543 913.36 500.79 916.929C488.225 917.378 475.925 913.788 463.381 913.319C464.503 895.614 470.316 878.602 471.683 860.897C473.274 844.947 470.867 828.975 467.889 813.351C465.216 799.766 464.503 785.876 461.076 772.434C465.135 772.372 471.132 773.107 472.662 768.13C473.212 763.887 472.172 759.644 471.703 755.463C466.767 756.626 461.892 757.951 457.078 759.502C458.261 751.893 459.832 743.918 456.956 736.473C453.835 727.6 453.733 718.136 452.611 708.896Z"></path>
<path fill="#775D3C" d="M521.371 711.527C525.063 709.303 529.224 708.222 533.426 709.773C530.937 712.016 528.449 714.26 525.919 716.463C524.777 715.219 522.493 712.751 521.371 711.527Z"></path>
<path fill="#AE6E36" d="M585.97 708.08C588.56 708.141 591.171 708.141 593.782 708.12C594.231 708.794 595.128 710.119 595.577 710.772C592.925 716.463 590.661 722.358 589.254 728.497C586.908 723.684 584.134 719.115 581.462 714.484C584.093 713.75 586.724 713.016 589.397 712.302C588.234 710.895 587.092 709.487 585.97 708.08Z"></path>
<path fill="#D7D4D8" d="M549.091 754.015C549.254 736.167 564.92 724.846 572.61 710.181C575.567 711.568 578.504 713.016 581.462 714.484C584.134 719.115 586.908 723.684 589.254 728.497C590.315 735.718 595.761 745.815 587.724 750.853C575.71 756.32 561.881 753.444 549.091 754.015Z"></path>
<path fill="#77523F" d="M610.834 710.507C614.975 708.508 621.053 709.671 623.032 714.178C621.931 719.686 616.852 725.132 610.814 723.5C604.797 722.133 605.205 712.241 610.834 710.507Z"></path>
<path fill="#DA9837" d="M638.106 716.667C640.9 714.423 643.817 712.322 646.714 710.201C642.308 726.478 633.965 741.307 628.988 757.38C628.315 756.585 627.009 754.973 626.336 754.157C627.948 749.792 629.539 745.407 631.089 741.022C628.682 739.471 626.296 737.962 623.909 736.432C624.97 736.147 627.05 735.575 628.111 735.29C634.822 734.596 634.332 727.355 635.923 722.378C636.535 720.42 637.249 718.523 638.106 716.667Z"></path>
<path fill="#61422D" d="M589.254 728.497C590.661 722.358 592.926 716.463 595.577 710.772C597.474 713.648 599.432 716.585 600.677 719.849C598.78 722.684 596.475 725.193 594.251 727.743C595.577 734.963 597.107 742.143 598.494 749.364C606.061 747.834 612.711 751.118 617.423 756.972C614.893 765.6 606.918 769.537 598.78 771.332C599.086 776.513 599.473 781.674 599.901 786.834C599.33 790.016 598.637 793.178 598.086 796.36C597.046 792.321 595.903 788.323 594.986 784.285C595.903 777.003 595.863 769.619 594.639 762.378C594.068 758.196 593.313 754.035 592.599 749.874C589.621 751.689 586.684 753.525 583.685 755.239C572.161 756.156 560.493 756.034 549.091 754.015C561.881 753.444 575.71 756.32 587.724 750.853C595.761 745.815 590.315 735.718 589.254 728.497ZM604.45 756.809C601.023 757.686 602.166 763.703 605.796 762.541C609.182 761.664 608.04 755.626 604.45 756.809Z"></path>
<path fill="#615456" d="M480.229 713.199C488.531 720.359 494.405 729.782 502.279 737.37C502.83 730.068 502.932 722.705 502.157 715.423C503.809 725.275 505.481 735.147 506.644 745.081C499.525 743.306 492.447 741.368 485.369 739.512C484.39 736.962 483.534 734.352 482.738 731.761C486.695 733.74 490.795 735.433 494.956 737.044C490.53 728.783 485.023 721.216 480.229 713.199Z"></path>
<path fill="#773F1D" d="M463.544 722.358C465.502 720.583 467.563 718.911 469.623 717.238C473.763 722.256 478.149 727.11 482.738 731.761C483.534 734.351 484.39 736.962 485.369 739.512C489.796 748.976 487.674 759.706 489.571 769.721C490.938 788.874 495.629 808.272 491.795 827.405L491.183 829.138C490.693 816.003 489.816 802.867 487.776 789.853C484.146 791.22 480.494 792.586 476.884 793.973C476.211 790.281 475.721 786.569 475.477 782.857C479.026 781.796 482.595 780.776 486.185 779.817C485.594 770.863 484.656 761.786 481.168 753.444L479.352 753.219C477.068 752.974 474.804 752.77 472.539 752.587C472.499 749.609 472.458 746.651 472.438 743.714C468.44 740.818 463.993 738.329 460.994 734.372C458.057 730.354 461.77 725.968 463.544 722.358Z"></path>
<path fill="#62492F" d="M626.356 717.911C629.538 719.38 632.72 720.869 635.923 722.378C634.332 727.355 634.821 734.596 628.111 735.29C623.297 730.272 623.99 723.929 626.356 717.911Z"></path>
<path fill="#33160E" d="M655.301 724.234C659.197 723.051 663.093 721.848 667.07 720.91C669.864 720.257 672.435 722.093 675.066 722.847C674.821 727.824 674.801 732.822 674.903 737.84C676.942 738.186 681.022 738.88 683.062 739.227C681.389 744.428 678.962 749.405 677.881 754.769C680.43 761.501 684.143 768.089 682.715 775.616C679.41 771.495 676.983 766.743 673.658 762.663C668.681 757.747 661.094 756.646 656.341 751.485C650.609 743.877 650.65 733.454 653.547 724.765L655.301 724.234Z"></path>
<path fill="#72503D" d="M531.304 724.561C534.996 722.562 540.361 723.011 542.666 726.927C546.195 733.087 540.891 743.102 533.303 741.899C527.368 738.513 525.144 728.783 531.304 724.561Z"></path>
<path fill="#835941" d="M675.066 722.847C680.206 726.825 682.98 732.74 683.062 739.227C681.022 738.88 676.942 738.186 674.903 737.84C674.801 732.822 674.821 727.824 675.066 722.847Z"></path>
<path fill="#5F4838" d="M603.104 736.983C601.859 733.413 601.9 725.193 607.53 726.968C613.139 728.355 610.671 734.719 609.876 738.594C607.571 738.125 605.307 737.595 603.104 736.983Z"></path>
<path fill="#6C4B2E" d="M616.464 747.834C614.037 742.388 618.116 736.575 623.909 736.432C626.296 737.962 628.682 739.471 631.089 741.021C629.539 745.407 627.948 749.792 626.336 754.157C622.909 752.342 617.525 752.301 616.464 747.834Z"></path>
<path fill="#AEA9B0" d="M485.37 739.512C492.448 741.368 499.525 743.306 506.644 745.081C507.093 750.037 505.971 754.912 504.421 759.583C499.383 755.973 494.263 752.485 489.225 748.936C489.225 755.871 489.184 762.786 489.571 769.721C487.675 759.706 489.796 748.977 485.37 739.512Z"></path>
<path fill="#7E583A" d="M521.065 743.449C525.349 742.327 531.346 745.652 530.162 750.69C530.448 757.299 521.861 766.09 516.578 758.543C510.805 753.525 514.66 745.448 521.065 743.449Z"></path>
<path fill="#81674F" d="M451.367 746.06C453.896 758.441 455.018 771.047 456.018 783.632C456.446 779.858 456.895 776.126 457.364 772.372C458.282 772.393 460.158 772.434 461.076 772.434C457.078 781.918 459.444 792.24 460.893 801.99C463.626 819.898 470.602 837.522 468.032 855.92C465.421 875.4 460.607 894.533 455.385 913.462C458.037 913.421 460.709 913.36 463.381 913.319C466.217 918.092 465.156 923.15 462.178 927.515C458.384 927.169 454.59 926.781 450.776 926.842C450.082 927.515 448.695 928.841 448.002 929.494C447.186 930.289 445.513 931.88 444.697 932.656C442.759 924.599 449.613 918.173 451.49 910.728C456.752 893.085 460.77 875.012 463.667 856.818C466.033 842.193 462.402 827.67 459.098 813.534C453.652 791.444 453.081 768.619 451.367 746.06ZM453.366 917.929C452.836 918.887 451.796 920.784 451.265 921.743C455.141 922.375 459.016 923.048 462.892 923.721C462.912 922.375 462.973 919.724 462.994 918.398C459.771 918.214 456.548 918.051 453.366 917.929Z"></path>
<path fill="#EDA742" d="M583.685 755.239C586.684 753.525 589.621 751.689 592.599 749.874C593.313 754.035 594.068 758.196 594.639 762.378C595.189 770.516 595.577 779.328 590.11 786.059C588.54 782.551 587.051 779.083 585.745 775.514C583.644 769.537 581.768 763.52 579.83 757.503C580.789 756.952 582.727 755.81 583.685 755.239Z"></path>
<path fill="#C67D2D" d="M479.352 753.219L481.167 753.444C484.655 761.786 485.594 770.863 486.185 779.817C482.595 780.776 479.026 781.796 475.477 782.857C475.966 772.882 477.741 763.051 479.352 753.219Z"></path>
<path fill="#D28D33" d="M552.742 756.83C556.761 758.135 560.799 759.42 564.858 760.746C564.593 768.089 560.534 779.817 570.019 782.999C576.77 785.896 582.91 781.49 585.745 775.514C587.051 779.083 588.54 782.551 590.11 786.059C589.947 787.324 589.804 788.609 589.703 789.914C581.829 787.589 572.059 788.609 567 795.768C567.123 796.564 567.347 798.196 567.449 798.991C573.67 801.826 580.687 801.214 587.357 801.663C586.867 815.268 586.011 828.914 586.48 842.54C587.01 857.369 592.497 871.361 595.271 885.823C595.271 887.169 595.251 889.862 595.251 891.208C582.971 890.8 570.631 890.412 558.454 892.371C564.634 866.976 567.51 840.663 566.143 814.534C565.695 804.764 563.267 795.197 559.8 786.1C559.045 785.672 557.536 784.794 556.781 784.366C553.925 782.714 551.131 781.001 548.336 779.287C549.703 771.781 551.151 764.295 552.742 756.83Z"></path>
<path fill="#AA7E3C" d="M604.45 756.809C608.04 755.626 609.182 761.664 605.796 762.541C602.165 763.703 601.023 757.686 604.45 756.809Z"></path>
<path fill="#DC9A37" d="M617.422 756.972C619.442 758.89 621.482 760.787 623.623 762.602C620.095 765.886 616.994 769.904 616.362 774.84C619.381 777.329 623.501 776.574 627.132 777.043C625.663 781.939 624.113 786.834 622.542 791.689C626.928 800.562 631.456 809.904 631.272 820.041C631.089 831.015 627.886 841.744 628.172 852.759C628.376 869.056 637.004 883.498 639.88 899.306C628.376 898.959 616.851 898.979 605.368 898.469C606.428 880.418 611.303 862.794 611.466 844.661C611.405 830.607 612.609 815.962 607.448 802.601C610.487 801.643 613.629 800.786 616.586 799.481C620.237 794.055 616.749 783.183 609.019 786.365C603.205 788.18 603.981 794.402 606.02 798.848C605.347 800.256 604.001 803.071 603.328 804.498C602.226 798.583 600.901 792.749 599.901 786.834C599.473 781.674 599.085 776.513 598.779 771.332C606.918 769.537 614.893 765.6 617.422 756.972Z"></path>
<path fill="#F8E198" d="M510.805 767.089C512.845 764.948 515.028 762.928 517.23 760.95C516.7 767.824 515.476 774.637 514.314 781.429C514.15 782.408 513.845 784.386 513.702 785.366C512.967 793.525 512.233 801.704 511.988 809.883C511.478 824.937 519.903 838.236 521.698 852.922C524.614 877.848 519.087 903.141 510.316 926.414C508.623 926.19 505.216 925.7 503.523 925.455C510.499 904.528 519.087 883.294 517.618 860.775C518.046 844.375 507.623 830.24 506.991 814.044C506.175 802.561 509.255 791.342 509.479 779.919C509.806 775.616 510.316 771.353 510.805 767.089Z"></path>
<path fill="#6E421F" d="M594.639 762.378C595.862 769.619 595.903 777.003 594.985 784.285C588.376 803.703 591.273 824.529 590.233 844.641C590.335 856.859 594.741 868.444 598.106 880.03C607.734 853.085 603.165 823.774 598.086 796.36C598.636 793.178 599.33 790.016 599.901 786.834C600.901 792.749 602.226 798.583 603.328 804.498C608.733 831.933 609.753 860.897 600.105 887.557C599.86 885.864 599.371 882.498 599.126 880.805C597.8 882.457 596.515 884.13 595.271 885.823C592.497 871.361 587.01 857.369 586.48 842.54C586.01 828.914 586.867 815.268 587.357 801.663C580.687 801.214 573.67 801.826 567.449 798.991C567.347 798.196 567.122 796.564 567 795.768C572.059 788.609 581.829 787.589 589.702 789.914C589.804 788.609 589.947 787.324 590.11 786.059C595.577 779.328 595.189 770.516 594.639 762.378Z"></path>
<path fill="#F2D580" d="M460.893 801.99C459.444 792.24 457.078 781.918 461.076 772.434C464.503 785.876 465.217 799.766 467.889 813.351C470.867 828.975 473.274 844.947 471.683 860.897C470.316 878.602 464.503 895.614 463.381 913.319C460.709 913.36 458.037 913.421 455.385 913.462C460.607 894.533 465.421 875.4 468.032 855.92C470.602 837.522 463.626 819.899 460.893 801.99Z"></path>
<path fill="#835835" d="M514.314 781.429C517.067 778.186 519.943 774.433 524.288 773.331C529 774.657 533.181 777.268 537.485 779.573C534.548 783.285 531.549 786.957 528.551 790.608C523.574 788.915 518.617 787.161 513.702 785.366C513.844 784.386 514.15 782.408 514.314 781.429Z"></path>
<path fill="#FCFDFE" d="M547.092 782.898C557.393 788.609 558.148 801.439 558.209 811.923C557.842 824.121 561.758 836.359 558.76 848.455C556.128 860.326 553.497 872.198 550.458 883.947C545.909 874.87 544.094 864.752 542.401 854.839C540.749 845.191 543.767 835.727 544.522 826.181C546.419 811.801 544.012 797.135 547.092 782.898Z"></path>
<path fill="#F5DB7A" d="M556.781 784.366C557.536 784.794 559.045 785.672 559.8 786.1C563.268 795.197 565.695 804.764 566.144 814.534C567.51 840.663 564.634 866.976 558.454 892.371L556.618 891.983C555.476 889.331 554.313 886.537 554.966 883.62C556.822 869.138 562.023 855.186 562.37 840.5C562.737 821.653 561.473 802.683 556.781 784.366Z"></path>
<path fill="#FDFDFF" d="M590.233 844.641C591.273 824.529 588.377 803.703 594.985 784.285C595.903 788.323 597.046 792.321 598.086 796.36C603.165 823.774 607.734 853.085 598.106 880.03C594.741 868.444 590.335 856.859 590.233 844.641Z"></path>
<path fill="#6D4F3D" d="M609.019 786.365C616.749 783.183 620.237 794.055 616.586 799.481C613.629 800.786 610.487 801.643 607.448 802.602C607.081 801.663 606.367 799.787 606.02 798.848C603.981 794.402 603.206 788.181 609.019 786.365Z"></path>
<path fill="#CD8531" d="M476.884 793.973C480.494 792.586 484.145 791.22 487.776 789.853C489.816 802.867 490.693 816.003 491.183 829.139C490.244 831.668 489.286 834.197 488.429 836.788C486.328 822.061 479.597 808.537 476.884 793.973Z"></path>
<path fill="#F6E67E" d="M603.328 804.498C604.001 803.071 605.347 800.256 606.021 798.848C606.367 799.787 607.081 801.663 607.448 802.602C612.609 815.962 611.405 830.607 611.467 844.661C611.303 862.794 606.429 880.418 605.368 898.47C602.573 898.368 599.799 898.266 597.046 898.184C598.066 894.635 599.126 891.106 600.105 887.557C609.753 860.897 608.733 831.933 603.328 804.498Z"></path>
<path fill="#8C7869" d="M563.594 895.981C566.878 894.941 568.02 896.063 567 899.408C563.655 900.428 562.513 899.285 563.594 895.981Z"></path>
<path fill="#ACA69C" d="M594.679 902.447C598.657 901.978 603.675 901.651 606.388 905.282C607.754 908.668 607.489 912.421 607.938 916.011C603.858 912.89 601.023 906.608 595.72 906.078C592.497 911.83 600.615 914.706 603.736 918.377C598.065 917.765 592.68 915.909 588.254 912.278C590.253 908.913 592.007 905.343 594.679 902.447Z"></path>
<path fill="#A58E80" d="M453.366 917.929C456.548 918.051 459.771 918.214 462.993 918.398C462.973 919.724 462.912 922.375 462.891 923.721C459.016 923.048 455.14 922.375 451.265 921.743C451.795 920.784 452.835 918.887 453.366 917.929Z"></path>
<path fill="#A5836B" d="M450.776 926.842C454.59 926.781 458.384 927.169 462.178 927.515C463.055 929.086 463.932 930.657 464.829 932.248C459.22 931.33 453.611 930.29 448.001 929.494C448.695 928.841 450.082 927.515 450.776 926.842Z"></path>
<path fill="#9F8F80" d="M496.323 932.064C501.3 926.577 513.416 932.003 513.375 939.427C507.277 938.204 500.668 936.939 496.323 932.064Z"></path>
</svg>
