<svg xmlns="http://www.w3.org/2000/svg" fill="none" viewBox="0 0 1024 1024" height="1024" width="1024">
<rect fill="white" height="1024" width="1024"></rect>
<path fill="#ABADB4" d="M502.43 459.554C516.069 460.146 530.165 452.802 543.265 459.742C538.853 460.388 534.469 461.06 530.084 461.733C530.326 463.051 530.81 465.687 531.079 467.005C523.843 464.019 515.934 460.818 508.053 462.97C502.672 464.584 497.857 467.597 493.069 470.422C495.705 466.414 498.745 462.647 502.43 459.554Z"></path>
<path fill="#FDFDFD" d="M237.705 86.2326C243.839 74.1006 259.333 70.1732 271.869 72.7556C289.004 76.3871 305.091 83.704 320.962 90.8863C358.73 108.64 393.861 135.648 413.418 173.282C423.263 190.901 428.724 210.431 434.857 229.53C447.635 221.944 460.574 213.874 475.477 211.292C483.816 209.194 493.338 209.355 500.306 203.598C507.838 197.546 516.096 191.278 526.264 191.17C547.65 189.341 565.754 202.953 580.603 216.618C596.313 200.101 609.521 181.137 627.544 166.906C667.571 132.071 721.264 115.419 773.854 116.092C785.556 116.845 797.58 117.948 808.448 122.656C817.701 126.744 825.099 135.971 824.642 146.462C825.664 161.526 812.348 174.062 816.356 189.341C823.646 234.695 811.649 282.039 785.636 319.646C768.501 345.793 742.408 365.672 713.033 376.136C696.812 381.974 679.811 385.309 662.918 388.564C662.111 405.592 662.81 422.62 663.052 439.648C663.536 448.794 663.59 458.613 668.728 466.602C675.48 477.658 685.137 486.831 690.383 498.828C697.377 514.78 699.636 533.503 693.153 550.02C684.68 571.889 674.269 594.136 656.031 609.657C636.394 627.627 610.866 636.854 585.633 643.875C597.765 666.148 607.53 689.901 611.161 715.133C612.157 725.974 618.398 736.842 629.05 740.581C638.923 742.706 649.629 740.904 658.963 745.557C674.942 753.493 691.405 763.177 700.632 779.075C714.889 801.644 712.764 833.252 695.843 853.858C682.689 869.944 675.399 889.985 661.277 905.372C640.536 928.237 612.103 947.067 580.172 946.529C567.206 947.363 555.343 941.23 542.754 939.831C531.86 943.436 521.826 949.757 510.232 951.102C492.666 953.389 474.912 950.779 457.4 949.138C443.277 947.793 436.256 934.128 426.357 925.95C417.534 924.094 410.028 930.766 402.685 934.612C386.033 945.211 364.594 950.053 345.683 942.871C335.784 939.535 329.274 930.873 320.612 925.547C309.96 923.825 298.796 925.95 288.493 922.157C274.935 917.342 263.449 908.25 252.796 898.862C232.245 880.381 214.948 856.682 209.81 829.029C206.985 812.996 198.243 797.798 200.314 781.12C203.085 758.281 220.382 738.886 241.149 730.063C254.249 724.199 268.964 726.055 282.683 723.015C288.547 718.98 291.748 712.255 295.729 706.579C310.928 682.154 327.525 658.643 345.818 636.477C308.507 624.91 271.654 607.774 244.484 578.937C228.263 562.017 214.087 542.057 208.304 519.057C204.833 498.183 205.506 474.914 218.579 457.268C228.452 442.15 248.896 439.944 259.548 425.66C267.107 415.841 268.372 403.117 271.008 391.416C273.214 380.279 276.899 369.519 280.961 358.947C266.085 345.363 249.676 333.069 238.109 316.31C211.424 280.291 204.914 232.946 211.854 189.503C215.593 170.081 222.614 151.493 231.33 133.765C239.481 118.97 231.088 101.351 237.705 86.2326ZM264.122 99.7365C264.148 107.322 265.332 114.801 265.951 122.333C264.821 135.971 256.347 147.215 251.451 159.616C242.817 181.029 236.737 204.029 237.679 227.271C239.4 255.704 247.955 284.676 266.973 306.438C282.602 323.842 301.674 337.804 321.419 350.178C305.978 370.918 299.495 396.15 293.174 420.764C287.444 444.92 268.183 466.79 242.897 470.556L241.041 469.319C242.225 474.564 244.215 479.622 245.184 484.948C239.992 495.95 234.262 507.625 237.544 520.16C240.772 518.412 244 516.663 247.228 514.942C247.686 522.043 246.448 529.71 249.864 536.274C257.854 551.58 270.255 564.088 283.651 574.741C316.55 600.727 358.165 611.675 398.381 620.391C394.346 625.502 389.53 629.886 384.742 634.217C368.602 648.824 355.851 666.632 343.504 684.413C331.13 703.243 320.128 723.714 316.416 746.176C311.009 749.835 305.951 754.004 301.271 758.523C297.128 756.586 292.851 755.026 288.681 753.224L288.17 755.107C284.62 753.547 281.042 752.094 277.464 750.749C277.087 753.17 276.361 758.039 276.011 760.46C275.662 758.093 274.962 753.385 274.64 751.018C273.187 751.718 270.282 753.089 268.856 753.789C258.984 753.036 248.977 753.816 240.019 758.281C240.046 759.169 240.126 760.944 240.18 761.832C234.612 764.334 229.931 768.288 225.573 772.484L227.295 774.368C225.17 784.697 227.591 795.027 233.563 803.635C232.433 826.043 241.579 848.585 258.042 863.838C267.753 875.835 279.589 886.461 293.712 892.971C305.064 899.131 316.147 889.716 326.342 885.466C327.606 898.028 338.931 906.529 348.777 912.958C360.344 920.544 375.3 917.907 386.733 911.451C394.48 906.152 400.479 898.808 407.93 893.213C421.811 894.881 435.826 895.715 449.626 898.082C451.562 904.699 452.961 911.989 457.776 917.262C462.457 919.306 467.487 916.993 472.222 916.401C483.762 928.99 503.265 924.417 517.629 919.871C529.654 916.589 535.599 904.861 542.593 895.688C547.354 901.713 552.573 907.362 558.222 912.581L560.051 912.366C570.811 918.526 583.804 918.311 595.721 916.804C616.084 911.828 631.417 896.172 644.76 880.919C653.126 871.773 656.139 858.807 665.984 850.899C680.725 837.529 686.375 814.879 677.928 796.56C674.242 793.063 670.772 789.324 666.764 786.231C660.927 781.765 652.4 782.142 647.611 776.143C639.165 765.087 623.885 769.741 612.587 772.78C604.813 765.41 597.281 757.77 589.103 750.857C584.53 747.198 585.23 740.688 584.557 735.497C583.024 711.717 576.944 687.883 564.947 667.17C555.72 651.837 542.055 639.705 527.717 629.268C540.037 623.134 554.321 623.995 567.395 620.444C600.294 613.477 636.421 600.7 653.395 569.307C664.935 559.031 662.245 543.106 661.223 529.36C663.025 529.118 666.657 528.634 668.486 528.392C667.679 525.809 666.71 523.308 665.527 520.914L664.585 521.855C661.734 518.815 658.856 515.91 655.923 513.005C657.995 512.413 662.084 511.203 664.155 510.611C657.806 502.89 649.898 496.515 644.437 488.068C635.641 474.645 631.74 458.37 632.197 442.392C632.628 414.819 629.723 387.058 621.195 360.723C646.885 361.53 673.516 360.238 697.592 350.42C706.899 350.016 715.185 345.04 723.282 340.897C742.139 329.545 759.462 313.378 768.42 293.042C784.372 267.971 791.016 237.573 788.864 208.064C788.999 195.259 783.511 183.235 782.973 170.538C787.008 163.275 792.926 156.98 794.944 148.722C774.607 144.848 753.437 144.848 733.396 149.663C702.434 154.909 673.059 168.413 648.284 187.646C616.945 212.099 594.295 245.859 576.917 281.232C575.088 271.71 572.963 262.295 570.273 253.014C561.073 237.439 547.004 223.02 528.632 219.362C535.626 229.961 544.933 238.838 550.878 250.136C527.26 237.035 496.055 230.283 471.415 244.029C481.233 246.477 491.429 247.93 500.494 252.718C490.891 253.391 481.206 253.041 471.711 254.87C459.821 254.736 449.491 261.81 442.201 270.714C436.498 269.585 433.62 275.368 431.091 279.296C425.657 280.802 420.519 283.115 415.22 284.864C409.49 248.118 402.846 209.812 380.788 178.85C357.196 143.772 319.24 122.037 280.746 106.838C277.787 104.39 273.886 103.691 270.416 102.453C268.829 101.781 265.682 100.436 264.122 99.7365Z"></path>
<path fill="#E7C9CA" d="M498.126 918.876C496.378 907.093 498.853 893.455 511.012 888.236C511.846 888.236 513.54 888.236 514.374 888.236C506.412 896.925 501.381 907.658 498.126 918.876Z"></path>
<path fill="#D4A6AE" d="M473.352 870.859C477.763 867.093 483.977 868.519 489.33 868.088C482.121 872.338 473.648 875.27 468.617 882.318C462.834 890.012 461.435 899.776 457.857 908.492C455.248 894.101 461.704 879.413 473.352 870.859Z"></path>
<path fill="#C0C5D3" d="M250.994 503.106C252.743 501.653 254.491 500.173 256.267 498.748C258.042 510.611 258.58 523.415 265.655 533.61C273.267 544.666 283.866 553.248 294.734 560.914C319.617 577.754 347.405 590.639 376.86 596.933C401.366 602.018 425.846 607.909 450.944 609.065C482.713 611.029 514.67 608.097 545.767 601.48C569.143 596.422 592.116 587.545 610.973 572.589C620.953 564.68 627.947 553.893 635.56 543.886C639.03 547.814 642.446 551.795 645.863 555.803C648.849 551.23 651.942 546.738 655.197 542.38C655.466 540.766 656.004 537.592 656.3 536.004C656.919 541.115 657.564 546.2 658.183 551.338C655.627 551.499 653.126 551.687 650.597 551.902C648.822 560.349 646.454 568.661 643.28 576.705C641.021 575.655 638.815 574.66 636.582 573.638C634.215 579.879 632.574 587.061 626.925 591.284C613.878 601.318 598.034 606.887 582.378 611.433C555.935 618.507 528.631 621.816 501.489 624.883C491.617 625.959 481.717 626.551 471.872 627.815C481.314 628.945 490.837 628.864 500.332 628.837C503.399 649.066 504.045 669.537 503.426 689.955C503.534 697.379 498.423 703.27 494.683 709.242C483.896 724.548 475.046 741.334 469.72 759.33C464.851 775.309 464.555 792.175 463.748 808.746C444.945 814.207 423.478 814.852 406.02 804.872C396.094 799.196 390.122 788.678 387.594 777.811C382.913 757.582 381.137 736.25 386.141 715.886C385.791 739.881 386.813 765.652 400.021 786.58C408.199 799.681 425.657 803.178 439.834 799.896C445.187 798.874 449.706 795.242 451.993 790.346C458.018 778.429 460.789 765.221 465.873 752.901C472.76 734.528 483.762 717.178 484.972 697.137C485.591 684.709 485.457 671.743 480.722 660.068C477.144 651.864 467.084 650.895 459.444 649.174C437.467 645.973 415.57 642.233 393.781 637.929C396.551 631.689 400.667 626.228 404.837 620.902C414.01 622.3 423.183 623.834 432.463 624.56C422.241 621.493 411.75 619.449 401.42 616.759C371.588 609.173 341.298 601.802 313.699 587.841C291.56 576.22 270.927 560.242 257.45 538.91C250.053 528.338 254.33 514.861 250.994 503.106Z"></path>
<path fill="#F4E8A1" d="M388.885 502.514C402.604 499.42 417.48 498.963 430.203 505.823C416.35 505.634 402.792 501.814 388.885 502.514Z"></path>
<path fill="#7E4D2F" d="M470.796 286.236C476.122 286.666 481.395 287.446 486.694 288.226C481.448 298.771 474.32 309.155 473.782 321.287C473.97 335.006 484.085 351.119 499.552 349.102C500.682 349.129 502.942 349.182 504.071 349.209C507.999 349.209 511.953 349.156 515.908 349.182H518.006C524.381 348.833 529.546 344.932 534.388 341.193C535.572 342.188 537.885 344.125 539.042 345.094C549.398 351.684 549.237 364.892 553.46 375.195C552.062 375.303 549.264 375.491 547.865 375.598C538.208 375.329 530.192 380.925 523.144 386.789C534.119 388.86 546.789 388.833 555.343 397.172C565.781 406.641 567.529 421.463 568.928 434.671C563.844 424.369 558.302 413.232 548.026 407.179C536.675 400.158 520.83 401.557 511.254 411.026C486.99 433.407 474.912 465.956 471.065 498.156C470.339 502.03 469.558 505.876 468.778 509.777C473.055 513.543 477.333 517.336 481.664 521.102C480.695 521.559 478.758 522.501 477.79 522.985C473.325 520.349 469.074 517.39 464.851 514.458C452.8 506.118 443.869 493.637 430.338 487.423C414.951 479.891 396.766 487.1 381.406 479.487C385.253 475.049 387.916 469.776 388.212 463.831C388.885 459.07 389.476 454.309 390.122 449.574C395.556 426.897 390.768 403.144 382.859 381.651C385.495 372.048 380.573 363.628 373.552 357.441C364.083 356.177 354.533 356.58 345.037 357.306C344.445 352.034 343.827 346.761 343.181 341.516C358.487 321.798 380.788 309.02 404.218 301.381C425.711 293.391 449.087 293.391 470.796 286.236Z"></path>
<path fill="#EFF0F3" d="M393.78 637.93C415.57 642.234 437.466 645.973 459.444 649.174C467.084 650.896 477.144 651.864 480.722 660.069C485.457 671.743 485.591 684.709 484.972 697.137C483.762 717.178 472.76 734.528 465.873 752.901C460.789 765.222 458.018 778.43 451.993 790.346C449.706 795.242 445.187 798.874 439.834 799.896C425.657 803.178 408.199 799.681 400.021 786.58C386.813 765.652 385.791 739.882 386.141 715.887C388.293 704.696 393.431 694.447 398.219 684.225C393.915 687.211 389.692 690.331 385.415 693.344C386.706 674.675 388.616 655.953 393.78 637.93Z"></path>
<path fill="#321A12" d="M264.121 99.7365C265.682 100.436 268.829 101.781 270.416 102.453C271.653 112.433 272.487 122.709 276.818 131.963C283.382 147.619 295.729 159.616 306.946 171.964C324.512 191.493 342.562 211.265 353.968 235.206C364.163 256.027 366.961 279.269 371.13 301.811C383.047 296.888 394.964 291.966 407.015 287.393C408.011 264.07 401.689 241.232 394.803 219.2C384.715 188.05 363.84 160.988 336.994 142.4C320.531 126.906 297.128 122.36 280.746 106.838C319.24 122.037 357.196 143.772 380.788 178.85C402.846 209.812 409.49 248.118 415.22 284.864C420.519 283.115 425.657 280.802 431.091 279.296C440.883 279.269 450.728 278.919 460.466 277.52C454.467 274.938 448.415 272.517 442.201 270.714C449.491 261.81 459.82 254.736 471.71 254.87C489.438 256.269 509.182 252.933 524.543 263.936C517.468 263.613 510.42 263.048 503.399 262.268C488.2 258.663 472.195 259.013 457.615 264.85C458.691 265.415 460.87 266.518 461.946 267.056C474.481 274.077 487.851 279.322 501.355 284.138C492.585 304.582 490.272 328.362 499.552 349.102C484.085 351.119 473.97 335.006 473.782 321.287C474.32 309.155 481.448 298.771 486.694 288.226C481.395 287.446 476.122 286.666 470.796 286.236C435.826 282.362 400.236 292.584 370.162 310.231C347.539 323.977 330.726 345.363 317.222 367.744C303.826 390.232 301.001 416.89 290.537 440.562C282.871 457.913 266.596 469.615 248.627 474.484C246.717 473.139 244.807 471.847 242.897 470.556C268.183 466.79 287.444 444.92 293.174 420.764C299.495 396.15 305.978 370.918 321.419 350.178C301.674 337.804 282.602 323.842 266.973 306.438C247.954 284.676 239.4 255.704 237.678 227.27C236.737 204.029 242.816 181.029 251.451 159.616C256.347 147.215 264.821 135.971 265.951 122.333C265.332 114.801 264.148 107.322 264.121 99.7365ZM268.748 137.639C262.965 147.135 257.827 157.007 253.953 167.444C248.465 182.482 242.117 198.03 244.081 214.412C239.588 247.795 251.747 282.389 273.886 307.433C288.654 322.443 306.139 334.656 324.701 344.529C327.283 341.57 329.865 338.611 332.448 335.625C293.631 317.01 258.392 282.739 251.263 238.757C252.608 221.352 253.307 203.356 260.732 187.216C265.224 175.003 273.913 164.593 277.087 151.896C275.366 146.597 271.842 142.185 268.748 137.639ZM274.451 169.085C274.343 170.35 274.101 172.851 273.994 174.116C257.316 198.595 249.837 232.032 262.83 259.847C277.114 291.32 303.961 316.714 335.353 330.836C338.931 328.711 342.105 325.994 345.414 323.439C351.628 317.924 357.896 312.464 364.244 307.11C363.383 275.718 354.183 244.245 336.348 218.205C321.473 195.098 301.297 176.214 283.92 155.097C280.746 159.751 277.625 164.432 274.451 169.085Z"></path>
<path fill="#71442B" d="M270.416 102.453C273.886 103.691 277.787 104.39 280.746 106.838C297.128 122.36 320.531 126.906 336.994 142.4C342.293 154.99 353.968 162.871 361.958 173.551C377.613 194.156 387.513 218.528 394.48 243.276C398.757 257.937 398.865 274.023 407.015 287.393C394.964 291.966 383.047 296.888 371.131 301.811C366.961 279.269 364.163 256.027 353.968 235.206C342.562 211.265 324.512 191.493 306.947 171.964C295.729 159.616 283.382 147.619 276.818 131.963C272.487 122.709 271.653 112.433 270.416 102.453Z"></path>
<path fill="#5C3520" d="M268.748 137.639C271.842 142.185 275.366 146.597 277.087 151.896C273.913 164.593 265.224 175.003 260.732 187.216C253.308 203.356 252.608 221.352 251.263 238.757C249.407 225.952 249.138 212.96 248.681 200.047C247.094 204.809 245.453 209.57 244.081 214.412C242.117 198.03 248.466 182.482 253.953 167.444C257.827 157.007 262.965 147.135 268.748 137.639Z"></path>
<path fill="#987B62" d="M361.958 173.551C353.968 162.871 342.293 154.99 336.994 142.4C363.841 160.988 384.715 188.05 394.803 219.2C401.689 241.232 408.011 264.07 407.015 287.392C398.865 274.023 398.757 257.937 394.48 243.276C387.513 218.528 377.613 194.156 361.958 173.551Z"></path>
<path fill="#987B62" d="M345.656 877.853C348.077 875.297 350.525 872.769 352.919 870.24C352.301 883.825 355.206 897.517 352.677 911.048C344.984 901.579 343.531 889.5 345.656 877.853Z"></path>
<path fill="#3D2114" d="M733.396 149.663C753.437 144.848 774.607 144.848 794.944 148.722C792.926 156.98 787.008 163.275 782.973 170.538C783.511 183.235 788.999 195.259 788.864 208.064C791.016 237.573 784.372 267.971 768.42 293.042C767.963 284.353 766.967 275.745 765.972 267.137C756.449 281.824 748.729 297.991 735.844 310.177C721.102 324.892 701.95 334.495 681.963 339.848C661.626 345.928 640.133 345.954 619.716 351.63C631.579 354.939 644.033 356.338 656.273 354.455C669.965 352.41 683.63 349.075 697.592 350.42C673.516 360.238 646.885 361.53 621.195 360.723C629.722 387.058 632.628 414.819 632.197 442.392C631.74 458.371 635.64 474.645 644.437 488.068C649.898 496.515 657.806 502.89 664.155 510.611C662.083 511.203 657.995 512.413 655.923 513.005C658.855 515.91 661.734 518.815 664.585 521.855C663.805 522.635 662.218 524.195 661.411 524.976C659.097 523.388 656.784 521.855 654.498 520.322C649.763 517.336 644.921 514.404 639.675 512.467C638.142 511.956 635.102 510.907 633.569 510.396C628.216 495.466 623.186 480.052 623.616 463.993C623.912 437.012 627.786 409.52 620.442 383.077C615.976 362.364 604.893 344.098 593.488 326.532C613.824 281.797 649.924 246.181 689.575 218.151C721.372 194.425 761.722 182.562 788.111 151.735C768.205 149.583 748.164 151.358 728.419 154.371L725.783 154.748C728.285 152.999 730.787 151.25 733.396 149.663ZM609.762 307.864C604.624 315.046 601.396 323.493 602.123 332.477C616.945 326.263 630.879 317.225 647.396 316.23C632.923 322.04 617.913 327.608 606.507 338.691C624.558 339.391 642.796 339.714 660.685 336.674L658.748 336.217C686.939 333.284 716.018 323.224 735.333 301.569C756.476 279.269 764.089 246.935 761.157 216.968C761.157 206.584 758.978 196.389 755.75 186.597C699.609 216.295 644.921 253.767 609.762 307.864Z"></path>
<path fill="#23120D" d="M648.284 187.646C673.059 168.413 702.434 154.909 733.396 149.663C730.787 151.25 728.285 152.999 725.784 154.747L728.42 154.371C719.435 156.657 710.8 160.047 702.3 163.678C658.963 178.769 624.477 211.964 600.482 250.324C589.641 265.603 583.535 283.492 573.609 299.282C564.651 309.504 562.203 323.089 556.204 334.871C553.057 341.623 545.955 344.26 539.042 345.093C537.885 344.125 535.572 342.188 534.388 341.193C529.546 344.932 524.382 348.833 518.006 349.182C515.935 335.113 515.666 320.453 521.907 307.352C522.714 317.628 523.521 327.904 524.57 338.18C529.627 327.743 534.846 317.359 540.656 307.326C540.575 317.736 540.979 328.146 542.566 338.422C547.3 333.473 553.891 328.738 554.133 321.233C554.698 312.383 552.627 303.667 551.067 295.032C553.999 296.485 556.931 297.937 559.917 299.417C566.346 284.326 568.579 267.755 564.839 251.669C566.184 252.019 568.901 252.691 570.273 253.014C572.963 262.295 575.088 271.71 576.918 281.232C594.295 245.858 616.945 212.099 648.284 187.646Z"></path>
<path fill="#734329" d="M728.42 154.371C748.164 151.358 768.205 149.583 788.111 151.735C761.722 182.562 721.372 194.425 689.576 218.151C649.925 246.181 613.825 281.797 593.488 326.532C604.894 344.098 615.977 362.364 620.442 383.077C627.786 409.52 623.912 437.012 623.616 463.993C623.186 480.052 628.216 495.466 633.569 510.396C612.56 510.422 590.906 509.4 570.784 516.609C571.08 506.576 570.892 496.542 571.591 486.535C580.092 483.603 588.431 480.267 596.635 476.689C588.296 476.42 579.984 475.479 571.968 473.193C575.115 463.186 577.133 452.856 577.913 442.365C575.949 445.781 574.012 449.224 572.075 452.694C571.295 446.642 570.462 440.589 568.928 434.671C570.919 436.124 572.936 437.577 574.954 439.056C577.052 424.96 579.177 409.627 572.371 396.392C567.879 386.089 558.195 379.257 547.865 375.598C549.264 375.491 552.062 375.302 553.461 375.195C549.237 364.892 549.399 351.684 539.042 345.093C545.955 344.26 553.057 341.623 556.204 334.871C562.203 323.089 564.651 309.505 573.609 299.282C574.766 302.564 575.976 305.873 577.16 309.182C598.276 262.456 627.49 217.802 668.97 186.732C679.488 178.178 693.557 174.438 702.3 163.678C710.8 160.047 719.435 156.657 728.42 154.371Z"></path>
<path fill="#D9AEB7" d="M274.451 169.085C277.625 164.431 280.746 159.751 283.92 155.097C301.298 176.214 321.473 195.098 336.349 218.205C354.183 244.245 363.383 275.718 364.244 307.11C357.896 312.463 351.628 317.924 345.414 323.439C333.336 312.571 319.644 303.075 310.605 289.275C306.301 261.541 305.521 232.543 293.766 206.584C287.498 193.995 280.504 181.782 274.451 169.085Z"></path>
<path fill="#D9AEB7" d="M585.633 754.73C589.453 757.663 593.299 760.595 597.065 763.634C591.551 763.93 586.063 764.226 580.603 764.549C582.27 761.267 583.965 757.985 585.633 754.73Z"></path>
<path fill="#957862" d="M600.482 250.324C624.477 211.964 658.963 178.769 702.299 163.678C693.557 174.438 679.488 178.178 668.97 186.732C627.49 217.802 598.276 262.456 577.159 309.182C575.976 305.873 574.765 302.564 573.609 299.282C583.535 283.492 589.641 265.603 600.482 250.324Z"></path>
<path fill="#EDD5D7" d="M273.994 174.116C274.101 172.851 274.344 170.35 274.451 169.085C280.504 181.782 287.498 193.995 293.765 206.584C305.521 232.543 306.301 261.541 310.605 289.276C298.312 273.135 286.341 256.269 279.75 236.874C272.353 216.806 273.429 195.098 273.994 174.116Z"></path>
<path fill="#F3F0EF" d="M262.83 259.847C249.837 232.032 257.316 198.595 273.994 174.116C273.429 195.098 272.353 216.806 279.75 236.874C286.341 256.269 298.312 273.135 310.605 289.275C319.644 303.075 333.336 312.571 345.414 323.439C342.105 325.994 338.931 328.711 335.353 330.836C303.961 316.714 277.114 291.32 262.83 259.847Z"></path>
<path fill="#D3A5AF" d="M609.763 307.864C644.921 253.767 699.61 216.295 755.75 186.597C758.979 196.389 761.157 206.584 761.157 216.968C759.839 213.229 758.44 209.57 757.069 205.939C755.535 208.413 754.056 210.888 752.576 213.39C730.276 227.27 709.267 243.841 693.53 265.119C676.556 286.424 665.688 311.549 651.512 334.629C653.906 335.114 656.327 335.652 658.748 336.216L660.685 336.674C642.796 339.714 624.558 339.391 606.508 338.691C617.914 327.608 632.924 322.04 647.396 316.23C630.879 317.225 616.945 326.263 602.123 332.477C601.397 323.493 604.625 315.046 609.763 307.864Z"></path>
<path fill="#7E5134" d="M244.081 214.412C245.453 209.57 247.094 204.809 248.681 200.047C249.138 212.96 249.407 225.952 251.263 238.757C258.392 282.739 293.631 317.01 332.448 335.625C329.866 338.611 327.284 341.57 324.701 344.529C306.14 334.656 288.655 322.444 273.887 307.433C251.748 282.389 239.589 247.795 244.081 214.412Z"></path>
<path fill="#F2EDEB" d="M752.576 213.39C754.055 210.888 755.535 208.413 757.068 205.939C758.44 209.57 759.839 213.229 761.157 216.968C764.089 246.935 756.476 279.269 735.333 301.569C716.018 323.224 686.939 333.284 658.748 336.216C666.118 328.711 674.753 322.739 683.469 316.956C694.767 309.558 703.052 298.744 711.284 288.253C722.743 273.485 735.709 259.497 743.43 242.227C747.788 233.081 749.886 223.101 752.576 213.39Z"></path>
<path fill="#EACED1" d="M693.53 265.119C709.267 243.841 730.276 227.27 752.576 213.39C749.886 223.101 747.788 233.081 743.43 242.227C735.709 259.497 722.744 273.485 711.284 288.253C703.053 298.744 694.767 309.558 683.469 316.956C674.754 322.739 666.119 328.711 658.748 336.216C656.327 335.651 653.906 335.113 651.512 334.629C665.688 311.549 676.556 286.424 693.53 265.119Z"></path>
<path fill="#5C3424" d="M528.632 219.362C547.004 223.02 561.073 237.439 570.273 253.014C568.901 252.691 566.184 252.019 564.839 251.669C568.578 267.755 566.346 284.326 559.916 299.417C556.931 297.937 553.998 296.485 551.066 295.032C552.627 303.667 554.698 312.383 554.133 321.233C553.891 328.738 547.3 333.473 542.566 338.422C540.979 328.146 540.575 317.736 540.656 307.326C534.845 317.359 529.627 327.743 524.57 338.18C523.52 327.904 522.713 317.628 521.906 307.352C515.666 320.453 515.935 335.114 518.006 349.182H515.908C509.021 337.992 509.21 324.757 511.281 312.248C507.246 317.01 502.054 321.287 500.037 327.339C499.418 334.845 502.215 342.054 504.072 349.209C502.942 349.182 500.682 349.129 499.552 349.102C490.272 328.362 492.585 304.582 501.355 284.138C487.851 279.322 474.481 274.077 461.946 267.056C475.934 267.486 489.734 265.065 503.399 262.268C510.42 263.048 517.468 263.613 524.543 263.936C509.183 252.933 489.438 256.269 471.711 254.87C481.206 253.041 490.891 253.391 500.494 252.718C491.429 247.93 481.233 246.477 471.415 244.029C496.055 230.283 527.26 237.035 550.878 250.136C544.933 238.838 535.626 229.96 528.632 219.362ZM495.41 242.254C508.994 248.71 522.794 254.897 537.266 259.201C526.291 248.306 511.2 240.532 495.41 242.254Z"></path>
<path fill="#8A6750" d="M495.41 242.254C511.2 240.532 526.291 248.306 537.266 259.201C522.794 254.897 508.994 248.71 495.41 242.254Z"></path>
<path fill="#936147" d="M457.615 264.85C472.195 259.013 488.2 258.663 503.399 262.268C489.734 265.065 475.934 267.486 461.946 267.056C460.87 266.518 458.691 265.415 457.615 264.85Z"></path>
<path fill="#643B24" d="M735.844 310.177C748.729 297.991 756.449 281.824 765.972 267.137C766.967 275.745 767.963 284.353 768.42 293.042C759.462 313.378 742.139 329.545 723.281 340.897C715.185 345.04 706.899 350.016 697.592 350.42C683.63 349.075 669.965 352.41 656.273 354.455C644.033 356.338 631.579 354.939 619.716 351.63C640.133 345.954 661.626 345.928 681.963 339.848C701.95 334.495 721.103 324.892 735.844 310.177Z"></path>
<path fill="#644130" d="M431.092 279.296C433.62 275.368 436.499 269.585 442.201 270.714C448.415 272.517 454.468 274.938 460.467 277.52C450.729 278.919 440.883 279.269 431.092 279.296Z"></path>
<path fill="#997862" d="M370.162 310.231C400.236 292.584 435.825 282.362 470.796 286.236C449.087 293.391 425.711 293.391 404.218 301.381C380.788 309.02 358.487 321.798 343.181 341.516C329.973 357.279 318.54 374.791 311.6 394.294C304.956 411.483 302.077 430.018 293.954 446.642C288.278 458.532 277.571 466.656 267.564 474.726C261.27 473.946 254.921 474.107 248.627 474.484C266.596 469.615 282.871 457.913 290.537 440.562C301.001 416.89 303.826 390.232 317.222 367.744C330.726 345.363 347.539 323.977 370.162 310.231Z"></path>
<path fill="#1E0F0B" d="M500.037 327.339C502.054 321.287 507.246 317.01 511.281 312.248C509.21 324.757 509.021 337.992 515.908 349.182C511.954 349.156 507.999 349.209 504.072 349.209C502.216 342.054 499.418 334.845 500.037 327.339Z"></path>
<path fill="#76462C" d="M311.6 394.294C318.541 374.791 329.973 357.279 343.181 341.516C343.827 346.761 344.446 352.034 345.037 357.306C354.533 356.58 364.083 356.176 373.552 357.441C364.486 359.001 354.426 359.109 346.786 364.946C337.182 372.209 331.157 383.023 326.422 393.864C323.975 402.552 323.652 411.645 323.867 420.629C322.011 422.217 320.182 423.804 318.379 425.391C319.294 429.076 320.208 432.761 321.15 436.474C314.828 436.258 308.507 436.043 302.212 435.855C307.619 439.46 313.134 442.957 318.702 446.427C317.384 459.366 315.824 473.058 321.607 485.244C312.918 479.998 302.535 479.81 292.716 479.084C284.162 478.546 275.904 476.313 267.565 474.726C277.572 466.656 288.278 458.532 293.954 446.642C302.078 430.018 304.956 411.483 311.6 394.294Z"></path>
<path fill="#080302" d="M346.786 364.946C354.425 359.109 364.486 359.001 373.552 357.441C380.573 363.628 385.495 372.048 382.859 381.651C376.78 377.75 370.512 372.021 362.711 373.581C350.068 375.518 340.249 384.852 332.367 394.321C330.377 394.133 328.386 393.998 326.422 393.864C331.157 383.023 337.182 372.209 346.786 364.946Z"></path>
<path fill="#D2D2D4" d="M332.368 394.321C340.249 384.852 350.068 375.518 362.711 373.581C370.512 372.021 376.78 377.75 382.859 381.651C390.768 403.144 395.556 426.897 390.122 449.574C386.625 436.178 379.631 421.947 365.724 417.025C354.426 411.752 342.428 417.025 331.426 420.253C327.068 411.86 328.494 402.552 332.368 394.321Z"></path>
<path fill="#020100" d="M523.144 386.789C530.191 380.925 538.208 375.329 547.865 375.598C558.195 379.257 567.879 386.089 572.371 396.392C579.177 409.627 577.052 424.96 574.953 439.056C572.936 437.577 570.918 436.124 568.928 434.671C567.529 421.463 565.78 406.641 555.343 397.172C546.789 388.833 534.119 388.86 523.144 386.789Z"></path>
<path fill="#110E0F" d="M323.867 420.629C323.652 411.645 323.974 402.552 326.422 393.864C328.386 393.998 330.377 394.133 332.367 394.321C328.494 402.552 327.068 411.86 331.426 420.253C342.428 417.025 354.425 411.752 365.724 417.025C379.631 421.948 386.625 436.178 390.122 449.574C389.477 454.309 388.885 459.07 388.212 463.831C383.074 464.773 376.537 463.724 373.525 469.05C375.811 472.762 378.528 476.178 381.406 479.487C396.766 487.1 414.951 479.891 430.338 487.423C443.869 493.637 452.8 506.118 464.851 514.457C459.632 511.041 454.01 508.297 448.361 505.715C447.742 507.974 446.505 512.467 445.913 514.7C446.613 510.718 448.092 506.576 446.989 502.541C432.221 489.871 411.642 486.67 392.866 489.575C383.263 491.619 376.242 500.711 365.939 500.362C350.014 500.631 334.761 493.771 321.607 485.244C315.824 473.058 317.384 459.366 318.702 446.427C313.134 442.957 307.619 439.46 302.212 435.855C308.507 436.043 314.828 436.258 321.15 436.474C320.208 432.761 319.294 429.076 318.379 425.391C320.181 423.804 322.011 422.217 323.867 420.629ZM330.242 440.105C323.033 450.785 321.661 464.853 324.62 477.147C327.875 488.902 340.491 493.475 351.171 495.816C346.974 480.16 343.423 461.464 354.13 447.476C359.052 439.675 368.064 436.85 376.511 434.779C363.007 422.566 341.244 426.736 330.242 440.105ZM358.218 468.431C364.782 468.458 370.485 465.311 375.596 461.464C373.067 457.214 368.844 448.767 362.791 452.99C356.147 455.142 358.568 463.159 358.218 468.431Z"></path>
<path fill="#F2F3F5" d="M248.627 474.484C254.922 474.107 261.27 473.946 267.565 474.726C275.904 476.313 284.162 478.546 292.716 479.084C292.905 480.402 293.335 483.065 293.523 484.41C287.283 490.382 278.217 496.811 280.504 506.764C282.467 521.236 298.392 527.692 311.251 528.634C322.791 530.248 333.309 524.733 342.724 518.842C344.015 518.493 346.571 517.82 347.862 517.497C353.323 526.509 358.38 536.005 366.423 543.106C378.044 553.059 382.24 570.087 396.82 576.866C412.638 585.42 431.737 578.292 444.864 567.935C455.382 559.273 465.228 549.589 477.736 543.779C472.948 539.717 467.918 535.951 462.672 532.534C465.55 535.951 468.482 539.34 471.441 542.73C468.644 544.693 465.873 546.684 463.049 548.594C450.298 546.388 437.305 546.845 424.474 545.796C418.905 545.581 415.65 540.416 411.804 537.188C407.419 541.331 403.518 546.926 397.278 548.163C381.406 550.235 364.083 542.245 356.739 527.773C354.479 522.285 355.34 516.152 354.963 510.395C362.011 504.289 370.593 500.55 380.035 500.819C381.084 505.58 382.079 510.422 383.397 515.157C397.708 533.826 426.437 534.74 444.138 520.429C444.568 519.004 445.456 516.125 445.913 514.7C446.505 512.467 447.742 507.974 448.361 505.715C454.01 508.297 459.632 511.041 464.851 514.457C469.074 517.39 473.325 520.349 477.79 522.985C482.955 526.051 488.362 528.768 493.742 531.539C503.695 535.251 507.219 545.823 513.137 553.678C524.3 569.764 545.31 576.167 564.14 575.467C575.303 574.875 589.049 569.98 591.739 557.74C594.026 545.393 583.024 536.623 574.012 530.517C580.145 528.446 586.279 526.428 592.439 524.464C591.47 521.102 590.502 517.739 589.56 514.404C599.675 513.489 609.843 512.816 620.012 512.816C630.583 515.641 640.563 520.16 650.463 524.76C645.486 531.109 640.456 537.457 635.56 543.886C627.947 553.893 620.953 564.68 610.973 572.589C592.116 587.545 569.143 596.422 545.767 601.48C514.67 608.097 482.713 611.029 450.944 609.066C425.846 607.909 401.366 602.018 376.86 596.934C347.405 590.639 319.617 577.754 294.734 560.914C283.866 553.248 273.267 544.666 265.655 533.61C258.58 523.415 258.042 510.611 256.267 498.748C254.491 500.173 252.743 501.653 250.994 503.106C247.82 505.634 244.565 508.109 241.337 510.584C244.592 499.635 249.461 489.171 256.482 480.106C253.846 478.223 251.209 476.34 248.627 474.484Z"></path>
<path fill="#E9EAEF" d="M511.254 411.026C520.83 401.557 536.675 400.158 548.026 407.179C558.302 413.232 563.844 424.369 568.928 434.671C570.461 440.589 571.295 446.642 572.075 452.694C570.488 455.438 568.928 458.182 567.368 460.953C557.442 454.174 547.139 445.727 534.469 446.131C522.364 445.647 511.388 452.049 502.431 459.554C498.745 462.648 495.706 466.414 493.069 470.422C492.451 471.982 491.186 475.129 490.568 476.689C487.689 483.764 485.376 491.054 483.654 498.479C482.524 501.142 481.368 503.805 480.211 506.468C477.144 503.67 474.105 500.9 471.065 498.156C474.912 465.956 486.99 433.407 511.254 411.026Z"></path>
<path fill="#EFF0F4" d="M330.242 440.105C341.245 426.736 363.007 422.566 376.511 434.779C368.064 436.85 359.052 439.675 354.13 447.476C343.423 461.464 346.974 480.16 351.171 495.816C340.491 493.475 327.875 488.902 324.62 477.147C321.661 464.853 323.033 450.785 330.242 440.105Z"></path>
<path fill="#030302" d="M572.075 452.694C574.012 449.224 575.949 445.781 577.913 442.365C577.133 452.856 575.115 463.186 571.968 473.192C579.984 475.479 588.296 476.42 596.635 476.689C588.431 480.267 580.092 483.603 571.591 486.535C570.892 496.542 571.08 506.576 570.784 516.609C569.896 519.972 568.982 523.334 567.96 526.67C566.937 526.051 564.839 524.814 563.817 524.195C568.148 511.794 570.246 498.398 567.664 485.405C563.763 473.757 553.299 465.956 543.265 459.742C530.165 452.802 516.069 460.146 502.431 459.554C511.388 452.049 522.364 445.647 534.469 446.131C547.139 445.727 557.442 454.174 567.368 460.953C568.928 458.182 570.488 455.438 572.075 452.694Z"></path>
<path fill="#FCFBFB" d="M358.218 468.431C358.568 463.159 356.147 455.142 362.792 452.99C368.844 448.767 373.067 457.214 375.596 461.464C370.485 465.311 364.782 468.458 358.218 468.431Z"></path>
<path fill="#EFF0F5" d="M530.084 461.733C534.469 461.061 538.854 460.388 543.265 459.742C553.299 465.956 563.763 473.757 567.664 485.405C570.246 498.398 568.148 511.794 563.817 524.195C554.859 527.585 545.095 528.742 536.029 525.056C543.776 512.305 546.386 496.327 541.167 482.15C538.907 476.447 535.141 471.498 531.08 467.005C530.811 465.687 530.326 463.051 530.084 461.733Z"></path>
<path fill="#EDF0F6" d="M373.525 469.05C376.537 463.724 383.074 464.773 388.212 463.831C387.916 469.776 385.253 475.049 381.406 479.487C378.528 476.178 375.811 472.762 373.525 469.05Z"></path>
<path fill="#030202" d="M508.053 462.97C515.935 460.818 523.843 464.02 531.079 467.005C535.141 471.498 538.907 476.447 541.167 482.15C538.423 501.545 529.089 519.784 515.343 533.664C511.846 534.74 508.376 535.816 504.879 536.839C507.542 542.461 510.232 548.137 513.137 553.678C507.219 545.823 503.695 535.251 493.742 531.539C488.846 513.677 487.42 494.982 490.568 476.69C491.186 475.129 492.451 471.982 493.069 470.422C497.858 467.597 502.673 464.584 508.053 462.97ZM498.745 475.56C497.427 479.057 496.109 482.554 494.764 486.051C498.718 486.965 503.076 490.731 507.165 488.122C513.46 487.127 511.765 480.079 512.464 475.479C507.891 475.318 503.291 475.345 498.745 475.56ZM514.24 503.321C517.871 503.132 521.53 502.917 525.215 502.675C525.35 498.048 525.323 493.422 525.054 488.822C516.311 487.369 508.483 495.224 514.24 503.321Z"></path>
<path fill="#615555" d="M241.041 469.319L242.897 470.556C244.807 471.847 246.717 473.139 248.627 474.484C251.209 476.34 253.845 478.223 256.482 480.106C249.461 489.171 244.592 499.635 241.337 510.584C244.565 508.109 247.82 505.634 250.994 503.106C254.33 514.861 250.052 528.338 257.45 538.91C270.927 560.242 291.559 576.22 313.698 587.841C341.298 601.802 371.588 609.173 401.42 616.759C400.667 617.674 399.134 619.476 398.38 620.391C358.164 611.675 316.55 600.727 283.651 574.741C270.254 564.088 257.853 551.58 249.864 536.273C246.448 529.71 247.685 522.043 247.228 514.942C244 516.663 240.772 518.412 237.544 520.16C234.262 507.625 239.992 495.95 245.183 484.948C244.215 479.622 242.224 474.564 241.041 469.319Z"></path>
<path fill="#FDFDFB" d="M498.745 475.56C503.291 475.344 507.891 475.318 512.464 475.479C511.765 480.079 513.46 487.127 507.165 488.122C503.076 490.731 498.718 486.965 494.764 486.051C496.109 482.554 497.427 479.057 498.745 475.56Z"></path>
<path fill="#4B4E57" d="M483.654 498.479C485.376 491.054 487.689 483.764 490.568 476.69C487.42 494.982 488.846 513.677 493.742 531.539C488.362 528.768 482.955 526.051 477.79 522.985C478.758 522.501 480.695 521.559 481.664 521.102C482.955 513.624 483.143 506.011 483.654 498.479Z"></path>
<path fill="#CF8996" d="M292.716 479.084C302.535 479.81 312.918 479.998 321.607 485.244C334.761 493.771 350.014 500.631 365.939 500.362C376.241 500.711 383.262 491.619 392.866 489.575C411.642 486.67 432.221 489.871 446.989 502.541C448.092 506.576 446.612 510.718 445.913 514.7C445.456 516.125 444.568 519.004 444.138 520.429C444.272 513.086 444.353 504.881 438.031 499.824C420.546 491.7 398.622 488.257 382.106 500.523C382.563 505.392 382.967 510.261 383.397 515.157C382.079 510.422 381.084 505.58 380.034 500.819C370.592 500.55 362.011 504.289 354.963 510.396C349.261 510.691 344.042 512.655 342.724 518.842C333.309 524.733 322.791 530.248 311.251 528.634C298.392 527.692 282.467 521.236 280.504 506.764C278.217 496.811 287.282 490.382 293.523 484.41C293.335 483.065 292.905 480.402 292.716 479.084Z"></path>
<path fill="#302F33" d="M541.167 482.15C546.385 496.327 543.776 512.305 536.029 525.056C529.492 528.715 522.444 531.351 515.343 533.664C529.089 519.784 538.423 501.545 541.167 482.15Z"></path>
<path fill="#F8F9FA" d="M514.24 503.321C508.483 495.224 516.311 487.369 525.054 488.822C525.323 493.422 525.35 498.048 525.215 502.675C521.53 502.917 517.871 503.132 514.24 503.321Z"></path>
<path fill="#593824" d="M382.106 500.523C398.623 488.257 420.547 491.7 438.032 499.824C437.548 500.308 436.525 501.223 436.014 501.707C435.934 508.378 436.633 517.147 428.563 519.622C411.481 523.308 390.176 517.39 382.106 500.523ZM388.885 502.514C402.793 501.814 416.35 505.634 430.204 505.822C417.48 498.963 402.604 499.42 388.885 502.514Z"></path>
<path fill="#C7BEBA" d="M471.065 498.156C474.105 500.9 477.145 503.67 480.211 506.468C481.368 503.805 482.525 501.142 483.654 498.479C483.143 506.011 482.955 513.624 481.664 521.102C477.333 517.336 473.056 513.543 468.779 509.777C469.559 505.876 470.339 502.03 471.065 498.156Z"></path>
<path fill="#201718" d="M382.106 500.523C390.176 517.39 411.481 523.308 428.563 519.622C436.633 517.147 435.934 508.378 436.014 501.707C436.525 501.222 437.548 500.308 438.032 499.824C444.353 504.881 444.273 513.086 444.138 520.429C426.438 534.74 397.708 533.826 383.397 515.157C382.967 510.261 382.564 505.392 382.106 500.523Z"></path>
<path fill="#56292E" d="M342.724 518.842C344.042 512.655 349.261 510.691 354.964 510.396C355.34 516.152 354.48 522.285 356.739 527.773C364.083 542.245 381.407 550.235 397.278 548.163C403.519 546.926 407.419 541.331 411.804 537.188C411.912 540.631 412.046 544.102 412.154 547.572C427.917 555.05 447.877 560.376 463.049 548.594C465.873 546.684 468.644 544.693 471.442 542.73C468.483 539.34 465.551 535.951 462.672 532.534C467.918 535.951 472.948 539.717 477.736 543.779C465.228 549.589 455.382 559.273 444.864 567.935C431.737 578.292 412.638 585.42 396.82 576.866C382.241 570.087 378.044 553.059 366.423 543.106C358.38 536.005 353.323 526.509 347.862 517.497C346.571 517.82 344.015 518.493 342.724 518.842ZM385.818 558.87C389.396 561.694 393.028 564.465 396.686 567.236C406.962 571.836 418.583 574.875 428.778 568.07L430.903 569.307C435.1 567.02 439.269 564.68 443.465 562.34C434.239 560.242 425.146 557.659 416 555.319C405.859 552.548 395.691 557.04 385.818 558.87Z"></path>
<path fill="#B3B5C3" d="M570.784 516.609C590.905 509.4 612.56 510.422 633.569 510.395C635.103 510.907 638.142 511.956 639.676 512.467C633.112 512.413 626.575 512.709 620.011 512.816C609.843 512.816 599.675 513.489 589.56 514.404C590.502 517.739 591.47 521.102 592.439 524.464C586.279 526.428 580.145 528.446 574.012 530.517C572.021 529.199 570.004 527.907 567.959 526.67C568.982 523.334 569.896 519.972 570.784 516.609Z"></path>
<path fill="#D4D9E2" d="M620.012 512.817C626.575 512.709 633.112 512.413 639.676 512.467C644.921 514.404 649.763 517.336 654.498 520.322C654.982 525.567 655.708 530.759 656.3 536.005C656.004 537.592 655.466 540.766 655.197 542.38C651.942 546.738 648.849 551.23 645.863 555.803C642.447 551.795 639.03 547.814 635.56 543.886C640.456 537.457 645.486 531.109 650.463 524.76C640.564 520.16 630.584 515.641 620.012 512.817Z"></path>
<path fill="#6E5C60" d="M654.498 520.322C656.784 521.855 659.098 523.388 661.411 524.975C662.218 524.195 663.805 522.635 664.585 521.855L665.527 520.913C666.711 523.308 667.679 525.809 668.486 528.392C666.657 528.634 663.025 529.118 661.223 529.36C662.245 543.106 664.935 559.031 653.395 569.307C636.421 600.7 600.294 613.477 567.395 620.444C554.321 623.995 540.037 623.134 527.717 629.268C519.97 624.157 510.393 624.076 501.489 624.883C528.632 621.816 555.935 618.507 582.378 611.433C598.034 606.887 613.878 601.318 626.925 591.284C632.574 587.061 634.215 579.879 636.582 573.638C638.815 574.66 641.021 575.655 643.28 576.705C646.455 568.661 648.822 560.349 650.597 551.903C653.126 551.687 655.628 551.499 658.183 551.338C657.564 546.2 656.919 541.115 656.3 536.004C655.708 530.759 654.982 525.567 654.498 520.322Z"></path>
<path fill="#CB8692" d="M515.343 533.664C522.444 531.351 529.492 528.715 536.029 525.056C545.094 528.742 554.859 527.585 563.817 524.195C564.839 524.814 566.937 526.051 567.96 526.67C570.004 527.908 572.022 529.199 574.012 530.517C583.024 536.623 594.026 545.393 591.739 557.74C589.049 569.98 575.303 574.875 564.14 575.467C545.31 576.167 524.301 569.764 513.137 553.678C510.232 548.137 507.542 542.461 504.879 536.839C508.376 535.816 511.846 534.74 515.343 533.664Z"></path>
<path fill="#D8D8DB" d="M411.804 537.188C415.651 540.416 418.906 545.581 424.474 545.796C437.305 546.845 450.298 546.388 463.049 548.594C447.877 560.376 427.917 555.05 412.154 547.572C412.046 544.101 411.912 540.631 411.804 537.188Z"></path>
<path fill="#9D3341" d="M385.818 558.87C395.691 557.041 405.859 552.548 416 555.319C425.146 557.659 434.239 560.242 443.465 562.34C439.269 564.68 435.099 567.021 430.903 569.307L428.778 568.07C419.201 560.86 406.989 561.156 395.61 560.78C395.879 562.394 396.417 565.622 396.686 567.236C393.027 564.465 389.396 561.694 385.818 558.87Z"></path>
<path fill="#CC6B88" d="M395.61 560.78C406.989 561.156 419.202 560.86 428.778 568.07C418.583 574.875 406.962 571.836 396.686 567.236C396.417 565.622 395.879 562.394 395.61 560.78Z"></path>
<path fill="#381E15" d="M398.381 620.391C399.134 619.476 400.667 617.674 401.42 616.759C411.75 619.449 422.241 621.493 432.463 624.56C423.183 623.834 414.01 622.301 404.837 620.902C400.667 626.228 396.551 631.689 393.781 637.929C388.616 655.953 386.706 674.675 385.415 693.344C389.692 690.331 393.915 687.211 398.219 684.225C393.431 694.447 388.293 704.696 386.141 715.886C381.137 736.25 382.913 757.582 387.594 777.811C390.122 788.678 396.094 799.197 406.02 804.872C423.478 814.852 444.945 814.207 463.748 808.746C464.555 792.175 464.851 775.309 469.72 759.33C475.046 741.334 483.896 724.548 494.683 709.242C498.423 703.27 503.534 697.379 503.426 689.955C504.045 669.537 503.399 649.066 500.332 628.837C490.837 628.864 481.314 628.945 471.872 627.815C481.717 626.551 491.617 625.959 501.489 624.883C510.393 624.076 519.97 624.157 527.717 629.268C542.055 639.705 555.72 651.837 564.947 667.17C576.944 687.883 583.024 711.717 584.557 735.497C585.23 740.688 584.53 747.198 589.103 750.857C597.281 757.77 604.813 765.41 612.587 772.78C613.556 773.614 615.492 775.282 616.461 776.116C616.837 784.159 617.644 792.202 619.178 800.138C624.423 792.337 629.911 784.643 636.986 778.403C639.299 778.967 641.613 779.532 643.926 780.178C644.841 779.156 646.697 777.138 647.611 776.143C652.4 782.142 660.927 781.765 666.764 786.23C670.772 789.324 674.242 793.063 677.928 796.56C666.145 801.994 657.268 811.571 647.584 819.883C644.114 809.526 643.603 798.578 643.818 787.737C633.408 788.894 627.033 797.098 621.33 804.953C635.129 813.588 654.874 821.981 654.659 841.161C651.054 833.521 646.159 826.446 639.756 820.878C633.031 816.197 625.876 811.597 617.725 810.01C609.763 808.262 602.58 813.05 595.667 816.17C600.805 820.609 605.593 826.742 612.856 827.469C619.554 827.764 626.172 825.989 632.628 824.348C625.338 828.195 616.595 830.831 608.525 827.872C602.876 825.29 598.249 821.012 593.38 817.327C570.192 834.732 553.38 860.556 547.193 888.882C546.655 899.507 557.092 906.017 564.436 911.908C563.333 912.016 561.154 912.258 560.051 912.366L558.222 912.581C552.573 907.362 547.354 901.713 542.593 895.688C535.599 904.861 529.654 916.589 517.629 919.871C503.265 924.417 483.762 928.99 472.222 916.401C467.487 916.993 462.457 919.306 457.776 917.262C452.961 911.989 451.562 904.699 449.626 898.082C435.826 895.714 421.811 894.881 407.93 893.213C400.479 898.808 394.48 906.152 386.733 911.451C385.657 908.654 384.608 905.937 383.559 903.193C388.239 901.955 394.372 901.928 396.793 896.898C399.349 890.953 398.354 884.282 398.596 878.014C398.058 857.543 401.205 836.857 397.358 816.547C394.91 803.366 386.518 792.337 383.397 779.371C376.511 752.713 378.985 724.952 379.228 697.756C379.228 679.49 382.644 661.521 384.285 643.417C382.213 645.193 380.169 647.022 378.178 648.905C370.243 655.495 364.352 664.023 359.321 672.954C351.762 681.024 344.526 689.551 339.388 699.424C331.022 714.73 322.764 730.762 320.962 748.382C318.702 771.785 320.639 795.511 324.781 818.618C327.337 833.844 335.138 847.375 343.289 860.233C339.119 863.596 334.95 866.958 331.022 870.616C331.049 869.675 331.13 867.819 331.184 866.877C337.667 856.467 328.305 847.186 324.593 837.744C319.939 827.549 318.81 816.278 315.797 805.599C314.183 798.712 307.727 794.758 302.616 790.588C306.382 790.857 310.175 791.019 313.994 791.207C313.241 782.787 311.762 774.26 312.999 765.84C314.263 759.303 315.34 752.74 316.416 746.176C320.128 723.714 331.13 703.243 343.504 684.413C355.851 666.632 368.602 648.824 384.742 634.217C389.53 629.886 394.346 625.502 398.381 620.391ZM507.327 638.037C506.251 655.603 505.955 673.223 507.327 690.788C515.208 685.382 522.713 679.49 530.03 673.357C530.138 674.998 530.326 678.307 530.434 679.975C525.054 684.548 518.383 687.991 514.643 694.205C510.662 697.406 506.708 700.742 503.56 704.777C480.722 734.959 465.281 772.78 469.639 811.221C474.401 833.36 481.395 856.252 498.853 871.881C489.788 874.571 479.081 875.943 473.056 884.12C467.649 890.442 465.981 898.808 464.259 906.717C472.491 910.294 480.346 914.652 488.174 919.037C490.03 909.057 489.115 896.871 497.535 889.608C501.166 886.004 506.546 888.559 511.012 888.236C498.853 893.455 496.378 907.093 498.127 918.876C511.792 917.181 527.69 912.151 531.671 897.14C544.072 887.887 545.525 871.181 552.734 858.431C565.592 833.709 586.279 808.988 615.304 804.361C613.744 799.062 611.995 793.87 610.543 788.571C611.215 786.499 612.533 782.384 613.206 780.339C607.906 775.605 602.096 768.53 594.08 770.709C576.622 773.614 563.683 786.365 553.299 799.815C557.495 786.177 568.336 776.116 574.039 763.365C582.028 748.57 578.37 731.22 576.46 715.402C571.941 690.439 562.418 663.781 541.059 648.394C538.8 644.009 534.254 641.373 529.654 640.162C522.525 637.338 514.832 637.472 507.327 638.037ZM585.633 754.73C583.965 757.985 582.271 761.267 580.603 764.549C586.064 764.226 591.551 763.93 597.066 763.634C593.3 760.595 589.453 757.663 585.633 754.73ZM653.529 786.365C648.122 793.601 649.118 803.581 649.037 812.189C655.628 805.088 661.976 797.69 669.75 791.799C665.069 788.517 659.609 782.33 653.529 786.365ZM406.397 810.36C406.289 818.592 406.504 826.823 406.558 835.054C407.123 853.212 402.604 871.074 403.653 889.259C419.363 890.523 434.938 893.428 450.755 893.267C455.355 878.525 466.277 866.824 480.561 861.067C473.97 845.841 468.106 830.212 465.362 813.776C457.911 814.664 450.513 815.928 443.062 816.762C430.499 818.134 418.233 814.099 406.397 810.36ZM473.352 870.859C461.704 879.413 455.248 894.1 457.857 908.492C461.435 899.776 462.834 890.012 468.617 882.318C473.647 875.27 482.121 872.338 489.33 868.088C483.977 868.518 477.763 867.093 473.352 870.859Z"></path>
<path fill="#673D26" d="M507.326 638.037C514.831 637.472 522.525 637.338 529.653 640.162C528.255 640.404 525.43 640.888 524.031 641.157C529.465 649.174 536.594 656.41 539.714 665.771C539.983 671.958 534.522 676.128 530.434 679.974C530.326 678.307 530.138 674.998 530.03 673.357C522.713 679.49 515.208 685.381 507.326 690.788C505.954 673.223 506.25 655.603 507.326 638.037Z"></path>
<path fill="#75462A" d="M524.032 641.158C525.43 640.889 528.255 640.404 529.654 640.162C534.254 641.373 538.8 644.009 541.059 648.394C548.914 663.727 559.917 677.5 564.866 694.205C572.533 716.424 573.259 740.123 574.039 763.365C568.336 776.116 557.496 786.177 553.299 799.815C563.683 786.365 576.622 773.614 594.08 770.709C602.096 768.53 607.907 775.605 613.206 780.339C608.579 782.464 604.033 784.697 599.46 786.876C598.976 786.849 598.034 786.795 597.55 786.769C590.179 803.151 574.362 812.781 564.086 827.011C548.43 847.778 538.423 872.177 531.671 897.14C527.69 912.151 511.792 917.181 498.127 918.876C501.382 907.658 506.412 896.925 514.374 888.236C513.541 888.236 511.846 888.236 511.012 888.236C506.546 888.559 501.166 886.004 497.535 889.608C489.115 896.871 490.03 909.057 488.174 919.037C480.346 914.652 472.491 910.294 464.259 906.717C465.981 898.808 467.649 890.442 473.056 884.12C479.081 875.943 489.788 874.571 498.853 871.881C481.395 856.252 474.401 833.36 469.639 811.221C470.877 811.598 473.352 812.378 474.616 812.781C474.185 788.813 477.817 764.657 487.905 742.787C495.06 725.651 506.412 710.775 514.643 694.205C518.383 687.991 525.054 684.548 530.434 679.975C534.523 676.128 539.983 671.958 539.714 665.771C536.594 656.41 529.465 649.174 524.032 641.158Z"></path>
<path fill="#583020" d="M378.178 648.905C380.169 647.022 382.213 645.193 384.285 643.417C382.644 661.521 379.227 679.49 379.227 697.756C378.985 724.952 376.51 752.713 383.397 779.371C386.517 792.337 394.91 803.366 397.358 816.547C401.205 836.857 398.058 857.543 398.596 878.014C398.353 884.282 399.349 890.953 396.793 896.898C394.372 901.928 388.239 901.955 383.558 903.193C384.607 905.937 385.657 908.654 386.733 911.451C375.3 917.907 360.343 920.543 348.776 912.958C338.931 906.528 327.606 898.028 326.342 885.465C326.342 881.888 326.476 878.337 326.691 874.813C328.198 872.15 329.677 869.514 331.184 866.877C331.13 867.819 331.049 869.675 331.022 870.616C330.968 871.719 330.888 873.952 330.834 875.055C334.438 873.36 338.043 871.693 341.648 869.998C342.966 872.607 344.311 875.216 345.656 877.853C343.531 889.5 344.983 901.579 352.677 911.048C357.142 909.622 361.715 908.411 365.912 906.313C370.028 898.458 370.808 888.882 377.048 882.184C381.164 876.884 387.54 872.231 387.244 864.806C388.024 848.074 387.271 831.208 385.172 814.583C382.698 795.188 373.229 777.676 369.14 758.685C363.383 729.821 374.735 701.387 374.251 672.496C372.449 671.232 370.673 670.022 368.925 668.811C371.964 662.14 374.843 655.415 378.178 648.905ZM377.048 890.388C374.466 896.441 377.694 902.547 379.846 908.142C381.971 898.378 384.661 888.774 388.185 879.413C384.096 882.587 378.528 884.954 377.048 890.388Z"></path>
<path fill="#704028" d="M359.321 672.954C364.352 664.023 370.243 655.495 378.178 648.905C374.843 655.415 371.964 662.14 368.925 668.811C370.673 670.022 372.449 671.232 374.251 672.496C374.735 701.387 363.383 729.821 369.14 758.685C373.229 777.676 382.698 795.188 385.172 814.583C387.271 831.208 388.024 848.074 387.244 864.806C387.54 872.231 381.164 876.884 377.048 882.184C370.808 888.882 370.028 898.458 365.912 906.313C361.715 908.411 357.142 909.622 352.677 911.048C355.205 897.517 352.3 883.825 352.919 870.24C350.525 872.769 348.077 875.297 345.656 877.853C344.311 875.216 342.966 872.607 341.648 869.998C345.952 867.926 350.256 865.828 354.56 863.757C350.794 862.546 347.028 861.39 343.289 860.233C335.138 847.375 327.337 833.844 324.781 818.618C320.639 795.511 318.702 771.785 320.962 748.382C321.392 752.39 321.93 756.398 322.549 760.433C328.278 744.428 331.668 727.615 339.012 712.255C345.306 698.885 353.161 686.377 359.321 672.954Z"></path>
<path fill="#8B6E5C" d="M564.866 694.205C559.917 677.5 548.914 663.727 541.06 648.394C562.418 663.781 571.941 690.439 576.46 715.402C578.37 731.22 582.029 748.57 574.039 763.365C573.259 740.123 572.533 716.424 564.866 694.205Z"></path>
<path fill="#966C56" d="M339.388 699.423C344.526 689.551 351.762 681.024 359.321 672.954C353.161 686.377 345.306 698.885 339.011 712.255C331.668 727.615 328.278 744.428 322.549 760.433C321.93 756.398 321.392 752.39 320.961 748.382C322.764 730.762 331.022 714.73 339.388 699.423Z"></path>
<path fill="#917462" d="M503.56 704.777C506.708 700.742 510.662 697.406 514.643 694.205C506.412 710.775 495.06 725.651 487.904 742.787C477.817 764.657 474.185 788.813 474.616 812.781C473.351 812.377 470.877 811.597 469.639 811.221C465.281 772.78 480.722 734.959 503.56 704.777Z"></path>
<path fill="#D0D0D2" d="M301.271 758.523C305.952 754.004 311.009 749.835 316.416 746.176C315.34 752.74 314.264 759.303 312.999 765.84C309.099 763.365 305.225 760.837 301.271 758.523Z"></path>
<path fill="#C4C8CC" d="M240.019 758.281C248.977 753.816 258.983 753.036 268.856 753.789C262.131 758.711 256.509 764.899 250.591 770.736C247.147 766.513 243.65 762.316 240.019 758.281Z"></path>
<path fill="#643221" d="M268.856 753.789C270.282 753.089 273.187 751.717 274.64 751.018C274.963 753.385 275.662 758.093 276.012 760.46C276.496 764.522 277.007 768.584 277.545 772.7C278.782 772.969 281.284 773.48 282.522 773.749C284.539 767.562 286.557 761.402 288.171 755.107L288.682 753.224C292.851 755.026 297.128 756.586 301.271 758.523C305.225 760.837 309.099 763.365 312.999 765.84C311.762 774.26 313.242 782.787 313.995 791.207C310.175 791.019 306.382 790.857 302.616 790.588C300.007 790.158 297.424 789.808 294.815 789.432C292.448 796.964 287.686 804.012 279.428 805.706C267.753 810.145 257.8 800.38 249.407 793.763C246.368 796.964 243.328 800.192 240.315 803.42C238.055 803.473 235.796 803.527 233.563 803.635C227.591 795.027 225.17 784.697 227.295 774.367C230.039 777.407 232.783 780.474 235.527 783.567C237.571 780.662 239.777 777.864 241.445 774.717C241.445 770.359 240.476 766.109 240.181 761.832C240.127 760.944 240.046 759.169 240.019 758.281C243.651 762.316 247.148 766.513 250.591 770.736C256.509 764.899 262.131 758.711 268.856 753.789ZM263.207 784.428C260.141 786.338 257.101 788.248 254.034 790.185C257.074 800.514 266.919 804.872 277.115 804.442C280.477 802.801 283.867 801.214 287.068 799.277C288.44 794.865 288.655 790.212 289.273 785.693C280.827 782.787 271.896 782.464 263.207 784.428Z"></path>
<path fill="#ADA8A3" d="M276.011 760.46C276.361 758.039 277.088 753.17 277.464 750.749C281.042 752.094 284.62 753.547 288.17 755.107C286.556 761.402 284.539 767.562 282.521 773.749C281.284 773.48 278.782 772.969 277.545 772.7C277.007 768.584 276.496 764.522 276.011 760.46Z"></path>
<path fill="#B5C0D2" d="M225.574 772.484C229.932 768.288 234.612 764.334 240.181 761.832C240.476 766.109 241.445 770.359 241.445 774.717C239.777 777.865 237.571 780.662 235.527 783.567C232.783 780.474 230.039 777.407 227.295 774.368L225.574 772.484Z"></path>
<path fill="#786E68" d="M612.587 772.78C623.886 769.741 639.165 765.087 647.612 776.143C646.697 777.138 644.841 779.156 643.926 780.178C641.613 779.532 639.299 778.967 636.986 778.403C630.261 776.869 623.321 776.439 616.461 776.116C615.493 775.282 613.556 773.614 612.587 772.78Z"></path>
<path fill="#BABABE" d="M616.461 776.116C623.32 776.439 630.261 776.869 636.986 778.403C629.911 784.643 624.423 792.337 619.178 800.138C617.644 792.202 616.837 784.159 616.461 776.116Z"></path>
<path fill="#8A6E62" d="M599.46 786.876C604.033 784.697 608.579 782.464 613.206 780.339C612.533 782.384 611.215 786.5 610.543 788.571C606.83 787.925 603.172 787.307 599.46 786.876Z"></path>
<path fill="#A58890" d="M263.207 784.428C271.896 782.464 280.827 782.787 289.273 785.693C288.655 790.212 288.439 794.866 287.068 799.277C283.866 801.214 280.477 802.801 277.114 804.442C272.757 797.582 268.103 790.911 263.207 784.428Z"></path>
<path fill="#613420" d="M597.55 786.768C598.034 786.795 598.976 786.849 599.46 786.876C603.172 787.307 606.831 787.925 610.543 788.571C611.996 793.87 613.744 799.062 615.304 804.361C586.279 808.988 565.593 833.709 552.734 858.431C545.525 871.181 544.072 887.886 531.671 897.14C538.423 872.177 548.43 847.778 564.086 827.011C574.362 812.781 590.179 803.151 597.55 786.768Z"></path>
<path fill="#CEC8CE" d="M254.034 790.185C257.1 788.248 260.14 786.338 263.207 784.428C268.103 790.911 272.756 797.582 277.114 804.442C266.919 804.872 257.073 800.515 254.034 790.185Z"></path>
<path fill="#B4ADA2" d="M653.529 786.365C659.609 782.33 665.07 788.517 669.75 791.799C661.976 797.69 655.628 805.088 649.037 812.189C649.118 803.581 648.123 793.601 653.529 786.365Z"></path>
<path fill="#C0BDC9" d="M294.814 789.432C297.424 789.808 300.006 790.158 302.616 790.588C307.727 794.758 314.183 798.712 315.797 805.599C318.809 816.278 319.939 827.549 324.593 837.744C328.305 847.186 337.667 856.467 331.184 866.877C329.677 869.514 328.198 872.15 326.691 874.813C325.239 877.18 323.759 879.521 322.253 881.861C315.958 861.793 313.806 837.395 295.245 824.214C283.624 815.041 264.175 820.071 260.006 834.705C258.445 841.161 257.531 847.778 256.508 854.369C244.807 840.112 237.947 822.008 240.315 803.42C243.327 800.192 246.367 796.964 249.407 793.763C257.8 800.38 267.753 810.145 279.428 805.706C287.686 804.012 292.447 796.964 294.814 789.432Z"></path>
<path fill="#6C3927" d="M621.33 804.953C627.033 797.098 633.408 788.894 643.818 787.737C643.603 798.578 644.114 809.526 647.584 819.883C657.269 811.57 666.146 801.994 677.928 796.56C686.375 814.879 680.726 837.529 665.984 850.899C656.139 858.807 653.126 871.773 644.76 880.919C631.417 896.172 616.084 911.828 595.721 916.804C583.804 918.311 570.811 918.526 560.051 912.366C561.154 912.258 563.333 912.016 564.436 911.908C567.771 911.532 571.134 911.209 574.497 910.913C572.21 896.064 571.914 880.112 579.93 866.77C585.875 855.472 595.99 843.932 609.763 843.689C620.496 842.533 629.077 852.62 630.126 862.573C631.068 871.154 630.664 879.816 631.095 888.425C644.195 876.427 658.667 860.475 654.659 841.161C654.874 821.981 635.13 813.588 621.33 804.953ZM602.5 848.666C592.385 852.862 586.359 862.789 582.082 872.338C577.106 883.582 575.895 897.463 582.082 908.492C586.817 913.926 594.833 911.586 600.751 909.81C611.242 905.99 622.89 899.83 625.93 888.155C629.05 876.508 629.965 862.331 622.029 852.378C617.51 846.379 608.929 845.734 602.5 848.666Z"></path>
<path fill="#938186" d="M233.563 803.635C235.796 803.527 238.055 803.474 240.315 803.42C237.948 822.008 244.807 840.112 256.509 854.369C257.531 847.778 258.446 841.161 260.006 834.705C259.253 844.389 259.306 854.154 258.042 863.838C241.579 848.585 232.433 826.043 233.563 803.635Z"></path>
<path fill="#B8BECC" d="M406.397 810.36C418.233 814.099 430.499 818.134 443.062 816.762C450.513 815.928 457.911 814.664 465.362 813.776C468.106 830.212 473.97 845.841 480.561 861.067C466.277 866.824 455.355 878.525 450.755 893.267C434.938 893.428 419.363 890.523 403.653 889.258C402.604 871.074 407.123 853.212 406.558 835.054C406.504 826.823 406.289 818.591 406.397 810.36Z"></path>
<path fill="#B3A9B7" d="M595.667 816.17C602.58 813.05 609.763 808.262 617.725 810.01C625.876 811.597 633.031 816.197 639.756 820.878C637.389 822.062 635.022 823.218 632.628 824.348C626.172 825.989 619.554 827.764 612.856 827.469C605.593 826.742 600.805 820.609 595.667 816.17Z"></path>
<path fill="#5A2128" d="M260.006 834.705C264.175 820.071 283.624 815.041 295.245 824.214C313.806 837.395 315.958 861.793 322.253 881.861C323.759 879.521 325.239 877.18 326.691 874.813C326.476 878.337 326.342 881.888 326.342 885.465C316.147 889.716 305.064 899.131 293.712 892.971C279.589 886.461 267.753 875.835 258.042 863.838C259.306 854.154 259.253 844.389 260.006 834.705ZM279.347 822.438C263.987 822.357 258.311 841.241 262.158 853.669C267.753 870.186 282.548 882.722 298.661 888.559C306.758 892.352 316.577 884.093 315.097 875.512C314.398 863.488 310.82 851.733 305.655 840.919C300.948 830.777 291.049 822.008 279.347 822.438Z"></path>
<path fill="#C1C0D1" d="M547.193 888.882C553.38 860.556 570.192 834.732 593.38 817.327C598.249 821.012 602.876 825.29 608.525 827.872C616.595 830.831 625.338 828.195 632.628 824.348C635.022 823.218 637.389 822.062 639.756 820.878C646.159 826.446 651.054 833.521 654.659 841.161C658.667 860.475 644.195 876.427 631.094 888.425C630.664 879.817 631.068 871.155 630.126 862.573C629.077 852.62 620.496 842.533 609.763 843.69C595.99 843.932 585.875 855.472 579.93 866.77C571.914 880.112 572.21 896.064 574.496 910.913C571.134 911.209 567.771 911.532 564.436 911.908C557.092 906.017 546.655 899.507 547.193 888.882Z"></path>
<path fill="#C06C7F" d="M279.347 822.438C291.048 822.008 300.948 830.777 305.655 840.919C310.82 851.733 314.398 863.488 315.097 875.512C316.577 884.093 306.758 892.352 298.661 888.559C282.548 882.722 267.753 870.186 262.158 853.669C258.311 841.241 263.987 822.357 279.347 822.438Z"></path>
<path fill="#C66E80" d="M602.499 848.666C608.929 845.734 617.51 846.379 622.029 852.378C629.965 862.331 629.05 876.508 625.93 888.155C622.89 899.83 611.242 905.99 600.751 909.81C594.833 911.585 586.817 913.926 582.082 908.492C575.895 897.463 577.106 883.582 582.082 872.338C586.359 862.788 592.385 852.862 602.499 848.666Z"></path>
<path fill="#8D6F5A" d="M331.023 870.616C334.95 866.958 339.12 863.595 343.289 860.233C347.028 861.39 350.794 862.546 354.56 863.757C350.256 865.828 345.952 867.926 341.648 869.998C338.043 871.692 334.439 873.36 330.834 875.055C330.888 873.952 330.969 871.719 331.023 870.616Z"></path>
<path fill="#8D735D" d="M377.049 890.388C378.528 884.954 384.097 882.587 388.185 879.413C384.661 888.774 381.971 898.378 379.846 908.142C377.694 902.547 374.466 896.441 377.049 890.388Z"></path>
</svg>
