<svg xmlns="http://www.w3.org/2000/svg" fill="none" viewBox="0 0 1024 1024" height="1024" width="1024">
<rect fill="white" height="1024" width="1024"></rect>
<path fill="#FDFDFD" d="M359.978 79.3521C373.542 67.8326 393.358 71.6323 408.149 78.6306C429.023 89.4286 446.363 105.974 461.754 123.53C488.737 154.481 506.533 193.489 511.103 234.372C512.93 255.271 510.718 276.218 511.704 297.141C514.999 296.876 518.269 296.588 521.54 296.299C524.835 278.046 527.456 259.432 534.959 242.333C551.962 201.016 582.168 166.722 615.74 137.936C632.839 124.011 651.309 111.65 671.077 101.838C686.541 94.3827 704.193 87.8413 721.484 92.2183C735.144 95.2966 744.547 108.331 746.688 121.63C748.01 133.438 746.086 145.343 747.578 157.151C750.608 178.579 750.439 200.319 749.141 221.867C742.888 267.849 723.841 312.532 692.89 347.355C680.36 361.736 664.199 372.126 649.505 384.102C653.666 400.696 661.53 416.16 664.392 433.114C670.212 461.997 666.556 491.481 663.045 520.364C660.808 532.653 671.462 540.998 676.801 550.714C686.565 565.456 686.421 584.142 683.823 600.977C678.172 622.308 665.306 642.51 646.042 653.933C632.358 662.398 616.342 665.525 601.672 671.777C608.237 680.724 617.736 686.688 627.645 691.353C640.848 697.51 653.065 705.422 665.835 712.372C677.162 703.017 689.042 693.373 703.712 690.031C718.093 685.942 733.966 687.433 747.337 694.167C757.149 699.193 763.378 708.693 770.472 716.773C782.184 730.072 786.778 748.278 786.994 765.641C785.936 796.4 764.724 823.118 739.112 838.39C729.228 844.546 715.135 845.388 709.436 856.931C700.85 867.729 711.504 880.596 708.81 892.572C706.261 907.795 691.952 916.669 679.206 922.994C643.277 940.815 603.523 954.739 562.832 951.54C540.996 950.073 518.943 941.993 503.72 925.808C500.064 920.661 493.763 923.764 488.785 924.605C461.297 931.989 432.486 934.61 404.156 931.748C388.597 930.209 374.648 922.273 362.191 913.326C350.84 905.246 347.28 889.518 351.345 876.604C354.495 864.699 363.898 856.138 371.762 847.24C365.269 827.207 359.858 806.717 350.864 787.598C339.873 764.318 334.991 738.369 335.136 712.709C335.28 696.572 332.634 679.69 338.767 664.298C340.643 658.262 344.154 652.418 343.962 645.973C334.174 639.768 322.919 636.449 312.914 630.605C284.584 614.637 257.649 592.608 244.711 561.945C233.889 534.553 232.855 500.476 252.07 476.499C261.497 464.017 280.833 464.33 288.192 449.949C295.839 436.649 299.976 421.739 305.796 407.622C314.982 385.569 327.103 364.286 344.659 347.812C349.324 342.93 355.192 338.77 358.03 332.469C357.14 324.412 353.22 317.125 350.238 309.694C335.977 276.819 325.66 241.395 326.815 205.273C327.752 183.509 332.514 161.985 340.45 141.735C344.539 131.082 349.83 120.524 350.214 108.884C351.008 98.5673 350.936 86.3263 359.978 79.3521ZM379.242 105.878C375.442 127.282 365.437 146.906 360.098 167.901C353.87 188.078 353.244 209.434 355 230.332C360.82 269.22 377.101 305.462 394.392 340.453C369.79 356.205 349.685 378.667 336.843 404.929C326.959 424 323.616 445.932 311.832 464.089C303.126 477.22 290.548 489.606 273.955 490.784C276.432 492.564 278.957 494.319 281.458 496.099C277.346 498.311 272.896 500.067 269.217 502.977C266.74 507.979 264.768 513.198 262.531 518.296C265.586 518.994 268.616 519.619 271.67 520.292C269.674 527.94 266.523 535.732 267.966 543.788C273.522 562.931 286.484 579.044 301.755 591.501C327.127 612.737 358.535 624.449 389.318 635.415C382.632 644.65 374.336 652.851 369.357 663.24C363.634 675.625 361.421 689.453 361.95 703.065C361.517 715.186 365.822 726.922 364.86 739.067C364.235 750.731 366.977 762.683 373.109 772.687C376.62 778.483 382.248 782.788 385.35 788.848C387.803 801.354 389.102 814.268 394.465 826.028C398.986 837.764 406.658 847.817 414.834 857.22C402.738 861.116 389.005 863.93 380.709 874.487C376.211 879.297 373.59 888.796 379.939 893.149C395.258 906.112 416.061 908.541 435.372 908.204C456.776 906.28 478.42 903.514 498.669 896.083C506.75 893.462 512.257 886.656 519.568 882.784C525.869 882.76 532.098 883.866 538.35 884.564C533.444 890.456 526.542 896.42 527.6 904.957C526.783 909.406 531.015 911.884 533.517 914.866C545.661 920.95 558.888 924.461 572.5 924.966C605.111 925.856 636.711 915.419 666.123 902.216C672.689 898.969 679.951 895.795 684.112 889.446C686.565 879.994 679.783 871.914 675.286 864.363C683.415 853.372 690.485 841.516 694.285 828.289C724.971 824.754 753.59 802.388 762.945 772.736C766.985 761.12 755.778 752.775 754.768 741.832C753.758 733.872 747.77 727.812 740.627 724.806C732.499 721.319 726.51 712.252 716.771 713.575C703.952 713.022 695.992 724.517 685.266 729.399C678.508 732.189 675.623 739.283 671.63 744.887C648.76 721.439 612.59 720.693 588.276 699.289C574.352 688.419 563.915 671.922 565.55 653.644C583.274 653.428 600.229 646.021 615.933 638.277C619.66 636.594 623.893 636.714 627.717 635.391C631.204 632.481 633.08 628.2 635.461 624.473C638.298 624.858 641.112 625.218 643.974 625.603C648.038 619.182 652.343 612.376 652.511 604.536C652.343 598.885 650.924 593.401 649.914 587.894C653.473 588.207 657.081 588.495 660.664 588.784C657.057 579.212 658.62 565.553 647.942 560.502C646.187 554.225 640.992 549.319 639.26 542.922C632.503 522.889 640.679 502.279 641.136 481.982C643.541 446.293 632.96 410.219 613.744 380.278C622.883 366.089 639.789 360.558 651.79 349.375C689.571 319.434 714.751 274.631 721.099 226.917C726.126 195.677 719.055 164.318 720.546 133.006C720.811 127.474 720.45 121.077 715.304 117.758C705.756 115.041 696.377 119.658 688.008 123.747C656.239 139.86 628.366 162.85 603.956 188.631C579.546 215.205 558.095 246.205 550.327 281.99C546.479 297.718 546.383 313.999 546.623 330.112C524.113 324.965 501.603 318.713 478.276 319.29C482.484 299.978 487.198 280.499 486.597 260.586C485.394 242.838 483.446 224.993 477.891 208.015C466.299 171.34 443.14 138.393 412.766 114.848C403.748 108.067 394.128 101.213 382.753 99.3128C378.544 97.461 373.013 103.906 379.242 105.878Z"></path>
<path fill="#F4E8A1" d="M567.859 853.035C557.83 829.564 568.508 801.643 588.012 786.54C583.539 796.881 576.372 805.851 572.548 816.481C569.133 828.337 568.821 840.794 567.859 853.035Z"></path>
<path fill="#EEE1E0" d="M392.95 118.384C396.461 123.001 401.944 126.849 403.267 132.717C403.339 148.517 408.966 163.5 410.505 179.132C412.069 192.383 412.886 205.73 412.309 219.077C407.283 217.803 402.257 216.552 397.254 215.301C398.312 233.314 398.264 251.519 402.497 269.171C406.032 282.639 402.088 296.539 404.637 310.127C406.128 318.905 406.273 327.947 403.94 336.629L402.93 334.465C393.791 308.227 379.001 283.865 374.624 256.089C370.921 231.39 367.987 206.259 370.247 181.296C372.339 158.714 382.849 138.272 392.95 118.384Z"></path>
<path fill="black" d="M533.781 494.92C538.807 494.055 543.882 493.453 548.956 492.828C557.493 498.263 565.021 507.065 564.251 517.815C565.406 529.166 560.62 539.844 554.271 548.935C548.475 550.931 542.679 553.047 536.715 554.514C531.52 554.466 526.326 554.153 521.155 553.889C517.067 539.315 515.672 523.803 521.203 509.398C526.518 509.831 531.809 510.143 537.148 510.288C539.817 504.42 539.216 498.816 533.781 494.92ZM539.697 510.312C540.25 514.4 538.326 519.883 542.559 522.601L540.635 522.817C544.218 523.803 547.826 524.765 551.457 525.679C550.351 532.1 549.365 538.569 548.74 545.087C558.648 538.569 562.448 521.422 550.062 515.41C549.726 510.191 543.809 509.254 539.697 510.312Z"></path>
<path fill="#FDFCFC" d="M522.334 505.79C525.268 501.317 528.755 497.085 533.781 494.92C539.216 498.816 539.817 504.42 537.148 510.288C532.146 508.941 527.216 507.426 522.334 505.79Z"></path>
<path fill="#040404" d="M535.008 484.122C542.102 480.419 549.581 476.427 557.806 476.523C567.714 477.461 575.675 483.978 583.755 489.197C584.765 488.307 586.809 486.527 587.843 485.661C589.527 484.17 591.21 482.727 592.894 481.284C590.946 485.565 588.902 489.846 587.411 494.367C593.639 498.191 600.541 491.096 606.746 489.557C602.537 495.329 598.016 500.86 593.76 506.608C601.431 506.512 609.055 505.574 616.678 504.853C608.405 510.191 599.05 513.462 589.383 515.146C588.18 514.52 585.799 513.27 584.621 512.62C584.284 518.561 584.501 524.621 582.793 530.393C582.745 523.875 584.621 517.286 583.202 510.889C578.368 502.231 572.163 493.694 563.386 488.74C556.195 484.531 547.705 485.974 539.817 485.613C538.615 485.253 536.21 484.483 535.008 484.122Z"></path>
<path fill="#362B29" d="M394.465 632.962C444.198 649.099 496.818 656.65 549.076 653.572C530.919 657.324 512.329 655.208 493.956 655.64C493.066 657.637 492.176 659.633 491.31 661.677C491.671 659.945 492.393 656.506 492.729 654.775C459.181 651.744 425.753 645.708 393.815 634.718L394.465 632.962Z"></path>
<path fill="#514A70" d="M374.576 540.253C377.053 532.75 385.35 532.028 391.964 530.681C387.899 535.13 387.226 541.022 388.741 546.674C392.06 553.408 396.172 559.733 400.982 565.504C401.824 575.461 403.411 585.393 406.61 594.892C400.79 584.888 398.096 573.489 392.685 563.292C388.284 555.067 384.34 546.626 379.891 538.449C378.544 538.906 375.899 539.796 374.576 540.253Z"></path>
<path fill="#884724" d="M379.242 105.878C373.013 103.906 378.544 97.461 382.753 99.3127C394.128 101.213 403.748 108.067 412.766 114.848C443.14 138.392 466.299 171.34 477.891 208.015C483.446 224.993 485.394 242.838 486.597 260.586C487.198 280.499 482.484 299.978 478.276 319.29L476.4 319.146C475.51 316.356 474.765 313.542 474.115 310.728C485.635 269.869 481.282 225.21 463.678 186.731C450.403 159.267 431.332 134.328 407.139 115.594C399.779 109.702 391.122 105.83 382.392 102.487C382.969 104.195 384.148 107.586 384.725 109.293C382.873 108.187 381.045 107.033 379.242 105.878Z"></path>
<path fill="#D39A5D" d="M382.392 102.487C391.122 105.83 399.779 109.702 407.138 115.594C431.332 134.328 450.403 159.267 463.678 186.731C481.282 225.21 485.635 269.869 474.115 310.728C473.322 313.422 472.504 316.115 471.662 318.809C463.726 319.602 455.814 320.492 447.902 321.478C448.623 302.72 449.705 283.89 448.022 265.131C445.425 235.238 444.198 204.6 433.496 176.222C433.28 178.218 432.847 182.186 432.631 184.182C424.213 155.78 412.574 123.963 384.725 109.293C384.148 107.586 382.969 104.195 382.392 102.487Z"></path>
<path fill="#714030" d="M379.242 105.878C381.045 107.032 382.873 108.187 384.725 109.293C412.574 123.963 424.213 155.78 432.631 184.182C439.869 217.995 441.168 252.602 443.044 286.992C443.332 298.824 441.89 310.584 440.855 322.344C443.188 322.055 445.545 321.767 447.902 321.478C455.814 320.492 463.726 319.602 471.662 318.809C472.504 316.115 473.322 313.422 474.115 310.728C474.765 313.542 475.51 316.356 476.4 319.145L478.276 319.29C501.603 318.713 524.113 324.965 546.623 330.112C546.383 313.999 546.479 297.718 550.327 281.99C558.095 246.205 579.547 215.205 603.956 188.631C628.366 162.85 656.239 139.859 688.008 123.747C696.377 119.658 705.756 115.041 715.304 117.758C720.45 121.077 720.811 127.474 720.546 133.006C719.055 164.317 726.126 195.677 721.1 226.917C714.751 274.631 689.571 319.434 651.79 349.375C639.79 360.558 622.883 366.089 613.744 380.278C632.96 410.219 643.541 446.293 641.136 481.982C640.679 502.279 632.503 522.889 639.26 542.922C640.992 549.319 646.187 554.225 647.942 560.502C648.014 561.488 648.207 563.484 648.303 564.47C646.692 563.749 643.469 562.33 641.834 561.608C636.88 553.432 632.984 544.413 631.974 534.818C630.29 520.653 633.561 506.608 634.884 492.588C640.126 459.761 632.118 425.875 616.606 396.848C599.94 366.45 570.865 343.988 537.942 333.695C494.317 319.482 444.607 320.228 403.483 341.824C364.908 361.159 340.066 400.239 328.402 440.738C327.296 444.153 326.286 447.592 325.179 451.031C317.243 466.711 306.517 481.044 291.992 491.169C283.069 497.926 273.185 504.396 268.664 515.097C274.532 514.063 280.328 512.669 286.075 511.202C283.983 512.981 281.843 514.785 279.799 516.661C272.632 523.202 271.43 533.182 270.588 542.321C274.003 539.868 277.346 537.343 280.664 534.794C278.644 540.686 273.69 546.818 276.384 553.263C282.083 568.799 294.469 580.679 306.926 591.044C332.418 611.63 363.754 622.741 394.465 632.962L393.815 634.718C389.823 644.385 388.885 654.895 388.982 665.26C388.861 668.507 388.765 671.753 388.693 675.024C396.1 675.505 404.06 674.254 411.01 677.405C417.961 681.565 423.083 688.034 428.59 693.854C435.517 688.01 442.202 681.205 451.052 678.463C460.552 675.938 470.893 676.443 479.983 680.219C481.883 681.06 483.759 681.998 485.635 683.008C494.629 687.962 501.026 696.211 505.692 705.181C501.796 702.416 497.996 699.578 494.268 696.62C487.078 688.612 477.843 681.541 466.588 681.301C449.778 679.184 434.074 691.762 429.745 707.586C427.292 715.739 427.893 724.421 429.721 732.646C439.557 758.595 465.025 774.707 490.373 782.932C517.452 791.806 546.479 788.608 573.51 781.393C572.644 781.85 570.913 782.812 570.023 783.293C555.016 792.576 536.691 793.538 519.544 792.744C484.841 790.796 450.523 774.202 429.576 746.113C424.983 735.339 423.348 723.555 424.165 711.915C426.498 696.091 414.377 676.755 396.918 677.958C379.578 678.752 365.967 695.682 367.289 712.709C367.506 723.074 372.34 732.742 379.338 740.197C384.581 744.333 390.449 747.7 396.797 749.841C399.876 750.851 402.978 751.837 406.104 752.678C405.383 759.532 405.167 766.459 404.397 773.337C403.002 779.541 399.347 784.88 396.052 790.243C401.078 800.753 406.754 811.094 414.353 820.04C434.314 846.759 464.832 863.881 496.481 872.9C522.286 880.331 550.423 883.337 576.372 874.848C571.057 867.97 565.093 861.332 561.87 853.156C558.672 845.075 558.816 836.201 558.407 827.664C560.981 818.525 564.011 809.41 568.724 801.113C570.167 798.997 571.707 796.977 573.318 795.053C575.651 792.432 578.128 789.931 580.725 787.598C584.789 784.736 589.094 782.235 593.375 779.734C591.595 781.994 589.792 784.255 588.012 786.54C568.508 801.642 557.83 829.563 567.859 853.035C568.292 854.262 569.181 856.715 569.638 857.917C576.661 871.289 591.066 876.892 603.62 883.578C602.417 883.506 599.964 883.361 598.738 883.289C585.126 878.624 570.913 880.307 557.157 883.313C547.513 883.866 537.052 887.594 532.891 897.093C530.054 901.59 532.771 906.376 534.599 910.633C534.31 911.691 533.781 913.807 533.517 914.866C531.016 911.883 526.783 909.406 527.601 904.957C526.542 896.42 533.444 890.456 538.35 884.564C532.098 883.866 525.869 882.76 519.568 882.784C512.257 886.656 506.75 893.462 498.669 896.083C478.42 903.514 456.776 906.28 435.372 908.204C416.061 908.541 395.258 906.112 379.939 893.149C373.59 888.796 376.211 879.297 380.709 874.487C389.006 863.93 402.738 861.116 414.834 857.22C406.658 847.817 398.986 837.764 394.465 826.028C389.102 814.268 387.803 801.354 385.35 788.848C382.248 782.788 376.62 778.483 373.109 772.687C366.977 762.683 364.235 750.731 364.86 739.067C365.822 726.922 361.517 715.186 361.95 703.065C361.421 689.453 363.634 675.625 369.357 663.24C374.336 652.851 382.633 644.65 389.318 635.415C358.535 624.449 327.127 612.737 301.755 591.501C286.484 579.044 273.522 562.931 267.966 543.788C266.524 535.732 269.674 527.94 271.67 520.292C268.616 519.619 265.586 518.993 262.531 518.296C264.768 513.198 266.74 507.979 269.217 502.977C272.897 500.067 277.346 498.311 281.458 496.099C278.957 494.319 276.432 492.564 273.955 490.784C290.549 489.605 303.126 477.22 311.832 464.089C323.616 445.932 326.959 423.999 336.843 404.929C349.685 378.667 369.79 356.205 394.393 340.453C377.101 305.462 360.82 269.22 355 230.332C353.245 209.434 353.87 188.078 360.099 167.901C365.437 146.906 375.442 127.282 379.242 105.878ZM382.657 110.544C372.436 146.353 355.625 181.681 358.223 219.799C361.926 256.834 375.851 291.922 391.891 325.206C394.705 330.208 396.124 338.24 403.579 337.399L402.93 334.465L403.94 336.629C409.063 333.551 414.353 330.737 419.668 327.971C416.806 316.5 410.89 306.255 405.118 296.058C411.179 302.744 416.566 310.007 422.362 316.933C421.785 320.516 422.41 324.148 422.626 327.755C427.172 326.408 431.693 324.989 436.238 323.546C436.238 322.368 436.262 319.963 436.262 318.761C440.398 295.818 437.513 272.37 435.228 249.427C434.987 222.444 430.779 195.509 423.011 169.68C418.538 156.453 413.415 142.697 403.267 132.717C401.944 126.849 396.461 123.001 392.95 118.384C389.559 115.69 386.144 113.069 382.657 110.544ZM696.521 124.709C661.53 141.23 631.685 166.818 605.159 194.643C577.214 224.993 554.704 262.798 551.866 304.812C551.794 314.528 549.124 325.11 553.838 334.152C560.788 338.192 568.316 341.078 575.603 344.421C576.853 327.515 577.599 310.44 582 293.99C594.337 246.036 623.869 203.517 661.602 171.893C677.859 158.113 696.954 148.18 713.5 134.809C718.406 131.755 715.039 125.55 714.871 121.053L713.187 121.967C707.488 121.606 701.644 122.015 696.521 124.709ZM708.113 144.405C684.136 161.239 657.923 176.751 639.958 200.367C628.102 211.406 619.083 225.065 610.45 238.653C608.045 243.078 604.582 247.407 604.461 252.65C602.081 255.632 599.772 258.734 598.161 262.221C586.665 288.098 580.653 316.476 581.158 344.83C580.893 348.197 584.188 350.193 585.896 352.718C589.96 340.814 597.896 330.785 602.802 319.41C607.732 315.61 612.47 311.546 617.015 307.313C617.352 308.155 618.025 309.863 618.362 310.728C616.342 312.267 614.394 313.903 612.542 315.658C602.297 327.539 592.677 341.271 591.234 357.359C599.074 352.213 605.784 345.599 613.576 340.381C608.574 347.692 600.541 353.175 597.391 361.52C600.806 367.508 606.025 372.15 611.171 376.647C611.364 375.468 611.772 373.112 611.989 371.933C613.408 371.308 616.245 370.009 617.664 369.36L617.833 367.965C634.427 358.033 650.227 346.513 663.935 332.805C690.269 307.025 708.137 272.947 715.28 236.849C720.955 209.818 717.444 182.066 717.661 154.722C717.829 149.142 717.059 143.611 715.544 138.272C713.067 140.292 710.59 142.337 708.113 144.405ZM365.894 693.638C371.666 687.313 377.534 681.084 384.076 675.553C384.34 666.895 384.292 658.238 383.907 649.604C371.762 660.955 367.626 677.693 365.894 693.638ZM370.512 738.177C369.502 751.548 372.147 765.737 381.382 775.982L381.43 777.978C386.48 780.359 392.445 785.722 397.856 781.056C401.487 773.409 400.982 764.487 399.9 756.31C391.94 751.572 383.234 748.35 374.985 744.237C373.59 742.121 372.123 740.101 370.512 738.177ZM391.579 796.207C394.417 816.457 401.487 837.524 416.638 851.929C423.468 859.096 433.977 854.478 442.419 854.142C431.236 844.762 419.62 835.696 410.433 824.249C403.243 815.519 398.529 805.105 391.579 796.207ZM408.413 862.992C398.24 866.19 386.961 870.375 381.358 880.115C378.833 885.309 381.839 890.119 385.615 893.606C388.116 887.738 389.775 880.932 395.114 876.916C399.611 873.165 405.599 872.395 411.107 871.192C403.146 876.796 391.675 881.606 391.242 892.885C395.787 900.701 406.08 900.677 413.944 902.192C417.648 893.606 421.424 883.89 430.971 880.331L430.346 881.846C423.011 886.512 421.52 895.626 419.428 903.37C431.837 904.38 444.27 903.49 456.656 902.673C475.775 898.921 496.89 896.54 511.993 883.025C498.621 877.854 484.384 875.281 471.374 869.172C463.365 865.805 455.982 860.779 447.421 858.807C434.29 857.172 421.111 859.865 408.413 862.992Z"></path>
<path fill="#F9F4F4" d="M382.657 110.544C386.144 113.069 389.559 115.69 392.95 118.384C382.849 138.272 372.34 158.714 370.247 181.296C367.987 206.259 370.921 231.39 374.624 256.089C379.001 283.865 393.791 308.227 402.93 334.465L403.579 337.399C396.124 338.24 394.705 330.208 391.892 325.206C375.851 291.922 361.926 256.834 358.223 219.799C355.625 181.681 372.436 146.353 382.657 110.544Z"></path>
<path fill="#E9CDA0" d="M696.521 124.709C701.644 122.015 707.488 121.606 713.187 121.967C697.17 130.793 680.192 138.032 665.642 149.287C622.089 181.32 582.071 222.372 564.419 274.583C557.349 293.726 558.6 314.504 553.838 334.152C549.124 325.11 551.794 314.528 551.866 304.812C554.704 262.798 577.214 224.993 605.159 194.643C631.685 166.818 661.53 141.23 696.521 124.709Z"></path>
<path fill="#D09659" d="M713.187 121.967L714.871 121.053C715.039 125.55 718.406 131.755 713.5 134.809C696.954 148.181 677.859 158.113 661.602 171.893C623.869 203.517 594.337 246.036 581.999 293.99C577.598 310.44 576.853 327.515 575.602 344.421C568.315 341.078 560.788 338.192 553.838 334.152C558.6 314.504 557.349 293.726 564.419 274.583C582.072 222.372 622.089 181.32 665.642 149.287C680.192 138.032 697.17 130.793 713.187 121.967Z"></path>
<path fill="#E5C7CD" d="M403.267 132.717C413.415 142.697 418.538 156.453 423.011 169.68C430.779 195.509 434.987 222.444 435.228 249.427C430.538 241.804 424.622 235.022 418.249 228.793C420.365 236.2 422.963 243.487 426.041 250.581C426.137 272.707 428.23 295.289 422.362 316.933C416.566 310.007 411.179 302.744 405.118 296.058C410.89 306.255 416.806 316.5 419.668 327.971C414.353 330.737 409.062 333.551 403.94 336.629C406.273 327.947 406.128 318.905 404.637 310.127C402.088 296.539 406.032 282.639 402.497 269.171C398.264 251.519 398.312 233.314 397.254 215.302C402.256 216.552 407.283 217.803 412.309 219.077C412.886 205.73 412.069 192.383 410.505 179.132C408.966 163.5 403.339 148.517 403.267 132.717Z"></path>
<path fill="#F2EEEF" d="M708.113 144.405C710.59 142.336 713.067 140.292 715.544 138.272C717.059 143.611 717.829 149.142 717.661 154.722C717.444 182.066 720.955 209.818 715.28 236.849C708.137 272.947 690.269 307.025 663.935 332.805C650.227 346.513 634.427 358.033 617.833 367.965C618.578 357.047 621.801 346.393 627.26 336.894C636.086 321.262 644.84 305.413 656.359 291.537C676.032 268.065 693.034 241.707 702.149 212.271C709.075 190.314 706.718 167.035 708.113 144.405Z"></path>
<path fill="#EDDBDD" d="M639.958 200.367C657.922 176.751 684.136 161.239 708.113 144.405C706.718 167.035 709.075 190.315 702.149 212.271C693.034 241.707 676.031 268.065 656.359 291.537C644.84 305.413 636.086 321.262 627.26 336.894C621.801 346.393 618.578 357.047 617.833 367.965L617.664 369.36C616.245 370.009 613.408 371.308 611.989 371.933C613.624 359.163 617.183 346.706 622.642 335.018C619.54 333.142 616.438 331.29 613.359 329.439C612.999 324.845 612.614 320.252 612.542 315.658C614.394 313.903 616.342 312.267 618.362 310.728C624.206 306.327 629.641 301.133 632.863 294.447C639.862 280.282 646.186 265.66 649.962 250.269C636.928 252.818 625.625 259.913 614.153 266.213C620.069 243.271 631.084 222.204 639.958 200.367Z"></path>
<path fill="#DFC1A0" d="M433.496 176.222C444.198 204.6 445.425 235.238 448.022 265.131C449.705 283.89 448.623 302.72 447.902 321.478C445.545 321.767 443.188 322.055 440.855 322.344C441.89 310.584 443.332 298.824 443.044 286.992C441.168 252.602 439.869 217.995 432.631 184.182C432.847 182.186 433.28 178.218 433.496 176.222Z"></path>
<path fill="#E2C1C6" d="M610.45 238.653C619.083 225.065 628.102 211.405 639.958 200.367C631.084 222.203 620.069 243.271 614.153 266.213C625.625 259.912 636.928 252.818 649.962 250.269C646.187 265.66 639.862 280.282 632.863 294.447C629.641 301.133 624.206 306.327 618.362 310.728C618.025 309.862 617.352 308.155 617.015 307.313C612.47 311.546 607.732 315.61 602.802 319.41C604.558 305.197 607.251 291.152 610.594 277.252C606.794 281.316 602.97 285.405 599.171 289.469C602.441 277.468 605.496 265.203 604.461 252.65C604.582 247.407 608.045 243.078 610.45 238.653Z"></path>
<path fill="#B28288" d="M418.249 228.793C424.622 235.022 430.538 241.803 435.228 249.427C437.512 272.37 440.398 295.818 436.262 318.761C435.973 304.139 436.935 289.517 436.07 274.919C435.805 265.78 430.394 258.181 426.041 250.581C422.963 243.487 420.365 236.2 418.249 228.793Z"></path>
<path fill="#CEA1AA" d="M426.041 250.582C430.394 258.181 435.805 265.781 436.07 274.919C436.935 289.517 435.973 304.139 436.262 318.761C436.262 319.963 436.238 322.368 436.238 323.547C431.693 324.99 427.171 326.408 422.626 327.755C422.41 324.148 421.784 320.516 422.362 316.933C428.23 295.289 426.137 272.707 426.041 250.582Z"></path>
<path fill="#D9ACB5" d="M598.16 262.221C599.772 258.734 602.08 255.632 604.461 252.65C605.495 265.203 602.441 277.468 599.17 289.469C602.97 285.405 606.794 281.316 610.594 277.252C607.251 291.152 604.557 305.197 602.802 319.41C597.896 330.785 589.96 340.814 585.895 352.718C584.188 350.193 580.893 348.197 581.158 344.83C580.653 316.476 586.665 288.098 598.16 262.221Z"></path>
<path fill="#3F2D27" d="M584.621 512.62C585.799 513.27 588.18 514.52 589.383 515.146C588.373 526.689 586.449 538.209 582.384 549.103L581.014 550.546C579.931 551.676 577.767 553.937 576.685 555.091C576.18 554.538 575.194 553.432 574.689 552.879C577.502 545.424 580.917 538.161 582.793 530.393C584.501 524.621 584.284 518.561 584.621 512.62Z"></path>
<path fill="#DCBDC1" d="M591.234 357.359C592.677 341.271 602.297 327.539 612.542 315.658C612.614 320.252 612.999 324.845 613.36 329.439C616.438 331.29 619.54 333.142 622.642 335.018C617.183 346.706 613.624 359.163 611.989 371.933C611.772 373.112 611.363 375.468 611.171 376.647C606.025 372.15 600.806 367.508 597.391 361.52C600.541 353.175 608.574 347.692 613.576 340.381C605.784 345.599 599.074 352.213 591.234 357.359Z"></path>
<path fill="#E6CCA4" d="M403.483 341.824C444.607 320.228 494.316 319.482 537.941 333.695C570.865 343.988 599.94 366.45 616.606 396.848C632.118 425.875 640.126 459.761 634.883 492.588C630.891 472.41 631.757 451.416 625.24 431.743C613.648 390.187 581.182 354.858 540.395 340.477C508.866 329.631 474.26 326.529 441.577 333.888C406.513 341.752 374.119 363.131 355.144 393.938C345.453 408.873 337.949 425.178 332.875 442.253C331.769 441.868 329.508 441.123 328.402 440.738C340.066 400.239 364.908 361.159 403.483 341.824Z"></path>
<path fill="#D9A060" d="M441.577 333.888C474.259 326.529 508.866 329.631 540.394 340.477C581.182 354.858 613.648 390.187 625.24 431.743C631.757 451.416 630.891 472.41 634.883 492.588C633.561 506.608 630.29 520.653 631.973 534.818C632.984 544.413 636.879 553.432 641.834 561.608C622.57 555.404 602.85 549.199 582.384 549.103C586.448 538.209 588.372 526.689 589.382 515.146C599.05 513.462 608.405 510.191 616.678 504.853C609.055 505.574 601.431 506.512 593.759 506.608C598.016 500.86 602.537 495.329 606.746 489.557C600.541 491.096 593.639 498.191 587.41 494.367C588.902 489.846 590.946 485.565 592.894 481.284C591.21 482.727 589.527 484.17 587.843 485.661C587.795 479.312 587.891 472.988 588.348 466.663C595.275 450.454 589.382 428.184 572.091 421.426C562.255 417.41 552.708 423.398 545.541 429.699C513.123 456.225 494.124 497.133 492.2 538.762C489.074 537.463 485.923 536.237 482.821 534.938C481.57 533.904 479.093 531.836 477.867 530.801C470.339 523.25 461.441 516.468 450.547 515.097C438.258 512.693 425.801 514.785 413.56 516.204C420.293 490.736 428.157 463.945 421.64 437.587C419.283 427.318 414.089 418.083 409.712 408.608C415.002 407.502 413.535 401.249 410.577 398.483C405.479 392.904 397.206 390.571 389.943 392.712C380.131 395.092 372.315 402.235 366.52 410.219C363.537 404.255 359.617 398.868 355.144 393.938C374.119 363.131 406.513 341.752 441.577 333.888Z"></path>
<path fill="#040201" d="M366.52 410.219C372.315 402.235 380.131 395.093 389.943 392.712C397.206 390.571 405.479 392.904 410.577 398.483C413.536 401.249 415.003 407.502 409.712 408.608C407.018 407.382 404.325 406.203 401.607 405.049C388.645 401.345 376.5 409.69 367.193 417.795C365.894 418.877 363.321 421.042 362.022 422.124C363.177 418.035 364.716 414.067 366.52 410.219Z"></path>
<path fill="#CC9760" d="M332.875 442.253C337.949 425.178 345.453 408.873 355.144 393.938C359.618 398.868 363.538 404.255 366.52 410.219C364.716 414.067 363.177 418.035 362.022 422.124C360.676 430.3 360.555 438.597 360.579 446.87C357.766 448.025 355 449.275 352.21 450.478C348.988 445.499 345.837 440.473 342.471 435.591C343.577 442.06 344.948 448.457 346.078 454.927C344.274 455.456 340.691 456.49 338.887 457.019C336.097 453.291 333.332 449.564 330.614 445.788C330.47 446.606 330.157 448.265 329.989 449.083C328.787 449.564 326.382 450.55 325.179 451.031C326.285 447.592 327.296 444.153 328.402 440.738C329.508 441.123 331.769 441.868 332.875 442.253Z"></path>
<path fill="#D3D3D8" d="M367.193 417.795C376.5 409.69 388.645 401.345 401.607 405.049C394.152 416.713 384.22 426.645 377.751 439.006C381.622 440.353 385.518 441.724 389.366 443.215C381.839 441.916 374.095 442.373 366.76 444.513C367.963 435.663 368.083 426.693 367.193 417.795Z"></path>
<path fill="#F2F3F5" d="M401.607 405.049C404.325 406.203 407.018 407.382 409.712 408.608C414.089 418.083 419.283 427.318 421.64 437.587C428.158 463.945 420.293 490.736 413.56 516.204C411.035 515.627 408.557 515.025 406.08 514.376C408.101 510.143 410.265 505.959 412.189 501.678C417.744 486.816 416.277 469.164 407.596 455.768C402.401 450.454 396.437 445.74 389.366 443.215C385.518 441.724 381.623 440.353 377.751 439.006C384.22 426.645 394.152 416.713 401.607 405.049Z"></path>
<path fill="#B9B6BB" d="M362.022 422.124C363.321 421.041 365.894 418.877 367.193 417.795C368.083 426.693 367.963 435.663 366.76 444.513C365.221 445.115 362.119 446.269 360.579 446.87C360.555 438.597 360.676 430.3 362.022 422.124Z"></path>
<path fill="#010101" d="M545.541 429.699C552.708 423.398 562.255 417.41 572.091 421.426C589.383 428.184 595.275 450.454 588.348 466.663C588.036 465.749 587.41 463.921 587.098 463.007C583.49 453.051 579.57 442.205 570.504 435.856C563.313 430.613 554.127 429.964 545.541 429.699Z"></path>
<path fill="#F2F0F1" d="M492.2 538.762C494.124 497.133 513.123 456.225 545.541 429.699C554.127 429.964 563.313 430.613 570.504 435.856C579.57 442.205 583.49 453.051 587.098 463.007C574.135 466.687 559.802 461.949 547.489 468.587C539 471.881 533.781 479.625 529.115 487.008C521.973 496.171 514.806 505.67 511.271 516.877C507.688 526.569 508.914 537.006 509.299 547.083C503.671 544.125 498.044 541.215 492.2 538.762Z"></path>
<path fill="#020203" d="M342.471 435.591C345.837 440.473 348.988 445.499 352.21 450.478C355 449.275 357.766 448.025 360.579 446.87C362.119 446.269 365.221 445.115 366.76 444.513C374.095 442.373 381.839 441.916 389.366 443.215C396.437 445.74 402.401 450.454 407.595 455.768C406.225 457.235 404.83 458.678 403.363 460.073C386.096 442.782 355.577 455.456 348.002 476.379C345.02 484.964 343.192 495.642 348.627 503.626C354.375 506.031 360.531 507.185 366.544 508.652C365.702 508.676 363.994 508.7 363.129 508.724C355.866 507.883 348.916 505.358 342.831 501.293C341.701 490.159 342.519 478.88 346.174 468.25C339.031 464.426 333.284 458.606 329.604 451.367L329.989 449.083C330.157 448.265 330.47 446.606 330.614 445.788C333.332 449.564 336.098 453.291 338.887 457.019C340.691 456.49 344.274 455.456 346.078 454.927C344.948 448.457 343.577 442.06 342.471 435.591Z"></path>
<path fill="#E2D5C4" d="M325.179 451.031C326.382 450.55 328.786 449.564 329.989 449.083L329.604 451.367C323.351 468.105 311.207 481.501 302.044 496.58C298.605 494.944 295.286 493.044 291.991 491.169C306.517 481.044 317.243 466.711 325.179 451.031Z"></path>
<path fill="#CB9451" d="M329.604 451.367C333.284 458.606 339.031 464.426 346.174 468.25C342.519 478.88 341.701 490.159 342.831 501.293C329.604 497.181 315.704 497.445 302.044 496.58C311.207 481.501 323.351 468.106 329.604 451.367Z"></path>
<path fill="#F4F4F7" d="M348.002 476.378C355.577 455.456 386.096 442.782 403.363 460.073C396.22 462.935 387.731 461.925 381.262 466.422C369.526 476.667 364.115 493.766 369.405 508.676C368.684 508.676 367.265 508.652 366.544 508.652C360.531 507.185 354.375 506.031 348.627 503.626C343.192 495.642 345.02 484.964 348.002 476.378Z"></path>
<path fill="#3C404F" d="M407.595 455.768C416.277 469.164 417.744 486.816 412.189 501.678C411.323 500.403 409.616 497.854 408.75 496.58C408.293 493.117 407.908 489.678 407.644 486.263C409.255 486.647 412.501 487.393 414.137 487.778C413.151 481.429 412.79 474.863 410.337 468.875C402.834 464.739 392.998 462.43 385.518 467.865C382.127 471.448 379.218 475.44 376.548 479.553C379.963 479.745 383.402 479.89 386.865 480.01C382.945 484.531 378.376 489.004 376.885 494.992C375.851 501.87 376.957 508.845 377.39 515.771C372.796 513.101 368.035 510.745 363.129 508.724C363.994 508.7 365.702 508.676 366.544 508.652C367.265 508.652 368.684 508.676 369.405 508.676C364.115 493.766 369.526 476.667 381.262 466.422C387.731 461.925 396.22 462.935 403.363 460.073C404.83 458.678 406.225 457.235 407.595 455.768Z"></path>
<path fill="#D5D3D8" d="M587.098 463.007C587.41 463.921 588.036 465.749 588.348 466.663C587.891 472.988 587.795 479.312 587.843 485.661C586.809 486.527 584.765 488.307 583.755 489.197C575.675 483.978 567.714 477.461 557.806 476.523C549.581 476.427 542.102 480.419 535.007 484.122C533.011 485.012 531.063 485.974 529.115 487.008C533.781 479.625 539 471.881 547.489 468.587C559.802 461.949 574.135 466.687 587.098 463.007Z"></path>
<path fill="#060606" d="M385.518 467.865C392.998 462.43 402.834 464.739 410.337 468.875C412.79 474.863 413.151 481.429 414.137 487.778C412.501 487.393 409.255 486.647 407.644 486.263C403.988 485.734 400.02 484.627 396.485 486.166C391.891 488.066 393.743 493.742 392.95 497.638C398.24 497.662 403.531 497.421 408.75 496.58C409.616 497.854 411.323 500.403 412.189 501.678C410.265 505.959 408.1 510.143 406.08 514.376C405.046 516.589 404.036 518.801 403.026 521.038L400.501 521.398C392.3 522.12 384.123 520.749 377.39 515.771C376.957 508.845 375.851 501.87 376.885 494.992C378.376 489.004 382.945 484.531 386.865 480.01C388.621 478.062 390.424 476.162 392.228 474.286C389.991 472.146 387.755 470.005 385.518 467.865Z"></path>
<path fill="#EDF0F6" d="M376.548 479.553C379.217 475.44 382.127 471.448 385.518 467.865C387.755 470.005 389.991 472.146 392.228 474.286C390.424 476.162 388.621 478.062 386.865 480.01C383.402 479.89 379.963 479.745 376.548 479.553Z"></path>
<path fill="#F5F5F5" d="M396.485 486.166C400.02 484.627 403.988 485.734 407.644 486.263C407.908 489.678 408.293 493.117 408.75 496.58C403.531 497.421 398.24 497.662 392.95 497.638C393.743 493.742 391.891 488.066 396.485 486.166Z"></path>
<path fill="#4E4A4B" d="M529.116 487.008C531.064 485.974 533.011 485.012 535.008 484.122C536.21 484.483 538.615 485.253 539.817 485.613C538.014 487.297 536.234 488.956 534.406 490.64C539.288 491.169 544.146 491.818 548.956 492.828C543.882 493.453 538.807 494.055 533.781 494.92C528.755 497.085 525.268 501.317 522.334 505.79C527.216 507.426 532.146 508.941 537.148 510.288C531.809 510.143 526.518 509.831 521.203 509.398C515.672 523.803 517.067 539.315 521.155 553.889C526.326 554.153 531.52 554.466 536.715 554.514C531.208 555.837 525.58 556.919 519.881 556.895C506.437 551.652 493.691 544.461 482.821 534.938C485.923 536.237 489.074 537.463 492.2 538.762C498.044 541.215 503.672 544.125 509.299 547.083C508.914 537.006 507.688 526.569 511.271 516.877C514.806 505.67 521.973 496.171 529.116 487.008Z"></path>
<path fill="#F0F2F7" d="M539.817 485.613C547.705 485.974 556.195 484.531 563.385 488.74C572.163 493.694 578.368 502.231 583.202 510.889C584.621 517.286 582.745 523.875 582.793 530.393C580.917 538.161 577.502 545.423 574.688 552.879C567.714 552.566 560.86 551.171 554.271 548.935C560.62 539.844 565.406 529.166 564.251 517.815C565.021 507.065 557.493 498.263 548.956 492.828C544.146 491.818 539.288 491.169 534.406 490.64C536.234 488.956 538.014 487.297 539.817 485.613Z"></path>
<path fill="#F3F4F5" d="M268.664 515.098C273.185 504.396 283.069 497.926 291.991 491.169C295.286 493.045 298.605 494.944 302.044 496.58C315.704 497.446 329.604 497.181 342.831 501.293C334.775 505.55 325.371 508.027 318.902 514.737C314.285 520.917 318.806 528.974 323.52 533.663C337.107 546.145 358.126 547.949 374.576 540.253C375.899 539.796 378.544 538.906 379.891 538.449C384.34 546.626 388.284 555.067 392.685 563.292C398.096 573.489 400.789 584.888 406.609 594.892C413.151 606.22 427.508 612.448 440.206 608.937C453.048 606.532 462.403 596.792 471.229 587.966C484.192 582.074 498.092 573.633 500.305 558.194C500.617 557.352 501.218 555.644 501.507 554.779C506.63 557.039 511.752 559.3 516.826 561.633C524.113 587.125 554.006 601.578 578.825 594.075C587.531 591.718 595.082 582.844 592.389 573.489C589.118 565.913 582.096 561.007 576.685 555.091C577.767 553.937 579.931 551.676 581.013 550.546C595.226 552.446 611.989 552.686 622.354 564.158C629.4 573.128 634.186 586.764 627.669 597.273C617.255 613.795 599.603 624.377 581.23 629.98C535.681 644.121 486.837 643.399 440.158 635.704C414.233 631.76 390.16 620.889 366.014 611.222C343.625 601.578 322.75 588.063 305.05 571.3C289.803 557.015 285.546 535.852 279.798 516.661C281.843 514.785 283.983 512.981 286.075 511.202C280.328 512.669 274.532 514.063 268.664 515.098Z"></path>
<path fill="#CB8594" d="M342.831 501.293C348.916 505.358 355.866 507.883 363.129 508.724C368.035 510.745 372.796 513.101 377.39 515.771C384.124 520.749 392.3 522.12 400.501 521.398L402.449 521.543C397.014 522.962 391.699 524.813 386.408 526.713C390.833 527.531 395.258 528.324 399.683 529.142C397.086 529.623 394.513 530.128 391.964 530.681C385.35 532.028 377.053 532.75 374.576 540.253C358.126 547.949 337.108 546.145 323.52 533.663C318.806 528.974 314.285 520.917 318.902 514.737C325.372 508.027 334.775 505.55 342.831 501.293Z"></path>
<path fill="#FDFDFC" d="M539.697 510.312C543.81 509.254 549.726 510.191 550.062 515.41C550.086 516.997 550.159 520.124 550.207 521.687C547.657 522 545.108 522.288 542.559 522.601C538.326 519.883 540.25 514.4 539.697 510.312Z"></path>
<path fill="#51221E" d="M403.026 521.038C404.036 518.801 405.046 516.589 406.08 514.376C408.557 515.025 411.034 515.627 413.56 516.204C425.801 514.785 438.258 512.693 450.547 515.098C461.441 516.468 470.34 523.25 477.867 530.802C475.125 537.006 473.947 544.173 469.402 549.464C464.231 554.25 456.896 555.356 450.355 557.159C444.727 557.015 439.076 556.27 433.785 554.298C423.997 547.564 413.391 536.646 419.139 523.755C436.671 524.02 453.553 528.469 470.556 532.196C453.866 513.318 425.272 518.056 403.026 521.038ZM427.34 529.695C435.757 538.425 448.551 539.243 459.926 538.594C450.427 532.148 438.907 528.204 427.34 529.695Z"></path>
<path fill="#474649" d="M550.062 515.41C562.448 521.422 558.648 538.569 548.74 545.087C549.365 538.569 550.351 532.1 551.457 525.679C547.826 524.765 544.218 523.803 540.635 522.817L542.559 522.601C545.108 522.288 547.657 522 550.207 521.687C550.159 520.124 550.086 516.997 550.062 515.41Z"></path>
<path fill="#CAD1DD" d="M270.588 542.321C271.43 533.182 272.632 523.202 279.799 516.661C285.546 535.852 289.803 557.015 305.05 571.3C322.75 588.062 343.625 601.578 366.015 611.222C390.16 620.889 414.233 631.76 440.158 635.704C486.837 643.399 535.681 644.121 581.23 629.98C599.604 624.376 617.256 613.795 627.669 597.273C634.186 586.764 629.4 573.128 622.354 564.158C611.989 552.686 595.227 552.446 581.014 550.546L582.384 549.103C602.85 549.199 622.57 555.404 641.834 561.608C643.469 562.33 646.692 563.749 648.303 564.47C649.024 571.084 652.367 576.952 655.061 582.916C650.996 581.425 646.956 579.91 642.916 578.419C647.99 591.982 650.708 607.422 643.084 620.649C640.415 616.993 637.794 613.338 635.196 609.659C632.695 616.825 629.929 623.92 626.515 630.725C624.518 629.595 622.522 628.465 620.526 627.359C604.846 645.636 579.162 647.127 557.277 652.442C554.536 652.803 551.818 653.187 549.076 653.572C496.818 656.65 444.198 649.099 394.465 632.962C363.754 622.741 332.418 611.63 306.926 591.044C294.469 580.679 282.083 568.799 276.384 553.263C273.69 546.818 278.644 540.686 280.664 534.794C277.346 537.343 274.003 539.868 270.588 542.321Z"></path>
<path fill="#E8C9A1" d="M403.026 521.038C425.272 518.056 453.866 513.318 470.556 532.196C453.553 528.469 436.671 524.02 419.139 523.755C413.56 523.034 408.028 522 402.449 521.543L400.501 521.398L403.026 521.038Z"></path>
<path fill="#F5F6F8" d="M386.408 526.713C391.699 524.813 397.014 522.962 402.449 521.543C408.028 522 413.56 523.034 419.139 523.755C413.391 536.645 423.997 547.564 433.785 554.298C433.785 558.771 433.713 563.22 433.569 567.693C425.223 564.542 416.325 562.979 408.245 559.131C401.319 555.668 395.21 550.858 388.741 546.674C387.226 541.022 387.899 535.13 391.964 530.681C394.513 530.128 397.086 529.623 399.683 529.142C395.258 528.325 390.833 527.531 386.408 526.713Z"></path>
<path fill="#DBC5B4" d="M427.34 529.695C438.907 528.204 450.427 532.148 459.926 538.593C448.551 539.243 435.757 538.425 427.34 529.695Z"></path>
<path fill="#E5E8ED" d="M469.402 549.464C473.947 544.173 475.125 537.006 477.867 530.802C479.093 531.836 481.57 533.904 482.821 534.938C493.691 544.461 506.437 551.652 519.881 556.895C519.135 558.073 517.596 560.454 516.826 561.632C511.752 559.3 506.63 557.039 501.507 554.778C501.219 555.644 500.617 557.352 500.305 558.193C498.453 557.953 496.577 557.688 494.725 557.424C494.725 561.248 494.966 565.12 494.148 568.895C490.853 573.272 486.236 576.375 481.739 579.357C470.123 578.034 457.834 578.563 446.964 573.705C441.312 571.469 441.168 564.759 439.605 559.829C443.188 558.915 446.747 558.025 450.355 557.159C456.896 555.356 464.231 554.249 469.402 549.464Z"></path>
<path fill="#CECFD6" d="M388.741 546.674C395.21 550.858 401.319 555.668 408.245 559.131C416.325 562.979 425.223 564.542 433.569 567.693L435.228 568.775C423.997 574.114 411.275 571.781 400.982 565.504C396.172 559.733 392.06 553.408 388.741 546.674Z"></path>
<path fill="#CD8895" d="M536.715 554.514C542.679 553.047 548.475 550.931 554.271 548.935C560.86 551.171 567.714 552.566 574.689 552.879C575.194 553.432 576.18 554.538 576.685 555.091C582.096 561.007 589.118 565.913 592.389 573.489C595.082 582.844 587.531 591.718 578.825 594.075C554.006 601.578 524.113 587.125 516.826 561.632C517.596 560.454 519.135 558.073 519.881 556.895C525.58 556.919 531.208 555.837 536.715 554.514Z"></path>
<path fill="#A9ADB5" d="M433.785 554.298C439.076 556.27 444.727 557.015 450.355 557.159C446.747 558.025 443.188 558.915 439.605 559.829C441.168 564.759 441.312 571.469 446.964 573.705C457.834 578.563 470.123 578.034 481.739 579.357C479.166 580.8 476.544 582.17 473.875 583.445C466.492 583.637 458.532 584.431 451.726 580.872C445.713 577.577 440.783 572.695 435.228 568.775L433.569 567.693C433.713 563.22 433.785 558.771 433.785 554.298Z"></path>
<path fill="#382A28" d="M494.725 557.424C496.577 557.688 498.453 557.953 500.305 558.193C498.092 573.633 484.192 582.074 471.229 587.966C471.903 586.836 473.226 584.575 473.875 583.445C476.544 582.17 479.166 580.8 481.739 579.357C486.236 576.375 490.854 573.272 494.148 568.895C494.966 565.12 494.725 561.248 494.725 557.424Z"></path>
<path fill="#72544C" d="M647.942 560.502C658.62 565.552 657.057 579.212 660.664 588.784C657.081 588.495 653.473 588.207 649.914 587.894C650.924 593.401 652.343 598.885 652.511 604.536C652.343 612.376 648.038 619.182 643.974 625.603C641.112 625.218 638.298 624.858 635.46 624.473C633.08 628.2 631.204 632.481 627.717 635.391C623.893 636.714 619.66 636.593 615.933 638.277C600.229 646.021 583.274 653.428 565.55 653.644C562.784 653.235 560.018 652.827 557.277 652.442C579.162 647.127 604.846 645.636 620.526 627.359C622.522 628.465 624.518 629.595 626.514 630.725C629.929 623.92 632.695 616.825 635.196 609.659C637.793 613.338 640.415 616.993 643.084 620.649C650.708 607.422 647.99 591.982 642.916 578.419C646.956 579.91 650.996 581.425 655.06 582.916C652.367 576.952 649.024 571.084 648.303 564.47C648.206 563.484 648.014 561.488 647.942 560.502Z"></path>
<path fill="#752129" d="M406.609 594.892C403.411 585.393 401.824 575.461 400.982 565.504C411.275 571.781 423.997 574.114 435.228 568.775C440.783 572.695 445.713 577.577 451.725 580.872C458.531 584.431 466.492 583.637 473.875 583.445C473.225 584.575 471.903 586.836 471.229 587.966C462.403 596.792 453.048 606.532 440.206 608.937C427.508 612.448 413.151 606.22 406.609 594.892ZM414.714 587.485C418.129 589.842 421.351 593.209 425.8 593.401C430.49 593.69 437.633 593.858 436.118 587.101C428.999 586.139 421.808 586.595 414.714 587.485ZM432.558 596.359C425.68 596.215 419.067 594.027 412.309 592.944C419.235 608.312 439.436 606.58 451.677 599.101C451.774 597.466 451.942 594.219 452.014 592.584C449.801 591.862 447.637 591.117 445.473 590.299C441.288 592.463 437.32 595.566 432.558 596.359Z"></path>
<path fill="#B95973" d="M414.714 587.485C421.808 586.595 428.999 586.139 436.118 587.1C437.633 593.858 430.49 593.69 425.801 593.401C421.352 593.209 418.129 589.842 414.714 587.485Z"></path>
<path fill="#C36A82" d="M432.558 596.359C437.32 595.566 441.288 592.463 445.473 590.299C447.637 591.117 449.802 591.862 452.014 592.584C451.942 594.219 451.774 597.466 451.677 599.101C439.436 606.58 419.235 608.312 412.309 592.944C419.067 594.027 425.68 596.215 432.558 596.359Z"></path>
<path fill="#C4C5CC" d="M388.981 665.26C388.885 654.895 389.823 644.386 393.815 634.718C425.753 645.708 459.181 651.744 492.729 654.775C492.393 656.506 491.671 659.945 491.31 661.677C490.974 662.398 490.348 663.865 490.012 664.587C474.885 656.915 457.69 656.242 441.24 653.813C425.079 651.6 409.327 647.127 393.118 645.083C391.771 651.793 390.256 658.502 388.981 665.26Z"></path>
<path fill="#F0F0F2" d="M393.118 645.083C409.327 647.127 425.079 651.6 441.24 653.813C457.69 656.242 474.885 656.915 490.012 664.587C487.222 670.142 483.903 675.409 479.983 680.219C470.893 676.443 460.552 675.938 451.052 678.463C442.202 681.205 435.516 688.01 428.59 693.854C423.083 688.034 417.961 681.565 411.01 677.405C404.06 674.254 396.1 675.505 388.693 675.024C388.765 671.753 388.861 668.507 388.981 665.26C390.256 658.502 391.771 651.793 393.118 645.083Z"></path>
<path fill="#D8955A" d="M365.894 693.638C367.626 677.693 371.762 660.955 383.907 649.604C384.292 658.238 384.34 666.895 384.075 675.553C377.534 681.084 371.666 687.313 365.894 693.638Z"></path>
<path fill="#7D4526" d="M549.076 653.572C551.818 653.187 554.535 652.803 557.277 652.442C560.019 652.827 562.784 653.236 565.55 653.644C563.915 671.922 574.352 688.419 588.276 699.289C612.59 720.693 648.76 721.439 671.63 744.887C672.977 746.257 674.3 747.676 675.599 749.143C677.931 752.005 680.12 755.011 682.164 758.138C693.154 778.315 697.892 801.498 695.559 824.393C695.223 825.379 694.597 827.327 694.285 828.289C690.485 841.516 683.414 853.372 675.286 864.363C679.783 871.914 686.565 879.994 684.112 889.446C679.951 895.795 672.689 898.969 666.123 902.216C636.711 915.419 605.111 925.856 572.5 924.966C558.888 924.461 545.661 920.95 533.516 914.866C533.781 913.807 534.31 911.691 534.599 910.633C536.066 899.931 544.218 892.74 553.285 888.051C547.633 894.833 536.691 901.398 540.803 911.715C545.469 918.184 554.343 917.944 561.437 919.387C564.468 911.138 568.604 903.106 575.458 897.382L576.997 896.203C571.177 903.178 567.498 911.499 567.907 920.758C586.088 921.672 604.293 919.194 621.656 913.807C638.972 908.781 656.239 902.985 672.111 894.352C676.128 891.61 683.174 887.618 680.264 881.87C678.34 875.858 673.145 871.866 668.769 867.705C678.701 852.699 688.489 836.658 690.317 818.357C691.952 806.019 690.581 793.37 686.421 781.682C684.569 776.247 682.428 770.932 679.879 765.809C673.362 752.438 662.852 740.967 649.457 734.329C628.679 723.723 605.255 718.288 586.376 704.027C582.36 700.42 578.512 696.644 574.496 693.061C578.007 707.827 585.222 721.27 590.729 735.339C574.809 719.683 568.099 697.606 563.097 676.491C561.51 669.757 559.97 663.023 558.407 656.314C540.659 657.949 522.839 657.204 505.066 657.179C500.136 656.506 497.154 660.474 494.894 664.178C491.575 670.334 488.593 676.659 485.635 683.008C483.759 681.998 481.883 681.06 479.983 680.219C483.903 675.409 487.222 670.142 490.012 664.587C490.348 663.865 490.974 662.398 491.31 661.677C492.176 659.633 493.066 657.637 493.956 655.64C512.329 655.208 530.919 657.324 549.076 653.572Z"></path>
<path fill="#CB7F49" d="M494.894 664.178C497.154 660.474 500.136 656.506 505.067 657.179C522.839 657.204 540.659 657.949 558.407 656.314C559.971 663.023 561.51 669.757 563.097 676.491C541.982 665.813 518.221 663.264 494.894 664.178Z"></path>
<path fill="#D8A161" d="M494.894 664.178C518.221 663.264 541.982 665.813 563.097 676.491C568.099 697.606 574.809 719.683 590.729 735.339C585.222 721.27 578.007 707.827 574.496 693.061C578.512 696.644 582.36 700.42 586.376 704.027C588.132 708.14 589.936 712.661 594.12 714.897C614.009 727.09 637.553 732.525 656.311 746.738C664.344 752.751 669.562 761.529 676.416 768.695C677.282 767.974 679.014 766.531 679.879 765.809C682.429 770.932 684.569 776.247 686.421 781.682C677.907 800.248 684.064 822.349 673.386 840.145C659.125 862.463 630.362 875.185 604.365 868.619C592.124 866.503 581.663 859.384 572.717 851.111C571.682 853.372 570.672 855.633 569.638 857.917C569.181 856.715 568.291 854.262 567.859 853.035C568.821 840.794 569.133 828.337 572.548 816.481C576.372 805.851 583.539 796.881 588.012 786.54C589.791 784.255 591.595 781.994 593.375 779.734C589.094 782.235 584.789 784.736 580.725 787.598C579.546 784.904 578.368 782.235 577.19 779.589C576.348 777.69 575.482 775.79 574.64 773.938C576.468 769.85 578.296 765.785 580.148 761.721C547.417 781.201 505.018 777.209 472.119 760.23C456.078 752.63 445.016 738.393 434.146 724.902C432.679 727.475 431.188 730.048 429.721 732.646C427.893 724.421 427.292 715.739 429.745 707.586C429.865 709.534 430.129 713.479 430.274 715.451C437.152 705.687 442.13 692.724 454.251 688.395C468.151 683.225 481.474 692.267 494.268 696.62C497.996 699.578 501.796 702.416 505.692 705.182C501.026 696.211 494.629 687.962 485.635 683.008C488.593 676.659 491.575 670.334 494.894 664.178Z"></path>
<path fill="#F6F6F7" d="M367.289 712.709C365.966 695.682 379.578 678.752 396.918 677.958C414.377 676.756 426.498 696.091 424.165 711.915C423.372 713.286 421.808 716.004 421.015 717.374C419.091 720.333 417.095 723.242 415.123 726.176C413.872 723.916 412.646 721.679 411.395 719.443C399.635 724.541 388.645 731.323 379.338 740.197C372.339 732.742 367.505 723.074 367.289 712.709Z"></path>
<path fill="#D9BB94" d="M429.745 707.586C434.074 691.762 449.778 679.184 466.588 681.301C477.843 681.541 487.078 688.612 494.268 696.62C481.474 692.267 468.151 683.225 454.251 688.395C442.13 692.724 437.152 705.687 430.274 715.451C430.13 713.478 429.865 709.534 429.745 707.586Z"></path>
<path fill="#DFBD8D" d="M594.12 714.897C589.936 712.661 588.132 708.14 586.376 704.027C605.255 718.288 628.679 723.723 649.457 734.329C662.853 740.967 673.362 752.438 679.879 765.809C679.014 766.531 677.282 767.974 676.416 768.695C669.562 761.529 664.344 752.751 656.311 746.738C637.553 732.525 614.009 727.09 594.12 714.897Z"></path>
<path fill="#6D6061" d="M421.015 717.374C421.808 716.004 423.372 713.286 424.165 711.915C423.348 723.555 424.983 735.339 429.576 746.113C421.905 748.807 414.185 751.548 406.104 752.678C402.978 751.837 399.876 750.851 396.797 749.841C404.637 749.672 412.309 747.893 419.764 745.632C416.83 740.413 413.92 735.195 411.107 729.928C415.219 733.175 419.259 736.493 423.299 739.812C422.53 732.309 421.784 724.83 421.015 717.374Z"></path>
<path fill="#8E6A5E" d="M685.266 729.399C695.992 724.517 703.953 713.022 716.771 713.575C726.511 712.252 732.499 721.319 740.627 724.806C747.77 727.812 753.758 733.872 754.768 741.832C755.778 752.775 766.985 761.12 762.945 772.736C753.59 802.388 724.972 824.754 694.285 828.289C694.597 827.327 695.223 825.379 695.559 824.393C716.651 819.751 737.068 808.905 748.997 790.315C754.672 782.187 760.348 772.495 758.809 762.226C757.919 755.54 750.223 756.19 745.245 754.891C747.289 750.899 750.728 746.907 749.766 742.121C748.684 734.642 741.638 727.764 733.798 728.75C729.156 730.217 725.092 733.03 720.955 735.507C723.601 730.938 726.222 726.345 728.795 721.727C722.759 719.731 716.218 716.653 709.869 719.274C697.099 723.796 688.393 735.411 685.315 748.326C682.068 748.542 678.821 748.831 675.599 749.143C674.3 747.676 672.977 746.257 671.631 744.887C675.623 739.283 678.509 732.189 685.266 729.399Z"></path>
<path fill="#DCDDE3" d="M415.123 726.176C417.095 723.242 419.091 720.332 421.015 717.374C421.784 724.83 422.53 732.309 423.299 739.812C419.259 736.494 415.219 733.175 411.107 729.928C413.92 735.195 416.83 740.413 419.764 745.632C412.309 747.893 404.637 749.672 396.797 749.841C390.448 747.7 384.58 744.333 379.338 740.197C388.645 731.323 399.635 724.541 411.395 719.443C412.646 721.679 413.872 723.916 415.123 726.176Z"></path>
<path fill="#F1F2F7" d="M685.314 748.326C688.393 735.411 697.099 723.795 709.869 719.274C716.218 716.653 722.759 719.731 728.795 721.727C726.222 726.345 723.601 730.938 720.955 735.507C725.092 733.03 729.156 730.217 733.797 728.75C741.637 727.764 748.684 734.642 749.766 742.121C750.728 746.907 747.289 750.899 745.245 754.891C750.223 756.19 757.919 755.54 758.809 762.226C760.348 772.495 754.672 782.187 748.996 790.315C736.948 797.482 724.659 804.913 710.59 807.198C707.271 792.792 704.626 777.473 695.511 765.376C692.529 760.831 686.878 759.845 682.164 758.138C680.12 755.011 677.931 752.005 675.599 749.143C678.821 748.831 682.068 748.542 685.314 748.326Z"></path>
<path fill="#CA854F" d="M434.145 724.902C445.016 738.393 456.078 752.63 472.119 760.23C505.018 777.209 547.417 781.201 580.148 761.721C578.296 765.785 576.468 769.85 574.64 773.938C575.482 775.79 576.348 777.69 577.19 779.589C576.276 780.046 574.424 780.936 573.51 781.393C546.479 788.608 517.452 791.806 490.372 782.932C465.025 774.708 439.557 758.595 429.72 732.646C431.187 730.048 432.678 727.475 434.145 724.902Z"></path>
<path fill="#DAB88C" d="M370.512 738.177C372.123 740.101 373.59 742.121 374.985 744.237C379.242 754.242 381.478 765.088 381.382 775.982C372.147 765.737 369.502 751.548 370.512 738.177Z"></path>
<path fill="#C78144" d="M374.985 744.237C383.234 748.35 391.939 751.572 399.9 756.31C400.982 764.487 401.487 773.409 397.855 781.056C392.444 785.722 386.48 780.359 381.43 777.978L381.382 775.982C381.478 765.088 379.241 754.242 374.985 744.237Z"></path>
<path fill="#C9CEDC" d="M429.576 746.113C450.523 774.203 484.841 790.796 519.544 792.744C536.691 793.538 555.016 792.576 570.023 783.293C571.129 787.189 572.212 791.109 573.318 795.053C571.707 796.977 570.167 798.997 568.724 801.113C551.481 800.103 534.31 804.023 517.067 802.172C490.276 799.574 463.918 791.133 440.879 777.088C429.817 770.307 418.754 763.525 407.668 756.791C406.682 762.322 405.72 767.854 404.397 773.337C405.167 766.459 405.383 759.533 406.104 752.679C414.185 751.548 421.905 748.807 429.576 746.113Z"></path>
<path fill="#F1F3F5" d="M407.668 756.791C418.754 763.525 429.817 770.307 440.879 777.088C463.918 791.133 490.276 799.574 517.067 802.172C534.31 804.023 551.481 800.103 568.724 801.113C564.011 809.41 560.981 818.525 558.407 827.664C556.219 834.566 552.636 841.66 554.271 849.091C555.521 855.705 558.071 861.958 560.307 868.283C534.094 869.052 507.399 866.96 482.556 857.966C465.626 851.713 448.118 845.797 433.641 834.662C427.195 829.804 420.702 824.994 414.353 820.04C406.754 811.094 401.078 800.753 396.052 790.243C399.347 784.88 403.002 779.541 404.397 773.337C405.72 767.854 406.682 762.322 407.668 756.791Z"></path>
<path fill="#CAD0DB" d="M682.164 758.138C686.878 759.845 692.529 760.831 695.511 765.376C704.626 777.473 707.271 792.792 710.59 807.198C724.659 804.913 736.948 797.482 748.996 790.315C737.068 808.905 716.65 819.751 695.559 824.393C697.892 801.498 693.155 778.315 682.164 758.138Z"></path>
<path fill="#C3AA98" d="M573.51 781.393C574.424 780.936 576.276 780.046 577.19 779.589C578.368 782.235 579.547 784.904 580.725 787.598C578.128 789.931 575.651 792.432 573.318 795.053C572.212 791.109 571.129 787.189 570.023 783.293C570.913 782.812 572.644 781.85 573.51 781.393Z"></path>
<path fill="#CC8248" d="M686.421 781.682C690.581 793.37 691.952 806.019 690.317 818.357C688.489 836.658 678.701 852.699 668.769 867.705C650.13 884.227 622.546 888.7 598.738 883.289C599.964 883.361 602.417 883.506 603.62 883.578C591.066 876.892 576.661 871.289 569.638 857.917C570.672 855.633 571.682 853.372 572.716 851.111C581.663 859.384 592.124 866.503 604.365 868.619C630.362 875.185 659.125 862.463 673.386 840.145C684.064 822.349 677.907 800.248 686.421 781.682Z"></path>
<path fill="#CB8E52" d="M391.579 796.207C398.529 805.105 403.243 815.519 410.433 824.249C419.62 835.696 431.236 844.762 442.419 854.142C433.977 854.478 423.468 859.096 416.638 851.929C401.487 837.524 394.417 816.457 391.579 796.207Z"></path>
<path fill="#CBCFDD" d="M414.353 820.04C420.702 824.994 427.195 829.804 433.641 834.662C448.118 845.797 465.626 851.713 482.556 857.966C507.399 866.96 534.094 869.052 560.307 868.283C558.071 861.958 555.521 855.705 554.271 849.091C552.635 841.66 556.219 834.566 558.407 827.664C558.816 836.201 558.672 845.075 561.87 853.156C565.093 861.332 571.057 867.97 576.372 874.848C550.423 883.337 522.285 880.331 496.481 872.9C464.832 863.881 434.314 846.759 414.353 820.04Z"></path>
<path fill="#CB9053" d="M408.413 862.992C421.111 859.866 434.29 857.172 447.421 858.807C455.982 860.779 463.365 865.806 471.374 869.173C484.384 875.281 498.621 877.854 511.993 883.025C496.89 896.54 475.775 898.921 456.656 902.673C455.549 897.406 454.948 891.418 450.643 887.642C445.305 882.472 437.224 882.808 430.346 881.846L430.971 880.331C431.38 879.345 432.198 877.349 432.607 876.339C424.382 872.155 416.325 867.706 408.413 862.992Z"></path>
<path fill="#DED2D4" d="M381.358 880.114C386.961 870.375 398.24 866.19 408.413 862.991C416.325 867.705 424.382 872.154 432.606 876.339C432.198 877.349 431.38 879.345 430.971 880.331C421.424 883.89 417.648 893.606 413.944 902.191C406.08 900.676 395.787 900.7 391.242 892.884C391.675 881.605 403.146 876.796 411.107 871.192C405.599 872.395 399.611 873.164 395.114 876.916C389.775 880.932 388.116 887.738 385.615 893.606C381.839 890.119 378.833 885.309 381.358 880.114Z"></path>
<path fill="#D59C59" d="M598.737 883.289C622.546 888.7 650.13 884.227 668.768 867.706C673.145 871.866 678.34 875.858 680.264 881.871C683.174 887.618 676.127 891.61 672.111 894.352C656.239 902.986 638.972 908.781 621.656 913.808C608.429 904.789 592.99 898.007 576.997 896.204L575.458 897.382C575.578 896.492 575.819 894.713 575.915 893.823C569.542 890.528 563.241 887.113 557.157 883.313C570.913 880.307 585.126 878.624 598.737 883.289Z"></path>
<path fill="#E1D2CE" d="M419.427 903.37C421.52 895.626 423.011 886.512 430.346 881.846C437.224 882.808 445.304 882.471 450.643 887.642C454.948 891.418 455.549 897.406 456.655 902.673C444.27 903.49 431.837 904.38 419.427 903.37Z"></path>
<path fill="#E4DBDD" d="M532.891 897.093C537.052 887.594 547.513 883.866 557.157 883.313C563.241 887.113 569.542 890.528 575.915 893.823C575.819 894.713 575.578 896.492 575.458 897.382C568.604 903.106 564.468 911.138 561.438 919.387C554.343 917.944 545.469 918.185 540.803 911.715C536.691 901.398 547.633 894.833 553.285 888.051C544.218 892.741 536.066 899.931 534.599 910.633C532.771 906.376 530.053 901.591 532.891 897.093Z"></path>
<path fill="#E3D3D0" d="M576.997 896.203C592.99 898.007 608.43 904.789 621.657 913.807C604.293 919.194 586.088 921.671 567.907 920.758C567.498 911.499 571.178 903.178 576.997 896.203Z"></path>
</svg>
