<?xml version="1.0" standalone="no"?><!DOCTYPE svg PUBLIC "-//W3C//DTD SVG 1.1//EN" "http://www.w3.org/Graphics/SVG/1.1/DTD/svg11.dtd"><svg height="1024" node-id="1" sillyvg="true" template-height="1024" template-width="1024" version="1.1" viewBox="0 0 1024 1024" width="1024" xmlns="http://www.w3.org/2000/svg" xmlns:xlink="http://www.w3.org/1999/xlink"><defs node-id="77"></defs><path d="M 0.00 0.00 L 1024.00 0.00 L 1024.00 1024.00 L 0.00 1024.00 Z" fill="#ffffff" fill-rule="nonzero" node-id="79" stroke="none" target-height="1024" target-width="1024" target-x="0" target-y="0"></path><path d="M 603.80 335.40 L 614.60 336.40 L 616.10 344.90 L 603.80 344.80 L 603.80 335.40 Z" fill="#f9faf9" fill-rule="nonzero" node-id="81" stroke="none" target-height="9.5" target-width="12.299988" target-x="603.8" target-y="335.4"></path><path d="M 569.10 89.80 L 583.00 80.00 L 592.80 74.40 L 597.90 72.00 L 594.40 81.30 L 590.00 90.30 L 608.80 91.90 L 579.00 90.00 L 569.10 89.80 Z" fill="#5f5645" fill-rule="nonzero" node-id="83" stroke="none" target-height="19.900002" target-width="39.700012" target-x="569.1" target-y="72"></path><path d="M 361.90 397.90 L 365.10 399.80 L 364.60 407.20 L 364.40 419.00 L 364.70 423.10 L 365.40 427.00 L 366.50 430.80 L 368.60 435.80 L 371.10 440.40 L 374.20 444.90 L 377.70 449.10 L 381.50 453.00 L 390.00 460.00 L 398.90 466.00 L 407.70 471.10 L 416.70 475.60 L 426.00 479.60 L 435.40 483.20 L 454.70 489.30 L 491.00 498.50 L 517.70 508.60 L 524.50 510.60 L 529.10 511.50 L 533.80 512.00 L 538.60 512.20 L 544.00 511.80 L 549.30 511.00 L 554.40 509.70 L 561.90 507.00 L 569.30 503.70 L 583.50 496.40 L 588.90 498.50 L 600.70 504.00 L 606.40 507.20 L 614.60 512.60 L 622.60 518.30 L 630.20 524.50 L 643.80 536.50 L 649.60 542.40 L 655.10 548.80 L 660.10 555.40 L 664.80 562.30 L 669.10 569.50 L 672.90 576.90 L 676.30 584.50 L 679.20 592.30 L 689.80 626.00 L 693.00 637.30 L 698.60 660.10 L 701.20 669.60 L 688.50 674.80 L 680.80 675.30 L 673.00 675.40 L 657.50 674.80 L 654.70 668.50 L 658.70 661.70 L 652.60 659.40 L 646.70 656.70 L 641.10 653.70 L 630.30 646.60 L 625.30 642.60 L 618.00 636.10 L 593.00 610.70 L 587.30 604.00 L 582.10 597.00 L 577.30 589.70 L 573.10 582.10 L 569.50 574.10 L 566.90 567.40 L 562.70 553.70 L 560.40 543.20 L 558.70 532.60 L 556.10 511.20 L 550.40 512.40 L 544.60 513.00 L 538.90 513.10 L 533.20 512.80 L 521.80 511.10 L 513.40 509.10 L 505.10 506.50 L 492.90 524.00 L 486.30 534.60 L 480.20 545.60 L 476.50 553.10 L 473.10 560.70 L 470.10 568.50 L 467.60 576.40 L 465.60 584.50 L 464.10 592.70 L 461.30 602.70 L 458.90 612.90 L 456.60 626.50 L 455.70 640.30 L 456.80 664.10 L 457.80 674.00 L 459.40 683.70 L 461.60 693.40 L 463.80 701.10 L 466.40 708.50 L 469.30 715.90 L 472.70 723.00 L 479.60 735.80 L 482.90 741.40 L 490.60 752.20 L 494.90 757.10 L 499.50 761.80 L 504.50 766.00 L 509.70 769.90 L 515.40 773.30 L 519.40 774.90 L 524.70 775.00 L 534.30 773.20 L 541.40 775.60 L 548.60 777.50 L 563.20 780.10 L 578.00 781.30 L 589.20 781.50 L 600.40 781.10 L 599.50 769.20 L 599.20 757.20 L 599.40 749.20 L 600.10 741.20 L 601.20 733.30 L 608.90 705.40 L 623.90 699.10 L 631.30 695.60 L 638.50 691.80 L 654.00 694.60 L 669.70 695.90 L 680.20 696.00 L 690.70 695.50 L 701.20 694.60 L 705.10 695.00 L 703.60 700.30 L 702.70 705.70 L 700.60 733.00 L 697.40 747.80 L 694.80 757.10 L 691.60 766.30 L 688.90 773.10 L 685.90 779.60 L 682.40 786.00 L 669.40 807.40 L 665.10 816.30 L 662.80 823.70 L 662.20 827.50 L 661.90 831.50 L 662.20 835.60 L 662.50 838.70 L 664.10 844.60 L 666.10 848.60 L 668.50 852.40 L 679.80 867.10 L 682.30 870.90 L 684.40 875.00 L 684.40 878.70 L 683.90 882.20 L 682.80 885.70 L 681.30 889.10 L 679.30 892.10 L 676.90 895.00 L 674.20 897.40 L 671.20 899.50 L 667.90 901.20 L 657.40 905.40 L 636.10 912.90 L 619.80 917.70 L 591.50 925.20 L 579.80 929.00 L 556.90 937.90 L 534.30 947.80 L 527.90 950.20 L 521.30 951.90 L 516.80 951.90 L 514.60 951.40 L 500.60 944.20 L 493.40 941.00 L 486.00 938.20 L 478.50 935.80 L 470.80 934.10 L 474.70 933.50 L 478.30 932.50 L 481.70 931.00 L 484.80 929.00 L 487.80 926.70 L 494.30 919.90 L 498.50 916.40 L 507.60 910.40 L 517.40 905.50 L 532.80 899.70 L 517.20 907.30 L 507.20 913.10 L 498.00 920.00 L 493.70 923.90 L 489.80 928.20 L 490.50 938.70 L 492.80 940.00 L 495.00 940.70 L 497.10 941.00 L 501.40 940.60 L 506.60 938.60 L 518.80 931.20 L 521.80 929.80 L 517.50 932.90 L 512.20 938.00 L 510.00 941.00 L 508.30 944.40 L 509.40 946.50 L 510.70 948.10 L 512.20 949.20 L 515.80 950.50 L 521.10 950.50 L 524.30 949.90 L 530.10 947.80 L 556.30 936.00 L 574.10 929.00 L 592.50 923.10 L 630.30 912.90 L 639.50 909.80 L 645.50 907.30 L 657.10 901.30 L 647.20 895.70 L 617.00 879.40 L 605.30 871.30 L 598.60 867.00 L 592.90 864.80 L 589.90 864.30 L 586.80 864.30 L 573.60 867.20 L 563.90 869.70 L 554.30 872.60 L 540.00 877.40 L 525.80 882.80 L 511.80 888.60 L 498.00 894.70 L 488.20 899.70 L 478.90 905.60 L 474.70 909.20 L 470.90 913.10 L 468.60 916.20 L 467.20 920.60 L 466.90 923.40 L 466.80 934.90 L 465.60 928.70 L 465.10 922.50 L 465.30 919.40 L 466.00 916.50 L 466.90 914.70 L 469.60 911.30 L 473.60 907.50 L 477.80 904.10 L 482.20 901.00 L 489.20 896.80 L 504.10 889.80 L 526.70 880.30 L 553.80 870.70 L 562.90 867.80 L 572.10 865.30 L 581.50 863.30 L 587.70 862.40 L 594.10 862.00 L 600.50 861.90 L 606.40 852.10 L 608.90 846.90 L 610.80 841.60 L 611.60 837.90 L 612.00 834.20 L 610.60 818.60 L 608.80 806.90 L 605.40 791.60 L 603.30 784.10 L 595.40 784.40 L 579.70 784.10 L 568.00 783.30 L 556.30 782.00 L 533.00 778.50 L 528.80 779.50 L 524.90 781.00 L 521.20 782.80 L 515.80 786.00 L 510.70 789.80 L 495.60 801.80 L 490.50 805.40 L 489.50 813.80 L 488.60 818.10 L 486.30 824.90 L 483.30 829.50 L 481.40 831.40 L 479.10 833.10 L 476.40 834.40 L 472.50 835.80 L 468.70 836.70 L 464.90 837.10 L 459.10 836.90 L 453.30 836.20 L 435.80 832.50 L 430.10 831.70 L 426.50 832.10 L 419.90 834.00 L 415.20 836.10 L 410.60 838.60 L 397.10 846.70 L 392.50 849.20 L 387.70 851.10 L 382.70 852.50 L 380.60 853.00 L 376.50 852.90 L 373.50 852.10 L 364.60 848.80 L 375.80 850.30 L 379.50 850.40 L 384.40 849.70 L 392.10 846.60 L 412.40 835.30 L 417.60 832.90 L 424.80 830.40 L 428.60 829.70 L 434.00 829.90 L 439.30 830.60 L 455.10 833.70 L 460.40 834.30 L 467.40 833.90 L 471.00 833.20 L 473.80 832.20 L 476.40 830.90 L 478.80 829.20 L 482.80 824.90 L 485.70 819.80 L 486.60 817.10 L 487.40 811.30 L 487.20 808.50 L 486.60 805.50 L 485.30 801.70 L 481.80 794.40 L 478.60 789.30 L 467.60 774.80 L 460.70 767.10 L 455.60 762.50 L 452.80 760.50 L 449.20 759.50 L 438.00 758.30 L 434.30 757.70 L 430.70 756.60 L 427.30 754.30 L 424.10 751.70 L 415.40 743.60 L 412.30 741.20 L 408.80 739.10 L 405.10 737.40 L 401.30 736.10 L 397.30 735.20 L 393.40 734.90 L 389.50 735.10 L 385.80 735.90 L 383.20 736.80 L 380.70 738.20 L 378.40 740.00 L 376.30 742.30 L 378.10 746.80 L 377.30 750.00 L 377.50 751.40 L 378.30 753.50 L 381.50 757.30 L 387.10 762.10 L 397.50 770.20 L 407.70 778.50 L 417.50 787.30 L 426.90 796.50 L 421.80 793.10 L 407.20 781.70 L 402.10 778.20 L 396.70 775.30 L 393.20 776.10 L 390.00 777.30 L 386.90 778.90 L 384.00 781.00 L 381.50 783.40 L 379.40 786.20 L 378.00 795.20 L 377.90 799.70 L 378.30 806.50 L 379.20 813.30 L 382.00 826.70 L 392.60 822.20 L 424.00 807.90 L 416.30 812.20 L 383.90 827.80 L 376.30 832.30 L 371.40 835.60 L 366.80 839.40 L 362.50 843.50 L 362.40 837.40 L 354.90 833.60 L 351.30 831.50 L 348.10 828.90 L 346.40 826.00 L 345.20 822.80 L 341.50 809.80 L 347.30 810.30 L 353.20 810.30 L 359.10 809.80 L 367.80 808.50 L 376.50 806.70 L 375.80 785.10 L 370.60 785.60 L 360.20 785.60 L 352.50 784.90 L 344.80 783.60 L 362.90 783.60 L 350.40 774.30 L 357.60 774.40 L 360.40 763.60 L 365.80 782.90 L 370.50 782.10 L 379.70 779.40 L 388.50 775.50 L 392.70 773.10 L 380.80 760.20 L 377.50 757.30 L 373.90 754.80 L 364.20 753.60 L 354.40 753.30 L 372.20 753.10 L 371.80 750.50 L 372.00 748.10 L 372.50 745.80 L 373.50 743.70 L 376.20 739.90 L 378.90 737.40 L 381.90 735.30 L 389.10 733.80 L 392.80 733.60 L 396.50 733.70 L 403.80 734.70 L 407.50 736.40 L 414.30 740.90 L 432.90 756.70 L 436.30 756.90 L 439.60 756.60 L 452.70 753.50 L 446.80 744.50 L 437.80 728.90 L 432.00 715.90 L 429.80 709.10 L 428.00 702.20 L 426.90 695.00 L 425.60 681.40 L 425.30 674.50 L 425.40 667.60 L 426.50 658.50 L 427.60 654.20 L 429.20 650.00 L 431.30 646.10 L 435.70 640.30 L 437.50 638.90 L 439.50 637.90 L 442.80 636.90 L 446.30 636.50 L 453.40 636.30 L 454.80 624.10 L 456.50 612.00 L 458.70 600.00 L 461.50 588.10 L 464.80 576.40 L 468.60 564.80 L 455.50 561.00 L 442.40 556.80 L 425.20 550.20 L 408.70 542.30 L 400.80 537.80 L 393.00 532.90 L 385.60 527.60 L 378.50 521.90 L 371.80 515.60 L 366.70 509.70 L 362.00 503.30 L 360.10 499.90 L 358.80 496.30 L 358.30 493.90 L 358.30 488.60 L 359.50 484.80 L 362.40 480.90 L 368.90 474.70 L 367.30 485.40 L 367.30 488.90 L 367.60 491.10 L 368.40 493.30 L 369.60 495.50 L 373.40 500.10 L 377.70 504.30 L 382.20 508.10 L 387.10 511.70 L 397.10 518.20 L 405.20 522.70 L 413.50 526.80 L 422.10 530.50 L 430.80 533.80 L 439.70 536.50 L 448.70 538.60 L 455.60 539.70 L 462.50 540.50 L 469.40 540.80 L 476.50 540.70 L 479.90 532.60 L 442.30 513.60 L 430.00 507.00 L 413.90 497.50 L 406.20 492.30 L 421.70 485.70 L 388.40 469.50 L 387.70 466.70 L 386.70 464.20 L 385.30 462.00 L 382.70 458.90 L 373.50 450.40 L 370.00 446.20 L 366.40 440.30 L 364.70 436.80 L 362.50 429.40 L 361.60 421.60 L 361.90 397.90 Z M 431.40 490.80 L 452.50 500.00 L 463.30 504.00 L 474.30 507.50 L 489.30 511.10 L 496.80 512.40 L 502.00 503.50 L 492.60 500.80 L 464.40 493.80 L 455.10 491.30 L 441.60 487.10 L 437.00 486.00 L 435.50 485.90 L 433.20 486.70 L 432.40 487.50 L 431.80 488.80 L 431.40 490.80 Z M 563.60 518.70 L 563.70 525.30 L 564.90 538.30 L 567.40 551.10 L 571.10 562.50 L 573.20 567.50 L 575.80 572.20 L 580.20 579.00 L 585.20 585.50 L 595.90 597.80 L 594.90 592.30 L 593.40 587.00 L 586.00 566.00 L 602.70 586.90 L 617.00 569.00 L 616.00 578.60 L 613.20 590.20 L 610.90 597.10 L 605.50 610.50 L 618.10 627.00 L 622.60 632.20 L 629.10 638.60 L 632.80 641.50 L 635.30 643.10 L 637.90 644.10 L 640.70 644.60 L 646.40 644.30 L 649.30 643.60 L 654.50 641.20 L 660.10 636.80 L 663.00 633.80 L 668.10 627.00 L 670.20 623.30 L 673.30 615.50 L 674.30 611.40 L 674.80 607.30 L 675.00 603.10 L 674.60 598.90 L 673.70 594.70 L 671.60 588.00 L 669.10 581.40 L 666.20 575.00 L 662.80 568.90 L 659.10 562.90 L 650.70 551.60 L 641.10 541.30 L 637.10 537.70 L 632.90 534.60 L 628.40 531.80 L 621.40 528.20 L 599.60 518.80 L 595.70 517.20 L 591.70 516.20 L 587.80 515.80 L 579.70 516.00 L 563.60 518.70 Z M 434.10 653.10 L 433.20 659.70 L 432.40 673.00 L 432.60 679.60 L 433.40 688.40 L 434.80 697.20 L 436.90 705.80 L 439.60 714.30 L 442.80 722.50 L 446.70 730.50 L 451.00 738.30 L 455.90 745.60 L 461.30 752.70 L 473.60 739.40 L 465.40 722.60 L 461.60 714.00 L 458.30 705.30 L 455.50 696.40 L 453.20 687.30 L 451.60 679.50 L 450.60 671.60 L 448.50 639.90 L 445.20 640.90 L 442.00 642.40 L 438.30 645.10 L 435.60 648.50 L 434.70 650.70 L 434.10 653.10 Z M 633.00 713.30 L 630.20 715.50 L 627.80 717.90 L 625.60 720.70 L 622.90 725.10 L 620.70 729.90 L 618.80 735.00 L 614.20 750.20 L 612.70 756.30 L 611.80 762.40 L 611.50 768.50 L 612.10 780.60 L 617.20 814.30 L 618.10 823.40 L 618.20 829.60 L 617.90 835.70 L 617.00 841.80 L 615.40 847.60 L 613.30 853.20 L 608.60 864.20 L 619.50 872.20 L 631.30 878.80 L 639.50 882.50 L 648.00 885.60 L 656.70 888.10 L 652.10 877.30 L 644.70 863.00 L 643.20 859.00 L 642.20 854.80 L 641.20 846.10 L 641.30 841.70 L 641.90 835.20 L 643.10 828.60 L 644.70 822.20 L 650.30 805.80 L 654.40 795.70 L 668.10 765.80 L 674.80 748.90 L 678.70 735.10 L 680.00 728.00 L 680.80 720.80 L 680.90 713.30 L 665.00 710.80 L 654.20 710.10 L 648.80 710.20 L 643.50 710.70 L 638.20 711.70 L 633.00 713.30 Z M 349.40 813.00 L 347.50 814.60 L 346.40 816.30 L 345.80 818.00 L 345.70 819.90 L 346.10 821.90 L 346.80 823.90 L 348.60 826.70 L 350.80 829.30 L 353.40 831.40 L 356.00 832.80 L 358.70 834.10 L 361.30 834.70 L 363.90 834.70 L 369.00 833.40 L 371.60 832.10 L 375.10 829.80 L 378.20 827.20 L 378.70 825.20 L 378.80 821.20 L 378.20 818.30 L 375.30 809.40 L 349.40 813.00 Z" fill="#673724" fill-rule="nonzero" node-id="85" stroke="none" target-height="554" target-width="363.59998" target-x="341.5" target-y="397.9"></path><path d="M 587.50 370.40 L 585.20 358.90 L 584.80 353.10 L 584.90 347.30 L 585.30 343.50 L 587.10 335.90 L 589.40 341.40 L 590.20 345.40 L 591.90 358.00 L 593.70 366.10 L 595.20 369.90 L 597.30 373.60 L 602.80 376.30 L 610.20 377.90 L 614.80 378.30 L 633.20 378.50 L 625.00 376.60 L 628.60 370.50 L 639.40 373.70 L 644.70 370.20 L 654.30 365.20 L 662.30 362.40 L 666.40 361.60 L 670.70 361.20 L 675.00 361.30 L 681.10 362.30 L 687.10 363.80 L 692.90 365.80 L 698.50 368.40 L 703.80 371.50 L 708.90 375.10 L 713.60 379.10 L 717.90 383.50 L 721.70 388.30 L 714.60 389.30 L 715.60 403.80 L 715.60 411.10 L 715.00 418.30 L 714.20 423.00 L 712.80 427.70 L 709.10 436.30 L 704.50 443.90 L 701.80 447.40 L 695.50 453.70 L 692.10 456.50 L 688.30 458.90 L 684.30 460.90 L 670.80 466.10 L 664.00 468.20 L 653.50 470.80 L 642.90 472.90 L 600.20 479.60 L 592.60 481.40 L 583.90 485.20 L 563.90 496.80 L 558.70 499.30 L 551.50 501.80 L 543.60 503.10 L 539.50 503.20 L 535.30 502.80 L 529.20 501.80 L 523.20 500.30 L 468.60 484.30 L 440.80 475.50 L 431.10 472.10 L 424.80 469.60 L 412.60 463.90 L 401.00 456.90 L 392.20 450.30 L 386.30 444.60 L 382.40 439.80 L 368.20 419.50 L 364.40 414.70 L 365.10 399.80 L 369.10 390.70 L 374.40 382.10 L 377.50 378.10 L 380.90 374.50 L 384.60 371.20 L 388.70 368.40 L 393.00 366.00 L 399.90 363.60 L 403.70 362.90 L 407.70 362.60 L 412.80 362.80 L 417.80 363.40 L 422.60 364.40 L 429.70 366.60 L 436.70 369.30 L 457.50 378.00 L 464.60 380.20 L 469.50 381.30 L 474.40 381.90 L 493.10 383.10 L 506.80 384.50 L 519.40 386.90 L 538.30 391.30 L 544.60 392.40 L 548.70 392.70 L 556.70 392.40 L 562.60 391.40 L 580.20 386.70 L 574.80 372.30 L 581.80 369.00 L 587.50 370.40 Z M 403.00 413.30 L 401.50 414.70 L 399.60 417.70 L 399.10 421.80 L 399.50 424.20 L 400.30 426.70 L 403.00 431.40 L 406.70 435.30 L 408.70 436.80 L 413.50 439.20 L 416.20 439.90 L 418.90 440.10 L 421.60 439.90 L 427.00 438.60 L 430.90 436.90 L 442.10 430.80 L 454.70 436.90 L 469.50 446.10 L 478.10 452.20 L 494.80 465.10 L 496.70 468.30 L 501.00 473.50 L 505.70 478.50 L 510.80 483.10 L 512.10 485.50 L 513.70 487.40 L 515.70 489.00 L 519.00 490.80 L 522.80 492.20 L 530.40 494.00 L 535.10 494.40 L 540.00 494.60 L 546.60 494.10 L 549.70 493.40 L 552.70 492.30 L 555.50 490.80 L 558.10 488.80 L 566.60 483.60 L 574.30 477.30 L 581.00 469.90 L 586.60 461.60 L 588.20 461.30 L 595.10 453.40 L 601.50 451.90 L 607.80 450.10 L 613.90 447.80 L 619.80 445.00 L 625.60 441.90 L 631.10 438.50 L 636.50 434.70 L 641.60 430.60 L 655.40 436.20 L 660.20 437.80 L 666.60 439.20 L 669.80 439.30 L 673.00 439.10 L 676.10 438.30 L 681.20 436.20 L 683.80 433.90 L 685.40 430.80 L 685.70 429.00 L 685.80 426.40 L 685.20 423.80 L 683.50 420.60 L 682.30 419.20 L 674.30 416.90 L 670.20 416.40 L 666.20 416.50 L 663.50 416.90 L 661.00 417.80 L 658.50 419.10 L 651.50 421.70 L 648.00 422.70 L 644.40 423.20 L 637.70 421.50 L 625.10 415.90 L 636.20 425.20 L 633.80 428.80 L 631.10 432.10 L 628.10 435.00 L 624.70 437.60 L 621.10 439.80 L 608.00 445.00 L 598.70 447.90 L 589.30 450.50 L 579.70 452.60 L 570.10 454.20 L 560.40 455.30 L 550.70 455.90 L 540.90 455.90 L 531.20 455.40 L 521.60 454.30 L 512.00 452.60 L 502.40 450.20 L 497.60 447.40 L 492.50 445.00 L 477.00 438.70 L 467.10 433.70 L 462.40 430.60 L 478.90 416.80 L 472.50 415.60 L 469.40 415.50 L 464.70 416.00 L 455.40 418.40 L 441.90 423.30 L 433.80 419.10 L 429.60 417.60 L 423.10 415.80 L 416.50 414.60 L 403.00 413.30 Z" fill="#f0dfc5" fill-rule="nonzero" node-id="87" stroke="none" target-height="167.30002" target-width="357.30002" target-x="364.4" target-y="335.9"></path><path d="M 301.00 286.10 L 303.70 279.30 L 305.70 276.10 L 308.00 273.00 L 310.50 270.30 L 313.40 267.90 L 316.50 265.80 L 319.70 264.20 L 323.20 263.20 L 328.50 262.70 L 334.20 263.80 L 337.20 265.30 L 342.40 269.20 L 345.80 272.60 L 349.00 276.50 L 357.70 288.60 L 360.80 292.40 L 362.60 261.50 L 362.80 265.50 L 364.40 282.70 L 364.00 289.60 L 362.50 294.80 L 361.30 297.10 L 359.70 299.30 L 357.60 301.40 L 349.50 286.20 L 344.50 278.00 L 339.60 272.50 L 336.70 270.20 L 333.40 268.40 L 329.70 267.10 L 326.60 267.10 L 321.20 268.30 L 318.70 269.30 L 315.50 271.20 L 312.70 273.50 L 310.20 276.30 L 308.00 279.40 L 306.30 282.70 L 304.80 286.30 L 303.80 290.00 L 303.20 293.70 L 303.10 297.50 L 303.40 301.30 L 304.20 304.90 L 305.50 308.40 L 307.80 313.00 L 310.60 317.30 L 313.80 321.40 L 317.40 325.20 L 321.30 328.50 L 325.50 331.60 L 330.10 334.10 L 334.80 336.10 L 339.70 337.60 L 347.20 338.60 L 355.00 338.10 L 337.30 344.60 L 314.80 327.70 L 304.30 318.40 L 301.50 307.80 L 300.50 302.30 L 300.00 293.30 L 301.00 286.10 Z" fill="#766e55" fill-rule="nonzero" node-id="89" stroke="none" target-height="83.100006" target-width="64.399994" target-x="300" target-y="261.5"></path><path d="M 431.40 490.80 L 431.80 488.80 L 432.40 487.50 L 433.20 486.70 L 435.50 485.90 L 437.00 486.00 L 441.60 487.10 L 455.10 491.30 L 464.40 493.80 L 492.60 500.80 L 502.00 503.50 L 496.80 512.40 L 489.30 511.10 L 474.30 507.50 L 463.30 504.00 L 452.50 500.00 L 431.40 490.80 Z" fill="#fbfbfb" fill-rule="nonzero" node-id="91" stroke="none" target-height="26.50003" target-width="70.600006" target-x="431.4" target-y="485.9"></path><path d="M 488.50 106.50 L 510.30 94.60 L 521.50 89.20 L 538.50 81.50 L 555.70 74.30 L 557.80 80.60 L 544.70 89.10 L 519.70 107.80 L 513.30 112.20 L 506.60 116.30 L 499.00 120.30 L 491.30 123.90 L 475.50 130.50 L 470.70 125.00 L 473.00 121.30 L 478.30 114.50 L 481.40 111.50 L 484.80 108.90 L 488.50 106.50 Z" fill="#8b5a3b" fill-rule="nonzero" node-id="93" stroke="none" target-height="56.199997" target-width="87.099976" target-x="470.7" target-y="74.3"></path><path d="M 506.60 116.30 L 513.30 112.20 L 519.70 107.80 L 544.70 89.10 L 557.80 80.60 L 550.20 95.90 L 569.10 89.80 L 579.00 90.00 L 612.60 92.20 L 616.40 92.80 L 623.90 94.80 L 631.00 98.00 L 606.90 116.60 L 617.50 120.80 L 596.30 122.60 L 618.90 134.30 L 624.40 137.60 L 629.60 141.30 L 624.80 140.40 L 615.60 137.70 L 588.80 127.10 L 581.90 124.90 L 574.90 123.30 L 567.50 122.00 L 552.60 120.70 L 545.10 120.60 L 535.20 121.00 L 525.30 122.00 L 515.40 123.70 L 505.70 125.80 L 496.10 128.60 L 486.60 131.80 L 477.30 135.60 L 468.30 139.80 L 449.40 150.30 L 439.50 156.60 L 429.70 163.30 L 422.60 168.60 L 415.90 174.20 L 403.10 186.30 L 397.20 192.80 L 391.70 199.70 L 386.60 206.90 L 382.00 214.40 L 379.10 219.70 L 376.70 225.00 L 374.60 230.60 L 372.90 236.20 L 371.30 244.00 L 370.20 251.80 L 369.70 259.70 L 369.20 284.20 L 369.90 300.40 L 370.80 308.60 L 372.20 314.90 L 374.10 321.00 L 376.30 327.10 L 381.70 338.80 L 384.90 344.50 L 390.10 352.70 L 395.90 360.50 L 387.40 335.20 L 385.50 328.80 L 384.00 322.30 L 382.60 313.70 L 381.80 305.00 L 381.50 296.30 L 381.80 287.60 L 382.60 278.80 L 384.00 270.30 L 385.90 261.80 L 388.30 253.40 L 391.40 245.20 L 394.90 237.30 L 399.00 229.60 L 403.60 222.20 L 410.90 212.90 L 415.00 208.50 L 419.40 204.50 L 424.00 200.90 L 429.00 197.80 L 437.00 194.10 L 441.20 192.70 L 445.60 191.80 L 450.90 191.30 L 456.10 191.20 L 461.30 191.50 L 466.50 192.30 L 471.60 193.50 L 481.50 197.00 L 486.20 199.30 L 492.30 202.80 L 498.00 206.90 L 508.30 216.00 L 513.00 221.00 L 517.30 226.20 L 523.30 234.40 L 539.70 260.20 L 545.70 253.20 L 562.00 231.10 L 567.70 223.90 L 573.80 217.10 L 579.60 211.50 L 590.20 202.80 L 599.40 197.00 L 604.20 194.50 L 609.20 192.50 L 614.30 190.90 L 619.50 189.70 L 624.90 189.10 L 635.00 189.30 L 643.50 190.90 L 647.50 192.30 L 652.70 194.60 L 657.70 197.30 L 662.50 200.60 L 667.00 204.30 L 671.30 208.20 L 679.00 217.00 L 685.60 226.40 L 689.20 234.90 L 692.40 243.50 L 695.10 252.40 L 697.40 261.30 L 699.10 270.40 L 700.40 279.50 L 701.10 288.70 L 701.20 297.90 L 700.30 313.40 L 698.40 325.70 L 689.90 362.00 L 693.90 359.50 L 701.20 353.90 L 707.80 347.30 L 710.80 343.70 L 709.70 356.60 L 741.30 363.90 L 745.20 360.00 L 736.80 351.50 L 733.70 348.90 L 730.50 346.60 L 726.90 344.80 L 711.30 338.70 L 706.30 336.30 L 707.00 325.40 L 708.90 309.10 L 709.20 298.20 L 707.60 284.40 L 705.30 259.30 L 704.20 250.90 L 702.80 242.70 L 700.00 231.90 L 695.70 220.30 L 692.90 214.20 L 689.70 208.30 L 684.50 199.70 L 678.90 191.40 L 667.00 175.20 L 672.10 175.90 L 677.70 181.50 L 682.90 187.50 L 687.70 193.80 L 692.10 200.40 L 696.00 207.30 L 699.50 214.50 L 702.60 221.80 L 705.20 229.30 L 707.30 236.90 L 715.00 233.60 L 723.00 231.70 L 728.50 231.10 L 733.90 231.20 L 739.40 231.90 L 744.80 233.10 L 749.90 234.90 L 754.90 237.30 L 759.60 240.10 L 764.00 243.50 L 768.00 247.50 L 773.10 253.90 L 777.70 260.70 L 783.00 270.30 L 787.10 280.40 L 788.70 285.70 L 789.80 291.00 L 790.50 297.20 L 790.60 303.30 L 790.10 309.50 L 789.00 315.50 L 787.50 321.40 L 785.40 327.20 L 782.90 332.80 L 779.90 338.20 L 776.50 343.40 L 772.60 348.20 L 768.50 352.70 L 764.00 356.90 L 759.00 360.30 L 748.50 366.10 L 732.10 373.60 L 721.50 379.20 L 729.20 398.20 L 731.10 404.70 L 731.90 409.10 L 732.30 413.60 L 732.20 418.20 L 731.70 423.80 L 730.60 429.10 L 729.00 434.30 L 726.80 439.30 L 724.20 444.10 L 721.20 448.60 L 717.80 453.00 L 714.10 457.00 L 710.00 460.80 L 705.70 464.30 L 696.60 470.20 L 690.30 473.60 L 683.80 476.50 L 677.10 479.00 L 663.50 483.00 L 645.90 486.50 L 635.30 488.00 L 614.00 490.30 L 600.60 492.30 L 596.40 493.60 L 593.70 494.80 L 591.20 496.40 L 588.90 498.50 L 583.50 496.40 L 589.20 494.20 L 595.00 492.40 L 600.90 490.90 L 609.80 489.30 L 646.10 484.90 L 655.00 483.10 L 664.90 480.70 L 674.90 477.70 L 681.50 475.30 L 687.90 472.50 L 694.00 469.30 L 699.90 465.70 L 705.40 461.70 L 710.50 457.10 L 714.10 453.50 L 717.20 449.40 L 720.10 445.10 L 724.90 436.30 L 726.70 432.10 L 728.10 427.80 L 729.00 423.30 L 729.50 418.80 L 729.60 414.20 L 729.30 409.70 L 728.60 405.20 L 727.50 400.70 L 726.00 396.40 L 724.10 392.30 L 721.70 388.30 L 717.90 383.50 L 713.60 379.10 L 708.90 375.10 L 703.80 371.50 L 698.50 368.40 L 692.90 365.80 L 687.10 363.80 L 681.10 362.30 L 675.00 361.30 L 670.70 361.20 L 666.40 361.60 L 662.30 362.40 L 654.30 365.20 L 644.70 370.20 L 639.40 373.70 L 645.00 366.90 L 649.60 359.30 L 651.30 355.30 L 652.60 351.10 L 653.30 346.80 L 653.50 342.50 L 652.40 334.20 L 651.50 330.50 L 648.60 323.30 L 644.30 316.80 L 641.70 314.00 L 638.90 311.50 L 635.70 309.40 L 632.30 307.60 L 628.70 306.40 L 624.80 305.60 L 621.40 305.40 L 614.90 306.20 L 611.80 307.10 L 607.70 308.70 L 604.00 310.90 L 600.40 313.50 L 597.20 316.60 L 594.30 319.90 L 591.90 323.60 L 589.80 327.60 L 588.20 331.70 L 585.30 343.50 L 584.90 347.30 L 584.80 353.10 L 585.20 358.90 L 587.50 370.40 L 569.10 365.50 L 556.10 363.50 L 547.40 363.00 L 538.60 363.00 L 529.90 363.60 L 539.60 362.10 L 549.50 361.20 L 555.10 361.60 L 566.00 363.40 L 582.10 367.60 L 582.00 352.30 L 582.60 344.60 L 583.80 337.00 L 585.00 332.00 L 586.60 327.30 L 588.70 322.70 L 591.20 318.40 L 594.20 314.40 L 600.60 308.10 L 603.60 306.00 L 606.70 304.20 L 610.00 302.80 L 614.60 301.50 L 619.30 300.80 L 624.10 300.80 L 627.70 301.20 L 634.50 303.00 L 637.80 304.40 L 640.90 306.20 L 643.80 308.30 L 646.40 310.80 L 651.50 317.00 L 653.60 320.50 L 655.20 324.10 L 657.20 331.90 L 657.60 336.00 L 657.70 342.20 L 657.40 348.40 L 655.80 360.60 L 669.40 358.90 L 683.20 357.80 L 686.10 350.50 L 690.20 338.10 L 691.40 333.10 L 693.60 317.30 L 694.60 306.70 L 695.00 295.90 L 694.90 287.80 L 694.30 279.80 L 693.40 271.90 L 692.00 264.00 L 690.10 256.20 L 687.80 248.50 L 684.90 241.10 L 681.50 233.70 L 678.20 227.70 L 674.50 222.00 L 670.20 216.60 L 666.70 212.70 L 659.00 205.90 L 654.90 202.90 L 650.40 200.30 L 645.80 198.10 L 641.00 196.40 L 636.00 195.10 L 631.20 194.50 L 626.50 194.40 L 621.80 194.80 L 617.20 195.60 L 611.20 197.30 L 605.30 199.60 L 599.70 202.50 L 594.30 205.90 L 589.30 209.70 L 580.00 218.10 L 575.80 222.70 L 571.80 227.40 L 566.20 234.90 L 561.00 242.60 L 551.10 258.40 L 547.00 264.10 L 543.70 267.10 L 541.80 267.90 L 540.40 268.00 L 537.30 266.90 L 533.80 263.20 L 528.20 254.80 L 517.00 236.00 L 513.10 230.60 L 508.90 225.40 L 504.40 220.40 L 499.60 215.80 L 494.50 211.60 L 489.10 207.60 L 483.50 204.20 L 477.50 201.10 L 472.40 199.10 L 467.10 197.60 L 461.60 196.60 L 456.10 196.30 L 450.60 196.50 L 445.10 197.40 L 441.10 198.40 L 437.30 199.90 L 433.60 201.70 L 430.10 203.90 L 422.10 210.30 L 415.10 217.70 L 409.00 226.00 L 405.10 232.60 L 401.60 239.50 L 398.10 248.10 L 395.20 256.80 L 392.80 265.80 L 390.50 279.50 L 389.60 293.40 L 389.70 300.40 L 391.00 314.20 L 393.40 327.30 L 396.80 339.70 L 399.00 345.60 L 401.50 351.50 L 407.70 362.60 L 403.70 362.90 L 396.40 364.70 L 393.00 366.00 L 388.70 368.40 L 384.60 371.20 L 380.90 374.50 L 377.50 378.10 L 374.40 382.10 L 369.10 390.70 L 365.10 399.80 L 358.40 395.80 L 352.30 390.70 L 348.10 386.40 L 336.30 372.70 L 330.40 367.30 L 327.10 365.00 L 300.60 339.40 L 295.80 333.90 L 290.10 325.90 L 287.70 321.60 L 284.10 314.20 L 280.80 306.40 L 279.10 301.10 L 277.70 295.80 L 276.80 290.40 L 276.40 286.30 L 276.90 278.10 L 277.80 273.90 L 267.10 241.50 L 251.70 237.10 L 244.30 234.20 L 239.90 231.20 L 236.30 228.00 L 234.20 225.00 L 233.40 222.50 L 233.00 219.70 L 233.40 213.90 L 234.30 208.40 L 236.00 206.50 L 238.20 205.00 L 248.00 200.80 L 248.50 192.50 L 249.20 190.00 L 250.00 188.50 L 251.20 187.10 L 252.80 186.00 L 256.80 184.40 L 268.90 180.10 L 272.70 178.20 L 278.20 174.30 L 280.20 173.40 L 285.50 172.40 L 295.70 172.60 L 295.30 165.60 L 292.50 137.50 L 292.40 125.80 L 293.40 116.40 L 294.20 114.00 L 296.40 110.40 L 298.80 108.40 L 300.20 107.90 L 301.80 107.90 L 303.70 108.40 L 306.40 110.10 L 308.60 112.10 L 310.60 114.40 L 313.00 118.20 L 315.00 122.40 L 316.50 126.90 L 319.60 140.40 L 320.90 154.50 L 322.60 168.40 L 324.90 182.40 L 327.70 196.20 L 331.00 209.90 L 334.90 223.50 L 355.20 234.00 L 360.10 237.00 L 364.70 240.40 L 366.30 234.50 L 370.40 223.10 L 372.90 217.70 L 376.80 210.60 L 381.10 203.90 L 385.80 197.40 L 391.00 191.10 L 396.40 185.20 L 408.20 174.10 L 420.80 164.10 L 431.00 156.80 L 441.60 149.90 L 465.00 136.50 L 467.10 134.20 L 468.20 132.00 L 470.70 125.00 L 475.50 130.50 L 491.30 123.90 L 499.00 120.30 L 506.60 116.30 Z M 513.40 120.10 L 536.90 115.10 L 544.80 113.90 L 555.40 113.20 L 567.00 113.40 L 573.20 113.10 L 579.30 112.20 L 585.30 110.80 L 591.20 108.90 L 596.90 106.60 L 602.40 103.80 L 607.70 100.60 L 606.90 98.40 L 604.80 97.10 L 599.90 96.40 L 592.30 96.00 L 576.80 96.10 L 569.10 96.80 L 561.50 97.90 L 553.90 99.40 L 546.50 101.40 L 539.30 104.00 L 532.40 107.10 L 527.30 109.80 L 522.50 112.80 L 517.80 116.30 L 513.40 120.10 Z M 295.30 114.90 L 294.70 123.00 L 294.50 131.10 L 294.80 139.10 L 295.80 151.20 L 297.30 163.20 L 301.20 187.20 L 294.50 177.40 L 291.80 174.50 L 289.20 173.80 L 286.80 173.50 L 284.40 173.70 L 279.90 175.10 L 274.70 178.50 L 272.00 181.00 L 280.20 188.60 L 284.00 192.80 L 287.20 197.30 L 290.60 204.00 L 291.70 207.60 L 291.40 210.50 L 290.70 213.40 L 286.40 224.50 L 284.70 223.50 L 282.70 226.10 L 271.00 220.20 L 266.90 219.40 L 264.80 219.60 L 256.90 211.00 L 254.10 208.20 L 249.90 205.50 L 247.70 204.60 L 245.40 204.20 L 242.90 204.40 L 240.10 205.30 L 238.30 206.10 L 236.90 207.20 L 235.90 208.40 L 235.00 210.70 L 234.50 213.40 L 234.00 224.20 L 237.00 224.40 L 238.70 227.10 L 240.70 229.40 L 242.90 231.30 L 245.30 232.80 L 248.80 234.50 L 252.50 235.60 L 256.50 236.40 L 260.60 236.70 L 268.60 236.50 L 267.60 230.10 L 279.00 231.00 L 276.90 233.20 L 275.20 235.70 L 273.90 238.30 L 272.90 241.10 L 272.20 247.00 L 272.40 249.90 L 272.90 252.80 L 273.90 255.50 L 275.30 258.10 L 277.10 260.50 L 279.40 262.70 L 283.90 258.80 L 298.90 242.80 L 305.10 237.80 L 308.90 235.30 L 313.00 233.10 L 330.10 225.80 L 332.70 216.20 L 329.00 216.70 L 321.80 180.70 L 320.50 171.70 L 319.80 162.50 L 317.60 143.00 L 316.60 136.50 L 314.60 128.10 L 313.20 124.10 L 311.40 120.20 L 309.20 116.50 L 305.20 111.70 L 302.40 110.30 L 299.40 110.30 L 296.90 111.90 L 295.90 113.20 L 295.30 114.90 Z M 250.60 190.40 L 249.90 193.20 L 249.80 195.90 L 250.20 198.40 L 251.00 200.80 L 253.60 205.50 L 258.70 211.80 L 266.70 216.00 L 274.90 219.80 L 283.30 223.20 L 286.50 216.50 L 289.20 209.70 L 285.10 196.90 L 277.90 188.40 L 275.20 186.00 L 270.90 183.80 L 268.50 183.10 L 265.10 183.00 L 261.80 183.50 L 258.60 184.50 L 255.60 186.00 L 252.90 188.00 L 250.60 190.40 Z M 711.30 240.40 L 711.20 250.70 L 717.90 249.00 L 724.60 247.80 L 731.30 247.10 L 738.00 247.00 L 744.80 247.30 L 751.50 248.10 L 758.20 249.30 L 764.90 251.00 L 761.30 247.50 L 757.50 244.50 L 753.40 241.90 L 749.00 239.70 L 744.50 238.00 L 739.80 236.80 L 735.00 236.00 L 730.20 235.80 L 725.40 236.10 L 720.60 237.00 L 715.90 238.40 L 711.30 240.40 Z M 300.70 250.00 L 294.50 256.60 L 291.90 260.30 L 287.40 268.40 L 284.30 277.00 L 283.30 281.50 L 282.30 290.60 L 282.90 299.60 L 283.80 304.10 L 285.10 308.40 L 286.90 312.50 L 294.90 327.50 L 298.20 332.70 L 302.00 337.50 L 307.90 343.10 L 311.30 345.50 L 314.10 346.50 L 317.00 347.10 L 319.80 347.20 L 324.20 347.00 L 337.30 344.60 L 355.00 338.10 L 370.50 334.50 L 364.60 317.70 L 361.30 309.50 L 357.60 301.40 L 359.70 299.30 L 361.30 297.10 L 362.50 294.80 L 364.00 289.60 L 364.30 286.90 L 364.40 282.70 L 362.80 265.50 L 362.50 256.10 L 362.20 254.40 L 361.00 252.50 L 355.60 249.10 L 350.90 246.80 L 345.90 244.80 L 340.80 243.20 L 335.60 242.10 L 330.30 241.40 L 325.00 241.30 L 319.80 241.80 L 314.70 242.80 L 311.10 244.00 L 307.50 245.60 L 304.10 247.60 L 300.70 250.00 Z M 712.20 258.90 L 713.20 289.40 L 722.70 281.90 L 728.50 278.50 L 733.70 277.20 L 739.80 277.10 L 745.30 278.70 L 748.80 280.40 L 751.90 282.70 L 754.80 285.40 L 757.30 288.60 L 759.40 291.90 L 761.00 295.60 L 762.20 299.40 L 762.80 303.30 L 762.90 310.60 L 762.50 314.00 L 760.30 322.10 L 754.70 336.40 L 751.60 337.30 L 748.70 338.70 L 738.40 346.20 L 743.60 351.30 L 749.10 356.10 L 755.00 360.50 L 764.10 352.10 L 768.40 347.60 L 774.90 339.70 L 779.00 332.50 L 782.10 325.80 L 784.80 318.80 L 786.20 314.00 L 787.20 309.20 L 787.80 304.30 L 787.80 300.70 L 786.70 293.40 L 784.40 285.20 L 782.80 280.90 L 780.70 276.80 L 778.20 272.90 L 775.20 269.30 L 771.90 266.00 L 768.30 263.10 L 764.50 260.50 L 760.40 258.20 L 756.10 256.30 L 751.70 254.90 L 743.20 253.20 L 735.30 253.10 L 729.40 253.90 L 723.60 255.20 L 712.20 258.90 Z M 728.20 280.10 L 728.20 282.90 L 722.10 286.70 L 720.40 288.30 L 719.20 290.20 L 715.30 305.60 L 710.20 332.00 L 714.80 335.20 L 721.30 337.80 L 735.90 341.80 L 738.00 341.90 L 742.30 341.00 L 746.30 338.90 L 749.00 336.70 L 751.10 334.20 L 752.30 332.30 L 753.60 328.50 L 752.40 327.10 L 754.40 326.20 L 756.60 322.90 L 758.20 319.40 L 759.40 315.70 L 759.90 311.80 L 760.00 307.90 L 759.60 303.90 L 758.70 300.00 L 757.40 296.30 L 755.60 292.70 L 753.40 289.40 L 750.80 286.50 L 747.80 284.00 L 745.80 282.70 L 741.70 281.20 L 738.40 280.70 L 728.20 280.10 Z M 324.30 353.40 L 333.60 361.20 L 338.80 364.00 L 343.00 362.80 L 354.90 357.90 L 359.00 356.60 L 363.30 355.90 L 365.80 356.30 L 370.40 358.10 L 373.60 360.20 L 382.50 367.40 L 385.20 362.70 L 373.50 340.60 L 365.20 342.10 L 356.90 344.00 L 324.30 353.40 Z" fill="#5b3524" fill-rule="nonzero" node-id="95" stroke="none" target-height="417.9" target-width="557.6" target-x="233" target-y="80.6"></path><path d="M 513.40 120.10 L 517.80 116.30 L 522.50 112.80 L 527.30 109.80 L 532.40 107.10 L 539.30 104.00 L 546.50 101.40 L 553.90 99.40 L 561.50 97.90 L 569.10 96.80 L 576.80 96.10 L 584.60 95.90 L 599.90 96.40 L 604.80 97.10 L 606.20 97.70 L 607.40 99.30 L 607.70 100.60 L 602.40 103.80 L 596.90 106.60 L 591.20 108.90 L 585.30 110.80 L 579.30 112.20 L 573.20 113.10 L 567.00 113.40 L 555.40 113.20 L 544.80 113.90 L 536.90 115.10 L 513.40 120.10 Z" fill="#8b5533" fill-rule="nonzero" node-id="97" stroke="none" target-height="24.199997" target-width="94.29999" target-x="513.4" target-y="95.9"></path><path d="M 295.30 114.90 L 295.90 113.20 L 296.90 111.90 L 299.40 110.30 L 302.40 110.30 L 305.20 111.70 L 309.20 116.50 L 311.40 120.20 L 313.20 124.10 L 314.60 128.10 L 316.60 136.50 L 317.60 143.00 L 319.80 162.50 L 320.50 171.70 L 321.80 180.70 L 329.00 216.70 L 322.40 217.60 L 316.00 219.00 L 309.70 220.70 L 300.40 223.90 L 291.30 227.70 L 286.40 224.50 L 290.70 213.40 L 291.40 210.50 L 291.70 207.60 L 290.60 204.00 L 287.20 197.30 L 284.00 192.80 L 280.20 188.60 L 272.00 181.00 L 274.70 178.50 L 279.90 175.10 L 284.40 173.70 L 286.80 173.50 L 289.20 173.80 L 291.80 174.50 L 294.50 177.40 L 301.20 187.20 L 297.30 163.20 L 295.80 151.20 L 294.80 139.10 L 294.50 131.10 L 294.70 123.00 L 295.30 114.90 Z" fill="#f0dabf" fill-rule="nonzero" node-id="99" stroke="none" target-height="117.399994" target-width="57" target-x="272" target-y="110.3"></path><path d="M 459.60 144.50 L 468.30 139.80 L 477.30 135.60 L 486.60 131.90 L 496.10 128.60 L 505.70 125.80 L 515.40 123.70 L 525.20 122.10 L 535.20 121.00 L 543.10 120.60 L 551.10 120.60 L 559.00 121.10 L 566.90 122.00 L 574.90 123.30 L 581.90 124.90 L 588.80 127.10 L 615.60 137.70 L 624.80 140.40 L 629.60 141.30 L 640.20 147.20 L 645.30 150.70 L 652.50 156.40 L 659.40 162.60 L 666.00 169.10 L 672.10 175.90 L 667.00 175.20 L 678.90 191.40 L 684.50 199.70 L 689.70 208.30 L 692.90 214.20 L 695.70 220.30 L 698.10 226.60 L 690.90 222.80 L 685.60 226.40 L 679.00 217.00 L 671.30 208.20 L 667.00 204.30 L 662.50 200.60 L 657.70 197.30 L 652.70 194.60 L 647.50 192.30 L 639.30 189.90 L 630.50 189.10 L 624.90 189.10 L 619.50 189.70 L 614.30 190.90 L 609.20 192.50 L 604.20 194.50 L 599.40 197.00 L 590.20 202.80 L 579.60 211.50 L 573.80 217.10 L 567.70 223.90 L 562.00 231.10 L 545.70 253.20 L 539.70 260.20 L 523.30 234.40 L 517.30 226.20 L 513.00 221.00 L 508.30 216.00 L 503.30 211.40 L 498.00 206.90 L 492.30 202.80 L 486.20 199.30 L 476.60 195.10 L 466.50 192.30 L 461.30 191.50 L 456.10 191.20 L 450.90 191.30 L 445.60 191.80 L 441.20 192.70 L 432.90 195.70 L 429.00 197.80 L 424.00 200.90 L 419.40 204.50 L 415.00 208.50 L 410.90 212.90 L 403.60 222.20 L 399.00 229.60 L 394.90 237.30 L 391.40 245.20 L 388.30 253.40 L 385.90 261.80 L 384.00 270.30 L 382.60 278.90 L 381.80 287.60 L 381.50 296.30 L 381.80 305.00 L 382.60 313.70 L 384.00 322.30 L 385.50 328.80 L 387.40 335.20 L 395.90 360.50 L 390.10 352.70 L 384.90 344.50 L 378.90 333.00 L 374.10 321.00 L 372.20 314.90 L 370.80 308.60 L 369.90 300.40 L 369.40 292.30 L 369.30 276.00 L 369.70 259.70 L 370.20 251.80 L 371.30 244.00 L 372.90 236.20 L 374.60 230.60 L 376.70 225.00 L 379.10 219.70 L 382.00 214.40 L 386.60 206.90 L 391.70 199.70 L 397.20 192.80 L 403.10 186.30 L 415.90 174.20 L 429.70 163.30 L 439.50 156.60 L 449.40 150.30 L 459.60 144.50 Z" fill="#825234" fill-rule="nonzero" node-id="101" stroke="none" target-height="239.9" target-width="328.8" target-x="369.3" target-y="120.6"></path><path d="M 250.60 190.40 L 252.90 188.00 L 255.60 186.00 L 258.60 184.50 L 261.80 183.50 L 265.10 183.00 L 268.50 183.10 L 270.90 183.80 L 275.20 186.00 L 277.90 188.40 L 280.50 191.10 L 285.10 196.90 L 258.70 211.80 L 253.60 205.50 L 251.00 200.80 L 250.20 198.40 L 249.80 195.90 L 249.90 193.20 L 250.60 190.40 Z" fill="#e5c8ad" fill-rule="nonzero" node-id="103" stroke="none" target-height="28.800003" target-width="35.300003" target-x="249.8" target-y="183"></path><path d="M 430.10 203.90 L 433.60 201.70 L 437.30 199.90 L 441.10 198.40 L 445.10 197.40 L 450.60 196.50 L 456.10 196.30 L 461.60 196.60 L 467.10 197.60 L 472.40 199.10 L 477.50 201.10 L 483.50 204.20 L 489.10 207.60 L 494.50 211.60 L 499.60 215.80 L 504.40 220.40 L 508.90 225.40 L 513.10 230.60 L 517.00 236.00 L 528.20 254.80 L 533.80 263.20 L 537.30 266.90 L 540.40 268.00 L 541.80 267.90 L 543.70 267.10 L 545.50 265.80 L 547.10 264.10 L 551.10 258.40 L 561.00 242.60 L 566.20 234.90 L 571.80 227.40 L 575.80 222.70 L 580.00 218.10 L 589.30 209.70 L 594.30 205.90 L 599.70 202.50 L 605.30 199.60 L 611.20 197.30 L 617.20 195.60 L 621.80 194.80 L 626.50 194.40 L 631.20 194.50 L 636.00 195.10 L 641.00 196.40 L 645.80 198.10 L 650.40 200.30 L 654.90 202.90 L 659.00 205.90 L 666.70 212.70 L 670.20 216.60 L 674.50 222.00 L 678.20 227.70 L 681.50 233.70 L 684.90 241.10 L 687.80 248.50 L 690.10 256.20 L 692.00 264.00 L 693.40 271.90 L 694.30 279.80 L 694.90 287.80 L 695.00 295.90 L 694.60 306.70 L 693.60 317.30 L 692.10 327.90 L 692.40 324.30 L 687.70 332.80 L 685.00 336.90 L 682.10 340.80 L 678.80 344.30 L 675.10 347.50 L 672.90 340.40 L 671.10 333.10 L 666.20 311.30 L 664.00 304.20 L 662.10 300.00 L 659.70 296.20 L 656.90 292.70 L 653.70 289.50 L 650.10 286.80 L 646.30 284.40 L 642.20 282.40 L 638.00 280.90 L 633.60 279.90 L 629.10 279.40 L 624.60 279.40 L 620.10 280.00 L 615.00 281.30 L 610.10 283.20 L 605.50 285.60 L 601.20 288.50 L 597.10 291.80 L 593.40 295.50 L 589.90 299.50 L 586.80 303.60 L 580.70 314.30 L 577.80 320.70 L 570.10 340.50 L 567.10 346.90 L 565.80 349.20 L 562.50 353.00 L 556.30 357.50 L 549.50 361.20 L 539.60 362.10 L 529.90 363.60 L 522.60 365.70 L 515.70 368.70 L 511.10 376.50 L 506.80 384.50 L 479.50 382.10 L 488.60 378.10 L 497.50 373.60 L 506.30 368.80 L 508.20 364.50 L 509.70 360.20 L 510.70 355.80 L 511.60 346.80 L 511.40 342.30 L 510.70 335.40 L 509.40 328.60 L 507.60 321.90 L 503.30 309.50 L 500.50 303.80 L 497.10 298.20 L 494.30 294.30 L 487.80 287.20 L 480.30 281.20 L 476.20 278.80 L 471.90 276.70 L 467.40 274.90 L 464.10 274.10 L 460.80 273.60 L 454.40 273.90 L 450.10 274.80 L 446.00 276.30 L 442.00 278.30 L 438.30 280.70 L 435.00 283.50 L 429.40 289.80 L 425.50 296.60 L 423.20 302.10 L 417.50 319.20 L 414.20 326.40 L 412.20 329.70 L 409.90 332.80 L 407.10 335.60 L 403.80 338.20 L 392.30 321.10 L 391.00 314.20 L 389.70 300.40 L 389.80 286.50 L 391.50 272.70 L 392.80 265.80 L 395.20 256.80 L 398.10 248.10 L 401.60 239.50 L 405.10 232.60 L 409.00 226.00 L 415.10 217.70 L 422.10 210.30 L 430.10 203.90 Z M 427.00 251.90 L 439.30 244.80 L 445.60 241.60 L 449.70 240.80 L 453.90 240.70 L 470.60 242.40 L 466.30 237.40 L 463.90 235.20 L 461.30 233.50 L 459.30 232.70 L 457.20 232.30 L 451.60 232.10 L 448.60 232.30 L 445.60 232.90 L 442.70 233.90 L 439.10 235.80 L 435.90 238.20 L 433.00 241.10 L 430.50 244.40 L 428.50 248.00 L 427.00 251.90 Z M 612.90 249.40 L 625.90 246.60 L 633.20 246.30 L 635.70 246.70 L 638.10 247.40 L 641.50 249.00 L 644.80 251.10 L 654.30 258.20 L 657.60 260.20 L 656.40 254.20 L 655.20 251.40 L 652.00 246.20 L 647.70 242.10 L 645.20 240.50 L 642.40 239.30 L 639.60 238.50 L 636.60 238.20 L 630.50 238.30 L 627.90 238.70 L 625.50 239.50 L 622.00 241.40 L 618.80 243.90 L 612.90 249.40 Z" fill="#f2dfc1" fill-rule="nonzero" node-id="105" stroke="none" target-height="190.1" target-width="305.3" target-x="389.7" target-y="194.4"></path><path d="M 464.10 592.70 L 465.60 584.50 L 467.60 576.40 L 470.10 568.50 L 473.10 560.70 L 480.20 545.60 L 486.30 534.60 L 492.90 524.00 L 498.30 525.50 L 509.10 527.30 L 542.10 529.20 L 544.30 532.40 L 546.10 535.90 L 547.50 539.50 L 549.20 545.20 L 554.70 571.90 L 557.20 581.10 L 560.30 590.10 L 563.80 599.00 L 571.70 616.40 L 562.30 617.60 L 553.20 620.20 L 548.70 622.00 L 540.50 626.60 L 536.60 629.50 L 533.10 632.60 L 529.80 636.00 L 526.90 639.70 L 524.40 643.80 L 523.10 646.60 L 523.20 650.00 L 523.80 652.10 L 527.60 660.10 L 529.60 665.70 L 530.20 668.60 L 531.60 682.00 L 532.50 686.30 L 537.80 692.90 L 540.80 695.80 L 545.80 699.80 L 551.10 703.30 L 562.40 709.30 L 562.90 717.50 L 562.70 720.30 L 562.20 723.00 L 561.20 725.30 L 558.90 727.90 L 557.20 728.90 L 553.20 730.00 L 549.30 730.70 L 545.30 730.90 L 537.30 730.10 L 533.40 729.20 L 525.80 726.20 L 522.20 724.40 L 517.00 721.10 L 512.30 717.40 L 502.60 708.20 L 493.70 698.10 L 486.00 687.20 L 482.70 681.40 L 479.80 675.40 L 477.30 669.20 L 474.80 660.90 L 470.90 644.10 L 468.70 631.30 L 467.00 618.50 L 464.10 592.70 Z" fill="#f2dfc1" fill-rule="nonzero" node-id="107" stroke="none" target-height="206.90002" target-width="107.600006" target-x="464.1" target-y="524"></path><path d="M 258.70 211.80 L 285.10 196.90 L 289.20 209.70 L 286.50 216.50 L 283.30 223.20 L 274.90 219.80 L 266.70 216.00 L 258.70 211.80 Z" fill="#d5a98c" fill-rule="nonzero" node-id="109" stroke="none" target-height="26.300003" target-width="30.5" target-x="258.7" target-y="196.9"></path><path d="M 240.10 205.30 L 242.90 204.40 L 245.40 204.20 L 247.70 204.60 L 252.00 206.70 L 256.90 211.00 L 264.80 219.60 L 260.40 221.50 L 255.90 223.00 L 251.20 224.00 L 246.50 224.60 L 241.80 224.70 L 234.00 224.20 L 234.50 213.40 L 235.00 210.70 L 235.90 208.40 L 236.90 207.20 L 238.30 206.10 L 240.10 205.30 Z" fill="#ebcfb7" fill-rule="nonzero" node-id="111" stroke="none" target-height="20.5" target-width="30.799988" target-x="234" target-y="204.2"></path><path d="M 264.80 219.60 L 266.90 219.40 L 271.00 220.10 L 282.70 226.10 L 279.00 231.00 L 267.60 230.10 L 268.60 236.50 L 260.60 236.70 L 256.50 236.40 L 252.50 235.60 L 248.80 234.50 L 245.30 232.80 L 242.90 231.30 L 240.70 229.40 L 238.70 227.10 L 237.00 224.40 L 241.80 224.70 L 246.50 224.60 L 251.20 224.00 L 255.90 223.00 L 260.40 221.50 L 264.80 219.60 Z" fill="#d4a388" fill-rule="nonzero" node-id="113" stroke="none" target-height="17.300003" target-width="45.700012" target-x="237" target-y="219.4"></path><path d="M 291.30 227.70 L 300.40 223.90 L 309.70 220.70 L 316.00 219.00 L 322.40 217.60 L 332.70 216.20 L 330.10 225.80 L 313.00 233.10 L 305.10 237.80 L 298.90 242.80 L 283.90 258.80 L 279.40 262.70 L 277.10 260.50 L 275.30 258.10 L 273.90 255.50 L 272.90 252.80 L 272.40 249.90 L 272.20 247.00 L 272.90 241.10 L 273.90 238.30 L 275.20 235.70 L 284.70 223.50 L 291.30 227.70 Z" fill="#e0bea0" fill-rule="nonzero" node-id="115" stroke="none" target-height="46.500015" target-width="60.5" target-x="272.2" target-y="216.2"></path><path d="M 685.60 226.40 L 690.90 222.80 L 698.10 226.60 L 700.00 231.90 L 702.80 242.70 L 704.20 250.90 L 705.30 259.30 L 707.60 284.40 L 709.20 298.20 L 708.90 309.10 L 707.00 325.40 L 706.30 336.30 L 711.30 338.70 L 726.90 344.80 L 730.50 346.60 L 736.70 351.50 L 745.20 360.00 L 741.30 363.90 L 709.70 356.60 L 710.80 343.70 L 707.80 347.30 L 701.20 353.90 L 693.90 359.50 L 689.90 362.00 L 696.50 334.80 L 699.50 319.60 L 700.70 307.20 L 701.20 297.90 L 701.10 288.70 L 700.40 279.50 L 699.10 270.40 L 697.40 261.30 L 695.10 252.40 L 692.40 243.50 L 689.20 234.90 L 685.60 226.40 Z" fill="#77462c" fill-rule="nonzero" node-id="117" stroke="none" target-height="141.09999" target-width="59.600037" target-x="685.6" target-y="222.8"></path><path d="M 427.00 251.90 L 428.50 248.00 L 430.50 244.40 L 433.00 241.10 L 435.90 238.20 L 439.10 235.80 L 442.70 233.90 L 445.60 232.90 L 448.60 232.30 L 451.60 232.10 L 457.20 232.30 L 459.30 232.70 L 461.30 233.50 L 463.90 235.20 L 466.30 237.40 L 470.60 242.40 L 453.90 240.70 L 449.70 240.80 L 445.60 241.60 L 439.30 244.80 L 427.00 251.90 Z" fill="#1c110f" fill-rule="nonzero" node-id="119" stroke="none" target-height="19.799988" target-width="43.600006" target-x="427" target-y="232.1"></path><path d="M 711.30 240.40 L 715.90 238.40 L 720.60 237.00 L 725.40 236.10 L 730.20 235.80 L 735.00 236.00 L 739.80 236.80 L 744.50 238.00 L 749.00 239.70 L 753.40 241.90 L 757.50 244.50 L 761.30 247.50 L 764.90 251.00 L 758.20 249.30 L 751.50 248.10 L 744.80 247.30 L 738.00 247.00 L 731.30 247.10 L 724.60 247.80 L 717.90 249.00 L 711.20 250.70 L 711.30 240.40 Z" fill="#855534" fill-rule="nonzero" node-id="121" stroke="none" target-height="15.199997" target-width="53.700012" target-x="711.2" target-y="235.8"></path><path d="M 612.90 249.40 L 618.80 243.90 L 622.00 241.40 L 625.50 239.50 L 627.90 238.70 L 630.50 238.30 L 636.60 238.20 L 639.60 238.50 L 642.40 239.30 L 645.20 240.50 L 647.70 242.10 L 652.00 246.20 L 655.20 251.40 L 656.40 254.20 L 657.60 260.20 L 654.30 258.20 L 644.80 251.10 L 641.50 249.00 L 638.10 247.40 L 635.70 246.70 L 633.20 246.30 L 625.90 246.60 L 612.90 249.40 Z" fill="#201b19" fill-rule="nonzero" node-id="123" stroke="none" target-height="22.000015" target-width="44.69995" target-x="612.9" target-y="238.2"></path><path d="M 604.30 328.40 L 607.70 327.60 L 611.10 327.40 L 614.60 327.70 L 618.00 328.50 L 621.10 329.80 L 624.20 331.50 L 627.00 333.60 L 629.40 336.10 L 631.40 338.80 L 633.00 341.90 L 634.10 345.10 L 634.80 352.50 L 634.40 356.30 L 633.40 360.00 L 632.10 363.60 L 628.60 370.50 L 625.00 376.60 L 633.20 378.50 L 614.80 378.30 L 610.20 377.90 L 602.80 376.30 L 597.30 373.60 L 595.20 369.90 L 593.70 366.10 L 592.70 362.10 L 589.40 341.40 L 598.80 332.00 L 601.40 330.00 L 604.30 328.40 Z M 603.80 335.40 L 603.80 344.80 L 616.10 344.90 L 614.60 336.40 L 603.80 335.40 Z" fill="#201b19" fill-rule="nonzero" node-id="125" stroke="none" target-height="51.100006" target-width="45.399963" target-x="589.4" target-y="327.4"></path><path d="M 300.70 250.00 L 304.10 247.60 L 307.50 245.60 L 311.10 244.00 L 314.70 242.80 L 319.80 241.80 L 325.00 241.30 L 330.30 241.40 L 335.60 242.10 L 340.80 243.20 L 345.90 244.80 L 350.90 246.80 L 355.60 249.10 L 360.10 251.80 L 361.00 252.50 L 362.20 254.40 L 362.60 261.50 L 360.80 292.40 L 345.80 272.60 L 339.90 267.10 L 334.20 263.80 L 331.30 263.10 L 325.80 262.80 L 323.20 263.20 L 319.70 264.20 L 316.50 265.80 L 313.40 267.90 L 310.50 270.30 L 308.00 273.00 L 303.70 279.30 L 301.00 286.10 L 300.00 293.30 L 300.50 302.40 L 301.50 307.80 L 305.50 322.70 L 289.10 316.60 L 286.90 312.50 L 285.10 308.40 L 283.80 304.10 L 282.90 299.60 L 282.30 290.60 L 283.30 281.50 L 285.70 272.60 L 289.50 264.30 L 294.50 256.60 L 300.70 250.00 Z" fill="#efd8c2" fill-rule="nonzero" node-id="127" stroke="none" target-height="81.40001" target-width="80.30002" target-x="282.3" target-y="241.3"></path><path d="M 712.20 258.90 L 723.60 255.20 L 729.40 253.90 L 735.30 253.10 L 743.20 253.20 L 751.70 254.90 L 756.10 256.30 L 760.40 258.20 L 764.50 260.50 L 768.30 263.10 L 771.90 266.00 L 775.20 269.30 L 778.20 272.90 L 780.70 276.80 L 782.80 280.90 L 784.40 285.20 L 785.60 289.70 L 781.60 303.60 L 776.70 317.10 L 772.40 325.70 L 769.80 329.70 L 768.60 331.30 L 765.60 333.40 L 763.00 334.40 L 754.70 336.40 L 760.30 322.10 L 761.80 317.30 L 762.90 310.60 L 762.80 303.30 L 762.20 299.40 L 761.00 295.60 L 759.40 291.90 L 757.30 288.60 L 754.80 285.40 L 751.90 282.70 L 748.80 280.40 L 745.30 278.70 L 742.60 277.70 L 739.80 277.10 L 736.80 277.00 L 731.00 277.70 L 726.10 279.70 L 722.70 281.90 L 713.20 289.40 L 712.20 258.90 Z" fill="#ebd7bd" fill-rule="nonzero" node-id="129" stroke="none" target-height="83.29999" target-width="73.39996" target-x="712.2" target-y="253.1"></path><path d="M 305.50 308.40 L 304.20 305.00 L 303.40 301.30 L 303.10 297.50 L 303.20 293.70 L 303.80 290.00 L 304.80 286.30 L 306.30 282.70 L 308.00 279.40 L 310.20 276.30 L 312.70 273.50 L 315.50 271.20 L 318.70 269.30 L 321.20 268.30 L 326.60 267.10 L 329.70 267.10 L 333.40 268.40 L 336.70 270.20 L 339.60 272.50 L 342.10 275.10 L 346.60 281.20 L 357.60 301.40 L 361.30 309.50 L 364.60 317.70 L 370.50 334.50 L 355.00 338.10 L 347.20 338.60 L 339.70 337.60 L 334.80 336.10 L 330.10 334.10 L 325.50 331.60 L 321.30 328.50 L 317.40 325.20 L 313.80 321.40 L 310.60 317.30 L 307.80 313.00 L 305.50 308.40 Z" fill="#e9cbb5" fill-rule="nonzero" node-id="131" stroke="none" target-height="71.5" target-width="67.399994" target-x="303.1" target-y="267.1"></path><path d="M 431.90 286.70 L 435.00 283.50 L 438.30 280.70 L 442.00 278.30 L 446.00 276.30 L 450.10 274.80 L 454.40 273.90 L 460.80 273.60 L 467.40 274.90 L 471.90 276.70 L 476.20 278.80 L 480.30 281.20 L 484.20 284.10 L 491.20 290.60 L 497.10 298.20 L 500.50 303.80 L 503.30 309.50 L 507.60 321.90 L 509.40 328.60 L 510.70 335.40 L 511.40 342.30 L 511.60 346.80 L 510.70 355.80 L 509.70 360.20 L 508.20 364.50 L 506.30 368.80 L 496.90 364.10 L 497.60 351.60 L 497.60 346.40 L 496.70 335.70 L 495.60 330.50 L 494.20 325.30 L 492.30 320.40 L 490.00 315.80 L 487.20 311.50 L 484.70 308.50 L 481.90 305.80 L 478.80 303.30 L 472.40 299.50 L 469.40 298.30 L 463.30 297.00 L 459.00 297.00 L 454.90 297.60 L 450.80 298.70 L 447.00 300.50 L 443.40 302.80 L 437.00 308.30 L 434.40 311.20 L 432.20 314.30 L 430.50 317.60 L 428.10 324.70 L 427.40 328.40 L 427.10 332.30 L 427.20 337.50 L 427.70 342.60 L 428.80 347.80 L 430.20 352.90 L 432.00 357.70 L 434.10 362.20 L 419.40 359.40 L 404.60 357.10 L 401.50 351.50 L 399.00 345.60 L 396.80 339.70 L 395.00 333.50 L 392.30 321.10 L 403.80 338.20 L 407.10 335.60 L 409.90 332.80 L 412.20 329.70 L 414.20 326.40 L 417.50 319.20 L 423.20 302.10 L 425.50 296.60 L 429.40 289.80 L 431.90 286.70 Z" fill="#e5c6ab" fill-rule="nonzero" node-id="133" stroke="none" target-height="95.19998" target-width="119.30002" target-x="392.3" target-y="273.6"></path><path d="M 584.10 308.10 L 586.80 303.60 L 589.90 299.50 L 593.40 295.50 L 597.10 291.80 L 601.20 288.50 L 605.50 285.60 L 610.10 283.20 L 615.00 281.30 L 620.10 280.00 L 624.60 279.40 L 629.10 279.40 L 633.60 279.90 L 638.00 280.90 L 642.20 282.40 L 646.30 284.40 L 650.10 286.80 L 653.70 289.50 L 656.90 292.70 L 659.70 296.20 L 662.10 300.00 L 664.00 304.20 L 666.20 311.30 L 672.90 340.40 L 675.10 347.50 L 678.80 344.30 L 682.10 340.80 L 685.00 336.90 L 687.70 332.80 L 692.40 324.30 L 691.40 333.10 L 690.20 338.10 L 686.10 350.50 L 683.20 357.80 L 669.40 358.90 L 655.80 360.60 L 657.40 348.40 L 657.70 342.20 L 657.60 336.00 L 657.20 331.90 L 655.20 324.10 L 653.60 320.50 L 651.50 317.00 L 646.40 310.80 L 643.80 308.30 L 640.90 306.20 L 637.80 304.40 L 634.50 303.00 L 627.70 301.20 L 624.10 300.80 L 619.30 300.80 L 614.60 301.50 L 610.00 302.80 L 606.70 304.20 L 603.60 306.00 L 600.60 308.10 L 594.20 314.40 L 591.20 318.40 L 588.70 322.70 L 586.60 327.30 L 585.00 332.00 L 583.80 337.00 L 582.60 344.60 L 582.00 352.30 L 582.10 367.60 L 566.00 363.40 L 555.10 361.60 L 549.50 361.20 L 556.30 357.50 L 559.50 355.40 L 562.50 353.00 L 565.80 349.20 L 570.10 340.50 L 577.80 320.70 L 580.70 314.30 L 584.10 308.10 Z" fill="#e6c8ab" fill-rule="nonzero" node-id="135" stroke="none" target-height="88.20001" target-width="142.90002" target-x="549.5" target-y="279.4"></path><path d="M 728.20 280.10 L 738.40 280.70 L 743.80 281.80 L 747.80 284.00 L 750.80 286.50 L 753.40 289.40 L 755.60 292.70 L 757.40 296.30 L 758.70 300.00 L 759.60 303.90 L 760.00 307.90 L 759.90 311.80 L 759.40 315.70 L 758.20 319.40 L 756.60 322.90 L 754.40 326.20 L 752.40 327.10 L 726.20 322.40 L 728.00 302.70 L 728.30 292.90 L 728.20 280.10 Z" fill="#e2c6ac" fill-rule="nonzero" node-id="137" stroke="none" target-height="47" target-width="33.799988" target-x="726.2" target-y="280.1"></path><path d="M 718.40 292.60 L 719.20 290.20 L 720.40 288.30 L 722.10 286.70 L 728.20 282.90 L 728.00 302.70 L 726.20 322.40 L 752.50 327.10 L 753.60 328.50 L 752.30 332.30 L 751.10 334.20 L 749.00 336.70 L 746.30 338.90 L 744.40 340.10 L 740.20 341.60 L 738.00 341.90 L 735.90 341.80 L 721.30 337.80 L 714.80 335.20 L 710.20 332.00 L 712.50 318.80 L 718.40 292.60 Z" fill="#d7b094" fill-rule="nonzero" node-id="139" stroke="none" target-height="59" target-width="43.399963" target-x="710.2" target-y="282.9"></path><path d="M 785.60 289.70 L 786.70 293.40 L 787.80 300.70 L 787.80 304.30 L 787.20 309.20 L 786.20 314.00 L 784.80 318.80 L 782.10 325.80 L 779.00 332.50 L 777.10 336.20 L 772.40 343.00 L 768.40 347.70 L 764.10 352.10 L 755.00 360.50 L 749.10 356.10 L 743.60 351.30 L 738.40 346.20 L 748.70 338.70 L 751.60 337.30 L 763.00 334.40 L 765.60 333.40 L 768.60 331.30 L 772.40 325.70 L 776.70 317.10 L 781.60 303.60 L 785.60 289.70 Z" fill="#d9b395" fill-rule="nonzero" node-id="141" stroke="none" target-height="70.79999" target-width="49.399963" target-x="738.4" target-y="289.7"></path><path d="M 440.10 305.60 L 443.40 302.80 L 447.00 300.50 L 450.80 298.70 L 454.90 297.60 L 459.00 297.00 L 463.30 297.00 L 466.40 297.50 L 472.40 299.50 L 478.80 303.30 L 481.90 305.80 L 484.70 308.50 L 487.20 311.50 L 490.00 315.80 L 492.30 320.40 L 494.20 325.30 L 495.60 330.50 L 496.70 335.70 L 497.60 346.40 L 497.30 356.70 L 493.60 364.30 L 491.30 367.90 L 488.60 371.00 L 486.50 372.70 L 484.10 374.10 L 478.90 376.20 L 476.40 376.80 L 473.90 377.00 L 470.20 376.90 L 466.40 376.20 L 459.10 373.70 L 452.20 370.60 L 449.90 364.20 L 448.20 357.40 L 447.50 352.90 L 447.20 343.70 L 447.70 339.20 L 448.80 334.90 L 450.50 330.60 L 452.50 327.90 L 454.70 325.80 L 457.10 324.20 L 462.40 322.20 L 465.30 321.70 L 469.80 321.50 L 474.40 321.80 L 483.60 323.60 L 492.30 325.80 L 487.80 318.20 L 482.20 311.20 L 479.00 308.20 L 475.50 305.50 L 471.70 303.30 L 467.70 301.60 L 463.30 300.50 L 458.40 301.30 L 440.10 305.60 Z M 456.30 344.90 L 463.40 343.90 L 470.30 342.40 L 470.10 334.50 L 462.60 329.90 L 460.50 332.00 L 458.80 334.20 L 457.60 336.60 L 456.80 339.20 L 456.30 341.90 L 456.30 344.90 Z" fill="#1c1715" fill-rule="nonzero" node-id="143" stroke="none" target-height="80" target-width="57.5" target-x="440.1" target-y="297"></path><path d="M 444.10 304.80 L 458.40 301.30 L 463.30 300.50 L 467.70 301.60 L 471.70 303.30 L 475.50 305.50 L 479.00 308.20 L 482.20 311.20 L 487.80 318.20 L 492.30 325.80 L 483.60 323.60 L 474.40 321.80 L 469.80 321.50 L 465.30 321.70 L 462.40 322.20 L 457.10 324.20 L 454.70 325.80 L 452.50 327.90 L 450.50 330.60 L 448.80 334.90 L 447.70 339.20 L 447.20 343.70 L 447.10 348.30 L 447.50 352.90 L 448.20 357.40 L 449.90 364.20 L 452.20 370.60 L 448.50 368.80 L 445.30 366.60 L 442.30 364.10 L 439.70 361.20 L 437.50 358.00 L 435.80 354.50 L 434.50 350.80 L 433.60 347.00 L 432.80 338.40 L 432.80 333.90 L 433.50 329.50 L 434.50 325.10 L 437.70 316.70 L 444.10 304.80 Z" fill="#f7f8fb" fill-rule="nonzero" node-id="145" stroke="none" target-height="70.100006" target-width="59.5" target-x="432.8" target-y="300.5"></path><path d="M 434.10 362.20 L 432.00 357.70 L 430.20 352.90 L 428.80 347.80 L 427.70 342.60 L 427.20 337.50 L 427.10 332.30 L 427.40 328.40 L 428.10 324.70 L 430.50 317.60 L 432.20 314.30 L 434.40 311.20 L 437.00 308.30 L 440.10 305.60 L 444.10 304.80 L 440.80 310.60 L 435.90 320.90 L 433.50 329.50 L 432.80 333.90 L 432.80 338.40 L 433.60 347.00 L 434.50 350.80 L 435.80 354.50 L 437.50 358.00 L 439.70 361.20 L 442.30 364.10 L 445.30 366.60 L 448.50 368.80 L 462.80 375.10 L 466.40 376.20 L 470.20 376.90 L 473.90 377.00 L 476.40 376.80 L 478.90 376.20 L 484.10 374.10 L 486.50 372.70 L 488.60 371.00 L 491.30 367.90 L 493.60 364.30 L 497.30 356.70 L 496.90 364.10 L 506.30 368.80 L 497.50 373.60 L 488.60 378.10 L 479.50 382.10 L 474.40 381.90 L 469.50 381.30 L 464.60 380.20 L 457.50 378.00 L 436.70 369.30 L 429.70 366.60 L 422.60 364.40 L 417.80 363.40 L 412.80 362.80 L 407.60 362.60 L 404.60 357.10 L 419.40 359.40 L 434.10 362.20 Z" fill="#9c8d84" fill-rule="nonzero" node-id="147" stroke="none" target-height="77.30002" target-width="101.69998" target-x="404.6" target-y="304.8"></path><path d="M 587.10 335.90 L 588.20 331.70 L 589.80 327.60 L 591.80 323.60 L 594.30 319.90 L 597.20 316.60 L 600.40 313.50 L 604.00 310.90 L 607.70 308.70 L 611.80 307.10 L 618.10 305.60 L 624.80 305.60 L 628.70 306.40 L 632.30 307.60 L 635.70 309.40 L 638.90 311.50 L 641.70 314.00 L 644.30 316.80 L 648.60 323.30 L 650.20 326.80 L 652.40 334.20 L 653.50 342.50 L 653.30 346.80 L 652.60 351.10 L 651.30 355.30 L 649.60 359.30 L 647.50 363.20 L 645.00 366.90 L 639.40 373.70 L 628.60 370.50 L 632.10 363.60 L 633.40 360.00 L 634.40 356.30 L 634.80 352.50 L 634.60 348.70 L 634.10 345.10 L 633.00 341.90 L 631.40 338.80 L 629.40 336.10 L 627.00 333.60 L 624.20 331.50 L 621.10 329.80 L 618.00 328.50 L 614.60 327.70 L 611.10 327.40 L 607.70 327.60 L 604.30 328.40 L 601.40 330.00 L 598.80 332.00 L 589.40 341.40 L 587.10 335.90 Z" fill="#eceef3" fill-rule="nonzero" node-id="149" stroke="none" target-height="68.100006" target-width="66.400024" target-x="587.1" target-y="305.6"></path><path d="M 289.10 316.60 L 305.50 322.70 L 304.30 318.40 L 314.80 327.70 L 337.30 344.60 L 324.20 347.00 L 319.80 347.20 L 317.00 347.10 L 314.10 346.50 L 311.30 345.50 L 304.90 340.40 L 302.00 337.50 L 298.20 332.70 L 294.90 327.50 L 289.10 316.60 Z" fill="#e0bfa3" fill-rule="nonzero" node-id="151" stroke="none" target-height="30.600006" target-width="48.19998" target-x="289.1" target-y="316.6"></path><path d="M 456.30 344.90 L 456.30 341.90 L 456.80 339.20 L 457.60 336.60 L 458.80 334.20 L 460.50 332.00 L 462.60 329.90 L 470.10 334.50 L 470.30 342.40 L 463.40 343.90 L 456.30 344.90 Z" fill="#f5f6f5" fill-rule="nonzero" node-id="153" stroke="none" target-height="15" target-width="14" target-x="456.3" target-y="329.9"></path><path d="M 324.30 353.40 L 356.90 344.00 L 365.20 342.10 L 373.50 340.60 L 385.20 362.70 L 382.50 367.40 L 373.60 360.20 L 370.40 358.10 L 365.80 356.30 L 363.30 355.90 L 359.00 356.60 L 354.90 357.90 L 343.00 362.80 L 338.80 364.00 L 333.60 361.20 L 324.30 353.40 Z" fill="#6f432a" fill-rule="nonzero" node-id="155" stroke="none" target-height="26.799988" target-width="60.900024" target-x="324.3" target-y="340.6"></path><path d="M 515.70 368.70 L 522.60 365.70 L 529.90 363.60 L 538.60 363.00 L 547.40 363.00 L 556.10 363.50 L 562.70 364.30 L 575.50 367.00 L 581.80 369.00 L 574.80 372.30 L 567.20 370.60 L 559.60 369.30 L 549.30 368.60 L 544.20 368.80 L 539.20 369.40 L 534.20 370.50 L 529.20 372.20 L 542.00 371.40 L 548.50 371.50 L 554.80 372.30 L 558.90 373.20 L 563.00 374.60 L 567.00 376.50 L 559.20 383.50 L 557.00 385.00 L 554.70 386.10 L 551.40 386.70 L 543.60 386.00 L 537.80 384.90 L 514.70 379.00 L 515.70 368.70 Z" fill="#e1b59a" fill-rule="nonzero" node-id="157" stroke="none" target-height="23.700012" target-width="67.099976" target-x="514.7" target-y="363"></path><path d="M 529.20 372.20 L 534.20 370.50 L 539.20 369.40 L 544.20 368.80 L 549.30 368.60 L 559.60 369.30 L 567.20 370.60 L 574.80 372.30 L 580.20 386.70 L 562.60 391.40 L 552.70 392.70 L 544.60 392.40 L 538.30 391.30 L 519.40 386.90 L 506.80 384.50 L 511.10 376.50 L 515.70 368.70 L 514.70 379.00 L 532.00 383.50 L 543.60 386.00 L 551.40 386.70 L 554.70 386.10 L 557.00 385.00 L 559.20 383.50 L 567.00 376.50 L 563.00 374.60 L 558.90 373.20 L 554.80 372.30 L 548.50 371.50 L 542.00 371.40 L 529.20 372.20 Z" fill="#c48d77" fill-rule="nonzero" node-id="159" stroke="none" target-height="24.100006" target-width="73.400024" target-x="506.8" target-y="368.6"></path><path d="M 714.60 389.30 L 721.70 388.30 L 724.10 392.30 L 726.00 396.40 L 727.50 400.70 L 728.60 405.20 L 729.30 409.70 L 729.60 414.20 L 729.50 418.80 L 729.00 423.30 L 728.10 427.80 L 726.70 432.10 L 724.90 436.30 L 720.10 445.10 L 717.20 449.40 L 714.10 453.50 L 710.50 457.10 L 705.40 461.70 L 699.90 465.70 L 694.00 469.30 L 687.80 472.50 L 681.50 475.30 L 674.90 477.70 L 664.90 480.70 L 655.00 483.10 L 646.10 484.90 L 609.80 489.30 L 600.90 490.90 L 595.00 492.40 L 589.20 494.20 L 583.50 496.40 L 569.30 503.70 L 561.90 507.00 L 554.40 509.70 L 549.30 511.00 L 544.00 511.80 L 538.60 512.20 L 533.80 512.00 L 529.10 511.50 L 524.50 510.60 L 517.70 508.60 L 491.00 498.50 L 454.70 489.30 L 435.40 483.20 L 426.00 479.60 L 416.70 475.60 L 407.70 471.10 L 394.40 463.10 L 390.00 460.00 L 381.50 453.00 L 377.70 449.10 L 374.20 444.90 L 371.10 440.40 L 368.60 435.80 L 366.50 430.80 L 365.40 427.00 L 364.70 423.10 L 364.40 419.00 L 364.40 414.70 L 368.20 419.50 L 382.40 439.80 L 386.30 444.60 L 392.20 450.30 L 401.00 456.90 L 406.70 460.50 L 418.60 466.90 L 431.10 472.10 L 440.80 475.50 L 468.60 484.30 L 486.70 489.70 L 523.20 500.30 L 529.20 501.80 L 535.30 502.80 L 539.50 503.20 L 543.60 503.10 L 551.50 501.80 L 558.70 499.30 L 563.90 496.80 L 583.90 485.20 L 592.60 481.40 L 600.20 479.60 L 642.90 472.90 L 653.50 470.80 L 664.00 468.20 L 677.60 463.70 L 684.30 460.90 L 688.30 458.90 L 692.10 456.50 L 698.80 450.70 L 704.50 443.90 L 709.10 436.30 L 712.80 427.70 L 714.20 423.00 L 715.00 418.30 L 715.60 411.10 L 715.60 403.80 L 714.60 389.30 Z" fill="#deb79d" fill-rule="nonzero" node-id="161" stroke="none" target-height="123.900024" target-width="365.19998" target-x="364.4" target-y="388.3"></path><path d="M 403.00 413.30 L 416.50 414.60 L 423.10 415.80 L 429.60 417.60 L 433.80 419.10 L 441.90 423.30 L 455.40 418.40 L 464.70 416.00 L 469.40 415.50 L 472.50 415.60 L 478.90 416.80 L 462.40 430.60 L 467.10 433.70 L 472.00 436.40 L 492.50 445.00 L 497.60 447.40 L 502.40 450.20 L 488.60 447.40 L 479.70 444.50 L 471.60 440.60 L 460.70 433.70 L 453.20 429.60 L 447.90 428.00 L 442.40 426.90 L 431.50 425.50 L 442.10 430.80 L 430.90 436.90 L 424.30 439.40 L 418.90 440.10 L 416.20 439.90 L 413.50 439.20 L 408.70 436.80 L 406.70 435.30 L 403.00 431.40 L 400.30 426.70 L 399.50 424.20 L 399.10 421.80 L 399.20 419.40 L 400.30 416.10 L 403.00 413.30 Z" fill="#deb7ac" fill-rule="nonzero" node-id="163" stroke="none" target-height="36.900024" target-width="103.29999" target-x="399.1" target-y="413.3"></path><path d="M 625.10 415.90 L 637.70 421.50 L 644.40 423.20 L 648.00 422.70 L 651.50 421.70 L 662.40 417.70 L 657.90 427.10 L 663.20 434.40 L 656.20 431.30 L 652.60 430.10 L 649.00 429.50 L 646.60 429.40 L 644.10 429.80 L 641.60 430.60 L 636.50 434.70 L 631.10 438.50 L 625.60 441.90 L 619.80 445.00 L 613.90 447.80 L 607.80 450.10 L 601.50 451.90 L 595.10 453.40 L 555.40 460.50 L 547.50 460.60 L 539.60 460.30 L 531.70 459.60 L 523.80 458.50 L 497.00 452.50 L 488.00 450.80 L 494.80 465.10 L 478.10 452.20 L 469.50 446.10 L 460.70 440.40 L 448.50 433.70 L 431.50 425.50 L 442.40 426.90 L 447.90 428.00 L 453.20 429.60 L 457.00 431.50 L 471.60 440.60 L 475.40 442.60 L 479.70 444.50 L 488.60 447.40 L 502.40 450.20 L 512.00 452.60 L 521.60 454.30 L 531.20 455.40 L 540.90 455.90 L 550.70 455.90 L 560.40 455.30 L 570.10 454.20 L 579.70 452.60 L 589.30 450.50 L 598.70 447.90 L 608.00 445.00 L 621.10 439.80 L 624.70 437.60 L 628.10 435.00 L 631.10 432.10 L 633.80 428.80 L 636.20 425.20 L 625.10 415.90 Z" fill="#947566" fill-rule="nonzero" node-id="165" stroke="none" target-height="49.200012" target-width="231.70001" target-x="431.5" target-y="415.9"></path><path d="M 658.50 419.10 L 661.00 417.80 L 663.50 416.90 L 666.20 416.50 L 670.20 416.40 L 674.30 416.90 L 682.30 419.20 L 683.50 420.60 L 685.20 423.80 L 685.80 426.40 L 685.70 429.00 L 685.40 430.80 L 683.80 433.90 L 682.60 435.20 L 681.20 436.20 L 676.10 438.30 L 673.00 439.10 L 669.80 439.30 L 663.40 438.60 L 655.40 436.20 L 641.60 430.60 L 644.10 429.80 L 646.60 429.40 L 649.00 429.50 L 652.60 430.10 L 656.20 431.30 L 663.20 434.40 L 657.90 427.10 L 662.40 417.70 L 658.50 419.10 Z" fill="#dfae9c" fill-rule="nonzero" node-id="167" stroke="none" target-height="22.899994" target-width="44.200012" target-x="641.6" target-y="416.4"></path><path d="M 488.00 450.80 L 497.00 452.50 L 523.80 458.50 L 522.40 461.00 L 520.80 462.90 L 518.90 464.40 L 514.50 466.60 L 508.30 467.80 L 496.70 468.30 L 494.80 465.10 L 488.00 450.80 Z" fill="#601d28" fill-rule="nonzero" node-id="169" stroke="none" target-height="17.5" target-width="35.799988" target-x="488" target-y="450.8"></path><path d="M 555.40 460.50 L 595.10 453.40 L 588.20 461.30 L 581.40 462.50 L 571.40 465.30 L 556.90 471.20 L 555.40 460.50 Z" fill="#662424" fill-rule="nonzero" node-id="171" stroke="none" target-height="17.800018" target-width="39.69995" target-x="555.4" target-y="453.4"></path><path d="M 523.80 458.50 L 531.70 459.60 L 539.60 460.30 L 547.50 460.60 L 555.40 460.50 L 556.90 471.20 L 571.40 465.30 L 581.40 462.50 L 586.60 461.60 L 581.00 469.90 L 574.30 477.30 L 566.60 483.60 L 558.10 488.80 L 568.80 474.40 L 558.80 477.10 L 548.80 479.30 L 543.70 480.00 L 538.50 480.30 L 534.80 480.00 L 527.40 478.50 L 522.10 476.80 L 506.40 470.60 L 510.80 483.10 L 505.70 478.50 L 501.00 473.50 L 496.70 468.30 L 508.30 467.80 L 514.50 466.60 L 518.90 464.40 L 520.80 462.90 L 522.40 461.00 L 523.80 458.50 Z M 520.70 466.40 L 523.00 468.60 L 525.60 470.60 L 528.40 472.10 L 534.40 474.20 L 537.50 474.70 L 540.60 474.70 L 543.70 474.30 L 546.70 473.40 L 549.60 472.10 L 552.20 470.30 L 554.80 467.90 L 537.70 466.50 L 520.70 466.40 Z" fill="#b25057" fill-rule="nonzero" node-id="173" stroke="none" target-height="30.299988" target-width="89.89996" target-x="496.7" target-y="458.5"></path><path d="M 520.70 466.40 L 537.70 466.50 L 554.70 467.90 L 552.20 470.30 L 549.50 472.10 L 546.70 473.40 L 543.70 474.30 L 540.60 474.70 L 537.50 474.70 L 531.40 473.40 L 528.40 472.10 L 525.60 470.60 L 523.00 468.60 L 520.70 466.40 Z" fill="#ecd9d1" fill-rule="nonzero" node-id="175" stroke="none" target-height="8.300018" target-width="34" target-x="520.7" target-y="466.4"></path><path d="M 368.90 474.70 L 375.00 471.60 L 378.30 470.30 L 381.60 469.30 L 386.10 469.10 L 388.40 469.50 L 421.70 485.70 L 406.20 492.30 L 413.90 497.50 L 430.00 507.00 L 442.30 513.60 L 479.90 532.60 L 476.50 540.70 L 469.40 540.80 L 462.50 540.50 L 455.60 539.70 L 448.70 538.60 L 439.70 536.50 L 430.80 533.80 L 422.10 530.50 L 413.50 526.80 L 405.20 522.70 L 397.10 518.20 L 392.00 515.00 L 382.20 508.10 L 377.70 504.30 L 373.40 500.10 L 369.60 495.50 L 368.40 493.30 L 367.60 491.10 L 367.30 488.90 L 367.30 485.40 L 368.90 474.70 Z" fill="#7b4d30" fill-rule="nonzero" node-id="177" stroke="none" target-height="71.69998" target-width="112.600006" target-x="367.3" target-y="469.1"></path><path d="M 506.40 470.60 L 522.10 476.80 L 527.40 478.50 L 534.80 480.00 L 538.50 480.30 L 543.70 480.00 L 548.80 479.30 L 558.80 477.10 L 568.80 474.40 L 558.10 488.80 L 555.50 490.80 L 552.70 492.30 L 549.70 493.40 L 546.60 494.10 L 540.00 494.60 L 535.10 494.40 L 530.40 494.00 L 522.80 492.20 L 519.00 490.80 L 515.70 489.00 L 513.70 487.40 L 512.10 485.50 L 510.80 483.10 L 506.40 470.60 Z" fill="#d47782" fill-rule="nonzero" node-id="179" stroke="none" target-height="24" target-width="62.399994" target-x="506.4" target-y="470.6"></path><path d="M 505.10 506.50 L 513.40 509.10 L 521.80 511.10 L 533.20 512.80 L 538.90 513.10 L 544.60 513.00 L 550.40 512.40 L 556.10 511.20 L 558.70 532.60 L 560.40 543.20 L 562.70 553.70 L 564.60 560.60 L 569.50 574.10 L 573.10 582.10 L 577.30 589.70 L 582.10 597.00 L 587.30 604.00 L 593.00 610.70 L 598.90 617.00 L 594.40 617.70 L 585.30 617.90 L 571.70 616.40 L 563.80 599.00 L 560.30 590.10 L 557.20 581.10 L 554.70 571.90 L 549.20 545.20 L 547.50 539.50 L 546.10 535.90 L 544.30 532.40 L 542.10 529.20 L 509.10 527.30 L 498.30 525.50 L 492.90 524.00 L 505.10 506.50 Z" fill="#e8ccac" fill-rule="nonzero" node-id="181" stroke="none" target-height="111.400024" target-width="106.00003" target-x="492.9" target-y="506.5"></path><path d="M 563.60 518.70 L 575.60 516.50 L 583.70 515.70 L 587.80 515.80 L 591.70 516.30 L 595.70 517.20 L 621.40 528.20 L 628.40 531.80 L 632.90 534.60 L 637.10 537.70 L 646.00 546.30 L 650.70 551.60 L 659.10 562.90 L 662.80 568.90 L 666.20 575.00 L 669.10 581.40 L 671.60 588.00 L 673.70 594.70 L 674.60 598.90 L 675.00 603.10 L 674.80 607.30 L 674.30 611.40 L 673.30 615.50 L 671.90 619.50 L 668.10 627.00 L 665.70 630.50 L 660.10 636.80 L 654.50 641.20 L 649.30 643.60 L 646.40 644.30 L 640.70 644.60 L 637.90 644.10 L 635.30 643.10 L 632.80 641.50 L 629.10 638.60 L 622.60 632.20 L 618.10 627.00 L 605.50 610.50 L 610.90 597.10 L 613.20 590.20 L 616.00 578.60 L 617.00 569.00 L 602.70 586.90 L 586.00 566.00 L 593.40 587.00 L 594.90 592.30 L 595.90 597.80 L 585.20 585.50 L 580.20 579.00 L 575.80 572.20 L 573.20 567.50 L 571.10 562.50 L 567.40 551.10 L 566.00 544.70 L 564.20 531.80 L 563.60 518.70 Z" fill="#824f31" fill-rule="nonzero" node-id="183" stroke="none" target-height="128.89996" target-width="111.400024" target-x="563.6" target-y="515.7"></path><path d="M 726.80 582.60 L 726.50 579.00 L 726.80 575.50 L 727.60 572.10 L 729.00 568.90 L 730.70 565.90 L 732.90 563.00 L 735.30 560.40 L 738.10 558.10 L 744.30 554.40 L 751.10 552.10 L 754.60 551.50 L 758.00 551.50 L 761.50 551.90 L 764.80 552.70 L 767.90 554.20 L 771.00 556.20 L 772.80 558.70 L 774.00 561.20 L 774.70 563.70 L 774.90 566.40 L 774.80 569.10 L 774.20 571.80 L 772.10 577.00 L 770.60 579.50 L 768.00 583.00 L 765.10 585.90 L 769.40 597.40 L 771.00 603.30 L 772.30 609.30 L 773.10 615.30 L 773.50 621.40 L 773.30 627.50 L 772.50 633.50 L 769.60 645.10 L 767.50 650.30 L 764.90 655.20 L 761.90 659.90 L 758.60 664.30 L 754.80 668.40 L 746.50 676.00 L 742.00 679.40 L 735.00 684.10 L 727.80 688.30 L 720.60 691.90 L 716.90 693.60 L 713.10 694.80 L 707.90 695.30 L 701.20 694.60 L 726.50 682.30 L 734.60 677.60 L 739.80 674.10 L 744.70 670.30 L 749.30 666.20 L 755.40 659.30 L 760.50 651.30 L 762.70 646.90 L 764.50 642.40 L 765.80 637.90 L 766.80 633.30 L 767.50 627.10 L 767.60 620.90 L 767.30 614.50 L 766.50 608.20 L 763.80 595.70 L 761.20 586.40 L 757.50 575.30 L 756.40 573.50 L 755.00 572.00 L 752.40 570.20 L 743.20 566.50 L 741.40 570.00 L 740.20 573.40 L 739.60 576.80 L 739.60 583.90 L 741.40 592.80 L 747.40 612.50 L 748.60 620.70 L 748.70 624.90 L 747.80 633.20 L 746.90 637.30 L 745.50 641.20 L 743.80 644.90 L 741.60 648.40 L 739.10 651.70 L 736.10 654.70 L 731.60 658.40 L 726.80 661.70 L 721.80 664.70 L 716.60 667.40 L 711.20 669.70 L 705.70 671.50 L 700.10 673.00 L 694.40 674.10 L 688.50 674.80 L 701.20 669.60 L 698.60 660.10 L 702.70 665.10 L 715.50 657.00 L 721.80 652.50 L 727.70 647.50 L 731.30 643.90 L 734.40 640.10 L 737.20 636.00 L 739.00 632.70 L 741.50 625.60 L 742.20 621.70 L 742.70 618.50 L 742.70 615.70 L 742.30 613.00 L 740.90 609.00 L 739.00 605.30 L 729.50 590.70 L 728.30 588.10 L 726.80 582.60 Z M 740.70 560.90 L 752.80 563.60 L 756.80 564.90 L 759.90 567.60 L 767.90 577.20 L 768.60 569.00 L 768.40 563.50 L 767.60 561.20 L 766.70 559.80 L 765.40 558.70 L 761.00 556.50 L 758.40 555.90 L 755.90 555.80 L 750.70 556.70 L 740.70 560.90 Z" fill="#7e5c45" fill-rule="nonzero" node-id="185" stroke="none" target-height="143.79999" target-width="86.400024" target-x="688.5" target-y="551.5"></path><path d="M 740.70 560.90 L 750.70 556.70 L 755.90 555.80 L 758.40 555.90 L 761.00 556.50 L 765.40 558.70 L 766.70 559.80 L 767.60 561.20 L 768.40 563.50 L 768.60 569.00 L 767.90 577.20 L 759.90 567.60 L 756.80 564.90 L 752.80 563.60 L 740.70 560.90 Z" fill="#a6876a" fill-rule="nonzero" node-id="187" stroke="none" target-height="21.400024" target-width="27.899963" target-x="740.7" target-y="555.8"></path><path d="M 746.30 608.50 L 741.40 592.80 L 739.60 583.90 L 739.60 576.80 L 740.20 573.40 L 741.40 570.00 L 743.20 566.50 L 744.90 574.20 L 747.00 581.80 L 756.70 611.60 L 757.90 616.40 L 758.50 621.30 L 758.80 626.20 L 758.50 631.10 L 757.80 635.90 L 756.60 640.70 L 755.00 645.30 L 753.00 649.80 L 750.60 654.00 L 747.70 658.00 L 744.50 661.70 L 740.90 665.10 L 735.00 669.40 L 728.90 673.20 L 722.40 676.60 L 709.00 682.30 L 702.20 684.60 L 696.80 686.00 L 691.50 687.00 L 686.10 687.60 L 678.00 687.80 L 669.80 687.40 L 653.50 685.50 L 657.50 674.80 L 673.00 675.40 L 680.80 675.30 L 694.40 674.10 L 700.10 673.00 L 705.70 671.50 L 711.20 669.70 L 716.60 667.40 L 721.80 664.70 L 726.80 661.70 L 731.60 658.40 L 736.10 654.70 L 739.10 651.70 L 741.60 648.40 L 743.80 644.90 L 745.50 641.20 L 746.90 637.30 L 747.80 633.20 L 748.70 624.90 L 748.60 620.70 L 748.10 616.50 L 746.30 608.50 Z" fill="#c2b395" fill-rule="nonzero" node-id="189" stroke="none" target-height="121.29999" target-width="105.29999" target-x="653.5" target-y="566.5"></path><path d="M 743.20 566.50 L 752.40 570.20 L 755.00 572.00 L 756.40 573.50 L 757.50 575.30 L 761.20 586.40 L 763.80 595.70 L 765.30 601.90 L 767.30 614.50 L 767.60 620.90 L 767.50 627.10 L 766.80 633.30 L 765.80 637.90 L 764.50 642.40 L 762.70 646.90 L 758.10 655.50 L 752.50 662.90 L 749.30 666.20 L 744.70 670.30 L 739.80 674.10 L 734.60 677.60 L 726.50 682.30 L 718.10 686.60 L 701.20 694.60 L 690.70 695.50 L 680.20 696.00 L 669.70 695.90 L 654.00 694.60 L 638.50 691.80 L 647.00 680.40 L 654.70 668.50 L 657.50 674.80 L 653.50 685.50 L 669.80 687.40 L 678.00 687.80 L 686.10 687.60 L 691.50 687.00 L 696.80 686.00 L 702.20 684.60 L 715.80 679.60 L 722.40 676.60 L 728.90 673.20 L 735.00 669.40 L 740.90 665.10 L 744.50 661.70 L 747.70 658.00 L 750.60 654.00 L 753.00 649.80 L 755.00 645.30 L 756.60 640.70 L 757.80 635.90 L 758.50 631.10 L 758.80 626.20 L 758.50 621.30 L 757.90 616.40 L 756.70 611.60 L 747.00 581.80 L 744.90 574.20 L 743.20 566.50 Z" fill="#ac957c" fill-rule="nonzero" node-id="191" stroke="none" target-height="129.5" target-width="129.09998" target-x="638.5" target-y="566.5"></path><path d="M 456.40 654.20 L 455.80 647.20 L 455.70 640.30 L 456.60 626.50 L 458.90 612.90 L 461.30 602.70 L 464.10 592.70 L 467.00 618.50 L 468.70 631.30 L 470.90 644.10 L 474.80 660.90 L 477.30 669.20 L 479.80 675.40 L 482.70 681.40 L 486.00 687.20 L 489.70 692.80 L 498.00 703.30 L 502.60 708.20 L 512.30 717.40 L 517.00 721.10 L 522.20 724.40 L 529.50 727.80 L 537.30 730.10 L 545.30 730.90 L 549.30 730.70 L 553.20 730.00 L 557.20 728.90 L 560.30 726.70 L 561.20 725.30 L 562.20 723.00 L 562.70 720.30 L 562.90 717.50 L 562.40 709.30 L 569.40 711.80 L 576.50 713.70 L 583.80 715.00 L 591.20 715.70 L 598.60 716.00 L 606.00 715.90 L 601.20 733.30 L 596.40 740.30 L 593.70 743.50 L 590.60 746.30 L 588.30 747.70 L 585.80 748.70 L 582.90 749.20 L 576.30 749.70 L 569.80 749.50 L 563.20 748.80 L 556.80 747.50 L 550.40 745.90 L 539.40 741.80 L 530.30 737.00 L 523.80 732.80 L 504.70 719.50 L 495.80 714.30 L 486.50 710.30 L 481.50 708.90 L 476.20 708.00 L 473.20 702.30 L 468.20 690.60 L 465.00 681.60 L 456.40 654.20 Z" fill="#eacbad" fill-rule="nonzero" node-id="193" stroke="none" target-height="157" target-width="150.29999" target-x="455.7" target-y="592.7"></path><path d="M 524.40 643.80 L 526.90 639.70 L 529.80 636.00 L 533.10 632.60 L 536.60 629.50 L 544.50 624.20 L 553.20 620.20 L 562.30 617.60 L 571.70 616.40 L 585.30 617.90 L 594.40 617.70 L 598.90 617.00 L 607.30 624.90 L 581.40 622.20 L 574.80 621.80 L 568.30 621.90 L 564.10 622.30 L 555.80 624.10 L 551.80 625.50 L 548.00 627.40 L 541.30 631.90 L 536.40 636.60 L 533.30 640.70 L 530.70 645.10 L 528.50 649.80 L 526.70 654.70 L 533.50 652.50 L 540.10 649.90 L 566.00 638.40 L 579.30 633.60 L 574.00 637.70 L 551.50 652.20 L 546.10 656.10 L 539.50 662.00 L 536.50 665.40 L 536.00 668.80 L 535.80 675.50 L 536.30 678.80 L 537.20 681.90 L 538.50 684.90 L 540.20 687.60 L 542.50 690.00 L 545.30 692.30 L 554.60 682.00 L 559.60 677.20 L 565.00 672.90 L 568.80 670.30 L 577.10 666.00 L 565.70 677.50 L 554.00 688.60 L 553.50 694.20 L 553.80 697.10 L 554.60 699.70 L 555.50 701.30 L 557.90 703.60 L 559.40 704.20 L 561.20 704.50 L 563.60 704.30 L 567.30 703.20 L 574.30 700.00 L 579.30 697.10 L 593.90 687.80 L 585.10 699.00 L 576.70 710.60 L 584.90 710.10 L 593.00 709.30 L 603.70 707.10 L 608.90 705.40 L 606.00 715.90 L 598.60 716.00 L 591.20 715.70 L 583.80 715.00 L 576.50 713.70 L 569.40 711.80 L 562.40 709.30 L 556.70 706.50 L 551.10 703.30 L 545.80 699.80 L 540.80 695.80 L 537.80 692.90 L 532.50 686.30 L 531.60 682.00 L 530.20 668.60 L 529.60 665.70 L 528.80 662.90 L 523.80 652.10 L 523.20 650.00 L 523.10 646.60 L 524.40 643.80 Z" fill="#ba9b83" fill-rule="nonzero" node-id="195" stroke="none" target-height="99.599976" target-width="85.80005" target-x="523.1" target-y="616.4"></path><path d="M 544.20 629.90 L 548.00 627.40 L 551.80 625.50 L 555.80 624.10 L 564.10 622.30 L 568.30 621.90 L 574.80 621.80 L 581.40 622.20 L 607.30 624.90 L 611.30 629.20 L 613.80 634.50 L 616.80 639.40 L 620.20 644.10 L 634.80 662.00 L 638.20 666.70 L 637.70 669.10 L 636.80 671.30 L 635.60 673.30 L 633.20 676.00 L 630.40 678.40 L 624.30 682.40 L 621.20 684.00 L 618.00 685.00 L 614.70 685.70 L 609.70 686.10 L 594.30 685.90 L 585.60 686.70 L 575.10 689.50 L 556.70 696.50 L 554.00 688.60 L 580.90 662.50 L 574.00 663.60 L 567.20 665.30 L 560.50 667.50 L 554.00 670.10 L 547.70 673.10 L 541.50 676.50 L 536.50 665.40 L 539.50 662.10 L 546.10 656.10 L 551.50 652.20 L 574.00 637.70 L 579.30 633.60 L 566.00 638.40 L 540.10 649.90 L 533.50 652.50 L 526.70 654.70 L 528.50 649.80 L 530.70 645.10 L 533.30 640.70 L 536.40 636.60 L 538.70 634.10 L 544.20 629.90 Z" fill="#f0dfc3" fill-rule="nonzero" node-id="197" stroke="none" target-height="74.70001" target-width="111.5" target-x="526.7" target-y="621.8"></path><path d="M 611.30 629.20 L 618.00 636.10 L 625.30 642.60 L 635.60 650.30 L 641.10 653.70 L 646.70 656.70 L 652.60 659.40 L 658.70 661.70 L 647.00 680.40 L 638.50 691.80 L 631.30 695.60 L 623.90 699.10 L 608.90 705.40 L 598.40 708.40 L 584.90 710.10 L 576.70 710.60 L 585.10 699.00 L 593.90 687.80 L 579.30 697.10 L 574.30 700.00 L 567.30 703.20 L 563.60 704.30 L 561.20 704.50 L 559.40 704.20 L 557.90 703.60 L 555.50 701.30 L 554.60 699.70 L 553.80 697.10 L 553.50 694.20 L 554.00 688.60 L 556.70 696.50 L 575.10 689.50 L 585.60 686.70 L 594.30 685.90 L 609.70 686.10 L 614.70 685.70 L 618.00 685.00 L 621.20 684.00 L 624.30 682.40 L 630.40 678.40 L 633.20 676.00 L 635.60 673.30 L 636.80 671.30 L 637.70 669.10 L 638.20 666.70 L 634.80 662.00 L 620.20 644.10 L 616.80 639.40 L 613.80 634.50 L 611.30 629.20 Z" fill="#e2bd9e" fill-rule="nonzero" node-id="199" stroke="none" target-height="81.39996" target-width="105.20001" target-x="553.5" target-y="629.2"></path><path d="M 434.10 653.10 L 434.70 650.70 L 435.60 648.50 L 438.30 645.10 L 442.00 642.40 L 445.20 640.90 L 448.50 639.90 L 450.60 671.60 L 451.60 679.50 L 453.20 687.30 L 455.50 696.40 L 458.30 705.30 L 461.60 714.00 L 469.40 731.10 L 473.60 739.40 L 461.30 752.70 L 455.90 745.60 L 451.00 738.30 L 446.70 730.50 L 442.80 722.50 L 439.60 714.30 L 436.90 705.80 L 434.80 697.20 L 433.40 688.40 L 432.60 679.60 L 432.40 673.00 L 433.20 659.70 L 434.10 653.10 Z" fill="#7a4b30" fill-rule="nonzero" node-id="201" stroke="none" target-height="112.79999" target-width="41.200012" target-x="432.4" target-y="639.9"></path><path d="M 456.40 654.20 L 465.00 681.60 L 468.20 690.60 L 473.20 702.30 L 476.20 708.00 L 481.50 708.90 L 486.50 710.30 L 495.80 714.30 L 504.70 719.50 L 523.80 732.80 L 534.80 739.60 L 544.20 743.80 L 550.40 745.90 L 556.80 747.50 L 563.20 748.80 L 569.80 749.50 L 576.30 749.70 L 582.90 749.20 L 585.80 748.70 L 588.30 747.70 L 590.60 746.30 L 593.70 743.50 L 596.40 740.30 L 601.20 733.30 L 600.10 741.20 L 599.40 749.20 L 599.20 757.20 L 599.50 769.20 L 600.40 781.10 L 589.20 781.50 L 578.10 781.30 L 563.20 780.10 L 548.60 777.50 L 541.40 775.60 L 534.30 773.20 L 526.70 768.20 L 519.50 762.90 L 491.40 740.20 L 484.10 734.90 L 476.50 730.10 L 472.70 723.00 L 469.30 715.90 L 466.40 708.50 L 463.80 701.10 L 461.60 693.40 L 459.40 683.70 L 457.80 674.00 L 456.80 664.10 L 456.40 654.20 Z" fill="#e1ba9c" fill-rule="nonzero" node-id="203" stroke="none" target-height="127.29999" target-width="144.80002" target-x="456.4" target-y="654.2"></path><path d="M 541.50 676.50 L 547.70 673.10 L 554.00 670.10 L 560.50 667.50 L 567.20 665.30 L 574.00 663.60 L 580.90 662.50 L 577.10 666.00 L 568.80 670.30 L 565.00 672.90 L 559.60 677.20 L 554.60 682.00 L 545.30 692.30 L 542.50 690.00 L 540.20 687.60 L 538.50 684.90 L 537.20 681.90 L 536.30 678.80 L 535.70 672.20 L 536.50 665.40 L 541.50 676.50 Z" fill="#ecceaf" fill-rule="nonzero" node-id="205" stroke="none" target-height="29.799988" target-width="45.200012" target-x="535.7" target-y="662.5"></path><path d="M 633.00 713.30 L 638.20 711.70 L 643.50 710.70 L 648.80 710.20 L 654.20 710.10 L 665.00 710.80 L 680.90 713.30 L 680.80 720.80 L 680.00 728.00 L 678.70 735.10 L 674.80 748.90 L 668.10 765.80 L 654.40 795.70 L 650.30 805.80 L 644.70 822.20 L 643.10 828.60 L 641.90 835.20 L 641.30 841.70 L 641.20 846.10 L 642.20 854.80 L 643.20 859.00 L 644.70 863.00 L 652.10 877.30 L 656.70 888.10 L 648.00 885.60 L 639.50 882.50 L 631.30 878.80 L 619.50 872.20 L 608.60 864.20 L 613.30 853.20 L 615.40 847.60 L 617.00 841.80 L 617.90 835.70 L 618.20 829.60 L 618.10 823.40 L 617.20 814.30 L 612.10 780.60 L 611.50 768.50 L 611.80 762.40 L 612.70 756.30 L 614.20 750.20 L 618.80 735.00 L 620.70 729.90 L 622.90 725.10 L 625.60 720.70 L 627.80 717.90 L 630.20 715.50 L 633.00 713.30 Z" fill="#805031" fill-rule="nonzero" node-id="207" stroke="none" target-height="178" target-width="72.30005" target-x="608.6" target-y="710.1"></path><path d="M 476.50 730.10 L 484.10 734.90 L 491.40 740.20 L 519.50 762.90 L 526.70 768.20 L 534.30 773.20 L 524.70 775.00 L 519.40 774.90 L 515.40 773.30 L 509.70 769.90 L 504.50 766.00 L 499.50 761.80 L 494.90 757.10 L 490.60 752.20 L 482.90 741.40 L 476.50 730.10 Z" fill="#c99f86" fill-rule="nonzero" node-id="209" stroke="none" target-height="44.900024" target-width="57.799988" target-x="476.5" target-y="730.1"></path><path d="M 376.30 742.30 L 378.40 740.00 L 380.70 738.20 L 383.20 736.80 L 385.80 735.90 L 389.50 735.10 L 393.40 734.90 L 397.30 735.20 L 401.30 736.10 L 405.10 737.40 L 408.80 739.10 L 412.30 741.20 L 415.40 743.60 L 418.10 746.30 L 378.10 746.80 L 376.30 742.30 Z" fill="#ebcbb2" fill-rule="nonzero" node-id="211" stroke="none" target-height="11.899963" target-width="41.80002" target-x="376.3" target-y="734.9"></path><path d="M 378.10 746.80 L 418.10 746.30 L 427.30 754.30 L 430.70 756.60 L 434.30 757.70 L 449.20 759.50 L 452.80 760.50 L 458.30 764.60 L 467.60 774.80 L 461.40 784.40 L 459.00 787.30 L 455.30 790.80 L 453.20 792.20 L 449.00 793.80 L 440.30 795.70 L 426.90 796.50 L 417.50 787.30 L 407.70 778.50 L 397.50 770.20 L 387.10 762.10 L 381.50 757.30 L 378.30 753.50 L 377.50 751.40 L 377.50 748.50 L 378.10 746.80 Z" fill="#d9ac90" fill-rule="nonzero" node-id="213" stroke="none" target-height="50.200012" target-width="90.100006" target-x="377.5" target-y="746.3"></path><path d="M 338.40 761.00 L 340.50 758.90 L 342.90 757.00 L 345.60 755.50 L 351.40 753.70 L 354.40 753.30 L 364.20 753.60 L 373.90 754.80 L 377.50 757.30 L 380.80 760.20 L 392.70 773.10 L 388.50 775.50 L 379.70 779.40 L 370.50 782.10 L 365.80 782.90 L 360.40 763.60 L 357.60 774.40 L 350.40 774.30 L 362.90 783.60 L 344.80 783.60 L 352.50 784.90 L 360.20 785.60 L 370.60 785.60 L 375.80 785.10 L 376.50 806.70 L 367.80 808.50 L 359.10 809.80 L 353.20 810.30 L 347.30 810.30 L 341.50 809.80 L 340.20 809.60 L 338.20 808.40 L 336.20 805.50 L 335.00 802.20 L 334.50 797.50 L 335.40 791.90 L 337.30 785.10 L 338.20 779.50 L 338.20 777.20 L 336.70 767.60 L 336.60 765.30 L 337.40 762.40 L 338.40 761.00 Z" fill="#deab96" fill-rule="nonzero" node-id="215" stroke="none" target-height="57" target-width="58.200012" target-x="334.5" target-y="753.3"></path><path d="M 467.60 774.80 L 475.10 784.30 L 481.80 794.40 L 485.30 801.70 L 486.60 805.50 L 487.20 808.50 L 487.40 811.30 L 486.60 817.10 L 485.70 819.80 L 482.80 824.90 L 478.80 829.20 L 476.40 830.90 L 473.80 832.20 L 471.00 833.20 L 463.90 834.30 L 455.10 833.70 L 439.30 830.60 L 434.00 829.90 L 428.60 829.70 L 424.80 830.40 L 417.60 832.90 L 412.40 835.30 L 392.10 846.60 L 386.80 848.90 L 382.00 850.20 L 375.80 850.30 L 364.60 848.80 L 362.50 843.50 L 366.80 839.40 L 371.40 835.60 L 376.30 832.30 L 383.90 827.80 L 416.30 812.20 L 424.00 807.90 L 392.60 822.20 L 382.00 826.70 L 379.20 813.30 L 378.30 806.50 L 377.90 799.70 L 378.00 795.20 L 379.40 786.20 L 381.50 783.40 L 384.00 781.00 L 386.90 778.90 L 390.00 777.30 L 393.20 776.10 L 396.70 775.30 L 402.10 778.20 L 407.20 781.70 L 421.80 793.10 L 426.90 796.50 L 440.30 795.70 L 449.00 793.80 L 453.20 792.20 L 455.30 790.80 L 459.00 787.30 L 461.40 784.40 L 467.60 774.80 Z" fill="#cf9d81" fill-rule="nonzero" node-id="217" stroke="none" target-height="75.5" target-width="124.899994" target-x="362.5" target-y="774.8"></path><path d="M 349.40 813.00 L 375.30 809.40 L 378.20 818.30 L 378.80 821.20 L 378.70 825.20 L 378.20 827.20 L 375.10 829.80 L 371.60 832.10 L 366.50 834.20 L 363.90 834.70 L 361.30 834.70 L 358.70 834.10 L 356.00 832.80 L 353.40 831.40 L 350.80 829.30 L 348.60 826.70 L 346.80 823.90 L 346.10 821.90 L 345.70 819.90 L 345.80 818.00 L 346.40 816.30 L 347.50 814.60 L 349.40 813.00 Z" fill="#d7a68e" fill-rule="nonzero" node-id="219" stroke="none" target-height="25.299988" target-width="33.099976" target-x="345.7" target-y="809.4"></path><path d="M 498.00 894.70 L 525.80 882.80 L 540.00 877.40 L 554.30 872.60 L 573.60 867.20 L 583.50 864.90 L 586.80 864.30 L 589.90 864.30 L 592.90 864.80 L 598.60 867.00 L 605.30 871.30 L 617.00 879.40 L 631.30 898.60 L 624.00 901.50 L 616.60 903.80 L 586.30 910.90 L 578.80 913.20 L 565.00 918.60 L 545.30 927.40 L 538.60 929.80 L 531.70 931.70 L 527.10 932.50 L 522.40 932.90 L 517.50 932.90 L 521.80 929.80 L 548.80 918.20 L 555.30 914.90 L 561.60 911.10 L 552.10 912.20 L 540.80 915.10 L 534.10 917.40 L 505.00 929.20 L 502.00 929.70 L 498.90 929.70 L 489.80 928.20 L 493.70 923.90 L 498.00 920.00 L 507.20 913.10 L 517.20 907.30 L 532.80 899.70 L 517.40 905.50 L 507.60 910.40 L 498.50 916.40 L 494.30 919.90 L 487.80 926.70 L 484.80 929.00 L 481.70 931.00 L 478.30 932.50 L 474.70 933.50 L 466.80 934.90 L 466.90 923.40 L 467.20 920.60 L 467.90 917.90 L 469.60 914.60 L 474.70 909.20 L 478.90 905.60 L 488.20 899.70 L 498.00 894.70 Z" fill="#f2ddbc" fill-rule="nonzero" node-id="221" stroke="none" target-height="70.60004" target-width="164.5" target-x="466.8" target-y="864.3"></path><path d="M 617.00 879.40 L 647.20 895.70 L 657.10 901.30 L 645.50 907.30 L 639.50 909.80 L 630.30 912.90 L 592.50 923.10 L 574.10 929.00 L 556.30 936.00 L 530.10 947.80 L 524.30 949.90 L 521.10 950.50 L 515.80 950.50 L 512.20 949.20 L 510.70 948.10 L 509.40 946.50 L 508.30 944.40 L 510.00 941.00 L 512.20 938.00 L 517.50 932.90 L 522.40 932.90 L 527.10 932.50 L 531.70 931.70 L 538.60 929.80 L 545.30 927.40 L 565.00 918.60 L 578.80 913.20 L 586.30 910.90 L 616.60 903.80 L 624.00 901.50 L 631.30 898.60 L 617.00 879.40 Z" fill="#debb9c" fill-rule="nonzero" node-id="223" stroke="none" target-height="71.099976" target-width="148.79999" target-x="508.3" target-y="879.4"></path><path d="M 508.00 928.20 L 534.10 917.40 L 540.80 915.10 L 552.10 912.20 L 561.60 911.10 L 555.30 914.90 L 548.80 918.20 L 518.80 931.20 L 509.70 936.80 L 503.50 939.90 L 501.40 940.60 L 497.10 941.00 L 495.00 940.70 L 492.80 940.00 L 490.50 938.70 L 489.80 928.20 L 498.90 929.70 L 502.00 929.70 L 505.00 929.20 L 508.00 928.20 Z" fill="#d1b093" fill-rule="nonzero" node-id="225" stroke="none" target-height="29.900024" target-width="71.79999" target-x="489.8" target-y="911.1"></path></svg>