<svg xmlns="http://www.w3.org/2000/svg" fill="none" viewBox="0 0 1024 1024" height="1024" width="1024">
<rect fill="white" height="1024" width="1024"></rect>
<path fill="#ABADB4" d="M632.806 369.186C640.143 356.132 656.764 352.389 669.818 359.049C656.439 356.603 643.473 361.318 632.806 369.186Z"></path>
<path fill="#ABADB4" d="M391.223 610.033C387.274 633.696 380.025 657.271 382.883 681.553C384.18 705.187 394.111 726.905 399.739 749.625C391.075 732.268 382.706 714.44 380.172 695.02C376.754 666.435 377.314 635.994 391.223 610.033Z"></path>
<path fill="#ABADB4" d="M728.195 697.348C733.116 673.979 725.395 650.847 721.712 627.92C736.623 661.514 738.391 701.916 721.034 734.979C723.775 722.485 726.751 710.049 728.195 697.348Z"></path>
<path fill="#ABADB4" d="M716.673 787.021C724.925 771.226 736.417 754.605 754.717 749.949C764.854 749.773 775.021 750.244 785.158 751.158C783.361 751.187 779.766 751.187 777.968 751.187C764.854 750.303 750.444 751.452 740.484 761.059C719.443 780.007 710.544 807.855 699.493 833.021C693.835 846.076 684.936 858.246 684.376 872.981C684.759 885.328 693.334 894.522 700.849 903.421C694.572 897.321 686.999 891.722 684.022 883.236C681.341 870.446 685.142 857.362 689.886 845.545C698.55 825.919 706.801 806.087 716.673 787.021Z"></path>
<path fill="#FDFDFD" d="M484.048 86.3767C504.058 73.6168 528.693 71.6128 551.856 72.0549C577.641 71.5244 602.63 82.2804 622.639 98.0166C636.813 109.598 654.082 116.493 670.967 123.094C677.598 126.071 682.431 118.998 687.057 115.462C704.237 98.1052 727.046 86.907 751.033 82.7225C784.686 77.8896 820.933 81.5732 849.871 100.639C888.445 125.835 906.038 174.281 904.682 218.897C906.421 256.115 894.751 294.159 871.088 323.068C865.342 330.14 859.006 336.682 852.788 343.313C863.603 366.652 881.402 385.865 891.981 409.352C900.616 425.648 905.301 445.127 898.877 463.102C891.481 483.524 893.278 507.629 878.544 525.016C865.696 540.516 853.643 557.195 837.199 569.16C822.465 580.417 803.635 583.776 788.016 593.53C779.529 598.952 768.803 601.31 761.642 608.382C764.501 623.942 771.72 638.44 773.695 654.294C776.966 671.445 775.374 689.038 777.585 706.277C790.639 713.055 805.904 714.057 818.899 721.1C842.091 732.533 857.503 756.491 861.305 781.746C864.458 804.024 862.837 827.422 853.849 848.256C841.767 877.106 820.284 900.504 798.979 922.871C786.219 936.691 769.274 946.711 750.827 950.483C723.686 954.432 694.689 950.984 671.056 936.456C664.013 932.654 657.117 925.552 648.453 928.322C626.411 933.096 603.632 935.041 581.265 931.564C569.271 930.032 557.307 925.228 545.166 928.205C527.043 931.888 508.36 934.894 489.913 931.859C481.308 930.768 472.939 927.821 464.245 927.762C452.664 933.479 442.704 942.467 429.973 945.944C402.332 954.255 370.653 953.076 345.399 938.165C329.132 929.59 316.196 916.358 302.257 904.689C295.744 898.854 286.55 899.09 278.417 898.264C239.135 895.701 200.355 879.729 172.124 851.999C144.423 825.919 124.679 790.586 121.202 752.366C120.171 736.04 117.607 718.212 125.829 703.242C128.127 697.819 132.665 692.574 131.31 686.356C126.89 658.066 124.856 627.242 138.176 600.897C147.635 580.152 165.641 563.708 186.711 555.221C204.421 548.06 223.871 548.532 242.642 548.119C232.299 527.079 215.619 508.189 213.91 483.878C212.702 465.902 205.954 447.573 211.818 429.833C221.572 397.329 247.828 373.194 259.498 341.574C264.125 332.734 253.928 327.017 249.39 320.887C210.227 280.486 198.174 217.305 217.888 164.91C229.057 136.503 249.155 110.924 276.708 96.9853C316.255 76.7699 366.233 78.037 404.247 101.317C414.797 107.24 423.284 116.435 434.335 121.533C444.944 120.118 455.287 116.346 464.658 111.189C472.084 103.763 474.707 92.1526 484.048 86.3767ZM544.017 102.614C548.437 107.063 553.182 111.248 557.779 115.58C538.624 111.101 517.554 104.176 498.989 114.46C500.403 124.421 510.393 128.192 517.642 133.379C499.284 135.471 481.19 139.538 463.833 145.815C450.985 150.235 438.991 156.895 425.878 160.519C400.063 135.118 365.32 114.077 327.806 117.024C293.682 118.763 262.681 142.573 249.921 173.898C227.996 227.266 252.661 292.303 300.076 323.274C290.853 350.798 280.892 378.557 263.83 402.338C254.96 416.66 241.375 429.538 240.284 447.307C244.705 445.893 249.184 444.449 253.663 443.005C246.768 458.329 244.528 475.244 246.827 491.864C250.51 491.599 254.223 491.333 257.966 491.068C260.294 509.221 269.075 525.871 281.658 539.043C286.727 539.22 293.004 536.803 296.894 541.371C317.05 560.083 341.273 573.875 366.999 583.423C374.632 585.927 382.382 590.466 390.722 588.697C392.342 596.654 385.859 602.607 383.089 609.473C372.186 630.867 369.563 655.149 369.858 678.871C356.626 667.791 347.933 652.674 336.647 639.855C308.74 608.353 268.869 588.638 227.318 583.364C216.415 582.362 205.07 582.627 195.021 587.342C171.328 597.096 159.806 624.737 160.955 649.078C159.629 671.504 169.442 692.22 175.837 713.172C167.703 710.962 158.509 711.552 153.117 718.919C148.195 751.776 159.894 785.312 179.462 811.568C204.51 844.779 245.353 863.58 286.403 865.996C295.715 866.586 305.204 866.822 314.368 869.061C333.847 887.921 353.09 909.787 380.378 916.977C409.405 924.049 442.527 912.704 458.941 887.155C459.56 886.241 460.768 884.444 461.358 883.53C466.043 891.781 473.381 898.647 483.164 899.915C506.356 903.598 532.141 903.952 552.681 890.927C566.531 896.32 580.941 900.858 595.94 901.152C619.309 902.508 646.214 901.624 662.863 882.617C683.049 920.543 741.397 933.804 773.076 902.95C788.429 887.626 803.281 871.478 814.833 853.06C828.035 831.548 835.667 803.995 826.06 779.624C822.023 759.674 802.309 746.148 783.007 743.378C771.838 739.989 757.074 745.146 748.882 734.92C738.804 722.278 742.929 705.246 742.517 690.423C744.285 656.74 733.47 622.763 714.433 595.18C714.64 593.707 715.023 590.76 715.2 589.287C750.768 578.767 786.602 563.59 812.505 536.126C811.68 539.809 810.943 543.552 810.265 547.324C830.805 540.605 841.944 519.328 848.427 500.115C851.727 500.616 854.998 501.117 858.358 501.677C866.933 479.517 864.045 454.203 853.378 433.31C858.358 437.494 863.309 441.738 868.583 445.657C871.118 429.184 858.623 416.159 850.873 403.016C835.137 381.563 824.469 357.193 812.416 333.647C812.505 332.203 812.741 329.256 812.858 327.812C822.613 321.712 833.251 316.555 840.971 307.685C869.556 279.278 876.245 235.694 869.939 197.326C865.136 172.484 853.731 147.642 832.927 132.318C809.263 114.814 777.319 113.517 749.589 119.941C723.215 125.953 701.732 144.223 686.232 165.735C673.472 162.081 661.862 155.451 649.396 151.001C636.43 145.785 622.02 142.514 611.706 132.465C593.347 115.934 569.595 100.846 544.017 102.614Z"></path>
<path fill="#CDCFD7" d="M515.462 457.356C535.471 452.965 558.81 449.576 577.169 460.892C560.785 462.13 544.312 462.483 527.898 461.983C523.153 462.307 519.352 459.507 515.462 457.356Z"></path>
<path fill="#211716" d="M617.393 601.369C645.949 597.332 674.887 594.503 702.587 586.016C706.624 588.904 710.632 591.88 714.433 595.181C733.47 622.763 744.285 656.74 742.517 690.423C742.929 705.246 738.804 722.278 748.882 734.92C757.074 745.146 771.838 739.989 783.007 743.378C773.459 745.116 763.999 747.268 754.717 749.949C736.417 754.605 724.924 771.226 716.673 787.021C706.801 806.087 698.55 825.919 689.886 845.545C685.142 857.362 681.34 870.446 684.022 883.236C686.998 891.723 694.572 897.321 700.848 903.421C693.334 894.522 684.759 885.328 684.375 872.981C693.511 880.79 701.88 891.221 714.374 893.491C730.936 896.408 748.794 893.196 762.85 883.736C771.249 878.079 776.73 869.297 782.476 861.164C786.985 854.209 793.763 847.195 792.348 838.208C791.228 826.243 781.121 818.051 772.339 811.126C775.345 807.531 778.351 803.936 781.386 800.341C783.301 803.346 785.187 806.382 787.044 809.505C791.494 817.285 798.389 830.723 809.381 824.652C827.445 817.609 822.848 794.918 826.06 779.624C835.667 803.995 828.035 831.548 814.833 853.06C803.281 871.478 788.429 887.626 773.076 902.95C741.397 933.804 683.049 920.543 662.863 882.617C660.27 881.232 657.647 880.053 655.054 878.874C654.966 858.069 664.631 839.386 670.879 820.055C679.395 796.569 688.531 773.171 694.395 748.859C693.422 749.714 691.448 751.423 690.446 752.307C692.185 738.781 701.556 728.408 707.832 716.856C714.109 705.334 719.237 693.193 725.042 681.406C726.103 686.68 727.223 691.985 728.195 697.348C726.751 710.049 723.775 722.485 721.034 734.979C738.391 701.916 736.623 661.514 721.712 627.92C720.74 625.179 719.797 622.527 718.883 619.846C718.058 621.496 716.378 624.796 715.553 626.447C696.428 618.903 672.765 606.997 653.787 621.201C629.652 638.735 610.675 663.017 597.237 689.539C589.516 703.978 585.184 719.832 579.379 735.068C579.025 732.71 578.289 728.025 577.935 725.697C584.123 704.391 592.699 683.851 602.335 663.901C607.787 655.827 613.179 647.694 618.631 639.649C627.059 627.478 636.312 615.868 643.886 603.137C633.424 603.255 622.727 602.901 612.62 605.966C601.569 609.178 591.785 615.396 581.295 619.875C592.051 611.624 603.602 603.284 617.393 601.369Z"></path>
<path fill="#FDFCFC" d="M425.465 380.826C431.771 381.769 440.023 380.709 443.382 387.604C447.596 395.325 438.814 401.071 434.099 405.904C425.406 408.114 418.275 404.814 413.501 397.417C417.361 391.759 421.31 386.219 425.465 380.826Z"></path>
<path fill="#F2F2F3" d="M484.756 636.879C488.115 634.698 492.035 632.93 496.042 634.639C513.517 639.973 530.403 648.165 548.968 649.138C566.06 650.906 582.739 645.867 598.504 639.826C604.899 637.998 613.18 633.254 618.631 639.649C613.18 647.694 607.787 655.827 602.335 663.901C582.945 686.563 566.472 713.438 563.054 743.643C560.637 763.534 555.922 783.043 550.382 802.256C544.43 774.173 548.378 744.321 536.797 717.475C531.67 702.888 524.745 688.331 511.896 678.989C503.321 664.667 494.716 650.316 484.756 636.879Z"></path>
<path fill="#FFFFFE" d="M630.507 386.455C633.66 383.184 636.902 380.031 640.291 376.966C640.497 379.471 640.762 382.005 641.057 384.569C644.74 384.303 648.483 384.068 652.225 383.861C654.671 386.307 657.235 388.753 659.416 391.582C664.779 407.584 640.291 418.192 629.682 406.994C630.124 400.128 630.242 393.262 630.507 386.455Z"></path>
<path fill="#362B29" d="M391.222 610.033C392.136 607.646 393.108 605.318 394.14 603.019C395.289 605.76 396.527 608.559 397.735 611.359C430.474 614.04 463.067 629.776 481.455 657.713C500.61 686.209 512.426 719.243 518.821 752.837C517.466 756.314 515.756 759.644 514.224 763.063C512.574 762.444 509.303 761.177 507.653 760.558C515.02 743.908 507.181 725.255 499.902 709.96C496.396 731.767 496.838 754.134 490.767 775.528C494.627 774.497 498.517 773.465 502.407 772.522C496.749 781.746 485.639 780.037 476.386 780.155C478.773 778.21 481.19 776.265 483.606 774.349C476.033 764.713 468.017 755.43 459.707 746.443C458.558 747.209 456.23 748.771 455.081 749.566C458.028 760.558 460.886 771.609 463.391 782.748C452.016 778.445 441.731 767.306 428.706 770.754C421.958 771.844 415.269 770.253 408.697 769.015C404.778 763.004 402.126 756.314 399.739 749.625C394.11 726.905 384.179 705.187 382.883 681.553C380.024 657.271 387.274 633.696 391.222 610.033Z"></path>
<path fill="#A4AFBD" d="M323.71 748.505C339.888 738.014 359.897 738.132 378.433 736.335C366.174 743.172 351.499 739.959 338.769 745.146C327.394 749.213 318.317 757.67 310.538 766.658C290.087 788.583 288.908 823.12 300.695 849.553C293.004 839.357 289.497 826.892 290.529 814.191C288.26 788.288 302.463 762.738 323.71 748.505Z"></path>
<path fill="#E1D5D7" d="M160.101 722.16C164.993 724.813 170.827 726.816 174.216 731.561C176.78 737.248 178.165 743.407 180.08 749.36C173.568 740.166 166.112 731.649 160.101 722.16Z"></path>
<path fill="#382A28" d="M387.981 302.587C402.627 286.173 423.108 273.001 445.769 273.325C460.857 272.971 474.236 282.018 483.518 293.216C496.603 315.082 498.665 341.368 500.021 366.239C500.699 388.812 498.282 411.592 491.357 433.163C499.815 432.691 508.272 432.19 516.729 431.984C496.838 434.4 479.687 444.832 461.505 452.376C462.36 448.28 463.274 444.272 464.128 440.235C464.128 441.856 464.069 445.068 464.04 446.688C478.686 433.84 476.888 413.006 474 395.649C472.703 374.815 453.873 359.579 433.569 359.196C437.813 357.782 442.056 356.308 446.329 354.835C429.974 352.124 409.818 357.016 405.014 375.05C400.653 384.48 399.68 395.03 400.682 405.285C401.124 414.862 402.156 424.41 402.922 433.988C401.448 434.194 398.502 434.547 397.058 434.754H394.111C394.229 425.972 394.258 417.22 394.229 408.468C393.374 408.468 391.665 408.438 390.781 408.438C390.928 417.161 391.223 425.884 391.842 434.636C370.3 437.052 349.26 444.125 332.58 458.299C331.755 447.101 330.724 435.579 334.113 424.705C337.089 413.036 343.366 402.692 348.346 391.877C354.093 379.471 353.798 365.355 358.248 352.536C365.055 334.295 374.72 316.939 387.981 302.587Z"></path>
<path fill="#5B5052" d="M544.017 102.614C569.595 100.846 593.347 115.934 611.706 132.465C622.02 142.514 636.43 145.785 649.396 151.001C661.861 155.451 673.472 162.081 686.232 165.736C684.523 167.946 682.814 170.156 681.163 172.425C677.421 170.775 673.649 169.301 669.995 167.71C656.439 159.842 641.941 153.978 627.118 149.115C615.242 145.667 607.374 135.619 597.856 128.487C586.923 119.529 573.927 113.635 560.696 109.009C565.617 115.226 570.745 121.297 575.489 127.662C553.388 121.533 530.815 110.777 507.417 117.26C509.421 118.586 513.428 121.208 515.432 122.535C523.86 127.868 532.436 133.026 540.687 138.683C529.371 139.302 518.055 139.656 506.827 141.011C480.453 144.607 455.464 154.626 431.859 166.561C429.826 164.527 427.852 162.523 425.877 160.52C438.991 156.895 450.985 150.235 463.833 145.815C481.19 139.538 499.283 135.471 517.642 133.379C510.393 128.193 500.403 124.421 498.989 114.46C517.554 104.176 538.624 111.101 557.779 115.58C553.182 111.248 548.437 107.064 544.017 102.614Z"></path>
<path fill="#F3F2F3" d="M560.696 109.009C573.928 113.635 586.923 119.529 597.856 128.487C607.374 135.619 615.242 145.667 627.118 149.115C641.941 153.978 656.439 159.842 669.995 167.71C679.955 182.326 693.216 194.084 705.711 206.461C737.537 239.878 761.407 279.779 782.977 320.298C795.472 345.317 804.814 371.927 819.872 395.619C826.768 414.951 831.748 435.284 834.194 455.735C821.964 463.279 811.326 472.945 800.659 482.493C788.989 493.072 774.579 499.761 761.318 508.042C753.509 512.521 745.051 515.645 736.329 517.796C718.618 521.627 704.621 533.856 688.354 541.135C666.312 551.361 644.151 561.321 622.492 572.283C600.803 582.214 579.261 595.357 554.685 595.564C530.668 595.711 507.712 587.371 485.168 579.975C456.319 569.307 426.939 560.172 398.266 549.062C365.909 536.803 333.612 524.368 300.548 514.172C279.949 500.587 274.144 475.656 266.512 453.879C263.241 460.922 260.147 468.053 256.964 475.155C255.402 478.397 253.722 481.638 252.102 484.88C249.361 461.334 260.441 439.793 271.934 420.167C264.95 425.147 257.907 430.068 250.628 434.577C260.147 417.515 272.7 402.338 281.747 384.981C293.21 364.619 299.782 342.075 307.768 320.239C329.751 256.882 371.449 198.121 431.86 166.561C455.464 154.626 480.453 144.607 506.828 141.011C523.566 139.066 542.16 147.494 557.602 138.801C557.514 133.32 552.416 130.373 548.202 128.134C538.094 122.918 526.483 122.888 515.432 122.535C513.429 121.208 509.421 118.586 507.417 117.26C530.815 110.777 553.388 121.533 575.489 127.662C570.745 121.297 565.618 115.226 560.696 109.009ZM639.642 244.858C615.95 251.518 601.009 274.209 594.232 296.635C581.324 338.068 588.426 381.887 591.668 424.204C587.719 425.501 583.8 426.856 579.939 428.271C581 428.359 583.063 428.595 584.124 428.713C591.108 435.019 598.534 441.296 608.082 443.182C612.855 444.685 617.512 446.659 622.256 448.457C625.203 451.021 628.179 453.732 631.774 455.588C644.947 465.401 655.614 477.984 667.402 489.359C679.661 501.353 696.723 507.983 713.933 506.922C731.437 507.836 747.792 497.846 758.371 484.497C768.302 470.794 771.308 452.906 767.359 436.551C765.355 425.206 762.497 414.037 759.108 403.075C762.349 382.624 760.847 361.613 756.014 341.545C747.792 308.511 725.396 280.957 699.11 260.27C682.372 247.864 660.595 238.611 639.642 244.858ZM374.985 298.55C364.76 314.522 356.332 333.117 358.247 352.536C353.798 365.355 354.092 379.471 348.346 391.877C343.366 402.692 337.089 413.036 334.113 424.705C330.724 435.579 331.755 447.101 332.58 458.299C333.258 466.403 332.344 475.951 338.798 482.11C356.391 500.763 386.508 502.708 408.638 491.51C426.997 481.786 443.176 468.259 457.851 453.673C458.647 453.938 460.238 454.468 461.004 454.704L461.505 452.376C479.687 444.832 496.838 434.4 516.729 431.984C508.272 432.19 499.814 432.691 491.357 433.163C498.282 411.592 500.698 388.812 500.02 366.239C498.665 341.368 496.602 315.082 483.518 293.216C481.868 284.11 481.219 273.797 474.353 266.872C464.098 256.646 448.686 251.636 434.453 254.848C409.523 260.123 388.954 277.863 374.985 298.55ZM509.539 453.407C504.028 456.914 497.015 464.841 502.319 471.295C510.246 486.677 528.458 490.096 543.428 495.076C543.87 496.314 544.783 498.789 545.225 500.027C531.522 505.832 518.114 513.671 502.997 514.938C491.504 514.82 480.336 510.517 468.784 512.227L467.045 511.961C462.89 506.156 458.057 500.94 453.283 495.754C456.466 490.597 459.619 485.44 462.595 480.165C455.081 484.172 448.657 489.772 442.94 496.048C436.133 503.533 426.968 508.13 418.923 514.054C430.416 512.993 439.934 506.186 448.951 499.585C453.49 503.327 456.908 509.457 462.654 511.372C469.521 520.213 480.011 525.34 486.848 534.269C493.361 542.609 500.168 550.889 509.244 556.606L509.775 558.581C529.666 572.166 556.895 571.871 576.874 558.551C589.428 548.709 598.77 535.654 609.761 524.309C622.02 516.676 633.042 507.453 643.179 497.168C649.603 502.296 656.292 507.276 664.16 510.046C650.487 498.229 637.786 485.381 624.879 472.827C627.177 477.336 629.977 481.638 633.307 485.558C626.706 494.545 620.959 505.743 609.732 509.633C598.327 514.378 585.921 511.519 574.134 510.576C582.532 502.797 594.85 505.301 605.253 503.386C592.257 499.555 578.731 498.229 565.47 495.813C565.293 493.927 564.91 490.125 564.733 488.239C577.994 483.731 594.408 472.267 588.515 456.059C580.558 446.217 566.148 447.337 554.861 445.156C539.626 445.834 523.359 446.217 509.539 453.407Z"></path>
<path fill="#241A19" d="M249.92 173.898C262.68 142.573 293.681 118.763 327.806 117.024C365.319 114.077 400.063 135.118 425.877 160.52C427.852 162.523 429.826 164.527 431.859 166.561C371.449 198.121 329.751 256.882 307.767 320.239C305.174 321.212 302.61 322.243 300.076 323.274C252.661 292.303 227.996 227.266 249.92 173.898ZM283.102 141.689C239.164 175.696 239.135 248.395 277.65 286.35C276.442 283.845 275.263 281.37 274.055 278.924C284.016 270.496 280.715 256.823 281.098 245.389C279.094 215.979 295.862 185.185 323.327 173.338C336.47 167.091 351.587 167.386 364.936 161.757C372.215 159.017 373.954 150.883 376.429 144.43C380.348 144.548 384.238 144.665 388.216 144.813C385.535 141.777 382.558 138.683 378.374 138.182C350.084 118.645 309.683 119.558 283.102 141.689ZM312.659 188.898C283.573 212.414 283.249 262.687 313.72 285.26C322.384 272.382 328.808 258.208 336.97 245.035C331.755 241.794 326.568 238.582 321.411 235.311C327.334 236.431 333.287 237.55 339.299 238.375C339.092 236.843 338.709 233.808 338.532 232.275C341.744 232.069 344.986 231.863 348.286 231.657C346.518 227.561 344.691 223.582 342.894 219.604C346.607 219.781 350.379 219.958 354.151 220.164C361.901 211.382 370.388 203.308 378.433 194.791C363.08 174.841 331.106 171.305 312.659 188.898Z"></path>
<path fill="#1F1414" d="M749.589 119.941C777.319 113.517 809.263 114.814 832.927 132.318C853.731 147.642 865.136 172.484 869.939 197.326C876.245 235.694 869.556 279.278 840.971 307.685C833.251 316.555 822.613 321.712 812.859 327.812C812.741 329.256 812.505 332.203 812.416 333.647C811.827 332.527 810.619 330.288 810.029 329.197C808.762 329.522 806.228 330.199 804.961 330.553C785.924 283.698 762.703 236.696 724.423 202.424C711.104 190.99 696.959 180.175 681.164 172.425C682.814 170.156 684.523 167.946 686.232 165.735C701.733 144.223 723.215 125.953 749.589 119.941ZM748.529 126.572C726.633 133.261 704.06 146.758 695.367 169.006C696.664 167.916 699.316 165.735 700.642 164.645C705.269 170.244 710.544 176.02 718.235 176.992C737.743 183.092 756.308 170.48 775.875 171.747C793.586 171.334 808.998 182.297 820.756 194.556C830.363 204.369 835.873 219.957 851.02 222.521C852.67 216.127 854.556 209.82 855.706 203.367C857.385 218.572 856.295 233.896 857.091 249.19C867.581 233.926 865.755 214.211 862.366 196.972C857.415 174.281 847.69 150.765 828.035 137.004C805.403 120.354 774.785 120 748.529 126.572ZM742.429 191.55C738.775 194.556 735.209 197.709 731.761 200.921C742.311 215.832 756.633 227.177 769.923 239.466C770.748 243.385 771.514 247.304 772.369 251.283C775.374 252.108 778.41 252.933 781.474 253.817C782.27 254.789 783.802 256.705 784.569 257.648C783.036 257.235 779.942 256.41 778.38 255.968C780.738 266.135 785.747 275.358 791.022 284.287C796.857 281.753 802.633 279.013 808.261 276.036C816.807 267.225 825.5 257.383 827.504 244.829C828.624 235.9 828.801 226.647 826.561 217.924C820.756 199.919 804.814 186.363 787.015 180.941C771.632 176.02 754.304 181.147 742.429 191.55Z"></path>
<path fill="#D0CFD3" d="M515.432 122.534C526.483 122.888 538.094 122.918 548.202 128.134C552.416 130.373 557.513 133.32 557.602 138.801C542.16 147.494 523.566 139.066 506.828 141.011C518.055 139.656 529.371 139.302 540.687 138.683C532.436 133.025 523.86 127.868 515.432 122.534Z"></path>
<path fill="#6C6769" d="M748.529 126.572C774.785 120 805.403 120.354 828.035 137.004C847.69 150.765 857.415 174.281 862.366 196.972C865.754 214.211 867.581 233.926 857.091 249.19C856.295 233.896 857.385 218.572 855.706 203.367C853.672 181.236 846.099 157.219 827.534 143.516C800.865 125.953 764.913 124.096 736.27 138.064C722.567 144.194 711.781 154.891 700.642 164.645C699.316 165.735 696.664 167.916 695.367 169.006C704.06 146.758 726.633 133.261 748.529 126.572Z"></path>
<path fill="#787173" d="M283.102 141.689C309.683 119.558 350.084 118.645 378.374 138.182C357.952 134.263 337.413 124.833 316.372 130.226C283.043 138.33 259.733 170.981 256.168 204.133C252.602 230.389 261.001 256.41 274.055 278.924C275.263 281.37 276.442 283.845 277.65 286.35C239.135 248.395 239.164 175.696 283.102 141.689Z"></path>
<path fill="#392B29" d="M316.372 130.226C337.413 124.833 357.953 134.263 378.374 138.182C382.559 138.683 385.535 141.777 388.217 144.813C384.239 144.665 380.349 144.547 376.429 144.43C373.954 150.883 372.215 159.016 364.937 161.757C351.587 167.386 336.47 167.091 323.327 173.338C295.862 185.185 279.095 215.979 281.099 245.389C280.716 256.823 284.016 270.496 274.056 278.924C261.001 256.41 252.603 230.389 256.168 204.133C259.734 170.981 283.044 138.33 316.372 130.226Z"></path>
<path fill="#352927" d="M736.269 138.064C764.913 124.096 800.865 125.953 827.534 143.516C846.099 157.219 853.672 181.236 855.706 203.367C854.556 209.82 852.67 216.126 851.02 222.521C835.873 219.957 830.363 204.369 820.756 194.556C808.998 182.297 793.586 171.334 775.875 171.747C756.308 170.48 737.743 183.092 718.235 176.992C710.543 176.02 705.269 170.244 700.642 164.645C711.781 154.891 722.567 144.194 736.269 138.064Z"></path>
<path fill="#D1D2D7" d="M669.995 167.71C673.649 169.301 677.421 170.774 681.164 172.425C696.959 180.175 711.104 190.99 724.423 202.424C762.703 236.696 785.924 283.698 804.961 330.553C818.516 366.682 840.205 398.714 860.863 431.041C853.466 426.473 846.07 421.905 838.437 417.78C845.244 432.043 854.085 445.834 856.56 461.718C857.886 471.383 856.884 481.226 855.883 490.921C852.346 484.526 849.046 478.102 845.716 471.648C844.626 481.432 843.565 491.275 841.178 500.881C838.26 485.911 837.583 470.588 834.194 455.735C831.748 435.284 826.768 414.951 819.872 395.619C804.813 371.927 795.472 345.317 782.977 320.298C761.406 279.779 737.537 239.878 705.711 206.461C693.216 194.084 679.955 182.326 669.995 167.71Z"></path>
<path fill="#D38AA1" d="M312.66 188.898C331.107 171.305 363.08 174.841 378.434 194.791C370.389 203.308 361.902 211.382 354.152 220.164C350.38 219.957 346.608 219.781 342.895 219.604C344.692 223.582 346.519 227.56 348.287 231.657C344.987 231.863 341.745 232.069 338.533 232.275C338.71 233.808 339.093 236.843 339.299 238.375C333.288 237.55 327.335 236.43 321.412 235.311C326.569 238.582 331.755 241.794 336.971 245.035C328.809 258.208 322.385 272.382 313.721 285.26C283.25 262.687 283.574 212.414 312.66 188.898Z"></path>
<path fill="#D188A2" d="M742.428 191.55C754.304 181.147 771.632 176.02 787.014 180.941C804.813 186.363 820.756 199.919 826.561 217.924C828.8 226.647 828.624 235.9 827.504 244.829C825.5 257.383 816.807 267.225 808.261 276.036C806.67 275.683 803.517 274.975 801.925 274.622C803.074 265.044 802.456 255.202 795.737 247.746C793.497 252.815 791.376 257.942 789.283 263.099C787.692 261.243 786.13 259.445 784.568 257.648C783.802 256.705 782.27 254.789 781.474 253.817C778.409 252.933 775.374 252.108 772.368 251.283C771.514 247.304 770.748 243.385 769.922 239.466C769.363 236.99 768.802 234.515 768.301 232.098C771.042 229.122 773.783 226.146 776.582 223.199C770.512 223.376 764.412 223.582 758.371 223.847C761.17 220.311 763.999 216.775 766.858 213.298C757.369 208.877 747.85 204.486 738.332 200.243C739.629 197.296 740.955 194.379 742.428 191.55Z"></path>
<path fill="#B86C8A" d="M731.761 200.921C735.209 197.709 738.775 194.556 742.429 191.55C740.955 194.379 739.629 197.296 738.333 200.243C747.851 204.487 757.369 208.877 766.858 213.298C764 216.775 761.171 220.311 758.371 223.847C764.412 223.582 770.512 223.376 776.583 223.199C773.783 226.146 771.043 229.122 768.302 232.099C768.803 234.515 769.363 236.99 769.923 239.466C756.633 227.177 742.311 215.832 731.761 200.921Z"></path>
<path fill="#D3D3DB" d="M639.643 244.858C660.595 238.611 682.372 247.864 699.11 260.27C725.396 280.957 747.792 308.511 756.014 341.545C760.847 361.613 762.349 382.624 759.108 403.075C750.533 378.852 751.299 352.065 739.511 328.873C726.899 303.56 704.915 282.578 678.688 271.881C659.858 263.925 635.488 266.93 622.05 283.285C605.872 303.059 602.1 329.728 601.245 354.481C602.335 380.355 604.604 406.464 612.119 431.394C602.748 430.628 593.436 429.715 584.124 428.713C583.063 428.595 581 428.359 579.939 428.271C583.8 426.856 587.719 425.501 591.668 424.204C588.426 381.887 581.324 338.067 594.232 296.635C601.009 274.209 615.95 251.518 639.643 244.858Z"></path>
<path fill="#BE7892" d="M795.737 247.746C802.456 255.202 803.075 265.044 801.926 274.622C803.517 274.975 806.67 275.683 808.262 276.036C802.633 279.013 796.857 281.753 791.022 284.287C785.747 275.358 780.738 266.135 778.38 255.968C779.942 256.41 783.036 257.235 784.569 257.648C786.131 259.445 787.692 261.243 789.284 263.099C791.376 257.942 793.498 252.815 795.737 247.746Z"></path>
<path fill="#D3D4DB" d="M374.985 298.55C388.953 277.863 409.522 260.123 434.453 254.848C448.686 251.636 464.098 256.646 474.353 266.872C481.219 273.797 481.868 284.11 483.518 293.216C474.235 282.018 460.857 272.971 445.769 273.325C423.107 273.001 402.627 286.173 387.981 302.587C374.72 316.939 365.054 334.295 358.247 352.536C356.332 333.117 364.76 314.522 374.985 298.55Z"></path>
<path fill="#362A29" d="M622.049 283.285C635.487 266.93 659.857 263.925 678.688 271.881C704.915 282.578 726.898 303.56 739.511 328.873C751.298 352.065 750.532 378.852 759.107 403.075C762.496 414.037 765.355 425.206 767.359 436.551C767.742 444.478 767.565 452.464 767.477 460.45C753.361 450.402 737.802 441.502 720.297 439.38C713.284 438.32 706.27 437.465 699.286 436.581C701.909 432.603 704.591 428.683 707.272 424.764C705.151 423.821 703.058 422.937 700.996 422.053C700.76 417.456 700.583 412.859 700.406 408.321C699.964 398.508 700.583 387.781 694.719 379.324C688.53 370.395 679.366 363.882 669.818 359.049C656.763 352.389 640.143 356.132 632.805 369.186C626.322 377.791 622.344 388.105 620.694 398.714C617.069 416.159 619.928 434.106 627.177 450.225C625.969 449.783 623.493 448.899 622.256 448.457C617.511 446.659 612.855 444.685 608.081 443.182C609.672 442.209 612.855 440.264 614.446 439.321C613.621 436.64 612.855 434.017 612.118 431.394C604.604 406.464 602.335 380.355 601.245 354.482C602.099 329.728 605.871 303.059 622.049 283.285Z"></path>
<path fill="#594C4C" d="M300.077 323.274C302.611 322.243 305.175 321.212 307.768 320.239C299.782 342.075 293.21 364.619 281.747 384.981C272.7 402.338 260.147 417.515 250.628 434.577C257.907 430.068 264.95 425.147 271.934 420.167C260.442 439.793 249.361 461.335 252.102 484.88C253.723 481.638 255.402 478.397 256.964 475.155C258.202 474.566 260.648 473.417 261.885 472.827C261.856 493.514 267.75 514.201 281.512 529.996C281.541 525.37 281.57 520.773 281.629 516.175C300.578 538.866 323.858 558.345 351.381 569.661C366.97 576.498 383.237 581.625 399.268 587.371C396.38 587.754 393.521 588.197 390.722 588.698C382.382 590.466 374.632 585.928 367 583.423C341.274 573.875 317.051 560.084 296.894 541.371C293.004 536.803 286.727 539.22 281.659 539.043C269.076 525.871 260.294 509.221 257.966 491.068C254.224 491.333 250.511 491.599 246.827 491.864C244.528 475.244 246.768 458.329 253.664 443.005C249.185 444.449 244.705 445.893 240.285 447.307C241.375 429.538 254.96 416.66 263.83 402.338C280.893 378.557 290.853 350.798 300.077 323.274Z"></path>
<path fill="#4B4446" d="M804.961 330.553C806.228 330.199 808.762 329.521 810.029 329.197C810.619 330.288 811.827 332.527 812.416 333.647C824.469 357.192 835.136 381.563 850.873 403.016C858.623 416.159 871.118 429.184 868.583 445.657C863.308 441.738 858.358 437.494 853.378 433.31C864.045 454.203 866.933 479.516 858.358 501.677C854.998 501.117 851.727 500.616 848.427 500.115C841.944 519.328 830.805 540.605 810.265 547.324C810.943 543.552 811.679 539.809 812.505 536.126C786.602 563.59 750.768 578.766 715.2 589.287C715.023 590.76 714.64 593.707 714.433 595.18C710.632 591.88 706.624 588.904 702.587 586.016C734.325 576.998 766.593 566.154 792.643 545.231C806.08 534.917 815.628 520.772 826.031 507.659C824.498 516.765 822.553 525.811 820.903 534.917C829.773 525.016 837.641 513.877 841.178 500.881C843.565 491.274 844.625 481.432 845.716 471.648C849.046 478.102 852.346 484.526 855.882 490.921C856.884 481.226 857.886 471.383 856.56 461.717C854.085 445.834 845.244 432.043 838.437 417.78C846.069 421.905 853.466 426.473 860.863 431.041C840.205 398.714 818.516 366.681 804.961 330.553Z"></path>
<path fill="#675C5F" d="M405.014 375.05C409.817 357.016 429.974 352.124 446.329 354.835C442.056 356.308 437.812 357.782 433.569 359.196C422.931 362.173 413.442 368.037 405.014 375.05Z"></path>
<path fill="#070404" d="M405.014 375.05C413.442 368.037 422.931 362.173 433.569 359.196C453.873 359.579 472.703 374.815 474 395.649C468.224 386.749 462.212 376.789 452.016 372.575C442.056 369.569 430.681 368.833 421.546 374.579C410.024 380.797 404.719 393.527 400.682 405.285C399.68 395.03 400.653 384.48 405.014 375.05Z"></path>
<path fill="#0A0708" d="M632.806 369.186C643.473 361.318 656.439 356.603 669.818 359.049C679.366 363.882 688.531 370.395 694.719 379.323C700.583 387.781 699.964 398.508 700.406 408.321C694.483 394.353 686.232 379.441 671.41 373.548C661.243 369.068 649.308 370.807 640.291 376.966C636.902 380.031 633.66 383.184 630.507 386.455C626.912 390.286 623.67 394.411 620.694 398.714C622.344 388.105 626.323 377.791 632.806 369.186Z"></path>
<path fill="#B8BAC5" d="M421.546 374.579C430.681 368.833 442.056 369.569 452.016 372.575C450.867 372.693 448.568 372.958 447.419 373.076C439.61 373.931 431.801 375.993 425.465 380.826C421.31 386.219 417.361 391.759 413.501 397.417C405.957 407.761 407.755 421.051 408.963 432.986C406.929 433.31 404.925 433.663 402.922 433.987C402.155 424.41 401.124 414.862 400.682 405.285C404.719 393.527 410.023 380.797 421.546 374.579Z"></path>
<path fill="#75797E" d="M452.016 372.575C462.212 376.789 468.224 386.749 474 395.649C476.888 413.006 478.685 433.84 464.039 446.688C464.069 445.068 464.128 441.856 464.128 440.235C464.776 436.522 465.513 432.868 466.279 429.214C460.592 429.538 454.934 429.803 449.276 430.039C448.804 423.909 448.451 417.78 448.274 411.68C450.69 411.297 455.523 410.56 457.939 410.177C451.957 414.42 451.604 421.581 451.928 428.271C455.788 427.239 459.766 426.414 463.538 424.97C467.016 420.52 464.57 414.45 464.599 409.381C465.896 409.175 468.489 408.733 469.756 408.527C469.992 392.997 458.912 381.799 447.419 373.076C448.568 372.958 450.867 372.693 452.016 372.575Z"></path>
<path fill="#818285" d="M640.291 376.966C649.308 370.807 661.243 369.068 671.41 373.548C686.232 379.441 694.483 394.352 700.406 408.321C700.583 412.859 700.76 417.456 700.996 422.053C703.059 422.937 705.151 423.821 707.273 424.764C704.591 428.683 701.909 432.603 699.287 436.581C706.271 437.465 713.284 438.319 720.298 439.38C709.601 438.496 698.815 438.82 688.206 440.323C691.536 431.778 696.104 422.908 694.395 413.478C692.067 399.539 684.287 385.571 671.321 379.029C664.602 375.581 656.881 376.819 649.691 376.996C650.31 378.705 651.607 382.123 652.225 383.862C648.483 384.068 644.74 384.304 641.057 384.569C640.762 382.005 640.497 379.471 640.291 376.966Z"></path>
<path fill="#050505" d="M425.465 380.826C431.801 375.994 439.61 373.931 447.419 373.076C458.912 381.799 469.992 392.997 469.756 408.527C468.489 408.733 465.896 409.175 464.599 409.381C462.949 409.588 459.619 410 457.94 410.177C455.523 410.56 450.69 411.297 448.274 411.68C448.451 417.78 448.804 423.909 449.276 430.039C454.934 429.803 460.592 429.538 466.279 429.214C465.513 432.868 464.776 436.522 464.128 440.235C463.273 444.272 462.36 448.28 461.505 452.376L461.004 454.704C460.238 454.468 458.647 453.938 457.851 453.673C445.563 449.724 433.864 444.007 421.398 440.677C419.719 431.365 418.216 422.023 416.919 412.682C422.666 410.501 428.471 408.409 434.099 405.904C438.814 401.071 447.596 395.325 443.382 387.604C440.023 380.708 431.771 381.769 425.465 380.826Z"></path>
<path fill="#050405" d="M649.691 376.996C656.881 376.819 664.602 375.581 671.321 379.029C684.287 385.571 692.067 399.539 694.395 413.478C696.104 422.908 691.536 431.778 688.206 440.323C673.708 442.622 660.093 448.28 646.066 452.288C642.029 452.7 638.022 453.054 634.014 453.378C626.529 439.263 621.961 422.023 629.682 406.995C640.291 418.193 664.779 407.584 659.416 391.582C657.235 388.753 654.671 386.307 652.225 383.862C651.607 382.123 650.31 378.705 649.691 376.996ZM661.803 423.291C664.661 422.966 667.579 422.701 670.496 422.436C671.056 425.766 671.645 429.096 672.264 432.485C676.802 432.043 682.873 434.223 685.702 429.302C690.446 425 688.295 418.281 688.56 412.711C680.869 413.625 673.62 416.248 666.989 420.137C664.75 417.014 662.539 413.92 660.329 410.884C661.184 414.951 661.567 419.106 661.803 423.291Z"></path>
<path fill="#71676C" d="M620.694 398.714C623.67 394.411 626.912 390.286 630.507 386.455C630.242 393.262 630.124 400.128 629.682 406.995C621.961 422.023 626.529 439.263 634.014 453.378C638.022 453.054 642.029 452.7 646.066 452.288C641.322 453.525 636.548 454.675 631.774 455.588C628.179 453.732 625.203 451.021 622.256 448.457C623.493 448.899 625.969 449.783 627.177 450.225C619.928 434.106 617.069 416.159 620.694 398.714Z"></path>
<path fill="#34353A" d="M408.963 432.986C407.754 421.051 405.957 407.761 413.501 397.417C418.275 404.814 425.406 408.114 434.099 405.904C428.471 408.409 422.665 410.501 416.919 412.682C418.216 422.023 419.718 431.365 421.398 440.677C413.294 438.496 405.19 436.551 397.057 434.754C398.501 434.547 401.448 434.194 402.921 433.987C404.925 433.663 406.929 433.31 408.963 432.986Z"></path>
<path fill="#C88695" d="M390.78 408.438C391.664 408.438 393.374 408.468 394.228 408.468C394.258 417.22 394.228 425.972 394.11 434.754H397.057C405.19 436.551 413.294 438.496 421.398 440.677C433.863 444.007 445.562 449.724 457.851 453.672C443.175 468.259 426.997 481.786 408.638 491.51C386.507 502.708 356.39 500.763 338.798 482.11C332.344 475.951 333.258 466.403 332.58 458.299C349.259 444.125 370.3 437.052 391.841 434.636C391.222 425.884 390.928 417.161 390.78 408.438Z"></path>
<path fill="#F5F6FA" d="M457.939 410.177C459.619 410 462.949 409.588 464.599 409.381C464.57 414.45 467.016 420.52 463.538 424.97C459.766 426.414 455.788 427.239 451.928 428.271C451.604 421.581 451.957 414.42 457.939 410.177Z"></path>
<path fill="#E1DDDE" d="M661.803 423.29C661.567 419.106 661.184 414.951 660.329 410.884C662.539 413.92 664.75 417.014 666.989 420.137C673.62 416.247 680.869 413.625 688.56 412.711C688.295 418.281 690.446 425 685.702 429.302C682.873 434.223 676.802 432.043 672.264 432.485C671.645 429.096 671.056 425.766 670.496 422.436C667.579 422.701 664.661 422.966 661.803 423.29Z"></path>
<path fill="#BFBCC0" d="M584.124 428.713C593.436 429.715 602.748 430.628 612.119 431.394C612.855 434.017 613.622 436.64 614.447 439.321C612.855 440.264 609.673 442.209 608.081 443.182C598.534 441.296 591.108 435.019 584.124 428.713Z"></path>
<path fill="#D08998" d="M767.359 436.551C771.308 452.906 768.302 470.794 758.371 484.497C747.792 497.846 731.437 507.836 713.933 506.922C696.723 507.983 679.661 501.353 667.402 489.359C655.614 477.984 644.947 465.401 631.774 455.588C636.548 454.675 641.322 453.525 646.067 452.288C660.094 448.28 673.708 442.622 688.207 440.323C698.815 438.82 709.601 438.496 720.298 439.38C737.802 441.502 753.362 450.401 767.477 460.45C767.565 452.464 767.742 444.478 767.359 436.551Z"></path>
<path fill="#1B1717" d="M509.539 453.407C523.36 446.217 539.626 445.834 554.861 445.156C566.148 447.337 580.558 446.217 588.515 456.06C594.408 472.267 577.994 483.731 564.734 488.239C558.339 490.626 551.915 492.866 545.579 495.282C547.2 500.734 548.997 506.215 551.06 511.578C550.382 511.225 549.027 510.488 548.379 510.134C547.288 506.716 546.257 503.357 545.225 500.027C544.783 498.789 543.87 496.314 543.428 495.076C528.458 490.096 510.246 486.677 502.319 471.295C497.015 464.841 504.028 456.914 509.539 453.407ZM515.462 457.356C519.352 459.507 523.153 462.307 527.898 461.983C544.312 462.484 560.785 462.13 577.169 460.892C558.81 449.576 535.471 452.965 515.462 457.356Z"></path>
<path fill="#C5C7D1" d="M266.512 453.879C274.144 475.656 279.949 500.586 300.548 514.171C325.125 536.332 357.511 545.29 387.893 556.37C417.155 567.009 447.596 574.11 476.505 585.78C509.185 598.717 545.107 606.821 580.234 600.78C593.76 598.599 605.783 591.762 617.541 585.132C648.63 567.215 684.523 559.877 715.553 541.754C732.468 532.913 747.703 521.362 761.318 508.042C774.579 499.761 788.989 493.072 800.659 482.493C811.326 472.945 821.964 463.279 834.194 455.735C837.583 470.587 838.26 485.911 841.178 500.881C837.642 513.877 829.773 525.016 820.903 534.917C822.554 525.811 824.499 516.765 826.031 507.659C815.629 520.772 806.081 534.917 792.643 545.231C766.593 566.154 734.325 576.998 702.587 586.016C674.887 594.503 645.949 597.332 617.394 601.369C603.602 603.284 592.051 611.624 581.295 619.875C591.785 615.396 601.569 609.178 612.62 605.966C622.727 602.901 633.424 603.255 643.886 603.137C636.312 615.867 627.059 627.478 618.631 639.649C613.18 633.254 604.899 637.998 598.504 639.825C582.739 645.866 566.059 650.905 548.968 649.137C530.402 648.165 513.517 639.973 496.042 634.639C492.034 632.93 488.115 634.698 484.756 636.878C477.978 627.891 471.524 618.608 466.367 608.589C489.736 611.064 511.101 621.761 534.174 625.68C513.281 617.989 492.86 608.559 470.905 604.286C446.859 599.306 422.99 593.677 399.267 587.371C383.237 581.625 366.97 576.497 351.381 569.661C323.857 558.345 300.577 538.866 281.629 516.175C281.57 520.772 281.541 525.369 281.511 529.996C267.749 514.201 261.856 493.514 261.885 472.827C260.647 473.416 258.202 474.566 256.964 475.155C260.146 468.053 263.241 460.922 266.512 453.879Z"></path>
<path fill="#3E1A1E" d="M624.879 472.827C637.786 485.381 650.487 498.229 664.16 510.046C656.292 507.276 649.603 502.296 643.179 497.168C633.041 507.453 622.02 516.676 609.761 524.309C598.769 535.654 589.428 548.709 576.874 558.551C575.755 557.873 573.515 556.518 572.395 555.869C573.485 554.75 575.666 552.54 576.786 551.42C580.97 546.734 584.713 541.666 588.544 536.686C572.896 531.47 557.072 524.839 540.275 525.517C526.218 526.224 512.603 530.143 498.93 533.09C503.38 540.428 507.299 548.178 509.244 556.606C500.168 550.889 493.361 542.609 486.848 534.269C480.011 525.34 469.52 520.213 462.654 511.372C463.745 511.519 465.955 511.814 467.045 511.961L468.784 512.226C479.216 517.266 489.795 523.101 501.7 523.425C518.144 523.543 533.939 517.59 548.378 510.134C549.027 510.488 550.382 511.225 551.06 511.578L553.359 512.403C571.275 519.594 591.697 523.867 610.292 516.529C621.608 511.843 634.574 505.508 639.289 493.426C637.373 490.714 635.369 488.092 633.307 485.557C629.977 481.638 627.177 477.336 624.879 472.827Z"></path>
<path fill="#675354" d="M442.94 496.048C448.656 489.771 455.081 484.172 462.595 480.165C459.619 485.439 456.466 490.597 453.283 495.754C458.057 500.94 462.89 506.156 467.045 511.961C465.954 511.814 463.744 511.519 462.654 511.372C456.908 509.456 453.489 503.327 448.951 499.584C439.934 506.185 430.415 512.993 418.923 514.053C426.968 508.13 436.132 503.533 442.94 496.048Z"></path>
<path fill="#BDBCC5" d="M633.307 485.557C635.369 488.092 637.373 490.714 639.289 493.426C634.574 505.508 621.608 511.843 610.292 516.529C591.697 523.867 571.276 519.594 553.359 512.403C560.254 511.843 567.179 510.959 574.134 510.576C585.921 511.519 598.327 514.378 609.732 509.633C620.959 505.743 626.706 494.545 633.307 485.557Z"></path>
<path fill="#DADADE" d="M545.579 495.282C551.915 492.866 558.339 490.626 564.733 488.239C564.91 490.125 565.293 493.926 565.47 495.812C578.731 498.229 592.257 499.555 605.253 503.386C594.85 505.301 582.532 502.797 574.134 510.576C567.179 510.959 560.254 511.843 553.359 512.403L551.06 511.578C548.997 506.215 547.2 500.734 545.579 495.282Z"></path>
<path fill="#BDBEC8" d="M502.996 514.938C518.114 513.671 531.522 505.832 545.225 500.027C546.256 503.357 547.288 506.716 548.378 510.134C533.938 517.59 518.143 523.543 501.7 523.425C489.794 523.101 479.215 517.266 468.783 512.227C480.335 510.517 491.504 514.82 502.996 514.938Z"></path>
<path fill="#DEDFE4" d="M736.329 517.796C745.051 515.645 753.509 512.521 761.318 508.042C747.704 521.362 732.468 532.913 715.553 541.754C684.523 559.877 648.63 567.215 617.541 585.132C605.783 591.762 593.76 598.599 580.234 600.78C545.107 606.821 509.185 598.717 476.505 585.78C447.596 574.111 417.155 567.009 387.893 556.371C357.511 545.29 325.125 536.332 300.548 514.172C333.612 524.368 365.909 536.803 398.266 549.062C426.939 560.172 456.319 569.307 485.168 579.975C507.712 587.371 530.668 595.711 554.685 595.564C579.261 595.357 600.803 582.214 622.492 572.283C644.151 561.321 666.312 551.361 688.354 541.135C704.621 533.856 718.618 521.627 736.329 517.796Z"></path>
<path fill="#762935" d="M498.93 533.09C512.604 530.143 526.218 526.224 540.275 525.517C557.072 524.839 572.896 531.47 588.544 536.685C584.713 541.666 580.971 546.734 576.786 551.42C557.897 536.184 531.257 541.076 511.366 551.567C528.104 567.775 552.887 564.739 572.395 555.869C573.515 556.518 575.755 557.873 576.875 558.551C556.895 571.871 529.666 572.166 509.775 558.581L509.244 556.606C507.299 548.178 503.38 540.428 498.93 533.09Z"></path>
<path fill="#201513" d="M390.722 588.697C393.521 588.196 396.38 587.754 399.267 587.371C422.99 593.678 446.859 599.306 470.906 604.286C492.86 608.559 513.281 617.989 534.175 625.68C511.101 621.761 489.736 611.064 466.367 608.589C471.524 618.608 477.978 627.891 484.756 636.879C494.716 650.316 503.321 664.667 511.896 678.989C518.497 696.434 526.218 713.467 531.493 731.355C530.579 735.687 529.519 739.989 528.664 744.38C527.426 740.902 526.159 737.484 524.892 734.095C522.947 740.343 521.149 746.678 518.821 752.837C512.427 719.243 500.61 686.209 481.455 657.713C463.067 629.776 430.475 614.04 397.735 611.359C396.527 608.559 395.289 605.76 394.14 603.019C393.109 605.318 392.136 607.646 391.223 610.033C377.313 635.994 376.754 666.435 380.172 695.02C382.706 714.44 391.075 732.268 399.739 749.625C402.126 756.314 404.778 763.004 408.697 769.015C410.908 772.375 413.236 775.734 415.564 779.153C426.261 807.826 440.435 834.995 453.283 862.725C456.879 870.358 458.971 878.638 458.941 887.155C442.527 912.704 409.405 924.049 380.378 916.977C353.09 909.787 333.847 887.921 314.369 869.061C305.204 866.822 295.715 866.586 286.403 865.996C245.353 863.58 204.51 844.779 179.462 811.568C180.346 809.918 182.114 806.558 182.998 804.879C187.536 810.478 192.546 815.753 198.233 820.232C204.068 824.505 211.759 832.608 219.097 826.42C241.493 810.979 251.306 783.927 257.966 758.701C248.035 750.833 232.947 744.704 232.476 730.087C239.666 735.981 247.062 741.728 254.813 747.003C258.408 719.567 260.53 688.065 241.287 665.551L240.403 663.282C246.974 667.261 253.516 671.357 259.911 675.718C268.81 683.91 277.444 692.427 285.607 701.385C287.464 689.892 290.116 678.518 290.823 666.878C291.589 655.179 287.7 643.98 284.605 632.9C301.55 642.065 317.61 652.762 333.346 663.813C332.58 656.829 331.843 649.904 331.077 642.949C332.462 642.183 335.262 640.621 336.647 639.855C347.933 652.674 356.627 667.791 369.858 678.871C369.563 655.149 372.186 630.867 383.089 609.473C385.859 602.607 392.342 596.654 390.722 588.697ZM323.71 748.505C302.463 762.739 288.26 788.288 290.529 814.191C289.497 826.892 293.004 839.357 300.695 849.553C307.561 857.804 318.317 861.517 325.861 869.149C338.975 881.762 351.057 896.172 367.766 904.217C387.539 914.62 414.414 915.179 432.036 900.209C422.783 901.536 413.648 903.775 404.336 904.453C393.197 905.278 382.529 901.447 372.009 898.471C378.139 897.233 384.622 896.821 390.427 894.168C404.218 885.917 410.642 869.179 409.228 853.59C407.725 837.058 404.483 818.493 390.515 807.708C389.661 809.476 387.922 813.012 387.038 814.751C382.647 812.334 378.315 809.888 373.836 807.796C377.903 807.443 381.999 806.942 386.125 806.499C391.311 793.357 398.531 777.473 389.396 764.301C376.754 744.645 347.373 743.407 330.075 757.434C323.858 760.882 318.583 770.047 310.538 766.658C318.317 757.67 327.394 749.213 338.769 745.146C351.499 739.96 366.174 743.172 378.433 736.335C359.897 738.132 339.888 738.014 323.71 748.505Z"></path>
<path fill="#CD687E" d="M511.366 551.567C531.257 541.076 557.897 536.185 576.786 551.42C575.666 552.54 573.486 554.75 572.395 555.869C552.887 564.739 528.104 567.775 511.366 551.567Z"></path>
<path fill="#332826" d="M195.021 587.342C205.07 582.627 216.415 582.362 227.319 583.364C268.869 588.638 308.74 608.353 336.647 639.855C335.262 640.621 332.462 642.183 331.077 642.949C330.134 642.478 328.219 641.475 327.276 640.975C309.713 616.486 281.246 602.783 253.251 593.913C235.864 588.904 216.887 585.633 199.147 590.613C179.079 597.008 168.352 617.96 165.14 637.497C161.427 663.4 172.92 687.889 182.114 711.375C183.381 714.675 184.619 718.035 185.797 721.453C188.656 732.622 191.485 744.085 198.174 753.751C198.115 739.842 193.872 726.374 193.901 712.524C194.844 711.905 196.76 710.668 197.703 710.049C210.551 714.174 222.368 721.129 232.476 730.087C232.947 744.704 248.035 750.833 257.966 758.701C251.306 783.926 241.493 810.979 219.097 826.42C211.759 832.608 204.068 824.505 198.233 820.232C199.589 820.409 202.27 820.703 203.626 820.88C195.257 809.505 185.355 799.162 178.902 786.52C170.002 769.575 168.322 750.097 161.368 732.445C156.506 758.466 169.413 783.573 182.998 804.879C182.114 806.558 180.346 809.918 179.462 811.568C159.895 785.312 148.195 751.776 153.117 718.919C158.509 711.552 167.704 710.962 175.837 713.172C169.442 692.22 159.629 671.504 160.955 649.078C159.806 624.737 171.328 597.096 195.021 587.342ZM160.101 722.161C166.112 731.649 173.568 740.166 180.08 749.36C178.165 743.407 176.78 737.248 174.216 731.561C170.827 726.816 164.993 724.813 160.101 722.161Z"></path>
<path fill="#F2F1F2" d="M199.147 590.613C216.887 585.633 235.864 588.904 253.251 593.913C281.246 602.783 309.713 616.486 327.276 640.974C310.331 638.558 295.302 629.6 278.446 626.889C281.776 637.114 286.226 647.163 287.199 657.978C287.346 666.023 283.545 673.419 280.922 680.845C273.879 679.166 266.836 677.633 259.911 675.718C253.516 671.357 246.974 667.26 240.403 663.282L241.287 665.551C243.497 675.954 245.766 686.385 248.271 696.788C241.581 689.362 235.216 681.67 229.205 673.743C226.759 674.362 224.342 675.011 221.955 675.688C232.623 689.981 245.589 702.77 252.927 719.302C235.864 713.055 219.657 702.593 201.003 702.298C193.548 701.945 187.919 707.603 182.114 711.375C172.92 687.888 161.427 663.4 165.14 637.497C168.352 617.959 179.079 597.007 199.147 590.613Z"></path>
<path fill="#352A28" d="M653.787 621.201C672.765 606.998 696.428 618.903 715.554 626.447C716.379 624.796 718.058 621.496 718.884 619.846C719.797 622.527 720.74 625.18 721.712 627.92C725.396 650.847 733.117 673.979 728.195 697.348C727.223 691.985 726.103 686.68 725.042 681.406C719.237 693.193 714.11 705.334 707.833 716.856C701.556 728.408 692.185 738.781 690.446 752.307C680.132 761.914 669.671 773.436 654.907 775.351C648.306 776.972 644.21 770.813 639.996 767.041C633.896 771.255 626.323 774.703 619.074 771.049C613.091 766.629 611.264 758.849 608.082 752.543C604.28 756.875 600.803 765.538 593.613 762.002C586.864 759.026 587.247 750.509 585.126 744.527C590.518 726.551 598.033 708.664 597.237 689.539C610.675 663.017 629.653 638.735 653.787 621.201Z"></path>
<path fill="#B3B6C0" d="M278.446 626.889C295.302 629.6 310.331 638.558 327.276 640.974C328.219 641.475 330.134 642.478 331.077 642.949C331.843 649.904 332.58 656.829 333.346 663.813C317.61 652.762 301.55 642.065 284.605 632.9C287.699 643.98 291.589 655.178 290.823 666.877C290.116 678.518 287.464 689.892 285.607 701.385C277.444 692.427 268.81 683.91 259.911 675.718C266.836 677.633 273.879 679.166 280.922 680.846C283.544 673.419 287.346 666.023 287.199 657.978C286.226 647.163 281.776 637.114 278.446 626.889Z"></path>
<path fill="#D0D0D6" d="M563.054 743.643C566.472 713.438 582.945 686.562 602.335 663.901C592.699 683.851 584.124 704.391 577.935 725.697C569.448 753.515 563.319 782.188 561.109 811.244C559.989 822.53 558.074 833.758 554.979 844.691C548.467 827.54 547.936 809.004 545.019 791.087C541.895 770.901 537.917 750.774 531.493 731.355C526.218 713.467 518.497 696.434 511.896 678.989C524.745 688.331 531.67 702.888 536.797 717.475C548.378 744.321 544.43 774.173 550.382 802.256C555.922 783.043 560.637 763.534 563.054 743.643Z"></path>
<path fill="#D2D0D5" d="M241.287 665.552C260.53 688.065 258.408 719.567 254.813 747.003C247.062 741.728 239.666 735.981 232.476 730.088C222.368 721.129 210.551 714.175 197.703 710.049C195.434 709.253 193.223 708.517 191.013 707.839C189.275 712.347 187.565 716.915 185.797 721.453C184.619 718.035 183.381 714.676 182.114 711.375C187.919 707.603 193.548 701.945 201.003 702.299C219.657 702.593 235.864 713.055 252.927 719.302C245.589 702.77 232.623 689.981 221.955 675.689C224.342 675.011 226.759 674.363 229.205 673.744C235.216 681.671 241.581 689.362 248.271 696.788C245.766 686.386 243.497 675.954 241.287 665.552Z"></path>
<path fill="#393131" d="M597.237 689.539C598.033 708.664 590.518 726.551 585.126 744.527C584.507 742.464 583.269 738.309 582.65 736.246C569.33 770.4 568.152 807.325 562.612 843.129C560.166 858.629 555.569 875.515 563.054 890.367C558.604 889.188 554.243 887.803 549.911 886.448C551.178 876.31 551.031 865.996 548.732 856.007C541.159 821.352 540.127 785.459 529.253 751.511C529.106 749.713 528.811 746.177 528.664 744.38C529.519 739.989 530.579 735.687 531.493 731.355C537.917 750.774 541.895 770.901 545.019 791.087C547.936 809.004 548.467 827.54 554.979 844.691C558.074 833.758 559.989 822.53 561.109 811.244C563.319 782.188 569.448 753.515 577.935 725.697C578.289 728.025 579.026 732.71 579.379 735.068C585.185 719.832 589.516 703.978 597.237 689.539Z"></path>
<path fill="#786E70" d="M191.014 707.839C193.224 708.517 195.434 709.253 197.703 710.049C196.76 710.668 194.844 711.906 193.901 712.524C193.872 726.375 198.115 739.842 198.174 753.751C191.485 744.085 188.656 732.622 185.798 721.453C187.566 716.915 189.275 712.347 191.014 707.839Z"></path>
<path fill="#221514" d="M499.903 709.96C507.181 725.255 515.02 743.908 507.653 760.558C505.944 764.536 504.234 768.544 502.407 772.522C498.518 773.465 494.628 774.497 490.767 775.528C496.838 754.134 496.396 731.767 499.903 709.96Z"></path>
<path fill="#5E5555" d="M182.998 804.879C169.413 783.573 156.506 758.466 161.368 732.445C168.323 750.097 170.002 769.575 178.902 786.52C185.356 799.162 195.257 809.505 203.626 820.88C202.27 820.703 199.589 820.408 198.233 820.232C192.546 815.752 187.536 810.478 182.998 804.879Z"></path>
<path fill="#F3F3F5" d="M524.892 734.095C526.159 737.484 527.426 740.902 528.664 744.38C528.811 746.177 529.106 749.714 529.253 751.511C522.682 778.269 532.289 805.026 532.996 831.872C533.173 851.233 545.078 869.503 539.39 888.982C537.858 889.365 534.764 890.102 533.202 890.485C532.966 883.501 532.731 876.576 532.318 869.68C529.401 864.022 523.861 861.046 518.262 858.806C519.853 867.794 521.356 876.841 522.24 885.947C515.138 886.506 508.065 887.066 500.993 887.656C500.286 881.114 500.08 874.542 499.903 868C498.223 868.03 494.863 868.089 493.184 868.118C493.243 874.365 493.361 880.642 493.773 886.949C487.938 886.742 482.163 886.536 476.416 886.3C476.298 879.994 477.3 873.747 477.271 867.499C473.204 867.47 469.226 867.499 465.218 867.529C457.733 846.311 445.091 827.569 434.836 807.678C429.62 797.394 423.049 787.905 415.564 779.153C413.236 775.734 410.908 772.375 408.698 769.015C415.269 770.253 421.958 771.844 428.707 770.754C439.757 784.103 461.888 794.005 476.387 780.155C485.64 780.037 496.749 781.746 502.407 772.522C504.235 768.544 505.944 764.536 507.653 760.558C509.303 761.177 512.574 762.444 514.224 763.063C515.757 759.644 517.466 756.315 518.821 752.837C521.149 746.678 522.947 740.343 524.892 734.095Z"></path>
<path fill="#F2F1F1" d="M562.612 843.129C568.152 807.325 569.33 770.4 582.65 736.246C583.269 738.309 584.507 742.464 585.126 744.527C587.247 750.509 586.864 759.025 593.613 762.002C600.803 765.538 604.28 756.874 608.082 752.543C611.264 758.849 613.091 766.628 619.073 771.049C626.323 774.703 633.896 771.255 639.996 767.041C644.21 770.813 648.306 776.972 654.907 775.351C669.671 773.436 680.132 761.913 690.446 752.307C691.448 751.423 693.423 749.714 694.395 748.859C688.531 773.171 679.395 796.568 670.879 820.055C661.744 833.051 650.605 845.044 645.389 860.338C642.295 869.149 638.64 877.813 633.778 885.829C632.01 875.721 632.039 863.197 620.782 858.806C621.107 866.969 621.696 875.161 622.315 883.353C612.355 883.766 602.424 884.119 592.493 884.444C593.524 875.456 596.943 867.057 601.009 859.071C597.62 859.219 594.29 859.425 590.99 859.661C589.664 866.438 588.456 873.246 587.542 880.141C579.232 879.817 567.327 882.057 563.289 872.568C562.965 865.584 566.943 859.278 569.242 852.883C567.002 849.612 564.763 846.341 562.612 843.129Z"></path>
<path fill="#433233" d="M754.717 749.949C763.999 747.268 773.459 745.116 783.007 743.378C802.309 746.148 822.023 759.674 826.06 779.624C822.848 794.918 827.445 817.609 809.381 824.652C798.389 830.723 791.494 817.285 787.044 809.505C795.914 808.533 807.141 809.564 812.976 801.254C819.695 792.649 813.359 781.805 809.705 773.318C803.34 761.265 789.578 756.609 777.968 751.187C779.765 751.187 783.36 751.187 785.158 751.157C775.021 750.244 764.854 749.773 754.717 749.949Z"></path>
<path fill="#2A1E1D" d="M455.081 749.566C456.23 748.771 458.558 747.209 459.707 746.443C468.017 755.431 476.033 764.713 483.606 774.349C481.19 776.265 478.773 778.21 476.386 780.155C461.888 794.005 439.757 784.103 428.706 770.754C441.731 767.306 452.016 778.445 463.391 782.748C460.886 771.609 458.028 760.558 455.081 749.566Z"></path>
<path fill="#3A2B2D" d="M330.075 757.434C347.373 743.407 376.754 744.645 389.396 764.301C398.531 777.473 391.311 793.357 386.125 806.5C381.999 806.942 377.903 807.443 373.836 807.796C361.518 808.238 347.727 809.535 339.152 819.584C328.189 829.632 323.121 848.905 334.407 860.604C349.141 875.309 374.75 866.733 385.742 851.527C393.993 840.712 390.928 826.597 387.038 814.751C387.922 813.012 389.661 809.476 390.515 807.708C404.483 818.493 407.725 837.058 409.228 853.59C410.642 869.179 404.218 885.917 390.427 894.168C384.622 896.821 378.139 897.233 372.009 898.471C382.529 901.447 393.197 905.278 404.336 904.453C413.648 903.775 422.783 901.536 432.036 900.209C414.414 915.179 387.539 914.62 367.766 904.217C351.057 896.172 338.975 881.762 325.861 869.149C318.317 861.517 307.561 857.804 300.695 849.553C288.908 823.12 290.087 788.583 310.538 766.658C318.583 770.047 323.858 760.882 330.075 757.434ZM352.648 759.762C340.419 761.766 338.562 776.471 344.78 785.4C351.352 803.258 380.496 796.569 381.999 778.652C383.502 763.623 365.054 756.285 352.648 759.762ZM303.23 790.763C300.725 797.747 307.09 802.727 310.862 807.678C315.429 808.209 320.027 808.857 324.742 808.827C336.441 807.501 344.161 793.298 339.152 782.659C337.649 776.766 331.843 773.848 327.6 770.253C315.93 771.255 305.646 779.005 303.23 790.763ZM303.613 813.395C299.428 818.876 298.485 827.245 303.406 832.609C307.503 838.267 315.253 836.616 321.294 837.5C322.767 831.165 324.683 824.77 324.152 818.228C319.319 812.658 310.243 808.592 303.613 813.395Z"></path>
<path fill="#CDCCD1" d="M529.253 751.511C540.127 785.459 541.158 821.352 548.732 856.007C551.03 865.997 551.178 876.311 549.911 886.448C546.345 887.243 542.868 888.098 539.39 888.982C545.078 869.503 533.172 851.233 532.996 831.872C532.288 805.026 522.682 778.269 529.253 751.511Z"></path>
<path fill="#372B29" d="M740.484 761.059C750.444 751.452 764.854 750.303 777.968 751.187C789.578 756.609 803.34 761.265 809.705 773.318C801.66 772.994 791.7 770.194 785.423 776.943C779.176 783.131 780.738 792.443 781.386 800.341C778.351 803.936 775.345 807.531 772.339 811.126C760.404 806.706 745.611 799.132 733.706 807.207C720.091 817.315 722.036 839.239 734.796 849.258C747.585 861.282 766.062 860.928 782.476 861.164C776.73 869.297 771.249 878.079 762.85 883.737C748.794 893.196 730.936 896.408 714.374 893.491C701.88 891.222 693.511 880.79 684.375 872.981C684.935 858.246 693.835 846.076 699.493 833.021C710.544 807.855 719.443 780.007 740.484 761.059ZM750.562 762.474C737.979 768.191 737.006 789.732 750.532 794.889C757.988 796.48 766.239 796.863 773.488 794.093C777.555 787.257 779.087 778.888 777.614 771.108C773.518 761.059 759.815 756.58 750.562 762.474Z"></path>
<path fill="#DE9BAB" d="M352.648 759.762C365.054 756.285 383.502 763.623 381.999 778.652C380.496 796.569 351.351 803.258 344.78 785.4C338.562 776.471 340.419 761.766 352.648 759.762Z"></path>
<path fill="#D69AAD" d="M750.562 762.473C759.815 756.58 773.518 761.059 777.614 771.108C779.088 778.887 777.555 787.256 773.489 794.093C766.239 796.863 757.988 796.48 750.533 794.889C737.007 789.732 737.979 768.19 750.562 762.473Z"></path>
<path fill="#E5BECB" d="M303.23 790.763C305.646 779.005 315.93 771.255 327.6 770.253C316.726 779.889 313.455 794.034 310.862 807.678C307.09 802.728 300.725 797.747 303.23 790.763Z"></path>
<path fill="#C58394" d="M327.6 770.253C331.843 773.848 337.649 776.766 339.151 782.659C344.161 793.298 336.44 807.501 324.741 808.828C320.026 808.857 315.429 808.209 310.862 807.678C313.455 794.034 316.726 779.889 327.6 770.253Z"></path>
<path fill="#D799AB" d="M785.423 776.942C791.7 770.194 801.66 772.994 809.705 773.318C813.359 781.805 819.695 792.649 812.976 801.254C807.141 809.564 795.914 808.533 787.044 809.505C785.187 806.382 783.301 803.346 781.386 800.341C780.737 792.443 779.176 783.131 785.423 776.942Z"></path>
<path fill="#D3D4DA" d="M415.564 779.153C423.049 787.905 429.62 797.394 434.836 807.678C445.091 827.569 457.733 846.311 465.218 867.529C469.226 867.499 473.204 867.47 477.271 867.499C477.3 873.746 476.298 879.994 476.416 886.3C482.163 886.536 487.938 886.742 493.773 886.949C493.979 890.19 494.215 893.49 494.51 896.82C487.585 894.492 479.835 893.343 474.118 888.569C469.314 882.646 472.939 874.454 472.851 867.676C468.813 872.803 464.953 878.049 461.358 883.53C460.768 884.444 459.56 886.241 458.941 887.155C458.971 878.638 456.879 870.358 453.283 862.725C440.435 834.995 426.261 807.825 415.564 779.153Z"></path>
<path fill="#D68BA3" d="M733.705 807.207C745.611 799.132 760.404 806.706 772.339 811.126C781.121 818.051 791.228 826.243 792.348 838.207C793.762 847.195 786.985 854.209 782.476 861.164C766.062 860.928 747.585 861.281 734.796 849.258C722.036 839.239 720.091 817.314 733.705 807.207Z"></path>
<path fill="#D4869E" d="M339.152 819.584C347.727 809.535 361.518 808.238 373.836 807.796C378.315 809.888 382.647 812.334 387.038 814.751C390.928 826.597 393.993 840.712 385.742 851.527C374.75 866.733 349.141 875.309 334.407 860.604C323.121 848.905 328.189 829.632 339.152 819.584Z"></path>
<path fill="#C48A99" d="M303.612 813.395C310.243 808.592 319.319 812.658 324.152 818.228C324.682 824.77 322.767 831.165 321.294 837.5C315.252 836.616 307.502 838.267 303.406 832.609C298.485 827.245 299.428 818.876 303.612 813.395Z"></path>
<path fill="#C3BFC5" d="M645.388 860.338C650.604 845.044 661.743 833.051 670.879 820.055C664.631 839.386 654.966 858.069 655.054 878.874C648.424 886.448 639.377 890.927 629.947 893.992C629.269 884.414 628.532 874.867 627.206 865.407C624.996 875.368 623.169 885.446 621.342 895.553C611.382 895.494 601.451 895.2 591.549 894.522C591.785 892.017 592.257 886.978 592.492 884.444C602.423 884.12 612.354 883.766 622.314 883.353C621.696 875.161 621.106 866.969 620.782 858.806C632.039 863.197 632.01 875.721 633.778 885.829C638.64 877.813 642.294 869.15 645.388 860.338Z"></path>
<path fill="#B4B1B6" d="M563.054 890.367C555.569 875.515 560.166 858.629 562.612 843.129C564.763 846.341 567.002 849.612 569.242 852.883C566.943 859.278 562.965 865.584 563.289 872.568C567.327 882.057 579.232 879.817 587.542 880.141C586.923 884.591 586.334 889.041 585.803 893.579C578.171 892.666 570.568 891.723 563.054 890.367Z"></path>
<path fill="#746D6E" d="M590.99 859.661C594.29 859.425 597.62 859.219 601.009 859.071C596.942 867.057 593.524 875.456 592.493 884.444C592.257 886.978 591.785 892.017 591.55 894.522C601.451 895.2 611.382 895.494 621.342 895.553C623.169 885.446 624.997 875.367 627.207 865.407C628.533 874.867 629.269 884.414 629.947 893.992C639.377 890.927 648.424 886.448 655.054 878.874C657.648 880.053 660.27 881.232 662.864 882.617C646.214 901.624 619.309 902.508 595.94 901.152C580.941 900.858 566.531 896.32 552.681 890.927C532.141 903.952 506.356 903.598 483.164 899.915C473.381 898.648 466.043 891.781 461.358 883.53C464.953 878.049 468.813 872.804 472.85 867.676C472.939 874.454 469.314 882.646 474.118 888.569C479.834 893.343 487.585 894.492 494.51 896.82C494.215 893.491 493.979 890.19 493.773 886.949C493.361 880.642 493.243 874.365 493.184 868.118C494.863 868.089 498.223 868.03 499.903 868C500.079 874.542 500.286 881.114 500.993 887.656C501.288 889.954 501.848 894.522 502.142 896.791C510.747 896.054 519.352 895.141 527.927 893.933C527.014 885.033 526.012 876.163 524.774 867.322C526.66 867.912 530.432 869.091 532.318 869.68C532.731 876.576 532.966 883.501 533.202 890.485C534.764 890.102 537.858 889.365 539.39 888.982C542.868 888.098 546.345 887.243 549.911 886.448C554.242 887.803 558.604 889.188 563.054 890.367C570.568 891.722 578.171 892.665 585.803 893.579C586.334 889.041 586.923 884.591 587.542 880.141C588.456 873.246 589.664 866.438 590.99 859.661Z"></path>
<path fill="#CBCCD1" d="M518.261 858.806C523.86 861.046 529.401 864.022 532.318 869.68C530.432 869.091 526.66 867.912 524.774 867.322C526.012 876.163 527.014 885.033 527.927 893.933C519.352 895.141 510.747 896.054 502.142 896.791C501.848 894.522 501.288 889.954 500.993 887.656C508.065 887.066 515.138 886.506 522.24 885.947C521.356 876.841 519.853 867.794 518.261 858.806Z"></path>
</svg>
