<svg xmlns="http://www.w3.org/2000/svg" fill="none" viewBox="0 0 1024 1024" height="1024" width="1024">
<rect fill="white" height="1024" width="1024"></rect>
<path fill="#969CA5" d="M865.233 681.216C868.717 682.102 872.2 682.988 875.684 684.021C874.356 684.139 871.728 684.346 870.4 684.464C875.271 692.878 878.784 702.975 887.966 707.728C899.096 714.075 908.307 723.67 913.001 735.715C927.024 770.05 924.101 812.622 900.365 842.086C897.944 841.229 895.523 840.403 893.132 839.635C892.158 834.675 891.154 829.716 890.386 824.785C890.8 823.604 891.597 821.213 891.981 820.032C893.752 825.287 895.553 830.542 897.383 835.856C914.861 816.165 919.673 788.295 915.835 762.876C913.68 748.558 909.694 733.442 899.066 722.991C890.15 714.725 879.02 709.499 868.687 703.329C867.27 702.532 865.853 701.735 864.466 700.967C866.444 700.288 870.429 698.871 872.407 698.192C869.543 694.502 866.709 690.841 863.668 687.357C864.17 685.29 864.702 683.224 865.233 681.216Z"></path>
<path fill="#010101" d="M305.069 317.024C314.516 316.139 324.023 317.024 333.293 318.914C329.662 319.268 326.06 319.652 322.428 320.036C305.778 318.028 296.685 332.76 285.053 341.469C288.153 334.384 292.256 327.83 296.567 321.453C299.342 319.858 302.176 318.382 305.069 317.024Z"></path>
<path fill="#010101" d="M674.781 463.841C690.576 449.05 702.267 429.949 721.073 418.494C704.776 432.193 689.306 447.308 678.354 465.789C677.468 465.287 675.667 464.313 674.781 463.841Z"></path>
<path fill="#5F5645" d="M574.701 529.794C580.458 516.863 584.68 503.224 586.097 489.141C586.835 495.518 587.809 501.895 588.223 508.361C586.451 516.981 581.314 524.332 577.004 531.831C599.441 538.68 624.535 547.537 635.931 569.916C618.424 550.401 593.891 537.086 567.734 534.37C545.857 531.979 523.804 533.278 501.839 532.451L504.29 532.038C511.286 530.798 518.195 528.79 525.339 528.554C537.768 529.853 550.286 530.06 562.804 529.971C566.76 529.912 570.745 529.853 574.701 529.794Z"></path>
<path fill="#FAFAFB" d="M237.02 545.471C235.455 536.762 245.345 528.495 253.464 533.012C257.213 538.474 254.94 545.205 254.586 551.287C248.711 549.752 239.116 553.117 237.02 545.471Z"></path>
<path fill="#E6E9F0" d="M309.616 538.12C313.247 527.521 319.211 517.985 326.208 509.335C337.81 512.907 350.062 512.789 362.048 511.549C376.839 520.642 388.028 533.957 400.044 546.209C412.06 559.701 431.427 561.089 447.487 554.8C455.576 552.557 462.13 547.036 468.507 541.84C474.559 536.024 482.56 532.865 490.974 533.13C501.484 536.378 514.002 541.22 515.862 553.678C521.737 579.215 527.789 604.782 533.073 630.526C496.377 630.939 458.499 622.437 422.924 635.427C406.982 637.169 390.656 634.364 376.957 625.802C370.994 620.636 365.532 614.377 357.856 611.838C332.614 603.778 304.42 608.797 280.389 596.25C293.851 578.979 302.324 558.579 309.616 538.12ZM335.626 550.136C342.18 561.384 354.697 567.17 363.761 576.175C377.282 586.567 374.655 608.974 391.187 616.444C406.834 623.381 428.74 623.411 440.992 610.126C442.084 611.809 444.21 615.174 445.273 616.857C456.344 608.443 466.411 597.461 467.444 582.876C477.098 575.23 489.439 575.997 501.012 576.145C494.782 570.152 488.081 564.72 480.966 559.878C482.088 562.742 483.298 565.635 484.479 568.558C483.652 569.119 482.029 570.241 481.202 570.801C470.692 571.717 460.802 575.732 450.38 576.972C437.479 576.647 425.079 570.861 412.06 572.691C399.838 574.315 387.704 576.529 375.393 577.237C361.222 570.772 349.944 559.288 341.825 546.15C339.729 547.39 337.663 548.719 335.626 550.136Z"></path>
<path fill="#E6E9F0" d="M520.142 875.387C529.796 872.169 539.568 877.483 547.953 881.852C548.956 883.328 551.023 886.222 552.056 887.668C552.942 897.617 551.2 909.663 540.985 914.327C533.723 918.815 527.936 909.604 522.091 906.504C522.209 910.076 522.327 913.707 522.475 917.398C506.532 918.372 491.003 914.121 477.777 905.205L478.19 907.98C478.397 910.548 478.81 915.685 479.017 918.224C471.135 917.309 462.75 916.748 455.93 912.32C449.347 908.098 446.985 900.009 445.597 892.805C446.335 889.971 447.812 884.303 448.55 881.439C457.613 883.506 466.588 886.015 475.474 888.79C480.493 885.926 485.217 882.059 491.003 880.996C496.495 883.24 501.307 886.783 506.237 890.03C510.547 884.864 514.356 878.989 520.142 875.387Z"></path>
<path fill="#D5DBE7" d="M675.757 299.754C681.071 302.883 686.355 306.101 691.492 309.585C688.658 313.984 685.883 318.412 683.167 322.929C675.963 322.427 668.819 321.453 661.881 319.593C668.258 319.593 674.605 319.622 680.982 319.711C682.547 316.7 684.082 313.718 685.647 310.766C681.75 310.854 677.853 310.943 673.985 311.09C674.546 307.282 675.137 303.503 675.757 299.754Z"></path>
<path fill="#FBFBFB" d="M343.627 88.1055C355.465 78.8354 370.61 75.2928 385.195 73.2557C409.492 70.1853 435.354 72.311 457.053 84.5038C463.046 87.1904 469.098 91.973 476.095 90.4673C491.004 87.7807 505.854 82.7324 521.235 84.5628C533.221 85.8618 547.333 88.3121 554.33 99.3241C557.046 105.524 557.164 114.233 551.791 119.104C544.647 125.304 533.753 123.562 526.431 129.201C523.036 135.696 523.272 145.941 531.037 149.218C546.477 157.691 563.571 162.946 578.243 172.895C596.488 183.73 610.482 199.849 624.978 214.994C646.175 211.658 668.878 207.082 689.544 214.994C692.408 219.098 694.091 223.88 696.039 228.486C701.973 227.335 707.996 225.091 714.107 226.124C723.141 229.342 726.89 239.085 732.736 245.904C738.345 253.905 749.593 259.839 747.704 271.176C748.324 279.147 740.943 283.605 736.219 288.771C726.713 297.067 727.746 312.301 717.236 319.859C707.7 328.243 694.209 326.295 682.783 329.69C678.148 339.609 672.805 350.238 673.188 361.427C677.764 373.915 692.939 374.092 704.04 373.56C719.775 373.826 738.109 369.782 751.306 380.734C763.41 390.772 765.358 407.246 765.624 421.948C766.037 444.149 779.647 464.52 775.839 487.016C773.093 500.242 767.395 512.612 762.79 525.278C760.458 532.097 755.114 537.677 748.206 539.921C737.43 544.231 726.093 539.33 715.465 537.057C720.1 553.944 722.462 571.953 717.354 589.076C710.417 613.669 696.157 638.084 673.277 650.808C660.937 657.864 646.205 649.184 633.628 655.148C629.761 656.772 626.011 658.691 622.262 660.639C651.017 677.792 680.097 694.531 707.523 713.839C719.214 722.076 730.197 731.346 742.537 738.638C737.637 721.781 727.746 705.602 729.488 687.475C731.939 668.079 745.135 652.019 760.015 640.239C780.326 623.795 805.539 614.938 830.899 609.919C857.262 603.838 886.195 604.753 910.699 617.034C917.873 620.547 926.168 628.076 923.01 636.933C920.648 644.431 911.555 644.933 905.384 647.708C924.456 662.735 940.812 683.756 944.354 708.318C946.008 720.836 934.819 727.892 926.966 735.243C933.608 763.201 936.472 793.403 925.667 820.829C910.669 858.412 876.364 885.041 839.46 899.389C819.326 907.803 797.627 910.903 776.4 915.391C772.119 925.281 767.484 936.854 756.147 940.367C721.783 953.268 684.023 953.475 647.887 950.286C622.173 948.279 597.197 940.721 571.394 939.57C551.171 938.094 532.306 947.216 512.319 948.279C488.849 949.548 463.607 949.371 442.793 937.031C426.556 927.79 407.071 927.318 390.804 918.195C372.264 907.951 355.111 895.256 339.051 881.528C322.547 866.767 306.487 848.846 302.974 826.203C299.195 801.935 306.959 777.372 318.887 756.381C310 747.967 309.38 735.774 306.576 724.703C296.331 710.916 284.906 696.716 283.666 678.796C280.891 659.754 295.15 645.11 305.011 630.703C272.447 622.643 238.703 618.156 207.911 604.044C204.427 611.75 201.8 621.994 192.323 624.238C180.927 629.67 169.531 623.175 158.785 619.603C148.659 615.971 135.846 617.034 128.583 607.823C113.881 591.704 110.279 569.591 104.197 549.486C98.0568 535.434 89.0228 522.03 88.7866 506.117C87.5762 489.732 94.1007 474.144 101.511 459.914C92.6246 447.515 81.7012 435.086 80.5793 419.144C78.7194 396.47 80.786 371.701 94.9864 352.954C103.725 341.706 112.434 330.428 119.136 317.792C123.978 308.404 133.956 300.698 144.998 302.293C164.188 304.448 174.55 325.173 193.828 326.885C197.814 302.145 201.504 276.933 211.306 253.698C218.214 237.313 232.415 225.888 242.009 211.363C242.098 199.79 236.961 187.479 243.722 176.762C262.262 142.959 300.848 130.205 332.821 112.993C335.154 104.313 335.892 93.951 343.627 88.1055ZM346.608 100.712C356.498 103.369 366.743 103.9 376.928 104.461C345.368 117.51 315.108 133.57 285.762 151.018C268.934 162.207 249.036 178.445 251.722 201C264.329 196.306 275.577 188.807 287.327 182.371C285.792 186.947 283.902 191.464 282.81 196.218C278.795 200.262 274.691 204.307 271.207 208.853C255.472 214.906 243.663 227.63 233.389 240.502C213.431 266.984 207.881 301.141 206.877 333.498C206.316 337.454 207.438 342.709 203.187 345.012C189.252 339.934 174.462 335.476 163.45 324.966C155.862 317.881 145.086 309.171 134.37 315.578C125.867 324.435 123.535 337.454 115.032 346.429C103.194 359.39 90.9123 375.539 94.1893 394.256C95.3112 404.117 106.766 406.124 114.029 410.11C105.437 410.611 96.8463 411.172 88.3438 412.619C93.3331 421.151 101.127 427.321 108.803 433.374C106.146 434.141 100.861 435.706 98.2339 436.503C107.799 446.039 121.586 447.308 134.429 447.485C121.409 457.493 108.242 469.185 103.548 485.57C98.1158 499.15 101.127 513.911 106.087 527.138C107.356 527.079 109.866 526.931 111.135 526.872C114.589 516.539 119.638 505.291 131.713 503.313C126.635 522.355 112.464 543.198 122.856 562.772C123.978 578.596 130.03 596.221 145.323 603.542C141.839 595.926 138.828 588.102 136.23 580.19C150.725 596.368 168.882 619.16 193.533 612.517C190.61 601.21 182.757 592.324 177.679 582.05C177.798 575.555 177.945 569.06 178.211 562.594C186.182 571.776 193.327 582.138 204.043 588.427C221.284 598.583 240.74 604.28 260.048 609.211C287.917 616.237 316.909 616.621 344.985 622.555C333.5 630.142 320.333 635.427 310.443 645.258C301.468 654.351 292.907 666.13 295.593 679.622C306.782 669.821 318.562 660.344 332.88 655.561C322.843 671.002 309.823 685.763 306.339 704.362C310.768 710.237 317.588 713.544 323.669 717.5C322.665 723.759 321.721 730.077 320.835 736.395C326.976 738.52 333.028 740.971 338.844 743.923C330.459 763.378 317.853 781.476 315.019 802.968C310.325 824.461 321.189 845.865 336.069 860.803C349.679 874.442 364.115 888.318 381.829 896.378C395.616 909.161 413.861 915.007 431.929 918.579C444.801 920.764 454.455 930.86 467.209 933.429C495.846 939.245 526.372 937.828 553.562 926.609C563.364 921.886 573.697 927.259 583.676 928.381C621.819 932.957 659.903 943.762 698.608 939.422C714.904 938.861 731.141 935.791 746.729 931.038C760.635 927.436 766.008 912.852 773.566 902.223C820.979 898.149 869.367 879.461 900.366 842.086C924.102 812.622 927.025 770.05 913.001 735.715C908.307 723.67 899.096 714.075 887.966 707.728C878.784 702.975 875.271 692.878 870.4 684.464C871.729 684.346 874.356 684.139 875.685 684.021C885.191 686.737 894.491 690.457 902.845 695.771C911.496 701.292 915.422 711.389 922.803 718.268C930.42 721.043 934.021 711.389 931.571 705.543C926.582 686.649 914.655 669.614 899.126 657.864C886.756 648.358 871.492 644.431 857.292 638.615C875.242 634.216 893.753 635.279 912.027 634.187C907.982 629.877 903.761 625.301 897.856 623.824C861.041 612.074 820.271 619.396 786.733 637.405C768.694 646.734 751.453 659.931 742.832 678.825C738.05 689.365 740.294 701.469 744.574 711.802C750.538 726.475 756.561 741.148 763.174 755.555C768.517 767.246 777.197 776.841 784.666 787.144C795.235 801.64 801.081 819.56 800.49 837.51C803.738 836.949 806.985 836.417 810.262 835.945C812.034 841.525 813.776 847.134 815.576 852.743C805.775 858.294 794.615 860.154 783.485 859.947C783.101 837.687 781.862 814.63 771.794 794.318C756.797 762.315 725.798 743.096 698.253 723.021C661.675 696.686 620.136 677.556 585.624 648.328C592.09 647 598.526 645.406 605.109 644.697C610.748 643.693 615.501 647.944 620.992 648.446C637.673 643.9 647.327 628.401 660.523 618.51C659.49 626.334 657.955 634.069 656.479 641.863C663.682 640.269 671.506 639.265 677.233 634.187C697.072 617.802 707.671 591.999 707.966 566.521C707.553 548.217 698.962 531.537 689.928 516.096C706.077 518.458 721.458 523.979 736.957 528.82C743.659 531.478 751.365 525.986 752.457 519.255C753.52 514 747.645 510.546 744.368 507.387C748.796 505.763 753.254 504.228 757.712 502.693L760.782 502.959C763.174 494.131 765.565 485.068 764.886 475.857C764.118 458.261 753.815 442.614 753.667 424.93C752.782 413.682 755.203 400.308 746.582 391.363C738.316 383.362 725.946 384.956 715.435 385.192C703.036 386.078 690.636 384.779 678.266 385.458C671.21 381.886 663.357 379.376 657.423 373.944C657.364 360.866 662.383 348.584 666.782 336.539C663.948 330.989 660.346 325.704 659.018 319.564L661.881 319.593C668.819 321.453 675.964 322.427 683.167 322.929C685.883 318.412 688.658 313.984 691.493 309.585C696.069 311.651 700.438 318.766 705.722 314.456C710.446 312.389 713.959 308.197 715.17 303.208C717.443 294.646 721.458 283.693 712.719 277.375C713.103 276.313 713.812 274.158 714.195 273.095C721.222 277.08 729.813 276.992 737.4 274.689C732.5 259.691 719.923 249.388 710.623 237.195C705.604 238.937 700.556 240.62 695.596 242.598C687.802 244.605 686.001 253.492 681.868 259.308C679.565 255.883 677.233 252.458 674.901 249.093L676.406 246.229C678.562 243.513 680.776 240.797 683.02 238.169C681.721 236.605 679.093 233.475 677.794 231.911C679.683 229.313 681.573 226.715 683.462 224.146C671.978 222.641 660.257 221.43 648.714 222.936C639.562 225.475 631.827 231.291 623.295 235.217C622.026 231.379 620.609 227.571 618.04 224.471C595.012 196.011 563.748 174.459 529.088 162.768C515.773 159.462 507.241 144.021 510.666 131.031C517.191 117.54 533.398 114.883 546.27 110.838C540.868 96.1948 522.268 96.4309 509.249 96.0176C494.901 95.1614 482.383 103.487 468.685 105.406C455.754 98.2318 443.649 88.6665 428.593 86.3342C401.078 81.3744 369.429 82.7324 346.608 100.712Z"></path>
<path fill="#F2F4F7" d="M293.616 404.058C311.89 389.09 341.767 390.654 358.3 407.689C365.887 415.158 369.666 425.344 373.15 435.204C367.186 431.868 361.459 428.178 355.466 424.989C342.535 419.321 326.475 422.864 317.5 433.876C302.738 451.471 303.624 478.189 316.024 496.848C316.496 498.324 317.47 501.306 317.943 502.782C309.233 500.007 299.255 497.911 293.527 490.057C287.091 481.496 283.135 471.399 278.057 462.011C276.227 441.817 277.526 418.583 293.616 404.058Z"></path>
<path fill="#6992AB" d="M346.608 100.711C369.429 82.7322 401.077 81.3741 428.592 86.3339C443.649 88.6662 455.753 98.2315 468.684 105.405C482.383 103.487 494.9 95.1611 509.248 96.0173C522.268 96.4306 540.867 96.1945 546.27 110.838C533.398 114.882 517.19 117.539 510.665 131.031C507.241 144.021 515.773 159.462 529.087 162.768C563.747 174.459 595.012 196.011 618.039 224.471C620.608 227.57 622.025 231.379 623.294 235.217C623.678 236.309 624.446 238.523 624.83 239.645C610.186 223.378 596.281 206.107 578.243 193.442C561.179 180.57 541.457 171.891 521.323 165.071C524.777 195.125 522.474 227.275 506.207 253.55C499.712 263.883 488.228 269.109 479.106 276.667C472.935 281.449 471.577 289.627 469.068 296.565C459.148 333.616 430.393 361.397 402.465 385.93C395.173 391.008 387.408 395.319 379.644 399.658C379.289 397.976 378.61 394.61 378.256 392.927C389.268 385.96 400.841 379.347 409.55 369.457C419.706 357.884 426.88 344.126 434.703 330.989C434.94 335.742 435.176 340.495 435.441 345.307C441.494 338.487 447.487 331.608 453.362 324.671C451.886 323.962 448.963 322.545 447.487 321.836C453.834 310.086 460.742 298.248 463.163 284.933C465.732 270.526 464.521 255.824 463.695 241.299C462.189 256.503 460.831 271.854 456.55 286.586C460.211 258.658 452.948 231.084 441.759 205.694C450.409 211.687 459.562 217.739 465.2 226.921C471.902 237.726 474.146 250.421 477.187 262.584C478.515 262.201 481.143 261.463 482.442 261.108C504.672 255.174 513.854 229.047 511.728 208.115C509.071 211.54 506.444 214.994 504.023 218.625C501.72 204.484 498.089 190.638 494.812 176.732C500.539 185.028 506.266 193.354 512.348 201.413C513.352 188.482 515.064 174.548 508.392 162.739C503.757 152.258 493.306 141.217 499.83 129.201C505.528 112.491 524.275 109.214 539.302 106.026C519.05 97.7592 496.465 99.8554 476.714 108.506C477.364 112.491 478.043 116.536 478.692 120.61C462.13 109.834 447.339 94.8069 427.441 90.467C406.332 85.9796 383.718 87.7509 364.115 97.0801C375.097 97.6705 386.079 96.6078 397.032 95.7221C418.791 94.1574 440.519 102.542 456.786 116.831C436.622 109.362 415.189 100.8 393.342 106.085C391.718 102.571 389.091 101.125 385.4 101.774C380.559 105.258 388.648 107.767 391.512 106.616C370.255 112.019 349.53 119.754 330.872 131.356C305.984 147.033 276.491 158.428 260.254 184.467C290.072 170.385 320.391 155.535 353.457 151.136C343.773 157.366 333.588 162.68 323.285 167.757C308.317 173.514 294.707 182.873 287.237 197.457C289.599 199.347 291.991 201.266 294.352 203.214C287.592 214.876 286.057 228.663 287.71 241.889C282.425 227.305 280.949 211.569 282.809 196.217C283.901 191.464 285.791 186.947 287.326 182.371C275.576 188.807 264.328 196.306 251.722 201C249.035 178.445 268.933 162.207 285.761 151.018C315.107 133.57 345.368 117.51 376.927 104.461C366.742 103.9 356.498 103.369 346.608 100.711Z"></path>
<path fill="#93C8D9" d="M364.115 97.0802C383.718 87.7511 406.332 85.9797 427.441 90.4672C447.339 94.807 462.13 109.834 478.693 120.61C478.043 116.536 477.364 112.491 476.715 108.506C496.465 99.8555 519.05 97.7593 539.303 106.026C524.276 109.214 505.529 112.491 499.831 129.201C493.306 141.217 503.757 152.258 508.392 162.739C515.065 174.548 513.352 188.483 512.348 201.414C506.267 193.354 500.539 185.028 494.812 176.733C498.089 190.638 501.72 204.484 504.023 218.625C501.691 234.833 493.808 249.447 482.442 261.109C481.143 261.463 478.515 262.201 477.187 262.585C474.146 250.421 471.902 237.726 465.201 226.921C459.562 217.74 450.41 211.687 441.76 205.694C452.949 231.084 460.211 258.658 456.551 286.586C455.488 290.631 454.218 294.617 452.978 298.632C450.557 285.317 449.229 271.117 441.376 259.662C434.172 248 423.072 239.498 411.41 232.678C417.049 242.007 423.928 250.569 429.685 259.868C432.371 292.432 420.238 325.291 398.096 349.145C384.249 366.121 364.44 376.07 346.018 387.082C344.128 386.875 340.379 386.462 338.489 386.255C344.896 361.161 352.483 335.889 351.952 309.732C352.335 287.531 347.051 265.744 340.172 244.812C335.862 230.848 330.872 215.732 335.124 201.177C340.408 192.439 350.564 188.306 358.476 182.312C339.404 187.302 321.307 197.133 308.789 212.662C298.87 224.116 295.918 239.409 291.962 253.61C290.485 249.713 288.98 245.816 287.71 241.889C286.057 228.663 287.592 214.876 294.353 203.214C303.357 190.903 312.952 178.976 323.285 167.758C333.589 162.68 343.774 157.366 353.457 151.136C320.392 155.535 290.072 170.385 260.254 184.468C276.492 158.429 305.985 147.033 330.872 131.356C349.531 119.754 370.256 112.019 391.512 106.616L393.342 106.085C415.189 100.8 436.623 109.362 456.787 116.831C440.52 102.542 418.791 94.1576 397.033 95.7223C386.08 96.608 375.097 97.6707 364.115 97.0802Z"></path>
<path fill="#4B6072" d="M391.512 106.616C388.649 107.768 380.559 105.258 385.401 101.775C389.091 101.125 391.719 102.572 393.343 106.085L391.512 106.616Z"></path>
<path fill="#9097A2" d="M134.369 315.578C145.086 309.171 155.862 317.881 163.449 324.966C174.461 335.476 189.252 339.934 203.187 345.012C202.212 345.78 200.293 347.285 199.349 348.053C193.385 346.222 187.421 344.54 181.546 342.562C167.228 336.45 157.456 323.047 142.99 317.379C131.978 316.434 130.62 329.837 126.87 337.336C146.739 353.633 157.456 377.989 168.586 400.544C165.486 402.817 162.445 405.15 159.286 407.394C161.028 397.09 155.862 387.997 150.429 379.731C143.078 367.833 137.056 355.197 130.62 342.798C113.172 350.149 99.5324 367.154 98.5581 386.344C97.702 395.289 106.323 399.599 113.172 402.699C117.364 404.323 121.586 405.77 125.896 407.069C125.335 409.076 124.774 411.084 124.213 413.121C112.257 413.15 100.3 412.914 88.3433 412.619C96.8458 411.172 105.437 410.611 114.028 410.11C106.765 406.124 95.3106 404.116 94.1888 394.256C90.9117 375.538 103.193 359.39 115.032 346.429C123.534 337.454 125.867 324.435 134.369 315.578Z"></path>
<path fill="#9097A2" d="M678.266 385.458C690.636 384.779 703.035 386.078 715.435 385.193C725.945 384.957 738.315 383.362 746.581 391.363C755.202 400.308 752.781 413.682 753.667 424.93C753.814 442.614 764.118 458.261 764.885 475.857C765.564 485.068 763.173 494.131 760.782 502.959L757.711 502.693C752.22 502.162 746.729 501.66 741.267 501.217C744.19 499.977 750.094 497.527 753.017 496.287C742.448 487.43 728.661 486.16 715.464 488.138C711.685 485.747 707.847 483.415 704.039 481.171C722.727 481.319 741.739 482.618 758.745 491.209C758.686 484.625 758.627 478.071 758.036 471.547C756.737 457.612 749.474 444.947 749.091 430.894C748.5 417.107 750.685 401.666 740.736 390.477C716.586 386.787 691.61 395.644 668.139 386.226C671.505 385.96 674.9 385.695 678.266 385.458Z"></path>
<path fill="#94C1D2" d="M521.323 165.071C541.458 171.891 561.179 180.57 578.243 193.442C596.281 206.108 610.187 223.378 624.83 239.645C628.697 247.115 632.89 254.407 636.727 261.935C640.477 276.608 643.813 291.517 644.935 306.691C646.972 345.13 634.809 382.831 637.466 421.24C638.646 440.547 647.976 459.619 664.302 470.483C687.949 486.455 714.49 498.176 736.396 516.716C738.492 518.605 740.559 520.524 742.625 522.532C723.672 516.893 704.836 510.929 686.03 504.907C669.291 499.74 656.862 486.986 644.285 475.532C647.238 481.407 650.19 487.341 653.644 492.98C662.087 507.889 673.542 520.938 681.248 536.289C687.772 549.279 687.27 564.247 686.385 578.359C685.381 597.785 679.063 616.68 667.52 632.386C665.837 608.207 670.059 579.452 650.78 560.882C631.295 543.08 609.419 526.399 597.639 502.073C592.827 490.057 594.067 476.772 593.506 464.136C599.883 465.14 606.201 466.557 612.46 468.033C609.626 464.549 606.762 461.036 603.928 457.582C606.998 453.892 610.098 450.29 613.198 446.688C608.238 449.758 603.219 452.799 598.082 455.633C597.374 442.791 595.16 430.155 593.182 417.52C590.908 404.913 599.086 392.602 594.451 380.144C591.794 367.538 585.447 352.54 571.158 350.208C559.378 348.998 550.61 358.592 541.517 364.526C549.134 361.869 556.839 357.411 565.135 358.799C578.833 362.46 587.041 375.745 590.406 388.735C590.082 392.868 589.727 397.001 589.344 401.194C578.243 391.51 566.641 378.963 550.61 379.76C525.515 381.059 502.635 395.171 485.778 413.18C474.914 425.225 458.233 427.853 443.767 433.373C455.724 433.078 467.651 432.252 479.578 431.189C475.15 443.972 469.422 456.283 464.935 469.066C461.156 479.37 462.573 490.441 463.606 501.098C448.048 493.806 430.925 491.297 413.861 492.95C409.462 492.596 405.092 492.271 400.723 492.005C400.841 461.597 400.015 430.805 389.947 401.784C393.992 396.411 398.037 391.008 402.465 385.93C430.393 361.397 459.148 333.616 469.068 296.565C471.578 289.627 472.936 281.449 479.106 276.667C488.228 269.109 499.713 263.883 506.208 253.55C522.475 227.275 524.777 195.125 521.323 165.071Z"></path>
<path fill="#77A7BD" d="M287.238 197.458C294.707 182.873 308.317 173.515 323.285 167.758C312.952 178.976 303.357 190.904 294.353 203.215C291.991 201.266 289.599 199.347 287.238 197.458Z"></path>
<path fill="#6087A1" d="M308.789 212.661C321.307 197.133 339.404 187.302 358.476 182.312C350.564 188.305 340.408 192.438 335.124 201.177C330.872 215.732 335.862 230.848 340.172 244.812C347.051 265.743 352.335 287.531 351.951 309.732C352.483 335.889 344.896 361.161 338.489 386.255C340.379 386.462 344.128 386.875 346.017 387.082C364.469 390.802 383.423 384.425 397.121 371.848C416.252 354.843 428.297 331.107 435.442 306.839C440.283 291.192 439.191 273.567 429.685 259.868C423.928 250.569 417.049 242.007 411.41 232.678C423.072 239.498 434.172 248 441.376 259.662C449.229 271.116 450.557 285.317 452.978 298.632C454.218 294.616 455.488 290.631 456.55 286.586C460.831 271.854 462.189 256.503 463.695 241.299C464.521 255.824 465.732 270.526 463.163 284.933C460.743 298.248 453.834 310.086 447.487 321.836C448.963 322.545 451.886 323.962 453.362 324.671C447.487 331.608 441.494 338.487 435.442 345.307C435.176 340.495 434.94 335.742 434.704 330.989C426.88 344.126 419.706 357.884 409.55 369.457C400.841 379.347 389.268 385.96 378.256 392.927C378.61 394.61 379.289 397.976 379.644 399.658C382.537 409.991 382.271 421.151 374.802 429.594C370.492 418.996 364.764 408.604 355.76 401.282C345.663 392.661 332.112 390.211 319.476 387.761C330.725 373.56 340.703 357.234 340.467 338.487C340.762 335.151 341.058 331.874 341.264 328.597C334.976 325.733 328.747 322.752 322.429 320.036C326.06 319.652 329.662 319.268 333.293 318.914C336.245 319.327 339.168 319.799 342.091 320.301C343.803 286.173 324.702 255.115 326.946 221.046C327.418 215.082 328.215 209.148 328.924 203.273C320.569 210.595 311.682 218.123 307.136 228.574C300.316 244.103 298.752 261.315 298.073 278.054C291.105 268.341 283.164 258.924 279.562 247.292C275.931 235.866 273.244 224.087 267.782 213.34C268.638 212.219 270.351 209.975 271.207 208.853C274.691 204.307 278.794 200.262 282.809 196.217C280.949 211.569 282.425 227.305 287.71 241.889C288.98 245.816 290.485 249.712 291.961 253.609C295.917 239.409 298.87 224.116 308.789 212.661Z"></path>
<path fill="#709CB2" d="M307.136 228.575C311.683 218.124 320.569 210.595 328.924 203.274C328.215 209.149 327.418 215.083 326.946 221.046C325.145 220.663 321.543 219.954 319.742 219.6C314.782 233.328 311.594 247.735 311.358 262.408C311.033 280.771 307.52 298.839 305.069 317.025C302.176 318.383 299.342 319.859 296.567 321.453C301.615 307.518 302.235 292.285 298.073 278.055C298.752 261.315 300.316 244.104 307.136 228.575Z"></path>
<path fill="#5E8099" d="M233.388 240.502C243.662 227.63 255.471 214.906 271.207 208.854C270.351 209.975 268.638 212.219 267.782 213.341C254.231 228.22 236.459 239.705 227.513 258.363C212.84 285.967 214.051 317.91 211.069 348.142C209.003 371.789 195.57 394.699 173.9 405.357C150.43 418.701 122.737 413.948 97.082 416.25C101.894 419.97 106.677 423.838 111.873 427.056C122.944 430.539 134.664 431.425 146.208 430.746C133.867 432.901 121.468 434.613 109.334 437.713C131.948 448.194 154.474 433.905 177.295 432.99C166.283 440.193 154.12 445.271 142.311 450.969C130.295 456.815 119.431 465.819 113.438 477.982C107.592 489.024 107.622 501.896 107.474 514.089C111.223 508.538 115.061 502.959 117.748 496.788C128.169 492.567 138.266 487.459 148.953 483.857C162.593 479.222 177.266 479.842 191.112 476.152C206.05 472.196 220.782 467.148 234.54 460.092C251.309 451.53 262.557 435.913 274.513 421.948C274.307 428.65 274.336 435.381 274.336 442.142C263.295 457.464 251.397 472.609 235.337 483.001C251.81 481.879 268.314 483.916 283.961 489.201C281.451 482.765 278.912 476.359 277.023 469.716C277.289 467.797 277.79 463.959 278.056 462.011C283.134 471.399 287.09 481.496 293.526 490.057C299.253 497.91 309.232 500.006 317.941 502.781C317.469 501.305 316.495 498.324 316.022 496.847C323.698 501.778 331.581 507.564 340.91 508.479C347.759 507.387 353.87 503.844 359.804 500.508C381.149 486.308 375.156 457.818 375.658 436.09C378.965 451.146 381.031 466.911 377.311 482.145C375.038 493.187 368.366 502.486 362.048 511.55C350.062 512.79 337.81 512.908 326.208 509.335C299.312 503.077 274.691 487.312 246.496 487.312C231.942 486.898 218.42 493.364 206.345 500.922C197.636 506.354 188.927 512.937 184.705 522.65C179.982 533.072 180.425 544.763 178.83 555.893C177.59 564.513 176.38 573.311 177.679 582.05C182.757 592.324 190.61 601.21 193.533 612.517C168.881 619.16 150.725 596.368 136.229 580.19C132.007 574.167 127.313 568.558 122.855 562.772C112.463 543.198 126.634 522.355 131.712 503.313C119.637 505.291 114.589 516.539 111.135 526.872C109.865 526.931 107.356 527.079 106.086 527.138C101.127 513.912 98.1153 499.15 103.547 485.57C108.242 469.185 121.409 457.494 134.428 447.485C121.586 447.308 107.799 446.039 98.2334 436.503C100.861 435.706 106.145 434.141 108.802 433.374C101.127 427.321 93.3326 421.151 88.3433 412.619C100.3 412.914 112.257 413.151 124.213 413.121C124.774 411.084 125.335 409.076 125.896 407.069C136.79 410.08 148.304 409.903 159.286 407.394C162.445 405.15 165.486 402.818 168.586 400.544C183.111 395.201 193.857 383.215 200.589 369.575C202.862 363.287 204.633 356.821 206.493 350.444C204.692 349.854 201.12 348.643 199.349 348.053C200.293 347.285 202.212 345.78 203.187 345.012C207.438 342.709 206.316 337.454 206.877 333.498C207.881 301.141 213.431 266.984 233.388 240.502ZM196.603 480.935C181.724 485.334 162.534 482.736 152.23 496.464C137.646 504.759 125.926 521.469 129.35 538.888C133.336 561.177 145.174 581.961 162.209 596.929C167.376 605.461 177.768 608.355 187.126 609.477C180.808 598.819 172.247 588.427 171.863 575.466C170.741 550.638 175.435 524.924 189.901 504.258C194.359 500.803 198.906 497.467 203.364 494.043C219.867 490.913 232.916 478.189 243.81 466.085C228.222 471.517 212.9 477.894 196.603 480.935Z"></path>
<path fill="#5D829B" d="M504.023 218.625C506.444 214.994 509.072 211.54 511.729 208.115C513.854 229.047 504.673 255.174 482.442 261.108C493.808 249.447 501.691 234.833 504.023 218.625Z"></path>
<path fill="#709AAF" d="M227.514 258.363C236.459 239.705 254.232 228.22 267.783 213.341C259.369 227.305 247.471 239.262 241.684 254.732C231.263 281.686 230.2 310.854 225.624 339.108C220.841 370.254 199.172 397.681 170.712 410.818C152.024 419.645 129.764 415.955 111.873 427.056C106.677 423.838 101.894 419.97 97.0823 416.25C122.737 413.948 150.43 418.701 173.9 405.357C195.57 394.699 209.003 371.789 211.069 348.142C214.051 317.91 212.841 285.967 227.514 258.363Z"></path>
<path fill="#94C4D5" d="M267.783 213.341C273.245 224.087 275.931 235.867 279.562 247.292C283.164 258.924 291.106 268.342 298.073 278.055C302.236 292.285 301.616 307.518 296.568 321.453C292.257 327.83 288.154 334.384 285.054 341.469C278.441 358.77 280.212 377.605 278.5 395.703C278.204 397.002 277.673 399.54 277.378 400.81C275.636 402.375 273.924 403.939 272.182 405.563C275.695 404.796 279.208 404.087 282.721 403.408C280.094 409.608 277.348 415.808 274.514 421.948C262.557 435.913 251.309 451.53 234.54 460.092C220.783 467.148 206.051 472.196 191.112 476.152C177.266 479.842 162.594 479.222 148.954 483.857C138.267 487.459 128.17 492.567 117.749 496.788C120.022 477.126 137.854 466.882 151.67 455.456C148.57 453.921 145.441 452.445 142.311 450.969C154.121 445.271 166.284 440.193 177.296 432.99C182.846 429.299 187.658 424.635 192.411 420C176.646 422.066 161.737 427.735 146.208 430.746C134.665 431.425 122.945 430.539 111.874 427.056C129.764 415.955 152.024 419.645 170.712 410.818C199.172 397.681 220.842 370.254 225.624 339.108C230.201 310.854 231.263 281.686 241.685 254.732C247.471 239.262 259.369 227.305 267.783 213.341Z"></path>
<path fill="#97C1CF" d="M319.742 219.6C321.543 219.954 325.145 220.663 326.945 221.046C324.702 255.116 343.803 286.173 342.091 320.302C339.168 319.8 336.245 319.327 333.293 318.914C324.023 317.025 314.516 316.139 305.069 317.025C307.519 298.839 311.033 280.771 311.357 262.408C311.594 247.735 314.782 233.328 319.742 219.6Z"></path>
<path fill="#637085" d="M623.295 235.217C631.827 231.291 639.562 225.475 648.714 222.936C660.257 221.43 671.978 222.641 683.462 224.146C681.572 226.715 679.683 229.313 677.794 231.911C662.914 219.718 643.842 228.929 628.934 235.896C632.063 242.185 635.281 248.414 638.41 254.732C641.599 261.197 644.699 267.751 647.444 274.482C649.718 280.269 651.666 286.203 653.29 292.255C655.622 301.26 657.098 310.471 659.017 319.564C660.346 325.704 663.947 330.989 666.782 336.539C662.383 348.584 657.364 360.866 657.423 373.944C663.357 379.377 671.21 381.886 678.266 385.458C674.9 385.694 671.505 385.96 668.14 386.226C663.505 385.251 658.899 384.277 654.264 383.362C652.256 400.161 651.43 417.372 655.474 433.964C656.537 439.071 657.925 444.12 659.165 449.227C659.283 450.615 659.519 453.39 659.667 454.778C641.569 426.879 647.621 392.13 652.906 361.368C659.401 327.653 654.825 291.428 636.728 261.935C632.89 254.407 628.697 247.115 624.83 239.646C624.446 238.524 623.678 236.31 623.295 235.217Z"></path>
<path fill="#CFBB4C" d="M628.934 235.896C643.843 228.929 662.915 219.718 677.794 231.911C679.093 233.475 681.721 236.605 683.02 238.169C680.776 240.797 678.562 243.513 676.407 246.229C663.476 247.794 650.899 251.218 638.411 254.732C635.281 248.414 632.063 242.184 628.934 235.896Z"></path>
<path fill="#B9A548" d="M695.595 242.598C700.555 240.62 705.603 238.937 710.622 237.195C719.922 249.388 732.499 259.691 737.399 274.689C729.812 276.991 721.221 277.08 714.195 273.095C707.729 268.991 701.972 261.374 693.588 262.319C690.517 262.407 687.476 262.791 684.436 263.116C683.816 262.171 682.517 260.252 681.867 259.307C686 253.491 687.801 244.605 695.595 242.598Z"></path>
<path fill="#AB973E" d="M638.41 254.732C650.899 251.218 663.475 247.794 676.406 246.229L674.9 249.093C667.549 259.337 656.921 266.393 647.444 274.482C644.699 267.751 641.599 261.197 638.41 254.732Z"></path>
<path fill="#D6CB52" d="M674.9 249.093C677.233 252.458 679.565 255.883 681.868 259.308C682.517 260.252 683.816 262.171 684.436 263.116C687.477 262.791 690.518 262.408 693.588 262.319C701.973 261.374 707.73 268.991 714.195 273.095C713.811 274.158 713.103 276.313 712.719 277.376C704.807 281.863 696.541 285.642 688.274 289.45C688.156 284.107 688.038 278.793 687.89 273.478C675.196 277.346 662.885 282.896 653.29 292.255C651.666 286.203 649.718 280.269 647.444 274.482C656.921 266.393 667.549 259.337 674.9 249.093Z"></path>
<path fill="#6B97B3" d="M429.685 259.868C439.191 273.567 440.284 291.192 435.442 306.839C428.298 331.107 416.252 354.843 397.122 371.848C383.423 384.425 364.47 390.802 346.018 387.082C364.44 376.07 384.25 366.12 398.096 349.145C420.238 325.291 432.372 292.432 429.685 259.868Z"></path>
<path fill="#709EB4" d="M636.728 261.935C654.825 291.428 659.401 327.652 652.906 361.367C647.622 392.13 641.57 426.878 659.667 454.777C659.52 453.39 659.283 450.614 659.165 449.227C659.992 450.378 661.616 452.681 662.413 453.832C663.918 455.84 665.513 457.818 667.195 459.796C673.956 468.535 682.547 475.65 692.083 481.23C708.793 491.267 725.68 500.98 741.799 511.992C740.441 513.173 737.725 515.535 736.397 516.716C714.491 498.175 687.95 486.455 664.302 470.483C647.976 459.619 638.647 440.547 637.466 421.239C634.809 382.83 646.972 345.13 644.935 306.691C643.813 291.516 640.477 276.608 636.728 261.935Z"></path>
<path fill="#B49E49" d="M653.29 292.255C662.885 282.896 675.196 277.346 687.891 273.478C688.038 278.792 688.157 284.107 688.275 289.45C696.541 285.642 704.807 281.863 712.719 277.375C721.458 283.693 717.443 294.646 715.17 303.208C713.959 308.197 710.446 312.389 705.723 314.456C700.438 318.766 696.069 311.651 691.493 309.585C686.356 306.101 681.071 302.883 675.757 299.754C675.137 303.503 674.547 307.282 673.986 311.09C677.853 310.943 681.75 310.854 685.647 310.766C684.082 313.718 682.547 316.7 680.983 319.711C674.606 319.622 668.258 319.593 661.881 319.593L659.018 319.563C657.099 310.47 655.623 301.259 653.29 292.255Z"></path>
<path fill="#E4DFE5" d="M126.87 337.336C130.619 329.837 131.978 316.434 142.99 317.379C157.456 323.047 167.228 336.451 181.546 342.562C178.741 343.831 175.907 345.13 173.103 346.429C182.255 354.164 191.436 361.84 200.588 369.575C193.857 383.215 183.111 395.201 168.586 400.544C157.456 377.989 146.739 353.633 126.87 337.336Z"></path>
<path fill="#8BB4C7" d="M285.053 341.469C296.685 332.76 305.778 318.028 322.429 320.036C328.746 322.752 334.976 325.734 341.264 328.598C341.057 331.875 340.762 335.152 340.467 338.488C336.245 346.341 332.082 355.581 323.373 359.36C311.712 364.674 298.545 366.977 288.123 374.86C281.805 379.819 280.565 388.41 278.499 395.703C280.211 377.605 278.44 358.77 285.053 341.469Z"></path>
<path fill="#78A0B8" d="M323.374 359.36C332.083 355.581 336.246 346.341 340.467 338.488C340.704 357.234 330.725 373.561 319.477 387.761C304.332 387.377 290.899 395.053 277.377 400.81C277.673 399.54 278.204 397.002 278.499 395.703C280.566 388.41 281.806 379.819 288.124 374.86C298.545 366.977 311.712 364.674 323.374 359.36Z"></path>
<path fill="#D3B3C5" d="M181.547 342.562C187.422 344.54 193.386 346.223 199.349 348.053C201.121 348.644 204.693 349.854 206.494 350.444C204.634 356.821 202.862 363.287 200.589 369.575C191.437 361.84 182.256 354.164 173.104 346.429C175.908 345.13 178.742 343.831 181.547 342.562Z"></path>
<path fill="#E6C7D1" d="M98.5586 386.344C99.5329 367.154 113.172 350.149 130.62 342.798C137.056 355.197 143.079 367.833 150.43 379.731C143.61 381.207 136.525 382.122 130.236 385.369C123.269 389.709 118.516 396.617 113.172 402.699C106.323 399.599 97.7024 395.289 98.5586 386.344Z"></path>
<path fill="#0E0B0C" d="M541.517 364.527C550.61 358.593 559.379 348.998 571.158 350.208C585.447 352.541 591.795 367.538 594.452 380.144C594.333 386.374 594.038 392.603 593.773 398.891C592.621 395.467 591.499 392.101 590.407 388.735C587.041 375.745 578.834 362.46 565.135 358.799C556.84 357.412 549.134 361.87 541.517 364.527Z"></path>
<path fill="#D9A5AF" d="M130.236 385.37C136.524 382.122 143.61 381.207 150.43 379.731C155.862 387.997 161.028 397.09 159.286 407.394C148.304 409.903 136.79 410.08 125.896 407.069C121.586 405.77 117.364 404.323 113.172 402.699C118.515 396.618 123.269 389.709 130.236 385.37Z"></path>
<path fill="#719BB2" d="M485.777 413.18C502.635 395.171 525.515 381.059 550.609 379.76C566.64 378.963 578.242 391.51 589.343 401.194C589.727 397.001 590.081 392.868 590.406 388.735C591.498 392.101 592.62 395.466 593.771 398.891C594.037 392.603 594.332 386.373 594.45 380.144C599.086 392.602 590.908 404.913 593.181 417.52C595.159 430.155 597.373 442.791 598.082 455.633C596.576 456.431 593.535 458.025 592 458.822C585.239 447.899 578.922 435.528 566.965 429.447C548.011 419.173 523.301 419.911 505.351 432.133C492.745 438.747 486.958 452.829 481.792 465.317C475.74 479.96 475.681 496.021 476.684 511.609C475.946 515.122 475.12 518.694 474.293 522.266C464.108 509.158 449.76 500.006 433.138 497.851C426.703 496.316 420.326 494.485 413.86 492.95C430.924 491.297 448.047 493.806 463.606 501.098C462.573 490.441 461.155 479.37 464.934 469.066C469.422 456.283 475.149 443.972 479.578 431.189C467.65 432.252 455.723 433.078 443.767 433.373C458.233 427.853 474.913 425.225 485.777 413.18Z"></path>
<path fill="#DBC3CC" d="M654.264 383.362C658.899 384.277 663.504 385.251 668.139 386.226C691.61 395.643 716.586 386.786 740.736 390.477C713.427 392.75 686.739 401.666 664.183 417.372C658.515 420.974 657.128 427.941 655.474 433.964C651.43 417.372 652.256 400.16 654.264 383.362Z"></path>
<path fill="#060707" d="M277.378 400.809C290.899 395.052 304.332 387.377 319.477 387.76C332.113 390.211 345.664 392.661 355.76 401.282C364.765 408.604 370.492 418.995 374.803 429.594C375.009 431.218 375.423 434.465 375.659 436.089C375.157 457.818 381.15 486.307 359.805 500.508C350.417 491.001 337.279 481.584 336.423 467.117C338.903 459.501 347.701 456.607 353.782 452.445C354.196 447.721 354.52 443.027 354.698 438.362C354.816 433.904 355.022 429.417 355.465 424.989C361.458 428.177 367.186 431.867 373.149 435.203C369.666 425.343 365.887 415.157 358.299 407.688C341.767 390.654 311.89 389.089 293.615 404.057C277.525 418.582 276.226 441.817 278.057 462.01C277.791 463.959 277.289 467.796 277.023 469.715C274.75 460.711 274.337 451.382 274.337 442.141C274.337 435.38 274.307 428.649 274.514 421.948C277.348 415.807 280.094 409.607 282.721 403.407C279.208 404.086 275.695 404.795 272.182 405.563C273.923 403.939 275.636 402.374 277.378 400.809Z"></path>
<path fill="#82ACC2" d="M379.644 399.658C387.408 395.318 395.173 391.008 402.465 385.93C398.036 391.008 393.992 396.411 389.947 401.784C400.014 430.805 400.841 461.597 400.723 492.005C405.092 492.271 409.462 492.596 413.86 492.95C420.326 494.485 426.703 496.315 433.139 497.851C418.112 496.965 402.73 499.77 390.508 508.981C393.933 510.221 397.387 511.402 400.87 512.553C396.619 513.232 392.368 514.029 388.176 514.885C387.674 525.838 391.482 536.26 398.597 544.556L400.044 546.209C388.028 533.957 376.839 520.642 362.048 511.549C368.366 502.486 375.038 493.186 377.311 482.145C381.031 466.911 378.965 451.146 375.658 436.089C375.422 434.465 375.009 431.218 374.802 429.594C382.271 421.151 382.537 409.991 379.644 399.658Z"></path>
<path fill="#EEE4E8" d="M664.183 417.372C686.739 401.666 713.427 392.75 740.736 390.476C750.685 401.666 748.5 417.106 749.091 430.893C749.474 444.946 756.737 457.611 758.036 471.546C757.829 473.908 757.445 478.602 757.239 480.964C750.271 467.974 744.928 454.187 737.4 441.521C732.381 433.078 727.893 424.369 724.351 415.216C714.903 417.755 705.131 420.531 697.78 427.291C686.709 437.034 676.376 448.193 662.412 453.832C661.615 452.681 659.991 450.378 659.164 449.227C657.925 444.119 656.537 439.071 655.474 433.963C657.127 427.941 658.515 420.974 664.183 417.372Z"></path>
<path fill="#DDB2BF" d="M697.78 427.291C705.131 420.531 714.903 417.756 724.351 415.217C727.893 424.369 732.381 433.078 737.4 441.521C744.928 454.187 750.272 467.974 757.239 480.964C757.446 478.602 757.83 473.908 758.036 471.546C758.627 478.07 758.686 484.624 758.745 491.208C741.74 482.617 722.727 481.318 704.039 481.17C695.33 476.24 687.064 470.66 678.354 465.789C689.307 447.308 704.777 432.192 721.074 418.494C702.268 429.949 690.577 449.05 674.782 463.841C672.863 462.837 669.084 460.8 667.195 459.796C665.512 457.818 663.918 455.84 662.412 453.832C676.376 448.193 686.709 437.034 697.78 427.291Z"></path>
<path fill="#80B9CD" d="M146.208 430.746C161.737 427.735 176.645 422.066 192.411 420C187.657 424.635 182.845 429.299 177.295 432.99C154.474 433.905 131.948 448.194 109.334 437.713C121.468 434.613 133.867 432.901 146.208 430.746Z"></path>
<path fill="#242A2E" d="M317.499 433.875C326.473 422.863 342.534 419.321 355.465 424.989C355.022 429.417 354.815 433.905 354.697 438.363C348.852 436.68 342.829 435.647 336.747 435.351C336.541 441.138 336.364 446.954 336.275 452.799C342.121 452.859 347.936 452.711 353.782 452.445C347.7 456.608 338.903 459.501 336.423 467.118C337.279 481.584 350.416 491.002 359.805 500.508C353.871 503.844 347.759 507.387 340.91 508.479C331.581 507.564 323.698 501.778 316.022 496.847C303.623 478.189 302.737 451.471 317.499 433.875Z"></path>
<path fill="#0C090D" d="M505.352 432.133C523.302 419.911 548.012 419.173 566.966 429.447C578.922 435.528 585.24 447.898 592.001 458.822C593.536 458.025 596.577 456.43 598.083 455.633C603.22 452.799 608.238 449.758 613.198 446.688C610.098 450.29 606.998 453.892 603.928 457.582C606.762 461.036 609.626 464.549 612.46 468.033C606.201 466.557 599.883 465.14 593.507 464.136C591.794 478.868 591.115 493.777 588.222 508.361C587.809 501.896 586.834 495.519 586.096 489.142C586.096 469.332 580.487 447.337 562.626 436.266C547.126 425.491 527.405 428.236 510.134 432.074C508.924 432.074 506.562 432.104 505.352 432.133Z"></path>
<path fill="#CBC8CF" d="M510.134 432.075C527.405 428.237 547.126 425.491 562.625 436.267C580.487 447.338 586.096 469.332 586.096 489.142C584.679 503.224 580.457 516.864 574.7 529.795C570.744 529.854 566.759 529.913 562.803 529.972C577.121 512.583 578.656 488.965 577.239 467.443C574.198 457.641 565.548 450.556 557.341 444.976C543.908 436.651 527.464 437.713 512.319 436.71C516.157 438.511 519.995 440.341 523.833 442.201C513.5 442.112 503.137 444.533 494.782 450.792C498.945 443.825 504.466 437.831 510.134 432.075Z"></path>
<path fill="#3E4B55" d="M481.792 465.317C486.958 452.829 492.745 438.747 505.351 432.133C506.562 432.104 508.923 432.074 510.134 432.074C504.465 437.831 498.945 443.824 494.782 450.792L493.631 452.711C487.608 462.778 482.766 473.524 478.633 484.536C481.792 484.802 484.98 485.127 488.169 485.481C483.15 494.308 479.607 503.844 477.836 513.882L476.685 511.609C475.681 496.021 475.74 479.96 481.792 465.317Z"></path>
<path fill="#EFF3F2" d="M336.748 435.351C342.83 435.647 348.852 436.68 354.698 438.363C354.521 443.027 354.196 447.721 353.783 452.445C347.937 452.711 342.121 452.858 336.276 452.799C336.364 446.954 336.541 441.138 336.748 435.351Z"></path>
<path fill="#F3F2F4" d="M512.319 436.71C527.464 437.714 543.908 436.651 557.341 444.976C565.548 450.556 574.198 457.641 577.239 467.443C578.656 488.965 577.121 512.583 562.802 529.972C550.285 530.061 537.767 529.854 525.338 528.555C539.686 513.557 549.133 493.275 546.624 472.196C546.624 458.291 536.498 446.718 523.832 442.201C519.994 440.341 516.157 438.511 512.319 436.71Z"></path>
<path fill="#99B7C7" d="M235.337 483.001C251.397 472.609 263.295 457.464 274.336 442.142C274.336 451.382 274.75 460.711 277.023 469.716C278.912 476.358 281.451 482.765 283.961 489.201C268.314 483.916 251.811 481.879 235.337 483.001Z"></path>
<path fill="#262E34" d="M494.782 450.792C503.137 444.533 513.499 442.112 523.832 442.201C536.498 446.718 546.624 458.291 546.624 472.196C549.133 493.275 539.686 513.557 525.338 528.554C518.194 528.791 511.285 530.798 504.288 532.038C495.786 531.064 487.224 528.141 481.822 521.174C492.154 519.078 504.761 519.284 511.846 510.103C521.057 500.213 520.496 485.953 520.791 473.377C514.946 472.461 509.13 471.576 503.314 470.631C508.687 469.745 514.06 468.771 519.404 467.797C519.552 463.073 519.67 458.35 519.817 453.715C511.61 451.146 503.462 453.183 496.288 457.612C495.638 456.401 494.31 453.921 493.631 452.711L494.782 450.792Z"></path>
<path fill="#77A8BD" d="M113.438 477.982C119.431 465.819 130.295 456.815 142.311 450.969C145.441 452.445 148.57 453.921 151.67 455.456C137.853 466.882 120.022 477.126 117.748 496.788C115.062 502.958 111.224 508.538 107.474 514.088C107.622 501.896 107.592 489.024 113.438 477.982Z"></path>
<path fill="#F1F0EF" d="M496.288 457.611C503.462 453.183 511.611 451.146 519.818 453.714C519.67 458.35 519.552 463.073 519.405 467.797C514.061 468.771 508.688 469.745 503.315 470.631C500.953 466.262 498.65 461.922 496.288 457.611Z"></path>
<path fill="black" d="M493.631 452.711C494.31 453.921 495.639 456.401 496.288 457.612C498.65 461.922 500.953 466.262 503.314 470.631C509.13 471.576 514.946 472.462 520.792 473.377C520.497 485.953 521.058 500.213 511.847 510.103C504.761 519.285 492.155 519.078 481.822 521.174C480.818 519.344 478.811 515.712 477.836 513.882C479.608 503.844 483.151 494.309 488.169 485.481C484.981 485.127 481.792 484.802 478.634 484.536C482.767 473.525 487.608 462.778 493.631 452.711Z"></path>
<path fill="#6692AB" d="M692.083 481.23C682.547 475.65 673.956 468.535 667.195 459.796C669.084 460.8 672.863 462.837 674.782 463.841C675.668 464.313 677.469 465.287 678.355 465.789C687.064 470.661 695.33 476.24 704.039 481.171C707.848 483.414 711.686 485.747 715.465 488.138C725.207 494.397 735.038 500.538 744.367 507.387C747.644 510.546 753.519 514 752.456 519.255C751.364 525.986 743.659 531.477 736.957 528.82C721.458 523.979 706.076 518.458 689.927 516.096C698.961 531.536 707.552 548.217 707.966 566.521C707.671 591.999 697.072 617.802 677.233 634.187C671.505 639.265 663.682 640.268 656.478 641.863C657.954 634.069 659.489 626.334 660.523 618.51C647.326 628.4 637.672 643.9 620.992 648.446C615.501 647.944 610.748 643.693 605.109 644.697C598.525 645.405 592.089 647 585.624 648.328C620.136 677.556 661.674 696.686 698.253 723.021C725.797 743.096 756.796 762.315 771.794 794.318C781.861 814.63 783.101 837.687 783.485 859.947C794.615 860.154 805.774 858.294 815.576 852.743C813.775 847.134 812.033 841.525 810.262 835.945C806.985 836.417 803.737 836.949 800.49 837.51C801.08 819.56 795.235 801.64 784.666 787.144C777.196 776.841 768.517 767.246 763.173 755.555C756.56 741.148 750.538 726.475 744.574 711.802C740.293 701.469 738.049 689.365 742.832 678.825C751.453 659.931 768.694 646.734 786.732 637.405C820.27 619.396 861.041 612.074 897.856 623.824C903.76 625.301 907.982 629.877 912.027 634.187C893.752 635.279 875.241 634.216 857.292 638.615C871.492 644.431 886.755 648.358 899.125 657.864C914.654 669.614 926.581 686.649 931.571 705.543C934.021 711.389 930.419 721.043 922.802 718.267C915.422 711.389 911.495 701.292 902.845 695.771C894.49 690.457 885.19 686.737 875.684 684.021C872.2 682.988 868.717 682.102 865.233 681.216C864.702 683.224 864.17 685.291 863.668 687.357C852.361 681.807 839.519 682.574 827.415 684.257C824.226 685.054 821.097 685.999 817.997 687.062C809.347 691.786 801.523 697.956 795.058 705.396C791.81 704.215 788.592 703.093 785.404 701.971C800.903 686.973 819.827 674.692 841.467 671.356C861.07 667.075 881.618 671.681 898.535 682.102C908.632 690.841 916.987 701.292 925.961 711.152C922.714 697.306 917.784 683.49 908.13 672.743C887.582 650.926 856.908 641.656 827.474 644.726C840.729 631.205 859.949 629.168 877.456 625.064C848.199 618.245 818.085 626.777 791.692 639.471C776.311 646.763 763.085 658.159 753.401 672.123C738.669 688.715 753.401 709.558 759.66 726.445C762.288 733.176 765.122 739.848 767.867 746.58C769.727 734.062 771.499 721.042 778.555 710.237C774.067 731.7 773.418 756.263 789.035 773.623C800.224 789.092 816.285 801.403 823.163 819.737C828.448 832.934 823.606 847.016 820.979 860.272C829.688 854.19 837.246 846.721 844.331 838.897C850.088 835.473 856.288 832.934 862.488 830.454C863.196 835 863.905 839.576 864.613 844.182C865.587 843.385 867.536 841.82 868.51 841.023C875.566 835.266 883.153 830.247 890.387 824.785C891.154 829.716 892.158 834.675 893.132 839.635C895.523 840.403 897.944 841.229 900.365 842.086C869.366 879.461 820.979 898.149 773.565 902.223C766.007 912.852 760.634 927.436 746.729 931.038C731.141 935.791 714.904 938.861 698.607 939.422C692.407 938.772 686.237 937.857 680.067 937.09C679.594 932.514 679.181 928.026 678.532 923.568C684.672 929.237 692.319 934.315 701.146 932.868C718.742 930.978 738.315 930.565 753.106 919.642C769.462 904.113 775.602 880.642 777.078 858.795C777.639 834.587 774.923 808.755 761.225 788.089C749.888 772.412 735.333 759.54 720.424 747.436C684.407 716.378 640.713 696.243 602.275 668.551C591.705 661.289 581.609 651.753 568.294 650.365C551.23 648.358 534.077 647.738 517.013 645.819C521.737 644.756 526.431 643.516 531.154 642.542C532.512 642.571 535.199 642.66 536.557 642.689C563.718 643.457 591.794 645.612 618.01 636.991C638.263 630.762 649.097 606.849 643.222 587.039C641.569 581.016 639.03 575.26 635.93 569.916C624.535 547.538 599.44 538.681 577.003 531.832C581.313 524.333 586.45 516.982 588.222 508.361C591.115 493.777 591.794 478.868 593.506 464.136C594.067 476.772 592.827 490.057 597.639 502.073C609.419 526.399 631.295 543.08 650.78 560.882C670.059 579.452 665.837 608.207 667.52 632.386C679.063 616.68 685.381 597.785 686.385 578.359C687.861 577.916 690.784 577.06 692.23 576.647C690.695 589.283 689.101 601.889 687.802 614.554C703.124 592.176 707.316 562.004 694.71 537.411C686.385 518.222 668.346 506.737 653.644 492.98C650.19 487.341 647.238 481.407 644.285 475.532C656.862 486.987 669.291 499.74 686.03 504.907C704.836 510.929 723.672 516.893 742.625 522.532C740.559 520.524 738.492 518.605 736.396 516.716C737.725 515.535 740.441 513.173 741.799 511.992C725.679 500.98 708.792 491.267 692.083 481.23ZM830.072 860.655C815.93 868.892 795.884 866.796 786.673 882.414C816.462 883.978 846.752 871.845 867.152 850.057C854.162 850.913 841.467 854.308 830.072 860.655Z"></path>
<path fill="#76A2B9" d="M196.603 480.935C212.9 477.894 228.222 471.517 243.81 466.085C232.916 478.189 219.867 490.913 203.364 494.043C186.3 494.013 169.147 493.925 152.231 496.464C162.534 482.735 181.724 485.333 196.603 480.935Z"></path>
<path fill="#E1C1C9" d="M206.346 500.921C218.421 493.364 231.942 486.898 246.497 487.312C274.691 487.312 299.313 503.077 326.208 509.335C319.211 517.985 313.248 527.521 309.616 538.12C302.324 558.579 293.851 578.979 280.389 596.25C279.739 596.87 278.411 598.14 277.761 598.76C257.597 587.748 233.802 585.032 214.789 571.717C203.659 564.129 191.201 554.416 189.961 539.921C188.367 524.835 200.441 513.646 206.346 500.921ZM237.02 545.471C239.116 553.117 248.711 549.752 254.586 551.287C254.94 545.205 257.214 538.474 253.464 533.013C245.345 528.496 235.455 536.762 237.02 545.471Z"></path>
<path fill="#99A8B9" d="M715.464 488.138C728.661 486.16 742.448 487.429 753.017 496.286C750.094 497.526 744.19 499.977 741.267 501.216C746.729 501.659 752.22 502.161 757.711 502.693C753.253 504.228 748.796 505.763 744.367 507.387C735.038 500.538 725.207 494.397 715.464 488.138Z"></path>
<path fill="#93C3D3" d="M152.23 496.463C169.147 493.924 186.299 494.013 203.364 494.042C198.906 497.467 194.359 500.803 189.901 504.257C161.648 524.923 153.086 564.306 162.209 596.929C145.174 581.961 133.336 561.177 129.35 538.887C125.925 521.469 137.646 504.759 152.23 496.463Z"></path>
<path fill="#7CB0C5" d="M653.644 492.979C668.346 506.737 686.385 518.221 694.71 537.411C707.316 562.004 703.124 592.176 687.802 614.554C689.101 601.889 690.695 589.282 692.23 576.647C690.784 577.06 687.861 577.916 686.385 578.359C687.27 564.247 687.772 549.279 681.248 536.289C673.542 520.937 662.088 507.888 653.644 492.979Z"></path>
<path fill="#A3CBD9" d="M390.508 508.981C402.731 499.77 418.112 496.965 433.139 497.851C449.76 500.006 464.108 509.158 474.294 522.266C475.12 518.694 475.947 515.121 476.685 511.608L477.836 513.882C478.811 515.712 480.818 519.343 481.822 521.174C487.225 528.141 495.786 531.064 504.289 532.038L501.838 532.451C498.207 532.628 494.605 532.865 490.974 533.13C482.56 532.865 474.559 536.023 468.507 541.839C466.382 535.905 463.695 530.237 461.156 524.51C444.446 510.191 421.448 510.575 400.871 512.553C397.387 511.402 393.933 510.221 390.508 508.981Z"></path>
<path fill="#C9A6AF" d="M184.705 522.65C188.927 512.937 197.636 506.354 206.345 500.922C200.441 513.646 188.366 524.835 189.96 539.921C191.2 554.417 203.659 564.13 214.789 571.717C233.802 585.032 257.597 587.748 277.761 598.76C274.927 601.21 272.122 603.631 269.258 606.081C249.744 601.004 229.698 596.457 211.955 586.567C198.551 579.186 189.193 566.757 178.83 555.893C180.425 544.763 179.982 533.072 184.705 522.65Z"></path>
<path fill="#6C9DB3" d="M162.209 596.929C153.087 564.306 161.648 524.923 189.901 504.257C175.435 524.923 170.741 550.637 171.863 575.466C172.247 588.426 180.808 598.818 187.126 609.476C177.768 608.354 167.376 605.461 162.209 596.929Z"></path>
<path fill="#6D94A7" d="M400.871 512.553C421.448 510.575 444.447 510.191 461.156 524.51C450.263 540.659 429.331 546.15 411.174 552.113C423.102 554.593 435.295 556.01 447.487 554.8C431.427 561.088 412.06 559.701 400.044 546.209L398.598 544.556C402.436 544.467 406.303 544.408 410.171 544.378C401.58 535.522 394.081 525.691 388.176 514.885C392.368 514.029 396.62 513.232 400.871 512.553ZM404.65 519.55C417.61 529.174 436.948 537.5 451.916 530.237C452.536 526.842 448.314 525.425 445.893 523.772C433.671 516.066 418.26 516.125 404.65 519.55Z"></path>
<path fill="#4D697D" d="M398.598 544.556C391.483 536.26 387.674 525.839 388.176 514.886C394.081 525.691 401.579 535.522 410.171 544.379C406.303 544.409 402.436 544.468 398.598 544.556Z"></path>
<path fill="#C0E5EA" d="M404.65 519.55C418.26 516.125 433.671 516.066 445.893 523.772C448.314 525.425 452.536 526.842 451.916 530.237C436.948 537.5 417.61 529.174 404.65 519.55Z"></path>
<path fill="#597489" d="M411.175 552.114C429.331 546.15 450.263 540.659 461.156 524.51C463.695 530.238 466.382 535.906 468.508 541.84C462.131 547.036 455.577 552.557 447.487 554.801C435.295 556.011 423.102 554.594 411.175 552.114Z"></path>
<path fill="#E2C1CB" d="M490.975 533.13C494.606 532.865 498.208 532.629 501.839 532.451C523.804 533.278 545.857 531.979 567.734 534.37C593.891 537.087 618.424 550.401 635.931 569.916C639.031 575.259 641.57 581.016 643.223 587.039C638.529 609.742 616.594 625.507 594.275 627.662C574.79 629.581 555.127 628.577 535.613 630.408L533.074 630.526C527.789 604.782 521.737 579.215 515.862 553.678C514.002 541.22 501.485 536.378 490.975 533.13ZM581.432 567.583C574.937 569.562 574.258 577.385 575.203 583.083C579.986 589.991 593.3 592.589 596.666 582.994C600.386 573.636 590.879 563.716 581.432 567.583Z"></path>
<path fill="#8E7284" d="M335.626 550.136C337.663 548.719 339.729 547.39 341.825 546.15C349.944 559.288 361.222 570.772 375.393 577.237C389.328 580.603 403.705 578.891 417.876 579.747C428.799 580.396 439.162 584.559 450.115 585.12C461.953 584.736 471.755 577.119 481.202 570.802C482.029 570.241 483.653 569.119 484.479 568.558C483.298 565.635 482.088 562.742 480.966 559.878C488.081 564.72 494.783 570.152 501.012 576.145C489.439 575.998 477.099 575.23 467.445 582.876C455.458 588.486 448.255 599.645 440.992 610.126C428.74 623.411 406.834 623.382 391.187 616.444C374.655 608.974 377.282 586.567 363.761 576.175C354.697 567.17 342.18 561.384 335.626 550.136ZM393.343 585.652C395.763 595.601 404.148 603.631 414.835 603.217C424.666 604.133 431.545 596.339 437.509 589.844C424.371 580.574 408.074 581.755 393.343 585.652ZM379.733 586.065C380.943 593.829 381.652 602.657 387.704 608.473C398.745 618.835 416.341 619.986 429.774 613.905C438.749 609.919 443.266 600.679 447.487 592.442C436.682 598.022 426.26 607.557 413.27 606.17C399.129 605.373 391.896 591.29 379.733 586.065Z"></path>
<path fill="#848A9C" d="M177.679 582.05C176.38 573.311 177.59 564.514 178.83 555.893C189.193 566.757 198.551 579.186 211.955 586.567C229.698 596.457 249.744 601.004 269.258 606.082C304.774 614.761 342.268 613.196 376.957 625.803C390.655 634.364 406.982 637.169 422.924 635.427C444.092 635.988 465.348 634.896 486.457 636.992C486.722 638.143 487.254 640.416 487.549 641.568C477.305 639.856 466.942 638.793 456.55 639.117C437.803 638.911 419.027 641.007 400.339 639.117C384.485 637.494 371.377 626.747 355.76 624.533C342.15 627.338 330.961 636.667 319.712 644.343C311.741 650.661 305.423 658.72 299.401 666.869C311.535 660.226 323.108 652.58 335.507 646.439C342.209 645.524 348.91 644.638 355.612 643.811C351.715 647.266 347.818 650.72 343.921 654.203C341.736 656.093 339.611 658.101 337.574 660.197C324.377 672.921 315.697 689.808 313.365 707.994C316.613 704.422 319.831 700.82 323.049 697.218C323.432 701.824 323.816 706.429 324.229 711.064C327.447 707.285 330.665 703.506 333.854 699.698C331.758 713.633 332.112 728.306 340.083 740.469C339.788 741.325 339.168 743.067 338.843 743.923C333.027 740.971 326.975 738.52 320.834 736.395C321.72 730.077 322.665 723.759 323.668 717.5C317.587 713.544 310.767 710.238 306.339 704.363C309.822 685.763 322.842 671.002 332.88 655.562C318.561 660.344 306.782 669.821 295.592 679.622C292.906 666.131 301.467 654.351 310.442 645.258C320.332 635.427 333.5 630.143 344.984 622.555C316.908 616.621 287.917 616.237 260.047 609.211C240.739 604.281 221.284 598.583 204.043 588.427C193.326 582.139 186.181 571.776 178.21 562.595C177.944 569.06 177.797 575.555 177.679 582.05Z"></path>
<path fill="#99ABB5" d="M122.856 562.771C127.314 568.558 132.008 574.167 136.23 580.19C138.828 588.102 141.839 595.925 145.323 603.542C130.03 596.22 123.978 578.595 122.856 562.771Z"></path>
<path fill="#F7F6F6" d="M581.432 567.583C590.879 563.716 600.385 573.635 596.665 582.994C593.3 592.589 579.985 589.991 575.202 583.083C574.258 577.385 574.937 569.561 581.432 567.583Z"></path>
<path fill="#C3C6D3" d="M450.381 576.972C460.802 575.732 470.692 571.717 481.202 570.802C471.755 577.119 461.953 584.736 450.115 585.12C439.162 584.559 428.799 580.396 417.876 579.747C403.705 578.891 389.328 580.603 375.393 577.237C387.704 576.529 399.838 574.315 412.06 572.691C425.08 570.861 437.479 576.647 450.381 576.972Z"></path>
<path fill="#E3DDE7" d="M393.342 585.652C408.074 581.755 424.37 580.574 437.508 589.844C431.544 596.339 424.666 604.133 414.835 603.217C404.147 603.631 395.763 595.601 393.342 585.652Z"></path>
<path fill="#D1D3DC" d="M440.992 610.126C448.254 599.645 455.458 588.486 467.444 582.876C466.411 597.461 456.344 608.443 445.273 616.857C444.21 615.174 442.084 611.809 440.992 610.126Z"></path>
<path fill="#EBBFD2" d="M379.732 586.065C391.896 591.29 399.129 605.373 413.27 606.17C426.26 607.557 436.682 598.021 447.487 592.442C443.265 600.679 438.748 609.919 429.773 613.905C416.341 619.986 398.745 618.835 387.704 608.473C381.651 602.657 380.943 593.829 379.732 586.065Z"></path>
<path fill="#C79EAC" d="M643.222 587.039C649.097 606.849 638.262 630.762 618.01 636.991C591.794 645.612 563.718 643.457 536.557 642.689C536.232 638.586 535.937 634.452 535.612 630.408C555.127 628.577 574.789 629.581 594.274 627.662C616.593 625.507 638.528 609.742 643.222 587.039Z"></path>
<path fill="#BEC2D5" d="M277.761 598.76C278.41 598.14 279.739 596.87 280.388 596.25C304.42 608.797 332.614 603.779 357.856 611.838C365.532 614.377 370.993 620.636 376.957 625.802C342.268 613.196 304.774 614.761 269.258 606.081C272.122 603.631 274.926 601.21 277.761 598.76Z"></path>
<path fill="#C1C6D6" d="M319.713 644.343C330.962 636.667 342.151 627.338 355.761 624.533C371.378 626.747 384.486 637.494 400.34 639.117C419.028 641.007 437.804 638.911 456.551 639.117C441.849 644.609 430.187 655.768 415.81 661.82C391.365 667.194 368.485 649.007 343.922 654.203C347.819 650.72 351.716 647.266 355.613 643.811C348.911 644.638 342.21 645.524 335.508 646.439C330.223 645.878 324.968 645.111 319.713 644.343Z"></path>
<path fill="#93C5D5" d="M791.693 639.472C818.086 626.777 848.199 618.245 877.456 625.065C859.949 629.168 840.73 631.205 827.474 644.727C856.908 641.656 887.583 650.927 908.13 672.744C904.912 675.844 901.724 678.973 898.535 682.102C881.619 671.681 861.071 667.075 841.468 671.356C819.828 674.692 800.904 686.974 785.404 701.971C782.895 704.51 780.474 707.167 778.555 710.238C771.499 721.043 769.728 734.062 767.868 746.58C765.122 739.849 762.288 733.177 759.661 726.446C756.856 715.847 754.583 704.924 755.114 693.912C755.764 683.283 761.255 673.866 765.713 664.448C761.58 666.957 757.417 669.408 753.402 672.124C763.085 658.16 776.311 646.764 791.693 639.472Z"></path>
<path fill="#C0C4D3" d="M422.925 635.427C458.499 622.437 496.377 630.939 533.074 630.526L535.613 630.408C535.937 634.452 536.233 638.586 536.557 642.689C535.199 642.66 532.513 642.571 531.155 642.542C516.246 640.859 501.366 638.645 486.457 636.991C465.349 634.895 444.092 635.988 422.925 635.427Z"></path>
<path fill="#6E97B0" d="M486.457 636.991C501.366 638.645 516.246 640.859 531.155 642.542C526.431 643.516 521.737 644.756 517.013 645.819C508.895 645.405 500.776 644.726 492.687 644.018C494.045 647.354 495.462 650.69 496.731 654.115C499.447 666.75 501.986 680.714 496.908 693.084C489.173 706.488 474.412 714.489 467.888 728.807C460.713 744.897 459.592 762.758 456.049 779.852C451.03 777.903 446.041 776.014 441.022 774.124C441.258 781.977 441.465 789.83 441.612 797.713C435.796 794.79 430.01 791.868 424.253 788.945C425.404 808.341 424.991 828.476 432.933 846.632C439.014 860.508 443.649 875.062 445.126 890.237C445.421 899.005 445.421 907.803 445.627 916.601C443.974 916.719 442.35 916.866 440.727 917.073C439.575 911.139 438.424 905.176 437.686 899.212C437.804 897.854 438.04 895.108 438.158 893.75C439.457 876.627 431.043 860.862 424.725 845.51C418.821 830.955 407.455 819.648 394.524 811.116C402.879 823.545 413.3 834.557 420.622 847.695C426.703 858.471 428.918 870.811 431.309 882.827C415.485 886.606 399.07 891.182 382.715 888.436C369.252 884.953 359.362 874.324 349.383 865.32C374.33 869.128 399.542 871.579 424.784 869.837C419.116 856.817 413.477 842.588 401.461 834.026C390.184 826.409 377.312 821.302 366.802 812.504C352.365 801.728 341.914 786.878 332.26 771.94C335.39 765.149 338.991 758.625 342.564 752.1C347.937 762.67 350.181 777.165 362.108 782.597C371.053 786.435 378.434 792.871 385.047 799.927C382.36 792.871 379.733 785.815 377.253 778.73C381.711 780.974 386.169 783.247 390.538 785.786C395.173 790.834 399.867 795.912 404.857 800.724C407.956 803.647 411.233 806.363 414.51 809.138C417.404 796.001 416.548 782.538 415.308 769.283C415.544 764.588 415.809 759.953 416.075 755.318C419.736 766.065 424.43 776.457 430.453 786.111C430.689 770.523 430.778 754.935 432.667 739.465C437.892 749.916 442.587 760.603 447.783 771.084C449.495 753.783 450.853 736.04 457.673 719.832C459.857 715.463 462.308 711.241 464.699 706.99C472.198 693.173 479.962 679.504 487.432 665.687C491.83 658.218 488.76 649.421 487.55 641.567C487.254 640.416 486.723 638.143 486.457 636.991Z"></path>
<path fill="#E4E9F0" d="M456.55 639.117C466.942 638.792 477.305 639.855 487.549 641.567C488.76 649.42 491.83 658.218 487.431 665.687C479.962 679.504 472.197 693.173 464.699 706.989C463.104 699.55 461.599 692.08 460.182 684.611C456.403 693.97 452.211 703.181 447.605 712.186C447.9 699.756 448.373 687.357 447.576 674.957C442.498 687.652 439.811 701.144 438.453 714.724C444.889 716.319 451.295 718.001 457.672 719.832C450.853 736.04 449.495 753.783 447.782 771.083C442.586 760.603 437.892 749.915 432.667 739.464C430.777 754.934 430.689 770.522 430.452 786.11C424.43 776.456 419.736 766.064 416.075 755.318C415.809 759.953 415.543 764.588 415.307 769.282C413.241 780.176 409.668 790.745 404.856 800.724C399.867 795.912 395.173 790.834 390.538 785.786C378.965 765.592 365.06 746.255 358.653 723.611C356.026 714.783 353.221 706.015 349.885 697.454C345.575 712.746 347.346 728.571 348.97 744.1C334.917 729.25 338.105 707.993 336.747 689.335C333.205 692.553 329.662 695.83 326.119 699.137C330.902 686.442 334.946 673.481 337.574 660.196C339.611 658.1 341.737 656.092 343.921 654.203C368.484 649.007 391.364 667.193 415.809 661.82C430.187 655.768 441.848 644.608 456.55 639.117Z"></path>
<path fill="#92B2C2" d="M299.402 666.868C305.424 658.72 311.742 650.661 319.713 644.343C324.968 645.11 330.223 645.878 335.508 646.439C323.108 652.579 311.535 660.226 299.402 666.868Z"></path>
<path fill="#76A1B9" d="M492.686 644.018C500.775 644.726 508.894 645.406 517.013 645.819C534.077 647.738 551.23 648.358 568.294 650.365C581.608 651.753 591.705 661.289 602.274 668.551C640.713 696.243 684.406 716.378 720.424 747.436C715.523 748.705 710.091 751.982 705.19 749.001C694.769 743.982 685.646 736.69 675.55 731.11C655.828 720.039 635.517 710.149 615.825 699.048C603.219 691.963 591.115 683.785 577.652 678.294C561.503 671.533 543.878 669.466 527.67 662.883C517.721 658.809 507.447 655.355 496.731 654.115C495.461 650.69 494.044 647.354 492.686 644.018Z"></path>
<path fill="#95C0D1" d="M496.73 654.115C507.447 655.355 517.721 658.809 527.67 662.883C543.878 669.466 561.503 671.533 577.652 678.294C591.115 683.785 603.219 691.963 615.825 699.048C635.517 710.149 655.828 720.039 675.549 731.11C685.646 736.689 694.769 743.982 705.19 749C710.091 751.982 715.523 748.705 720.424 747.436C735.333 759.54 749.888 772.412 761.224 788.089C759.571 791.602 757.947 795.174 756.323 798.746C751.954 798.303 747.585 797.89 743.245 797.506C753.548 822.217 763.527 848.61 759.305 875.919C757.239 891.772 751.57 909.958 735.776 917.132C720.365 923.922 702.238 925.487 685.971 921.265C669.35 910.047 666.073 884.155 645.289 877.926L642.779 877.188C637.081 875.387 631.443 873.232 626.365 870.073C624.239 848.256 645.466 836.033 654.972 819.028C649.186 821.036 643.429 823.162 637.849 825.671C633.125 827.708 628.431 829.863 623.708 831.989C633.096 819.412 645.289 809.493 657.363 799.691C644.196 797.388 630.911 798.923 617.892 801.403C616.829 801.256 614.703 800.961 613.64 800.813C620.608 792.31 628.549 784.664 636.934 777.549C640.831 775.423 644.669 773.239 648.507 771.054C641.333 771.467 633.804 770.936 626.985 773.682C613.257 780.678 606.319 796.178 592.738 803.352C579.837 807.337 566.315 803.086 553.562 800.636C570.006 771.054 583.35 734.298 569.15 701.262C569.061 708.23 569.15 715.256 569.268 722.282C564.101 744.985 555.422 766.832 543.406 786.819C537.885 796.148 532.866 806.747 535.169 817.936C538.476 839.37 540.955 861.216 547.952 881.853C539.568 877.483 529.796 872.169 520.142 875.387C514.355 878.989 510.547 884.864 506.237 890.03C501.306 886.783 496.494 883.24 491.003 880.996C485.217 882.059 480.493 885.927 475.474 888.791C466.588 886.015 457.613 883.506 448.549 881.439C447.811 884.303 446.335 889.971 445.597 892.806L445.125 890.237C443.649 875.062 439.014 860.508 432.932 846.632C424.99 828.476 425.404 808.341 424.252 788.945C430.009 791.867 435.796 794.79 441.612 797.713C441.464 789.83 441.257 781.977 441.021 774.124C446.04 776.014 451.029 777.903 456.048 779.852C459.591 762.758 460.713 744.897 467.887 728.807C474.411 714.489 489.173 706.488 496.908 693.084C501.985 680.714 499.447 666.75 496.73 654.115Z"></path>
<path fill="#C5CCDA" d="M313.366 707.993C315.698 689.807 324.378 672.92 337.575 660.196C334.947 673.481 330.902 686.442 326.12 699.137C329.662 695.83 333.205 692.553 336.748 689.335C338.106 707.993 334.918 729.25 348.97 744.1C347.347 728.571 345.575 712.747 349.886 697.454C353.222 706.015 356.026 714.784 358.654 723.611C365.06 746.255 378.965 765.592 390.538 785.786C386.169 783.247 381.711 780.973 377.253 778.73C379.733 785.815 382.361 792.871 385.047 799.927C378.434 792.871 371.053 786.435 362.108 782.597C354.757 768.544 347.908 754.255 340.084 740.468C332.113 728.305 331.759 713.632 333.855 699.698C330.666 703.506 327.448 707.285 324.23 711.064C323.817 706.429 323.433 701.823 323.049 697.218C319.831 700.819 316.613 704.421 313.366 707.993Z"></path>
<path fill="#78AABC" d="M753.401 672.123C757.416 669.407 761.579 666.957 765.712 664.447C761.254 673.865 755.763 683.283 755.113 693.911C754.582 704.923 756.855 715.846 759.66 726.445C753.401 709.558 738.669 688.715 753.401 672.123Z"></path>
<path fill="#78B2C5" d="M908.13 672.743C917.783 683.49 922.714 697.306 925.961 711.152C916.986 701.292 908.631 690.841 898.535 682.102C901.723 678.973 904.912 675.843 908.13 672.743Z"></path>
<path fill="#A8AEC0" d="M438.453 714.725C439.811 701.144 442.498 687.652 447.576 674.958C448.373 687.357 447.9 699.757 447.605 712.186C452.211 703.181 456.403 693.97 460.182 684.611C461.599 692.081 463.105 699.55 464.699 706.99C462.307 711.241 459.857 715.463 457.672 719.832C451.296 718.002 444.889 716.319 438.453 714.725Z"></path>
<path fill="#CCCFDE" d="M827.414 684.258C839.518 682.575 852.361 681.807 863.668 687.357C866.709 690.841 869.543 694.502 872.407 698.192C870.429 698.871 866.443 700.289 864.465 700.968C865.853 701.735 867.27 702.532 868.687 703.329C857.321 708.26 859.092 721.131 857.911 731.346C849.143 723.582 842.116 714.105 837.806 703.211C843.622 702.178 849.468 701.204 855.313 700.259C848.729 700.289 842.175 700.348 835.621 700.407C835.208 708.201 834.736 716.054 834.175 723.877C828.979 717.5 822.897 710.68 822.425 702.06C822.602 695.801 825.318 690.015 827.414 684.258Z"></path>
<path fill="#8395AC" d="M817.997 687.062C821.097 685.999 824.226 685.054 827.415 684.257C825.319 690.014 822.603 695.801 822.425 702.059C822.898 710.68 828.979 717.5 834.175 723.877C841.851 732.852 850.502 741.472 855.078 752.602C855.166 756.558 855.225 760.544 855.196 764.559C848.287 758.95 841.586 753.163 834.884 747.347C833.644 752.071 832.375 756.795 831.371 761.636C830.101 736.07 814.927 712.953 817.997 687.062Z"></path>
<path fill="#98C9DA" d="M795.057 705.395C801.523 697.956 809.346 691.785 817.997 687.062C814.926 712.953 830.101 736.069 831.37 761.636C832.787 771.821 837.068 781.298 839.725 791.188C844.154 806.658 843.504 822.955 844.331 838.897C837.245 846.72 829.688 854.19 820.978 860.271C823.606 847.016 828.448 832.933 823.163 819.737C816.284 801.403 800.224 789.092 789.035 773.622C785.079 750.86 787.145 727.124 795.057 705.395Z"></path>
<path fill="#E2E4ED" d="M835.621 700.406C842.176 700.347 848.73 700.288 855.313 700.258C849.468 701.203 843.622 702.177 837.806 703.211C842.116 714.104 849.143 723.581 857.911 731.346C859.092 721.131 857.321 708.259 868.687 703.329C879.02 709.499 890.15 714.724 899.066 722.991C909.694 733.442 913.679 748.557 915.835 762.876C919.673 788.295 914.86 816.164 897.383 835.856C895.553 830.542 893.752 825.287 891.98 820.032C891.597 821.213 890.799 823.604 890.386 824.785C883.153 830.247 875.566 835.266 868.51 841.023C867.949 834.409 867.417 827.826 866.856 821.242C861.247 824.076 855.638 826.94 849.999 829.774C847.637 807.987 844.567 786.258 840.552 764.736C847.46 766.507 854.398 768.279 861.336 769.991C859.387 764.116 857.439 758.27 855.077 752.602C850.501 741.472 841.851 732.851 834.175 723.876C834.736 716.053 835.208 708.2 835.621 700.406ZM863.875 713.721C867.801 730.991 872.613 748.085 877.603 765.09C882.681 747.406 876.422 726.917 863.875 713.721ZM881.116 719.153C885.603 734.445 896.35 747.081 899.774 762.758C901.693 770.64 903.907 778.523 907.096 786.081C911.2 761.724 901.752 733.53 881.116 719.153Z"></path>
<path fill="#73A0B7" d="M569.15 701.263C583.351 734.299 570.007 771.054 553.562 800.636C566.316 803.087 579.838 807.338 592.739 803.352C606.319 796.178 613.257 780.679 626.985 773.682C633.805 770.936 641.333 771.468 648.507 771.054C644.669 773.239 640.831 775.424 636.934 777.549C608.386 786.524 594.304 815.102 582.258 840.137C571.748 840.315 561.209 840.374 550.699 840.433C546.536 826.882 539.48 811.973 545.739 797.95C556.072 773.77 573.077 749.946 569.268 722.283C569.15 715.256 569.062 708.23 569.15 701.263Z"></path>
<path fill="#76A7BC" d="M778.555 710.237C780.474 707.167 782.895 704.51 785.405 701.971C788.593 703.093 791.811 704.215 795.058 705.396C787.146 727.124 785.08 750.861 789.036 773.623C773.418 756.263 774.068 731.7 778.555 710.237Z"></path>
<path fill="#C0C2CE" d="M863.875 713.721C876.422 726.917 882.681 747.406 877.603 765.09C872.614 748.085 867.802 730.992 863.875 713.721Z"></path>
<path fill="#BDC1CF" d="M881.116 719.153C901.753 733.531 911.2 761.725 907.096 786.081C903.908 778.523 901.693 770.641 899.774 762.758C896.35 747.082 885.604 734.446 881.116 719.153Z"></path>
<path fill="#5E7F94" d="M569.268 722.282C573.076 749.945 556.071 773.77 545.738 797.949C539.479 811.972 546.535 826.881 550.698 840.432C561.208 840.373 571.747 840.314 582.258 840.137C594.303 815.102 608.385 786.524 636.934 777.549C628.549 784.664 620.608 792.31 613.64 800.813C605.905 810.939 599.587 822.689 598.288 835.531C597.196 845.894 601.329 855.755 604.695 865.32C608.474 852.33 610.511 838.07 619.515 827.413C627.309 818.231 636.815 810.732 645.908 802.909C636.52 803.175 627.132 802.997 617.891 801.403C630.911 798.923 644.196 797.388 657.363 799.691C645.289 809.493 633.096 819.412 623.707 831.989C628.431 829.863 633.125 827.708 637.849 825.671C631.147 832.609 623.176 838.248 616.711 845.422C613.522 851.946 612.843 859.327 611.396 866.412C615.234 866.471 619.072 866.619 622.91 866.767C623.973 869.276 625.065 871.845 626.158 874.413C631.708 875.24 637.258 876.066 642.779 877.188L645.289 877.926C635.28 877.159 624.859 879.757 618.541 888.052C618.098 884.333 617.596 880.701 617.065 877.07C602.776 876.155 597.934 861.246 590.967 851.179C589.402 851.179 586.273 851.149 584.708 851.149C583.232 855.607 581.726 860.124 580.25 864.641C578.508 868.715 576.56 872.73 574.641 876.775C575.497 866.53 576.737 856.345 578.39 846.219C569.12 846.337 559.879 846.455 550.609 846.603C553.207 859.386 556.543 872.051 558.433 884.982C558.374 888.466 558.256 892.008 558.167 895.551C556.071 892.924 554.034 890.296 552.056 887.669C551.023 886.222 548.956 883.329 547.952 881.853C540.955 861.216 538.475 839.37 535.169 817.936C532.866 806.747 537.885 796.148 543.406 786.819C555.421 766.832 564.101 744.985 569.268 722.282Z"></path>
<path fill="#57778F" d="M338.843 743.923C339.168 743.066 339.788 741.325 340.083 740.469C347.907 754.256 354.756 768.544 362.107 782.597C350.18 777.165 347.936 762.67 342.563 752.1C338.991 758.625 335.389 765.149 332.26 771.94C324.909 788.797 318.266 807.662 322.96 826.173C326.591 842.026 338.017 854.337 349.383 865.32C359.362 874.324 369.252 884.953 382.714 888.436C399.07 891.182 415.484 886.606 431.308 882.827C428.917 870.811 426.703 858.471 420.621 847.695C413.299 834.557 402.878 823.545 394.523 811.116C407.454 819.648 418.82 830.955 424.725 845.51C431.043 860.862 439.457 876.627 438.158 893.75C423.662 889.263 408.576 891.654 394.021 894.37C389.947 895.02 385.902 895.787 381.828 896.378C364.115 888.318 349.678 874.442 336.068 860.803C321.189 845.864 310.324 824.461 315.018 802.968C317.853 781.475 330.459 763.378 338.843 743.923Z"></path>
<path fill="#ACBBD0" d="M834.883 747.347C841.585 753.163 848.287 758.949 855.195 764.559C855.224 760.544 855.165 756.558 855.077 752.602C857.439 758.27 859.387 764.116 861.336 769.991C854.398 768.279 847.46 766.507 840.552 764.736C844.567 786.258 847.637 807.987 849.999 829.774C855.638 826.94 861.247 824.077 866.856 821.242C867.417 827.826 867.949 834.409 868.51 841.023C867.535 841.82 865.587 843.384 864.613 844.182C863.904 839.576 863.196 835 862.487 830.453C856.287 832.933 850.087 835.472 844.331 838.897C843.504 822.955 844.153 806.658 839.725 791.188C837.068 781.298 832.787 771.821 831.37 761.636C832.374 756.794 833.643 752.071 834.883 747.347Z"></path>
<path fill="#AFB9CD" d="M404.856 800.724C409.669 790.745 413.241 780.176 415.307 769.282C416.547 782.538 417.404 796 414.51 809.138C411.233 806.363 407.956 803.647 404.856 800.724Z"></path>
<path fill="#96C1D2" d="M332.26 771.94C341.914 786.878 352.365 801.728 366.802 812.504C377.312 821.302 390.184 826.409 401.461 834.026C413.477 842.588 419.116 856.818 424.784 869.837C399.543 871.579 374.33 869.129 349.383 865.32C338.017 854.338 326.592 842.027 322.961 826.173C318.267 807.662 324.909 788.797 332.26 771.94Z"></path>
<path fill="#759CB5" d="M761.225 788.089C774.924 808.755 777.64 834.587 777.079 858.796C775.603 880.643 769.462 904.113 753.106 919.642C738.316 930.566 718.742 930.979 701.147 932.868C692.319 934.315 684.673 929.237 678.532 923.569C678.03 922.949 676.997 921.709 676.495 921.089C667.314 908.483 653.497 900.777 640.212 893.308C633.687 889.529 625.923 890.267 618.719 889.942L618.542 888.053C624.86 879.757 635.281 877.159 645.29 877.927C666.074 884.156 669.351 910.047 685.972 921.266C702.239 925.488 720.366 923.923 735.777 917.133C751.571 909.959 757.24 891.773 759.306 875.919C763.528 848.611 753.549 822.217 743.246 797.507C747.586 797.89 751.955 798.304 756.324 798.747C757.948 795.175 759.572 791.602 761.225 788.089Z"></path>
<path fill="#7CACBE" d="M598.289 835.532C599.588 822.689 605.906 810.939 613.641 800.813C614.704 800.961 616.829 801.256 617.892 801.403C627.133 802.998 636.521 803.175 645.909 802.909C636.816 810.732 627.31 818.231 619.516 827.413C610.512 838.07 608.475 852.33 604.696 865.32C601.33 855.755 597.197 845.894 598.289 835.532Z"></path>
<path fill="#72A1B5" d="M637.849 825.671C643.429 823.161 649.186 821.036 654.972 819.028C645.466 836.033 624.239 848.256 626.365 870.073C631.443 873.232 637.081 875.387 642.779 877.188C637.259 876.066 631.708 875.24 626.158 874.413C625.066 871.844 623.973 869.276 622.911 866.766C619.073 866.619 615.235 866.471 611.397 866.412C612.843 859.327 613.522 851.946 616.711 845.422C623.176 838.248 631.147 832.609 637.849 825.671Z"></path>
<path fill="#6F9CB2" d="M550.61 846.602C559.88 846.454 569.121 846.336 578.391 846.218C576.737 856.345 575.497 866.53 574.641 876.774C576.56 872.73 578.509 868.715 580.251 864.641C580.753 871.962 581.697 879.284 582.672 886.605C576.236 885.513 569.8 884.509 563.275 884.332C562.065 884.48 559.644 884.834 558.433 884.982C556.544 872.051 553.208 859.385 550.61 846.602Z"></path>
<path fill="#E5DDE5" d="M584.708 851.149C586.273 851.149 589.402 851.179 590.967 851.179C597.934 861.246 602.776 876.155 617.065 877.07C617.596 880.702 618.098 884.333 618.541 888.053L618.718 889.942C625.922 890.267 633.686 889.529 640.211 893.308C653.496 900.777 667.312 908.483 676.494 921.089C670.885 924.218 664.596 927.407 658.072 924.956C641.982 920.439 625.626 916.247 608.769 917.31C608.356 912.114 608.208 906.977 608.09 901.84C604.459 902.607 600.857 903.405 597.226 904.202C597.698 905.825 598.643 909.043 599.115 910.667C594.923 912.114 590.849 914.505 586.302 914.623C578.951 912.793 572.722 908.217 566.315 904.408C564.898 897.766 564.072 891.035 563.274 884.333C569.799 884.51 576.235 885.514 582.671 886.606C581.697 879.285 580.752 871.963 580.25 864.641C581.726 860.124 583.232 855.607 584.708 851.149Z"></path>
<path fill="#79AFC3" d="M830.072 860.655C841.468 854.308 854.162 850.913 867.152 850.056C846.752 871.844 816.462 883.978 786.673 882.413C795.884 866.796 815.93 868.892 830.072 860.655Z"></path>
<path fill="#9B96A4" d="M558.434 884.982C559.644 884.834 562.065 884.48 563.275 884.332C564.072 891.034 564.899 897.765 566.316 904.408C568.914 910.46 571.158 917.28 576.383 921.708C584.975 925.28 594.451 925.694 603.574 926.963C602.098 921.501 600.681 916.069 599.116 910.666C598.644 909.043 597.699 905.825 597.226 904.201C600.858 903.404 604.46 902.607 608.091 901.839C608.209 906.976 608.357 912.113 608.77 917.309C609.095 920.999 609.478 924.749 609.921 928.528C633.274 931.539 656.685 934.373 680.067 937.089C686.237 937.857 692.408 938.772 698.607 939.422C659.903 943.761 621.819 932.956 583.676 928.38C573.697 927.258 563.364 921.885 553.562 926.609C526.372 937.827 495.846 939.245 467.208 933.429C454.455 930.86 444.801 920.763 431.929 918.579C413.861 915.006 395.616 909.161 381.829 896.378C385.903 895.787 389.948 895.02 394.022 894.37C393.549 895.876 392.575 898.887 392.103 900.363C405.24 908.393 419.943 913.324 435.147 915.656C436.003 910.135 436.918 904.673 437.686 899.212C438.424 905.175 439.575 911.139 440.727 917.073C442.35 916.866 443.974 916.719 445.627 916.601C455.104 925.074 467.09 929.768 479.726 930.89C479.49 926.609 479.283 922.416 479.018 918.224C478.811 915.685 478.398 910.548 478.191 907.98C481.763 915.804 484.981 924.306 491.447 930.24C496.584 931.834 501.986 932.336 507.3 933.163C507.625 928.026 507.95 922.918 508.304 917.84C510.902 922.476 513.5 927.111 516.069 931.805C519.434 930.949 522.8 930.092 526.165 929.295C526.726 924.601 527.258 919.937 527.789 915.302C530.535 919.937 533.31 924.572 536.114 929.266C542.521 926.225 550.02 924.395 554.979 919.051C557.873 911.582 557.725 903.404 558.168 895.551C558.256 892.008 558.375 888.465 558.434 884.982Z"></path>
<path fill="#CBC6D2" d="M552.056 887.669C554.034 890.296 556.071 892.924 558.167 895.551C557.724 903.404 557.872 911.582 554.979 919.051C550.019 924.395 542.52 926.225 536.114 929.266C533.309 924.572 530.534 919.937 527.788 915.302C527.257 919.937 526.725 924.602 526.165 929.296C522.799 930.093 519.433 930.949 516.068 931.805C513.499 927.111 510.901 922.476 508.303 917.841C507.949 922.919 507.624 928.026 507.3 933.163C501.985 932.336 496.583 931.835 491.446 930.24C484.98 924.306 481.762 915.804 478.19 907.98L477.777 905.205C491.003 914.121 506.532 918.372 522.474 917.398C522.327 913.708 522.208 910.076 522.09 906.504C527.936 909.604 533.722 918.815 540.985 914.328C551.2 909.663 552.942 897.618 552.056 887.669Z"></path>
<path fill="#D9D1D8" d="M394.021 894.37C408.576 891.654 423.662 889.263 438.157 893.75C438.039 895.108 437.803 897.854 437.685 899.212C436.918 904.673 436.002 910.135 435.146 915.656C419.942 913.324 405.24 908.393 392.102 900.363C392.574 898.887 393.549 895.876 394.021 894.37Z"></path>
<path fill="#C6BFCB" d="M445.125 890.238L445.597 892.806C446.985 900.01 449.347 908.099 455.93 912.32C462.75 916.749 471.134 917.31 479.017 918.225C479.283 922.417 479.489 926.61 479.726 930.89C467.09 929.768 455.104 925.074 445.627 916.601C445.42 907.804 445.42 899.006 445.125 890.238Z"></path>
<path fill="#CDBCCA" d="M566.316 904.408C572.722 908.217 578.952 912.793 586.303 914.623C590.849 914.505 594.923 912.114 599.116 910.667C600.68 916.07 602.097 921.502 603.574 926.964C594.451 925.694 584.974 925.281 576.383 921.708C571.158 917.28 568.914 910.46 566.316 904.408Z"></path>
<path fill="#D4C6D2" d="M608.77 917.31C625.627 916.247 641.983 920.439 658.072 924.956C664.597 927.407 670.885 924.218 676.495 921.089C676.996 921.709 678.03 922.949 678.532 923.569C679.181 928.027 679.595 932.514 680.067 937.09C656.685 934.374 633.273 931.54 609.921 928.528C609.478 924.749 609.094 921 608.77 917.31Z"></path>
</svg>
