<svg xmlns="http://www.w3.org/2000/svg" fill="none" viewBox="0 0 1024 1024" height="1024" width="1024">
<rect fill="white" height="1024" width="1024"></rect>
<path fill="#FAFBFB" d="M269.71 82.6496C281.615 71.4583 302.123 71.7857 313.493 83.5723C325.309 95.5672 328.821 113.009 339.536 125.837C354.895 145.154 378.319 155.155 400.999 163.072C415.048 168.579 428.888 159.53 442.669 157.447C471.927 152.149 501.959 148.518 531.723 151.613C552.945 153.042 574.494 151.494 595.419 156.346C608.128 158.608 620.956 165.245 634.053 161.346C655.453 155.155 677.568 147.476 693.968 131.82C709.326 117.682 710.189 94.2278 725.488 80.0601C738.108 67.4103 760.729 70.5058 772.039 83.3937C783.677 96.9364 790.016 114.08 795.85 130.689C806.059 159.917 806.804 192.092 798.886 221.946C789.987 253.109 768.854 279.658 742.543 298.112C764.985 326.686 800.702 343.681 817.191 377.285C823.471 392.881 817.31 409.608 815.733 425.473C815.405 444.224 821.477 462.618 820.584 481.37C817.965 489.108 809.899 493.127 805.762 499.913C803.023 513.128 805.91 527.861 798.231 539.797C791.147 552.536 776.891 557.864 764.092 562.923C776.533 591.824 800.88 615.189 806 647.126C808.827 669.509 809.78 693.469 800.255 714.482C793.558 729.513 786.653 744.425 779.51 759.218C770.461 777.88 754.716 791.809 740.459 806.364C708.999 836.724 675.157 864.642 639.321 889.674C615.658 906.521 591.609 922.98 569.911 942.356C565.536 946.047 561.011 949.708 555.773 952C542.736 941.969 535.355 926.581 523.241 915.569C455.914 851.04 367.217 816.811 292.837 761.986C270.811 745.675 249.679 727.43 234.112 704.66C219.289 682.337 221.194 652.454 233.13 629.327C240.601 613.076 252.715 599.742 262.596 585.038C258.995 576.883 253.667 569.531 247.863 562.804C240.452 557.03 228.219 558.161 223.456 548.815C213.426 531.106 220.599 510.42 221.551 491.46C214.587 485.328 205.181 479.673 204.318 469.464C202.294 451.725 210.42 435.235 214.825 418.508C214.616 409.757 208.158 402.048 208.783 393.089C210.777 374.487 220.926 357.551 234.856 345.348C251.97 328.561 273.579 317.221 290.098 299.779C278.074 284.361 262.299 272.158 251.732 255.579C241.791 240.102 233.011 223.226 230.54 204.772C227.981 181.318 228.516 156.703 238.815 134.975C247.327 116.7 254.322 96.4601 269.71 82.6496ZM727.095 99.8532C718.642 124.319 703.284 148.071 679.056 159.203C662.626 168.281 643.22 170.067 627.207 179.859C608.068 169.293 585.745 166.971 564.375 165.096C529.699 165.9 494.756 161.048 460.379 167.209C441.836 168.251 424.632 175.127 407.22 180.752C380.909 171.376 353.466 161.435 333.673 140.809C319.386 128.04 315.1 108.485 303.968 93.4837C299.623 87.5011 291.616 85.8046 284.83 87.8583C275.097 92.2634 269.978 102.175 264.769 110.896C254.054 130.659 243.845 151.97 243.904 174.978C243.845 188.64 242.744 202.748 247.268 215.874C252.834 233.911 263.846 249.686 275.782 264.092C283.491 272.247 291.289 281.444 302.242 285.165C305.278 286.355 308.373 287.546 311.469 288.736C294.771 324.602 254.679 338.889 230.064 367.82C235.362 367.165 240.66 366.361 245.988 365.617C237.118 375.499 223.01 383.178 222.325 397.881C230.272 395.53 238.1 392.673 246.256 390.917C232.802 414.103 218.367 438.569 218.039 466.19C220.45 468.72 223.01 471.131 225.748 473.393C225.897 468.75 225.986 464.136 225.867 459.493C231.82 455.088 237.773 450.713 243.994 446.665C239.916 476.727 228.487 506.312 232.356 537.058C232.624 541.761 236.969 544.678 241.077 545.958C250.185 548.905 259.858 549.232 269.293 550.393C266.347 554.47 260.275 557.834 261.793 563.638C269.769 570.275 280.068 573.936 286.824 582.151C266.585 603.075 245.154 625.428 238.577 654.746C237.535 666.711 237.922 678.884 240.154 690.701C255.274 712.845 274.294 732.4 296.2 747.907C315.755 763.206 336.56 777.404 358.645 788.714C371.86 798.834 386.891 806.096 401.208 814.46C415.792 822.586 429.722 831.842 444.991 838.718C447.937 843.837 453.563 846.516 458.236 849.85C494.429 872.798 529.372 898.812 556.1 932.743C575.983 920.301 593.127 903.991 611.194 889.168C624.915 883.84 636.642 874.792 648.637 866.488C653.697 862.708 659.144 859.076 662.805 853.808C681.973 840.474 699.355 824.848 717.184 809.817C741.799 787.315 767.515 763.325 778.498 730.882C784.093 721.477 788.737 711.387 791.028 700.672C797.934 682.426 795.761 661.919 791.415 643.316C787.07 623.493 774.271 607.391 763.675 590.634C757.246 579.502 750.906 568.192 742.87 558.131C756.234 546.821 778.2 549.589 788.618 533.516C790.195 522.504 789.808 511.193 788.528 500.151C786.266 489.555 784.242 478.602 786.683 467.827C793.677 470.387 799.362 475.209 805.285 479.643C797.398 464.613 794.66 447.855 789.659 431.842C790.195 427.348 790.82 422.853 791.445 418.389C795.434 428.003 799.601 437.616 805.405 446.308C804.631 435.771 802.131 425.473 799.63 415.234L802.011 415.71C802.25 401.691 792.1 391.184 786.266 379.368C784.48 376.154 786.891 372.671 787.784 369.635C789.004 370.29 791.475 371.57 792.695 372.225C787.546 383.476 801.267 387.404 809.185 390.53C807.22 386.66 806 382.136 802.279 379.547C795.285 371.838 790.612 362.313 783.29 354.902C763.08 333.293 736.084 317.578 722.154 290.522C729.089 288.171 736.352 286.177 742.424 281.831C766.979 263.348 784.272 235.25 788.945 204.802C790.463 182.836 791.862 160.036 783.885 139.053C777.515 120.807 772.694 99.377 755.937 87.65C745.013 80.0601 730.369 87.9178 727.095 99.8532Z"></path>
<path fill="#010101" d="M727.095 99.8533C730.369 87.9179 745.013 80.0602 755.937 87.65C772.694 99.3771 777.515 120.807 783.885 139.053C791.862 160.036 790.463 182.836 788.945 204.802C784.272 235.25 766.979 263.348 742.424 281.831C736.352 286.177 729.089 288.171 722.154 290.522C736.084 317.578 763.08 333.293 783.29 354.902C790.612 362.313 795.285 371.838 802.279 379.547C799.184 376.957 795.969 374.487 792.695 372.225C791.475 371.57 789.004 370.29 787.784 369.635C782.903 367.582 778.051 365.528 773.259 363.415C775.045 363.296 778.647 363.117 780.432 363.028C782.218 362.968 785.82 362.819 787.605 362.76C768.765 340.05 743.019 324.572 723.821 302.249C717.63 284.837 712.719 266.145 699.98 252.127C710.516 253.972 721.499 252.037 730.042 245.34C746.472 233.822 759.151 217.094 766.473 198.492C775.462 175.157 771.027 149.053 761.711 126.582C759.598 121.283 756.978 116.224 754.359 111.193C753.168 137.594 750.877 169.204 726.946 185.634C698.938 205.218 662.15 197.301 633.546 183.193C631.969 182.359 628.784 180.693 627.207 179.859C643.22 170.067 662.626 168.281 679.056 159.203C703.284 148.071 718.642 124.319 727.095 99.8533Z"></path>
<path fill="#010101" d="M264.769 110.896C269.978 102.175 275.097 92.2635 284.83 87.8584C291.616 85.8047 299.623 87.5013 303.968 93.4839C315.1 108.485 319.386 128.04 333.673 140.809C353.466 161.435 380.909 171.377 407.22 180.752C406.803 182.836 406.446 184.919 406.089 187.003C381.772 195.307 355.49 201.528 329.923 195.366C306.856 190.634 287.36 172.121 281.258 149.411C278.788 139.618 277.716 129.588 275.931 119.676C272.299 126.522 268.787 133.636 267.567 141.374C262.507 169.085 264.978 200.843 284.354 222.839C296.2 235.488 311.915 245.4 329.149 248.376C339.685 241.918 348.585 233.137 359.27 226.857C341.709 244.001 325.161 263.139 315.041 285.671C310.755 285.552 306.469 285.373 302.242 285.165C291.289 281.444 283.491 272.247 275.782 264.092C263.846 249.686 252.834 233.911 247.268 215.874C242.744 202.748 243.845 188.64 243.904 174.978C243.845 151.97 254.054 130.659 264.769 110.896Z"></path>
<path fill="#010101" d="M549.195 243.436C567.559 242.334 584.019 252.573 593.99 267.455C580.388 257.127 565.773 248.168 549.195 243.436Z"></path>
<path fill="#010101" d="M454.961 274.003C468.534 262.633 484.517 252.335 502.971 252.96C487.315 261.978 469.516 267.872 457.343 281.98C456.509 279.331 455.706 276.652 454.961 274.003Z"></path>
<path fill="#010101" d="M529.163 251.442C548.302 253.049 567.321 260.52 580.774 274.569C583.542 277.426 583.84 281.652 585.15 285.254C574.316 279.509 565.714 270.402 554.79 264.866C546.218 260.401 536.723 258.347 527.467 256.055C527.883 254.895 528.717 252.603 529.163 251.442Z"></path>
<path fill="#010101" d="M349.745 435.206C364.092 424.372 380.611 416.276 398.559 413.567C385.105 424.967 368.794 433.182 351.502 436.635L349.745 435.206Z"></path>
<path fill="#010101" d="M703.79 572.686C711.201 572.538 718.612 572.984 726.053 573.52C722.63 573.907 719.267 574.264 715.934 574.621C711.796 574.234 707.778 573.49 703.79 572.686Z"></path>
<path fill="#D27A55" d="M754.36 111.193C756.979 116.223 759.598 121.283 761.711 126.581C760.818 149.47 760.521 174.323 747.038 193.938C738.971 205.427 728.375 216.052 714.922 220.785C700.367 224.803 685.188 221.38 670.514 219.981C679.92 231.083 690.277 241.292 699.98 252.126C712.72 266.145 717.631 284.837 723.822 302.249C717.631 295.523 712.69 287.873 708.225 279.956C703.612 284.301 698.939 288.587 694.593 293.201C692.182 297.041 689.801 301.029 688.789 305.464C692.45 313.441 697.927 320.405 702.153 328.084C699.266 330.644 696.409 333.204 693.611 335.764C693.105 334.573 692.093 332.162 691.587 330.972C687.866 321.864 681.557 314.066 673.877 308.023C672.955 308.113 671.139 308.262 670.216 308.351C668.401 302.19 666.823 295.969 664.442 290.016C681.824 271.503 661.525 237.661 637 241.322C644.054 253.109 650.393 265.312 653.638 278.765C648.578 270.759 645.691 261.234 638.696 254.627C630.839 253.644 622.921 254.389 615.153 255.043C606.104 243.465 596.759 230.815 582.472 225.547C565.03 218.672 540.802 217.094 529.73 235.34C543.034 236.143 556.428 234.208 569.703 235.965C584.615 238.435 595.925 249.358 606.968 258.853C603.217 262.663 599.646 266.622 596.163 270.61C586.401 280.551 584.466 294.808 585.686 308.083C583.484 311.059 581.222 313.947 578.989 316.863C582.412 324.304 583.543 332.371 581.043 340.318C575.656 339.99 570.328 339.484 565 339.425C554.851 341.27 549.672 350.705 544.165 358.295C520.146 356.122 495.709 355.11 472.315 362.016C467.85 362.194 463.415 362.164 459.01 362.194C457.611 357.551 456.272 352.878 454.933 348.265C462.046 344.187 470.35 345.526 478.149 345.943C470.767 343.115 463.177 340.496 456.51 336.18C452.194 320.197 450.646 303.053 440.884 289.064C441.568 279.212 440.467 268.913 433.8 261.115C446.837 253.883 456.123 240.905 470.41 235.786C481.184 232.482 492.644 234 503.746 232.929C493.06 221.142 475.232 221.023 461.481 226.827C447.432 233.077 434.485 243.465 428.621 258.05C424.484 255.579 420.406 252.96 416.299 250.519C406.685 242.959 392.368 240.965 382.278 248.763C371.712 257.514 364.33 270.699 363.497 284.45C366.503 287.516 369.986 290.076 373.409 292.695C371.474 295.88 369.807 299.213 368.349 302.606C365.908 307.904 363.14 313.024 360.491 318.173L357.455 317.935C351.83 317.965 345.103 315.524 340.4 319.691C332.542 326.805 329.894 337.579 325.846 346.985C324.417 350.497 322.929 353.95 321.589 357.462C322.244 348.711 322.393 339.901 323.494 331.18C328.703 320.376 344.835 313.083 338.198 299.154C327.006 301.088 318.196 308.649 312.987 318.53C310.398 314.959 307.868 311.387 305.338 307.815C309.237 300.761 311.975 293.141 315.041 285.671C325.161 263.139 341.71 244.001 359.271 226.857C364.479 222.928 369.629 218.91 374.778 214.862C352.098 222.987 326.56 218.88 305.993 207.064C283.67 192.926 270.127 167.328 267.567 141.374C268.788 133.636 272.3 126.522 275.931 119.676C277.717 129.588 278.788 139.618 281.259 149.41C287.36 172.121 306.856 190.634 329.923 195.366C355.491 201.527 381.772 195.307 406.09 187.003C438.919 175.276 474.547 169.62 509.252 174.71C505.71 177.597 502.287 180.574 498.864 183.55C469.963 179.562 441.39 193.045 421.091 212.927C416.15 217.57 415.168 224.565 413.382 230.756C436.003 219.148 457.998 203.462 484.34 202.212C493.894 201.379 502.347 206.617 510.353 211.201C513.121 212.838 515.889 214.505 518.687 216.171C521.961 213.165 525.206 210.1 528.599 207.153C540.891 203.611 553.809 201.2 566.578 203.403C587.919 207.242 606.67 218.731 625.987 227.958C622.653 219.654 618.189 211.379 610.361 206.498C593.336 195.098 573.691 187.985 553.898 183.223C543.987 180.544 533.688 182.419 524.819 187.27C525.325 181.972 525.979 176.734 526.634 171.466C539.076 173.758 551.785 172.686 564.375 173.43C587.71 174.412 610.39 180.544 633.547 183.193C662.15 197.301 698.939 205.218 726.947 185.633C750.877 169.204 753.169 137.594 754.36 111.193ZM448.206 264.479C459.754 257.782 471.124 250.698 481.929 242.781C467.434 243.435 455.974 252.96 448.206 264.479ZM549.195 243.435C565.774 248.168 580.388 257.127 593.99 267.455C584.019 252.573 567.56 242.334 549.195 243.435ZM454.962 274.003C455.706 276.652 456.51 279.331 457.343 281.98C469.517 267.872 487.316 261.978 502.972 252.96C484.518 252.335 468.535 262.633 454.962 274.003ZM506.99 265.848C488.655 269.687 469.785 287.397 473.386 307.696C475.857 318.917 486.036 325.882 495.62 330.853C490.679 319.036 481.274 306.654 486.453 293.231C492.495 282.099 505.055 276.622 511.574 265.758C513.925 265.729 516.306 265.61 518.687 265.223C526.039 276.741 536.665 285.879 543.124 297.933C549.88 308.381 531.992 320.971 543.719 329.454C549.582 325.138 554.107 318.62 554.583 311.178C556.428 291.177 542.677 272.187 524.967 264.032C525.741 261.353 526.515 258.675 527.468 256.055C536.724 258.347 546.219 260.401 554.791 264.866C565.715 270.402 574.316 279.509 585.151 285.254C583.841 281.652 583.543 277.426 580.775 274.569C567.322 260.52 548.303 253.049 529.164 251.442C519.431 252.186 509.847 255.46 506.99 265.848ZM539.522 353.89C546.279 348.711 551.666 342.044 555.684 334.543C547.112 337.907 540.088 344.157 539.522 353.89Z"></path>
<path fill="#B95A41" d="M761.712 126.582C771.028 149.053 775.463 175.157 766.474 198.492C759.152 217.094 746.472 233.822 730.043 245.34C721.5 252.037 710.517 253.972 699.981 252.127C690.278 241.292 679.92 231.083 670.514 219.981C685.188 221.38 700.368 224.803 714.922 220.785C728.376 216.053 738.972 205.427 747.038 193.938C760.521 174.323 760.819 149.47 761.712 126.582Z"></path>
<path fill="#B95542" d="M284.355 222.839C264.978 200.843 262.508 169.085 267.568 141.374C270.128 167.329 283.67 192.926 305.993 207.064C326.56 218.88 352.098 222.987 374.778 214.862C369.629 218.91 364.48 222.928 359.271 226.857C348.586 233.137 339.686 241.917 329.15 248.376C311.916 245.4 296.201 235.488 284.355 222.839Z"></path>
<path fill="#191512" d="M460.379 167.21C494.757 161.048 529.7 165.9 564.375 165.096C585.746 166.971 608.069 169.293 627.207 179.859C628.785 180.693 631.969 182.359 633.547 183.193C610.39 180.544 587.71 174.412 564.375 173.43C551.785 172.686 539.075 173.758 526.634 171.466C523.926 170.216 521.247 168.906 518.657 167.567C515.473 169.918 512.318 172.269 509.252 174.71C474.547 169.62 438.919 175.276 406.089 187.003C406.447 184.919 406.804 182.836 407.22 180.752C424.632 175.127 441.836 168.251 460.379 167.21Z"></path>
<path fill="#A35039" d="M509.252 174.71C512.318 172.269 515.473 169.918 518.657 167.566C521.247 168.906 523.926 170.215 526.634 171.466C525.979 176.734 525.325 181.972 524.819 187.27C524.194 193.937 523.628 200.605 523.42 207.302C524.729 207.272 527.319 207.182 528.599 207.153C525.206 210.099 521.961 213.165 518.687 216.171C515.889 214.504 513.121 212.838 510.353 211.201C511.514 205.724 513.24 200.099 512.377 194.443C508.776 189.8 503.716 186.675 498.864 183.55C502.287 180.573 505.71 177.597 509.252 174.71Z"></path>
<path fill="#010202" d="M524.818 187.271C533.688 182.419 543.987 180.544 553.898 183.223C573.691 187.985 593.335 195.099 610.36 206.498C618.188 211.38 622.653 219.654 625.987 227.958C606.67 218.731 587.918 207.242 566.577 203.403C553.809 201.2 540.891 203.611 528.598 207.153C527.319 207.183 524.729 207.272 523.419 207.302C523.628 200.605 524.193 193.938 524.818 187.271Z"></path>
<path fill="#010202" d="M688.789 305.464C689.801 301.029 692.182 297.041 694.593 293.201C702.689 300.464 711.291 307.786 715.964 317.846C721.708 330.258 722.928 344.128 727.214 357.016C734.894 383.208 751.71 407.198 750.103 435.533C743.555 453.481 735.608 471.131 724.089 486.46C716.708 496.818 707.064 505.211 698.462 514.498C696.915 513.843 693.819 512.503 692.242 511.819C711.38 493.573 723.524 469.078 730.31 443.778C738.644 417.645 726.381 391.631 717.124 367.612C711.529 354.664 707.689 341.062 702.153 328.085C697.927 320.406 692.45 313.441 688.789 305.464Z"></path>
<path fill="#010202" d="M312.987 318.53C318.196 308.649 327.006 301.088 338.197 299.154C344.835 313.083 328.703 320.376 323.494 331.18C315.368 346.806 309.564 363.474 302.242 379.428C290.604 402.525 283.818 428.955 290.366 454.612C299.534 485.924 320.785 511.61 341.352 536.225C332.125 531.671 323.494 526.105 315.13 520.212C300.278 503.693 284.354 487.204 276.377 466.011C267.835 446.546 269.889 424.163 276.824 404.549C288.551 375.737 302.272 347.759 312.987 318.53Z"></path>
<path fill="#010201" d="M421.09 212.927C441.39 193.045 469.963 179.561 498.864 183.55C503.715 186.675 508.776 189.8 512.377 194.444C513.24 200.099 511.514 205.724 510.353 211.201C502.346 206.617 493.893 201.379 484.339 202.212C457.998 203.462 436.002 219.148 413.381 230.756C415.167 224.565 416.15 217.57 421.09 212.927Z"></path>
<path fill="#010201" d="M779.212 426.217C782.248 426.395 785.344 426.604 788.469 426.812C788.767 428.062 789.362 430.562 789.66 431.842C794.66 447.855 797.398 464.612 805.286 479.643C799.363 475.208 793.678 470.387 786.683 467.827C772.486 459.165 779.718 439.789 779.212 426.217Z"></path>
<path fill="#010201" d="M763.675 590.634C774.271 607.391 787.07 623.493 791.416 643.316C795.761 661.919 797.934 682.426 791.029 700.671C794.868 669.27 789.868 635.161 770.581 609.296C766.92 618.731 763.765 628.345 761.056 638.107C751.68 656.442 739.626 673.259 729.298 691.058C710.189 724.423 681.526 750.943 651.405 774.278C647.357 777.284 643.339 780.261 639.202 783.059C633.249 786.868 627.207 790.559 621.076 794.012C615.807 796.75 610.509 799.28 605.211 801.84C620.123 786.154 636.047 771.51 650.929 755.824C660.721 747.818 670.097 739.276 678.729 730.019C702.897 705.612 719.327 675.223 735.846 645.429C744.567 630.756 751.77 615.278 759.151 599.89C760.639 596.795 762.128 593.699 763.675 590.634Z"></path>
<path fill="#030303" d="M461.48 226.827C475.231 221.023 493.06 221.142 503.745 232.929C492.643 234 481.184 232.482 470.409 235.786C456.123 240.906 446.836 253.883 433.8 261.115C432.52 260.341 429.93 258.824 428.621 258.05C434.484 243.465 447.432 233.078 461.48 226.827Z"></path>
<path fill="#020303" d="M529.73 235.339C540.802 217.094 565.03 218.671 582.472 225.547C596.758 230.815 606.104 243.465 615.152 255.043C612.295 256.174 609.587 257.454 606.967 258.853C595.925 249.358 584.615 238.435 569.703 235.964C556.428 234.208 543.034 236.143 529.73 235.339Z"></path>
<path fill="#0C0806" d="M382.278 248.764C392.368 240.965 406.684 242.96 416.298 250.52C407.429 249.448 396.207 248.347 390.642 257.038C383.677 268.467 384.927 283.885 373.408 292.695C369.985 290.076 366.503 287.516 363.497 284.451C364.33 270.7 371.712 257.514 382.278 248.764Z"></path>
<path fill="#864A36" d="M448.206 264.478C455.974 252.96 467.433 243.435 481.928 242.78C471.124 250.698 459.754 257.781 448.206 264.478Z"></path>
<path fill="#000100" d="M637 241.322C661.526 237.661 681.825 271.503 664.442 290.016C660.811 286.266 656.733 282.932 653.638 278.765C650.394 265.312 644.054 253.108 637 241.322Z"></path>
<path fill="#000100" d="M286.825 582.151C288.254 580.514 289.712 578.877 291.2 577.21C296.409 579.591 301.826 581.436 307.243 583.371C309.148 588.788 311.172 594.175 313.345 599.503C317.512 600.604 321.738 601.735 326.054 602.569C324.417 602.777 321.143 603.134 319.506 603.313C309.386 600.902 306.588 590.127 302.332 582.121C296.647 584.889 290.813 587.538 285.813 591.437C284.831 599.116 286.14 606.914 288.849 614.117C305.308 654.835 335.46 691.891 376.951 708.678C402.399 730.346 418.412 760.527 441.628 784.368C434.485 777.463 426.538 771.51 419.126 764.992C404.036 751.419 395.672 731.06 377.338 721.089C367.218 716 356.8 711.535 346.74 706.386C329.388 698.379 313.702 687.486 298.909 675.521C302.808 693.379 311.559 709.898 324.596 722.786C339.061 737.579 355.58 750.11 371.742 762.968C387.606 776.6 403.59 790.112 420.555 802.405C421.835 803.625 424.395 806.007 425.704 807.227C407.221 799.429 389.541 789.964 371.98 780.35C354.479 770.081 337.454 758.89 321.738 746.091C291.558 719.839 271.348 682.366 268.044 642.334C267.389 631.38 267.687 620.397 267.091 609.444C247.358 631.559 238.518 661.383 240.155 690.7C237.922 678.884 237.536 666.71 238.577 654.745C245.155 625.428 266.585 603.075 286.825 582.151Z"></path>
<path fill="#FCFCFC" d="M390.642 257.037C396.208 248.346 407.429 249.448 416.298 250.519C420.406 252.96 424.483 255.579 428.621 258.049C429.93 258.823 432.52 260.341 433.8 261.115C440.467 268.913 441.568 279.212 440.883 289.064C432.966 283.795 423.591 278.408 413.768 280.998C405.851 283.885 398.797 288.617 391.624 292.903C402.399 287.575 414.274 279.569 426.716 284.659C442.104 290.998 445.497 309.035 449.604 323.322C441.3 319.066 433.353 314.125 424.632 310.821C415.376 308.887 404.988 308.529 396.981 314.304C390.106 318.084 383.022 326.834 374.896 320.554C367.545 317.786 369.45 308.827 368.348 302.606C369.807 299.213 371.474 295.88 373.408 292.695C384.927 283.885 383.677 268.467 390.642 257.037Z"></path>
<path fill="#904F38" d="M506.99 265.848C509.848 255.46 519.432 252.186 529.164 251.442C528.718 252.603 527.885 254.895 527.468 256.055C526.515 258.675 525.742 261.353 524.968 264.032C523.39 264.33 520.265 264.925 518.687 265.223C516.306 265.61 513.925 265.729 511.574 265.758C510.413 265.788 508.151 265.818 506.99 265.848Z"></path>
<path fill="#FCFBFA" d="M606.968 258.854C609.587 257.455 612.296 256.175 615.153 255.044C622.922 254.389 630.839 253.645 638.697 254.627C645.691 261.235 648.578 270.759 653.638 278.766C656.734 282.933 660.811 286.266 664.443 290.017C666.824 295.969 668.401 302.19 670.217 308.351C664.651 311.923 659.294 315.822 653.936 319.662C643.995 313.858 633.637 306.387 621.523 307.339C608.456 308.143 597.95 316.715 587.621 323.799C590.776 309.869 594.973 293.142 609.29 286.713C618.487 285.195 627.476 288.469 636.494 289.868C624.648 285.225 611.79 280.403 599.081 284.778C597.95 280.075 596.997 275.343 596.164 270.61C599.646 266.622 603.218 262.663 606.968 258.854Z"></path>
<path fill="#0B0C0B" d="M473.386 307.696C469.785 287.397 488.656 269.687 506.99 265.848C508.151 265.818 510.413 265.788 511.574 265.759C505.056 276.622 492.495 282.099 486.453 293.231C481.274 306.654 490.679 319.036 495.62 330.853C486.036 325.882 475.857 318.917 473.386 307.696Z"></path>
<path fill="#0C1011" d="M518.687 265.223C520.264 264.925 523.39 264.33 524.967 264.032C542.677 272.187 556.428 291.177 554.582 311.178C554.106 318.619 549.582 325.138 543.718 329.454C531.991 320.971 549.88 308.381 543.123 297.933C536.664 285.879 526.039 276.741 518.687 265.223Z"></path>
<path fill="#D89977" d="M585.687 308.083C584.466 294.808 586.401 280.551 596.164 270.61C596.997 275.343 597.95 280.075 599.081 284.778C595.39 292.963 590.895 300.791 585.687 308.083Z"></path>
<path fill="#060403" d="M391.624 292.903C398.797 288.617 405.851 283.885 413.769 280.998C423.591 278.408 432.966 283.795 440.884 289.064C450.646 303.053 452.194 320.197 456.51 336.18C463.177 340.496 470.767 343.115 478.148 345.943C470.35 345.526 462.046 344.187 454.932 348.265L453.623 350.765C453.444 345.348 453.117 339.931 452.849 334.543C451.331 333.74 448.295 332.103 446.777 331.269C447.045 340.437 450.855 352.61 441.687 358.801C432.609 367.046 419.424 364.813 408.322 363.653C411.923 361.093 415.584 358.533 419.275 355.973C419.156 347.163 418.947 338.353 418.561 329.543C421.358 326.388 424.245 323.322 427.133 320.227C420.138 318.024 413.024 316.268 405.762 315.673C411.893 313.5 418.203 312.012 424.633 310.821C433.353 314.125 441.3 319.066 449.604 323.322C445.497 309.035 442.104 290.998 426.716 284.659C414.274 279.569 402.399 287.575 391.624 292.903ZM436.985 333.412C431.478 334.394 434.068 343.056 439.276 341.181C444.634 340.169 442.134 331.478 436.985 333.412Z"></path>
<path fill="#D2825C" d="M694.594 293.201C698.939 288.587 703.612 284.301 708.226 279.956C712.69 287.873 717.631 295.522 723.822 302.249C743.02 324.572 768.766 340.05 787.606 362.76C785.821 362.819 782.219 362.968 780.433 363.027C769.182 355.676 756.146 351.866 742.722 352.491C769.808 360.736 789.124 384.487 797.815 410.68C785.285 404.757 773.349 397.673 760.61 392.256C767.039 397.703 773.855 402.733 780.701 407.703C777.189 426.217 775.879 445.057 776.147 463.868C770.492 470.535 765.164 477.471 759.598 484.227L758.17 485.804C754.658 485.953 751.205 486.102 747.752 486.251C743.437 459.939 762.456 435.057 753.229 409.073C752.157 419.49 751.264 429.937 750.193 440.355C750.193 439.164 750.133 436.753 750.104 435.533C751.711 407.197 734.894 383.208 727.215 357.015C722.929 344.127 721.709 330.257 715.964 317.846C711.291 307.785 702.689 300.463 694.594 293.201Z"></path>
<path fill="#0C0A09" d="M599.081 284.778C611.79 280.403 624.648 285.225 636.494 289.868C627.476 288.469 618.487 285.195 609.29 286.713C594.973 293.142 590.776 309.869 587.621 323.799C597.95 316.715 608.456 308.143 621.523 307.339C633.637 306.387 643.995 313.858 653.936 319.662C659.294 315.822 664.651 311.923 670.217 308.351C671.14 308.262 672.955 308.113 673.878 308.024C673.372 309.274 672.39 311.744 671.884 312.995C665.336 329.782 673.937 348.325 668.044 365.32C662.568 382.018 648.311 393.774 633.309 401.811C637.268 395.024 641.524 388.447 645.572 381.72C655.99 362.552 669.622 342.818 667.121 319.811C654.888 325.823 654.501 340.705 649.412 351.837C633.815 360.647 614.945 369.517 597.027 362.552C587.383 357.67 589.556 345.824 588.872 336.984C586.223 340.348 583.663 343.741 581.103 347.134C575.299 344.842 569.406 342.699 563.542 340.705L565.001 339.425C570.329 339.485 575.656 339.991 581.044 340.318C583.544 332.371 582.413 324.305 578.99 316.864C581.222 313.947 583.484 311.06 585.687 308.083C590.896 300.791 595.39 292.963 599.081 284.778ZM612.415 314.542C616.761 318.977 621.761 322.936 625.005 328.353C630.363 337.55 627.714 348.533 627.892 358.593C634.5 355.438 641.614 351.986 645.156 345.17C649.59 338.115 652.894 326.418 644.501 321.001C635.81 312.637 623.577 311.983 612.415 314.542ZM597.593 331.032C598.039 334.663 598.575 338.264 599.2 341.896C604.23 338.532 609.349 335.258 614.469 331.954C609.498 326.984 603.307 328.74 597.593 331.032Z"></path>
<path fill="#5E3A31" d="M302.243 285.165C306.469 285.373 310.756 285.552 315.042 285.671C311.976 293.142 309.238 300.761 305.338 307.815C289.891 324.692 270.931 337.728 254.055 353.027C258.251 353.533 262.448 354.039 266.704 354.545C256.436 362.522 246.673 371.094 237.863 380.618C235.274 383.267 232.684 385.916 230.154 388.595C238.012 388.297 245.87 387.94 253.787 387.911C248.042 398.655 241.941 409.192 236.315 419.996C229.767 432.08 224.41 445.474 225.868 459.493C225.987 464.136 225.898 468.75 225.749 473.393C223.011 471.131 220.451 468.72 218.04 466.19C218.368 438.569 232.803 414.103 246.257 390.917C238.101 392.673 230.273 395.53 222.326 397.882C223.011 383.178 237.119 375.499 245.989 365.617C240.661 366.361 235.363 367.165 230.065 367.82C254.68 338.889 294.772 324.602 311.47 288.736C308.374 287.546 305.279 286.355 302.243 285.165Z"></path>
<path fill="#161414" d="M368.349 302.607C369.45 308.828 367.545 317.787 374.897 320.555C383.023 326.835 390.107 318.084 396.982 314.304C404.989 308.53 415.376 308.887 424.633 310.822C418.204 312.012 411.894 313.501 405.763 315.673C395.94 322.311 389.184 334.931 395.524 346.33C398.054 354.486 407.072 356.093 414.067 358.593C414.9 348.86 413.204 338.294 418.561 329.543C418.948 338.354 419.156 347.164 419.275 355.974C415.585 358.534 411.924 361.093 408.322 363.653C402.608 360.974 396.089 358.534 392.666 352.879C387.547 344.664 384.838 334.901 377.576 328.145C374.867 325.912 372.099 323.799 369.391 321.686C368.051 320.644 365.373 318.531 364.033 317.489C362.099 319.275 360.223 321.061 358.378 322.847C358.914 321.686 359.955 319.334 360.491 318.174C363.14 313.024 365.908 307.905 368.349 302.607Z"></path>
<path fill="#DD8D65" d="M254.055 353.027C270.931 337.728 289.891 324.691 305.339 307.815C307.869 311.387 310.399 314.958 312.988 318.53C302.273 347.758 288.552 375.737 276.825 404.548C275.426 400.828 274.027 397.078 272.657 393.357C260.395 402.048 248.906 411.781 236.316 419.996C241.941 409.192 248.043 398.655 253.787 387.91C245.87 387.94 238.012 388.297 230.154 388.595C232.684 385.916 235.274 383.267 237.863 380.618C243.191 381.124 249.471 383.535 254.115 379.546C263.431 372.969 270.901 364.188 278.878 356.122C274.801 355.586 270.723 355.051 266.705 354.545C262.448 354.039 258.252 353.533 254.055 353.027Z"></path>
<path fill="#A25238" d="M673.878 308.024C681.557 314.066 687.867 321.864 691.587 330.972C686.766 349.247 690.278 368.266 687.42 386.78C685.277 361.778 681.438 336.329 671.883 312.994C672.389 311.744 673.372 309.274 673.878 308.024Z"></path>
<path fill="#A85441" d="M340.4 319.691C345.102 315.524 351.829 317.965 357.455 317.935C342.453 331.031 336.322 351.955 341.084 371.213C337.751 364.843 333.673 358.89 328.851 353.592C329.595 350.973 330.429 348.354 331.292 345.764C329.923 346.062 327.214 346.687 325.845 346.985C329.893 337.579 332.542 326.805 340.4 319.691Z"></path>
<path fill="#FFFEFF" d="M612.414 314.542C623.576 311.982 635.809 312.637 644.5 321.001C652.894 326.418 649.59 338.115 645.155 345.169C641.613 351.985 634.499 355.438 627.892 358.593C627.713 348.532 630.362 337.549 625.005 328.352C621.76 322.935 616.76 318.977 612.414 314.542Z"></path>
<path fill="#C4694C" d="M668.044 365.32C673.937 348.325 665.335 329.782 671.883 312.995C681.438 336.33 685.277 361.778 687.42 386.78C684.474 396.602 677.42 405.442 667.716 409.282C657.091 413.538 645.542 414.371 634.44 416.663C641.643 419.431 649.114 421.604 656.793 422.735C652.388 423.687 647.983 424.61 643.637 425.563C643.786 426.961 644.143 429.759 644.292 431.158C637.149 428.003 629.737 425.503 622.296 423.211C627.029 427.646 631.91 431.932 637.238 435.682C629.976 438.986 622.624 442.052 615.51 445.653C610.391 448.243 607.087 453.154 604.111 457.827C605.271 441.01 602.206 424.283 597.622 408.18C602.593 410.77 607.563 413.329 612.623 415.77C608.992 407.853 605.301 399.638 598.753 393.655C583.901 379.934 567.53 367.731 549.315 358.921C553.869 352.73 558.393 346.479 563.542 340.705C569.406 342.699 575.299 344.842 581.103 347.134C584.347 356.45 587.532 365.766 590.925 375.023C593.425 379.041 595.271 384.994 600.896 385.351C615.808 388.149 631.017 385.083 645.572 381.72C641.524 388.447 637.268 395.025 633.309 401.811C648.31 393.774 662.567 382.018 668.044 365.32Z"></path>
<path fill="#040505" d="M357.455 317.935L360.491 318.173C359.955 319.334 358.913 321.685 358.378 322.846C354.985 337.907 349.538 354.307 355.014 369.487C362.694 385.142 378.468 394.161 391.713 404.578C371.623 400.292 350.074 391.065 341.085 371.213C336.323 351.955 342.454 331.031 357.455 317.935Z"></path>
<path fill="#C86E51" d="M358.378 322.846C360.223 321.06 362.098 319.274 364.033 317.489C365.372 318.53 368.051 320.644 369.39 321.685C365.938 346.628 380.254 373.772 404.453 382.255C426.657 386.541 446.658 371.183 453.623 350.765L454.933 348.265C456.272 352.878 457.611 357.551 459.01 362.194C463.415 362.164 467.85 362.194 472.315 362.016C450.706 373.147 429.484 388.119 419.87 411.365C423.263 410.412 426.716 409.43 430.169 408.448C424.156 421.871 419.156 436.426 420.972 451.368C421.18 452.856 421.597 455.832 421.805 457.35C418.233 446.04 414.275 433.241 401.863 428.896C387.547 430.92 375.135 438.718 362.932 445.921C359.092 442.825 355.282 439.759 351.502 436.634C368.795 433.182 385.106 424.967 398.559 413.567C380.612 416.276 364.092 424.371 349.746 435.206C341.204 427.884 333.227 419.937 324.833 412.496C325.012 392.822 322.065 372.522 328.852 353.592C333.673 358.89 337.751 364.843 341.085 371.213C350.074 391.065 371.623 400.292 391.713 404.578C378.468 394.161 362.694 385.142 355.014 369.486C349.538 354.307 354.985 337.907 358.378 322.846Z"></path>
<path fill="#FEFEFE" d="M395.524 346.33C389.184 334.93 395.94 322.31 405.763 315.673C413.025 316.268 420.139 318.024 427.133 320.227C424.246 323.322 421.359 326.388 418.561 329.543C413.204 338.293 414.9 348.86 414.067 358.592C407.072 356.092 398.054 354.485 395.524 346.33Z"></path>
<path fill="#673724" d="M369.39 321.685C372.098 323.798 374.866 325.912 377.575 328.144C376.355 349.753 389.957 367.76 404.452 382.255C380.254 373.772 365.937 346.627 369.39 321.685Z"></path>
<path fill="#E39A77" d="M649.412 351.837C654.501 340.705 654.888 325.823 667.121 319.81C669.621 342.818 655.99 362.552 645.572 381.72C631.017 385.083 615.808 388.149 600.896 385.351C595.271 384.994 593.425 379.041 590.925 375.023C607.712 376.213 626.285 377.404 640.72 367.046C646.019 363.742 647.388 357.283 649.412 351.837Z"></path>
<path fill="#D5DBE7" d="M597.592 331.031C603.306 328.739 609.497 326.983 614.468 331.954C609.348 335.258 604.229 338.532 599.199 341.895C598.574 338.264 598.038 334.662 597.592 331.031Z"></path>
<path fill="#F3F2EF" d="M404.452 382.255C389.957 367.76 376.355 349.753 377.575 328.144C384.838 334.901 387.546 344.663 392.666 352.878C396.088 358.533 402.607 360.974 408.322 363.653C419.424 364.814 432.609 367.046 441.687 358.801C450.855 352.61 447.045 340.437 446.777 331.27C448.295 332.103 451.331 333.74 452.849 334.544C453.117 339.931 453.444 345.348 453.623 350.765C446.658 371.183 426.656 386.541 404.452 382.255Z"></path>
<path fill="#D79373" d="M693.611 335.764C696.409 333.204 699.267 330.644 702.154 328.084C707.69 341.062 711.529 354.664 717.125 367.611C713.97 363.474 709.952 360.349 705.339 358.087C705.041 376.213 710.071 393.923 710.011 412.019C709.476 417.585 708.702 423.121 707.958 428.657C708.493 414.728 708.702 400.739 707.184 386.869C704.088 392.673 701.32 398.655 699.267 404.906C698.374 403.09 696.558 399.429 695.665 397.584C702.243 377.523 701.261 355.408 693.611 335.764Z"></path>
<path fill="#D6BAB3" d="M323.494 331.18C322.393 339.901 322.244 348.711 321.589 357.462C317.392 370.856 315.309 384.755 313.106 398.596C312.809 395.947 312.511 393.298 312.213 390.678C309.505 391.869 306.826 393.089 304.177 394.28C305.278 388.922 306.38 383.535 307.54 378.148C306.201 378.475 303.552 379.1 302.242 379.428C309.564 363.474 315.368 346.806 323.494 331.18Z"></path>
<path fill="#F0EBEA" d="M436.985 333.412C442.134 331.478 444.634 340.169 439.277 341.181C434.068 343.056 431.478 334.394 436.985 333.412Z"></path>
<path fill="#F0EBEA" d="M388.351 465.685C391.536 463.036 394.75 460.416 397.995 457.797C401.953 461.726 405.971 465.625 409.811 469.703C431.092 502.503 461.124 529.439 495.889 547.268C504.52 550.78 505.443 560.662 508.271 568.401C490.888 571.734 473.387 574.205 456.064 577.717C436.718 578.58 416.24 579.592 398.53 570.276C380.047 560.394 364.51 544.232 356.89 524.558C365.879 527.534 374.54 531.404 383.529 534.44C380.374 532.416 377.219 530.451 373.945 528.725C371.832 518.903 368.171 509.527 363.379 500.717C387.041 512.623 408.114 529.648 433.711 537.744C407.073 524.35 382.517 507.354 357.992 490.508C360.254 485.835 361.474 480.686 361.801 475.507C363.141 475.06 365.819 474.197 367.159 473.751C384.749 484.347 400.524 497.681 418.264 508.128C400.941 493.395 384.66 477.174 364.867 465.685C365.373 464.911 366.415 463.393 366.921 462.619C374.094 463.333 381.237 464.494 388.351 465.685Z"></path>
<path fill="#040403" d="M687.42 386.78C690.277 368.266 686.765 349.247 691.587 330.972C692.093 332.162 693.105 334.573 693.611 335.764C701.26 355.408 702.243 377.523 695.665 397.584C688.045 412.287 672.627 420.294 656.793 422.735C649.114 421.604 641.643 419.431 634.44 416.663C645.542 414.371 657.09 413.538 667.716 409.281C677.419 405.442 684.473 396.602 687.42 386.78Z"></path>
<path fill="#9D5340" d="M539.522 353.89C540.088 344.158 547.112 337.907 555.684 334.544C551.666 342.044 546.279 348.711 539.522 353.89Z"></path>
<path fill="#9B4735" d="M544.165 358.295C549.672 350.705 554.85 341.27 565 339.425L563.542 340.705C558.392 346.479 553.868 352.729 549.314 358.92C567.53 367.73 583.9 379.934 598.753 393.655C605.301 399.638 608.991 407.853 612.623 415.77C607.563 413.329 602.592 410.769 597.622 408.18C602.205 424.282 605.271 441.01 604.11 457.826C602.771 460.862 601.401 463.869 600.062 466.905C599.735 463.69 599.467 460.475 599.229 457.291C598.663 429.283 590.508 400.412 570.893 379.696C561.845 369.993 548.511 366.54 535.95 364.159C522.914 361.897 509.46 359.367 496.334 362.105C484.161 364.397 471.392 367.582 462.284 376.481C453.146 385.351 445.944 396.006 439.008 406.602C430.049 420.473 428.68 437.319 426.061 453.213C424.781 452.737 422.251 451.814 420.971 451.368C419.156 436.426 424.156 421.871 430.169 408.448C426.716 409.43 423.263 410.412 419.87 411.365C429.484 388.119 450.706 373.148 472.315 362.016C495.709 355.111 520.146 356.122 544.165 358.295Z"></path>
<path fill="#F5F0E7" d="M581.102 347.134C583.662 343.741 586.222 340.347 588.871 336.984C589.555 345.824 587.383 357.67 597.026 362.552C614.944 369.516 633.814 360.647 649.411 351.836C647.387 357.283 646.018 363.742 640.72 367.046C626.284 377.404 607.711 376.213 590.924 375.023C587.531 365.766 584.346 356.45 581.102 347.134Z"></path>
<path fill="#040506" d="M325.846 346.984C327.215 346.687 329.923 346.062 331.293 345.764C330.429 348.354 329.596 350.973 328.852 353.592C322.066 372.522 325.012 392.821 324.834 412.495C324.745 428.985 328.614 445.355 335.281 460.386C334.299 462.32 332.364 466.22 331.382 468.154C316.53 448.242 310.368 423.181 313.107 398.595C315.309 384.755 317.393 370.855 321.589 357.461C322.929 353.949 324.417 350.497 325.846 346.984Z"></path>
<path fill="#B87058" d="M266.704 354.545C270.722 355.051 274.8 355.587 278.878 356.123C270.901 364.189 263.43 372.969 254.114 379.547C249.471 383.535 243.191 381.125 237.863 380.619C246.673 371.094 256.435 362.522 266.704 354.545Z"></path>
<path fill="#3C3027" d="M742.722 352.491C756.145 351.866 769.182 355.676 780.433 363.028C778.647 363.117 775.045 363.296 773.259 363.415C778.051 365.528 782.903 367.582 787.784 369.636C786.891 372.671 784.481 376.154 786.266 379.368C792.1 391.185 802.25 401.691 802.012 415.71L799.631 415.234C795.017 414.252 790.433 413.21 785.939 412.228C786.683 417.08 787.487 421.961 788.469 426.812C785.344 426.604 782.248 426.396 779.212 426.217C779.718 439.79 772.486 459.166 786.683 467.827C784.242 478.602 786.266 489.555 788.528 500.151C789.808 511.194 790.195 522.504 788.618 533.517C778.2 549.589 756.234 546.821 742.87 558.132C741.084 556.138 739.239 554.233 737.364 552.357C751.978 549.887 766.83 546.226 779.123 537.475C767.872 536.077 756.562 535.809 745.251 535.511C758.794 533.487 772.515 533.219 786.177 533.1C786.118 517.891 787.397 502.384 784.034 487.412C782.725 479.168 780.254 471.131 776.147 463.869C775.879 445.058 777.188 426.217 780.7 407.704C773.855 402.733 767.039 397.703 760.61 392.256C773.349 397.673 785.284 404.757 797.815 410.68C789.124 384.488 769.807 360.736 742.722 352.491Z"></path>
<path fill="#D8B2A3" d="M705.338 358.086C709.952 360.348 713.97 363.474 717.125 367.611C726.381 391.631 738.644 417.644 730.31 443.777C730.132 429.818 723.345 417.258 710.011 412.019C710.071 393.922 705.041 376.213 705.338 358.086Z"></path>
<path fill="#CE794F" d="M496.335 362.105C509.461 359.367 522.914 361.897 535.951 364.159C548.511 366.54 561.846 369.993 570.894 379.696C590.508 400.411 598.664 429.283 599.229 457.291C581.401 459.761 563.453 464.196 548.333 474.316C537.022 480.923 526.932 490.924 513.598 493.127C500.412 493.395 490.144 483.632 479.905 476.697C468.327 467.768 454.992 461.428 440.884 457.767C446.688 443.45 452.492 429.045 455.32 413.776C457.999 402.941 458.772 389.935 468.416 382.583C477.405 375.38 486.989 368.921 496.335 362.105Z"></path>
<path fill="#C66C4A" d="M462.284 376.482C471.392 367.582 484.161 364.397 496.334 362.105C486.988 368.921 477.404 375.38 468.416 382.583C458.772 389.935 457.998 402.942 455.32 413.776C452.492 429.045 446.688 443.451 440.884 457.767C435.883 456.309 430.943 454.85 426.061 453.213C428.681 437.319 430.05 420.473 439.009 406.603C445.944 396.007 453.147 385.351 462.284 376.482Z"></path>
<path fill="#EDE9E6" d="M302.242 379.428C303.552 379.1 306.201 378.475 307.54 378.148C306.379 383.535 305.278 388.923 304.177 394.28C306.826 393.09 309.505 391.869 312.213 390.679C312.511 393.298 312.808 395.947 313.106 398.596C310.368 423.181 316.529 448.242 331.381 468.155C336.471 474.435 342.781 479.614 349.21 484.465C348.942 490.091 348.674 495.716 348.496 501.371C342.93 501.163 337.394 500.925 331.887 500.746C336.709 502.502 341.531 504.229 346.382 505.985C351.234 521.7 355.669 538.13 366.414 551.018C365.58 552.893 363.884 556.703 363.05 558.578C367.009 566.376 370.67 574.294 374.718 582.062C359.598 568.013 340.906 558.578 325.726 544.648C311.112 532.326 297.807 515.539 277.657 512.92C269.085 504.08 262.626 493.514 257.209 482.531C262.448 485.061 267.716 487.561 272.835 490.418C285.366 502.383 299.117 513.218 315.13 520.212C323.494 526.105 332.125 531.671 341.352 536.225C320.785 511.61 299.534 485.924 290.366 454.612C283.818 428.955 290.604 402.525 302.242 379.428Z"></path>
<path fill="#707378" d="M792.696 372.225C795.97 374.487 799.185 376.957 802.28 379.547C806.001 382.136 807.221 386.66 809.185 390.53C801.268 387.405 787.547 383.476 792.696 372.225Z"></path>
<path fill="#020202" d="M699.266 404.906C701.32 398.655 704.088 392.673 707.184 386.869C708.702 400.739 708.493 414.728 707.957 428.658C705.993 449.046 699.713 471.756 680.247 482.174C677.122 481.251 674.026 480.298 671.02 479.316C688.432 467.232 692.689 445.534 694.147 425.771C695.516 418.746 697.213 411.781 699.266 404.906Z"></path>
<path fill="#A96242" d="M236.315 419.997C248.905 411.782 260.394 402.049 272.657 393.358C271.883 395.233 270.336 398.953 269.562 400.799C257.031 412.079 244.441 423.568 235.72 438.182C240.214 436.873 244.738 435.563 249.292 434.224C248.191 437.855 247.09 441.486 246.167 445.147L243.994 446.665C237.774 450.713 231.821 455.088 225.868 459.494C224.41 445.475 229.767 432.081 236.315 419.997Z"></path>
<path fill="#DA9C7D" d="M272.658 393.358C274.027 397.078 275.426 400.828 276.825 404.549C269.89 424.164 267.836 446.546 276.378 466.012C284.355 487.204 300.279 503.693 315.131 520.212C299.118 513.218 285.367 502.384 272.836 490.418C266.407 480.328 260.871 469.732 254.62 459.583C262.091 440.653 262.746 419.907 269.562 400.799C270.336 398.953 271.884 395.233 272.658 393.358Z"></path>
<path fill="#E2A487" d="M695.665 397.583C696.558 399.429 698.374 403.09 699.266 404.905C697.213 411.781 695.516 418.746 694.147 425.77C693.909 424.222 693.463 421.127 693.224 419.579C683.313 428.955 673.223 439.104 669.175 452.528C661.972 444.224 653.995 436.455 644.292 431.157C644.143 429.759 643.786 426.961 643.637 425.562C647.983 424.609 652.388 423.687 656.793 422.734C672.628 420.294 688.046 412.287 695.665 397.583Z"></path>
<path fill="#D38767" d="M235.72 438.182C244.441 423.567 257.031 412.078 269.562 400.798C262.746 419.906 262.091 440.652 254.62 459.582C252.209 466.011 249.679 472.41 247.179 478.839C246.167 479.077 244.113 479.524 243.101 479.762C244.798 468.303 244.738 456.635 246.167 445.146C247.09 441.485 248.191 437.854 249.292 434.223C244.738 435.562 240.214 436.872 235.72 438.182Z"></path>
<path fill="#D79778" d="M753.229 409.073C762.456 435.057 743.437 459.94 747.752 486.251C751.205 486.102 754.658 485.953 758.17 485.805C739.984 498.633 717.899 503.991 698.463 514.497C707.065 505.211 716.708 496.817 724.09 486.459C735.609 471.131 743.556 453.481 750.104 435.533C750.133 436.753 750.193 439.164 750.193 440.355C751.264 429.937 752.157 419.49 753.229 409.073Z"></path>
<path fill="#F0E0D5" d="M324.834 412.496C333.227 419.937 341.204 427.884 349.747 435.206L351.503 436.635C355.283 439.76 359.092 442.825 362.932 445.921C364.093 448.689 365.254 451.487 366.474 454.285C360.134 461.666 354.092 469.286 348.526 477.233C343.734 471.905 339.151 466.399 335.281 460.386C328.614 445.355 324.745 428.985 324.834 412.496Z"></path>
<path fill="#F0EBE9" d="M710.011 412.02C723.345 417.258 730.131 429.818 730.31 443.778C723.524 469.077 711.38 493.573 692.242 511.819C686.17 517.98 680.187 524.26 674.056 530.362C673.877 526.135 673.758 521.938 673.728 517.712C673.728 507.265 673.58 496.817 671.823 486.489C674.621 485.061 677.419 483.662 680.247 482.174C699.712 471.756 705.993 449.046 707.957 428.658C708.701 423.122 709.475 417.585 710.011 412.02Z"></path>
<path fill="#AEACAF" d="M785.939 412.228C790.434 413.21 795.018 414.252 799.631 415.234C802.131 425.473 804.631 435.771 805.405 446.307C799.601 437.616 795.434 428.003 791.446 418.389C790.821 422.853 790.196 427.348 789.66 431.842C789.362 430.562 788.767 428.062 788.47 426.812C787.487 421.96 786.684 417.079 785.939 412.228Z"></path>
<path fill="#F5EEEB" d="M669.175 452.528C673.223 439.105 683.313 428.955 693.224 419.58C693.463 421.127 693.909 424.223 694.147 425.771C692.689 445.534 688.432 467.232 671.02 479.316C669.562 478.542 666.645 476.965 665.187 476.191C666.675 469.911 668.371 463.601 668.996 457.142C669.026 455.981 669.145 453.689 669.175 452.528Z"></path>
<path fill="#411C18" d="M622.295 423.21C629.736 425.502 637.148 428.002 644.291 431.157C653.994 436.455 661.971 444.224 669.174 452.528C669.144 453.689 669.025 455.981 668.995 457.142C658.756 449.462 648.041 442.498 637.237 435.682C631.909 431.931 627.028 427.645 622.295 423.21Z"></path>
<path fill="#1E1D1E" d="M362.932 445.921C375.135 438.718 387.547 430.92 401.864 428.896C388.678 436.367 373.618 443.659 369.004 459.434C368.468 460.208 367.456 461.815 366.921 462.619C366.415 463.392 365.373 464.91 364.867 465.684C384.66 477.173 400.941 493.395 418.264 508.128C400.524 497.681 384.749 484.346 367.159 473.75C365.819 474.197 363.14 475.06 361.801 475.506C356.205 477.262 352.783 486.608 357.991 490.507C382.517 507.354 407.072 524.349 433.711 537.743C408.114 529.647 387.041 512.622 363.379 500.717C359.956 499.556 356.533 498.425 353.11 497.353C353.586 504.259 353.318 511.342 355.104 518.099C360.581 522.861 367.516 525.451 373.945 528.725C377.219 530.451 380.374 532.415 383.529 534.439C374.54 531.403 365.879 527.534 356.89 524.558C364.51 544.232 380.047 560.394 398.53 570.275C416.24 579.591 436.717 578.58 456.064 577.716C458.237 578.46 462.523 579.949 464.696 580.693C459.011 581.02 453.355 581.437 447.73 581.615C440.229 581.705 432.759 581.734 425.288 581.467C402.429 579.919 382.398 566.614 366.414 551.018C355.67 538.13 351.235 521.7 346.383 505.985C341.532 504.229 336.71 502.502 331.888 500.746C337.395 500.925 342.931 501.163 348.497 501.371C348.675 495.716 348.943 490.091 349.211 484.465C342.782 479.614 336.472 474.435 331.382 468.155C332.364 466.22 334.299 462.321 335.281 460.386C339.151 466.399 343.734 471.905 348.526 477.233C354.092 469.286 360.134 461.666 366.474 454.285C365.254 451.487 364.093 448.689 362.932 445.921Z"></path>
<path fill="#CF8E76" d="M369.003 459.434C373.617 443.659 388.677 436.367 401.863 428.896C414.275 433.241 418.233 446.04 421.805 457.35C427.49 475.506 441.658 488.99 454.099 502.741C442.818 496.669 429.931 491.698 422.579 480.566C415.078 468.928 411.179 455.505 405.911 442.796C402.488 444.224 399.095 445.653 395.761 447.141C386.802 451.189 377.843 455.207 369.003 459.434Z"></path>
<path fill="#DA8562" d="M615.51 445.653C622.624 442.052 629.976 438.986 637.238 435.682C648.042 442.498 658.757 449.463 668.996 457.142C668.371 463.601 666.675 469.911 665.186 476.191C657.596 465.327 649.769 452.856 635.988 449.522C629.35 447.29 622.415 446.278 615.51 445.653Z"></path>
<path fill="#CCB4B4" d="M395.762 447.141C399.095 445.653 402.488 444.224 405.911 442.795C411.179 455.505 415.079 468.928 422.579 480.566C429.931 491.698 442.819 496.668 454.099 502.74C470.499 518.247 487.018 535.094 509.461 541.344C509.193 550.363 508.836 559.381 508.27 568.4C505.442 560.661 504.52 550.78 495.888 547.267C461.124 529.439 431.092 502.502 409.81 469.702C406.506 461.398 402.399 453.302 395.762 447.141Z"></path>
<path fill="#736A6A" d="M243.995 446.664L246.168 445.146C244.739 456.635 244.798 468.303 243.102 479.762C242.298 484.405 241.346 488.989 240.453 493.573C237.179 508.574 235.72 523.932 236.345 539.261C241.376 540.213 246.465 541.195 251.585 541.939C264.205 543.249 276.408 547.654 285.932 556.196C279.741 557.982 273.58 559.709 267.449 561.494C275.188 566.941 282.986 572.418 291.201 577.21C289.713 578.877 288.254 580.514 286.825 582.151C280.069 573.936 269.771 570.275 261.794 563.637C260.276 557.833 266.348 554.47 269.294 550.392C259.859 549.232 250.186 548.904 241.078 545.958C236.97 544.678 232.625 541.761 232.357 537.058C228.488 506.312 239.917 476.726 243.995 446.664Z"></path>
<path fill="#D1B8B5" d="M604.111 457.826C607.087 453.153 610.391 448.242 615.51 445.653C622.416 446.278 629.351 447.29 635.988 449.522C640.482 453.421 644.917 457.469 649.025 461.815C640.453 462.172 629.946 458.868 623.189 465.863C608.962 479.792 598.247 497.234 581.936 509.08C560.804 525.927 536.04 536.91 512.407 549.589C512.467 547.416 512.556 543.101 512.616 540.928C538.064 530.213 560.953 513.991 580.418 494.496C588.425 486.459 595.271 477.203 600.063 466.904C601.402 463.868 602.771 460.862 604.111 457.826Z"></path>
<path fill="#E3D4D2" d="M369.004 459.434C377.844 455.207 386.803 451.189 395.762 447.141C402.399 453.303 406.507 461.398 409.81 469.703C405.971 465.625 401.953 461.726 397.994 457.797C394.75 460.416 391.535 463.035 388.351 465.684C381.237 464.494 374.094 463.333 366.92 462.619C367.456 461.815 368.468 460.208 369.004 459.434Z"></path>
<path fill="#100F10" d="M635.988 449.522C649.769 452.855 657.597 465.326 665.187 476.19C666.645 476.964 669.562 478.542 671.02 479.316C674.027 480.298 677.122 481.25 680.247 482.173C677.42 483.661 674.622 485.06 671.824 486.489C673.58 496.817 673.729 507.264 673.729 517.711C671.169 518.813 668.639 519.944 666.139 521.045C667.806 515.896 669.264 510.657 670.693 505.449C645.245 517.682 621.463 534.022 593.842 541.106C619.469 529.051 645.81 517.801 668.52 500.418C667.597 496.073 666.705 491.698 665.841 487.352C644.322 494.436 623.517 503.633 603.128 513.425C609.171 509.02 615.213 504.556 621.433 500.359C632.059 492.888 644.471 487.322 652.418 476.637C653.311 474.911 655.126 471.458 656.019 469.732C653.668 467.053 651.346 464.434 649.025 461.814C644.917 457.469 640.482 453.421 635.988 449.522Z"></path>
<path fill="#672936" d="M420.971 451.367C422.251 451.814 424.781 452.736 426.061 453.213C430.942 454.85 435.883 456.308 440.883 457.766C454.991 461.427 468.326 467.767 479.904 476.696C490.143 483.631 500.411 493.394 513.597 493.126C526.931 490.924 537.022 480.923 548.332 474.315C563.452 464.195 581.4 459.761 599.228 457.29C599.467 460.475 599.734 463.69 600.062 466.904C595.27 477.202 588.424 486.459 580.417 494.495C560.952 513.991 538.063 530.212 512.615 540.927C512.555 543.1 512.466 547.416 512.407 549.589C512.377 552.089 512.288 557.089 512.228 559.59C512.228 561.792 512.168 566.227 512.139 568.429C530.027 570.572 547.647 574.323 565.506 576.853C563.422 577.656 559.255 579.293 557.172 580.127C555.505 580.276 552.142 580.573 550.445 580.722C550.445 589.175 550.564 597.658 550.118 606.141C549.165 610.665 547.915 615.1 546.873 619.594C556.428 622.57 562.916 615.754 566.875 607.837C571.697 600.724 575.625 593.074 579.286 585.306C576.756 584.413 571.697 582.567 569.167 581.674C580.983 580.365 592.829 581.436 604.437 583.907C602.473 597.36 600.746 610.873 598.931 624.356C596.341 641.471 593.99 658.853 588.186 675.253C585.805 682.545 579.197 689.808 570.834 688.2C556.219 686.147 542.379 680.343 527.586 679.301C505.471 677.723 482.642 677.396 461.361 684.51C453.235 686.414 444.455 690.909 436.18 687.426C430.912 679.45 428.859 669.955 426.418 660.907C424.692 634.446 426.358 607.926 425.287 581.466C432.758 581.734 440.228 581.704 447.729 581.615C449.009 596.646 458.861 608.403 467.165 620.249C470.528 620.368 473.921 620.517 477.344 620.636C472.909 607.748 473.564 594.056 473.862 580.663C470.767 580.663 467.701 580.692 464.695 580.692C462.522 579.948 458.236 578.46 456.063 577.716C473.386 574.204 490.887 571.733 508.269 568.4C508.835 559.381 509.192 550.363 509.46 541.344C487.018 535.094 470.499 518.247 454.099 502.74C441.657 488.989 427.489 475.506 421.805 457.35C421.596 455.832 421.179 452.855 420.971 451.367ZM429.93 462.707C434.811 470.773 440.556 478.601 448.711 483.691C460.617 498.662 474.963 511.491 489.548 523.783C497.286 530.689 508.448 534.439 518.538 530.51C532.527 524.944 544.552 515.241 555.118 504.615C570.179 494.198 585.477 481.756 592.085 464.047C571.964 466.249 554.136 476.429 537.795 487.709C527.914 494.019 516.127 502.829 503.924 497.293C478.743 487.025 459.754 459.433 429.93 462.707ZM478.981 580.633C477.91 594.146 480.708 607.42 482.97 620.665C479.577 623.85 475.618 626.35 471.868 628.999C462.879 625.457 456.629 617.987 451.688 610.01C452.402 622.302 451.211 634.744 453.295 646.917C455.795 654.537 461.867 660.192 466.719 666.324C457.67 667.157 452.283 657.692 445.586 653.168C448.205 637.065 447.223 619.981 441.955 604.444C435.675 622.749 436.925 642.959 442.342 661.323C443.889 664.895 445.497 668.437 447.163 672.009C443.086 670.818 438.978 669.627 434.96 668.496C435.407 672.723 435.942 676.949 436.478 681.206C444.187 688.944 453.86 682.575 462.343 680.134C495.173 668.735 531.069 672.574 563.809 682.218C570.357 685.343 575.12 679.777 579.167 675.402C577.024 672.872 574.881 670.342 572.768 667.842C571.399 667.901 568.631 668.05 567.232 668.139C570.744 659.537 578.245 654.448 586.817 651.68C590.775 630.071 593.96 608.284 596.728 586.467C593.246 586.526 589.823 586.556 586.43 586.615C579.793 599.354 573.661 613.105 562.47 622.57C555.832 628.226 544.343 625.666 540.801 617.659C541.069 605.218 544.492 593.134 546.04 580.811C536.039 578.609 526.068 576.109 515.859 575.305C503.299 574.323 491.066 577.924 478.981 580.633Z"></path>
<path fill="#CB9A8C" d="M247.179 478.84C249.679 472.411 252.209 466.012 254.62 459.583C251.941 473.095 254.561 486.698 259.412 499.377C255.93 500.181 252.507 501.014 249.114 501.818C246.197 499.08 243.31 496.311 240.453 493.573C241.346 488.989 242.298 484.406 243.102 479.763C244.114 479.524 246.167 479.078 247.179 478.84Z"></path>
<path fill="#DAD0CF" d="M254.62 459.583C260.871 469.732 266.407 480.328 272.836 490.418C267.717 487.561 262.449 485.061 257.21 482.531C262.627 493.514 269.086 504.08 277.658 512.92C289.683 526.671 304.386 537.684 317.393 550.452C303.85 544.946 291.29 537.207 280.843 526.939C273.342 519.527 264.413 513.694 254.353 510.449C262.24 527.802 278.343 538.934 291.32 552.179C309.625 570.067 336.591 574.442 355.491 591.467C341.621 595.128 327.543 597.718 313.345 599.504C311.172 594.176 309.149 588.789 307.244 583.371C301.827 581.437 296.409 579.591 291.201 577.21C282.986 572.418 275.187 566.942 267.449 561.495C273.58 559.709 279.741 557.983 285.932 556.197C276.408 547.655 264.205 543.249 251.585 541.94C256.645 541.94 261.704 541.731 266.824 541.553C259.77 534.886 252.567 528.457 245.334 522.028C242.328 527.772 239.322 533.517 236.345 539.261C235.72 523.933 237.179 508.574 240.453 493.573C243.31 496.311 246.197 499.08 249.114 501.818C252.507 501.014 255.93 500.181 259.413 499.377C254.561 486.698 251.942 473.095 254.62 459.583Z"></path>
<path fill="#D58258" d="M429.931 462.708C459.754 459.434 478.744 487.025 503.924 497.293C516.128 502.83 527.914 494.019 537.796 487.709C554.136 476.429 571.965 466.25 592.086 464.047C585.478 481.757 570.179 494.198 555.119 504.615C537.469 513.277 516.902 524.379 497.079 516.194C479.071 508.396 465.529 493.484 448.712 483.691C440.557 478.602 434.812 470.774 429.931 462.708Z"></path>
<path fill="#F0ECEA" d="M623.189 465.863C629.946 458.868 640.452 462.172 649.024 461.815C651.346 464.434 653.668 467.054 656.019 469.732C655.126 471.459 653.311 474.911 652.418 476.638C650.483 475.596 646.643 473.572 644.738 472.53C634.767 479.584 625.064 487.055 615.778 494.942C617.177 496.312 620.034 498.99 621.433 500.36C615.213 504.556 609.17 509.021 603.128 513.426C623.517 503.634 644.322 494.437 665.841 487.353C666.704 491.698 667.597 496.074 668.52 500.419C645.81 517.801 619.469 529.052 593.842 541.107C621.463 534.023 645.244 517.682 670.693 505.449C669.264 510.658 667.806 515.896 666.139 521.046C655.096 525.361 644.5 530.927 635.273 538.398C647.03 535.184 658.043 529.826 669.472 525.659C655.692 547.893 627.684 550.988 605.837 561.287C626.076 558.37 644.917 550.244 664.026 543.428C659.769 553.786 654.828 565.156 644.024 570.186C619.796 582.657 591.58 578.044 565.506 576.853C547.648 574.323 530.028 570.573 512.139 568.43C512.169 566.228 512.229 561.793 512.229 559.59C542.915 549.202 569.316 529.439 594.497 509.527C590.27 509.378 586.073 509.229 581.936 509.08C598.247 497.234 608.962 479.793 623.189 465.863Z"></path>
<path fill="#CCBCC0" d="M776.146 463.868C780.254 471.131 782.724 479.167 784.034 487.412C782.278 484.882 780.522 482.352 778.795 479.882C774.807 483.007 770.819 486.162 766.86 489.287C764.419 487.59 761.979 485.894 759.598 484.227C765.163 477.471 770.491 470.536 776.146 463.868Z"></path>
<path fill="#CEC5C3" d="M615.778 494.942C625.065 487.055 634.768 479.584 644.739 472.53C646.644 473.572 650.483 475.596 652.418 476.637C644.471 487.323 632.059 492.889 621.433 500.359C620.035 498.99 617.177 496.312 615.778 494.942Z"></path>
<path fill="#B1A7A5" d="M357.991 490.507C352.782 486.608 356.205 477.262 361.801 475.506C361.473 480.685 360.253 485.834 357.991 490.507Z"></path>
<path fill="#F0ECEC" d="M766.861 489.287C770.819 486.162 774.808 483.007 778.796 479.881C780.522 482.352 782.278 484.882 784.034 487.412C787.398 502.383 786.118 517.89 786.177 533.1C772.516 533.219 758.794 533.486 745.252 535.51C709.029 539.767 687.033 571.674 660.394 592.717C653.608 599.146 643.488 596.051 635.125 596.616C639.5 588.52 644.262 580.514 650.661 573.847C659.68 566.376 666.139 556.494 670.127 545.541C674.741 531.552 687.271 522.98 698.463 514.497C717.899 503.99 739.984 498.633 758.169 485.804L759.598 484.227C761.979 485.894 764.42 487.59 766.861 489.287Z"></path>
<path fill="#9C4130" d="M448.711 483.691C465.528 493.484 479.071 508.396 497.078 516.194C516.901 524.379 537.468 513.277 555.118 504.616C544.552 515.241 532.527 524.944 518.538 530.51C508.448 534.439 497.287 530.689 489.548 523.784C474.963 511.491 460.617 498.663 448.711 483.691Z"></path>
<path fill="#D8C7C0" d="M353.109 497.353C356.532 498.425 359.955 499.556 363.378 500.716C368.17 509.527 371.831 518.902 373.944 528.724C367.515 525.45 360.58 522.861 355.103 518.099C353.317 511.342 353.585 504.258 353.109 497.353Z"></path>
<path fill="#DFCED0" d="M512.407 549.589C536.04 536.91 560.804 525.927 581.936 509.08C586.073 509.229 590.27 509.378 594.497 509.527C569.316 529.439 542.916 549.202 512.229 559.59C512.288 557.09 512.378 552.089 512.407 549.589Z"></path>
<path fill="#F6F4F2" d="M254.352 510.449C264.413 513.694 273.342 519.527 280.842 526.939C291.289 537.207 303.85 544.946 317.393 550.452C304.386 537.683 289.682 526.671 277.658 512.92C297.808 515.539 311.112 532.326 325.727 544.648C340.906 558.578 359.598 568.013 374.718 582.062C386.803 594.384 404.096 598.313 420.228 602.42C420.168 622.065 420.347 642.007 426.419 660.907C428.859 669.955 430.913 679.45 436.181 687.427C444.456 690.909 453.236 686.415 461.362 684.51C482.643 677.396 505.472 677.724 527.587 679.301C542.38 680.343 556.22 686.147 570.834 688.201C579.198 689.808 585.805 682.545 588.187 675.253C593.991 658.853 596.342 641.471 598.932 624.357C602.206 621.44 605.509 618.493 608.843 615.576C609.289 637.542 607.861 659.895 599.884 680.611C595.925 690.492 591.877 702.428 581.192 706.833C571.489 710.345 561.042 707.458 551.22 706.029C524.253 700.88 496.096 697.695 469.16 704.69C458.475 706.684 447.224 711.506 436.39 707.845C423.621 702.398 415.644 690.165 408.798 678.706C406.923 663.824 407.489 648.763 407.786 633.792C407.935 628.97 408.233 624.148 408.53 619.326C393.351 610.189 376.802 603.7 359.688 599.325C358.289 596.676 356.919 594.027 355.491 591.467C336.591 574.442 309.624 570.067 291.319 552.179C278.342 538.933 262.24 527.802 254.352 510.449Z"></path>
<path fill="#7A7777" d="M674.056 530.361C680.188 524.26 686.17 517.98 692.242 511.818C693.82 512.503 696.915 513.842 698.463 514.497C687.272 522.98 674.741 531.552 670.127 545.541C666.139 556.494 659.68 566.376 650.662 573.847C636.137 580.127 620.451 585.276 604.438 583.907C592.83 581.437 580.984 580.365 569.168 581.675C565.149 581.139 561.161 580.573 557.172 580.127C559.256 579.294 563.423 577.657 565.506 576.853C591.58 578.044 619.796 582.657 644.024 570.186C654.829 565.156 659.769 553.786 664.026 543.428C644.917 550.244 626.076 558.369 605.837 561.286C627.684 550.988 655.692 547.892 669.472 525.659C658.043 529.826 647.03 535.183 635.274 538.398C644.5 530.927 655.096 525.361 666.139 521.045C668.639 519.944 671.169 518.813 673.729 517.712C673.758 521.938 673.878 526.135 674.056 530.361Z"></path>
<path fill="#EDEDEF" d="M236.345 539.261C239.321 533.517 242.327 527.772 245.333 522.028C252.566 528.457 259.769 534.886 266.823 541.553C261.704 541.732 256.644 541.94 251.584 541.94C246.464 541.196 241.375 540.214 236.345 539.261Z"></path>
<path fill="#D9D1D0" d="M660.394 592.717C687.033 571.674 709.029 539.767 745.252 535.51C756.562 535.808 767.872 536.076 779.123 537.475C766.831 546.226 751.978 549.887 737.364 552.357L735.489 552.565C739.031 558.697 742.543 564.858 746.055 571.019L743.674 572.805C737.781 573.132 731.917 573.311 726.054 573.519C718.613 572.984 711.201 572.537 703.79 572.686C707.779 573.49 711.797 574.234 715.934 574.621C716.738 576.377 718.404 579.889 719.238 581.645C711.975 581.764 704.742 581.853 697.54 582.032C698.611 582.806 700.754 584.413 701.826 585.187C701.736 587.508 701.588 592.122 701.498 594.414C690.783 594.295 680.068 593.58 669.502 592.062C673.579 596.11 677.568 600.218 681.556 604.414C667.627 606.974 653.429 607.242 639.321 606.855C642.625 613.522 645.929 620.189 649.232 626.857C648.369 629.148 646.613 633.762 645.72 636.054C634.648 633.137 623.874 629.208 613.426 624.624C611.105 649.656 608.337 675.015 600.33 698.945C595.359 713.649 579.168 720.643 564.583 720.137C540.653 719.721 517.02 712.547 492.971 715.732C477.999 716.536 464.1 723.62 449.128 723.888C426.924 721.03 410.048 700.731 408.798 678.706C415.644 690.165 423.62 702.398 436.389 707.845C447.223 711.506 458.474 706.684 469.16 704.69C496.096 697.695 524.253 700.88 551.219 706.029C561.041 707.458 571.489 710.345 581.192 706.833C591.877 702.428 595.925 690.492 599.883 680.611C607.86 659.895 609.289 637.542 608.843 615.576C605.509 618.493 602.205 621.44 598.931 624.356C600.747 610.873 602.473 597.36 604.437 583.907C620.451 585.276 636.136 580.127 650.661 573.847C644.262 580.514 639.5 588.52 635.124 596.616C643.488 596.051 653.608 599.146 660.394 592.717Z"></path>
<path fill="#DED2D0" d="M366.414 551.018C382.397 566.614 402.429 579.919 425.288 581.467C426.359 607.927 424.692 634.447 426.419 660.907C420.347 642.007 420.168 622.065 420.228 602.42C404.096 598.313 386.803 594.384 374.718 582.062C370.67 574.293 367.01 566.376 363.051 558.578C363.884 556.703 365.581 552.893 366.414 551.018Z"></path>
<path fill="#251416" d="M735.49 552.566L737.365 552.357C739.24 554.233 741.085 556.137 742.871 558.132C750.907 568.192 757.247 579.502 763.676 590.634C762.129 593.7 760.64 596.795 759.152 599.891C756.503 594.831 753.824 589.83 751.116 584.86C738.793 600.962 724.001 614.922 707.273 626.321C697.064 645.698 697.987 669.628 683.224 686.891C683.611 685.73 684.355 683.379 684.742 682.218C693.82 658.05 695.427 630.518 712.869 610.13C723.733 598.164 732.454 584.443 743.675 572.805L746.056 571.02C742.544 564.858 739.031 558.697 735.49 552.566Z"></path>
<path fill="#7D2535" d="M478.982 580.633C491.066 577.925 503.299 574.324 515.86 575.306C526.069 576.109 536.04 578.61 546.041 580.812C544.493 593.134 541.07 605.219 540.802 617.66C544.344 625.667 555.833 628.226 562.47 622.571C573.662 613.106 579.793 599.355 586.43 586.616C589.824 586.557 593.246 586.527 596.729 586.467C593.961 608.284 590.776 630.072 586.817 651.68C578.245 654.448 570.745 659.538 567.233 668.14C553.988 668.438 541.308 663.914 528.39 661.949C515.384 660.044 502.168 660.997 489.102 660.937C489.459 658.854 489.876 656.77 490.292 654.716C485.471 650.282 480.679 645.876 475.916 641.442C478.714 639.269 481.542 637.126 484.399 635.013C480.202 633.018 475.976 631.054 471.868 629C475.619 626.351 479.577 623.851 482.97 620.666C480.708 607.421 477.91 594.146 478.982 580.633ZM532.795 634.298C525.146 645.013 512.109 644.745 500.382 643.525C499.817 647.9 499.281 652.246 498.805 656.621C511.008 656.949 523.688 659.27 535.683 655.966C543.362 658.199 551.19 660.074 559.047 661.77C561.816 655.282 564.584 648.764 567.233 642.215C558.303 645.043 549.731 648.764 541.516 653.169C539.492 651.651 535.474 648.645 533.45 647.156C545.654 643.168 558.125 639.537 569.138 632.75C557.024 631.203 544.79 632.423 532.795 634.298Z"></path>
<path fill="#A3624E" d="M715.934 574.621C719.268 574.264 722.631 573.906 726.054 573.52C731.917 573.311 737.781 573.133 743.674 572.805C732.453 584.443 723.732 598.164 712.868 610.129C714.357 606.022 715.726 601.885 717.125 597.718C718.077 594.741 719.149 591.795 720.25 588.848C714.059 587.717 707.868 586.646 701.826 585.187C700.754 584.413 698.611 582.806 697.54 582.032C704.743 581.853 711.976 581.764 719.238 581.645C718.405 579.889 716.738 576.377 715.934 574.621Z"></path>
<path fill="#E5E7E4" d="M464.695 580.693C467.701 580.693 470.767 580.663 473.862 580.663C473.565 594.057 472.91 607.748 477.345 620.636C473.922 620.517 470.529 620.368 467.165 620.249C458.861 608.403 449.009 596.646 447.729 581.615C453.355 581.437 459.01 581.02 464.695 580.693Z"></path>
<path fill="#E6E3E3" d="M550.445 580.722C552.142 580.574 555.505 580.276 557.172 580.127C561.16 580.574 565.149 581.139 569.167 581.675C571.697 582.568 576.757 584.413 579.287 585.306C575.626 593.075 571.697 600.724 566.875 607.838C561.25 607.242 555.684 606.677 550.118 606.141C550.564 597.658 550.445 589.175 550.445 580.722Z"></path>
<path fill="#C57357" d="M285.813 591.438C290.813 587.538 296.647 584.889 302.332 582.121C306.588 590.128 309.386 600.902 319.506 603.313C328.287 621.172 340.46 636.977 350.639 654.031C358.973 672.426 368.438 690.344 376.951 708.678C335.46 691.891 305.308 654.835 288.849 614.118C286.14 606.915 284.831 599.117 285.813 591.438Z"></path>
<path fill="#79696A" d="M701.826 585.187C707.868 586.645 714.059 587.717 720.25 588.848C719.149 591.795 718.077 594.741 717.125 597.718C716.768 596.319 716.113 593.551 715.786 592.152C707.094 595.247 699.296 600.218 691.617 605.189C680.039 612.778 665.544 611.945 652.329 613.344C652.031 621.291 655.662 631.619 648.876 637.661C639.798 640.221 630.303 637.631 621.165 636.858C619.767 642.989 618.427 649.12 617.207 655.311C613.635 672.188 611.313 689.748 603.605 705.375C597.83 716.596 585.3 721.06 574.674 726.269C563.185 726.031 551.696 726.09 540.267 725.317C516.306 718.114 488.715 716.625 466.005 728.561C458.296 729.305 450.587 729.335 442.878 729.097C428.919 721.923 414.216 712.816 408.203 697.487C401.328 679.182 402.548 659.21 401.179 640.013C390.732 639.507 380.314 638.852 369.897 637.929C369.688 632.899 369.51 627.869 369.361 622.868C358.08 622.154 346.8 621.469 335.549 620.636C332.87 613.731 335.936 606.915 338.823 600.664C334.567 601.379 330.281 602.093 326.054 602.569C321.738 601.736 317.512 600.605 313.345 599.504C327.542 597.718 341.621 595.128 355.491 591.467C349.508 599.087 343.645 606.796 338.019 614.654C351.711 616.558 365.492 618.076 379.272 619.475C377.665 624.357 376.028 629.208 374.48 634.119C385.582 634.357 396.655 634.179 407.786 633.792C407.489 648.763 406.923 663.824 408.799 678.706C410.049 700.731 426.925 721.03 449.129 723.888C464.1 723.62 478 716.536 492.971 715.732C517.021 712.548 540.653 719.721 564.584 720.138C579.168 720.644 595.36 713.649 600.331 698.945C608.337 675.015 611.105 649.656 613.427 624.624C623.874 629.208 634.649 633.137 645.721 636.054C646.614 633.762 648.37 629.149 649.233 626.857C645.929 620.19 642.625 613.522 639.321 606.855C653.43 607.242 667.627 606.974 681.557 604.415C677.568 600.218 673.58 596.11 669.502 592.063C680.069 593.58 690.784 594.295 701.499 594.414C701.588 592.122 701.737 587.509 701.826 585.187Z"></path>
<path fill="#BB5D41" d="M751.115 584.86C753.823 589.83 756.502 594.831 759.151 599.891C751.77 615.279 744.567 630.756 735.846 645.43C727.006 638.078 717.392 631.709 707.272 626.321C724 614.922 738.792 600.962 751.115 584.86Z"></path>
<path fill="#CFBDB8" d="M355.491 591.468C356.919 594.027 358.289 596.676 359.688 599.325C376.802 603.701 393.351 610.189 408.53 619.327C408.233 624.149 407.935 628.97 407.786 633.792C396.655 634.179 385.582 634.358 374.48 634.12C376.028 629.208 377.665 624.357 379.272 619.476C365.491 618.077 351.711 616.559 338.019 614.654C343.645 606.796 349.508 599.087 355.491 591.468Z"></path>
<path fill="#D3C6C3" d="M691.616 605.189C699.295 600.218 707.094 595.247 715.785 592.152C716.112 593.551 716.767 596.319 717.124 597.718C715.725 601.885 714.356 606.022 712.868 610.129C695.426 630.518 693.819 658.05 684.741 682.218C683.223 670.818 682.032 659.389 681.645 647.9C671.347 661.026 662.09 674.926 651.018 687.397C656.941 669.122 666.912 652.097 668.817 632.661C661.287 637.185 654.233 642.543 646.256 646.233C636.761 649.954 626.671 651.65 617.206 655.311C618.426 649.12 619.766 642.989 621.165 636.858C630.302 637.631 639.797 640.221 648.875 637.661C655.661 631.619 652.03 621.291 652.328 613.344C665.543 611.945 680.038 612.778 691.616 605.189Z"></path>
<path fill="#CE9180" d="M326.054 602.57C330.28 602.093 334.566 601.379 338.823 600.665C335.935 606.915 332.87 613.731 335.548 620.637C341.412 631.352 346.383 642.543 350.639 654.032C340.459 636.977 328.286 621.172 319.506 603.314C321.143 603.135 324.417 602.778 326.054 602.57Z"></path>
<path fill="#9B5A6F" d="M442.342 661.324C436.925 642.959 435.675 622.749 441.955 604.444C447.223 619.981 448.206 637.066 445.586 653.168C444.515 655.906 443.413 658.615 442.342 661.324Z"></path>
<path fill="#D4D1D0" d="M550.119 606.141C555.684 606.677 561.25 607.242 566.876 607.838C562.917 615.755 556.428 622.571 546.874 619.594C547.916 615.1 549.166 610.665 550.119 606.141Z"></path>
<path fill="#983344" d="M451.688 610.01C456.629 617.987 462.88 625.458 471.868 629C475.976 631.054 480.202 633.018 484.399 635.012C481.542 637.126 478.714 639.269 475.916 641.441C480.679 645.876 485.471 650.281 490.292 654.716C489.876 656.77 489.459 658.853 489.102 660.937C502.168 660.996 515.384 660.044 528.39 661.949C508.597 660.967 488.745 661.979 469.338 665.937L466.719 666.324C461.868 660.193 455.796 654.538 453.295 646.918C451.212 634.745 452.403 622.303 451.688 610.01Z"></path>
<path fill="#B45844" d="M240.155 690.701C238.518 661.383 247.358 631.56 267.091 609.445C267.687 620.398 267.389 631.381 268.044 642.334C271.348 682.367 291.558 719.84 321.738 746.092C313.434 748.354 304.743 749.634 296.201 747.907C274.294 732.4 255.275 712.845 240.155 690.701Z"></path>
<path fill="#B85A3F" d="M770.581 609.296C789.868 635.161 794.868 669.271 791.028 700.672C788.737 711.387 784.093 721.477 778.498 730.882C787.665 704.124 780.045 676.057 776.623 649.061C775.492 649.061 773.17 649.091 772.009 649.12C770.491 662.097 768.318 675.104 763.526 687.337C763.526 670.908 762.217 654.508 761.056 638.108C763.765 628.345 766.92 618.731 770.581 609.296Z"></path>
<path fill="#D4BBB4" d="M335.548 620.636C346.799 621.469 358.08 622.154 369.36 622.868C369.509 627.868 369.688 632.899 369.896 637.929C380.314 638.851 390.731 639.506 401.178 640.012C402.547 659.21 401.327 679.182 408.203 697.487C414.215 712.815 428.918 721.923 442.878 729.096C437.58 729.007 432.282 729.096 427.043 729.156C434.871 756.033 452.551 778.177 470.112 799.369C470.231 802.822 470.409 806.275 470.618 809.757C460.498 801.84 450.646 793.536 441.628 784.368C418.412 760.527 402.399 730.346 376.95 708.678C368.438 690.343 358.973 672.425 350.639 654.031C346.382 642.542 341.412 631.351 335.548 620.636Z"></path>
<path fill="#D8835D" d="M707.272 626.321C717.392 631.708 727.006 638.078 735.846 645.43C719.327 675.223 702.897 705.613 678.729 730.019C676.794 727.4 674.889 724.781 673.014 722.162C675.514 712.31 677.687 702.368 680.544 692.636C681.229 691.207 682.568 688.32 683.223 686.891C697.986 669.628 697.063 645.697 707.272 626.321Z"></path>
<path fill="#973043" d="M532.796 634.298C544.791 632.423 557.024 631.203 569.138 632.751C558.125 639.537 545.654 643.168 533.451 647.156C535.475 648.645 539.493 651.651 541.517 653.169C540.058 653.853 537.142 655.252 535.683 655.967C523.688 659.27 511.009 656.949 498.805 656.621C499.282 652.246 499.817 647.901 500.383 643.525C512.11 644.746 525.147 645.013 532.796 634.298Z"></path>
<path fill="#EFE9E7" d="M646.257 646.233C654.233 642.542 661.288 637.185 668.818 632.661C666.913 652.097 656.942 669.122 651.019 687.397C662.091 674.926 671.348 661.026 681.646 647.9C682.033 659.389 683.224 670.818 684.742 682.218C684.355 683.379 683.611 685.73 683.224 686.891C682.569 688.32 681.23 691.207 680.545 692.635C670.663 713.679 660.335 734.543 650.93 755.825C636.048 771.51 620.124 786.154 605.212 801.84C610.51 799.28 615.808 796.75 621.076 794.012C613.576 814.758 589.288 827.437 590.836 851.635C583.514 858.689 576.371 865.922 569.316 873.214C584.288 863.303 599.378 853.54 614.766 844.254C616.195 844.194 619.052 844.135 620.481 844.075C603.605 866.755 585.062 888.87 560.983 904.199C561.489 898.544 562.024 892.859 562.62 887.233C555.565 878.78 548.482 870.357 541.368 862.023C534.492 853.004 527.557 843.956 519.164 836.307C486.215 807.078 463.237 768.861 432.818 737.282C444.635 738.204 456.213 735.287 466.005 728.561C488.715 716.625 516.307 718.113 540.267 725.316C546.993 728.68 553.393 733.412 561.072 734.484C565.834 732.222 570.12 729.037 574.674 726.269C585.3 721.06 597.83 716.595 603.605 705.374C611.314 689.748 613.635 672.187 617.207 655.311C626.672 651.65 636.762 649.954 646.257 646.233Z"></path>
<path fill="#D9865B" d="M761.057 638.107C762.217 654.507 763.527 670.907 763.527 687.337C753.288 718.798 735.013 746.597 717.214 774.159C702.897 797.286 686.408 818.954 670.722 841.128C663.787 833.33 657.18 825.234 650.989 816.87C648.161 816.216 645.363 815.591 642.595 814.966C647.506 801.929 651.822 788.386 651.405 774.278C681.527 750.943 710.19 724.423 729.298 691.058C739.626 673.259 751.681 656.442 761.057 638.107Z"></path>
<path fill="#B34960" d="M541.516 653.169C549.731 648.763 558.303 645.043 567.232 642.215C564.583 648.763 561.815 655.282 559.047 661.77C551.189 660.074 543.361 658.199 535.682 655.966C537.141 655.252 540.057 653.853 541.516 653.169Z"></path>
<path fill="#000101" d="M772.009 649.12C773.17 649.09 775.492 649.061 776.623 649.061C780.046 676.057 787.665 704.124 778.498 730.882C767.515 763.325 741.799 787.315 717.184 809.817C699.355 824.847 681.973 840.474 662.805 853.808C665.454 849.611 667.984 845.295 670.722 841.128C686.408 818.954 702.897 797.286 717.214 774.159C735.013 746.598 753.288 718.798 763.527 687.337C768.319 675.104 770.492 662.097 772.009 649.12Z"></path>
<path fill="#BAAFB3" d="M442.343 661.324C443.414 658.615 444.515 655.907 445.587 653.168C452.284 657.692 457.671 667.157 466.719 666.324L469.339 665.937C457.522 668.943 446.539 674.45 436.479 681.206C435.943 676.95 435.408 672.723 434.961 668.497C438.979 669.628 443.087 670.818 447.164 672.009C445.498 668.437 443.89 664.895 442.343 661.324Z"></path>
<path fill="#EBE5E2" d="M469.338 665.937C488.744 661.978 508.597 660.966 528.39 661.949C541.308 663.913 553.987 668.437 567.232 668.14C568.631 668.05 571.399 667.901 572.768 667.842C574.881 670.342 577.025 672.872 579.168 675.402C575.12 679.777 570.357 685.343 563.809 682.218C531.069 672.574 495.173 668.735 462.343 680.134C453.861 682.575 444.187 688.945 436.478 681.206C446.539 674.45 457.522 668.943 469.338 665.937Z"></path>
<path fill="#C16749" d="M298.909 675.521C313.702 687.486 329.388 698.38 346.74 706.387C338.614 710.792 331.173 716.328 324.596 722.787C311.559 709.899 302.808 693.38 298.909 675.521Z"></path>
<path fill="#D5987F" d="M650.929 755.824C660.335 734.543 670.663 713.678 680.545 692.635C677.687 702.368 675.515 712.309 673.014 722.161C674.89 724.78 676.795 727.4 678.729 730.019C670.098 739.276 660.722 747.818 650.929 755.824Z"></path>
<path fill="#C87252" d="M324.596 722.787C331.174 716.328 338.615 710.792 346.74 706.387C356.801 711.536 367.218 716.001 377.338 721.09C374.421 722.817 371.504 724.543 368.617 726.299C371.891 738.175 375.731 750.735 371.742 762.968C355.58 750.11 339.061 737.58 324.596 722.787Z"></path>
<path fill="#D18A67" d="M368.616 726.298C371.504 724.542 374.42 722.816 377.337 721.09C395.672 731.061 404.036 751.419 419.126 764.992C417.816 766.272 415.167 768.891 413.858 770.2C416.596 780.796 418.858 791.541 420.555 802.405C403.589 790.113 387.606 776.6 371.742 762.968C375.73 750.735 371.891 738.174 368.616 726.298Z"></path>
<path fill="#CEBFBC" d="M540.267 725.317C551.696 726.091 563.185 726.031 574.674 726.269C570.12 729.037 565.834 732.222 561.072 734.484C553.393 733.412 546.993 728.68 540.267 725.317Z"></path>
<path fill="#E3D7D4" d="M427.043 729.156C432.282 729.096 437.58 729.007 442.878 729.096C450.587 729.334 458.296 729.305 466.005 728.561C456.212 735.287 444.634 738.204 432.818 737.281C463.237 768.861 486.214 807.078 519.163 836.307C527.557 843.956 534.492 853.004 541.367 862.023C532.319 854.344 523.062 846.962 514.401 838.896C516.901 847.141 519.193 855.475 521.366 863.838C503.24 843.182 488.715 819.639 470.112 799.369C452.551 778.177 434.871 756.033 427.043 729.156Z"></path>
<path fill="#BB6B4E" d="M296.2 747.907C304.743 749.634 313.434 748.354 321.738 746.092C337.454 758.89 354.479 770.082 371.98 780.35C370.998 783.714 370.075 787.107 369.152 790.53C365.61 789.964 362.098 789.399 358.646 788.714C336.561 777.404 315.755 763.206 296.2 747.907Z"></path>
<path fill="#D5C1BF" d="M413.858 770.201C415.167 768.892 417.816 766.272 419.126 764.992C426.537 771.511 434.484 777.464 441.628 784.369C450.646 793.536 460.498 801.84 470.618 809.758C470.41 806.275 470.231 802.823 470.112 799.37C488.715 819.639 503.24 843.183 521.366 863.839C519.193 855.475 516.901 847.141 514.401 838.897C523.062 846.963 532.319 854.344 541.367 862.023C548.481 870.357 555.565 878.781 562.619 887.234C562.024 892.859 561.488 898.544 560.982 904.199C585.061 888.871 603.604 866.756 620.48 844.076C619.052 844.135 616.194 844.195 614.766 844.254C621.343 839.879 627.802 835.295 634.202 830.622C635.095 834.134 637.446 837.676 635.868 841.397C630.362 858.541 620.004 873.602 611.194 889.168C593.127 903.991 575.983 920.302 556.101 932.743C529.372 898.812 494.429 872.798 458.236 849.85C453.563 846.516 447.938 843.838 444.991 838.718C439.395 827.765 434.723 815.889 425.704 807.228C424.394 806.007 421.835 803.626 420.555 802.406C418.858 791.542 416.596 780.797 413.858 770.201Z"></path>
<path fill="#DEA788" d="M639.202 783.059C643.34 780.261 647.358 777.284 651.406 774.278C651.822 788.386 647.507 801.929 642.595 814.966C636.315 818.061 629.976 821.038 623.844 824.341C630.868 811.394 637.089 797.762 639.202 783.059Z"></path>
<path fill="#CA805B" d="M369.152 790.53C370.075 787.107 370.997 783.714 371.98 780.351C389.54 789.964 407.22 799.429 425.704 807.228C434.722 815.889 439.395 827.765 444.991 838.718C429.722 831.842 415.792 822.586 401.208 814.46C386.891 806.097 371.86 798.834 358.645 788.714C362.098 789.399 365.61 789.964 369.152 790.53Z"></path>
<path fill="#E6D1CA" d="M621.076 794.012C627.208 790.56 633.25 786.869 639.202 783.059C637.089 797.763 630.869 811.395 623.844 824.342C612.415 832.914 601.491 842.141 590.836 851.636C589.288 827.437 613.576 814.758 621.076 794.012Z"></path>
<path fill="#040302" d="M623.844 824.342C629.975 821.038 636.315 818.062 642.595 814.967C645.363 815.592 648.161 816.217 650.989 816.871C645.363 821.425 639.887 826.158 634.202 830.622C627.803 835.295 621.344 839.879 614.766 844.254C599.378 853.541 584.287 863.303 569.316 873.215C576.37 865.923 583.513 858.69 590.835 851.636C601.491 842.141 612.415 832.914 623.844 824.342Z"></path>
<path fill="#DB9067" d="M634.202 830.622C639.887 826.157 645.364 821.425 650.989 816.871C657.18 825.234 663.788 833.33 670.723 841.128C667.985 845.295 665.455 849.611 662.806 853.808C659.145 859.076 653.698 862.707 648.638 866.487C636.643 874.792 624.916 883.84 611.195 889.168C620.005 873.601 630.363 858.54 635.869 841.396C637.447 837.676 635.095 834.134 634.202 830.622Z"></path>
</svg>
