<svg xmlns="http://www.w3.org/2000/svg" fill="none" viewBox="0 0 1024 1024" height="1024" width="1024">
<rect fill="white" height="1024" width="1024"></rect>
<path fill="#ABADB4" d="M394.055 404.687C395.61 405.076 398.721 405.821 400.244 406.21C400.633 409.256 400.989 412.27 401.411 415.316C399.531 415.413 395.74 415.607 393.828 415.737C393.893 412.043 393.99 408.349 394.055 404.687Z"></path>
<path fill="#FDFDFD" d="M470.627 92.7282C492.273 77.6925 519.234 72.767 545.125 72.0541C570.238 71.6976 596.227 72.8642 619.655 82.8772C646.292 94.154 669.85 111.814 689.973 132.456C696.454 139.261 704.069 145.126 713.175 147.946C755.042 161.717 793.15 187.609 820.175 222.606C852.061 263.727 870.856 314.181 876.948 365.639C879.313 396.748 879.54 428.148 875.489 459.127C872.865 472.801 883.04 483.981 886.572 496.489C895.029 519.626 892.664 544.448 892.016 568.492C899.372 580.32 912.009 587.773 919.592 599.503C934.919 620.112 935.762 649.374 922.865 671.376C903.033 706.276 865.12 724.228 830.026 740.042C854.362 753.425 883.72 764.086 897.168 790.334C909.579 819.303 900.733 854.883 879.767 877.664C850.83 907.411 809.449 920.049 769.397 925.752C714.698 931.877 656.078 927.048 608.087 897.982C590.2 887.612 579.085 869.692 569.169 852.194C551.347 852.907 533.621 854.948 515.799 855.596C510.549 856.115 502.707 855.175 501.314 862.012C495.773 881.682 490.588 902.583 475.747 917.683C450.018 945.811 409.415 951.125 373.316 952C339.518 950.607 303.97 947.787 273.802 931.034C260.516 924.229 252.479 911.267 241.98 901.222C227.463 896.523 211.779 897.657 196.938 894.32C166.899 888.357 134.43 878.668 114.987 853.296C100.048 833.723 102.219 806.925 109.251 784.695C117.968 753.198 136.568 726.043 151.766 697.527C154.002 691.888 159.77 683.82 153.127 679.089C135.434 663.372 114.792 649.925 102.965 628.7C91.6231 610.521 85.9523 583.592 101.636 566.224C122.44 543.087 149.498 527.079 175.227 510.196C183.879 504.914 186.439 494.61 189.712 485.763C195.512 468.459 201.993 451.317 210.613 435.212C216.283 424.356 223.445 413.436 222.991 400.669C224.611 336.605 247.489 273.546 286.245 222.638C322.959 174.971 375.811 141.627 432.519 122.8C448.981 118.231 457.049 101.737 470.627 92.7282ZM478.112 135.761C472.96 141.303 471.275 151.154 462.688 152.385C435.954 159.255 409.803 168.911 386.083 183.137C336.861 211.945 298.397 258.218 278.209 311.491C262.071 352.062 258.345 396.262 258.312 439.522C256.336 442.762 253.808 445.581 251.378 448.498C244.281 454.817 239.129 462.885 234.106 470.857L234.722 473.255C225.713 487.221 226.296 504.072 223.801 519.723C216.024 530.611 205.234 540.527 193.633 547.267C169.362 548.984 148.104 562.951 132.55 581C124.222 590.235 131.578 602.646 136.568 611.622C153.289 636.704 178.662 654.461 205.136 668.104C185.305 712.984 157.307 754.689 144.864 802.582C139.776 816.873 143.017 835.505 157.566 842.861C190.943 861.17 230.347 861.85 267.45 861.591C268.941 866.322 270.529 871.021 272.117 875.752C285.791 901.838 317.418 909.258 344.152 913.633C376.816 915.577 413.044 918.72 441.787 899.893C464.794 883.302 469.104 852.323 468.909 825.914C511.716 824.909 555.818 821.604 596.065 805.92C597.458 806.309 600.278 807.119 601.671 807.54C601.088 827.923 606.629 850.217 623.22 863.471C645.287 880.71 673.382 887.612 700.667 891.047C740.784 893.899 782.586 892.862 819.883 876.141C839.942 867.748 859.644 852.518 864.375 830.191C864.958 820.275 867.777 807.119 857.797 800.833C840.201 787.125 819.073 779.186 799.728 768.396C776.72 756.503 758.477 737.741 739.293 720.729C763.888 716.775 789.682 716.03 812.398 704.721C826.688 702.55 839.294 694.578 851.931 688C870.823 677.144 891.692 663.081 896.261 640.171C894.349 615.641 871.18 601.642 852.061 590.462C849.436 589.134 846.844 587.837 844.251 586.574C855.366 562.4 859.32 533.819 849.177 508.673C848.626 493.346 830.188 482.911 835.762 466.871C853.616 385.082 832.748 293.896 774.873 232.262C749.792 206.598 717.647 188.905 683.914 177.401C674.614 174.679 669.105 166.319 662.527 159.903C649.954 147.427 635.858 136.539 620.952 126.98C609.902 120.078 598.268 112.689 584.756 112.754C587.316 118.133 590.038 123.448 592.824 128.762C574.743 120.434 555.818 112.041 535.436 112.981C514.243 111.555 492.144 119.624 478.112 135.761Z"></path>
<path fill="#2F3625" d="M478.112 135.761C492.143 119.624 514.243 111.555 535.436 112.981C555.818 112.041 574.743 120.434 592.824 128.762C590.038 123.448 587.316 118.133 584.756 112.754C598.268 112.689 609.902 120.078 620.952 126.98C635.858 136.539 649.954 147.427 662.527 159.903C669.105 166.319 674.614 174.679 683.914 177.401C717.647 188.905 749.792 206.598 774.873 232.262C832.748 293.896 853.616 385.082 835.761 466.871C830.188 482.911 848.626 493.346 849.177 508.673C848.172 512.853 847.168 517.033 846.196 521.214C842.178 506.858 833.72 494.35 828.373 480.578C827.92 462.399 833.752 444.674 834.076 426.495C835.178 380.448 827.369 333.364 805.82 292.243C790.654 261.75 769.138 233.882 740.784 214.537C713.758 195.029 681.969 184.174 650.991 172.703C649.176 171.212 647.361 169.689 645.579 168.166C651.347 168.587 657.115 169.041 662.883 169.462C645.061 150.246 623.512 134.692 600.018 123.124C604.555 131.614 609.318 140.071 612.364 149.274C581.548 129.119 542.079 109.741 505.332 125.684C501.865 127.012 498.462 128.568 495.092 130.123C515.053 134.109 535.371 138.645 552.481 150.344C533.459 149.793 514.341 149.047 495.578 152.741C449.078 159.676 403.323 176.105 366.057 205.237C318.973 241.498 286.796 295.646 274.774 353.617C269.362 382.263 266.575 411.557 268.973 440.688C268.487 447.007 268.001 453.359 267.515 459.71C262.525 463.793 257.502 467.876 252.933 472.445C253.775 464.441 252.901 456.372 251.378 448.498C253.808 445.581 256.335 442.762 258.312 439.522C258.345 396.262 262.071 352.062 278.209 311.491C298.397 258.218 336.861 211.945 386.083 183.137C409.803 168.911 435.954 159.255 462.688 152.385C471.275 151.154 472.96 141.303 478.112 135.761ZM474.969 148.108C488.125 148.14 501.217 146.034 513.887 142.599C500.957 138.451 485.306 137.835 474.969 148.108Z"></path>
<path fill="#B9D599" d="M505.332 125.684C542.079 109.741 581.548 129.118 612.364 149.274C593.31 146.617 577.756 133.752 558.962 130.253C541.334 126.785 523.252 126.461 505.332 125.684Z"></path>
<path fill="#94B36F" d="M495.092 130.123C498.462 128.568 501.865 127.012 505.332 125.684C523.252 126.461 541.334 126.785 558.962 130.253C577.756 133.752 593.311 146.617 612.364 149.274C609.318 140.071 604.555 131.614 600.018 123.124C623.512 134.692 645.061 150.246 662.883 169.462C657.115 169.041 651.347 168.587 645.579 168.166C647.361 169.689 649.176 171.212 650.991 172.703C657.148 178.276 664.05 182.975 671.6 186.442C697.362 198.464 723.512 210.778 745.288 229.378C765.735 246.974 783.493 267.972 796.066 291.951C793.279 299.469 792.469 308.705 786.15 314.311C776.72 320.403 765.379 322.152 754.783 325.198C760.356 330.837 765.962 336.475 771.309 342.373C769.753 342.341 766.707 342.276 765.152 342.276C754.847 338.452 744.316 333.526 733.071 334.563C717.712 336.119 703.486 343.248 691.075 352.159C694.218 342.34 696.811 332.392 699.533 322.477C666.318 355.691 659.448 404.979 661.328 449.859C642.468 444.512 622.442 442.049 603.194 446.975C623.998 449.276 645.838 449.016 664.763 459.256C678.923 467.228 694.542 472.348 710.939 472.186C719.04 472.704 727.174 472.445 735.275 472.38C756.694 471.926 778.243 472.412 799.339 476.625C799.598 475.523 800.084 473.255 800.311 472.121C807.343 438.128 819.592 405.108 822.314 370.338C826.072 395.322 826.235 420.76 823.675 445.873C822.378 460.844 819.883 476.333 824.614 490.98C829.281 505.821 835.211 520.695 835.016 536.541C835.664 557.215 827.758 577.274 815.541 593.67C807.634 595.582 799.922 598.434 792.955 602.679C746.066 630.936 692.825 645.42 642.371 665.706C625.553 670.177 609.416 676.691 592.695 681.325C579.085 685.246 564.957 682.167 551.573 678.959C558.152 676.982 564.762 675.103 571.34 672.997C579.895 670.502 587.381 665.511 594.574 660.359C592.792 660.326 589.292 660.262 587.51 660.229C590.427 657.766 593.278 655.239 596.13 652.744C594.056 649.147 591.982 645.55 589.94 641.953C610.129 628.376 627.303 610.65 641.885 591.272C650.829 579.445 658.12 566.159 669.396 556.308C672.896 554.169 676.525 552.225 680.058 550.119C684.141 551.318 688.256 555.725 692.663 554.331C700.343 547.105 705.236 537.546 711.684 529.315C712.981 529.218 715.508 529.023 716.772 528.926C706.694 515.802 695.839 503.1 682.229 493.508C686.798 503.91 701.445 515.51 691.399 526.852C677.562 534.986 664.244 545.323 648.171 548.401C623.479 551.739 598.884 545.388 575.261 538.874C575.261 534.013 575.261 529.12 575.261 524.26C578.21 522.996 581.191 521.765 584.172 520.566C597.491 515.284 612.04 510.941 622.215 500.313C630.673 491.758 631.807 474.292 620.109 467.941C606.532 459.353 589.778 459.418 574.289 459.094C555.041 459.386 534.367 459.807 517.484 470.241C507.147 476.463 507.406 493.216 516.512 500.41C529.052 511.298 545.579 515.413 560.874 520.857C562.753 521.991 566.544 524.292 568.424 525.426C545.093 543.54 514.308 554.623 484.755 548.109C466.414 543.8 447.976 533.981 439 516.709C445.708 513.275 452.351 509.645 458.832 505.757C433.686 513.566 409.415 524.098 386.278 536.606C399.564 533.527 412.428 529.056 425.358 524.778C428.825 532.199 432.163 539.652 435.403 547.137C433.329 555.822 432.843 565.089 437.121 573.255C448.916 599.374 463.595 625.783 487.024 643.217C498.916 651.545 512.234 657.604 525.455 663.47C520.984 663.47 516.479 663.567 512.007 663.729C520.4 667.715 528.955 671.376 537.802 674.293C541.334 675.524 544.866 676.82 548.43 678.117C510.809 686.218 473.932 672.64 438.158 662.789C402.642 652.517 365.895 645.453 332.454 629.024C318.325 622.381 304.456 612.724 288.06 614.118C280.412 607.799 273.413 600.734 266.997 593.152C263.043 576.01 252.609 561.201 248.85 543.994C243.374 521.116 247.748 497.202 241.915 474.389C243.406 472.186 244.897 469.982 246.42 467.779C246.873 472.412 247.327 477.046 247.813 481.68C249.498 478.602 251.216 475.523 252.933 472.445C257.502 467.876 262.525 463.793 267.515 459.71C268.001 453.359 268.487 447.007 268.973 440.688C279.181 419.172 277.885 394.933 282.745 372.12C289.259 336.961 300.924 302.71 318.909 271.731C343.018 226.138 387.542 194.738 434.625 176.17C457.827 166.578 482.357 161.199 506.531 154.653C503.777 154.167 498.3 153.227 495.578 152.741C514.341 149.047 533.459 149.793 552.481 150.343C535.371 138.645 515.054 134.109 495.092 130.123ZM364.146 254.654C375.941 245.969 387.023 235.438 401.346 231.063C412.882 227.564 424.936 230.253 436.343 233.008C430.802 227.077 424.353 220.694 415.572 221.18C393.763 221.666 375.098 236.669 364.146 254.654ZM360.387 290.947C372.538 283.397 382.843 272.314 397.036 268.458C409.739 264.116 422.863 269.139 435.63 270.402C430.38 264.083 424.515 256.728 415.572 256.306C392.013 253.682 369.816 270.078 360.387 290.947ZM706.532 275.782C718.619 275.911 731.419 274.809 742.534 280.642C757.245 286.799 765.8 300.927 777.855 310.616C775.327 278.957 732.359 252.094 706.532 275.782ZM382.033 337.869C370.432 342.827 361.974 352.451 353.873 361.751C348.04 370.532 336.472 365.445 327.852 366.061C334.009 370.338 340.199 374.583 346.323 378.925C339.226 384.758 330.25 386.184 321.339 386.605C328.274 387.934 335.208 389.1 342.175 390.299C340.49 407.117 339.356 424.421 345.675 440.526C345.675 446.132 346.323 451.706 346.744 457.312C342.305 459.159 337.865 461.103 333.491 463.112C353.646 465.348 373.802 468.038 394.055 469.431C408.929 469.172 423.867 468.135 438.482 465.057C456.174 463.112 472.798 456.469 489.746 451.479C512.202 446.651 535.047 441.66 558.152 444.026C537.315 440.008 516.058 442.211 495.287 445.484C479.765 448.239 465.637 455.594 450.698 460.326C461.359 442.309 466.738 421.246 464.049 400.345C461.878 380.546 457.438 358.834 441.398 345.387C425.941 330.221 400.989 328.86 382.033 337.869ZM300.017 492.73C283.167 496.683 264.761 508.187 263.4 527.111C261.779 538.583 270.82 548.109 281.19 551.155C306.887 559.97 336.634 556.599 359.9 542.633C368.941 536.8 378.922 528.764 379.505 517.163C379.829 509.451 372.765 504.428 366.965 500.766C346.939 489.198 322.246 487.545 300.017 492.73ZM743.927 499.049C733.752 501.188 722.216 506.34 720.207 517.811C715.865 528.732 727.336 536.152 735.599 540.397C757.602 550.961 784.433 554.752 807.699 546.262C821.601 540.592 818.717 520.825 808.671 512.821C791.076 497.98 766.027 493.313 743.927 499.049Z"></path>
<path fill="#819E60" d="M474.969 148.107C485.306 137.835 500.957 138.451 513.887 142.599C501.217 146.034 488.125 148.14 474.969 148.107Z"></path>
<path fill="#C8DFAC" d="M366.057 205.237C403.322 176.105 449.078 159.676 495.578 152.741C498.3 153.227 503.777 154.167 506.531 154.653C482.357 161.199 457.827 166.578 434.625 176.17C387.541 194.738 343.018 226.138 318.909 271.731C300.924 302.71 289.258 336.961 282.745 372.12C277.884 394.933 279.181 419.172 268.973 440.688C266.575 411.557 269.362 382.263 274.774 353.617C286.796 295.646 318.973 241.497 366.057 205.237Z"></path>
<path fill="#D2DDBA" d="M671.6 186.442C664.05 182.975 657.147 178.276 650.991 172.703C681.969 184.174 713.758 195.029 740.784 214.537C769.138 233.882 790.654 261.75 805.82 292.243C827.369 333.364 835.178 380.448 834.076 426.495C833.752 444.674 827.92 462.399 828.373 480.578C833.72 494.35 842.178 506.858 846.196 521.214C849.209 542.568 846.941 565.381 835.697 584.176C826.267 599.892 812.236 612.076 797.459 622.607C802.45 612.335 808.995 602.97 815.541 593.67C827.757 577.274 835.664 557.215 835.016 536.541C835.211 520.695 829.281 505.821 824.614 490.98C819.883 476.333 822.378 460.844 823.674 445.873C826.234 420.759 826.072 395.322 822.313 370.338C819.17 342.664 809.773 316.093 796.066 291.951C783.493 267.972 765.735 246.974 745.288 229.378C723.512 210.778 697.361 198.464 671.6 186.442Z"></path>
<path fill="#211716" d="M364.146 254.654C375.098 236.669 393.763 221.666 415.572 221.18C424.353 220.694 430.802 227.077 436.343 233.007C424.936 230.253 412.882 227.563 401.346 231.063C387.023 235.438 375.941 245.969 364.146 254.654Z"></path>
<path fill="#100F0C" d="M360.386 290.947C369.816 270.078 392.013 253.682 415.571 256.306C424.515 256.728 430.38 264.083 435.63 270.402C422.862 269.139 409.738 264.116 397.036 268.458C382.843 272.314 372.538 283.397 360.386 290.947Z"></path>
<path fill="#13140E" d="M706.532 275.782C732.358 252.094 775.327 278.957 777.854 310.616C765.8 300.927 757.245 286.799 742.533 280.642C731.418 274.809 718.619 275.911 706.532 275.782Z"></path>
<path fill="#8EAC69" d="M786.15 314.311C792.469 308.705 793.279 299.469 796.066 291.951C809.773 316.093 819.17 342.665 822.313 370.338C819.591 405.108 807.343 438.128 800.311 472.121C792.242 470.922 784.173 469.69 776.105 468.459C780.317 459.191 784.821 449.956 787.446 440.105C794.899 420.792 790.33 399.761 795.774 380.157C793.084 376.981 790.363 373.773 787.705 370.565C792.08 363.501 796.714 356.599 801.672 349.923C796.357 353.941 791.043 358.089 785.048 361.038C777.757 355.529 771.665 348.627 765.152 342.276C766.707 342.276 769.753 342.34 771.309 342.373C765.962 336.475 760.356 330.837 754.782 325.198C765.379 322.152 776.72 320.403 786.15 314.311Z"></path>
<path fill="#C8DDAC" d="M661.327 449.859C659.448 404.978 666.318 355.691 699.533 322.476C696.811 332.392 694.218 342.34 691.075 352.159C681.872 368.037 673.22 384.628 669.98 402.937C666.966 416.774 665.411 431.258 668.554 445.225C668.878 446.877 669.461 450.215 669.753 451.868C667.646 451.349 663.434 450.377 661.327 449.859Z"></path>
<path fill="#0A0A0A" d="M382.033 337.869C400.989 328.86 425.941 330.221 441.398 345.387C457.438 358.834 461.878 380.545 464.049 400.345C466.738 421.246 461.359 442.309 450.698 460.326C465.636 455.594 479.765 448.239 495.287 445.484C516.058 442.211 537.315 440.008 558.151 444.026C535.047 441.66 512.202 446.651 489.745 451.479C472.798 456.469 456.174 463.112 438.481 465.057C436.958 465.219 433.945 465.51 432.454 465.672C433.945 462.95 435.5 460.293 436.958 457.539C456.887 454.817 457.892 430.675 455.235 415.056C452.707 418.848 450.212 422.639 447.911 426.56C446.842 422.056 445.578 417.616 444.411 413.177C443.374 409.126 442.467 405.043 441.495 400.993C444.023 393.669 446.615 386.378 449.24 379.087C450.633 380.254 453.42 382.555 454.813 383.721C449.272 370.241 443.245 354.913 429.084 348.4C413.854 340.267 395.286 344.285 381.417 353.261C364.599 363.306 354.554 381.68 350.406 400.377C347.813 413.598 346.42 427.046 345.675 440.526C339.356 424.421 340.49 407.117 342.175 390.299C335.208 389.1 328.274 387.934 321.339 386.605C330.25 386.184 339.226 384.758 346.323 378.925C340.198 374.583 334.009 370.338 327.852 366.061C336.472 365.445 348.04 370.532 353.873 361.751C361.974 352.451 370.432 342.827 382.033 337.869Z"></path>
<path fill="black" d="M691.075 352.159C703.486 343.248 717.712 336.119 733.071 334.563C744.316 333.526 754.847 338.452 765.152 342.276C771.665 348.627 777.757 355.529 785.048 361.038C791.043 358.089 796.357 353.941 801.672 349.923C796.714 356.598 792.08 363.501 787.705 370.565C790.363 373.773 793.085 376.981 795.774 380.157C790.33 399.761 794.899 420.792 787.446 440.105C787.349 425.458 787.414 410.487 782.553 396.521C777.498 377.402 765.184 358.899 745.644 352.516C723.544 344.123 696.487 353.909 686.506 375.782C681.872 385.244 672.702 402.483 686.344 408.251C698.269 410.746 711.36 404.557 719.137 395.646C725.424 388.938 718.165 380.545 714.471 374.486C709.546 372.25 704.491 370.273 699.5 368.232C714.439 362.107 731.451 362.917 744.899 372.282C766.513 385.503 770.661 413.955 765.93 436.962C763.758 420.371 760.777 403.196 750.537 389.457C749.695 405.141 750.537 421.246 745.709 436.411C741.918 448.303 737.9 460.163 735.275 472.38C727.174 472.445 719.04 472.704 710.939 472.186C702.384 469.755 690.589 469.431 686.798 459.807C678.34 441.887 672.54 422.607 669.98 402.937C673.22 384.628 681.872 368.037 691.075 352.159ZM718.619 402.062C718.23 407.668 717.971 413.242 717.841 418.848C728.275 427.208 742.307 412.302 736.182 401.544C730.317 401.479 724.484 401.641 718.619 402.062Z"></path>
<path fill="black" d="M413.919 365.348C420.011 366.061 426.103 366.676 432.195 367.584C438.546 370.306 443.958 374.713 449.24 379.087C446.615 386.378 444.023 393.669 441.495 400.993C435.241 402.127 426.621 399.891 423.316 406.987C422.733 412.691 427.269 415.964 431.644 418.491C436.051 417.065 440.231 415.089 444.411 413.177C445.578 417.616 446.842 422.056 447.911 426.56C444.93 437.124 441.592 447.59 436.958 457.539C435.5 460.293 433.945 462.95 432.454 465.672C433.945 465.51 436.958 465.218 438.481 465.056C423.867 468.135 408.928 469.172 394.055 469.431C386.472 445.776 379.894 421.246 383.361 396.132C396.323 398.627 408.572 394.253 417.613 384.79C416.382 378.277 415.15 371.796 413.919 365.348ZM394.055 404.687C393.99 408.349 393.893 412.043 393.828 415.737C395.74 415.607 399.531 415.413 401.411 415.315C400.989 412.269 400.633 409.256 400.244 406.21C398.721 405.821 395.61 405.076 394.055 404.687Z"></path>
<path fill="#FDFCFC" d="M392.078 373.838C398.624 364.635 416.867 368.426 414.307 381.258C409.836 391.531 398.235 394.868 387.93 392.47C387.898 386.119 385.5 377.921 392.078 373.838Z"></path>
<path fill="#F9F9FB" d="M381.417 353.261C395.286 344.285 413.854 340.267 429.084 348.4C443.245 354.914 449.272 370.241 454.813 383.721C453.42 382.555 450.633 380.254 449.24 379.087C443.958 374.713 438.546 370.306 432.195 367.584C419.492 361.232 403.679 362.723 392.596 371.667C366.219 392.665 363.886 434.888 381.709 462.075C372.992 460.682 364.242 459.386 355.526 457.83C351.345 439.036 347.619 419.658 350.406 400.377C354.553 381.68 364.599 363.306 381.417 353.261Z"></path>
<path fill="#F1F2F2" d="M686.506 375.782C696.486 353.909 723.544 344.123 745.644 352.515C765.184 358.899 777.498 377.402 782.553 396.521C784.53 418.329 783.136 441.887 770.693 460.682C766.837 467.422 757.699 465.251 751.283 466.936C756.176 456.955 762.689 447.688 765.929 436.962C770.66 413.955 766.513 385.503 744.899 372.282C731.451 362.917 714.439 362.107 699.5 368.232C704.49 370.273 709.545 372.25 714.471 374.486C705.171 375.328 695.838 375.879 686.506 375.782Z"></path>
<path fill="#3E3A3A" d="M392.597 371.667C403.679 362.723 419.492 361.232 432.195 367.584C426.103 366.676 420.011 366.061 413.919 365.348C415.15 371.796 416.381 378.277 417.613 384.79C408.572 394.253 396.323 398.627 383.361 396.132C379.894 421.246 386.472 445.776 394.055 469.431C373.802 468.038 353.646 465.348 333.491 463.112C337.865 461.103 342.305 459.159 346.744 457.312C346.323 451.706 345.675 446.132 345.675 440.526C346.42 427.046 347.813 413.598 350.406 400.377C347.619 419.658 351.346 439.036 355.526 457.83C364.243 459.386 372.992 460.682 381.709 462.075C363.886 434.888 366.219 392.665 392.597 371.667ZM392.078 373.838C385.5 377.921 387.898 386.119 387.93 392.47C398.235 394.868 409.836 391.531 414.308 381.258C416.868 368.426 398.624 364.635 392.078 373.838Z"></path>
<path fill="#F8F8F9" d="M686.344 408.251C672.702 402.483 681.872 385.244 686.506 375.782C695.839 375.879 705.171 375.328 714.471 374.486C718.165 380.545 725.424 388.938 719.138 395.646C711.36 404.557 698.269 410.746 686.344 408.251Z"></path>
<path fill="#353437" d="M750.537 389.457C760.777 403.196 763.758 420.371 765.929 436.962C762.689 447.688 756.176 456.955 751.283 466.936C757.699 465.251 766.837 467.422 770.693 460.682C783.136 441.887 784.53 418.329 782.553 396.521C787.414 410.487 787.349 425.458 787.446 440.105C784.821 449.956 780.317 459.191 776.104 468.459C784.173 469.69 792.242 470.922 800.311 472.121C800.084 473.255 799.598 475.523 799.339 476.625C778.243 472.412 756.694 471.926 735.275 472.38C737.9 460.163 741.918 448.303 745.709 436.411C750.537 421.246 749.695 405.141 750.537 389.457Z"></path>
<path fill="#FAF8F9" d="M423.316 406.988C426.621 399.891 435.241 402.127 441.495 400.993C442.467 405.043 443.375 409.126 444.411 413.177C440.231 415.089 436.051 417.065 431.644 418.491C427.269 415.964 422.733 412.691 423.316 406.988Z"></path>
<path fill="#F2F2F1" d="M718.619 402.062C724.484 401.641 730.317 401.479 736.182 401.544C742.307 412.302 728.275 427.208 717.841 418.848C717.971 413.242 718.23 407.668 718.619 402.062Z"></path>
<path fill="#2F2B2F" d="M668.554 445.225C665.411 431.259 666.966 416.774 669.98 402.937C672.539 422.607 678.34 441.887 686.798 459.807C690.589 469.431 702.384 469.755 710.939 472.186C694.542 472.348 678.923 467.228 664.762 459.256C666.771 457.15 668.781 455.011 670.79 452.872C670.239 450.961 669.137 447.137 668.554 445.225Z"></path>
<path fill="#3D3B41" d="M447.911 426.56C450.212 422.639 452.707 418.848 455.235 415.056C457.892 430.675 456.887 454.817 436.958 457.539C441.592 447.591 444.93 437.124 447.911 426.56Z"></path>
<path fill="#E0B279" d="M141.883 580.384C153.645 569.237 167.191 558.122 183.911 556.243C180.736 561.298 176.426 565.608 171.695 569.205C159.77 578.408 147.975 587.773 135.304 595.939C136.309 590.333 137.216 584.241 141.883 580.384Z"></path>
<path fill="#362B29" d="M603.194 446.975C622.442 442.049 642.468 444.512 661.327 449.859C663.434 450.377 667.646 451.349 669.753 451.868C669.461 450.215 668.878 446.878 668.554 445.225C669.137 447.137 670.239 450.961 670.79 452.872C668.78 455.011 666.771 457.15 664.762 459.256C645.838 449.016 623.997 449.276 603.194 446.975Z"></path>
<path fill="#657052" d="M234.106 470.857C239.129 462.885 244.281 454.817 251.378 448.498C252.901 456.372 253.775 464.441 252.933 472.445C251.215 475.523 249.498 478.602 247.813 481.68C247.327 477.046 246.873 472.412 246.42 467.779C244.897 469.982 243.406 472.186 241.915 474.389C240.684 476.236 238.189 479.963 236.958 481.842C236.407 479.671 235.272 475.394 234.722 473.255L234.106 470.857Z"></path>
<path fill="#1F201D" d="M517.484 470.241C534.366 459.807 555.041 459.386 574.289 459.094C589.778 459.418 606.531 459.353 620.109 467.941C631.807 474.292 630.673 491.758 622.215 500.313C612.04 510.941 597.491 515.284 584.172 520.566C576.395 521.019 568.618 521.116 560.873 520.857C545.578 515.413 529.052 511.298 516.512 500.41C507.406 493.216 507.147 476.463 517.484 470.241ZM518.326 479.444C535.857 481.421 553.453 479.833 571.048 479.801C587.607 479.509 604.004 484.661 620.595 481.713C613.984 469.982 598.981 469.95 587.315 467.649C564.146 465.834 538.158 465.478 518.326 479.444ZM552.481 494.415C565.28 503.78 582.228 499.989 594.574 491.888C580.543 489.36 565.864 488.809 552.481 494.415Z"></path>
<path fill="#8DA481" d="M518.326 479.444C538.158 465.478 564.146 465.834 587.316 467.649C598.981 469.95 613.985 469.982 620.595 481.712C604.004 484.661 587.607 479.509 571.048 479.801C553.453 479.833 535.857 481.421 518.326 479.444Z"></path>
<path fill="#242317" d="M223.801 519.723C226.296 504.072 225.713 487.221 234.722 473.255C235.272 475.394 236.407 479.671 236.957 481.842C223.607 521.181 239.647 563.988 266.996 593.152C273.413 600.734 280.412 607.799 288.059 614.117C320.982 641.564 362.46 655.271 402.156 669.691C433.005 679.478 463.66 690.43 495.513 696.457C519.039 701.286 543.343 701.351 567.03 697.786C596.778 693.736 623.836 679.445 653.421 674.52C703.745 665.641 755.398 652.971 797.459 622.607C812.236 612.076 826.267 599.892 835.697 584.176C846.941 565.381 849.209 542.568 846.196 521.214C847.168 517.033 848.172 512.853 849.177 508.673C859.32 533.819 855.366 562.4 844.251 586.574C846.844 587.837 849.436 589.134 852.061 590.462C850.7 593.022 849.404 595.647 848.172 598.272C847.2 602.711 846.293 607.151 845.45 611.622C844.964 604.817 844.089 598.077 843.344 591.337C842.566 592.18 841.076 593.8 840.33 594.642C825.327 607.928 811.296 622.543 794.446 633.56C769.332 650.054 741.335 661.59 712.721 670.437C696.033 671.344 680.09 676.302 664.114 680.774C649.694 683.56 635.048 684.727 620.563 687.093C620.498 693.606 620.465 700.152 620.465 706.697C637.705 710.359 655.203 712.822 672.799 713.729C673.317 711.752 674.419 707.799 674.97 705.822C675.456 703.846 676.493 699.892 677.011 697.916C678.599 703.295 680.414 708.609 682.196 713.924C702.935 715.123 723.739 714.701 744.381 712.595C745.093 708.253 745.806 703.878 746.519 699.536C748.723 703.392 750.926 707.248 753.292 711.04C769.3 710.1 784.886 705.92 800.538 702.55C804.459 703.262 808.412 703.975 812.398 704.721C789.682 716.03 763.888 716.775 739.293 720.729C758.477 737.741 776.72 756.503 799.727 768.396C819.073 779.186 840.201 787.125 857.797 800.833C867.777 807.119 864.958 820.275 864.375 830.191C859.644 852.518 839.942 867.748 819.883 876.141C782.586 892.862 740.784 893.899 700.667 891.047C673.382 887.612 645.287 880.71 623.22 863.471C606.629 850.217 601.088 827.923 601.671 807.54C600.277 807.119 597.458 806.309 596.065 805.92C594.671 805.499 591.885 804.656 590.459 804.235C602.287 800.541 603.68 788.746 604.166 778.02C604.296 776.4 604.555 773.127 604.684 771.474C605.3 761.137 605.819 750.768 606.305 740.398C582.649 744.254 559.091 749.439 534.982 749.439C559.448 746.231 584.01 743.509 608.119 738.033C608.865 731.552 609.804 725.136 610.452 718.687C611.392 710.003 612.008 701.318 612.591 692.666C578.242 706.114 541.204 709.581 504.652 706.697C500.569 712.854 496.291 718.881 492.241 725.071C491.787 723.71 490.88 720.955 490.426 719.594C492.5 714.798 494.639 710.003 496.777 705.272C481.288 701.286 465.766 697.268 450.504 692.537C437.898 688.551 424.612 684.792 411.326 687.514C391.884 691.078 372.344 694.254 352.804 697.3C344.476 697.981 338.287 703.781 333.653 710.229C330.704 714.28 327.917 718.493 325.065 722.64C294.411 763.373 270.334 813.859 275.649 866.031C274.774 868.461 272.991 873.322 272.116 875.752C270.529 871.021 268.941 866.322 267.45 861.591C230.347 861.85 190.943 861.17 157.566 842.861C143.017 835.505 139.776 816.873 144.864 802.582C157.307 754.688 185.305 712.984 205.136 668.103C178.662 654.461 153.289 636.703 136.568 611.622C131.578 602.646 124.222 590.235 132.55 581C148.104 562.951 169.362 548.984 193.633 547.267C205.233 540.527 216.024 530.611 223.801 519.723ZM197.942 555.595C190.068 563.566 179.731 570.825 178.694 582.977C210.904 614.798 255.655 630.514 299.66 637.028C288.902 625.816 275.486 617.585 264.696 606.438C247.845 588.226 235.434 566.094 228.273 542.374C227.139 538.518 225.972 534.661 224.806 530.838C215.441 538.615 206.594 547.04 197.942 555.595ZM141.882 580.384C137.216 584.241 136.309 590.333 135.304 595.939C146.387 616.353 162.233 634.208 182.323 646.133C190.1 635.213 197.975 624.357 206.303 613.826C195.123 605.433 182.583 598.174 173.995 586.833C169.783 581.907 171.597 575.07 171.695 569.205C176.426 565.608 180.736 561.298 183.911 556.243C167.19 558.122 153.645 569.237 141.882 580.384ZM189.29 650.605C204.78 662.595 222.894 670.275 241.04 677.274C247.392 665.187 250.47 650.087 262.752 642.309C257.534 654.591 251.442 666.58 247.813 679.51C273.769 687.417 300.859 691.856 328.047 691.37C338.319 690.981 349.304 692.018 358.863 687.384C359.9 679.38 358.993 671.344 358.313 663.372L354.748 663.243C340.166 653.489 322.57 650.637 306.109 645.647C295.545 642.471 284.657 640.754 273.639 640.43C252.512 633.269 231.74 625.167 211.196 616.451C200.146 624.617 195.933 638.972 189.29 650.605ZM364.016 665.77C364.34 673.126 364.664 680.482 364.956 687.838C378.954 686.282 392.953 684.241 406.66 680.936C393.439 673.353 378.63 669.497 364.016 665.77ZM205.169 687.125C197.554 698.272 188.772 709.614 186.536 723.321C177.949 736.769 171.792 751.578 165.376 766.16C156.659 786.218 148.104 807.54 151.539 829.899C154.52 832.038 157.469 834.177 160.483 836.316C170.366 841.338 180.574 845.778 191.137 849.277C195.318 849.666 199.498 850.12 203.678 850.606C215.344 853.62 227.56 854.171 239.517 852.712C240.295 853.652 241.883 855.531 242.693 856.471C249.628 855.564 256.595 854.851 263.562 854.138C264.21 822.446 274.288 792.051 286.99 763.308C273.218 758.091 259.965 751.675 247.327 744.092C235.758 733.269 227.949 719.562 221.144 705.434C221.144 693.736 219.265 682.037 214.307 671.344C211.196 676.269 204.132 680.839 205.169 687.125ZM224.773 679.478C225.908 688.227 227.463 696.911 229.926 705.369C238.254 732.135 265.117 748.791 291.721 752.906C302.253 742.99 308.183 729.348 316.738 717.845C321.857 711.882 326.751 705.758 331.482 699.471C294.962 699.957 258.539 693.606 224.773 679.478ZM619.04 712.336C614.211 741.014 611.392 770.016 609.48 799.05C608.735 820.535 611.554 846.037 630.543 859.55C653.907 875.493 682.455 881.779 710.259 884.307C740.913 885.797 772.573 885.862 801.834 875.428C810.745 871.669 819.689 867.975 828.568 864.086C830.609 861.559 832.683 859.031 834.757 856.504L837.414 858.059C843.052 852.971 848.658 847.657 852.385 840.917C845.061 835.344 835.567 832.686 829.313 825.849C827.822 819.66 829.734 813.341 830.512 807.184C837.446 806.957 844.381 806.698 851.348 806.471C850.246 805.013 848.043 802.161 846.941 800.703L844.381 800.833C820.402 784.241 791.886 775.006 769.235 756.244C759.902 749.633 752.644 739.653 742.047 735.149C740.654 732.556 739.293 729.996 737.9 727.436C736.474 726.043 733.59 723.256 732.164 721.863C694.283 723.191 655.884 722.057 619.04 712.336ZM832.003 811.753C827.693 826.141 845.321 830.58 854.232 837.223C857.148 830.224 859.482 822.673 857.472 815.123C850.473 809.549 840.136 807.702 832.003 811.753Z"></path>
<path fill="#BAD99C" d="M241.915 474.389C247.748 497.202 243.373 521.116 248.85 543.994C252.609 561.201 263.043 576.01 266.996 593.152C239.647 563.988 223.607 521.181 236.957 481.842C238.189 479.963 240.684 476.236 241.915 474.389Z"></path>
<path fill="#BA827C" d="M300.017 492.73C322.246 487.545 346.939 489.198 366.965 500.766C372.765 504.428 379.829 509.451 379.505 517.163C378.922 528.764 368.941 536.8 359.9 542.633C336.634 556.599 306.887 559.969 281.19 551.155C270.82 548.109 261.779 538.582 263.4 527.111C264.761 508.187 283.166 496.683 300.017 492.73Z"></path>
<path fill="#42463F" d="M552.481 494.415C565.864 488.809 580.543 489.36 594.574 491.887C582.228 499.989 565.281 503.78 552.481 494.415Z"></path>
<path fill="#393F2A" d="M682.229 493.508C695.839 503.1 706.694 515.802 716.772 528.926C715.508 529.023 712.981 529.218 711.684 529.315C708.638 527.209 705.625 525.07 702.643 522.899C695.806 532.523 688.936 542.244 680.057 550.119C676.525 552.225 672.896 554.169 669.396 556.308C667.517 555.465 663.726 553.845 661.814 553.003C673.155 546.198 683.752 537.805 691.399 526.852C701.444 515.511 686.798 503.91 682.229 493.508Z"></path>
<path fill="#BA7D77" d="M743.927 499.049C766.027 493.313 791.075 497.98 808.671 512.821C818.716 520.825 821.601 540.592 807.699 546.262C784.433 554.752 757.601 550.961 735.599 540.397C727.336 536.152 715.864 528.731 720.207 517.811C722.216 506.34 733.752 501.188 743.927 499.049Z"></path>
<path fill="#170A06" d="M386.278 536.606C409.414 524.098 433.685 513.566 458.831 505.757C452.35 509.645 445.708 513.275 439 516.709C435.857 518.265 432.713 519.82 429.602 521.376C439.486 541.888 458.281 557.896 480.964 562.011C510.744 567.423 544.898 563.89 568.197 542.795C578.534 555.044 594.347 560.294 609.901 561.363C627.53 563.048 645.968 561.428 661.814 553.003C663.725 553.845 667.517 555.465 669.396 556.308C658.119 566.159 650.828 579.445 641.885 591.272C627.303 610.65 610.128 628.376 589.94 641.953C573.155 651.642 553.258 658.253 533.816 653.813C512.882 648.596 494.25 636.282 479.181 621.085L481.871 619.853C500.309 631.033 517.905 645.615 539.908 648.758C558.605 651.642 576.298 642.731 591.658 633.139C601.185 626.691 608.476 617.65 615.216 608.447C591.269 585.764 559.48 569.075 525.617 572.283C502.091 575.005 475.39 574.616 456.66 591.37C448.754 577.047 442.24 562.011 435.403 547.137C432.162 539.652 428.825 532.199 425.357 524.778C412.428 529.056 399.563 533.527 386.278 536.606Z"></path>
<path fill="#78985F" d="M429.602 521.376C432.713 519.82 435.856 518.265 439 516.709C447.976 533.981 466.414 543.8 484.755 548.109C514.308 554.623 545.092 543.54 568.424 525.426C566.544 524.292 562.753 521.991 560.873 520.857C568.618 521.116 576.395 521.019 584.172 520.566C581.191 521.765 578.21 522.996 575.261 524.26C575.261 529.12 575.261 534.013 575.261 538.874C598.884 545.387 623.479 551.739 648.171 548.401C664.244 545.323 677.562 534.986 691.399 526.852C683.751 537.805 673.155 546.198 661.813 553.003C645.968 561.428 627.529 563.048 609.901 561.363C594.347 560.294 578.534 555.044 568.197 542.795C544.898 563.89 510.743 567.423 480.964 562.011C458.28 557.896 439.486 541.888 429.602 521.376Z"></path>
<path fill="#7F9D5F" d="M680.057 550.118C688.936 542.244 695.806 532.523 702.643 522.899C705.625 525.07 708.638 527.208 711.684 529.315C705.236 537.545 700.343 547.105 692.663 554.331C688.256 555.724 684.14 551.317 680.057 550.118Z"></path>
<path fill="#BC9B6B" d="M197.942 555.595C206.594 547.04 215.441 538.615 224.806 530.838C225.972 534.662 227.139 538.518 228.273 542.374C210.71 554.623 195.642 569.95 178.694 582.977C179.731 570.825 190.068 563.566 197.942 555.595Z"></path>
<path fill="#804D2C" d="M228.273 542.374C235.434 566.094 247.845 588.226 264.696 606.438C275.486 617.585 288.902 625.816 299.66 637.028C255.655 630.514 210.904 614.798 178.694 582.977C195.642 569.95 210.71 554.623 228.273 542.374Z"></path>
<path fill="#9DC07A" d="M437.12 573.255C432.843 565.09 433.329 555.822 435.403 547.137C442.24 562.011 448.754 577.047 456.66 591.37C462.85 602.193 470.4 612.238 479.181 621.085C494.25 636.282 512.882 648.596 533.816 653.813C553.258 658.253 573.155 651.642 589.94 641.953C591.982 645.55 594.056 649.147 596.129 652.744C593.278 655.239 590.426 657.767 587.51 660.229C567.387 666.289 546.129 667.229 525.455 663.47C512.234 657.605 498.916 651.545 487.023 643.217C463.595 625.783 448.916 599.374 437.12 573.255Z"></path>
<path fill="#A57339" d="M135.304 595.939C147.975 587.773 159.77 578.408 171.695 569.205C171.598 575.07 169.783 581.907 173.995 586.833C182.583 598.174 195.123 605.433 206.303 613.826C197.975 624.357 190.101 635.213 182.323 646.133C162.233 634.208 146.387 616.353 135.304 595.939Z"></path>
<path fill="#471613" d="M456.661 591.37C475.39 574.616 502.092 575.005 525.617 572.283C559.48 569.075 591.269 585.764 615.216 608.447C608.476 617.65 601.185 626.691 591.658 633.139C583.978 622.316 574.386 612.141 561.489 607.799C534.918 597.786 505.721 606.762 481.871 619.853L479.182 621.085C470.4 612.238 462.85 602.193 456.661 591.37Z"></path>
<path fill="#738E57" d="M792.955 602.679C799.922 598.434 807.634 595.582 815.541 593.67C808.995 602.97 802.449 612.335 797.459 622.607C755.398 652.971 703.745 665.641 653.421 674.52C623.835 679.445 596.778 693.735 567.03 697.786C543.342 701.351 519.039 701.286 495.513 696.457C520.724 695.68 546.324 697.721 571.146 692.342C595.87 686.477 620.401 678.797 642.371 665.706C692.825 645.42 746.065 630.935 792.955 602.679Z"></path>
<path fill="#553319" d="M840.33 594.642C841.076 593.8 842.566 592.18 843.344 591.337C844.089 598.077 844.964 604.817 845.45 611.622C844.122 626.269 831.84 635.991 820.726 643.897C798.691 659.84 772.086 666.969 747.005 676.496C749.209 687.967 751.25 699.504 753.292 711.04C750.926 707.248 748.723 703.392 746.519 699.536C745.806 703.878 745.093 708.253 744.381 712.595C743.797 701.253 743.084 689.879 742.242 678.538C719.753 679.283 697.426 681.973 675.035 683.917C675.683 688.551 676.331 693.217 677.011 697.916C676.493 699.892 675.456 703.846 674.97 705.822C671.308 697.494 667.744 689.102 664.114 680.774C680.09 676.302 696.033 671.344 712.721 670.437C738.937 672.284 764.245 663.275 787.803 652.744C804.459 644.513 821.212 635.148 833.72 621.149C840.395 614.02 838.969 603.554 840.33 594.642Z"></path>
<path fill="#302010" d="M852.061 590.462C871.18 601.642 894.349 615.641 896.261 640.171C891.692 663.081 870.823 677.144 851.931 688C839.294 694.578 826.688 702.55 812.398 704.721C808.412 703.975 804.459 703.262 800.538 702.55C805.593 700.378 810.583 698.013 815.606 695.68C810.713 683.431 805.69 671.214 802.158 658.512C812.009 668.233 817.939 680.839 823.318 693.411C843.538 684.014 864.828 674.358 879.896 657.345C886.734 650.119 888.548 639.944 887.317 630.352C877.855 616.71 865.962 603.813 849.566 598.952L848.172 598.272C849.404 595.647 850.7 593.022 852.061 590.462Z"></path>
<path fill="#6D3F20" d="M794.446 633.56C811.296 622.543 825.327 607.928 840.33 594.642C838.969 603.554 840.395 614.02 833.72 621.149C821.212 635.148 804.459 644.513 787.803 652.744C764.245 663.275 738.937 672.284 712.721 670.437C741.335 661.59 769.332 650.054 794.446 633.56Z"></path>
<path fill="#9D662F" d="M848.172 598.272L849.566 598.952C856.533 616.224 871.698 627.533 885.016 639.685C885.6 637.352 886.734 632.685 887.317 630.352C888.548 639.944 886.734 650.119 879.896 657.345C864.828 674.358 843.538 684.014 823.318 693.411C817.939 680.838 812.009 668.233 802.158 658.512C805.69 671.214 810.713 683.431 815.606 695.68C810.583 698.013 805.593 700.378 800.538 702.55C784.886 705.92 769.3 710.1 753.292 711.04C751.25 699.504 749.209 687.967 747.005 676.496C772.086 666.969 798.691 659.84 820.726 643.897C831.84 635.991 844.122 626.269 845.45 611.622C846.293 607.151 847.2 602.711 848.172 598.272Z"></path>
<path fill="#D0B770" d="M849.566 598.952C865.962 603.813 877.855 616.71 887.317 630.352C886.734 632.685 885.6 637.352 885.016 639.685C871.698 627.533 856.533 616.224 849.566 598.952Z"></path>
<path fill="#AA4E41" d="M481.871 619.853C505.721 606.762 534.917 597.786 561.489 607.799C574.386 612.141 583.978 622.316 591.658 633.139C576.298 642.731 558.605 651.642 539.908 648.758C517.905 645.615 500.309 631.033 481.871 619.853Z"></path>
<path fill="#82A063" d="M288.059 614.118C304.456 612.724 318.325 622.381 332.454 629.024C365.895 645.453 402.642 652.517 438.157 662.789C473.932 672.64 510.808 686.218 548.43 678.117C544.865 676.82 541.333 675.524 537.801 674.293C548.981 674.52 560.193 674.163 571.34 672.997C564.762 675.103 558.151 676.982 551.573 678.959C564.956 682.167 579.085 685.246 592.695 681.325C609.415 676.691 625.553 670.177 642.371 665.706C620.401 678.797 595.87 686.477 571.146 692.342C546.324 697.721 520.724 695.68 495.513 696.458C463.66 690.43 433.005 679.478 402.156 669.691C362.46 655.271 320.982 641.564 288.059 614.118Z"></path>
<path fill="#A16A2F" d="M189.29 650.605C195.933 638.972 200.146 624.617 211.196 616.451C231.74 625.167 252.512 633.269 273.639 640.43C277.755 645.68 281.384 652.355 288.513 653.781C309.965 660.1 332.421 662.789 354.748 663.243L358.312 663.372C358.993 671.344 359.9 679.38 358.863 687.384C349.304 692.018 338.319 690.981 328.047 691.37C300.859 691.856 273.769 687.417 247.813 679.51C251.442 666.581 257.534 654.591 262.751 642.309C250.47 650.087 247.392 665.187 241.04 677.274C222.894 670.275 204.78 662.595 189.29 650.605Z"></path>
<path fill="#7D4E24" d="M273.64 640.43C284.657 640.754 295.545 642.472 306.109 645.647C322.57 650.637 340.166 653.489 354.748 663.243C332.421 662.789 309.965 660.1 288.513 653.781C281.384 652.355 277.755 645.68 273.64 640.43Z"></path>
<path fill="#647D4B" d="M525.455 663.47C546.129 667.229 567.387 666.289 587.51 660.229C589.292 660.262 592.792 660.326 594.574 660.359C587.38 665.511 579.895 670.502 571.34 672.997C560.193 674.163 548.981 674.52 537.802 674.293C528.955 671.376 520.4 667.715 512.007 663.729C516.479 663.567 520.984 663.47 525.455 663.47Z"></path>
<path fill="#9B672E" d="M364.016 665.77C378.63 669.497 393.439 673.353 406.66 680.936C392.953 684.241 378.954 686.282 364.956 687.838C364.664 680.482 364.34 673.126 364.016 665.77Z"></path>
<path fill="#697D48" d="M205.168 687.125C204.132 680.839 211.196 676.269 214.307 671.344C219.264 682.037 221.144 693.735 221.144 705.434C216.056 699.147 210.321 693.347 205.168 687.125Z"></path>
<path fill="#688250" d="M224.773 679.477C258.539 693.606 294.962 699.957 331.482 699.471C326.751 705.758 321.857 711.882 316.738 717.844C287.087 712.498 256.433 708.577 229.893 693.185C229.829 697.235 229.861 701.286 229.926 705.369C227.463 696.911 225.908 688.227 224.773 679.477Z"></path>
<path fill="#A16E31" d="M675.035 683.917C697.426 681.973 719.753 679.283 742.242 678.538C743.084 689.879 743.797 701.253 744.38 712.595C723.739 714.701 702.935 715.123 682.196 713.924C680.414 708.609 678.599 703.295 677.011 697.916C676.331 693.217 675.683 688.551 675.035 683.917Z"></path>
<path fill="#9F6E30" d="M620.562 687.093C635.047 684.727 649.694 683.56 664.114 680.774C667.744 689.102 671.308 697.494 674.97 705.822C674.419 707.799 673.317 711.752 672.799 713.729C655.203 712.822 637.705 710.359 620.465 706.697C620.465 700.152 620.498 693.606 620.562 687.093Z"></path>
<path fill="#738B56" d="M411.326 687.514C424.612 684.792 437.898 688.551 450.503 692.537C465.766 697.268 481.288 701.286 496.777 705.272C494.638 710.003 492.5 714.799 490.426 719.594C478.371 734.954 469.298 752.323 461.553 770.21C457.114 760.651 452.091 751.318 445.643 742.926C449.628 764.896 457.438 786.186 458.378 808.675C459.804 833.561 461.1 860.781 447.49 882.849C440.523 894.676 427.529 900.93 414.502 903.523C413.919 902.324 412.752 899.893 412.169 898.662C430.737 883.075 447.749 862.531 450.439 837.612C452.934 815.933 451.994 793.444 445.092 772.608C437.218 749.731 420.14 728.117 396.193 721.117C377.496 716.872 358.183 720.275 339.259 720.729C337.379 717.229 335.532 713.729 333.653 710.229C338.286 703.781 344.476 697.981 352.804 697.3C372.344 694.254 391.884 691.078 411.326 687.514Z"></path>
<path fill="#8BAA67" d="M186.536 723.321C188.772 709.614 197.554 698.272 205.169 687.125C210.321 693.347 216.057 699.147 221.144 705.434C227.949 719.562 235.759 733.269 247.327 744.092C248.364 778.635 241.624 812.822 242.531 847.333C238.481 840.01 234.171 829.867 224.19 830.288C214.015 828.636 206.724 836.866 199.66 842.732C195.123 834.728 191.3 824.78 181.837 821.539C174.06 818.039 165.635 821.215 158.312 824.294C159.511 788.454 182.064 758.285 186.536 723.321Z"></path>
<path fill="#7D9861" d="M229.893 693.185C256.433 708.577 287.087 712.498 316.737 717.845C308.183 729.348 302.253 742.99 291.721 752.906C265.117 748.791 238.254 732.135 229.926 705.369C229.861 701.286 229.828 697.235 229.893 693.185Z"></path>
<path fill="#C2913E" d="M504.652 706.697C541.204 709.581 578.242 706.114 612.591 692.666C612.008 701.318 611.392 710.003 610.452 718.687C610.064 717.164 609.254 714.118 608.865 712.627C590.556 714.086 572.831 719.108 554.684 721.636C533.686 724.812 512.396 724.617 491.301 726.983L492.241 725.071C496.291 718.882 500.569 712.854 504.652 706.697Z"></path>
<path fill="#92B26C" d="M325.065 722.64C327.917 718.493 330.704 714.28 333.653 710.229C335.532 713.729 337.379 717.229 339.259 720.729C358.183 720.275 377.496 716.872 396.194 721.117C420.14 728.117 437.218 749.731 445.092 772.608C451.994 793.444 452.934 815.933 450.439 837.612C447.749 862.531 430.737 883.075 412.169 898.662C408.896 891.695 405.558 881.487 395.999 882.038C386.667 883.335 379.311 890.042 371.663 895.033C367.548 890.431 364.081 884.955 358.637 881.876C350.114 879.349 341.689 883.885 333.653 886.154C325.195 878.701 316.705 865.609 303.711 869.012C296.938 872.382 293.082 879.414 288.222 884.89C287.703 884.047 286.666 882.33 286.148 881.488C279.796 833.658 294.508 785.343 318.585 744.319C322.473 737.709 324.223 730.158 325.065 722.64Z"></path>
<path fill="#EAD055" d="M554.684 721.636C572.831 719.108 590.556 714.086 608.864 712.627C609.253 714.118 610.063 717.164 610.452 718.687C609.804 725.136 608.864 731.552 608.119 738.033C584.01 743.509 559.447 746.231 534.982 749.439C559.091 749.439 582.649 744.254 606.304 740.398C605.818 750.768 605.3 761.137 604.684 771.474C558.573 782.135 510.938 786.704 463.66 784.501C466.738 773.224 471.469 762.498 476.719 752.064C486.667 752.226 496.615 752.355 506.563 752.161C497.296 751.675 488.06 751.416 478.792 751.059C483.005 743.055 487.347 735.116 491.301 726.983C512.396 724.617 533.686 724.811 554.684 721.636Z"></path>
<path fill="#677F4F" d="M619.04 712.336C655.884 722.057 694.283 723.191 732.164 721.863C733.59 723.256 736.474 726.043 737.9 727.436C736.603 729.121 734.011 732.491 732.715 734.176C697.005 734.987 661.425 731.098 625.747 731.13C623.09 753.003 624.775 776.238 635.922 795.713C652.092 825.719 681.159 846.653 712.559 858.513C736.992 868.558 763.629 870.146 789.39 874.812C789.941 872.933 791.108 869.239 791.691 867.392C794.867 859.485 799.533 850.347 808.93 848.986C818.328 846.491 826.98 852.064 834.757 856.504C832.683 859.031 830.609 861.559 828.568 864.086C826.396 860.749 824.193 857.379 822.022 854.073C816.254 855.143 809.967 854.981 804.75 857.994C799.663 862.272 802.417 869.725 801.834 875.428C772.572 885.862 740.913 885.797 710.258 884.307C682.455 881.779 653.907 875.493 630.543 859.55C611.554 846.037 608.735 820.535 609.48 799.05C611.392 770.016 614.211 741.014 619.04 712.336Z"></path>
<path fill="#272C1B" d="M461.554 770.21C469.298 752.323 478.371 734.954 490.426 719.594C490.88 720.955 491.787 723.71 492.241 725.071L491.301 726.983C487.348 735.116 483.005 743.055 478.793 751.059C488.06 751.416 497.296 751.675 506.563 752.161C496.615 752.355 486.667 752.226 476.719 752.064C471.469 762.498 466.738 773.224 463.66 784.501C510.938 786.704 558.573 782.135 604.684 771.474C604.555 773.127 604.296 776.399 604.166 778.02C583.168 777.923 562.721 783.366 541.884 785.376C516.544 788.972 490.912 788.098 465.377 788.26C466.511 798.856 467.937 809.452 469.493 820.016C494.088 819.595 518.683 817.683 542.954 813.568C558.864 810.943 574.386 806.082 590.459 804.235C591.885 804.656 594.671 805.499 596.065 805.92C555.818 821.604 511.716 824.909 468.909 825.914C469.104 852.323 464.794 883.302 441.787 899.893C413.044 918.72 376.816 915.577 344.152 913.633C317.418 909.258 285.791 901.838 272.116 875.752C272.991 873.322 274.774 868.461 275.649 866.031C279.019 871.248 282.68 876.303 286.148 881.488C286.666 882.33 287.703 884.047 288.222 884.89C293.082 879.414 296.938 872.382 303.711 869.012C316.705 865.609 325.195 878.701 333.653 886.154C341.689 883.885 350.114 879.349 358.637 881.876C364.081 884.955 367.548 890.431 371.663 895.033C379.311 890.042 386.667 883.335 395.999 882.038C405.558 881.487 408.896 891.695 412.169 898.662C412.752 899.893 413.919 902.324 414.502 903.523C427.529 900.93 440.523 894.676 447.49 882.848C461.1 860.781 459.804 833.561 458.378 808.674C457.438 786.186 449.629 764.896 445.643 742.926C452.091 751.318 457.114 760.651 461.554 770.21ZM300.406 875.201C296.096 878.377 296.355 884.242 296.355 889.038C305.59 897.787 318.649 900.477 330.769 902.55C330.283 893.412 328.792 883.108 320.821 877.372C315.182 873.289 306.109 869.109 300.406 875.201ZM334.884 903.717C345.869 905.694 356.984 907.184 368.164 907.249C365.539 898.532 363.821 885.214 352.318 884.436C340.749 881.812 338.222 895.94 334.884 903.717ZM373.316 907.346C385.306 908.092 397.522 907.93 409.026 904.073C406.109 897.593 406.174 885.117 395.967 887.191C383.88 885.992 378.015 898.468 373.316 907.346Z"></path>
<path fill="#B9D7A0" d="M186.536 723.321C182.064 758.285 159.511 788.454 158.312 824.293C156.627 825.687 153.224 828.506 151.539 829.899C148.104 807.54 156.659 786.218 165.376 766.16C171.792 751.578 177.949 736.769 186.536 723.321Z"></path>
<path fill="#BCDB9C" d="M275.648 866.031C270.334 813.859 294.411 763.373 325.065 722.64C324.223 730.158 322.473 737.709 318.584 744.319C294.508 785.343 279.796 833.658 286.148 881.488C282.68 876.303 279.019 871.248 275.648 866.031Z"></path>
<path fill="#90B06B" d="M732.715 734.176C734.011 732.491 736.603 729.121 737.899 727.436C739.293 729.996 740.654 732.556 742.047 735.149C740.557 734.889 737.575 734.403 736.085 734.144C754.199 763.373 786.247 779.122 815.768 794.319C824.484 799.212 834.271 802.453 844.381 800.833L846.941 800.703C848.043 802.161 850.246 805.013 851.348 806.471C844.381 806.698 837.446 806.957 830.512 807.184C829.734 813.341 827.822 819.66 829.313 825.849C835.567 832.686 845.061 835.344 852.385 840.917C848.658 847.657 843.052 852.972 837.414 858.059L834.757 856.504C826.98 852.064 818.328 846.491 808.93 848.986C799.533 850.347 794.867 859.485 791.691 867.392C746.001 858.675 698.496 845.745 663.207 813.794C641.269 793.963 633.038 763.665 632.293 734.987C665.735 734.338 699.63 740.528 732.715 734.176Z"></path>
<path fill="#759157" d="M625.747 731.13C661.425 731.098 697.005 734.986 732.715 734.176C699.63 740.528 665.734 734.338 632.293 734.986C633.038 763.665 641.269 793.963 663.207 813.794C698.495 845.745 746.001 858.675 791.691 867.392C791.108 869.239 789.941 872.933 789.39 874.812C763.629 870.146 736.992 868.558 712.559 858.513C681.159 846.653 652.092 825.719 635.922 795.713C624.775 776.238 623.09 753.003 625.747 731.13Z"></path>
<path fill="#AEC88B" d="M736.085 734.144C737.575 734.403 740.557 734.889 742.047 735.149C752.644 739.653 759.902 749.633 769.235 756.244C791.885 775.006 820.401 784.241 844.381 800.833C834.271 802.453 824.484 799.212 815.768 794.319C786.247 779.122 754.199 763.373 736.085 734.144Z"></path>
<path fill="#79955A" d="M247.327 744.092C259.965 751.675 273.218 758.091 286.99 763.308C274.288 792.051 264.21 822.446 263.562 854.138C256.595 854.851 249.628 855.564 242.693 856.471C242.628 854.171 242.564 849.601 242.531 847.333C241.624 812.822 248.364 778.635 247.327 744.092Z"></path>
<path fill="#CC9D3B" d="M541.884 785.376C562.721 783.367 583.168 777.923 604.166 778.02C603.68 788.746 602.287 800.541 590.459 804.235C574.386 806.082 558.864 810.943 542.954 813.568C518.683 817.683 494.088 819.595 469.493 820.016C467.937 809.452 466.511 798.856 465.377 788.26C490.912 788.098 516.544 788.973 541.884 785.376Z"></path>
<path fill="#D5E3CC" d="M832.002 811.753C840.136 807.702 850.473 809.549 857.472 815.123C859.481 822.673 857.148 830.223 854.232 837.223C845.321 830.58 827.693 826.141 832.002 811.753Z"></path>
<path fill="#63754D" d="M158.311 824.293C165.635 821.215 174.06 818.039 181.837 821.539C191.299 824.779 195.123 834.728 199.66 842.732C206.724 836.866 214.015 828.636 224.19 830.288C234.171 829.867 238.48 840.01 242.531 847.333C242.563 849.601 242.628 854.17 242.693 856.471C241.883 855.531 240.295 853.652 239.517 852.712C233.231 846.62 229.537 833.594 218.714 835.927C211.811 837.903 208.409 845.648 203.678 850.606C199.498 850.12 195.317 849.666 191.137 849.277C190.684 840.107 189.063 827.826 178.046 825.914C169.815 823.192 164.695 830.677 160.483 836.315C157.469 834.177 154.52 832.038 151.539 829.899C153.224 828.506 156.626 825.687 158.311 824.293Z"></path>
<path fill="#D1DBC6" d="M160.483 836.316C164.695 830.677 169.815 823.192 178.046 825.914C189.064 827.826 190.684 840.107 191.137 849.277C180.574 845.778 170.366 841.338 160.483 836.316Z"></path>
<path fill="#DAE2D2" d="M203.678 850.606C208.409 845.648 211.811 837.903 218.714 835.927C229.537 833.594 233.231 846.62 239.517 852.712C227.56 854.17 215.344 853.62 203.678 850.606Z"></path>
<path fill="#DAE0CD" d="M804.75 857.994C809.967 854.981 816.254 855.143 822.022 854.073C824.193 857.379 826.396 860.749 828.568 864.086C819.689 867.975 810.745 871.669 801.834 875.428C802.417 869.725 799.663 862.272 804.75 857.994Z"></path>
<path fill="#E8EEE2" d="M300.405 875.201C306.109 869.109 315.182 873.289 320.82 877.372C328.792 883.108 330.283 893.412 330.769 902.551C318.649 900.477 305.59 897.787 296.355 889.038C296.355 884.242 296.096 878.377 300.405 875.201Z"></path>
<path fill="#D2DDC5" d="M334.884 903.717C338.222 895.94 340.749 881.812 352.318 884.436C363.821 885.214 365.539 898.532 368.164 907.249C356.984 907.184 345.869 905.694 334.884 903.717Z"></path>
<path fill="#E4E9DD" d="M373.316 907.346C378.015 898.468 383.88 885.992 395.967 887.191C406.174 885.117 406.109 897.593 409.026 904.074C397.522 907.93 385.306 908.092 373.316 907.346Z"></path>
</svg>
