<?xml version="1.0" encoding="utf-8"?>
<!-- Uploaded to: SVG Repo, www.svgrepo.com, Generator: SVG Repo Mixer Tools -->
<svg width="800px" height="800px" viewBox="0 0 1024 1024" class="icon"  version="1.1" xmlns="http://www.w3.org/2000/svg"><path d="M512.004 570.152m-436.118 0a436.118 436.118 0 1 0 872.236 0 436.118 436.118 0 1 0-872.236 0Z" fill="#FDDF6D" /><path d="M605.456 941.874c-240.86 0-436.116-195.254-436.116-436.116 0-128.682 55.744-244.332 144.39-324.158C172.542 253.794 75.884 400.678 75.884 570.142c0 240.86 195.254 436.116 436.116 436.116 112.178 0 214.452-42.368 291.726-111.956-59.486 30.412-126.874 47.572-198.27 47.572z" fill="#FCC56B" /><path d="M590.584 821.208c-47 0-90.414-25.53-113.306-66.622a17.74 17.74 0 1 1 30.998-17.27c16.632 29.858 48.17 48.406 82.306 48.406 33.268 0 65.164-18.736 83.248-48.894a17.742 17.742 0 0 1 30.434 18.246c-24.454 40.794-68.014 66.134-113.68 66.134zM494.79 492.408a17.742 17.742 0 0 1-17.742-17.742c0-22.884-18.62-41.502-41.502-41.502s-41.502 18.618-41.502 41.502a17.742 17.742 0 0 1-35.484 0c0-42.45 34.536-76.986 76.986-76.986s76.986 34.536 76.986 76.986a17.742 17.742 0 0 1-17.742 17.742zM794.45 492.408a17.742 17.742 0 0 1-17.742-17.742c0-22.884-18.62-41.502-41.502-41.502s-41.502 18.618-41.502 41.502a17.742 17.742 0 0 1-35.484 0c0-42.45 34.538-76.986 76.986-76.986 42.448 0 76.986 34.536 76.986 76.986a17.742 17.742 0 0 1-17.742 17.742z" fill="#7F184C" /><path d="M516.448 17.742c-231.822 0-419.754 63.36-419.754 141.518s187.928 141.516 419.754 141.516S936.2 237.416 936.2 159.26 748.27 17.742 516.448 17.742z m0 216.922c-167.88 0-303.974-34.038-303.974-76.03s136.094-76.03 303.974-76.03 303.974 34.038 303.974 76.03-136.094 76.03-303.974 76.03z" fill="#0DAED3" /><path d="M367.234 176.376c1.954 0 3.942-0.324 5.888-1.01 44.506-15.658 91.234-23.596 138.878-23.596 30.682 0 61.282 3.336 90.952 9.91a17.74 17.74 0 0 0 7.678-34.642c-32.186-7.134-65.37-10.752-98.63-10.752-51.666 0-102.354 8.616-150.652 25.608a17.74 17.74 0 0 0-10.848 22.624 17.744 17.744 0 0 0 16.734 11.858z" fill="" /><path d="M847.416 264.408c84.752-35.242 103.7-75.902 103.7-105.148 0-32.556-23.424-79.256-135.016-116.878C735.04 15.05 627.618 0 513.622 0c-113.998 0-221.42 15.05-302.478 42.38-111.592 37.622-135.016 84.326-135.016 116.878 0 28.974 18.612 69.146 101.358 104.158-77.144 83.874-119.344 191.778-119.344 306.726C58.142 820.402 261.74 1024 512 1024s453.858-203.598 453.858-453.858c-0.002-114.43-41.886-221.99-118.442-305.734zM111.612 159.258c0-28.728 41.448-59.85 110.87-83.254 77.502-26.13 180.898-40.52 291.142-40.52s213.64 14.39 291.142 40.52c69.422 23.406 110.87 54.528 110.87 83.254s-41.448 59.85-110.87 83.256c-77.502 26.13-180.898 40.52-291.142 40.52s-213.64-14.39-291.142-40.52c-69.426-23.404-110.87-54.528-110.87-83.256z m400.386 829.258c-230.694 0-418.374-187.68-418.374-418.374 0-110.796 42.514-214.51 119.934-293.208 80.776 26.82 187.186 41.584 300.062 41.584 111.734 0 217.132-14.468 297.602-40.776 76.91 78.606 119.15 182.044 119.15 292.398 0 230.694-187.68 418.376-418.374 418.376z" fill="" /><path d="M494.79 492.41a17.742 17.742 0 0 0 17.742-17.742c0-42.45-34.538-76.986-76.986-76.986s-76.986 34.536-76.986 76.986a17.742 17.742 0 0 0 35.484 0c0-22.884 18.618-41.502 41.502-41.502s41.502 18.62 41.502 41.502a17.742 17.742 0 0 0 17.742 17.742zM735.204 397.68c-42.45 0-76.986 34.536-76.986 76.986a17.742 17.742 0 0 0 35.484 0c0-22.884 18.62-41.502 41.502-41.502s41.502 18.62 41.502 41.502a17.742 17.742 0 0 0 35.484 0c0.002-42.452-34.536-76.986-76.986-76.986zM698.172 730.736c-8.404-5.042-19.304-2.308-24.34 6.094-18.082 30.162-49.98 48.894-83.248 48.894-34.138 0-65.676-18.548-82.306-48.406a17.744 17.744 0 0 0-24.134-6.864 17.74 17.74 0 0 0-6.864 24.134c22.892 41.094 66.308 66.622 113.306 66.622 45.662 0 89.222-25.34 113.68-66.134a17.744 17.744 0 0 0-6.094-24.34zM513.622 252.404c82.604 0 160.466-8.098 219.246-22.8 67.994-17.006 102.468-40.884 102.468-70.972S800.86 104.666 732.868 87.66c-58.78-14.702-136.642-22.8-219.246-22.8s-160.466 8.098-219.248 22.8c-67.994 17.006-102.468 40.884-102.468 70.972s34.476 53.966 102.468 70.972c58.78 14.704 136.646 22.8 219.248 22.8zM227.39 158.634c0-3.726 12.828-20.85 75.594-36.548 56.048-14.018 130.852-21.738 210.638-21.738s154.59 7.722 210.636 21.738c62.766 15.698 75.594 32.822 75.594 36.548s-12.828 20.85-75.594 36.548c-56.046 14.018-130.852 21.738-210.636 21.738-79.786 0-154.592-7.722-210.638-21.738-62.766-15.698-75.594-32.822-75.594-36.548z" fill="" /><path d="M670.002 164.076m-17.742 0a17.742 17.742 0 1 0 35.484 0 17.742 17.742 0 1 0-35.484 0Z" fill="" /><path d="M324.582 551.502c-32.388 0-58.642 26.256-58.642 58.642h117.288c-0.004-32.386-26.258-58.642-58.646-58.642zM836.106 551.502c-32.388 0-58.642 26.256-58.642 58.642h117.288c-0.002-32.386-26.256-58.642-58.646-58.642z" fill="#F9A880" /></svg>