<?xml version="1.0" encoding="utf-8"?>
<!-- Uploaded to: SVG Repo, www.svgrepo.com, Generator: SVG Repo Mixer Tools -->
<svg width="800px" height="800px" viewBox="0 0 1024 1024" class="icon"  version="1.1" xmlns="http://www.w3.org/2000/svg"><path d="M512.002 512.002m-491.988 0a491.988 491.988 0 1 0 983.976 0 491.988 491.988 0 1 0-983.976 0Z" fill="#FDDF6D" /><path d="M617.43 931.354c-271.716 0-491.986-220.268-491.986-491.986 0-145.168 62.886-275.632 162.888-365.684C129.054 155.124 20.014 320.828 20.014 512c0 271.716 220.268 491.986 491.986 491.986 126.548 0 241.924-47.796 329.098-126.298-67.106 34.31-143.124 53.666-223.668 53.666z" fill="#FCC56B" /><path d="M441.658 427.3m-60.044 0a60.044 60.044 0 1 0 120.088 0 60.044 60.044 0 1 0-120.088 0Z" fill="#FFFFFF" /><path d="M779.72 427.3m-60.044 0a60.044 60.044 0 1 0 120.088 0 60.044 60.044 0 1 0-120.088 0Z" fill="#FFFFFF" /><path d="M730.5 847.812a20 20 0 0 1-17.504-10.28c-18.764-33.684-54.342-54.608-92.85-54.608-37.528 0-73.51 21.136-93.908 55.16-5.684 9.478-17.978 12.556-27.458 6.874-9.482-5.684-12.558-17.976-6.874-27.458 27.59-46.018 76.732-74.606 128.244-74.606 53.02 0 101.998 28.8 127.822 75.16 5.38 9.656 1.91 21.846-7.744 27.222a19.928 19.928 0 0 1-9.728 2.536z" fill="#7F184C" /><path d="M498.552 683.094c0 34.258-27.77 62.026-62.026 62.026s-62.026-27.77-62.026-62.026 62.026-123.592 62.026-123.592 62.026 89.338 62.026 123.592z" fill="#3FA9F5" /><path d="M946.536 241.094c-49.282-78.89-119.04-142.94-201.738-185.224-9.836-5.026-21.898-1.134-26.932 8.708-5.034 9.842-1.134 21.902 8.708 26.934 76.246 38.988 140.568 98.048 186.012 170.792 46.7 74.756 71.386 161.1 71.386 249.696 0 260.248-211.724 471.97-471.97 471.97S40.03 772.244 40.03 511.998 251.752 40.03 512 40.03c11.054 0 20.014-8.958 20.014-20.014S523.054 0 512 0C229.68 0 0 229.68 0 511.998S229.68 1024 512 1024s512-229.68 512-512c0-96.106-26.788-189.784-77.464-270.906z" fill="" /><path d="M521.722 427.304c0-44.144-35.914-80.058-80.058-80.058s-80.058 35.914-80.058 80.058 35.914 80.058 80.058 80.058 80.058-35.914 80.058-80.058z m-120.088 0c0-22.072 17.958-40.03 40.03-40.03s40.03 17.958 40.03 40.03-17.958 40.03-40.03 40.03-40.03-17.956-40.03-40.03zM859.768 427.304c0-44.144-35.914-80.058-80.058-80.058s-80.058 35.914-80.058 80.058 35.914 80.058 80.058 80.058 80.058-35.914 80.058-80.058z m-120.088 0c0-22.072 17.958-40.03 40.03-40.03s40.03 17.958 40.03 40.03-17.958 40.03-40.03 40.03-40.03-17.956-40.03-40.03zM491.902 817.508c-5.684 9.482-2.608 21.774 6.874 27.458 9.478 5.682 21.774 2.602 27.458-6.874 20.398-34.026 56.38-55.16 93.908-55.16 38.51 0 74.088 20.924 92.85 54.608a20 20 0 0 0 27.226 7.748c9.658-5.38 13.124-17.568 7.744-27.222-25.824-46.36-74.802-75.16-127.822-75.16-51.51-0.006-100.65 28.584-128.238 74.602zM436.526 765.138c45.238 0 82.042-36.804 82.042-82.042 0-11.51-3.498-32.818-33.734-84.718-15.726-26.994-31.214-49.35-31.866-50.29a20.012 20.012 0 0 0-32.884 0c-0.652 0.94-16.14 23.294-31.866 50.29-30.238 51.9-33.734 73.208-33.734 84.718-0.002 45.238 36.804 82.042 82.042 82.042z m0-169.344c22.34 35.418 42.012 73.404 42.012 87.302 0 23.166-18.848 42.012-42.012 42.012s-42.012-18.848-42.012-42.012c-0.002-13.898 19.672-51.884 42.012-87.302z" fill="" /><path d="M663.928 45.366m-20.014 0a20.014 20.014 0 1 0 40.028 0 20.014 20.014 0 1 0-40.028 0Z" fill="" /></svg>