<?xml version="1.0" encoding="utf-8"?>
<!-- Uploaded to: SVG Repo, www.svgrepo.com, Generator: SVG Repo Mixer Tools -->
<svg width="800px" height="800px" viewBox="0 0 1024 1024" class="icon"  version="1.1" xmlns="http://www.w3.org/2000/svg"><path d="M512.003 512.003m-491.986961 0a491.986961 491.986961 0 1 0 983.973922 0 491.986961 491.986961 0 1 0-983.973922 0Z" fill="#FDDF6D" /><path d="M617.431206 931.355819c-271.716531 0-491.984961-220.26843-491.984961-491.984961 0-145.168284 62.886123-275.632538 162.888318-365.684714-159.280311 81.438159-268.320524 247.140483-268.320524 438.312856 0 271.716531 220.26843 491.984961 491.984961 491.984961 126.548247 0 241.924473-47.794093 329.096643-126.298247-67.100131 34.312067-143.12228 53.670105-223.664437 53.670105z" fill="#FCC56B" /><path d="M426.312833 359.704703m-60.044118 0a60.044117 60.044117 0 1 0 120.088235 0 60.044117 60.044117 0 1 0-120.088235 0Z" fill="#FFFFFF" /><path d="M764.373493 359.704703m-60.044117 0a60.044117 60.044117 0 1 0 120.088234 0 60.044117 60.044117 0 1 0-120.088234 0Z" fill="#FFFFFF" /><path d="M300.574587 481.542941c-36.536071 0-66.158129 29.618058-66.158129 66.158129h132.312258c0.004-36.540071-29.618058-66.158129-66.154129-66.158129zM877.629714 472.676923c-36.536071 0-66.158129 29.618058-66.158129 66.156129h132.312258c0.002-36.534071-29.616058-66.156129-66.154129-66.156129z" fill="#F9A880" /><path d="M791.751546 710.345387H430.558841c-11.056022 0-20.014039-8.962018-20.014039-20.014039s8.958017-20.014039 20.014039-20.014039h361.194705c11.056022 0 20.014039 8.962018 20.014039 20.014039s-8.960018 20.014039-20.016039 20.014039z" fill="#7F184C" /><path d="M934.571825 222.816435c-57.122112-83.314163-136.602267-147.388288-229.846449-185.300362-10.24802-4.164008-21.918043 0.766001-26.080051 11.002022-4.164008 10.24002 0.764001 21.914043 11.002022 26.078051 85.958168 34.948068 159.236311 94.028184 211.908414 170.854333 53.916105 78.642154 82.418161 170.814334 82.418161 266.548521 0 260.246508-211.726414 471.970922-471.970922 471.970922S40.030078 772.247508 40.030078 511.999 251.754492 40.030078 511.999 40.030078c11.056022 0 20.014039-8.962018 20.014039-20.014039S523.055022 0 511.999 0C229.680449 0 0 229.682449 0 511.999s229.680449 511.999 511.999 511.999 511.999-229.680449 511.999-511.999c0.004-103.848203-30.92006-203.848398-89.426175-289.182565z" fill="" /><path d="M506.386989 359.712703c0-44.144086-35.91407-80.058156-80.058156-80.058157s-80.058156 35.91407-80.058157 80.058157 35.91407 80.058156 80.058157 80.058156 80.058156-35.91407 80.058156-80.058156z m-120.088235 0c0-22.072043 17.958035-40.030078 40.030079-40.030079s40.030078 17.958035 40.030078 40.030079-17.958035 40.030078-40.030078 40.030078-40.030078-17.958035-40.030079-40.030078zM844.433649 359.712703c0-44.144086-35.91407-80.058156-80.058156-80.058157s-80.058156 35.91407-80.058156 80.058157 35.91407 80.058156 80.058156 80.058156 80.058156-35.91407 80.058156-80.058156z m-120.088234 0c0-22.072043 17.958035-40.030078 40.030078-40.030079s40.030078 17.958035 40.030078 40.030079-17.958035 40.030078-40.030078 40.030078-40.030078-17.958035-40.030078-40.030078zM410.544802 690.333348c0 11.054022 8.958017 20.014039 20.014039 20.014039h361.194705c11.056022 0 20.014039-8.962018 20.014039-20.014039s-8.958017-20.014039-20.014039-20.014039H430.558841a20.010039 20.010039 0 0 0-20.014039 20.014039z" fill="" /><path d="M634.011238 37.494073m-20.014039 0a20.014039 20.014039 0 1 0 40.028078 0 20.014039 20.014039 0 1 0-40.028078 0Z" fill="" /></svg>