<?xml version="1.0" encoding="utf-8"?>
<!-- Uploaded to: SVG Repo, www.svgrepo.com, Generator: SVG Repo Mixer Tools -->
<svg width="800px" height="800px" viewBox="0 0 1024 1024" class="icon"  version="1.1" xmlns="http://www.w3.org/2000/svg"><path d="M889.336 24.948c-6.326-10.536-22.396-5.974-22.382 6.314v0.438c0 158.842-91.246 296.352-224.172 363.036v232.034c174.062-44.504 302.366-200.788 304.198-389.172 0.756-77.808-20.396-150.61-57.644-212.65z" fill="#A66EDD" /><path d="M512.002 536.446m-468.494 0a468.494 468.494 0 1 0 936.988 0 468.494 468.494 0 1 0-936.988 0Z" fill="#A66EDD" /><path d="M612.398 935.78c-258.742 0-468.492-209.75-468.492-468.492 0-138.236 59.884-262.47 155.11-348.222C147.342 196.618 43.512 354.406 43.512 536.452c0 258.742 209.75 468.492 468.492 468.492 120.506 0 230.372-45.512 313.382-120.268-63.9 32.67-136.292 51.104-212.988 51.104z" fill="#7D45B2" /><path d="M511.01 526.13m-51.986 0a51.986 51.986 0 1 0 103.972 0 51.986 51.986 0 1 0-103.972 0Z" fill="#FC4C59" /><path d="M789.196 512.052m-51.986 0a51.986 51.986 0 1 0 103.972 0 51.986 51.986 0 1 0-103.972 0Z" fill="#FC4C59" /><path d="M644.786 822.332c-50.338 0-98.932-21.524-137.742-61.238-7.356-7.53-7.216-19.596 0.31-26.952a19.06 19.06 0 0 1 26.952 0.31c33.432 34.21 75.234 51.802 117.802 49.568 41.958-2.218 82.024-24.784 112.83-63.54 6.546-8.238 18.538-9.61 26.78-3.06 8.238 6.548 9.608 18.538 3.06 26.78-37.692 47.422-87.644 75.082-140.66 77.882a173.284 173.284 0 0 1-9.332 0.25zM512.104 597.15c-27.918 0-54.662-15.964-67.008-42.966-9.034-19.756-8.716-43.998 0.854-64.854 4.084-8.904 9.588-16.624 16.24-22.92-2.924-1.504-5.882-3.032-8.876-4.586-13.018-6.76-23.48-12.938-33.602-18.908-11.962-7.06-24.33-14.36-41.904-23.262-9.39-4.754-13.148-16.224-8.392-25.612 4.754-9.392 16.222-13.154 25.612-8.392 18.672 9.456 31.58 17.074 44.06 24.442 10.126 5.98 19.692 11.624 31.79 17.906 8.14 4.226 16.03 8.256 23.612 12.13 32.43 16.568 60.438 30.872 79.08 46.006a19.114 19.114 0 0 1 5.322 6.872c16.868 36.89 0.582 80.624-36.306 97.488a73.234 73.234 0 0 1-30.482 6.656z m-10.348-110.404a17.7 17.7 0 0 1-1.194 0.386c-11.126 3.22-16.998 11.614-19.968 18.088-4.862 10.592-5.19 23.588-0.836 33.106 8.13 17.774 29.198 25.62 46.972 17.496a35.2 35.2 0 0 0 18.476-19.862 35.184 35.184 0 0 0 0.546-23.178c-11.01-8.172-26.262-16.74-43.996-26.036zM791.784 584.222a73.3 73.3 0 0 1-30.552-6.704c-17.868-8.17-31.488-22.812-38.344-41.224-6.856-18.414-6.134-38.394 2.038-56.268a19.04 19.04 0 0 1 6.008-7.402c20.038-14.802 46.494-30.184 78.63-45.722 48.226-23.316 51.426-25.194 90.636-48.194l5.992-3.514c9.072-5.326 20.76-2.282 26.08 6.802 5.326 9.08 2.276 20.756-6.802 26.08l-5.984 3.512c-34.356 20.154-42.016 24.644-75.858 41.152a75.662 75.662 0 0 1 16.98 26.34c7.676 20.066 6.99 42.712-1.888 62.124-8.17 17.868-22.812 31.488-41.224 38.346a73.504 73.504 0 0 1-25.712 4.672z m-33.818-84.104a35.178 35.178 0 0 0 0.642 22.874 35.196 35.196 0 0 0 18.478 19.862 35.236 35.236 0 0 0 27.106 0.98 35.222 35.222 0 0 0 19.864-18.476c4.582-10.022 4.938-22.228 0.95-32.652-2.534-6.622-8.01-15.564-19.74-20.97-18.488 9.708-34.326 19.214-47.3 28.382z" fill="#3A2568" /><path d="M270.344 277.822c-59.68-62.628-96.322-147.404-96.322-240.748v-0.376c0.01-10.566-13.808-14.49-19.248-5.43-32.032 53.35-50.22 115.96-49.572 182.866 0.546 56.122 14.144 108.934 37.91 155.58 0 0 7.41 15.57 15.986 26.052l111.246-117.944z" fill="#A66EDD" /><path d="M954.626 332.16a430.924 430.924 0 0 0 11.412-94.38c0.762-78.616-20.112-155.606-60.364-222.644-7.286-12.134-21.33-17.752-34.95-13.968-13.672 3.796-22.846 15.898-22.83 30.096v0.44c0 45.29-7.7 89.324-22.864 131.276C740.276 91.826 631.064 48.9 512 48.9c-108.388 0-213.498 36.146-298.692 102.218-13.28-36.106-20.23-74.61-20.23-114.044v-0.354c0.016-13.44-8.658-24.884-21.584-28.474-12.886-3.576-26.166 1.73-33.06 13.21-34.87 58.076-52.948 124.768-52.288 192.862 0.562 57.878 14.014 113.072 39.986 164.052a19.06 19.06 0 0 0 16.996 10.412 18.976 18.976 0 0 0 8.638-2.082 19.06 19.06 0 0 0 8.328-25.636c-23.272-45.68-35.328-95.178-35.828-147.114-0.49-50.524 10.52-100.176 32.034-145.288 7.078 83.248 42.05 161.236 100.246 222.308 7.258 7.622 19.324 7.914 26.946 0.65 7.622-7.26 7.91-19.326 0.65-26.946-22.232-23.33-40.676-49.418-55.022-77.448 79.818-64.704 179.738-100.21 282.884-100.21 247.82 0 449.43 201.616 449.43 449.434S759.822 985.882 512.004 985.882 62.568 784.27 62.568 536.452c0-30.12 2.996-60.228 8.906-89.49 2.084-10.318-4.592-20.37-14.91-22.454-10.314-2.086-20.372 4.592-22.454 14.91a491.356 491.356 0 0 0-9.662 97.036C24.45 805.288 243.164 1024 512.002 1024c268.836 0 487.548-218.714 487.548-487.548 0.002-72.91-16.114-142.116-44.924-204.292z m-99.342-141.576c17.262-42.742 27.334-87.572 30.004-133.732 28.564 55.564 43.246 117.482 42.632 180.564a395.404 395.404 0 0 1-2.548 40.82 490.8 490.8 0 0 0-70.088-87.652z" fill="" /><path d="M534.214 734.452c-7.356-7.528-19.424-7.67-26.952-0.31-7.528 7.36-7.666 19.424-0.31 26.952 38.812 39.714 87.406 61.238 137.74 61.238 3.108 0 6.22-0.082 9.336-0.25 53.014-2.802 102.97-30.462 140.66-77.882 6.548-8.242 5.178-20.23-3.06-26.78-8.242-6.552-20.23-5.178-26.78 3.06-30.804 38.756-70.876 61.322-112.83 63.54-42.564 2.234-84.372-15.358-117.804-49.568zM573.476 486.126c-18.642-15.128-46.646-29.434-79.076-46a3808.054 3808.054 0 0 1-23.616-12.132c-12.094-6.282-21.656-11.924-31.78-17.902-12.482-7.366-25.392-14.986-44.066-24.444-9.388-4.762-20.856-1.004-25.612 8.392a19.052 19.052 0 0 0 8.392 25.612c17.58 8.904 29.948 16.206 41.91 23.268 10.116 5.972 20.582 12.146 33.594 18.904 2.994 1.552 5.952 3.082 8.876 4.586-6.65 6.294-12.154 14.014-16.24 22.92-9.57 20.856-9.888 45.098-0.854 64.854 12.348 27.002 39.092 42.966 67.008 42.966a73.14 73.14 0 0 0 30.48-6.66c36.886-16.866 53.174-60.6 36.312-97.486a19.11 19.11 0 0 0-5.328-6.878z m-46.84 69.7c-17.774 8.124-38.842 0.276-46.972-17.496-4.354-9.52-4.026-22.516 0.836-33.106 2.97-6.474 8.844-14.872 19.968-18.088 0.404-0.116 0.804-0.246 1.196-0.386 17.732 9.294 32.98 17.86 43.99 26.034 5.408 16.842-2.538 35.504-19.018 43.042zM925.38 408.078a19.058 19.058 0 0 0 6.802-26.08c-5.324-9.084-17.004-12.126-26.08-6.802l-5.992 3.514c-39.21 23-42.41 24.878-90.636 48.194-32.136 15.536-58.594 30.918-78.63 45.722a19.056 19.056 0 0 0-6.008 7.402c-8.172 17.87-8.894 37.854-2.038 56.268 6.858 18.41 20.48 33.054 38.346 41.224 9.756 4.462 20.138 6.704 30.552 6.704 8.662 0 17.348-1.55 25.712-4.666 18.41-6.858 33.054-20.48 41.226-38.35 8.874-19.414 9.562-42.06 1.882-62.124a75.622 75.622 0 0 0-16.978-26.336c33.838-16.508 41.498-21 75.854-41.152l5.988-3.518z m-101.414 117.278a35.208 35.208 0 0 1-19.864 18.476 35.254 35.254 0 0 1-27.106-0.98 35.22 35.22 0 0 1-18.478-19.864 35.152 35.152 0 0 1-0.642-22.87c12.972-9.168 28.812-18.672 47.302-28.382 11.73 5.402 17.206 14.346 19.74 20.968 3.986 10.422 3.63 22.628-0.952 32.652z" fill="" /><path d="M70.794 376.708m-19.058 0a19.058 19.058 0 1 0 38.116 0 19.058 19.058 0 1 0-38.116 0Z" fill="" /></svg>