<?xml version="1.0" encoding="utf-8"?>
<!-- Uploaded to: SVG Repo, www.svgrepo.com, Generator: SVG Repo Mixer Tools -->
<svg width="800px" height="800px" viewBox="0 0 1024 1024" class="icon"  version="1.1" xmlns="http://www.w3.org/2000/svg"><path d="M512.002 512.002m-491.988 0a491.988 491.988 0 1 0 983.976 0 491.988 491.988 0 1 0-983.976 0Z" fill="#FDDF6D" /><path d="M617.43 931.356c-271.716 0-491.986-220.268-491.986-491.986 0-145.168 62.886-275.632 162.888-365.684C129.054 155.124 20.014 320.828 20.014 512c0 271.716 220.268 491.986 491.986 491.986 126.548 0 241.924-47.796 329.098-126.298-67.106 34.31-143.124 53.668-223.668 53.668z" fill="#FCC56B" /><path d="M630.704 722.638m-93.802 0a93.802 93.802 0 1 0 187.604 0 93.802 93.802 0 1 0-187.604 0Z" fill="#7F184C" /><path d="M984.968 315.608c-7.61-25.84-24.538-49.402-49.242-67.892-36.894-27.612-84.006-38.754-126.008-29.798-40.318 8.596-74.284 35.528-95.64 75.838-19.318 36.458-25.998 79.766-18.33 118.81 17.202 87.598 103.476 138.402 177.798 138.402 3.44 0 6.864-0.11 10.248-0.328 11.03-0.718 19.392-10.24 18.678-21.268a20.012 20.012 0 0 0-21.268-18.678c-30.524 1.988-63.738-7.506-91.11-26.02-29.29-19.818-48.844-48.164-55.062-79.824-5.844-29.752-0.452-64.28 14.422-92.354 15.716-29.66 40.082-49.346 68.616-55.43 30.42-6.48 66.31 2.212 93.676 22.696 10.308 7.718 18.67 16.522 24.9 26.012a473.75 473.75 0 0 1 10.512 23.128 70.35 70.35 0 0 1 2.164 12.716c1.766 23.292-8.196 49.266-26.644 69.48-15.986 17.514-35.872 27.73-54.562 28.02-20.65 0.282-42.532-10.838-55.854-28.428-3.136-4.14-18.52-26.068-13.348-51.328 1.158-5.654 3.312-16.182 12.382-24.172 9.538-8.4 21.258-9.078 24.746-9.078h0.078c18.632 0.056 39.092 14.65 40.534 28.826 0.2 2.348 0.006 11.74-4.616 14.802-2.224 1.474-6.604 2.736-8.718 1.172-1.838-1.358-2.706-4.296-2.162-7.318 1.962-10.878-5.266-21.29-16.142-23.252-10.88-1.954-21.288 5.262-23.252 16.142-3.24 17.958 3.736 36.258 17.776 46.628 17.834 13.172 40.278 9.486 54.602 0 25.17-16.674 22.71-48.55 22.348-52.132-3.172-31.23-36.174-64.764-80.248-64.898-8.986 0.014-31.77 1.782-51.4 19.07-19.14 16.858-23.5 38.166-25.142 46.186-8.414 41.102 13.684 74.33 20.658 83.528 21.082 27.836 54.94 44.764 88.388 44.284 29.678-0.464 60.114-15.43 83.506-41.062a148.04 148.04 0 0 0 20.554-28.8c7.408 33.408 11.174 67.714 11.174 102.72 0 260.248-211.724 471.968-471.97 471.968S40.03 772.248 40.03 512 251.752 40.03 512 40.03c86.774 0 171.59 23.74 245.282 68.662 9.436 5.754 21.752 2.764 27.508-6.674 5.754-9.438 2.764-21.752-6.674-27.508C698.144 25.762 606.126 0 512 0 229.68 0 0 229.68 0 512c0 282.316 229.68 512 512 512s512-229.68 512-511.998c0-68.338-13.13-134.256-39.032-196.394z" fill="" /><path d="M630.706 836.448c62.752 0 113.806-51.054 113.806-113.806 0-62.756-51.054-113.806-113.806-113.806s-113.806 51.054-113.806 113.806c0 62.756 51.054 113.806 113.806 113.806z m0-187.582c40.68 0 73.776 33.096 73.776 73.776s-33.096 73.776-73.776 73.776-73.776-33.094-73.776-73.776 33.096-73.776 73.776-73.776zM474.78 340.338c-10.878-1.954-21.288 5.262-23.252 16.142-3.24 17.958 3.736 36.262 17.776 46.628 17.838 13.172 40.274 9.486 54.606 0 25.168-16.674 22.708-48.55 22.344-52.132-3.172-31.23-36.174-64.764-80.248-64.898-8.946-0.002-31.768 1.782-51.4 19.07-19.134 16.852-23.498 38.162-25.142 46.186-8.414 41.112 13.688 74.332 20.658 83.528 21.082 27.84 54.95 44.824 88.388 44.284 29.678-0.464 60.116-15.43 83.506-41.064 25.744-28.21 39.574-65.402 36.988-99.49-2.634-34.748-21.634-67.018-53.504-90.872-36.896-27.618-84.008-38.756-126.008-29.8-40.318 8.596-74.284 35.528-95.644 75.838-19.316 36.458-25.998 79.766-18.33 118.81 17.202 87.598 103.476 138.402 177.798 138.402 3.44 0 6.864-0.11 10.248-0.328 11.03-0.718 19.392-10.24 18.678-21.268a20.008 20.008 0 0 0-21.268-18.678c-30.522 1.98-63.738-7.504-91.11-26.02-29.29-19.818-48.844-48.164-55.062-79.824-5.842-29.752-0.45-64.28 14.424-92.354 15.716-29.66 40.082-49.346 68.616-55.43 30.42-6.48 66.31 2.212 93.676 22.696 22.484 16.832 35.826 38.796 37.576 61.856 1.766 23.292-8.192 49.266-26.64 69.478-15.986 17.516-35.872 27.732-54.566 28.024-20.674 0.282-42.53-10.838-55.858-28.432-3.136-4.14-18.518-26.06-13.346-51.322 1.158-5.658 3.314-16.188 12.382-24.176 9.612-8.468 21.454-8.988 24.824-9.078 18.632 0.056 39.092 14.65 40.534 28.826 0.2 2.348 0.006 11.74-4.614 14.802-2.222 1.474-6.61 2.736-8.722 1.172-1.838-1.358-2.706-4.296-2.162-7.318 1.958-10.884-5.268-21.294-16.146-23.258z" fill="" /><path d="M827.728 136.394m-20.014 0a20.014 20.014 0 1 0 40.028 0 20.014 20.014 0 1 0-40.028 0Z" fill="" /></svg>