<?xml version="1.0" encoding="utf-8"?>
<!-- Uploaded to: SVG Repo, www.svgrepo.com, Generator: SVG Repo Mixer Tools -->
<svg width="800px" height="800px" viewBox="0 0 1024 1024" class="icon"  version="1.1" xmlns="http://www.w3.org/2000/svg"><path d="M512.002 512.002m-491.988 0a491.988 491.988 0 1 0 983.976 0 491.988 491.988 0 1 0-983.976 0Z" fill="#FDDF6D" /><path d="M617.43 931.356c-271.716 0-491.986-220.268-491.986-491.986 0-145.168 62.886-275.632 162.888-365.684C129.054 155.124 20.014 320.828 20.014 512c0 271.716 220.268 491.986 491.986 491.986 126.548 0 241.924-47.796 329.098-126.298-67.106 34.31-143.124 53.668-223.668 53.668z" fill="#FCC56B" /><path d="M426.314 359.704m-111.15 0a111.15 111.15 0 1 0 222.3 0 111.15 111.15 0 1 0-222.3 0Z" fill="#FFFFFF" /><path d="M826.554 359.704m-142.718 0a142.718 142.718 0 1 0 285.436 0 142.718 142.718 0 1 0-285.436 0Z" fill="#FFFFFF" /><path d="M445.02 359.704m-40.03 0a40.03 40.03 0 1 0 80.06 0 40.03 40.03 0 1 0-80.06 0Z" fill="#7F184C" /><path d="M856.468 359.704m-40.03 0a40.03 40.03 0 1 0 80.06 0 40.03 40.03 0 1 0-80.06 0Z" fill="#7F184C" /><path d="M622.278 637.214c84.334 0 152.702 68.368 152.702 152.702v46.444H469.576v-46.444c0-84.334 68.368-152.702 152.702-152.702z" fill="#7F184C" /><path d="M530.608 692.034h194.49c3.934 0 7.566-1.644 10.542-4.408-27.946-30.95-68.378-50.41-113.36-50.41-41.69 0-79.458 16.724-107.014 43.808 3.23 6.612 8.886 11.01 15.342 11.01z" fill="#F2F2F2" /><path d="M600.368 780.032c-41.444-25.112-85.876-31.316-127.574-21.374a153.274 153.274 0 0 0-3.214 31.258v46.444h192.302c-17.278-22.778-37.904-42.022-61.514-56.328z" fill="#FC4C59" /><path d="M975.348 293.936c-1.562-3.52-6.62-13.402-7.106-14.118-27.968-49.404-80.98-82.84-141.688-82.84-89.732 0-162.732 73-162.732 162.732s73 162.732 162.732 162.732c66.78 0 124.268-40.446 149.32-98.118a475.83 475.83 0 0 1 8.096 87.672c0 260.248-211.724 471.968-471.97 471.968S40.03 772.248 40.03 512 251.752 40.03 512 40.03c82.144 0 163.024 21.418 233.898 61.938 9.596 5.492 21.824 2.156 27.308-7.44 5.486-9.596 2.156-21.824-7.44-27.308C688.852 23.244 601.1 0 512 0 229.68 0 0 229.68 0 512c0 282.316 229.68 512 512 512s512-229.68 512-511.998c0-76.416-16.374-149.704-48.652-218.066z m-26.094 65.776c0 67.66-55.044 122.704-122.704 122.704s-122.704-55.046-122.704-122.704 55.044-122.704 122.704-122.704c46.476 0 86.998 25.974 107.816 64.168 1.674 3.344 3.302 6.7 4.888 10.072a121.864 121.864 0 0 1 10 48.464z" fill="" /><path d="M557.492 359.712c0-72.328-58.84-131.166-131.166-131.166s-131.166 58.84-131.166 131.166 58.84 131.166 131.166 131.166 131.166-58.838 131.166-131.166z m-131.166 91.136c-50.252 0-91.136-40.884-91.136-91.136s40.884-91.136 91.136-91.136 91.136 40.884 91.136 91.136c0 50.254-40.882 91.136-91.136 91.136zM469.576 856.376H774.98c11.054 0 20.014-8.958 20.014-20.014v-46.444c0-95.238-77.48-172.716-172.716-172.716s-172.716 77.478-172.716 172.716v46.444c0 11.056 8.962 20.014 20.014 20.014z m20.016-66.46c0-73.164 59.524-132.686 132.686-132.686 73.164 0 132.686 59.524 132.686 132.686v26.43H489.592v-26.43z" fill="" /><path d="M816.44 125.182m-20.014 0a20.014 20.014 0 1 0 40.028 0 20.014 20.014 0 1 0-40.028 0Z" fill="" /><path d="M300.576 556.564c-36.536 0-66.156 29.62-66.156 66.156h132.314c-0.004-36.538-29.622-66.156-66.158-66.156zM877.628 556.564c-36.536 0-66.156 29.62-66.156 66.156h132.314c0-36.538-29.622-66.156-66.158-66.156z" fill="#F9A880" /></svg>