<?xml version="1.0" encoding="utf-8"?>
<!-- Uploaded to: SVG Repo, www.svgrepo.com, Generator: SVG Repo Mixer Tools -->
<svg width="800px" height="800px" viewBox="0 0 1024 1024" class="icon"  version="1.1" xmlns="http://www.w3.org/2000/svg"><path d="M512.002 512.002m-491.988 0a491.988 491.988 0 1 0 983.976 0 491.988 491.988 0 1 0-983.976 0Z" fill="#3FA9F5" /><path d="M617.432 931.356c-271.716 0-491.986-220.268-491.986-491.986 0-145.168 62.886-275.632 162.888-365.684C129.054 155.124 20.014 320.828 20.014 512c0 271.716 220.268 491.986 491.986 491.986 126.548 0 241.924-47.796 329.098-126.298-67.102 34.31-143.124 53.668-223.666 53.668z" fill="#1E96EC" /><path d="M426.314 359.704m-142.718 0a142.718 142.718 0 1 0 285.436 0 142.718 142.718 0 1 0-285.436 0Z" fill="#FFFFFF" /><path d="M826.554 359.704m-142.718 0a142.718 142.718 0 1 0 285.436 0 142.718 142.718 0 1 0-285.436 0Z" fill="#FFFFFF" /><path d="M450.33 359.704m-40.03 0a40.03 40.03 0 1 0 80.06 0 40.03 40.03 0 1 0-80.06 0Z" fill="#224275" /><path d="M856.468 359.704m-40.03 0a40.03 40.03 0 1 0 80.06 0 40.03 40.03 0 1 0-80.06 0Z" fill="#224275" /><path d="M761.72 774.486a20.006 20.006 0 0 1-17.504-10.28c-24.46-43.906-70.842-71.186-121.044-71.186-48.902 0-95.762 27.49-122.292 71.738-5.682 9.48-17.976 12.554-27.458 6.874-9.482-5.684-12.558-17.976-6.874-27.458 33.72-56.244 93.736-91.184 156.624-91.184 64.712 0 124.492 35.152 156.014 91.736 5.38 9.656 1.914 21.846-7.744 27.222a19.902 19.902 0 0 1-9.722 2.538z" fill="#224275" /><path d="M589.06 359.712c0-89.732-73.002-162.732-162.732-162.732s-162.732 73-162.732 162.732c0 89.73 73 162.73 162.732 162.73s162.732-73 162.732-162.73z m-162.734 122.7c-67.66 0-122.704-55.044-122.704-122.7s55.044-122.704 122.704-122.704 122.704 55.046 122.704 122.704-55.046 122.7-122.704 122.7zM473.422 771.634c9.482 5.678 21.776 2.604 27.458-6.874 26.528-44.248 73.388-71.738 122.292-71.738 50.202 0 96.582 27.278 121.044 71.186a20.004 20.004 0 0 0 27.226 7.748c9.658-5.38 13.124-17.568 7.744-27.222-31.522-56.586-91.302-91.736-156.014-91.736-62.886 0-122.904 34.94-156.624 91.184-5.684 9.476-2.608 21.77 6.874 27.452z" fill="" /><path d="M975.318 293.872a162.382 162.382 0 0 0-5.028-10.346c-0.262-0.526-0.504-1.056-0.768-1.58a20.408 20.408 0 0 0-1.386-2.306c-27.994-49.306-80.95-82.664-141.586-82.664-89.732 0-162.732 73-162.732 162.732 0 89.73 73 162.73 162.732 162.73 66.78 0 124.268-40.446 149.32-98.118a476.014 476.014 0 0 1 8.096 87.676c0 260.248-211.724 471.968-471.97 471.968S40.03 772.248 40.03 512 251.752 40.03 512 40.03c83.416 0 165.388 22.048 237.056 63.762 9.548 5.556 21.806 2.324 27.364-7.232 5.558-9.554 2.324-21.806-7.23-27.366C691.418 23.926 602.48 0 512 0 229.68 0 0 229.68 0 512c0 282.316 229.68 512 512 512s512-229.68 512-511.998c0-76.444-16.386-149.752-48.682-218.13z m-26.064 65.84c0 67.66-55.044 122.7-122.704 122.7s-122.704-55.044-122.704-122.7 55.044-122.704 122.704-122.704c46.468 0 86.986 25.968 107.808 64.154a480.478 480.478 0 0 1 4.868 10.016 121.966 121.966 0 0 1 10.028 48.534z" fill="" /><path d="M821.084 130.95m-20.014 0a20.014 20.014 0 1 0 40.028 0 20.014 20.014 0 1 0-40.028 0Z" fill="" /></svg>