<?xml version="1.0" encoding="utf-8"?>
<!-- Uploaded to: SVG Repo, www.svgrepo.com, Generator: SVG Repo Mixer Tools -->
<svg width="800px" height="800px" viewBox="0 0 1024 1024" class="icon"  version="1.1" xmlns="http://www.w3.org/2000/svg"><path d="M512.002 512.002m-491.988 0a491.988 491.988 0 1 0 983.976 0 491.988 491.988 0 1 0-983.976 0Z" fill="#FDDF6D" /><path d="M617.43 931.356c-271.716 0-491.986-220.268-491.986-491.986 0-145.168 62.886-275.632 162.888-365.684C129.054 155.124 20.014 320.828 20.014 512c0 271.716 220.268 491.986 491.986 491.986 126.548 0 241.924-47.796 329.098-126.298-67.106 34.31-143.124 53.668-223.668 53.668z" fill="#FCC56B" /><path d="M583.584 842.35c-109.984 0-199.146-89.162-199.146-199.146h398.292c0 109.984-89.162 199.146-199.146 199.146z" fill="#7F184C" /><path d="M426.314 359.704m-60.044 0a60.044 60.044 0 1 0 120.088 0 60.044 60.044 0 1 0-120.088 0Z" fill="#FFFFFF" /><path d="M764.374 359.704m-60.044 0a60.044 60.044 0 1 0 120.088 0 60.044 60.044 0 1 0-120.088 0Z" fill="#FFFFFF" /><path d="M587.53 759.732c-53.832-25.01-113.568-21.376-162.01 4.564 36.4 47.442 93.642 78.058 158.06 78.058a198.412 198.412 0 0 0 79.806-16.684c-17.928-27.748-43.638-50.97-75.856-65.938z" fill="#FC4C59" /><path d="M300.572 481.542c-36.536 0-66.156 29.62-66.156 66.156h132.314c0-36.536-29.618-66.156-66.158-66.156zM877.628 472.678c-36.536 0-66.156 29.62-66.156 66.156h132.314c-0.002-36.538-29.622-66.156-66.158-66.156z" fill="#F9A880" /><path d="M436.782 643.204v31.086c0 13.108 10.626 23.732 23.732 23.732H714.16c13.108 0 23.732-10.626 23.732-23.732v-31.086H436.782z" fill="#F2F2F2" /><path d="M598.670912 212.010313a102.74 57.374 15.801 1 0 31.245541-110.412045 102.74 57.374 15.801 1 0-31.245541 110.412045Z" fill="#FCEB88" /><path d="M935.442 224.096c-56.546-83.01-135.324-147.116-227.816-185.386-10.212-4.224-21.922 0.63-26.148 10.842-4.224 10.216 0.628 21.92 10.842 26.148 85.266 35.28 157.894 94.39 210.04 170.934 53.388 78.38 81.612 170.14 81.612 265.368 0 260.248-211.724 471.97-471.97 471.97S40.03 772.244 40.03 512 251.752 40.03 512 40.03c11.054 0 20.014-8.962 20.014-20.014S523.054 0 512 0C229.68 0 0 229.68 0 512s229.68 512 512 512 512-229.68 512-512c0-103.3-30.622-202.856-88.558-287.904z" fill="" /><path d="M506.386 359.712c0-44.144-35.914-80.058-80.058-80.058s-80.058 35.914-80.058 80.058c0 44.144 35.914 80.058 80.058 80.058s80.058-35.914 80.058-80.058z m-120.088 0c0-22.072 17.958-40.03 40.03-40.03s40.03 17.958 40.03 40.03c0 22.072-17.958 40.03-40.03 40.03s-40.03-17.958-40.03-40.03zM844.43 359.712c0-44.144-35.914-80.058-80.058-80.058s-80.058 35.914-80.058 80.058c0 44.144 35.914 80.058 80.058 80.058s80.058-35.914 80.058-80.058z m-120.088 0c0-22.072 17.958-40.03 40.03-40.03s40.03 17.958 40.03 40.03c0 22.072-17.958 40.03-40.03 40.03s-40.03-17.958-40.03-40.03zM364.422 643.204c0 120.846 98.314 219.16 219.16 219.16s219.16-98.314 219.16-219.16c0-11.054-8.962-20.014-20.014-20.014H384.436c-11.052-0.002-20.014 8.96-20.014 20.014z m397.182 20.014c-9.984 89.39-86.012 159.116-178.022 159.116-92.008 0-168.038-69.726-178.022-159.116h356.044z" fill="" /><path d="M628.862 33.734m-20.014 0a20.014 20.014 0 1 0 40.028 0 20.014 20.014 0 1 0-40.028 0Z" fill="" /></svg>