<?xml version="1.0" encoding="utf-8"?>
<!-- Uploaded to: SVG Repo, www.svgrepo.com, Generator: SVG Repo Mixer Tools -->
<svg width="800px" height="800px" viewBox="0 0 1024 1024" class="icon"  version="1.1" xmlns="http://www.w3.org/2000/svg"><path d="M512.003 512.003m-491.986961 0a491.986961 491.986961 0 1 0 983.973922 0 491.986961 491.986961 0 1 0-983.973922 0Z" fill="#FDDF6D" /><path d="M617.431206 931.355819c-271.716531 0-491.984961-220.26843-491.984961-491.984961 0-145.168284 62.886123-275.632538 162.888318-365.684714-159.280311 81.438159-268.320524 247.140483-268.320524 438.312856 0 271.716531 220.26843 491.984961 491.984961 491.984961 126.548247 0 241.924473-47.794093 329.096643-126.298247-67.100131 34.312067-143.12228 53.670105-223.664437 53.670105z" fill="#FCC56B" /><path d="M480.736939 392.648767a20.010039 20.010039 0 0 1-17.504034-10.28002c-12.844025-23.054045-37.190073-37.374073-63.542124-37.374073-25.70205 0-50.380098 14.530028-64.404126 37.924074-5.686011 9.478019-17.978035 12.556025-27.458054 6.874013-9.482019-5.684011-12.558025-17.976035-6.874013-27.458053 21.216041-35.388069 59.048115-57.372112 98.736193-57.372112 40.86208 0 78.610154 22.194043 98.510192 57.922113 5.380011 9.658019 1.914004 21.848043-7.744015 27.226053a19.868039 19.868039 0 0 1-9.720019 2.538005zM832.995627 392.648767a20.010039 20.010039 0 0 1-17.504034-10.28002c-12.844025-23.054045-37.190073-37.374073-63.542124-37.374073-25.70205 0-50.380098 14.530028-64.404126 37.924074-5.686011 9.478019-17.978035 12.556025-27.458054 6.874013-9.482019-5.684011-12.558025-17.976035-6.874013-27.458053 21.216041-35.388069 59.048115-57.372112 98.736193-57.372112 40.86208 0 78.610154 22.194043 98.510192 57.922113 5.380011 9.658019 1.914004 21.848043-7.744015 27.226053a19.868039 19.868039 0 0 1-9.720019 2.538005z" fill="#7F184C" /><path d="M946.531849 241.088471c-49.284096-78.890154-119.048233-142.940279-201.748394-185.224362-9.836019-5.03001-21.898043-1.134002-26.932053 8.708017s-1.134002 21.902043 8.710017 26.932053c76.248149 38.988076 140.572275 98.048192 186.018363 170.792333 46.704091 74.756146 71.388139 161.102315 71.38814 249.702488 0 260.246508-211.726414 471.970922-471.970922 471.970922S40.030078 772.247508 40.030078 511.999 251.754492 40.030078 511.999 40.030078c11.056022 0 20.014039-8.962018 20.014039-20.014039S523.055022 0 511.999 0C229.680449 0 0 229.682449 0 511.999s229.680449 511.999 511.999 511.999 511.999-229.680449 511.999-511.999c0.004-96.106188-26.784052-189.786371-77.466151-270.910529z" fill="" /><path d="M399.690781 304.970596c-39.688078 0-77.520151 21.982043-98.736193 57.370112-5.684011 9.478019-2.608005 21.774043 6.874013 27.458053 9.478019 5.682011 21.770043 2.608005 27.458054-6.874013 14.024027-23.394046 38.704076-37.924074 64.404126-37.924074 26.352051 0 50.702099 14.320028 63.542124 37.372073a20.012039 20.012039 0 0 0 27.226053 7.748015c9.658019-5.380011 13.124026-17.568034 7.744015-27.226053-19.902039-35.73007-57.648113-57.924113-98.512192-57.924113zM653.213276 362.340708c-5.684011 9.478019-2.608005 21.774043 6.874013 27.458053 9.478019 5.682011 21.770043 2.608005 27.458054-6.874013 14.024027-23.394046 38.704076-37.924074 64.404126-37.924074 26.352051 0 50.702099 14.320028 63.542124 37.372073a20.012039 20.012039 0 0 0 27.226053 7.748015c9.658019-5.380011 13.124026-17.568034 7.744015-27.226053-19.900039-35.72807-57.648113-57.922113-98.510192-57.922113-39.690078-0.002-77.520151 21.980043-98.738193 57.368112zM631.359233 627.797226l63.812125-12.016023c15.902031-2.994006 55.566109-17.312034 56.61011 10.752021 0.484001 13.002025-8.910017 17.428034-18.278035 23.148045-11.932023 7.286014-23.860047 14.574028-35.79207 21.858043-11.464022 7.002014-22.294044 18.782037-12.530025 32.640063 6.170012 8.758017 21.298042 12.462024 30.59006 16.518033 8.778017 3.832007 26.292051 8.376016 32.200063 16.062031 9.452018 12.294024 0.168 28.194055-13.924027 29.024057-24.564048 1.450003-51.0981-3.568007-75.648148-5.282011-7.270014-0.508001-14.886029-1.742003-22.182043-1.548003-21.384042 0.572001-30.52006 29.924058-8.676017 38.530076 7.176014 2.826006 16.604032 2.150004 24.146047 2.676005l41.854082 2.922006c26.196051 1.828004 53.970105 8.392016 76.342149-9.540019 17.784035-14.256028 25.80205-38.150075 20.018039-60.242118-6.450013-24.626048-24.100047-33.532065-45.110088-43.618085 27.396054-16.730033 51.716101-35.378069 46.44009-71.89614-5.404011-37.408073-41.15808-52.926103-74.908146-46.728092-24.722048 4.540009-49.404096 9.302018-74.108145 13.954028-6.976014 1.312003-15.52003 1.716003-22.158043 4.588009-21.154041 9.160018-11.996023 42.598083 11.302022 38.198074z" fill="" /><path d="M663.073295 45.714089m-20.014039 0a20.014039 20.014039 0 1 0 40.028078 0 20.014039 20.014039 0 1 0-40.028078 0Z" fill="" /><path d="M300.574587 449.820879c-36.536071 0-66.156129 29.618058-66.156129 66.156129h132.312258c0.002-36.538071-29.620058-66.156129-66.156129-66.156129zM877.629714 449.820879c-36.536071 0-66.156129 29.618058-66.156129 66.156129h132.312258c0-36.538071-29.618058-66.156129-66.156129-66.156129z" fill="#F9A880" /></svg>