<?xml version="1.0" encoding="utf-8"?>
<!-- Uploaded to: SVG Repo, www.svgrepo.com, Generator: SVG Repo Mixer Tools -->
<svg width="800px" height="800px" viewBox="0 0 1024 1024" class="icon"  version="1.1" xmlns="http://www.w3.org/2000/svg"><path d="M451.596 511.994m-433.942 0a433.942 433.942 0 1 0 867.884 0 433.942 433.942 0 1 0-867.884 0Z" fill="#FDDF6D" /><path d="M325.518 457.156c-32.226 0-58.35 26.124-58.35 58.35h116.702c0-32.226-26.124-58.35-58.352-58.35zM740.34 457.156c-32.226 0-58.35 26.124-58.35 58.35h116.702c-0.002-32.226-26.126-58.35-58.352-58.35z" fill="#F9A880" /><path d="M544.586 881.878c-239.658 0-433.94-194.28-433.94-433.94 0-128.04 55.466-243.112 143.67-322.54C113.828 197.23 17.654 343.384 17.654 512c0 239.658 194.28 433.94 433.94 433.94 111.618 0 213.382-42.156 290.27-111.398-59.188 30.264-126.24 47.336-197.278 47.336z" fill="#FCC56B" /><path d="M734.65 406.73a17.648 17.648 0 0 1-15.438-9.066c-11.328-20.334-32.804-32.964-56.048-32.964-22.67 0-44.436 12.816-56.806 33.45a17.654 17.654 0 0 1-30.282-18.154c18.712-31.214 52.082-50.604 87.088-50.604 36.044 0 69.338 19.576 86.89 51.088a17.652 17.652 0 0 1-6.83 24.014 17.556 17.556 0 0 1-8.574 2.236zM424.018 406.73a17.648 17.648 0 0 1-15.438-9.066c-11.328-20.334-32.804-32.964-56.048-32.964-22.67 0-44.436 12.816-56.806 33.45a17.654 17.654 0 0 1-30.282-18.154c18.712-31.214 52.082-50.604 87.088-50.604 36.044 0 69.338 19.576 86.89 51.088a17.652 17.652 0 0 1-6.83 24.014 17.572 17.572 0 0 1-8.574 2.236z" fill="#7F184C" /><path d="M977.584 601.29c-24.52-16.858-55.552-15.1-77.646 1.136a6.106 6.106 0 0 1-6.678 0.378 6.106 6.106 0 0 1-3.004-5.976c3.044-27.226-10.894-54.974-37.694-67.824-29.628-14.206-65.8-4.342-84.148 22.914-11.234 16.69-13.916 36.316-9.356 54.07l28.738 129.386c4.302 19.372 24.27 30.906 43.202 24.95l123.988-38.994c18.826-4.466 35.686-17.02 44.908-36.198 14.142-29.422 4.588-65.346-22.31-83.842z" fill="#FD4DD7" /><path d="M719.214 397.666a17.646 17.646 0 0 0 24.012 6.832 17.652 17.652 0 0 0 6.83-24.014c-17.552-31.512-50.848-51.088-86.89-51.088-35.006 0-68.374 19.388-87.088 50.602a17.652 17.652 0 0 0 6.064 24.218 17.654 17.654 0 0 0 24.218-6.064c12.37-20.634 34.136-33.45 56.806-33.45 23.246 0 44.722 12.63 56.048 32.964zM352.532 329.396c-35.006 0-68.374 19.388-87.088 50.602a17.654 17.654 0 0 0 30.282 18.154c12.37-20.634 34.136-33.45 56.806-33.45 23.246 0 44.722 12.63 56.048 32.962a17.646 17.646 0 0 0 24.012 6.832 17.652 17.652 0 0 0 6.83-24.014c-17.552-31.51-50.846-51.086-86.89-51.086zM677.55 656.044c20.362-15.088 26.882-44.62 14.972-66.948-11.152-20.906-33.884-29.406-56.47-25.8-27.116 4.33-54.37 9.638-81.238 15.298-5.02 1.056-9.67 1.728-13.622 5.632-8.754 8.65-5.84 23.916 5.426 28.772 9.172 3.954 23.698-1.398 32.866-3.124l49.51-9.324c11.204-2.108 27.928-7.54 33.29 7.076 5.652 15.404-9.83 22.456-20.262 28.824-10.622 6.488-22.552 12.266-32.452 19.816-9.952 7.594-11.66 21.892-0.706 29.678 4.436 3.154 10.434 4.88 15.348 7.024 11.32 4.94 37.072 11.166 38.666 25.344 2.036 18.096-14.53 17.592-26.436 16.762l-49.982-3.488c-9.354-0.652-23.036-4.036-32.306-0.854-11.606 3.982-15.694 18.972-7.6 28.278 4.146 4.766 9.606 5.698 15.432 6.262 28.526 2.752 58.452 6.276 87.104 6.08 24.534-0.168 45.53-20.24 48.816-44.16 1.832-13.336-1.714-27.118-9.772-37.9-8.358-11.182-19.226-14.838-31.212-20.568 6.828-4.17 14.196-7.924 20.628-12.68 13.048-9.666-0.42 0.312 0 0z" fill="" /><path d="M987.584 586.742a84.83 84.83 0 0 0-80.03-8.666c-3.776-27.76-21.256-52.476-47.36-64.99-37.46-17.964-83.216-5.508-106.426 28.972-13.444 19.972-17.77 44.75-11.886 68.022l28.678 129.12a51.572 51.572 0 0 0 12.838 24.162c-78.586 103.568-201.322 164.924-331.804 164.924-229.54 0-416.286-186.746-416.286-416.286S222.052 95.714 451.592 95.714c95.566 0 188.91 33.188 262.834 93.45 72.906 59.43 124.014 142.46 143.912 233.796a17.65 17.65 0 0 0 21.008 13.49 17.654 17.654 0 0 0 13.49-21.008c-21.592-99.108-77.03-189.19-156.1-253.646-80.208-65.384-181.474-101.392-285.144-101.392C202.582 60.408 0 262.99 0 512s202.582 451.592 451.592 451.592c143.832 0 279.01-68.702 364.042-184.356 1.738 0.176 3.482 0.292 5.232 0.292 5.188 0 10.392-0.782 15.422-2.364l123.42-38.816c24.636-6.05 45.056-22.624 56.09-45.566 17.85-37.12 5.722-82.706-28.214-106.04z m-3.602 90.736c-6.496 13.506-18.552 23.23-33.076 26.676-0.412 0.098-0.82 0.21-1.222 0.336l-123.99 38.994a16.044 16.044 0 0 1-12.96-1.424 16.022 16.022 0 0 1-7.71-10.514l-28.734-129.384a13.496 13.496 0 0 0-0.134-0.562c-3.544-13.804-1.094-27.946 6.902-39.822 9.336-13.868 24.94-21.61 40.88-21.61 7.106 0 14.278 1.536 20.994 4.756 18.94 9.08 30.104 29.154 27.78 49.952a23.776 23.776 0 0 0 11.714 23.212 23.78 23.78 0 0 0 25.97-1.438c16.878-12.404 39.862-12.732 57.19-0.814 19.722 13.562 26.77 40.066 16.396 61.642z" fill="" /><path d="M883.724 480.076m-17.654 0a17.654 17.654 0 1 0 35.308 0 17.654 17.654 0 1 0-35.308 0Z" fill="" /></svg>