<?xml version="1.0" encoding="utf-8"?>
<!-- Uploaded to: SVG Repo, www.svgrepo.com, Generator: SVG Repo Mixer Tools -->
<svg width="800px" height="800px" viewBox="0 0 1024 1024" class="icon"  version="1.1" xmlns="http://www.w3.org/2000/svg"><path d="M512.004 512.002m-491.988 0a491.988 491.988 0 1 0 983.976 0 491.988 491.988 0 1 0-983.976 0Z" fill="#FDDF6D" /><path d="M617.43 931.356c-271.716 0-491.986-220.268-491.986-491.986 0-145.168 62.886-275.632 162.888-365.684C129.056 155.124 20.016 320.828 20.016 512c0 271.716 220.268 491.986 491.986 491.986 126.548 0 241.924-47.796 329.098-126.298-67.106 34.31-143.124 53.668-223.67 53.668z" fill="#FCC56B" /><path d="M832.922 392.648a20.01 20.01 0 0 1-17.504-10.28c-12.844-23.054-37.192-37.374-63.546-37.374-25.702 0-50.382 14.53-64.404 37.924-5.686 9.478-17.976 12.556-27.458 6.874-9.482-5.684-12.558-17.976-6.874-27.458 21.216-35.388 59.048-57.372 98.736-57.372 40.864 0 78.612 22.194 98.512 57.922 5.38 9.658 1.914 21.848-7.744 27.226a19.866 19.866 0 0 1-9.718 2.538z" fill="#7F184C" /><path d="M430.558 364.988m-60.044 0a60.044 60.044 0 1 0 120.088 0 60.044 60.044 0 1 0-120.088 0Z" fill="#FFFFFF" /><path d="M684.408 29.758c-10.408-3.718-21.862 1.698-25.586 12.108-3.722 10.408 1.7 21.862 12.108 25.584C858.17 134.398 983.972 313.048 983.972 512c0 260.248-211.724 471.97-471.968 471.97S40.03 772.244 40.03 512 251.756 40.03 512.002 40.03c11.056 0 20.014-8.962 20.014-20.014S523.058 0 512.002 0c-282.316 0-512 229.68-512 512s229.68 512 512 512C794.318 1024 1024 794.32 1024 512c0.002-215.82-136.472-409.618-339.592-482.242z" fill="" /><path d="M660.014 389.796a20.016 20.016 0 0 0 27.458-6.874c14.024-23.394 38.704-37.924 64.404-37.924 26.356 0 50.704 14.32 63.546 37.372a20.012 20.012 0 0 0 27.226 7.748c9.658-5.38 13.124-17.568 7.744-27.226-19.9-35.728-57.65-57.922-98.512-57.922-39.688 0-77.52 21.982-98.736 57.37-5.688 9.48-2.612 21.774 6.87 27.456zM350.498 364.996c0 44.144 35.914 80.058 80.058 80.058s80.058-35.914 80.058-80.058-35.914-80.058-80.058-80.058-80.058 35.914-80.058 80.058z m120.092 0c0 22.072-17.958 40.03-40.03 40.03-22.072 0-40.03-17.958-40.03-40.03 0-22.072 17.958-40.03 40.03-40.03 22.072 0 40.03 17.958 40.03 40.03zM768.182 675.312c23.092-17.104 30.484-50.586 16.978-75.904-12.644-23.7-38.418-33.34-64.02-29.25-30.742 4.91-61.642 10.928-92.106 17.344-5.692 1.198-10.962 1.958-15.444 6.386-9.922 9.804-6.626 27.114 6.146 32.622 10.4 4.484 26.874-1.586 37.268-3.542l56.132-10.57c12.706-2.392 31.656-8.544 37.736 8.022 6.412 17.466-11.142 25.458-22.968 32.682-12.044 7.354-25.568 13.904-36.792 22.468-11.282 8.61-13.22 24.82-0.8 33.648 5.03 3.576 11.83 5.532 17.402 7.964 12.834 5.602 42.03 12.662 43.84 28.734 2.312 20.516-16.476 19.946-29.974 19.004l-56.668-3.954c-10.606-0.74-26.118-4.576-36.626-0.968-13.158 4.516-17.794 21.51-8.62 32.06 4.7 5.404 10.89 6.46 17.496 7.098 32.342 3.12 66.27 7.114 98.756 6.894 27.816-0.19 51.622-22.948 55.348-50.066 2.076-15.12-1.942-30.746-11.08-42.972-9.476-12.678-21.798-16.822-35.386-23.318 7.736-4.732 16.088-8.992 23.382-14.382 14.794-10.958-0.478 0.354 0 0z" fill="" /><path d="M610.77 30.078m-20.014 0a20.014 20.014 0 1 0 40.028 0 20.014 20.014 0 1 0-40.028 0Z" fill="" /><path d="M300.576 476.504c-36.536 0-66.156 29.62-66.156 66.156h132.314c-0.002-36.536-29.622-66.156-66.158-66.156zM877.63 476.504c-36.536 0-66.156 29.62-66.156 66.156h132.314c0-36.536-29.622-66.156-66.158-66.156z" fill="#F9A880" /></svg>