<?xml version="1.0" encoding="utf-8"?>
<!-- Uploaded to: SVG Repo, www.svgrepo.com, Generator: SVG Repo Mixer Tools -->
<svg width="800px" height="800px" viewBox="0 0 1024 1024" class="icon"  version="1.1" xmlns="http://www.w3.org/2000/svg"><path d="M512.002 512.002m-491.988 0a491.988 491.988 0 1 0 983.976 0 491.988 491.988 0 1 0-983.976 0Z" fill="#FDDF6D" /><path d="M617.43 931.356c-271.716 0-491.986-220.268-491.986-491.986 0-145.168 62.886-275.632 162.888-365.684C129.054 155.124 20.014 320.828 20.014 512c0 271.716 220.268 491.986 491.986 491.986 126.548 0 241.924-47.796 329.098-126.298-67.106 34.31-143.124 53.668-223.668 53.668z" fill="#FCC56B" /><path d="M583.584 842.35c-109.984 0-199.146-89.162-199.146-199.146h398.292c0 109.984-89.162 199.146-199.146 199.146zM492.588 379.726c-11.054 0-20.014-8.962-20.014-20.014 0-25.816-21.002-46.818-46.818-46.818s-46.818 21.004-46.818 46.818c0 11.054-8.962 20.014-20.014 20.014-11.054 0-20.014-8.962-20.014-20.014 0-47.888 38.962-86.848 86.848-86.848s86.848 38.96 86.848 86.848c-0.002 11.054-8.964 20.014-20.018 20.014zM830.634 379.726c-11.054 0-20.014-8.962-20.014-20.014 0-25.816-21.002-46.818-46.818-46.818s-46.818 21.004-46.818 46.818c0 11.054-8.962 20.014-20.014 20.014s-20.014-8.962-20.014-20.014c0-47.888 38.962-86.848 86.848-86.848 47.886 0 86.848 38.96 86.848 86.848-0.004 11.054-8.964 20.014-20.018 20.014z" fill="#7F184C" /><path d="M300.576 481.542c-36.536 0-66.156 29.62-66.156 66.156h132.314c-0.004-36.536-29.622-66.156-66.158-66.156zM877.628 472.678c-36.536 0-66.158 29.62-66.158 66.156h132.314c0.002-36.538-29.616-66.156-66.156-66.156z" fill="#F9A880" /><path d="M433.028 643.204v31.086c0 13.108 10.626 23.732 23.732 23.732h253.644c13.108 0 23.732-10.626 23.732-23.732v-31.086H433.028z" fill="#F2F2F2" /><path d="M587.766 759.732c-53.832-25.01-113.568-21.376-162.01 4.564 36.4 47.442 93.642 78.058 158.06 78.058a198.412 198.412 0 0 0 79.806-16.684c-17.932-27.748-43.642-50.97-75.856-65.938z" fill="#FC4C59" /><path d="M586.102367 212.006238a102.74 57.374 15.801 1 0 31.245541-110.412045 102.74 57.374 15.801 1 0-31.245541 110.412045Z" fill="#FCEB88" /><path d="M934.502 222.718c-57.164-83.338-136.7-147.41-230.004-185.294-10.24-4.156-21.914 0.774-26.076 11.016-4.158 10.242 0.774 21.914 11.016 26.076 86.01 34.922 159.338 94 212.05 170.846 53.956 78.664 82.48 170.864 82.48 266.638 0 260.248-211.724 471.97-471.97 471.97S40.03 772.244 40.03 512 251.752 40.03 512 40.03c11.054 0 20.014-8.962 20.014-20.014S523.054 0 512 0C229.68 0 0 229.68 0 512s229.68 512 512 512 512-229.68 512-512c0-103.894-30.948-203.926-89.498-289.282z" fill="" /><path d="M378.936 359.712c0-25.816 21.004-46.818 46.818-46.818s46.818 21.004 46.818 46.818c0 11.054 8.962 20.014 20.014 20.014 11.054 0 20.014-8.962 20.014-20.014 0-47.888-38.96-86.848-86.848-86.848s-86.848 38.96-86.848 86.848c0 11.054 8.962 20.014 20.014 20.014 11.058 0 20.018-8.96 20.018-20.014zM716.982 359.712c0-25.816 21.004-46.818 46.818-46.818 25.814 0 46.818 21.004 46.818 46.818 0 11.054 8.962 20.014 20.014 20.014s20.014-8.962 20.014-20.014c0-47.888-38.96-86.848-86.848-86.848s-86.848 38.96-86.848 86.848c0 11.054 8.962 20.014 20.014 20.014s20.018-8.96 20.018-20.014zM364.422 643.204c0 120.846 98.314 219.16 219.16 219.16s219.16-98.314 219.16-219.16c0-11.054-8.962-20.014-20.014-20.014H384.436c-11.052-0.002-20.014 8.96-20.014 20.014z m397.182 20.014c-9.984 89.39-86.012 159.116-178.022 159.116s-168.038-69.726-178.022-159.116h356.044z" fill="" /><path d="M621.736 34.334m-20.014 0a20.014 20.014 0 1 0 40.028 0 20.014 20.014 0 1 0-40.028 0Z" fill="" /></svg>