<?xml version="1.0" encoding="utf-8"?>
<!-- Uploaded to: SVG Repo, www.svgrepo.com, Generator: SVG Repo Mixer Tools -->
<svg width="800px" height="800px" viewBox="0 0 1024 1024" class="icon"  version="1.1" xmlns="http://www.w3.org/2000/svg"><path d="M511.992 483.514m-464.612 0a464.612 464.612 0 1 0 929.224 0 464.612 464.612 0 1 0-929.224 0Z" fill="#FDDF6D" /><path d="M611.564 879.53c-256.598 0-464.61-208.012-464.61-464.61 0-137.09 59.388-260.294 153.824-345.338C150.364 146.494 47.392 302.976 47.392 483.512c0 256.598 208.012 464.61 464.61 464.61 119.508 0 228.464-45.136 310.786-119.27-63.372 32.4-135.164 50.678-211.224 50.678z" fill="#FCC56B" /><path d="M609.364 518.852c100.284 0 181.58 81.298 181.58 181.58v55.228H427.78v-55.228c0-100.284 81.298-181.58 181.584-181.58z" fill="#7F184C" /><path d="M500.358 584.036h231.274c4.678 0 8.994-1.956 12.532-5.244-33.23-36.804-81.31-59.942-134.802-59.942-49.574 0-94.486 19.886-127.252 52.094 3.84 7.864 10.57 13.092 18.248 13.092z" fill="#F2F2F2" /><path d="M712.5 692.024h-132.152l-38.23 0.22c-25.522 1.224-57.29 8.478-57.29 63.42 33.808-0.178 26.132 0.012 51.846-0.686 18.088-0.492 43.672 27.374 43.672 44.494v100.098c0 58.286 47.25 105.534 105.534 105.534 58.286 0 105.534-47.25 105.534-105.534v-128.622c0.008-43.59-35.328-78.924-78.914-78.924z" fill="#FC4C59" /><path d="M685.474 962.702a18.9 18.9 0 0 1-18.902-18.902v-179.596c0-2.236-5.446-7.638-9.28-9.76-9.132-5.052-12.442-16.554-7.39-25.688 5.052-9.136 16.56-12.442 25.688-7.39 2.946 1.628 28.78 16.678 28.78 42.838V943.8c0.006 10.44-8.454 18.902-18.896 18.902z" fill="#BC3B4A" /><path d="M511.998 0C245.39 0 28.49 216.9 28.49 483.508c0 266.61 216.9 483.512 483.508 483.512 22.28 0 44.612-1.552 66.574-4.574C600.216 999.238 640.204 1024 685.888 1024c68.614 0 124.434-55.822 124.434-124.434v-128.622a98.68 98.68 0 0 0-0.768-12.056 18.82 18.82 0 0 0 0.294-3.224v-55.228c0-110.546-89.936-200.484-200.482-200.484s-200.484 89.938-200.484 200.484v55.228a18.9 18.9 0 0 0 18.902 18.902h57.05c23.412 0 33.104 0 52.528-0.698h0.046c1.006 0 4.876 1.136 10.278 6.35 8.506 8.204 13.77 19.566 13.77 25.388v93.964c0 9.126 1.016 18.016 2.888 26.59a451.988 451.988 0 0 1-52.34 3.064c-245.766 0-445.706-199.946-445.706-445.71s199.94-445.712 445.704-445.712 445.708 199.942 445.708 445.706c0 82.044-22.47 162.222-64.98 231.87-5.438 8.908-2.626 20.542 6.286 25.98 8.906 5.438 20.542 2.626 25.98-6.286 46.134-75.578 70.516-162.572 70.516-251.562C995.51 216.9 778.61 0 511.998 0z m-65.316 700.434c0-89.704 72.978-162.682 162.682-162.682 87.298 0 158.73 69.124 162.496 155.512-16.474-12.62-37.052-20.144-59.36-20.144h-132.26l-38.23 0.22c-0.264 0.002-0.532 0.01-0.796 0.022-16.994 0.814-65.65 3.18-74.026 63.396h-20.506v-36.324z m90.734 35.628c-0.474 0-0.948 0.008-1.418 0.026-12.024 0.434-20.24 0.588-30.638 0.642 4.536-21.92 18.244-24.646 37.27-25.586l37.718-0.216h132.152c33.092 0 60.014 26.926 60.014 60.018v128.622c0 47.77-38.864 86.632-86.632 86.632-47.77 0-86.634-38.862-86.634-86.632v-93.964c0-17.11-9.942-37.754-25.328-52.596-11.51-11.11-24.102-16.946-36.504-16.946z" fill="" /><path d="M499.88 285.914c-7.384-7.378-19.35-7.378-26.732 0l-35.938 35.938-35.938-35.938a18.902 18.902 0 1 0-26.732 26.732l35.938 35.938-35.938 35.938a18.902 18.902 0 1 0 26.732 26.732l35.938-35.938 35.938 35.938a18.85 18.85 0 0 0 13.366 5.534 18.902 18.902 0 0 0 13.366-32.266l-35.938-35.938 35.938-35.938c7.38-7.382 7.38-19.348 0-26.732zM857.74 384.52l-35.938-35.938 35.938-35.938a18.902 18.902 0 1 0-26.732-26.732l-35.938 35.938-35.938-35.938a18.902 18.902 0 1 0-26.732 26.732l35.938 35.938L732.4 384.52a18.902 18.902 0 1 0 26.732 26.732l35.938-35.938 35.938 35.938a18.85 18.85 0 0 0 13.366 5.534 18.85 18.85 0 0 0 13.366-5.534c7.38-7.382 7.38-19.348 0-26.732z" fill="" /><path d="M868.944 779.352m-18.902 0a18.902 18.902 0 1 0 37.804 0 18.902 18.902 0 1 0-37.804 0Z" fill="" /></svg>