<?xml version="1.0" encoding="utf-8"?>
<!-- Uploaded to: SVG Repo, www.svgrepo.com, Generator: SVG Repo Mixer Tools -->
<svg width="800px" height="800px" viewBox="0 0 1024 1024" class="icon"  version="1.1" xmlns="http://www.w3.org/2000/svg"><path d="M512.002 512.002m-491.988 0a491.988 491.988 0 1 0 983.976 0 491.988 491.988 0 1 0-983.976 0Z" fill="#CCE7A0" /><path d="M617.43 931.356c-271.716 0-491.986-220.268-491.986-491.986 0-145.168 62.886-275.632 162.888-365.684C129.054 155.124 20.014 320.828 20.014 512c0 271.716 220.268 491.986 491.986 491.986 126.548 0 241.924-47.796 329.098-126.298-67.106 34.31-143.124 53.668-223.668 53.668z" fill="#AED893" /><path d="M631.61 722.638m-105.736 0a105.736 105.736 0 1 0 211.472 0 105.736 105.736 0 1 0-211.472 0Z" fill="#7F184C" /><path d="M943.968 237.03c-50.954-79.89-122.818-144.028-207.824-185.48-9.944-4.848-21.914-0.716-26.762 9.218-4.844 9.936-0.72 21.918 9.218 26.76 78.37 38.218 144.632 97.356 191.62 171.026 48.248 75.642 73.752 163.286 73.752 253.448 0 260.248-211.726 471.968-471.97 471.968S40.03 772.248 40.03 512.002 251.752 40.03 512 40.03c11.056 0 20.014-8.958 20.014-20.014S523.056 0 512 0C229.68 0 0 229.684 0 512.002S229.68 1024 512 1024s512-229.68 512-511.998c0-97.804-27.674-192.89-80.032-274.972z" fill="" /><path d="M629.798 848.396c69.338 0 125.754-56.412 125.754-125.752s-56.414-125.752-125.754-125.752-125.752 56.412-125.752 125.752 56.414 125.752 125.752 125.752z m0-211.472c47.27 0 85.724 38.454 85.724 85.722 0 47.266-38.454 85.722-85.724 85.722-47.266 0-85.722-38.454-85.722-85.722s38.458-85.722 85.722-85.722zM376.092 473.542a19.954 19.954 0 0 0 14.152 5.86 19.958 19.958 0 0 0 14.152-5.86l38.054-38.054 38.054 38.054a19.968 19.968 0 0 0 14.154 5.86 19.966 19.966 0 0 0 14.154-5.86c7.816-7.82 7.816-20.49 0-28.306l-38.054-38.052 38.054-38.052c7.816-7.82 7.816-20.49 0-28.306-7.816-7.812-20.488-7.816-28.306 0l-38.054 38.054-38.054-38.054c-7.816-7.814-20.49-7.814-28.304 0-7.816 7.82-7.816 20.49 0 28.306l38.054 38.052-38.054 38.052c-7.82 7.82-7.82 20.49-0.002 28.306zM755.034 473.542a19.962 19.962 0 0 0 14.154 5.86 19.966 19.966 0 0 0 14.154-5.86l38.054-38.052 38.054 38.052c3.91 3.906 9.034 5.86 14.154 5.86s10.244-1.954 14.154-5.86c7.816-7.82 7.816-20.49 0-28.306l-38.054-38.052 38.054-38.052c7.816-7.82 7.816-20.49 0-28.306-7.816-7.812-20.488-7.816-28.306 0L821.4 378.878l-38.054-38.052c-7.82-7.814-20.49-7.814-28.306 0-7.816 7.82-7.816 20.49 0 28.306l38.054 38.052-38.054 38.052c-7.822 7.82-7.822 20.49-0.006 28.306z" fill="" /><path d="M655.682 41.19m-20.014 0a20.014 20.014 0 1 0 40.028 0 20.014 20.014 0 1 0-40.028 0Z" fill="" /></svg>