<?xml version="1.0" encoding="utf-8"?>
<!-- Uploaded to: SVG Repo, www.svgrepo.com, Generator: SVG Repo Mixer Tools -->
<svg width="800px" height="800px" viewBox="0 0 1024 1024" class="icon"  version="1.1" xmlns="http://www.w3.org/2000/svg"><path d="M512.004 512.002m-491.988 0a491.988 491.988 0 1 0 983.976 0 491.988 491.988 0 1 0-983.976 0Z" fill="#FDDF6D" /><path d="M617.434 931.356c-271.716 0-491.986-220.268-491.986-491.986 0-145.168 62.886-275.632 162.888-365.684C129.056 155.124 20.016 320.828 20.016 512c0 271.716 220.268 491.986 491.986 491.986 126.548 0 241.924-47.796 329.098-126.298-67.104 34.31-143.124 53.668-223.666 53.668z" fill="#FCC56B" /><path d="M337.938 547.698c-36.536 0-66.158 29.62-66.158 66.158h132.314c-0.002-36.538-29.62-66.158-66.156-66.158zM877.63 547.698c-36.536 0-66.158 29.62-66.158 66.158h132.314c0.002-36.538-29.618-66.158-66.156-66.158z" fill="#F9A880" /><path d="M738.088 816.378H518.124c-40.532 0-73.388-32.856-73.388-73.388 0-40.532 32.856-73.388 73.388-73.388h219.964c40.532 0 73.388 32.856 73.388 73.388-0.002 40.532-32.858 73.388-73.388 73.388z" fill="#FFFFFF" /><path d="M444.736 742.99c0 6.942 0.984 13.65 2.786 20.014h361.166a73.34 73.34 0 0 0 0-40.028H447.522a73.36 73.36 0 0 0-2.786 20.014z" fill="#E6E6E6" /><path d="M426.262 359.864m-142.718 0a142.718 142.718 0 1 0 285.436 0 142.718 142.718 0 1 0-285.436 0Z" fill="#FFFFFF" /><path d="M826.502 359.864m-142.718 0a142.718 142.718 0 1 0 285.436 0 142.718 142.718 0 1 0-285.436 0Z" fill="#FFFFFF" /><path d="M450.278 359.864m-40.03 0a40.03 40.03 0 1 0 80.06 0 40.03 40.03 0 1 0-80.06 0Z" fill="#7F184C" /><path d="M856.39 359.864m-40.03 0a40.03 40.03 0 1 0 80.06 0 40.03 40.03 0 1 0-80.06 0Z" fill="#7F184C" /><path d="M973.712 290.61c-0.392-0.832-0.796-1.66-1.2-2.488-3.304-6.794-6.704-13.544-10.314-20.188a19.866 19.866 0 0 0-6.912-7.366c-29.788-38.54-76.422-63.428-128.788-63.428-89.73 0-162.73 73-162.73 162.732 0 89.73 73 162.73 162.73 162.73 66.768 0 124.246-40.432 149.308-98.082a473.304 473.304 0 0 1 8.172 87.478c0 260.248-211.724 471.968-471.968 471.968S40.03 772.248 40.03 512 251.756 40.03 512.002 40.03c71.596 0 140.36 15.62 204.372 46.42 9.96 4.788 21.92 0.604 26.716-9.358 4.792-9.96 0.604-21.922-9.358-26.716C664.258 16.952 589.658 0 512.002 0c-282.32 0-512 229.68-512 512 0 282.316 229.68 512 512 512C794.318 1024 1024 794.32 1024 512.002c0.002-76.698-17.36-152.696-50.288-221.392zM949.2 359.874c0 67.66-55.046 122.7-122.704 122.7s-122.7-55.044-122.7-122.7 55.044-122.704 122.7-122.704c48.14 0 89.872 27.88 109.958 68.328 0.392 0.806 0.782 1.612 1.168 2.418a121.99 121.99 0 0 1 11.578 51.958z" fill="" /><path d="M424.718 742.99c0 51.502 41.9 93.402 93.402 93.402h219.966c51.502 0 93.402-41.9 93.402-93.402s-41.9-93.402-93.402-93.402H518.12c-51.498 0.002-93.402 41.902-93.402 93.402z m366.742 0c0 29.43-23.942 53.372-53.372 53.372H518.12c-29.43 0-53.372-23.942-53.372-53.372s23.942-53.372 53.372-53.372h219.966c29.432 0 53.374 23.944 53.374 53.372zM426.27 197.142c-89.732 0-162.732 73-162.732 162.732 0 89.73 73 162.73 162.732 162.73 89.73 0 162.73-73 162.73-162.73 0.002-89.732-73.002-162.732-162.73-162.732z m0 285.436c-67.66 0-122.704-55.044-122.704-122.7s55.046-122.704 122.704-122.704 122.7 55.046 122.7 122.704-55.04 122.7-122.7 122.7z" fill="" /><path d="M782.416 100.238m-20.014 0a20.014 20.014 0 1 0 40.028 0 20.014 20.014 0 1 0-40.028 0Z" fill="" /></svg>