<?xml version="1.0" encoding="utf-8"?>
<!-- Uploaded to: SVG Repo, www.svgrepo.com, Generator: SVG Repo Mixer Tools -->
<svg width="800px" height="800px" viewBox="0 0 1024 1024" class="icon"  version="1.1" xmlns="http://www.w3.org/2000/svg"><path d="M442.812 512.006m-425.502 0a425.502 425.502 0 1 0 851.004 0 425.502 425.502 0 1 0-851.004 0Z" fill="#FDDF6D" /><path d="M533.994 874.686c-234.998 0-425.5-190.502-425.5-425.5 0-125.55 54.388-238.384 140.876-316.266C111.614 203.354 17.31 346.662 17.31 512.002c0 234.998 190.502 425.5 425.5 425.5 109.448 0 209.232-41.336 284.624-109.23-58.034 29.674-123.782 46.414-193.44 46.414z" fill="#FCC56B" /><path d="M528.462 757.486m-70.966 0a70.966 70.966 0 1 0 141.932 0 70.966 70.966 0 1 0-141.932 0Z" fill="#7F184C" /><path d="M382.418 530.298c-33.214 0-64.44-8.152-79.552-20.77-7.34-6.13-18.252-5.144-24.38 2.192s-5.144 18.254 2.192 24.38c21.61 18.044 59.644 28.816 101.738 28.816 40.838 0 78.918-10.626 101.862-28.426a17.312 17.312 0 0 0-21.222-27.354c-16.566 12.856-48.22 21.162-80.638 21.162zM784.538 536.49c7.552-5.86 8.926-16.736 3.066-24.286-5.86-7.552-16.736-8.922-24.288-3.066-16.566 12.854-48.222 21.16-80.64 21.16-33.212 0-64.436-8.152-79.55-20.77a17.31 17.31 0 0 0-22.188 26.572c21.61 18.044 59.644 28.816 101.736 28.816 40.842 0.002 78.92-10.626 101.864-28.426zM528.46 845.752c48.676 0 88.276-39.598 88.276-88.274s-39.6-88.276-88.276-88.276c-48.676 0-88.276 39.6-88.276 88.276 0 48.676 39.6 88.274 88.276 88.274z m0-141.93c29.586 0 53.656 24.07 53.656 53.656 0 29.584-24.07 53.654-53.656 53.654s-53.656-24.07-53.656-53.654c0-29.586 24.068-53.656 53.656-53.656zM575.962 320.094a17.318 17.318 0 0 0-19.368-2.14l-75.396 40.004a17.312 17.312 0 0 0 16.23 30.582L534 369.136l-19.134 55.394a17.308 17.308 0 0 0 23.85 21.256l67.334-32.312a17.312 17.312 0 0 0-14.978-31.214l-29.944 14.37 19.944-57.736a17.31 17.31 0 0 0-5.11-18.8z" fill="" /><path d="M759.356 202.31a17.254 17.254 0 0 0-12.754-4.05c-2.298 0.306-4.552 0.796-6.612 1.914l-107.052 56.802a17.31 17.31 0 0 0-7.176 23.406c4.478 8.44 14.958 11.662 23.406 7.176l68.226-36.204-33.192 96.096a17.31 17.31 0 0 0 24.026 21.172l95.672-47.258c30.758 58.116 47.104 123.216 47.104 190.64 0 225.076-183.112 408.188-408.188 408.188S34.62 737.078 34.62 512.002 217.734 103.81 442.81 103.81c51.89 0 102.446 9.602 150.25 28.536a17.3 17.3 0 0 0 22.466-9.718 17.306 17.306 0 0 0-9.718-22.466c-51.882-20.55-106.722-30.97-162.998-30.97C198.642 69.19 0 267.834 0 512.002c0 244.166 198.642 442.808 442.81 442.808 244.166 0 442.808-198.642 442.808-442.808 0-115.294-44.028-224.34-123.988-307.278a17.254 17.254 0 0 0-2.274-2.414c-3.602-3.082 0.854 0.732 0 0z m-28.674 116.606l24.194-70.05a409.22 409.22 0 0 1 31.482 42.546l-55.676 27.504zM1022.292 199.962c-4.138-8.62-14.482-12.248-23.096-8.118l-83.632 40.136 46.64-135.036a17.302 17.302 0 0 0-5.108-18.8 17.318 17.318 0 0 0-19.368-2.14l-135.516 71.906a17.31 17.31 0 0 0 16.23 30.582l96.694-51.304-45.832 132.694a17.308 17.308 0 0 0 23.85 21.256l121.026-58.078c8.612-4.14 12.248-14.48 8.112-23.098z" fill="" /><path d="M658.356 144.412m-17.31 0a17.31 17.31 0 1 0 34.62 0 17.31 17.31 0 1 0-34.62 0Z" fill="" /></svg>