<?xml version="1.0" encoding="utf-8"?>
<!-- Uploaded to: SVG Repo, www.svgrepo.com, Generator: SVG Repo Mixer Tools -->
<svg width="800px" height="800px" viewBox="0 0 1024 1024" class="icon"  version="1.1" xmlns="http://www.w3.org/2000/svg"><path d="M511.999 473.980926m-455.45289 0a455.45289 455.45289 0 1 0 910.90578 0 455.45289 455.45289 0 1 0-910.90578 0Z" fill="#FDDF6D" /><path d="M609.603191 862.191684c-251.538491 0-455.45089-203.910398-455.45089-455.44889 0-134.388262 58.216114-255.162498 150.792295-338.528661C157.492308 143.60428 56.55011 297.00258 56.55011 473.978926c0 251.538491 203.910398 455.44889 455.45089 455.448889 117.152229 0 223.958437-44.246086 304.658595-116.918228-62.120121 31.762062-132.496259 49.682097-207.056404 49.682097z" fill="#FCC56B" /><path d="M753.659472 332.99265m-102.896201 0a102.896201 102.896201 0 1 0 205.792402 0 102.896201 102.896201 0 1 0-205.792402 0Z" fill="#FFFFFF" /><path d="M770.951506 332.99265m-37.056073 0a37.056072 37.056072 0 1 0 74.112145 0 37.056072 37.056072 0 1 0-74.112145 0Z" fill="#7F184C" /><path d="M491.39296 383.78275a18.514036 18.514036 0 0 1-16.204032-9.516019c-11.888023-21.340042-34.426067-34.596068-58.824115-34.596068-23.792046 0-46.638091 13.452026-59.622116 35.108069-5.26201 8.778017-16.644033 11.624023-25.41805 6.364012a18.526036 18.526036 0 0 1-6.364012-25.418049c19.640038-32.760064 54.664107-53.110104 91.404178-53.110104 37.830074 0 72.774142 20.54404 91.196178 53.622105 4.98001 8.938017 1.768003 20.22404-7.170014 25.202049a18.456036 18.456036 0 0 1-8.998017 2.344005zM600.473173 790.751544c-101.816199 0-184.35836-82.540161-184.35836-184.35836h368.71472c0.002 101.818199-82.538161 184.35836-184.35636 184.35836z" fill="#7F184C" /><path d="M461.098901 606.391184v28.778057c0 12.134024 9.838019 21.970043 21.970042 21.970042h234.808459c12.134024 0 21.970043-9.838019 21.970043-21.970042v-28.778057H461.098901z" fill="#F2F2F2" /><path d="M655.19528 698.571364h-129.546253v0.214001a168.186328 168.186328 0 0 0-71.28414 19.704038 185.396362 185.396362 0 0 0 46.850092 43.102084c15.10403 9.704019 24.436048 26.234051 24.436048 44.186087v96.238188c0 57.136112 46.31809 103.452202 103.452202 103.452202 57.136112 0 103.452202-46.31809 103.452202-103.452202v-126.086247c0.002-42.722083-34.634068-77.358151-77.360151-77.358151z" fill="#FC4C59" /><path d="M628.701228 963.913883a18.528036 18.528036 0 0 1-18.528036-18.528037v-176.054343c0-2.060004-4.830009-7.108014-9.230018-9.642019-8.952017-4.95601-12.130024-16.194032-7.174014-25.146049s16.296032-12.158024 25.248049-7.204014c2.888006 1.598003 28.210055 16.352032 28.210055 41.992082v176.054343c0.002 10.23202-8.294016 18.528036-18.526036 18.528037z" fill="#BC3B4A" /><path d="M511.999 0C250.64649 0 38.022074 212.624415 38.022074 473.978926c0 261.35251 212.624415 473.974926 473.978926 473.974925 1.366003 0 2.742005-0.028 4.116008-0.04 18.172035 44.574087 61.958121 76.084149 112.988221 76.084149 67.260131 0 121.980238-54.720107 121.980238-121.980238v-126.086247c0-10.05802-1.564003-19.752039-4.450009-28.868056 36.184071-37.642074 56.722111-88.210172 56.722111-140.674275a18.526036 18.526036 0 0 0-18.528036-18.528036H416.114813a18.528036 18.528036 0 0 0-18.528036 18.528036c0 68.414134 34.140067 131.776257 91.324178 169.484331 0.416001 0.274001 0.854002 0.480001 1.284002 0.716002 10.618021 7.596015 16.922033 19.930039 16.922033 33.314065v92.11018c0 2.970006 0.144 5.904012 0.354001 8.822017-238.840466-2.440005-432.398845-197.456386-432.398844-436.862853 0.006-240.912471 196.006383-436.916853 436.926853-436.916854s436.920853 196.002383 436.920853 436.920854c0 104.754205-37.634074 206.068402-105.972207 285.272557-6.686013 7.748015-5.822011 19.448038 1.924004 26.132051 7.748015 6.682013 19.448038 5.818011 26.132051-1.924004 74.140145-85.930168 114.972225-195.838382 114.972225-309.478604C985.977926 212.624415 773.35351 0 511.999 0z m202.028395 902.021762c0 46.828091-38.096074 84.924166-84.924166 84.924166-38.756076 0-71.50814-26.106051-81.65616-61.648121a18.486036 18.486036 0 0 0-0.680001-2.458005 84.876166 84.876166 0 0 1-2.590005-20.81804v-92.11018c0-26.370052-12.994025-50.698099-34.756068-65.086127a166.342325 166.342325 0 0 1-24.316048-19.568038 150.356294 150.356294 0 0 1 41.434081-7.964016c0.648001-0.032 1.288003-0.096 1.914004-0.192h126.742248c32.442063 0 58.834115 26.394052 58.834115 58.834114v126.090247h-0.002z m51.2281-277.100541c-3.666007 32.398063-16.874033 63.110123-37.800074 88.082172-17.592034-20.174039-43.452085-32.960064-72.260141-32.960065h-129.546253c-1.302003 0-2.572005 0.138-3.798008 0.398001-21.086041 1.348003-41.998082 6.410013-61.45412 14.700029a165.278323 165.278323 0 0 1-24.724048-70.220137h329.582644z" fill="" /><path d="M875.073709 332.99865c0-66.956131-54.470106-121.424237-121.424237-121.424237s-121.424237 54.470106-121.424237 121.424237 54.470106 121.424237 121.424237 121.424238 121.424237-54.466106 121.424237-121.424238z m-121.424237 84.370165c-46.520091 0-84.368165-37.848074-84.368165-84.368165s37.848074-84.368165 84.368165-84.368164 84.368165 37.848074 84.368165 84.368164-37.848074 84.368165-84.368165 84.368165zM416.366813 302.614591c-36.740072 0-71.76414 20.35004-91.404178 53.110104a18.528036 18.528036 0 1 0 31.782062 19.054037c12.982025-21.656042 35.82607-35.108069 59.622116-35.108069 24.396048 0 46.936092 13.256026 58.824115 34.596068a18.512036 18.512036 0 0 0 25.204049 7.172014 18.526036 18.526036 0 0 0 7.170014-25.202049c-18.424036-33.074065-53.368104-53.622105-91.198178-53.622105z" fill="" /><path d="M810.059582 818.139598m-18.528036 0a18.528036 18.528036 0 1 0 37.056072 0 18.528036 18.528036 0 1 0-37.056072 0Z" fill="" /><path d="M316.276618 479.140936c-33.822066 0-61.24212 27.420054-61.24212 61.242119h122.488239c-0.004-33.822066-27.424054-61.24212-61.246119-61.242119zM850.475661 479.140936c-33.822066 0-61.24212 27.420054-61.24212 61.242119h122.48824c0-33.822066-27.420054-61.24212-61.24612-61.242119z" fill="#F9A880" /></svg>