<svg t="1728780333465" class="icon" viewBox="0 0 1043 1024" version="1.1" xmlns="http://www.w3.org/2000/svg" p-id="5064" width="200" height="200"><path d="M234.730714 547.150486h604.016724v458.611708H234.730714z" fill="#F5D8BD" p-id="5065"></path><path d="M779.080089 405.484364H294.385831L234.730714 547.150486h604.012646z" fill="#B3A196" p-id="5066"></path><path d="M234.730714 961.005566h604.016724v36.671323H234.730714z" fill="#6E6E96" opacity=".15" p-id="5067"></path><path d="M234.730714 547.150486h604.016724v18.021709H234.730714z" fill="#FFFFFF" opacity=".4" p-id="5068"></path><path d="M838.74336 1022.071433H234.730714a16.309238 16.309238 0 0 1-16.309238-16.309239V547.150486a16.309238 16.309238 0 0 1 16.309238-16.309238h604.012646a16.309238 16.309238 0 0 1 16.309239 16.309238v458.611708a16.309238 16.309238 0 0 1-16.309239 16.309239z m-587.703407-32.618477h571.394169V563.459725H251.039953v425.993231z" fill="#6E6E96" p-id="5069"></path><path d="M838.74336 553.266451H234.730714a6.128196 6.128196 0 0 1-5.638919-8.488959l59.659194-141.666123a6.115964 6.115964 0 0 1 5.634842-3.74297h484.694258c2.462695 0 4.680751 1.475986 5.638919 3.74297l59.663272 141.666123a6.120042 6.120042 0 0 1-5.63892 8.488959z m-594.802003-12.231929H829.528641l-54.509553-129.434194H298.450909l-54.509552 129.434194z" fill="#6E6E96" p-id="5070"></path><path d="M294.385831 405.484364l-115.090218-60.384956-78.296577 110.833508 133.731678 91.21757z" fill="#FFEBC5" p-id="5071"></path><path d="M234.730714 563.459725a16.309238 16.309238 0 0 1-9.190255-2.833731l-133.731678-91.21757a16.317393 16.317393 0 0 1-4.134392-22.885939l78.296576-110.833507a16.305161 16.305161 0 0 1 20.896212-5.0314l115.094296 60.384955a16.305161 16.305161 0 0 1 7.453322 20.769815l-59.659195 141.6702a16.329625 16.329625 0 0 1-15.024886 9.977177z m-110.845739-111.657124l103.55551 70.635312 46.10214-109.471686-89.170762-46.783051-60.486888 85.619425z" fill="#6E6E96" p-id="5072"></path><path d="M892.649471 341.26266l69.420273 127.342534-123.326384 78.545292-59.663271-141.666122z" fill="#FFEBC5" p-id="5073"></path><path d="M838.74336 563.459725a16.305161 16.305161 0 0 1-15.028963-9.981254l-59.663271-141.666123a16.309238 16.309238 0 0 1 7.004818-20.529254l113.569382-64.221703a16.309238 16.309238 0 0 1 22.343656 6.389144l69.420274 127.342534a16.313316 16.313316 0 0 1-5.557373 21.56489l-123.326384 78.545292a16.292929 16.292929 0 0 1-8.762139 2.556474z m-38.995389-150.925693l46.530258 110.482859 94.181774-59.981302-54.199676-99.425195-86.512356 48.923638z" fill="#6E6E96" p-id="5074"></path><path d="M234.730714 547.150486l-28.769496 140.377693h667.936706l-35.154564-140.377693z" fill="#FFEBC5" p-id="5075"></path><path d="M873.897924 703.837417H205.961218a16.309238 16.309238 0 0 1-15.978977-19.583318l28.769497-140.377692a16.309238 16.309238 0 0 1 15.974899-13.035159H838.74336a16.305161 16.305161 0 0 1 15.819962 12.346093l35.154563 140.377693a16.301084 16.301084 0 0 1-15.819961 20.272383z m-647.945657-32.618477h627.053522l-26.987712-107.759215H248.034976l-22.082709 107.759215z" fill="#6E6E96" p-id="5076"></path><path d="M294.385831 405.484364l24.53725-66.721095h426.841311l37.882284 66.721095z" fill="#FFEBC5" p-id="5077"></path><path d="M783.724145 421.793602H294.385831a16.305161 16.305161 0 0 1-15.30622-21.935926l24.537249-66.721094a16.309238 16.309238 0 0 1 15.306221-10.682551h426.845388c5.867249 0 11.285993 3.15176 14.18496 8.256552l37.140214 65.420432a16.313316 16.313316 0 0 1-13.369498 25.662587z m-465.963098-32.618477h437.870434l-19.363143-34.102617H330.302852l-12.541805 34.102617z" fill="#6E6E96" p-id="5078"></path><path d="M235.268919 703.837417H838.74336v22.502672H235.268919zM280.310959 442.946684H793.159039l-14.07895-33.417629H294.385831zM262.440111 391.042533l-66.154349 134.1231 26.310879 17.944239 59.659194-141.670199zM795.776672 401.439673l55.096685 141.670199 23.38337-14.890334-60.698908-139.431757zM304.999068 385.432155h458.603554l15.477467 20.052209H294.385831z" fill="#6E6E96" opacity=".15" p-id="5079"></path><path d="M487.580993 201.631115v272.735317h108.73777V201.631115h120.492653L544.44723 29.254696 372.083043 201.631115z" fill="#C1EDC5" p-id="5080"></path><path d="M547.056708 76.241612l122.775947 122.784102h49.596394L547.056708 26.649296 374.688444 199.025714h49.592317z" fill="#D0FFD3" opacity=".44" p-id="5081"></path><path d="M588.73089 201.631115l117.059559-2.605401-21.605664-21.605664h-74.19888s-21.255015-1.928567-21.255015 24.211065zM475.59778 177.42005H405.463977l-15.546781 15.546782 105.210897 8.264707c0.012232-0.004077 4.126237-23.811488-19.530313-23.811489z" fill="#B5DEB8" p-id="5082"></path><path d="M596.318763 490.675671a16.309238 16.309238 0 0 1-16.309239-16.309239V201.631115a16.309238 16.309238 0 0 1 16.309239-16.309238h81.122152l-132.989608-133.00184-132.993685 133.00184h76.127448a16.309238 16.309238 0 0 1 16.309238 16.309238v272.735317a16.309238 16.309238 0 0 1-32.618476 0V217.940353H372.083043a16.309238 16.309238 0 0 1-11.530631-27.83987l172.368264-172.376418a16.313316 16.313316 0 0 1 23.061263 0l172.360109 172.376418a16.301084 16.301084 0 0 1-11.530632 27.83987h-104.183415v256.426079a16.309238 16.309238 0 0 1-16.309238 16.309239z" fill="#6E6E96" p-id="5083"></path></svg>
