<?xml version="1.0" standalone="no"?><!DOCTYPE svg PUBLIC "-//W3C//DTD SVG 1.1//EN" "http://www.w3.org/Graphics/SVG/1.1/DTD/svg11.dtd"><svg height="170" node-id="1" sillyvg="true" template-height="170" template-width="181" version="1.1" viewBox="0 0 181 170" width="181" xmlns="http://www.w3.org/2000/svg" xmlns:xlink="http://www.w3.org/1999/xlink"><defs node-id="19"><linearGradient gradientUnits="objectBoundingBox" id="未命名的渐变_406" node-id="5" spreadMethod="pad" x1="93.48" x2="91.22" y1="-45.98" y2="99.02"><stop offset="0" stop-color="#ffbd3a"></stop><stop offset="1" stop-color="#f9c73d"></stop></linearGradient></defs><g node-id="46"><path d="M 180.30 71.80 L 177.90 59.40 L 176.30 53.30 L 174.20 47.40 L 172.10 43.20 L 169.60 39.30 L 167.60 36.90 L 163.00 32.80 L 153.40 27.60 L 151.40 26.10 L 149.80 24.40 L 144.00 16.70 L 141.80 12.90 L 152.20 13.90 L 153.80 13.60 L 155.30 12.80 L 156.30 11.50 L 157.00 9.90 L 156.90 7.70 L 156.30 6.70 L 154.20 4.20 L 151.90 2.40 L 149.30 1.20 L 146.50 0.40 L 143.60 0.00 L 140.40 0.00 L 135.80 0.60 L 126.60 3.20 L 108.90 11.10 L 100.90 14.00 L 94.40 15.20 L 91.20 15.30 L 87.90 14.90 L 83.00 13.60 L 81.60 13.80 L 79.50 15.10 L 78.30 17.40 L 78.10 20.10 L 79.20 22.70 L 81.70 24.50 L 85.20 25.60 L 88.60 26.30 L 92.10 26.50 L 95.70 26.30 L 95.60 32.60 L 95.00 38.80 L 93.10 47.10 L 90.90 55.30 L 88.20 63.40 L 83.20 73.00 L 77.10 81.70 L 69.80 89.70 L 61.10 96.90 L 51.50 102.90 L 46.40 105.40 L 36.10 109.40 L 31.00 110.70 L 21.90 112.10 L 18.20 112.10 L 14.40 111.60 L 6.10 108.70 L 3.90 108.80 L 2.10 110.10 L 1.50 111.10 L 1.40 113.30 L 2.50 115.60 L 1.80 116.80 L 1.60 118.20 L 2.60 121.00 L 4.70 123.20 L 5.00 126.20 L 5.70 129.00 L 6.90 131.80 L 8.50 134.30 L 10.40 136.70 L 12.70 138.80 L 15.10 140.40 L 20.60 143.00 L 28.00 144.70 L 34.80 145.20 L 34.10 148.90 L 34.20 151.30 L 34.80 153.20 L 35.90 155.00 L 37.30 156.50 L 39.10 157.70 L 42.30 159.10 L 46.00 160.00 L 49.90 160.50 L 58.10 160.60 L 68.00 159.50 L 67.90 162.80 L 68.50 164.90 L 69.50 166.60 L 71.00 167.90 L 72.90 169.00 L 75.10 169.80 L 78.80 170.30 L 82.90 170.30 L 92.10 168.90 L 99.00 169.60 L 102.50 169.40 L 107.80 168.50 L 113.10 167.20 L 118.30 165.40 L 128.20 161.00 L 138.00 155.60 L 143.10 152.20 L 152.70 144.60 L 157.10 140.30 L 161.20 135.80 L 165.00 131.10 L 168.50 126.10 L 171.60 120.80 L 174.50 115.10 L 176.80 109.20 L 178.70 103.20 L 180.00 97.00 L 180.90 90.80 L 181.20 84.50 L 181.00 78.20 L 180.30 71.80 Z M 124.70 56.00 L 124.10 61.10 L 121.80 71.00 L 122.70 66.20 L 123.00 61.40 L 122.70 56.60 L 121.10 49.80 L 119.00 45.40 L 117.50 43.90 L 112.00 40.60 L 109.70 38.10 L 107.50 33.70 L 106.70 31.20 L 106.40 28.70 L 106.90 25.60 L 108.30 23.60 L 113.00 20.90 L 116.40 19.60 L 118.30 19.60 L 120.40 22.90 L 122.30 26.70 L 123.40 30.40 L 124.80 43.10 L 124.70 56.00 Z M 147.20 53.70 L 147.00 47.00 L 146.20 43.80 L 144.90 40.80 L 142.50 37.70 L 133.70 29.00 L 131.00 25.70 L 128.80 22.10 L 125.80 16.30 L 133.00 13.80 L 134.30 17.00 L 135.90 19.80 L 144.90 34.10 L 146.60 38.90 L 147.30 42.90 L 147.50 46.90 L 147.30 50.80 L 146.60 54.90" fill="url(#未命名的渐变_406)" fill-rule="nonzero" group-id="1" node-id="30" stroke="none" target-height="170.3" target-width="179.8" target-x="1.4" target-y="0"></path><path d="M 7.00 115.30 L 6.60 109.90 L 5.90 109.00 L 4.90 108.30 L 3.90 108.10 L 2.70 108.30 L 1.80 109.00 L 1.20 109.90 L 0.90 111.80 L 0.20 112.80 L 0.00 116.00 L 0.30 119.80 L 0.90 121.50 L 3.00 122.60 L 4.40 122.50 L 6.00 121.50 L 6.60 120.40 L 7.00 117.90 L 7.00 115.30 Z" fill="#724912" fill-rule="nonzero" group-id="1" node-id="32" stroke="none" target-height="14.5" target-width="7" target-x="0" target-y="108.1"></path><path d="M 39.60 149.10 L 39.10 145.20 L 38.60 144.30 L 37.80 143.80 L 35.90 143.80 L 35.10 144.30 L 34.70 145.20 L 34.00 152.20 L 34.80 153.60 L 35.60 153.90 L 36.60 155.80 L 37.90 156.30 L 39.20 155.90 L 40.10 154.80 L 40.20 154.10 L 39.60 149.10 Z" fill="#724912" fill-rule="nonzero" group-id="1" node-id="34" stroke="none" target-height="12.5" target-width="6.200001" target-x="34" target-y="143.8"></path><path d="M 76.10 164.90 L 73.70 160.90 L 73.00 158.50 L 72.40 157.50 L 71.50 156.90 L 70.40 156.90 L 69.40 157.20 L 68.70 157.90 L 68.40 159.10 L 68.00 162.30 L 68.50 165.70 L 69.20 167.30 L 70.00 168.10 L 71.10 168.50 L 72.20 169.40 L 73.20 169.60 L 74.30 169.40 L 76.10 168.10 L 76.60 167.10 L 76.60 166.00 L 76.10 164.90 Z" fill="#724912" fill-rule="nonzero" group-id="1" node-id="36" stroke="none" target-height="12.700012" target-width="8.599998" target-x="68" target-y="156.9"></path><path d="M 120.80 69.20 L 119.10 74.80 L 116.90 80.00 L 114.20 85.10 L 111.10 89.90 L 107.60 94.40 L 103.70 98.60 L 95.10 106.30 L 84.40 113.80 L 78.10 117.40 L 77.80 117.80 L 78.20 118.50 L 84.60 115.40 L 90.30 112.00 L 95.70 108.20 L 100.80 103.80 L 105.60 99.30 L 109.90 94.30 L 113.70 89.00 L 117.00 83.30 L 119.00 78.80 L 122.00 69.50 L 121.50 68.80 L 120.80 69.20 Z" fill="#d88c27" fill-rule="nonzero" group-id="1" node-id="38" stroke="none" target-height="49.699997" target-width="44.199997" target-x="77.8" target-y="68.8"></path><path d="M 146.20 51.50 L 147.20 66.10 L 147.30 73.40 L 146.90 80.70 L 145.40 90.30 L 144.20 95.10 L 142.10 101.00 L 139.50 106.60 L 136.50 111.90 L 133.00 117.00 L 129.10 121.70 L 124.70 126.00 L 120.00 130.00 L 109.20 137.00 L 109.70 137.80 L 110.30 137.80 L 115.60 134.90 L 120.60 131.50 L 125.30 127.70 L 129.60 123.60 L 133.60 119.00 L 137.20 114.10 L 140.60 108.40 L 143.30 102.60 L 145.50 96.40 L 147.20 90.10 L 148.30 83.70 L 148.90 77.10 L 148.80 68.50 L 148.30 59.90 L 147.20 51.40 L 146.60 51.00 L 146.20 51.50 Z" fill="#d88c27" fill-rule="nonzero" group-id="1" node-id="40" stroke="none" target-height="86.8" target-width="39.699997" target-x="109.2" target-y="51"></path><path d="M 35.60 143.30 L 39.90 142.70 L 48.00 140.40 L 55.60 136.60 L 59.40 133.80 L 58.90 133.10 L 58.40 133.20 L 54.90 135.40 L 47.50 139.00 L 39.60 141.50 L 35.50 142.40 L 35.20 142.90 L 35.60 143.30 Z" fill="#d88c27" fill-rule="nonzero" group-id="1" node-id="42" stroke="none" target-height="10.199997" target-width="24.2" target-x="35.2" target-y="133.1"></path><path d="M 72.20 157.40 L 76.70 156.60 L 81.00 155.40 L 85.20 153.80 L 89.20 151.70 L 93.00 149.30 L 96.60 146.50 L 96.80 146.00 L 96.10 145.40 L 88.30 150.40 L 84.50 152.40 L 76.30 155.30 L 72.00 156.20 L 71.60 156.90 L 72.20 157.40 Z" fill="#d88c27" fill-rule="nonzero" group-id="1" node-id="44" stroke="none" target-height="12" target-width="25.200005" target-x="71.6" target-y="145.4"></path></g></svg>