<?xml version="1.0" standalone="no"?><!DOCTYPE svg PUBLIC "-//W3C//DTD SVG 1.1//EN" "http://www.w3.org/Graphics/SVG/1.1/DTD/svg11.dtd"><svg height="179" node-id="1" sillyvg="true" template-height="179" template-width="197" version="1.1" viewBox="0 0 197 179" width="197" xmlns="http://www.w3.org/2000/svg" xmlns:xlink="http://www.w3.org/1999/xlink"><defs node-id="34"><radialGradient cx="62.22" cy="77.41" fx="62.22" fy="77.41" gradientUnits="objectBoundingBox" id="未命名的渐变_113" node-id="5" r="57.57" rev="3" spreadMethod="pad"><stop offset="0" stop-color="#4768a6"></stop><stop offset="0.55" stop-color="#688aca"></stop><stop offset="1" stop-color="#7fa2e3"></stop></radialGradient><radialGradient cx="62.22" cy="77.41" fx="62.22" fy="77.41" gradientUnits="objectBoundingBox" id="未命名的渐变_304" node-id="9" r="57.56" rev="2" spreadMethod="pad"><stop offset="0" stop-color="#4768a6"></stop><stop offset="0.26" stop-color="#4d70b0"></stop><stop offset="1" stop-color="#5c83c9"></stop></radialGradient><radialGradient cx="116.93" cy="136.31" fx="116.93" fy="136.31" gradientUnits="objectBoundingBox" id="未命名的渐变_113-2" node-id="13" r="57.13" rev="1" spreadMethod="pad"><stop offset="0" stop-color="#4768a6"></stop><stop offset="0.55" stop-color="#688aca"></stop><stop offset="1" stop-color="#7fa2e3"></stop></radialGradient></defs><g node-id="97"><path d="M 70.80 51.80 L 73.50 55.20 L 79.50 61.00 L 84.50 64.80 L 95.20 71.20 L 100.60 73.90 L 106.40 76.10 L 108.30 76.30 L 110.10 76.10 L 113.30 74.50 L 115.60 71.80 L 116.50 70.10 L 117.30 67.40 L 117.80 64.40 L 117.80 58.20 L 117.10 48.40 L 116.40 44.40 L 114.30 37.30 L 107.70 23.90 L 105.70 20.80 L 103.30 17.90 L 100.40 15.20 L 95.60 11.60 L 90.30 8.40 L 79.50 3.50 L 70.20 0.30 L 68.40 0.00 L 66.80 0.20 L 65.50 0.90 L 64.40 2.00 L 63.70 3.50 L 63.40 5.30 L 63.40 13.80 L 64.40 29.40 L 66.10 39.70 L 67.30 44.30 L 68.40 47.20 L 70.80 51.80 Z" fill="#93b659" fill-rule="nonzero" group-id="1" node-id="63" stroke="none" target-height="76.3" target-width="54.4" target-x="63.4" target-y="0"></path><path d="M 114.30 72.80 L 108.60 66.00 L 103.30 58.90 L 98.30 51.60 L 93.70 44.10 L 89.40 36.30 L 85.60 28.30 L 80.00 14.40 L 79.50 13.80 L 78.90 13.50 L 77.50 13.80 L 77.20 14.40 L 77.20 15.20 L 80.40 23.70 L 84.10 31.90 L 88.10 40.00 L 92.50 47.80 L 97.40 55.40 L 102.60 62.80 L 112.30 74.80 L 113.00 75.20 L 114.20 74.80 L 114.60 73.50 L 114.30 72.80 Z" fill="#497816" fill-rule="nonzero" group-id="1" node-id="65" stroke="none" target-height="61.699997" target-width="37.4" target-x="77.2" target-y="13.5"></path><path d="M 100.80 54.20 L 101.10 50.00 L 100.70 41.50 L 99.00 33.20 L 97.70 29.10 L 97.50 28.80 L 96.80 29.00 L 99.00 37.50 L 99.70 41.60 L 100.10 50.00 L 99.80 54.20 L 100.20 54.70 L 100.80 54.20 Z" fill="#497816" fill-rule="nonzero" group-id="1" node-id="67" stroke="none" target-height="25.900002" target-width="4.2999954" target-x="96.8" target-y="28.8"></path><path d="M 94.60 48.50 L 87.60 46.50 L 81.20 43.20 L 75.60 38.70 L 70.90 33.60 L 70.30 33.90 L 70.40 34.30 L 72.80 37.20 L 75.50 39.90 L 81.60 44.50 L 84.90 46.40 L 91.40 48.80 L 94.30 49.40 L 94.90 49.00 L 94.60 48.50 Z" fill="#497816" fill-rule="nonzero" group-id="1" node-id="69" stroke="none" target-height="15.800003" target-width="24.599998" target-x="70.3" target-y="33.6"></path><path d="M 86.00 29.70 L 87.00 22.80 L 86.90 15.90 L 85.60 9.10 L 85.00 8.80 L 84.70 9.40 L 85.70 14.40 L 86.10 19.40 L 85.90 24.40 L 85.10 29.40 L 85.40 29.90 L 86.00 29.70 Z" fill="#497816" fill-rule="nonzero" group-id="1" node-id="71" stroke="none" target-height="21.099998" target-width="2.300003" target-x="84.7" target-y="8.8"></path><path d="M 134.30 39.40 L 129.00 45.90 L 123.80 54.70 L 121.30 60.20 L 117.20 71.30 L 116.10 75.10 L 115.70 78.70 L 116.80 81.60 L 119.10 83.50 L 122.20 84.50 L 127.50 84.20 L 133.20 82.80 L 140.30 80.30 L 147.40 77.30 L 154.50 73.60 L 161.50 69.40 L 168.20 64.70 L 174.80 59.60 L 177.10 57.20 L 179.20 54.60 L 180.90 51.70 L 183.50 45.50 L 185.40 37.20 L 185.80 32.60 L 185.50 24.60 L 185.10 23.10 L 183.50 20.70 L 181.10 19.00 L 178.20 18.60 L 176.70 18.80 L 168.80 21.20 L 159.30 24.90 L 149.50 29.30 L 144.80 31.80 L 137.00 37.00 L 134.30 39.40 Z" fill="#93b659" fill-rule="nonzero" group-id="1" node-id="73" stroke="none" target-height="65.9" target-width="70.100006" target-x="115.7" target-y="18.6"></path><path d="M 119.40 83.50 L 125.80 76.00 L 132.50 68.90 L 147.10 55.00 L 163.20 41.90 L 176.10 32.90 L 176.60 32.30 L 176.50 31.10 L 175.40 30.40 L 174.70 30.60 L 166.70 36.10 L 158.90 41.90 L 151.30 48.00 L 135.70 62.00 L 128.30 69.50 L 117.60 81.60 L 117.30 82.30 L 117.70 83.50 L 118.80 83.90 L 119.40 83.50 Z" fill="#497816" fill-rule="nonzero" group-id="1" node-id="75" stroke="none" target-height="53.5" target-width="59.300003" target-x="117.3" target-y="30.4"></path><path d="M 135.20 66.70 L 141.20 65.40 L 147.00 63.40 L 152.50 60.90 L 157.80 57.90 L 158.00 57.60 L 157.70 57.10 L 152.10 60.10 L 146.60 62.60 L 140.90 64.50 L 135.00 65.80 L 134.70 66.30 L 135.20 66.70 Z" fill="#497816" fill-rule="nonzero" group-id="1" node-id="77" stroke="none" target-height="9.599998" target-width="23.300003" target-x="134.7" target-y="57.1"></path><path d="M 139.70 59.80 L 140.80 53.00 L 141.90 49.70 L 144.10 44.90 L 146.70 40.50 L 150.80 35.40 L 150.90 35.00 L 150.50 34.60 L 147.70 37.60 L 145.60 40.60 L 142.00 47.20 L 140.60 50.70 L 139.10 57.00 L 138.80 59.80 L 139.30 60.20 L 139.70 59.80 Z" fill="#497816" fill-rule="nonzero" group-id="1" node-id="79" stroke="none" target-height="25.600002" target-width="12.099991" target-x="138.8" target-y="34.6"></path><path d="M 156.10 47.60 L 161.00 47.10 L 165.80 46.00 L 170.40 44.40 L 174.80 42.20 L 175.00 42.00 L 174.70 41.40 L 170.10 43.60 L 165.60 45.20 L 160.90 46.20 L 156.10 46.70 L 155.70 47.10 L 156.10 47.60 Z" fill="#497816" fill-rule="nonzero" group-id="1" node-id="81" stroke="none" target-height="6.199997" target-width="19.300003" target-x="155.7" target-y="41.4"></path><path d="M 29.60 154.30 L 34.50 156.70 L 39.40 158.70 L 44.60 160.30 L 49.90 161.40 L 55.20 162.00 L 60.70 162.00 L 66.10 161.60 L 71.50 160.50 L 76.90 158.90 L 82.60 156.60 L 88.10 153.70 L 93.40 150.30 L 98.30 146.50 L 102.90 142.30 L 107.00 137.70 L 110.70 132.70 L 113.80 127.50 L 116.40 122.00 L 117.90 117.70 L 119.00 113.40 L 119.70 109.00 L 120.00 104.40 L 119.80 99.90 L 119.20 95.30 L 118.00 90.70 L 116.30 85.90 L 114.40 81.80 L 112.10 77.80 L 106.50 70.60 L 99.90 64.10 L 94.50 59.80 L 88.80 55.90 L 84.80 53.60 L 80.70 51.80 L 76.50 50.30 L 72.20 49.20 L 66.30 48.40 L 60.50 48.20 L 54.60 48.70 L 48.70 49.70 L 43.00 51.30 L 37.40 53.40 L 31.90 56.00 L 26.80 59.10 L 22.00 62.60 L 17.40 66.60 L 13.40 70.90 L 9.70 75.60 L 7.30 79.30 L 3.40 87.20 L 2.00 91.50 L 0.90 95.80 L 0.30 100.20 L 0.00 104.80 L 0.20 109.50 L 0.80 114.40 L 1.90 119.10 L 3.30 123.50 L 5.00 127.80 L 7.20 132.00 L 12.30 139.60 L 15.30 143.00 L 19.70 147.30 L 24.50 151.00 L 29.60 154.30 Z" fill="url(#未命名的渐变_113)" fill-rule="nonzero" group-id="1" node-id="83" stroke="none" target-height="113.8" target-width="120" target-x="0" target-y="48.2"></path><path d="M 116.30 85.90 L 113.90 80.90 L 110.90 76.10 L 107.50 71.70 L 105.20 72.00 L 103.10 72.90 L 99.20 75.70 L 92.40 82.90 L 86.40 91.40 L 83.50 96.80 L 81.00 102.40 L 79.00 108.20 L 77.40 114.10 L 76.20 120.20 L 75.60 126.30 L 75.30 131.00 L 75.90 138.80 L 77.10 146.40 L 79.80 157.80 L 85.20 155.20 L 90.40 152.30 L 95.40 148.80 L 100.10 144.90 L 104.30 140.70 L 108.20 136.20 L 111.60 131.30 L 114.50 126.20 L 116.80 120.90 L 118.20 116.70 L 119.70 108.20 L 120.00 103.80 L 119.80 99.40 L 119.10 95.00 L 118.00 90.50 L 116.30 85.90 Z" fill="url(#未命名的渐变_304)" fill-rule="nonzero" group-id="1" node-id="85" stroke="none" target-height="86.100006" target-width="44.699997" target-x="75.3" target-y="71.7"></path><path d="M 40.30 103.70 L 38.80 102.20 L 37.80 100.50 L 37.30 98.60 L 37.20 96.60 L 37.60 94.60 L 38.60 92.70 L 43.60 91.70 L 47.50 96.40 L 58.70 89.30 L 59.90 92.10 L 60.00 93.60 L 59.60 95.90 L 58.70 98.00 L 57.70 99.20 L 55.20 100.90 L 59.20 99.20 L 63.30 105.60 L 62.20 108.20 L 60.20 110.10 L 57.60 111.10 L 54.90 111.00 L 56.30 112.50 L 57.30 114.20 L 57.80 116.10 L 57.80 118.10 L 57.20 120.00 L 56.20 121.80 L 54.40 121.30 L 51.20 119.60 L 48.70 116.90 L 47.80 115.30 L 46.50 117.40 L 44.80 119.20 L 42.80 120.70 L 40.50 121.70 L 39.50 120.90 L 38.40 118.70 L 38.40 116.30 L 38.90 115.00 L 32.10 112.80 L 32.30 110.20 L 32.90 107.70 L 34.00 105.50 L 35.50 103.40 L 37.40 101.70 L 39.70 100.30" fill="#222430" fill-rule="nonzero" group-id="1" node-id="87" stroke="none" target-height="32.5" target-width="31.2" target-x="32.1" target-y="89.3"></path><path d="M 101.70 97.60 L 103.30 100.90 L 103.60 102.80 L 103.10 106.50 L 101.40 109.90 L 97.90 113.10 L 97.70 114.00 L 98.00 114.90 L 98.60 115.50 L 99.50 115.80 L 100.50 115.60 L 102.70 114.00 L 104.50 112.10 L 105.80 109.90 L 106.70 107.40 L 107.20 104.90 L 107.20 102.30 L 106.70 99.70 L 105.80 97.30 L 104.40 95.00 L 103.10 94.50 L 101.70 95.00 L 101.40 95.60 L 101.40 97.00 L 101.70 97.60 Z" fill="#ffffff" fill-rule="nonzero" group-id="1" node-id="89" stroke="none" target-height="21.300003" target-width="9.5" target-x="97.7" target-y="94.5"></path><path d="M 106.10 170.20 L 110.70 172.70 L 115.40 174.80 L 120.30 176.40 L 125.30 177.60 L 130.50 178.30 L 135.60 178.60 L 140.80 178.40 L 146.00 177.80 L 151.20 176.80 L 156.20 175.50 L 161.10 173.70 L 165.90 171.50 L 170.40 169.00 L 174.70 166.10 L 178.70 162.90 L 182.40 159.30 L 186.30 154.60 L 189.50 150.00 L 192.10 145.30 L 194.00 140.50 L 195.50 135.50 L 196.40 130.50 L 196.90 125.60 L 196.80 120.60 L 196.30 115.70 L 195.30 110.80 L 193.90 106.10 L 192.10 101.40 L 189.80 96.90 L 187.30 92.60 L 184.40 88.50 L 181.10 84.60 L 177.60 81.00 L 173.80 77.70 L 169.70 74.70 L 165.30 72.00 L 160.80 69.70 L 156.10 67.90 L 151.10 66.40 L 146.00 65.40 L 140.80 64.90 L 135.60 64.90 L 130.10 65.50 L 124.50 66.60 L 119.80 68.00 L 115.40 69.80 L 111.20 72.00 L 107.40 74.50 L 103.70 77.40 L 97.20 83.90 L 94.40 87.60 L 91.10 92.80 L 88.30 98.30 L 86.00 104.10 L 84.30 110.10 L 83.20 116.20 L 82.60 122.30 L 82.60 128.50 L 83.30 134.60 L 84.50 140.50 L 85.90 144.90 L 87.60 149.10 L 89.80 153.20 L 92.20 157.10 L 95.10 160.70 L 98.30 164.10 L 102.00 167.20 L 106.10 170.20 Z" fill="url(#未命名的渐变_113-2)" fill-rule="nonzero" group-id="1" node-id="91" stroke="none" target-height="113.700005" target-width="114.299995" target-x="82.6" target-y="64.9"></path><path d="M 117.30 118.70 L 115.80 117.20 L 114.80 115.50 L 114.30 113.60 L 114.20 111.60 L 114.60 109.60 L 115.60 107.70 L 120.60 106.70 L 124.60 111.40 L 135.80 104.30 L 136.90 107.10 L 137.00 108.60 L 136.70 110.90 L 135.70 113.00 L 134.80 114.20 L 132.30 115.90 L 136.30 114.20 L 140.40 120.60 L 139.20 123.20 L 137.20 125.10 L 134.60 126.00 L 131.90 125.90 L 133.30 127.40 L 134.30 129.20 L 134.70 131.10 L 134.70 133.00 L 134.20 134.90 L 133.20 136.70 L 131.30 136.30 L 128.10 134.60 L 125.70 131.90 L 124.80 130.20 L 123.40 132.30 L 121.70 134.10 L 119.70 135.60 L 117.50 136.70 L 116.50 135.80 L 115.40 133.60 L 115.40 131.20 L 115.90 130.00 L 109.10 127.80 L 109.20 125.10 L 109.90 122.70 L 111.00 120.40 L 112.50 118.40 L 114.40 116.70 L 116.60 115.30" fill="#222430" fill-rule="nonzero" group-id="1" node-id="93" stroke="none" target-height="32.399994" target-width="31.299995" target-x="109.1" target-y="104.3"></path><path d="M 178.80 112.60 L 180.30 115.90 L 180.60 117.80 L 180.10 121.50 L 178.40 124.90 L 174.90 128.10 L 174.70 129.00 L 175.00 129.90 L 175.60 130.50 L 176.50 130.80 L 177.50 130.60 L 179.70 129.00 L 181.50 127.10 L 182.80 124.90 L 183.70 122.40 L 184.20 119.90 L 184.20 117.30 L 183.70 114.70 L 182.80 112.30 L 181.40 110.00 L 180.10 109.50 L 178.80 110.00 L 178.40 110.60 L 178.40 112.00 L 178.80 112.60 Z" fill="#ffffff" fill-rule="nonzero" group-id="1" node-id="95" stroke="none" target-height="21.300003" target-width="9.5" target-x="174.7" target-y="109.5"></path></g></svg>