<?xml version="1.0" standalone="no"?><!DOCTYPE svg PUBLIC "-//W3C//DTD SVG 1.1//EN" "http://www.w3.org/Graphics/SVG/1.1/DTD/svg11.dtd"><svg height="151" node-id="1" sillyvg="true" template-height="151" template-width="203" version="1.1" viewBox="0 0 203 151" width="203" xmlns="http://www.w3.org/2000/svg" xmlns:xlink="http://www.w3.org/1999/xlink"><defs node-id="25"><linearGradient gradientUnits="objectBoundingBox" id="未命名的渐变_260" node-id="5" spreadMethod="pad" x1="0" x2="104.99" y1="101.71" y2="101.71"><stop offset="0" stop-color="#a82900"></stop><stop offset="0.67" stop-color="#e65132"></stop><stop offset="1" stop-color="#ff6247"></stop></linearGradient><linearGradient gradientUnits="objectBoundingBox" id="未命名的渐变_260-2" node-id="9" spreadMethod="pad" x1="97.73" x2="203.27" y1="87.65" y2="87.65"><stop offset="0" stop-color="#a82900"></stop><stop offset="0.67" stop-color="#e65132"></stop><stop offset="1" stop-color="#ff6247"></stop></linearGradient></defs><g node-id="70"><path d="M 65.60 11.60 L 100.50 8.70 L 110.70 7.30 L 107.70 6.50 L 109.30 3.50 L 111.10 5.90 L 110.40 3.90 L 109.00 3.10 L 108.10 3.20 L 106.80 4.00 L 106.40 4.80 L 106.10 6.10 L 106.30 6.80 L 106.70 7.50 L 108.20 8.50 L 109.90 8.70 L 110.80 8.50 L 111.70 8.10 L 112.90 6.70 L 113.20 5.80 L 113.20 4.10 L 112.60 2.70 L 111.50 1.50 L 108.60 0.10 L 107.00 0.00 L 101.80 0.40 L 64.80 6.20 L 63.30 7.10 L 62.90 9.20 L 63.90 11.00 L 65.60 11.60 Z" fill="#6b8a45" fill-rule="nonzero" group-id="1" node-id="46" stroke="none" target-height="11.6" target-width="50.299995" target-x="62.9" target-y="0"></path><path d="M 25.80 55.80 L 21.80 57.80 L 18.00 60.20 L 14.50 63.20 L 11.30 66.40 L 8.50 70.20 L 5.90 74.50 L 3.80 79.00 L 2.20 84.10 L 0.90 89.80 L 0.20 96.20 L 0.00 102.10 L 0.40 107.60 L 1.40 112.70 L 2.90 117.70 L 4.80 122.40 L 7.10 126.70 L 9.80 130.60 L 12.90 134.30 L 16.30 137.60 L 20.00 140.50 L 23.90 143.20 L 32.40 147.30 L 41.60 150.00 L 51.00 151.20 L 60.60 150.70 L 65.30 149.90 L 69.90 148.70 L 74.40 147.00 L 78.70 144.90 L 82.90 142.40 L 86.70 139.50 L 90.40 136.10 L 93.80 132.20 L 96.80 128.00 L 99.50 123.30 L 101.80 118.10 L 103.70 112.20 L 105.00 104.70 L 104.50 97.90 L 103.50 93.60 L 101.90 89.40 L 99.80 85.50 L 94.40 78.20 L 91.20 74.80 L 86.00 70.20 L 80.50 66.00 L 74.80 62.30 L 69.50 59.10 L 64.60 56.70 L 59.70 54.80 L 54.80 53.40 L 49.70 52.60 L 44.80 52.20 L 39.80 52.30 L 35.00 53.00 L 30.30 54.10 L 25.80 55.80 Z" fill="url(#未命名的渐变_260)" fill-rule="nonzero" group-id="1" node-id="48" stroke="none" target-height="99" target-width="105" target-x="0" target-y="52.2"></path><path d="M 92.10 85.90 L 91.50 94.30 L 91.70 98.70 L 92.60 105.30 L 94.00 112.00 L 96.10 118.50 L 98.60 124.90 L 102.40 116.60 L 103.70 112.20 L 104.70 107.80 L 105.00 103.70 L 104.80 99.80 L 104.10 95.90 L 103.00 92.20 L 99.70 85.30 L 95.00 78.90 L 93.40 82.00 L 92.10 85.90 Z" fill="#cf4630" fill-rule="nonzero" group-id="1" node-id="50" stroke="none" target-height="46" target-width="13.5" target-x="91.5" target-y="78.9"></path><path d="M 148.00 38.60 L 154.50 37.30 L 158.90 37.00 L 163.30 37.20 L 167.70 37.80 L 171.90 38.90 L 176.00 40.30 L 179.90 42.20 L 183.60 44.50 L 187.10 47.20 L 190.30 50.10 L 193.20 53.40 L 195.90 57.10 L 198.10 60.90 L 200.00 65.10 L 201.40 69.50 L 202.50 74.20 L 203.20 82.90 L 202.50 91.40 L 201.20 97.00 L 199.40 102.30 L 197.00 107.40 L 194.20 112.30 L 190.90 116.90 L 187.30 121.10 L 183.20 125.00 L 178.90 128.50 L 174.20 131.50 L 169.30 134.00 L 164.20 136.00 L 159.00 137.40 L 154.90 138.00 L 146.70 138.20 L 142.50 137.70 L 137.30 136.60 L 132.20 135.00 L 127.00 133.00 L 122.10 130.40 L 117.50 127.50 L 113.20 124.20 L 109.20 120.40 L 105.70 116.40 L 102.80 112.00 L 101.00 108.50 L 99.50 104.90 L 98.50 101.10 L 97.80 97.10 L 97.70 93.10 L 98.00 89.00 L 98.80 84.70 L 100.20 80.20 L 102.40 75.40 L 105.00 70.70 L 108.10 66.10 L 111.60 61.90 L 115.40 57.80 L 124.00 50.50 L 133.30 44.60 L 138.20 42.10 L 143.10 40.10 L 148.00 38.60 Z" fill="url(#未命名的渐变_260-2)" fill-rule="nonzero" group-id="1" node-id="52" stroke="none" target-height="101.2" target-width="105.5" target-x="97.7" target-y="37"></path><path d="M 82.00 6.70 L 80.60 21.50 L 79.40 28.80 L 77.10 39.60 L 74.30 50.30 L 67.50 71.50 L 67.40 72.30 L 67.80 72.90 L 69.10 73.20 L 70.20 72.30 L 74.10 61.70 L 77.50 50.90 L 80.40 40.10 L 82.20 31.80 L 83.50 23.50 L 84.50 15.10 L 85.00 6.70 L 84.80 5.80 L 83.60 5.20 L 82.30 5.80 L 82.00 6.70 Z" fill="#6b8a45" fill-rule="nonzero" group-id="1" node-id="54" stroke="none" target-height="68" target-width="17.599998" target-x="67.4" target-y="5.2"></path><path d="M 85.00 8.10 L 86.50 14.30 L 88.40 20.60 L 90.80 26.90 L 93.70 33.00 L 97.00 38.90 L 100.70 44.50 L 103.80 48.50 L 110.80 55.50 L 114.60 58.60 L 118.70 61.30 L 123.00 63.60 L 127.60 65.50 L 132.50 66.90 L 133.10 66.90 L 134.00 66.30 L 134.30 65.20 L 133.80 64.30 L 127.30 61.50 L 121.70 58.40 L 116.50 54.90 L 111.70 50.90 L 107.20 46.50 L 103.10 41.70 L 99.40 36.60 L 96.10 31.20 L 93.20 25.50 L 90.60 19.70 L 88.50 13.70 L 86.70 7.60 L 86.50 7.20 L 85.70 7.00 L 85.00 7.60 L 85.00 8.10 Z" fill="#6b8a45" fill-rule="nonzero" group-id="1" node-id="56" stroke="none" target-height="59.9" target-width="49.300003" target-x="85" target-y="7"></path><path d="M 126.10 74.90 L 128.70 74.00 L 133.40 71.30 L 137.20 67.40 L 138.70 65.10 L 140.30 61.20 L 140.70 58.60 L 140.10 57.30 L 139.00 56.40 L 137.60 56.10 L 135.90 56.50 L 134.80 57.70 L 133.50 61.30 L 132.10 63.90 L 129.70 66.90 L 128.10 68.40 L 124.10 70.80 L 123.50 71.40 L 123.30 73.20 L 123.70 74.00 L 125.20 74.90 L 126.10 74.90 Z" fill="#a62f0d" fill-rule="nonzero" group-id="1" node-id="58" stroke="none" target-height="18.800003" target-width="17.399994" target-x="123.3" target-y="56.1"></path><path d="M 55.80 65.00 L 57.00 69.80 L 59.50 74.00 L 63.00 77.50 L 65.40 78.80 L 68.00 79.60 L 70.70 80.10 L 75.20 79.80 L 77.40 79.00 L 79.30 77.80 L 80.10 76.80 L 80.40 74.50 L 79.90 73.30 L 79.10 72.40 L 76.90 71.50 L 75.70 71.60 L 72.50 72.60 L 70.00 72.60 L 67.40 71.90 L 65.40 70.60 L 63.70 68.80 L 62.20 66.30 L 61.20 63.30 L 59.50 62.20 L 58.40 62.10 L 56.60 63.10 L 56.00 64.00 L 55.90 65.00 Z" fill="#cc340a" fill-rule="nonzero" group-id="1" node-id="60" stroke="none" target-height="18" target-width="24.600002" target-x="55.8" target-y="62.1"></path><path d="M 185.80 96.60 L 185.20 99.30 L 182.90 105.30 L 183.20 106.70 L 183.70 107.20 L 185.10 107.70 L 186.50 107.10 L 188.30 105.00 L 189.80 102.70 L 190.90 100.10 L 191.60 96.50 L 191.10 95.00 L 190.50 94.40 L 189.80 94.00 L 188.30 93.80 L 186.80 94.50 L 185.90 95.80 L 185.80 96.60 Z" fill="#ffffff" fill-rule="nonzero" group-id="1" node-id="62" stroke="none" target-height="13.899994" target-width="8.700012" target-x="182.9" target-y="93.8"></path><path d="M 61.30 140.60 L 64.20 140.40 L 67.00 139.70 L 69.60 138.40 L 71.90 136.60 L 72.30 135.90 L 71.90 134.70 L 70.70 134.30 L 67.20 136.40 L 64.20 137.70 L 60.40 138.70 L 60.20 139.10 L 60.40 140.10 L 61.30 140.60 Z" fill="#ffffff" fill-rule="nonzero" group-id="1" node-id="64" stroke="none" target-height="6.300003" target-width="12.100002" target-x="60.2" target-y="134.3"></path><path d="M 190.60 89.00 L 191.80 88.50 L 192.30 87.30 L 191.80 86.00 L 190.60 85.50 L 189.30 86.00 L 188.80 87.30 L 189.30 88.50 L 190.60 89.00 Z" fill="#ffffff" fill-rule="nonzero" group-id="1" node-id="66" stroke="none" target-height="3.5" target-width="3.5" target-x="188.8" target-y="85.5"></path><path d="M 74.70 134.70 L 75.40 134.60 L 76.30 133.60 L 76.30 132.30 L 75.40 131.30 L 74.00 131.30 L 73.10 132.30 L 73.10 133.60 L 74.00 134.60 L 74.70 134.70 Z" fill="#ffffff" fill-rule="nonzero" group-id="1" node-id="68" stroke="none" target-height="3.399994" target-width="3.2000046" target-x="73.1" target-y="131.3"></path></g></svg>