<?xml version="1.0" standalone="no"?><!DOCTYPE svg PUBLIC "-//W3C//DTD SVG 1.1//EN" "http://www.w3.org/Graphics/SVG/1.1/DTD/svg11.dtd"><svg height="228" node-id="1" sillyvg="true" template-height="228" template-width="202" version="1.1" viewBox="0 0 202 228" width="202" xmlns="http://www.w3.org/2000/svg" xmlns:xlink="http://www.w3.org/1999/xlink"><defs node-id="17"><linearGradient gradientUnits="objectBoundingBox" id="未命名的渐变_18" node-id="5" spreadMethod="pad" x1="50.48" x2="188.95" y1="164.83" y2="164.83"><stop offset="0" stop-color="#ff931e"></stop><stop offset="0.17" stop-color="#ff991d"></stop><stop offset="1" stop-color="#ffb217"></stop></linearGradient></defs><g node-id="40"><path d="M 124.10 68.50 L 121.60 63.00 L 118.70 57.80 L 115.30 52.90 L 111.50 48.30 L 107.40 44.00 L 102.90 40.00 L 98.20 36.30 L 93.10 32.90 L 87.90 29.90 L 76.90 25.00 L 71.20 23.00 L 63.30 20.90 L 55.50 19.40 L 47.60 18.50 L 39.70 18.00 L 31.80 18.00 L 23.80 18.40 L 11.90 19.50 L 0.00 21.10 L 2.40 21.10 L 5.50 21.60 L 26.60 27.80 L 43.20 33.30 L 50.20 36.20 L 57.00 39.50 L 63.60 43.20 L 70.10 47.30 L 80.70 55.60 L 85.80 60.30 L 93.10 67.80 L 107.00 83.90 L 126.50 108.20 L 129.20 112.50 L 130.20 107.90 L 130.80 103.00 L 130.80 97.90 L 130.40 92.80 L 128.60 82.60 L 126.50 75.20 L 124.10 68.50 Z" fill="#497816" fill-rule="nonzero" group-id="1" node-id="30" stroke="none" target-height="94.5" target-width="130.8" target-x="0" target-y="18"></path><path d="M 120.80 73.00 L 121.10 68.10 L 121.80 63.30 L 122.90 58.60 L 124.40 54.00 L 127.00 48.00 L 130.20 42.30 L 134.00 36.90 L 138.20 31.80 L 142.80 27.10 L 147.80 22.70 L 153.30 18.80 L 158.80 15.30 L 164.60 12.30 L 176.60 7.20 L 182.80 5.00 L 192.20 2.30 L 201.90 0.00 L 200.00 0.70 L 197.80 2.00 L 177.10 18.00 L 171.20 23.20 L 165.70 28.70 L 160.60 34.60 L 155.90 40.80 L 150.20 50.30 L 144.30 63.20 L 138.40 79.60 L 130.70 103.80 L 129.90 107.90 L 127.70 104.70 L 125.80 101.20 L 124.30 97.30 L 122.60 91.30 L 121.50 85.10 L 120.90 78.80 L 120.80 73.00 Z" fill="#93b659" fill-rule="nonzero" group-id="1" node-id="32" stroke="none" target-height="107.9" target-width="81.09999" target-x="120.8" target-y="0"></path><path d="M 124.80 106.80 L 127.50 97.90 L 129.10 93.70 L 131.10 90.20 L 132.70 88.10 L 134.40 86.60 L 136.40 85.50 L 138.30 85.10 L 140.80 85.70 L 142.10 86.50 L 139.80 88.90 L 137.70 91.80 L 133.90 98.50 L 130.50 105.60 L 128.90 108.50 L 128.00 109.60 L 126.90 110.20 L 126.20 110.10 L 125.40 109.60 L 124.40 107.80 L 124.50 105.50" fill="#497816" fill-rule="nonzero" group-id="1" node-id="34" stroke="none" target-height="25.099998" target-width="17.700005" target-x="124.4" target-y="85.1"></path><path d="M 179.40 132.60 L 176.30 128.00 L 172.90 123.80 L 169.10 119.80 L 165.00 116.20 L 161.00 113.30 L 156.70 110.70 L 152.10 108.40 L 147.30 106.50 L 140.60 104.40 L 133.80 102.90 L 126.70 102.00 L 119.60 101.60 L 112.50 101.80 L 105.60 102.60 L 98.70 103.90 L 92.20 105.70 L 86.00 108.10 L 81.60 110.30 L 77.40 112.80 L 73.60 115.70 L 70.00 119.00 L 63.60 126.40 L 58.40 134.70 L 55.70 140.70 L 53.50 146.90 L 51.90 153.30 L 50.80 159.90 L 50.50 166.40 L 50.70 172.90 L 51.30 177.80 L 53.60 187.20 L 55.40 191.70 L 57.50 196.00 L 60.10 200.10 L 63.00 204.00 L 66.40 207.70 L 74.30 214.30 L 83.00 219.50 L 89.30 222.30 L 95.70 224.60 L 102.40 226.20 L 109.20 227.40 L 116.00 228.00 L 122.90 228.00 L 129.80 227.50 L 136.50 226.50 L 143.10 225.00 L 148.20 223.30 L 153.10 221.20 L 157.90 218.50 L 162.40 215.30 L 166.70 211.80 L 170.70 207.90 L 174.40 203.70 L 177.80 199.20 L 180.80 194.50 L 183.30 189.50 L 185.40 184.40 L 187.10 179.20 L 188.20 173.80 L 188.80 168.50 L 188.90 163.10 L 188.40 157.70 L 187.50 152.40 L 186.10 147.20 L 184.30 142.20 L 182.00 137.30 L 179.40 132.60 Z" fill="url(#未命名的渐变_18)" fill-rule="nonzero" group-id="1" node-id="36" stroke="none" target-height="126.4" target-width="138.4" target-x="50.5" target-y="101.6"></path><path d="M 138.00 200.60 L 138.70 199.20 L 139.90 198.10 L 145.80 194.10 L 151.20 188.90 L 153.40 186.10 L 157.10 180.00 L 157.20 181.60 L 156.90 183.50 L 155.50 187.20 L 152.30 193.00 L 150.30 195.20 L 148.00 197.10 L 145.40 198.60 L 141.80 200.00 L 139.80 200.50 L 138.00 200.60 Z" fill="#ffffff" fill-rule="nonzero" group-id="1" node-id="38" stroke="none" target-height="20.600006" target-width="19.199997" target-x="138" target-y="180"></path></g></svg>