<svg xmlns="http://www.w3.org/2000/svg" viewBox="0 0 224.65 126.79"><defs><style>.cls-1{fill:#88a215;}.cls-2{fill:#7a9149;}.cls-3{fill:#80990e;}.cls-4{fill:#cf7802;}.cls-5{fill:#b36600;}.cls-6{fill:#6e8245;}.cls-7{fill:#79910e;}.cls-8{fill:#77943f;}.cls-9{fill:#7b940f;}.cls-10{fill:#789141;}.cls-11{fill:#7f990e;}.cls-12{fill:#75913a;}.cls-13{fill:#7b940d;}.cls-14,.cls-16{fill:none;stroke:#6e8245;stroke-miterlimit:10;}.cls-14{stroke-width:0.81px;}.cls-15{fill:#7d960d;}.cls-16{stroke-width:0.41px;}.cls-17{fill:#7c940f;}.cls-18{fill:#ed8902;}.cls-19{fill:#e08100;}.cls-20{fill:#fc9202;}.cls-21{fill:#eb8702;}.cls-22{fill:#784530;}.cls-23{fill:#88533c;}.cls-24{fill:#fff;}.cls-25{fill:#8da60f;}</style></defs><g id="图层_2" data-name="图层 2"><g id="图层_1-2" data-name="图层 1"><path class="cls-1" d="M150.43,17.34l0-.74c2.24-.08,4.45-.17,6.63-.23a5.74,5.74,0,0,0-.27,2.16c.52,8.44,9,15.5,15.29,19.84l.32,0a7.1,7.1,0,0,0,.92,3.6,30.9,30.9,0,0,1-11.44-1h-.6c-2-1.91-5.36-1.76-8-2.8-4.29-1.69-6.59-6.61-6.63-11.21,0-3.14.29-8,3.29-9.49A1.16,1.16,0,0,1,150.43,17.34Z"/><path class="cls-2" d="M150.43,17.34l0-.74h0l6.63-.35h.19l-.06.19a5.6,5.6,0,0,0-.25,1.68,16.92,16.92,0,0,0,.2,1.71c.09.57.26,1.12.39,1.68s.38,1.09.58,1.63a23.11,23.11,0,0,0,3.71,5.82,53.65,53.65,0,0,0,10.48,9.11l-.23-.06.32,0,.37,0,0,.39a6.9,6.9,0,0,0,.87,3.4l.35.54-.64.07a30.81,30.81,0,0,1-11.58-1h.11l-.6,0h-.15l-.11-.11a7.8,7.8,0,0,0-3.59-1.64,35.13,35.13,0,0,1-4.1-1,10.45,10.45,0,0,1-5.82-6,14.26,14.26,0,0,1-1-4.11,22,22,0,0,1,.07-4.22,13.81,13.81,0,0,1,1-4.09,6,6,0,0,1,1.14-1.76,4.38,4.38,0,0,1,.81-.67A1.69,1.69,0,0,1,150.43,17.34Zm0,0a1.67,1.67,0,0,0-.94.39,4.27,4.27,0,0,0-.77.7,5.68,5.68,0,0,0-1.06,1.77,13.26,13.26,0,0,0-.81,4.05,24.86,24.86,0,0,0,.06,4.14,13.85,13.85,0,0,0,1.07,4,9.94,9.94,0,0,0,5.58,5.58,35.76,35.76,0,0,0,4,1,8.33,8.33,0,0,1,3.94,1.8l-.27-.1.6,0H162a31.23,31.23,0,0,0,11.3,1l-.29.61a7.55,7.55,0,0,1-1-3.8l.4.37H172l-.11-.07a52.28,52.28,0,0,1-10.53-9.34,23.72,23.72,0,0,1-3.66-6c-.2-.56-.39-1.12-.56-1.69s-.29-1.15-.37-1.74a17.32,17.32,0,0,1-.14-1.78,5.89,5.89,0,0,1,.33-1.76l.13.18-6.63.1h0Z"/><path class="cls-3" d="M172.38,38.35l-.32,0c-4.41-3.07-10-7.49-13-12.8.27,6.28,2.94,11.84,8.49,15.22a2.62,2.62,0,0,1,1.11,1.27A30.2,30.2,0,0,0,173.3,42,7.1,7.1,0,0,1,172.38,38.35Z"/><path class="cls-4" d="M61.33,43.33a6.69,6.69,0,0,1,1.44,1.32A9.25,9.25,0,0,1,63,55.37a11,11,0,0,1-4,3.51,13,13,0,0,1-5.85,1.47,6.2,6.2,0,0,1-2.3-.33,5.91,5.91,0,0,1-3-3,10.8,10.8,0,0,1-1.21-5,9.79,9.79,0,0,1,1.63-5.49,9,9,0,0,1,3.85-3.12.33.33,0,0,0,.43,0l.41-.31A7.51,7.51,0,0,1,61.33,43.33Z"/><path class="cls-5" d="M59.79,45.89a5.42,5.42,0,0,1,1.12,1,6,6,0,0,1,.36,7.43,7.45,7.45,0,0,1-3,2.36,10.34,10.34,0,0,1-4.43.9,5.53,5.53,0,0,1-1.76-.27,4.73,4.73,0,0,1-2.32-2.11,7.29,7.29,0,0,1-1-3.53,5.86,5.86,0,0,1,4-5.85.29.29,0,0,0,.33,0l.3-.21A6.25,6.25,0,0,1,59.79,45.89Z"/><path class="cls-1" d="M202.94,46.28a17,17,0,0,1,3.14-.64C201,50.06,195.65,55.31,189,54.83c-4.7-.33-8.93-3.61-13.63-3.38-3.41.17-7.29,2.06-9.92-.11-2.82-2.31-1.47-7.25-3.85-10a4,4,0,0,0-.35-.36h.6a30.9,30.9,0,0,0,11.44,1c.79,1.22,2.16,1.77,4.34,1.26A5.33,5.33,0,0,0,181.27,40l.65.25A24.43,24.43,0,0,0,202.94,46.28Z"/><path class="cls-6" d="M202.94,46.28a16.23,16.23,0,0,1,3.14-.65h0l0,0c-1.75,1.52-3.46,3.09-5.29,4.53a26.33,26.33,0,0,1-5.9,3.69,15.54,15.54,0,0,1-3.36,1,13.23,13.23,0,0,1-3.5,0,36.68,36.68,0,0,1-6.66-2.06,14.51,14.51,0,0,0-6.74-1.1c-2.28.24-4.53,1.1-6.93.82a4.53,4.53,0,0,1-3.07-1.74,7.57,7.57,0,0,1-1.3-3.29c-.23-1.14-.35-2.3-.64-3.41a6,6,0,0,0-1.56-2.94l-.3-.3h1.07a30.77,30.77,0,0,0,11.38,1h.08l0,.06a3,3,0,0,0,1.89,1.32,5.53,5.53,0,0,0,2.39-.12A5.22,5.22,0,0,0,181.18,40l0-.08.08,0,.65.25h0A24.4,24.4,0,0,0,202.94,46.28Zm0,0a24.49,24.49,0,0,1-21.08-5.93l0,0-.66-.25.12,0a5.42,5.42,0,0,1-3.61,3.23,5.65,5.65,0,0,1-2.49.13A3.16,3.16,0,0,1,173.19,42l.12.06a31,31,0,0,1-11.49-1h.05l-.6,0,.11-.31A6.35,6.35,0,0,1,163.07,44c.3,1.14.44,2.3.66,3.43a7.25,7.25,0,0,0,1.21,3.13,4.14,4.14,0,0,0,2.82,1.62c2.26.3,4.53-.53,6.85-.76a14.66,14.66,0,0,1,6.86,1.16,35.65,35.65,0,0,0,6.6,2.1,12.46,12.46,0,0,0,3.45,0,15.53,15.53,0,0,0,3.33-.92,26.13,26.13,0,0,0,5.9-3.62c1.84-1.42,3.56-3,5.32-4.49v0A17,17,0,0,0,202.94,46.28Z"/><path class="cls-7" d="M191.62,45.73a24,24,0,0,1-9.7-5.45l-.65-.25a5.33,5.33,0,0,1-3.63,3.18c-2.18.51-3.55,0-4.34-1.26a31,31,0,0,1-5.94,0C170.86,51.32,183.46,49.36,191.62,45.73Z"/><path class="cls-1" d="M218.83,34.77c-.9-3.53-4.19-6-7.7-7s-7.22-.74-10.86-.48l-3.31.23-4,.29a27.55,27.55,0,0,1-10.11,8.38L181.36,36a11.84,11.84,0,0,1,.28,2.28,4.87,4.87,0,0,1-.37,1.72l.65.25a24.43,24.43,0,0,0,21,6,17,17,0,0,1,3.14-.64l.94-.81a7.53,7.53,0,0,1,3.4-1.92c1.09-.19,2.2.07,3.31,0a3.62,3.62,0,0,0,.46-.06C217.56,42.24,219.69,38.15,218.83,34.77Z"/><path class="cls-8" d="M218.83,34.77a9.56,9.56,0,0,0-4.42-5.56,15.08,15.08,0,0,0-6.9-2,47.72,47.72,0,0,0-7.27.17l-7.27.55.09-.05a27.64,27.64,0,0,1-10.13,8.48l-.05,0h0l-1.49-.12.2-.23a13.87,13.87,0,0,1,.3,2,4.89,4.89,0,0,1-.39,2.07l-.11-.26.65.25h0l0,0A24.26,24.26,0,0,0,193.31,46a24,24,0,0,0,9.59.18,16.89,16.89,0,0,1,3.18-.63l-.05,0a11.27,11.27,0,0,1,4-2.65c1.6-.43,3.25.26,4.79-.3a6,6,0,0,0,3.43-3.17A7,7,0,0,0,218.83,34.77Zm0,0a7,7,0,0,1-.52,4.71,6.08,6.08,0,0,1-3.45,3.23c-1.57.58-3.24-.09-4.78.34a11.19,11.19,0,0,0-3.94,2.65l0,0h0a16.1,16.1,0,0,0-3.14.65,23.41,23.41,0,0,1-3.22.4,24.62,24.62,0,0,1-17.94-6.35l.07,0-.65-.25-.19-.07.07-.19a4.84,4.84,0,0,0,.36-1.91,12.51,12.51,0,0,0-.27-2l0-.24.24,0,1.49.13-.09,0a27.44,27.44,0,0,0,10.09-8.3l0-.05H193l7.28-.48a46.69,46.69,0,0,1,7.29-.12,15.22,15.22,0,0,1,6.92,2.12A9.53,9.53,0,0,1,218.83,34.77Z"/><path class="cls-9" d="M194.32,40.29a6.65,6.65,0,0,1,0-1.34,1,1,0,0,1,.17-.58,1.23,1.23,0,0,1,.44-.3,12,12,0,0,0,3.46-1.87,2.81,2.81,0,0,0,.69-3.54,6.35,6.35,0,0,0-2-1.38c-.69-.44-1.32-1.23-1.05-2,.09-.25,1.3-1.75,1-2a.28.28,0,0,0-.16-.06c-.65-.1-3.47-.09-3.92.52a27.55,27.55,0,0,1-10.11,8.38L181.36,36a11.84,11.84,0,0,1,.28,2.28,4.87,4.87,0,0,1-.37,1.72l.65.25c2,1.87,12.53,9.42,12.72,2.81A17.66,17.66,0,0,0,194.32,40.29Z"/><path class="cls-10" d="M218.83,34.77a9.51,9.51,0,0,0-4.42-5.55,14.83,14.83,0,0,0-6.9-2,47.59,47.59,0,0,0-7.26.24L193,28l.2-.11A27.23,27.23,0,0,1,183,36.5l-.09,0h-.11l-1.48-.12.41-.47A13.89,13.89,0,0,1,182,38a5,5,0,0,1-.4,2.16l-.23-.53.65.25.07,0,.06.05a24.31,24.31,0,0,0,11.16,5.85,24.66,24.66,0,0,0,6.35.6,24.15,24.15,0,0,0,3.18-.34,16.58,16.58,0,0,1,3.21-.61l-.11,0A11.52,11.52,0,0,1,210,42.9c1.62-.4,3.25.28,4.79-.28a5.93,5.93,0,0,0,3.43-3.16A7,7,0,0,0,218.83,34.77Zm0,0a7,7,0,0,1-.52,4.71,6.05,6.05,0,0,1-3.45,3.23c-1.57.58-3.25-.08-4.77.36a11.16,11.16,0,0,0-3.91,2.68l0,0h-.06a17.31,17.31,0,0,0-3.12.68,24.06,24.06,0,0,1-9.75,0,24.44,24.44,0,0,1-11.56-5.89l.12.08-.65-.24-.38-.15.16-.38a4.76,4.76,0,0,0,.34-1.83A12.5,12.5,0,0,0,181,36.1l-.09-.51.51,0,1.49.13-.2,0a27.9,27.9,0,0,0,10.06-8.21l.08-.1h.12l7.28-.42a48.07,48.07,0,0,1,7.3-.06,15.66,15.66,0,0,1,6.93,2.14A9.57,9.57,0,0,1,218.83,34.77Z"/><path class="cls-1" d="M184.37,6.49a10.27,10.27,0,0,0-3.62-1.29,14.47,14.47,0,0,0-6.2,1c-5,1.62-15.63,4.44-17.51,10.14a5.74,5.74,0,0,0-.27,2.16c.52,8.53,8.14,14.45,14.4,19.1a3.35,3.35,0,0,0,1.82.79,8.65,8.65,0,0,0,2.22-.65,11.48,11.48,0,0,1,2.75-.05c3.37,0,5.91-2,8.52-3.85a28.42,28.42,0,0,0,3.3-2.51c.51-.49,2.67-3.57,3.18-3.59l-.34,0a14.84,14.84,0,0,0,.64-2.63A18.52,18.52,0,0,0,184.37,6.49Z"/><path class="cls-11" d="M192.47,26.8c-.05-1.12-.77-2.23-2.42-3.37-2-1.35-4.24-2.76-6.54-2.16S180,24,178,25c-2.4,1.21-5.28.54-7.82-.33s-5.18-1.93-7.83-1.46c-1.33.23-2.76,1.1-2.88,2.45-.18,1.95,3.22,4.67,4.47,6a52.93,52.93,0,0,0,7.26,5.93,3.35,3.35,0,0,0,1.82.79,8.65,8.65,0,0,0,2.22-.65,11.48,11.48,0,0,1,2.75-.05c3.37,0,5.91-2,8.52-3.85a28.42,28.42,0,0,0,3.3-2.51C191.43,29.79,192.54,28.29,192.47,26.8Z"/><path class="cls-12" d="M184.37,6.49a9.18,9.18,0,0,0-5-1.32,19.26,19.26,0,0,0-5.07,1.17,82.44,82.44,0,0,0-9.8,3.56,22.73,22.73,0,0,0-4.45,2.67,8.22,8.22,0,0,0-3,4.1,5.72,5.72,0,0,0-.11,2.54,14.82,14.82,0,0,0,.5,2.54,17,17,0,0,0,2.19,4.67A34,34,0,0,0,166.75,34c1.35,1.1,2.73,2.15,4.12,3.2a3.78,3.78,0,0,0,2.19,1.07c.8,0,1.56-.58,2.48-.7a25.5,25.5,0,0,1,2.63,0,8.28,8.28,0,0,0,2.52-.43,17.41,17.41,0,0,0,4.51-2.51c1.4-1,2.91-1.93,4.21-3.07a16.81,16.81,0,0,0,1.68-2c.27-.34.55-.68.83-1,.15-.17.29-.33.45-.49a1.44,1.44,0,0,1,.58-.41v.19l-.33,0h-.14l0-.13a17.16,17.16,0,0,0,.84-6,18.87,18.87,0,0,0-1.23-6A18,18,0,0,0,184.37,6.49Zm0,0a18.14,18.14,0,0,1,7.87,9.2,19.4,19.4,0,0,1,1.28,6,17.1,17.1,0,0,1-.81,6.11l-.09-.12.33,0,.53,0-.52.23a3.63,3.63,0,0,0-.89.84c-.28.32-.55.66-.82,1a15.84,15.84,0,0,1-1.69,2c-1.32,1.17-2.81,2.08-4.21,3.12a17.83,17.83,0,0,1-4.56,2.58,8.59,8.59,0,0,1-2.61.47,24.92,24.92,0,0,0-2.59,0c-.82.1-1.55.69-2.52.73a4.21,4.21,0,0,1-2.43-1.13c-1.4-1-2.8-2.09-4.13-3.21a34.37,34.37,0,0,1-7.12-7.67,18.11,18.11,0,0,1-2.19-4.77,15.22,15.22,0,0,1-.48-2.58,6,6,0,0,1,.13-2.64A8.49,8.49,0,0,1,160,12.42a22.67,22.67,0,0,1,4.5-2.66,80.61,80.61,0,0,1,9.85-3.49,19.27,19.27,0,0,1,5.09-1.14A9.17,9.17,0,0,1,184.37,6.49Z"/><path class="cls-1" d="M32.52,54.94l-.05.19C23,55.35,14.38,46,15.47,36.5a15.86,15.86,0,0,0,.28-4c-.13-.89-.48-1.74-.65-2.64a6.81,6.81,0,0,1,1.39-5.44A6.27,6.27,0,0,1,18.11,23c2-1.25,4.49-1.35,6.85-1.41a43,43,0,0,1,15.45,2.24c3.33,1.11,2,1.73,3.72-.94h0a8.34,8.34,0,0,0,0,3.07A21.33,21.33,0,0,0,46,31.17l4.32,9.46c.28.61,1.11,2.41,1.75,2.79a9,9,0,0,0-3.85,3.12A9.79,9.79,0,0,0,46.62,52H45.8A33.77,33.77,0,0,1,38.6,55,12.16,12.16,0,0,1,32.52,54.94Z"/><path class="cls-6" d="M32.52,54.94l-.05.19h0A16.23,16.23,0,0,1,24,52.9a19.34,19.34,0,0,1-6.33-6.17,17.26,17.26,0,0,1-2.58-8.48c.05-.75,0-1.51.14-2.25s.21-1.46.24-2.17a6.11,6.11,0,0,0-.23-2.08,19.29,19.29,0,0,1-.54-2.18A7.14,7.14,0,0,1,19,22.08a13.46,13.46,0,0,1,4.44-.86c1.48-.07,3-.1,4.45-.06a41,41,0,0,1,8.82,1.16c1.45.36,2.86.78,4.28,1.27.35.13.7.28,1,.43l.5.24c.16.09.32.08.19.11s.11-.15.18-.29l.28-.48c.19-.32.39-.64.59-1l-.05.11a.5.5,0,0,1,.19-.24l.72-.39-.16.8a10,10,0,0,0,.65,5.29c.64,1.72,1.48,3.4,2.24,5.11l2.3,5.1L50.85,41a12.75,12.75,0,0,0,.63,1.22,3.21,3.21,0,0,0,.77,1l.44.3-.47.2a8.59,8.59,0,0,0-4,3.32,9.76,9.76,0,0,0-1.44,5v.2h-1l.08,0a38.21,38.21,0,0,1-6.46,2.63A12.74,12.74,0,0,1,32.52,54.94Zm0,0a12.56,12.56,0,0,0,6.85-.29,38.35,38.35,0,0,0,6.34-2.78l0,0h0l.83,0-.2.2a10,10,0,0,1,1.42-5.28A9.12,9.12,0,0,1,52,43.16l0,.5a3.43,3.43,0,0,1-1-1.17c-.25-.41-.47-.83-.68-1.26l-1.19-2.54-2.35-5.08c-.77-1.71-1.61-3.37-2.28-5.15a10.69,10.69,0,0,1-.71-5.69l.56.4a.34.34,0,0,0,.16-.21l-.05.1c-.19.31-.38.61-.56.92l-.27.48c-.13.17-.13.34-.49.58a.68.68,0,0,1-.55,0,2.54,2.54,0,0,1-.31-.12l-.51-.23c-.32-.15-.65-.28-1-.4A43.27,43.27,0,0,0,27.9,21.94c-1.45,0-2.92,0-4.38,0a12.77,12.77,0,0,0-4.2.78,6.41,6.41,0,0,0-3.93,6.71,16.12,16.12,0,0,0,.51,2.11,6.79,6.79,0,0,1,.21,2.29c-.05.76-.18,1.49-.28,2.21s-.1,1.44-.16,2.16a16.76,16.76,0,0,0,2.38,8.26,19.32,19.32,0,0,0,6.08,6.19,16.15,16.15,0,0,0,8.34,2.44h0Z"/><path class="cls-13" d="M50.35,40.63,46,31.17a21.33,21.33,0,0,1-1.88-5.26c0-.27-.08-.55-.11-.83a2.31,2.31,0,0,1-2.23,1.13c-6.22-.29-11.16,4-12.83,9.88-2,7.08,2.1,12.38,5.84,17.92a2.55,2.55,0,0,1,.45,1.31A13.77,13.77,0,0,0,38.6,55,33.77,33.77,0,0,0,45.8,52h.82a9.79,9.79,0,0,1,1.63-5.49,9,9,0,0,1,3.85-3.12C51.46,43,50.63,41.24,50.35,40.63Z"/><path class="cls-14" d="M32.52,54.94l-.05.19C23,55.35,14.38,46,15.47,36.5a15.86,15.86,0,0,0,.28-4c-.13-.89-.48-1.74-.65-2.64a6.81,6.81,0,0,1,1.39-5.44A6.27,6.27,0,0,1,18.11,23c2-1.25,4.49-1.35,6.85-1.41a43,43,0,0,1,15.45,2.24c3.33,1.11,2,1.73,3.72-.94h0a8.34,8.34,0,0,0,0,3.07A21.33,21.33,0,0,0,46,31.17l4.32,9.46c.28.61,1.11,2.41,1.75,2.79a9,9,0,0,0-3.85,3.12A9.79,9.79,0,0,0,46.62,52H45.8A33.77,33.77,0,0,1,38.6,55,12.16,12.16,0,0,1,32.52,54.94Z"/><path class="cls-1" d="M59.2,64.75C60.47,69,61.75,73.28,63,77.53a5.94,5.94,0,0,0-1.73,1.59c-1.74,2.12-3.34,4.42-5.59,6s-5.39,2.22-7.7.76c-1-.62-1.74-1.57-2.77-2.12-1.88-1-4.18-.49-6.26,0-5.78,1.39-12.91,1.93-16.66-2.69s-1.53-12,2-17a45.29,45.29,0,0,1,8.18-8.92l.05-.19a12.16,12.16,0,0,0,6.08,0A33.77,33.77,0,0,0,45.8,52h.82a10.8,10.8,0,0,0,1.21,5,5.91,5.91,0,0,0,3,3,6.2,6.2,0,0,0,2.3.33,13,13,0,0,0,5.85-1.47L59,59C58.08,60.75,58.63,62.87,59.2,64.75Z"/><path class="cls-6" d="M59.2,64.75l3.87,12.77v0l0,0a5.77,5.77,0,0,0-1.74,1.6l-1.49,1.89a23.31,23.31,0,0,1-3.28,3.53,9.37,9.37,0,0,1-4.33,2.12,6,6,0,0,1-4.72-1c-.66-.49-1.23-1.06-1.86-1.5a4.44,4.44,0,0,0-2.12-.8,13.59,13.59,0,0,0-4.65.62,27.41,27.41,0,0,1-9.64.86,12.45,12.45,0,0,1-4.69-1.49,9.36,9.36,0,0,1-3.45-3.56,10,10,0,0,1-1.16-4.81,15.8,15.8,0,0,1,.82-4.84,27.29,27.29,0,0,1,4.77-8.44,46,46,0,0,1,6.79-6.88l-.09.14.06-.19.07-.26.25.08a12.49,12.49,0,0,0,6.75-.14,38.18,38.18,0,0,0,6.4-2.64h1V52a10.92,10.92,0,0,0,.84,4.33,6.8,6.8,0,0,0,2.74,3.39,7.48,7.48,0,0,0,4.37.44,12.71,12.71,0,0,0,4.24-1.33h0v0L59,59h0a5,5,0,0,0-.47,2.86A14.88,14.88,0,0,0,59.2,64.75Zm0,0a14.93,14.93,0,0,1-.66-2.87A4.94,4.94,0,0,1,59,59v0l-.07-.13h0a13,13,0,0,1-4.25,1.37,7.54,7.54,0,0,1-4.43-.42,7.08,7.08,0,0,1-2.84-3.43A11,11,0,0,1,46.49,52l.13.12-.82,0,.06,0a38,38,0,0,1-6.41,2.78,12.91,12.91,0,0,1-7,.27l.33-.19-.05.19,0,.08-.07,0a46.67,46.67,0,0,0-6.58,6.9,26,26,0,0,0-4.58,8.25c-1,3-1.16,6.31.3,9a8.57,8.57,0,0,0,3.13,3.28,11.81,11.81,0,0,0,4.4,1.43,27.8,27.8,0,0,0,9.42-.73A14,14,0,0,1,43.57,83a5,5,0,0,1,2.32.91c.67.49,1.23,1.08,1.85,1.55a5.56,5.56,0,0,0,4.42,1,9.09,9.09,0,0,0,4.24-2A24,24,0,0,0,59.71,81l1.51-1.87A6.13,6.13,0,0,1,63,77.49l0,.06Z"/><path class="cls-15" d="M34,56.91c-.25,6.84,1.74,13.27,9,15,5.76,1.38,12.14-.13,17.61-2.33L59.2,64.75c-.57-1.88-1.12-4-.19-5.74l-.07-.13a13,13,0,0,1-5.85,1.47,6.2,6.2,0,0,1-2.3-.33,5.91,5.91,0,0,1-3-3,10.8,10.8,0,0,1-1.21-5H45.8A33.77,33.77,0,0,1,38.6,55a12.73,12.73,0,0,1-5.21.19A2.44,2.44,0,0,1,34,56.91Z"/><path class="cls-16" d="M59.2,64.75C60.47,69,61.75,73.28,63,77.53a5.94,5.94,0,0,0-1.73,1.59c-1.74,2.12-3.34,4.42-5.59,6s-5.39,2.22-7.7.76c-1-.62-1.74-1.57-2.77-2.12-1.88-1-4.18-.49-6.26,0-5.78,1.39-12.91,1.93-16.66-2.69s-1.53-12,2-17a45.29,45.29,0,0,1,8.18-8.92l.05-.19a12.16,12.16,0,0,0,6.08,0A33.77,33.77,0,0,0,45.8,52h.82a10.8,10.8,0,0,0,1.21,5,5.91,5.91,0,0,0,3,3,6.2,6.2,0,0,0,2.3.33,13,13,0,0,0,5.85-1.47L59,59C58.08,60.75,58.63,62.87,59.2,64.75Z"/><path class="cls-1" d="M89.18,44.79c-.25,3.42-3.15,6-4.41,9.17-1.06,2.71-.88,5.72-1.39,8.58A18.37,18.37,0,0,1,65.65,77.18a6.64,6.64,0,0,0-2.27.19l-.36.16C61.75,73.28,60.47,69,59.2,64.75c-.57-1.88-1.12-4-.19-5.74l-.07-.13a11,11,0,0,0,4-3.51,9.25,9.25,0,0,0-.19-10.72,6.69,6.69,0,0,0-1.44-1.32A79.61,79.61,0,0,0,72.31,21l.45,0A6.89,6.89,0,0,0,73,22.55c.55,2.2,2.21,3.94,3.81,5.56l7.54,7.68C86.78,38.3,89.44,41.29,89.18,44.79Z"/><path class="cls-6" d="M89.18,44.79A11.91,11.91,0,0,1,87,50.11a17.17,17.17,0,0,0-2.58,5.17A44.25,44.25,0,0,0,83.65,61a16.92,16.92,0,0,1-1.5,5.61,19,19,0,0,1-7.84,8.46,17.94,17.94,0,0,1-5.49,2l-1.47.21c-.49,0-1,0-1.47.08a6,6,0,0,0-2.72.35l-.31.18-.12-.36-2.81-9.2c-.46-1.54-.94-3-1.39-4.62a11,11,0,0,1-.4-2.45,5.06,5.06,0,0,1,.54-2.52v.37l-.07-.14-.19-.34.35-.19a10.67,10.67,0,0,0,3.47-2.86,9.25,9.25,0,0,0,1.51-8.51,7,7,0,0,0-2.61-3.54l-.3-.2.21-.3a80.23,80.23,0,0,0,11.11-22.2l0-.13h.13l.45,0h.14V21a7,7,0,0,0,1,3.46,16.16,16.16,0,0,0,2.26,2.9l5.17,5.33c1.71,1.8,3.51,3.5,5.11,5.4a14.19,14.19,0,0,1,2,3.11A7.34,7.34,0,0,1,89.18,44.79Zm0,0a7.4,7.4,0,0,0-.73-3.59,14.77,14.77,0,0,0-2-3.09c-1.6-1.88-3.42-3.57-5.14-5.35L76,27.48a15.62,15.62,0,0,1-2.35-2.9A7.43,7.43,0,0,1,72.6,21l.15.15-.45,0,.16-.12A78.84,78.84,0,0,1,61.63,43.53l-.09-.5a7.79,7.79,0,0,1,2.9,3.88,10,10,0,0,1-1.57,9.26,11.44,11.44,0,0,1-3.75,3.06l.17-.53.07.13.1.19-.1.18a6.13,6.13,0,0,0-.1,4.41c.42,1.52.9,3.07,1.35,4.6l2.7,9.24-.43-.18a6.32,6.32,0,0,1,3-.37c.47,0,1,0,1.42-.05l1.42-.18a17.79,17.79,0,0,0,5.39-1.91A18.79,18.79,0,0,0,82,66.57,16.5,16.5,0,0,0,83.54,61a40.06,40.06,0,0,1,.78-5.76,17,17,0,0,1,2.61-5.17A11.74,11.74,0,0,0,89.18,44.79Z"/><path class="cls-17" d="M59.2,64.75c.34,1.16.69,2.32,1,3.47,3.67-1.19,7.51-1.91,11.21-3,4-1.17,9.6-2.73,11.66-6.79,2.25-4.44-2.18-8.81-5-11.78-3.26-3.41-7.45-7.53-12.11-8.88a2.87,2.87,0,0,1-.84-.42c-1.18,2-2.44,4-3.8,6a6.69,6.69,0,0,1,1.44,1.32A9.25,9.25,0,0,1,63,55.37a11,11,0,0,1-4,3.51L59,59C58.08,60.75,58.63,62.87,59.2,64.75Z"/><path class="cls-16" d="M89.18,44.79c-.25,3.42-3.15,6-4.41,9.17-1.06,2.71-.88,5.72-1.39,8.58A18.37,18.37,0,0,1,65.65,77.18a6.64,6.64,0,0,0-2.27.19l-.36.16C61.75,73.28,60.47,69,59.2,64.75c-.57-1.88-1.12-4-.19-5.74l-.07-.13a11,11,0,0,0,4-3.51,9.25,9.25,0,0,0-.19-10.72,6.69,6.69,0,0,0-1.44-1.32A79.61,79.61,0,0,0,72.31,21l.45,0A6.89,6.89,0,0,0,73,22.55c.55,2.2,2.21,3.94,3.81,5.56l7.54,7.68C86.78,38.3,89.44,41.29,89.18,44.79Z"/><path class="cls-1" d="M72.76,21l-.45,0a79.61,79.61,0,0,1-11,22.37,7.51,7.51,0,0,0-8.39-.22c-.28.09-.56.19-.84.31-.64-.38-1.47-2.18-1.75-2.79L46,31.17a21.33,21.33,0,0,1-1.88-5.26,8.34,8.34,0,0,1,0-3.07c1.49-2.25,2.22-5.45,3.66-7.85,1.93-3.23,3.89-6.51,6.62-9.09a14.59,14.59,0,0,1,8.73-4.2,10.9,10.9,0,0,1,1.4,0,10.69,10.69,0,0,1,9.61,10.78C74,15.35,72.68,18.19,72.76,21Z"/><path class="cls-6" d="M72.76,21l-.45,0h0a79.42,79.42,0,0,1-4.45,11.69,77.48,77.48,0,0,1-6.29,10.83l-.16.24-.24-.17a7.71,7.71,0,0,0-4-1.3,6.54,6.54,0,0,0-4,1.13l0,0-.06,0-.8.3-.18.07-.14-.09a3.66,3.66,0,0,1-1-1.2c-.24-.41-.46-.83-.67-1.26l-1.18-2.55-2.34-5.09c-.76-1.71-1.6-3.36-2.28-5.15a10.63,10.63,0,0,1-.71-5.7l0-.08,0-.07c1.22-1.88,1.87-4.14,2.86-6.28a30.41,30.41,0,0,1,1.73-3.07c.61-1,1.23-2,1.89-2.95A26.61,26.61,0,0,1,54.9,5a15.38,15.38,0,0,1,6.25-3.29,10.14,10.14,0,0,1,7,.7,11.21,11.21,0,0,1,5,4.89,10.48,10.48,0,0,1,1.07,3.36,10.28,10.28,0,0,1-.15,3.5C73.61,16.45,72.74,18.65,72.76,21Zm0,0c-.08-2.34.73-4.59,1.1-6.86a9.79,9.79,0,0,0-1.08-6.65,10.88,10.88,0,0,0-4.87-4.62,9.59,9.59,0,0,0-6.61-.55,15.05,15.05,0,0,0-5.94,3.22,26.19,26.19,0,0,0-4.47,5.2c-.65,1-1.26,1.94-1.85,2.93a28.83,28.83,0,0,0-1.68,3c-1,2.08-1.58,4.36-2.88,6.41l.06-.15a9.94,9.94,0,0,0,.65,5.28c.64,1.71,1.48,3.4,2.23,5.1l2.32,5.11L50.9,41a12.58,12.58,0,0,0,.63,1.21,3.37,3.37,0,0,0,.75,1l-.31,0,.86-.32-.09,0a7.09,7.09,0,0,1,4.43-1.22,8.3,8.3,0,0,1,4.33,1.48l-.4.07A81.82,81.82,0,0,0,67.54,32.5,79.57,79.57,0,0,0,72.3,21h0Z"/><path class="cls-9" d="M64.25,23.16c-2,1-4.07,2.06-6.44,2-1.8-.06-3.52-.86-5.25-1.26-3.05-.71-4.07-.12-5,3.06A2.54,2.54,0,0,1,45,28.83c.31.79.66,1.57,1,2.34l4.32,9.46c.28.61,1.11,2.41,1.75,2.79.28-.12.56-.22.84-.31a7.51,7.51,0,0,1,8.39.22,79.79,79.79,0,0,0,10.1-19.7C69,22.59,67.12,21.76,64.25,23.16Z"/><path class="cls-16" d="M72.76,21l-.45,0a79.61,79.61,0,0,1-11,22.37,7.51,7.51,0,0,0-8.39-.22c-.28.09-.56.19-.84.31-.64-.38-1.47-2.18-1.75-2.79L46,31.17a21.33,21.33,0,0,1-1.88-5.26,8.34,8.34,0,0,1,0-3.07c1.49-2.25,2.22-5.45,3.66-7.85,1.93-3.23,3.89-6.51,6.62-9.09a14.59,14.59,0,0,1,8.73-4.2,10.9,10.9,0,0,1,1.4,0,10.69,10.69,0,0,1,9.61,10.78C74,15.35,72.68,18.19,72.76,21Z"/><path class="cls-18" d="M118.86,33.56c3.82-10.63,15.75-16.64,27.05-16.84,1.52,0,3-.07,4.5-.12l0,.74a1.16,1.16,0,0,0-.54.13c-3,1.53-3.32,6.35-3.29,9.49,0,4.6,2.34,9.52,6.63,11.21,2.67,1,6,.89,8,2.8a4,4,0,0,1,.35.36c2.38,2.76,1,7.7,3.85,10,2.63,2.17,6.51.28,9.92.11,4.7-.23,8.93,3,13.63,3.38,6.64.48,12-4.77,17.07-9.19l.94-.81a7.53,7.53,0,0,1,3.4-1.92c1.09-.19,2.2.07,3.31,0a3.62,3.62,0,0,0,.46-.06,43.22,43.22,0,0,1,6.54,10,45.16,45.16,0,0,1,3.44,13c2.35,18.09-3.76,41.17-20.45,50.84a74.54,74.54,0,0,1-9.84,4.47c-11.35,4.5-23,4.36-34.95,2.42-18-2.93-34.9-14.92-43.76-31A63.91,63.91,0,0,0,120,79.7a77.48,77.48,0,0,0,1.39-29.16A67.27,67.27,0,0,0,118,36,17.29,17.29,0,0,0,118.86,33.56Z"/><path class="cls-19" d="M147.31,18.65c-1.58,4.41-4.8,9.15-4.54,14,.32,5.89,5.39,7.71,10,9.47,3.63,1.37,6.63,3,8.71,6.34,2.78,4.51,5.12,6.51,10.26,8.13,4.72,1.48,10.07,3.89,15,4.5,4,.49,8.35-1.26,12.38-1.64,5.21-.5,9.89-1.4,14.6-3.83a54.74,54.74,0,0,0,6.42-4,45.16,45.16,0,0,0-6-8.74,3.62,3.62,0,0,1-.46.06c-1.11.09-2.22-.17-3.31,0a7.53,7.53,0,0,0-3.4,1.92l-.94.81C201,50.06,195.65,55.31,189,54.83c-4.7-.33-8.93-3.61-13.63-3.38-3.41.17-7.29,2.06-9.92-.11-2.82-2.31-1.47-7.25-3.85-10a4,4,0,0,0-.35-.36c-2-1.91-5.36-1.76-8-2.8-4.29-1.69-6.59-6.61-6.63-11.21,0-3.14.29-8,3.29-9.49a1.16,1.16,0,0,1,.54-.13l0-.74c-1,0-2.13.06-3.2.09A2.3,2.3,0,0,1,147.31,18.65Z"/><path class="cls-19" d="M123.47,26.08a21.68,21.68,0,0,0-4.61,7.48A17.29,17.29,0,0,1,118,36a67.27,67.27,0,0,1,3.34,14.59A77.48,77.48,0,0,1,120,79.7a63.91,63.91,0,0,1-4.81,12.83,62,62,0,0,0,18.67,20.58C143.52,84.79,136.74,52.51,123.47,26.08Z"/><path class="cls-20" d="M125,79.7a63.91,63.91,0,0,1-4.81,12.83,50.86,50.86,0,0,1-6.44-22.81c-.4-11.81,3.87-23.13,9.3-33.77a67.27,67.27,0,0,1,3.34,14.59A77.48,77.48,0,0,1,125,79.7Z"/><path class="cls-20" d="M63,77.53l.36-.16a6.64,6.64,0,0,1,2.27-.19A18.37,18.37,0,0,0,83.38,62.54c.51-2.86.33-5.87,1.39-8.58,1.26-3.18,4.16-5.75,4.41-9.17s-2.4-6.49-4.86-9l-7.54-7.68c-1.6-1.62-3.26-3.36-3.81-5.56A6.89,6.89,0,0,1,72.76,21c-.08-2.8,1.25-5.64,1.4-8.51A10.69,10.69,0,0,0,64.55,1.7a10.9,10.9,0,0,0-1.4,0V0A58.73,58.73,0,0,1,83.42,3.19a92.55,92.55,0,0,1,28.15,16A39.44,39.44,0,0,1,123,36c-5.43,10.64-9.7,22-9.3,33.77a50.86,50.86,0,0,0,6.44,22.81,67.61,67.61,0,0,1-5.39,8.92c-9.78,13.72-24.91,24.24-42.26,25.22A77.29,77.29,0,0,1,29,116.13C20.4,111,10.8,103.21,6.17,94.22-5.54,71.49.32,43.65,16.15,24.15l.34.27a6.81,6.81,0,0,0-1.39,5.44c.17.9.52,1.75.65,2.64a15.86,15.86,0,0,1-.28,4C14.38,46,23,55.35,32.47,55.13a45.29,45.29,0,0,0-8.18,8.92c-3.51,5-5.84,12.24-2,17S33.19,85.14,39,83.75c2.08-.5,4.38-1,6.26,0,1,.55,1.78,1.5,2.77,2.12,2.31,1.46,5.46.8,7.7-.76s3.85-3.86,5.59-6A5.94,5.94,0,0,1,63,77.53Z"/><path class="cls-21" d="M96.5,40.21a13.06,13.06,0,0,0-4.17-8.45c-3.62-3.4-8.09-5.6-10.53-10.13-2.18-4.05-2.12-9.19-5.28-12.71a12.89,12.89,0,0,0-4.71-3.25,10.15,10.15,0,0,1,2.35,6.81c-.15,2.87-1.48,5.71-1.4,8.51A6.89,6.89,0,0,0,73,22.55c.55,2.2,2.21,3.94,3.81,5.56l7.54,7.68c2.46,2.51,5.12,5.5,4.86,9S86,50.78,84.77,54c-1.06,2.71-.88,5.72-1.39,8.58A18.37,18.37,0,0,1,65.65,77.18a6.64,6.64,0,0,0-2.27.19l-.36.16a5.94,5.94,0,0,0-1.73,1.59c-1.74,2.12-3.34,4.42-5.59,6s-5.39,2.22-7.7.76c-1-.62-1.74-1.57-2.77-2.12-1.88-1-4.18-.49-6.26,0-5.78,1.39-12.91,1.93-16.66-2.69s-1.53-12,2-17a45.29,45.29,0,0,1,8.18-8.92C23,55.35,14.38,46,15.47,36.5a15.86,15.86,0,0,0,.28-4c-.12-.83-.43-1.63-.61-2.46-1.83,5.31-3.78,11-2.35,16.55,1,4,4,7.28,4.95,11.37,1.42,6.21-1.2,13.48-1.5,19.78C16,82.58,16.18,89,21.32,91.29c4.37,1.94,9,.38,13.47-.27a27.17,27.17,0,0,1,12.59,1.19c4.2,1.31,8.48,2.47,12.64.39,3.19-1.6,5.54-4.6,8.16-6.92a31.12,31.12,0,0,1,9.3-5.3c4.4-1.81,7-3.84,9.1-8.28,3.81-8.09,4-17.2,8.92-24.92.35-.56.74-1.12,1.14-1.7a2.5,2.5,0,0,1-.31-1.38C96.39,42.77,96.47,41.48,96.5,40.21Z"/><path class="cls-20" d="M44.14,22.84h0c-1.77,2.67-.39,2-3.72.94A43,43,0,0,0,25,21.55c-2.36.06-4.85.16-6.85,1.41a6.27,6.27,0,0,0-1.62,1.46l-.34-.27c9-11.13,21.3-19.54,35.4-22.73A57.75,57.75,0,0,1,63.14,0V1.7a14.59,14.59,0,0,0-8.73,4.2C51.69,8.48,49.73,11.76,47.8,15,46.36,17.39,45.63,20.59,44.14,22.84Z"/><path class="cls-22" d="M173.3,42c.79,1.22,2.16,1.77,4.34,1.26A5.33,5.33,0,0,0,181.27,40a4.87,4.87,0,0,0,.37-1.72,6,6,0,0,0-.07-1,18.4,18.4,0,0,0-8.37,4.48A1.74,1.74,0,0,0,173.3,42Z"/><path class="cls-23" d="M183.93,20.51c0-.22,0-.43.06-.65.07-1.66-.71-3.51-2.28-4.07a3.94,3.94,0,0,0-4.22,1.53,5.93,5.93,0,0,0-.53.81,14.54,14.54,0,0,0-1.27,3.6c-.7,2.73-3.53,11.12-3.31,16.62a7.52,7.52,0,0,0,.82,3.41,18.4,18.4,0,0,1,8.37-4.48c0-.42-.13-.84-.21-1.25l-.15-.76a20.76,20.76,0,0,1,1.39-10.63A19.69,19.69,0,0,0,183.93,20.51Z"/><path class="cls-23" d="M61.49,28a3.93,3.93,0,0,0-4.22,1.54,7,7,0,0,0-.54.8,14.88,14.88,0,0,0-1.27,3.61c-.69,2.72-3.53,11.12-3.3,16.62a7.24,7.24,0,0,0,.91,3.6c.8,1.22,2.16,1.77,4.34,1.26A5.29,5.29,0,0,0,61,52.23a4.66,4.66,0,0,0,.37-1.72,10.47,10.47,0,0,0-.28-2.29c-.05-.25-.1-.5-.14-.75a20.64,20.64,0,0,1,1.39-10.63,19.85,19.85,0,0,0,1.32-4.13c0-.22,0-.43.06-.65A4.07,4.07,0,0,0,61.49,28Z"/><path class="cls-24" d="M97.32,46.81a25.9,25.9,0,0,1-.74,21.36c-.71,1.4,1.39,2.63,2.1,1.23a28.23,28.23,0,0,0,1-23.24c-.59-1.43-3-.81-2.35.65Z"/><path class="cls-24" d="M96.85,40.64a1.22,1.22,0,0,0,0-2.44,1.22,1.22,0,0,0,0,2.44Z"/><path d="M175.38,68.61a20.52,20.52,0,0,0,18.06-2c.44-.28,0-1-.41-.7a19.72,19.72,0,0,1-17.43,1.89c-.49-.18-.7.6-.22.79Z"/><path class="cls-24" d="M201.44,63.62l-.74-.69a.9.9,0,0,0-.39-.25.85.85,0,0,0-.47-.1.83.83,0,0,0-.47.1.9.9,0,0,0-.39.25l-.2.25a1.22,1.22,0,0,0-.16.62l0,.32a1.15,1.15,0,0,0,.32.54l.74.68a.82.82,0,0,0,.39.25.86.86,0,0,0,.47.11.84.84,0,0,0,.47-.11.82.82,0,0,0,.39-.25l.19-.24a1.14,1.14,0,0,0,.17-.62l0-.32a1.15,1.15,0,0,0-.32-.54Z"/><path class="cls-25" d="M170.75,26.9a70.57,70.57,0,0,1-3.95-7.75c-.29-.61-1.23-.17-1.07.45a27.52,27.52,0,0,0,3.79,8c.5.77,1.72.06,1.23-.71Z"/><path class="cls-25" d="M183.05,27.15q.93-.69,1.8-1.47a13.82,13.82,0,0,0,1.56-1.77,14.48,14.48,0,0,0,2.22-4c.25-.69-.8-1.1-1.16-.49a35.16,35.16,0,0,1-5.08,6.91c-.42.43.14,1.24.66.86Z"/><path class="cls-25" d="M196.12,34.23a11.81,11.81,0,0,1,4.42-.49,28,28,0,0,1,4.32.94c.42.1.85-.47.46-.79a8.1,8.1,0,0,0-4.63-1.51,11.39,11.39,0,0,0-4.86.8c-.64.24-.39,1.27.29,1Z"/><path class="cls-25" d="M191.89,37.87c2.3,3,5.49,5.66,9.19,6.56a.61.61,0,0,0,.47-1.12l-2.35-1.37c-.78-.47-1.55-.95-2.29-1.48A20.51,20.51,0,0,1,193,36.75a.81.81,0,0,0-1.11,0,.82.82,0,0,0,0,1.12Z"/><path class="cls-25" d="M173.36,44.82A9.47,9.47,0,0,0,171,46.76a6.83,6.83,0,0,0-.88,1.31,3.25,3.25,0,0,0-.45,1.61.5.5,0,0,0,.84.35,5.47,5.47,0,0,0,.45-.51c.16-.2.31-.4.46-.62s.14-.19.21-.29-.08.1,0,0l.12-.15.44-.52a9,9,0,0,1,1-1l.27-.23c.07-.06.05,0,0,0l.16-.12a6.25,6.25,0,0,1,.6-.4.8.8,0,0,0-.81-1.38Z"/><path class="cls-25" d="M182.12,46.71a62.16,62.16,0,0,0,5.64,5.12.75.75,0,0,0,1-.2.77.77,0,0,0-.06-1,60.29,60.29,0,0,0-5.3-5.18.91.91,0,0,0-1.26,0,.92.92,0,0,0,0,1.26Z"/><path class="cls-25" d="M165.16,36.76A23.45,23.45,0,0,1,162,34.27a22.89,22.89,0,0,1-2.75-3,.84.84,0,0,0-1.1-.29.82.82,0,0,0-.28,1.1,17.54,17.54,0,0,0,2.77,3.53,16.88,16.88,0,0,0,3.64,2.65.89.89,0,0,0,1.2-.31.89.89,0,0,0-.31-1.2Z"/><path class="cls-25" d="M53.65,30.13a13.89,13.89,0,0,1-.74-6.85,17.09,17.09,0,0,1,.88-3.3c.4-1.09,1-2.07,1.44-3.15.2-.52-.49-.76-.83-.49a7.8,7.8,0,0,0-2,3,13.63,13.63,0,0,0-1,3.69,15.3,15.3,0,0,0,.77,7.5c.36,1,1.94.55,1.57-.43Z"/><path class="cls-25" d="M65.83,26.65A18.84,18.84,0,0,0,67.58,18c0-.49-.76-.66-.9-.13-.34,1.39-.59,2.79-.93,4.18a27.28,27.28,0,0,1-1.33,4,.77.77,0,1,0,1.41.6Z"/><path class="cls-25" d="M68.9,45a12,12,0,0,1,4.94-1.84,12.26,12.26,0,0,1,2.57-.06,16.24,16.24,0,0,0,2.68.22c.31,0,.6-.45.29-.69a4.8,4.8,0,0,0-2.63-.84,13.59,13.59,0,0,0-3,.1,13,13,0,0,0-5.46,2.08c-.64.42,0,1.45.6,1Z"/><path class="cls-25" d="M66.47,61.59a22.84,22.84,0,0,0,4.79,7.65c.58.58,1.37-.27.88-.88-.89-1.11-1.79-2.22-2.57-3.42a25.64,25.64,0,0,1-2-3.79c-.26-.59-1.29-.16-1,.44Z"/><path class="cls-25" d="M37,60.54a14.12,14.12,0,0,0-5.69,3.15,10.18,10.18,0,0,0-3.49,5.47.55.55,0,0,0,1,.42c.51-.85.95-1.74,1.48-2.58a12.9,12.9,0,0,1,1.9-2.33,12.72,12.72,0,0,1,5.1-3.05.56.56,0,0,0-.3-1.08Z"/><path class="cls-25" d="M50.62,69.38c.19,1.74.3,3.49.32,5.25s-.11,3.51,0,5.26c0,.68,1.11.91,1.25.17a23.75,23.75,0,0,0,.26-5.33c-.06-1.79-.21-3.57-.43-5.35a.73.73,0,0,0-.69-.69.7.7,0,0,0-.69.69Z"/><path class="cls-25" d="M36.71,32.34a40,40,0,0,0-5.67-4,17.7,17.7,0,0,0-6.37-2.64c-.67-.08-.8.88-.32,1.19a22.46,22.46,0,0,0,2.87,1.41c1,.45,2,.94,3,1.48a37.29,37.29,0,0,1,5.43,3.64c.75.6,1.84-.44,1.08-1.08Z"/><path class="cls-25" d="M33.86,46.72c-2.26-.51-4.39.25-6.57.73a6.12,6.12,0,0,1-4.88-.66c-.83-.58-1.58.64-1,1.32,1.34,1.61,3.55,1.67,5.45,1.36,2.17-.36,4.32-1.54,6.56-1.11,1.07.21,1.53-1.39.46-1.64Z"/></g></g></svg>