<svg xmlns="http://www.w3.org/2000/svg" xmlns:xlink="http://www.w3.org/1999/xlink" viewBox="0 0 199.85 178.25"><defs><style>.cls-1{fill:url(#未命名的渐变_6);}.cls-2{fill:url(#未命名的渐变_14);}.cls-3{fill:#f7728d;}.cls-4{fill:url(#未命名的渐变_14-2);}.cls-5{fill:url(#未命名的渐变_14-3);}.cls-6{fill:url(#未命名的渐变_14-4);}.cls-7{fill:url(#未命名的渐变_14-5);}.cls-8{fill:url(#未命名的渐变_6-2);}.cls-9{fill:url(#未命名的渐变_14-6);}.cls-10{fill:#bed151;}.cls-11{fill:#b5c74d;}.cls-12{fill:#b32f60;}.cls-13{fill:url(#未命名的渐变_24);}.cls-14{fill:url(#未命名的渐变_14-7);}.cls-15{fill:#ff5679;}.cls-16{fill:#ea4a6c;}.cls-17{fill:url(#未命名的渐变_14-8);}.cls-18{fill:url(#未命名的渐变_14-9);}.cls-19{fill:url(#未命名的渐变_6-3);}.cls-20{fill:url(#未命名的渐变_14-10);}.cls-21{fill:url(#未命名的渐变_14-11);}.cls-22{fill:#d94564;}.cls-23{fill:url(#未命名的渐变_14-12);}.cls-24{fill:url(#未命名的渐变_6-4);}.cls-25{fill:url(#未命名的渐变_14-13);}.cls-26{fill:url(#未命名的渐变_6-5);}.cls-27{fill:url(#未命名的渐变_6-6);}.cls-28{fill:url(#未命名的渐变_14-14);}.cls-29{fill:url(#未命名的渐变_6-7);}.cls-30{fill:#4f751d;}.cls-31{fill:#5f8c23;}.cls-32{fill:#527a20;}.cls-33{fill:#5b8723;}.cls-34{fill:#486b1c;}.cls-35{fill:url(#未命名的渐变_6-8);}.cls-36{fill:url(#未命名的渐变_14-15);}.cls-37{fill:url(#未命名的渐变_14-16);}.cls-38{fill:url(#未命名的渐变_14-17);}.cls-39{fill:url(#未命名的渐变_14-18);}</style><linearGradient id="未命名的渐变_6" x1="178.76" y1="128.15" x2="192.4" y2="127.35" gradientUnits="userSpaceOnUse"><stop offset="0" stop-color="#ea4a6c"/><stop offset="1" stop-color="#b32f60"/></linearGradient><linearGradient id="未命名的渐变_14" x1="124.93" y1="22.21" x2="140.9" y2="15.3" gradientUnits="userSpaceOnUse"><stop offset="0" stop-color="#ea4a6c"/><stop offset="1" stop-color="#bed151"/></linearGradient><linearGradient id="未命名的渐变_14-2" x1="156.43" y1="79.35" x2="164.83" y2="64.52" xlink:href="#未命名的渐变_14"/><linearGradient id="未命名的渐变_14-3" x1="143.1" y1="77.85" x2="147.18" y2="72.54" xlink:href="#未命名的渐变_14"/><linearGradient id="未命名的渐变_14-4" x1="121.28" y1="45.27" x2="156.34" y2="34.57" xlink:href="#未命名的渐变_14"/><linearGradient id="未命名的渐变_14-5" x1="127.65" y1="62.66" x2="182.01" y2="43.91" xlink:href="#未命名的渐变_14"/><linearGradient id="未命名的渐变_6-2" x1="151.92" y1="34.94" x2="129.66" y2="38.55" xlink:href="#未命名的渐变_6"/><linearGradient id="未命名的渐变_14-6" x1="156.49" y1="26.15" x2="168.3" y2="22.55" xlink:href="#未命名的渐变_14"/><radialGradient id="未命名的渐变_24" cx="124.51" cy="125.25" r="44.28" gradientUnits="userSpaceOnUse"><stop offset="0" stop-color="#cc0a36"/><stop offset="1" stop-color="#d7156c"/></radialGradient><linearGradient id="未命名的渐变_14-7" x1="90.18" y1="165.87" x2="107.14" y2="175.97" xlink:href="#未命名的渐变_14"/><linearGradient id="未命名的渐变_14-8" x1="73.64" y1="56.28" x2="84.46" y2="34.06" xlink:href="#未命名的渐变_14"/><linearGradient id="未命名的渐变_14-9" x1="109.62" y1="25.93" x2="131.84" y2="21.66" xlink:href="#未命名的渐变_14"/><linearGradient id="未命名的渐变_6-3" x1="79.5" y1="71.66" x2="106.54" y2="60.94" xlink:href="#未命名的渐变_6"/><linearGradient id="未命名的渐变_14-10" x1="106.64" y1="14.73" x2="121.54" y2="9.54" xlink:href="#未命名的渐变_14"/><linearGradient id="未命名的渐变_14-11" x1="62.59" y1="35.88" x2="91.19" y2="11.17" xlink:href="#未命名的渐变_14"/><linearGradient id="未命名的渐变_14-12" x1="25.19" y1="85.02" x2="38.56" y2="55.36" xlink:href="#未命名的渐变_14"/><linearGradient id="未命名的渐变_6-4" x1="51.46" y1="82.18" x2="64.95" y2="68.33" xlink:href="#未命名的渐变_6"/><linearGradient id="未命名的渐变_14-13" x1="58.39" y1="62.05" x2="40.36" y2="77.76" xlink:href="#未命名的渐变_14"/><linearGradient id="未命名的渐变_6-5" x1="42.35" y1="124.11" x2="54.37" y2="133.52" xlink:href="#未命名的渐变_6"/><linearGradient id="未命名的渐变_6-6" x1="39.94" y1="115.67" x2="42.92" y2="105.73" xlink:href="#未命名的渐变_6"/><linearGradient id="未命名的渐变_14-14" x1="40.51" y1="105.13" x2="32.93" y2="113.84" xlink:href="#未命名的渐变_14"/><linearGradient id="未命名的渐变_6-7" x1="44.83" y1="101.42" x2="63.87" y2="90.93" xlink:href="#未命名的渐变_6"/><linearGradient id="未命名的渐变_6-8" x1="18.05" y1="116.77" x2="36.45" y2="116.77" xlink:href="#未命名的渐变_6"/><linearGradient id="未命名的渐变_14-15" x1="15.24" y1="46.38" x2="11.37" y2="59.29" xlink:href="#未命名的渐变_14"/><linearGradient id="未命名的渐变_14-16" x1="10.83" y1="100.05" x2="8.25" y2="75.52" xlink:href="#未命名的渐变_14"/><linearGradient id="未命名的渐变_14-17" x1="165.44" y1="143" x2="196.17" y2="143" xlink:href="#未命名的渐变_14"/><linearGradient id="未命名的渐变_14-18" x1="178.51" y1="122.29" x2="199.46" y2="122.29" xlink:href="#未命名的渐变_14"/></defs><g id="图层_2" data-name="图层 2"><g id="图层_1-2" data-name="图层 1"><path class="cls-1" d="M182.93,138c-3.38.37-5.72-2.48-8.57-.81-1.61.94-2.73,5.38-3.86,6.92-.31.42-.63.84-1,1.26A49.48,49.48,0,0,0,172,112l.32-.09c2.08,3.21,4.77,6.78,8.59,6.85,2.17,0,4.16-1.12,6.28-1.58a9.59,9.59,0,0,1,9,2.77,8.54,8.54,0,0,1,1.4,9.22c-1.5,3.06-4.75,4.79-7.8,6.32a22,22,0,0,1-6.71,2.5Z"/><path class="cls-2" d="M179.49,8.3a4.58,4.58,0,0,1,.65,4.83c-3.4-.51-6.21-2.83-9.24-4.46-6.06-3.25-13.32-3.74-20.08-2.46-6.42,1.2-12.46,3.9-18.22,7a26.43,26.43,0,0,0-4.42-1.41,32.42,32.42,0,0,0-3.78-.64,24.76,24.76,0,0,0,6.13-5.55c-.31,0-.61-.08-.92-.1a51.32,51.32,0,0,1,45.77-.21A11.47,11.47,0,0,1,179.49,8.3Z"/><path class="cls-3" d="M169.53,145.34a48.47,48.47,0,0,1-3.39,6.32C166.26,149.33,168,147.32,169.53,145.34Z"/><path class="cls-4" d="M168.35,58q-8.88,12.35-18.43,24.22c-.13.17-.27.36-.42.53A49,49,0,0,1,156,87.31l.05,0c4.86-5.72,8.31-13.51,11.14-20.46C168.32,64.06,169.36,60.89,168.35,58Z"/><path class="cls-5" d="M150,70.32c-1.25,3.63-2.49,7.27-3.74,10.89-2.76-1.2-5.69-2.19-8.63-3.45l.1-.26A30.36,30.36,0,0,0,150,70.32Z"/><path class="cls-6" d="M144.68,46.15c.12.26.27.51.41.75,4.86-1.59,9.8-3,14.64-4.56.78-.33,1.56-.66,2.35-1l0-.12a1.21,1.21,0,0,1,.05-.14,78.45,78.45,0,0,0-30.63-5.44c-3.65.64-7.29,1.29-10.89.59s-5.53-1.93-7.44-5a.72.72,0,0,0-.34-.33.66.66,0,0,0-.56.18,24.24,24.24,0,0,0-8.28,10c-1.87,4.21-3.51,8.43-7.15,11.55l-.46-.2-.11,1.92,1.38.1c1.79.17,3.8.6,4.94,1.9a18.5,18.5,0,0,1,11.47,6A17.23,17.23,0,0,1,115.28,64c.31-1.45,1.69-2.58,4.67-3.52l1.15-.35c7.05-6.9,15.39-10.45,24-13.27C145,46.66,144.8,46.41,144.68,46.15Z"/><path class="cls-7" d="M183.31,34.92l-4.4.74A94.93,94.93,0,0,0,161.58,40l-.34.14q-1.19.45-2.34,1c-4.84,1.6-9.78,3-14.64,4.56-8.61,2.82-16.95,6.37-24,13.26l-1.15.36c-3,.93-4.35,2.07-4.66,3.52a18.47,18.47,0,0,1,3.17,8c.18,1.17-1,5.67,0,6.06a1.62,1.62,0,0,0,.82.06c4.27-.41,7.71-3.95,11.25-6.19a133.78,133.78,0,0,1,13.46-7.46c5.4-2.6,11.19-5,16.57-7.92.7-.23,1.39-.47,2.09-.72,12.58-4.56,24-11.79,35.29-19,1.3-.82,2.74-1.89,2.78-3.42Zm-30.69,9.22-.2.11Zm-3.13,1.72-.33.18ZM126.24,57.11l-.15,0Zm9.17-3.42-.71.31Zm-2.23,1-.78.3Zm-2.24.87-.75.26Zm-2.29.8-.6.19Z"/><path class="cls-8" d="M149.45,30.4a8.88,8.88,0,0,0,.5-.75l-1.69.27a28.27,28.27,0,0,1-3.39.43c-1,.08-2,.16-3,.33-8.36,1.33-17.56,2.66-25.92,4l.7.29a15.75,15.75,0,0,0,4,1.31c4.91.95,10.4-.18,15.41-.08a57.85,57.85,0,0,1,12.31,1.39,67.59,67.59,0,0,0,11.1,2.06c1.49.09,3.68-.18,4-1.91s-2-3.24-3.3-4.19A14.88,14.88,0,0,0,149.45,30.4Zm-10.89,4.38-.51,0Zm-5.6.64.59-.1Zm4.35-.58-.54,0Zm-1.25.12-.56.07Zm-1.25.16-.57.09Zm4.57-.34h0Zm3,.27.29.05h0Zm1.08-.18a10.84,10.84,0,0,0,2.19-1h0A10.84,10.84,0,0,1,143.47,34.87Z"/><path class="cls-9" d="M167,14.41c-.28-1.59-1.06-3.48-2.68-3.59-1.26-.09-2.25,1-3,2-3.19,4.21-5.48,11.8-9.18,15.2a8,8,0,0,1-3.89,1.9l1.69-.27c-.15.26-.34.5-.52.75,5.41-.65,10.79,2.23,14.14,6.68.73-2,1.41-4.07,2-6.13.29-1,.55-2.05.78-3.08A34.53,34.53,0,0,0,167,14.41Z"/><path class="cls-10" d="M129.61,5.49c.31,0,.61.06.92.1a24.76,24.76,0,0,1-6.13,5.55c-.84-.09-1.7-.15-2.55-.17a19.53,19.53,0,0,1,6-4.53C128.42,6.11,129,5.79,129.61,5.49Z"/><path class="cls-10" d="M121.85,11c.85,0,1.71.08,2.55.17a23.94,23.94,0,0,1-3.82,2A9.66,9.66,0,0,1,121.85,11Z"/><path class="cls-10" d="M118.46,72a18.52,18.52,0,0,0-3.18-8A17.23,17.23,0,0,0,114,62.45a18.5,18.5,0,0,0-11.47-6,3.35,3.35,0,0,1,.51.72c1.4,2.69-1.08,5.72-3.46,7.58C90.53,71.9,79.55,76.9,72,85.52c-.49.57-1,1.15-1.43,1.75-1.16,1.5-2.07,4-.48,5a3.67,3.67,0,0,0,2.66.2l17-3a7.18,7.18,0,0,0,1.11-.27,49.05,49.05,0,0,1,27.72-12.87l0-.23A17.79,17.79,0,0,0,118.46,72Z"/><path class="cls-11" d="M118.59,73.18a20.54,20.54,0,0,0-4.21.59,70.4,70.4,0,0,0-17.18,7,84.91,84.91,0,0,0-14.35,10l7-1.24a7.18,7.18,0,0,0,1.11-.27,49.05,49.05,0,0,1,27.72-12.87l0-.23A17.55,17.55,0,0,0,118.59,73.18Z"/><path class="cls-12" d="M124.51,81a44.25,44.25,0,0,0-44.28,44.28c0,.33,0,.68,0,1A44.28,44.28,0,1,0,124.51,81Z"/><path class="cls-13" d="M124.51,81a44.25,44.25,0,0,0-44.28,44.28c0,.33,0,.68,0,1A44.28,44.28,0,1,0,124.51,81Z"/><path class="cls-14" d="M110.87,172.63a25.74,25.74,0,0,0,6.35,2.21c-3.65,3.07-8.79,3.88-13.51,3.16s-9.11-2.8-13.35-5A19.85,19.85,0,0,1,85,169.35a9.83,9.83,0,0,1-2.06-3.44,7.59,7.59,0,0,0-.65-3.57c0-2.76,1.43-5.06,5-4.84A49.38,49.38,0,0,0,110.87,172.63Z"/><path class="cls-15" d="M172,112a49.37,49.37,0,0,0-16-24.62h0l0,0A49.06,49.06,0,0,0,124.53,76h0a49.65,49.65,0,0,0-5.88.35A49.05,49.05,0,0,0,90.91,89.18,49.84,49.84,0,0,0,82,100.28a49.32,49.32,0,0,0,3.59,55.23c.53.68,1.07,1.34,1.64,2l.35,0-.35,0a49.38,49.38,0,0,0,23.64,15.13c-.5-.24-1-.49-1.49-.75.5.26,1,.51,1.49.75a49.38,49.38,0,0,0,55.27-21c.12-2.33,1.82-4.35,3.39-6.32A49.48,49.48,0,0,0,172,112ZM87.88,157.59A13.67,13.67,0,0,1,92,159.47,13.67,13.67,0,0,0,87.88,157.59Zm5,2.43c.32.22.65.44,1,.68C93.5,160.46,93.17,160.24,92.85,160Zm3.49,2.54c.63.49,1.25,1,1.87,1.49C97.59,163.55,97,163.05,96.34,162.56Zm28.17,7a44.27,44.27,0,0,1-44.26-43.27c0-.33,0-.68,0-1a44.28,44.28,0,1,1,44.28,44.28Z"/><path class="cls-16" d="M80.91,29.19a40.32,40.32,0,0,0-22.42,5.44h0c-2,3.8-1.25,8-2.9,11.5v5.7a6.06,6.06,0,0,1,3.45.67c1.89,1,3,3.05,3.91,5,.12.25.22.5.34.74,3-10,8.41-18.19,15.24-25.59A15,15,0,0,1,81,29.24Z"/><path class="cls-16" d="M87.47,41.58c0,.06-.07.14-.11.21,0,.34,0,.68.06,1C87.45,42.4,87.47,42,87.47,41.58Z"/><path class="cls-16" d="M96.8,52.75c3.33-2.85,5.08-7,7.5-10.62,1.55-2.29,1.28-3-1.52-3.63a17.18,17.18,0,0,0-6.85-.16c-2.75.48-7.8,2-8.45,5.08-.76,3.62-.65,6.92-2.38,10.37A19,19,0,0,1,82,58.25c-1.12,1.21-2.88,2-3.91,3.18a17.15,17.15,0,0,1-1.74,1.78c5-1.77,9.68-3.23,14.3-5.21a37.87,37.87,0,0,1,11.57-1.83,8.1,8.1,0,0,0-4.63-1.6l-1.38-.1.11-1.92Z"/><path class="cls-17" d="M82.22,28c-.44.41-.87.84-1.26,1.26a14.56,14.56,0,0,0-2.55,3.64,2.12,2.12,0,0,1,.11-.21c-6.83,7.4-12.27,15.58-15.24,25.59a72.79,72.79,0,0,1,3,7.83c2.64.26,4.23-.83,6-1.41,1.4-.52,2.75-1,4.08-1.47a17.15,17.15,0,0,0,1.74-1.78c6.18-3.73,9.28-10.57,9.31-17.73l-.09.09c0-.32.06-.65.09-1s0-.68-.06-1c0-.07.07-.15.11-.21C87.58,36.44,86.14,30.76,82.22,28Zm3.34,17.49a33.83,33.83,0,0,1,1.8-3.68A33.83,33.83,0,0,0,85.56,45.47Zm-1.33,3.44c.07-.18.14-.36.2-.55C84.37,48.55,84.3,48.73,84.23,48.91Zm.43-1.14c.11-.31.23-.61.34-.91C84.89,47.16,84.77,47.46,84.66,47.77Zm.46-1.21c.14-.36.29-.72.44-1.07C85.41,45.84,85.26,46.2,85.12,46.56Z"/><path class="cls-18" d="M141.13,19.54a20.64,20.64,0,0,0-8.53-6.35c-10.74-4.52-22.71-1.88-32.7,3.32C98.58,17.19,97,18,95.33,19c-4.37,2.43-9.52,5.61-13.11,9,4.49,3.19,5.73,10.2,5.11,15.81.14-1.24,3.54-3,4.54-3.55a14.57,14.57,0,0,1,5.37-1.43,19.82,19.82,0,0,1,5.69.44c.53.11,2.22.88,2.67.7s1.26-1.92,1.72-2.41a37,37,0,0,1,16-10.21,32.16,32.16,0,0,1,14.52-1.06c1.81.3,3.78,1.4,4.72-.69S142.37,21.17,141.13,19.54Z"/><path class="cls-19" d="M102.52,56.51a4.39,4.39,0,0,0-3.28-.63,72.14,72.14,0,0,0-17.62,4.41c-1.13.42-15.41,5.5-15.31,5.8.32,1,.62,2,.9,3A50,50,0,0,1,72,85.52C79.55,76.9,90.53,71.9,99.6,64.77c2.38-1.86,4.86-4.89,3.46-7.58A2.46,2.46,0,0,0,102.52,56.51Z"/><path class="cls-20" d="M106.36,9.51A4.41,4.41,0,0,0,104.47,11a19,19,0,0,1,1.72,1.53,73.1,73.1,0,0,0-16.74,4.26c-5.7,2.1-11.27,4.7-16.78,7.28-5,2.34-10.22,4.86-13.44,9.33a9.74,9.74,0,0,0-.74,1.2,40.32,40.32,0,0,1,22.42-5.44l0,0c3.57-3.88,9.46-7.55,14.37-10.28C97,18,98.58,17.19,99.9,16.51c6.75-3.52,14.4-5.77,21.95-5.54a19.53,19.53,0,0,1,6-4.53c.59-.33,1.18-.65,1.78-1A43.94,43.94,0,0,0,106.36,9.51Z"/><path class="cls-21" d="M104.47,11C98.18,6.11,89.13,5.32,81.33,7.48,72.79,9.85,65.42,15.2,58.41,20.63c-3.29,2.54-6.76,5.49-7.47,9.59,0,.26-.08.53-.1.8h0Q41.51,39.85,32.18,48.7l-.78.74a57.88,57.88,0,0,0-8.89,10h0c0,.2,0,.38-.06.54,4.88-6.16,13.73-7.29,21.57-7a2.79,2.79,0,0,1-1.29,2.89A8.87,8.87,0,0,1,39.57,57c-4.74,1.11-9.71,3.19-12,7.48A10.58,10.58,0,0,0,30,77.2l-.06.1A11.17,11.17,0,0,0,34.61,79a9,9,0,0,1-.35-1.5c-.94-6.24,8.65-14.9,12.2-19.28A21,21,0,0,1,51.85,53a8.86,8.86,0,0,1,3.73-1.2v-5.7c1.65-3.49.89-7.7,2.9-11.5h0a9.74,9.74,0,0,1,.74-1.2c3.22-4.47,8.44-7,13.44-9.33,5.51-2.58,11.08-5.18,16.78-7.28a73.1,73.1,0,0,1,16.74-4.26A19,19,0,0,0,104.47,11Z"/><path class="cls-16" d="M89.8,89.45l-17,3a3.67,3.67,0,0,1-2.66-.2l-.66,1.23L62.85,90a9.67,9.67,0,0,0-3-1.2c-3-.49-5.7,1.84-7.64,4.18l-1.31.17c.35.41.69.83,1,1.27a32.27,32.27,0,0,1,6.4,20.12c-1.76-3.08-5.58-4.31-9.11-4.66A31.12,31.12,0,0,0,31,113.73c-.12-.22-.23-.44-.34-.67l-2.23,1a22.92,22.92,0,0,1,2.07,14.41l-2.15.35a14.62,14.62,0,0,1,4.75,1.36l.84-.13a15.5,15.5,0,0,1,2.17-8.79,10.17,10.17,0,0,1,7.46-4.81,14.57,14.57,0,0,1,7.15,1.66,22,22,0,0,1,8.62,6.27c1.54,2,2.53,4.4,4,6.44A8.82,8.82,0,0,0,68,134.26a28.83,28.83,0,0,0,7.48-3.7A49.55,49.55,0,0,1,82,100.28a49.84,49.84,0,0,1,8.91-11.1A7.18,7.18,0,0,1,89.8,89.45Z"/><path class="cls-22" d="M89.8,89.45l-8.27,1.48c-2.46,2.34-4,5.73-5.21,8.79a67,67,0,0,0-3.07,10.76c-.86,4.2-1.75,8.4-2.27,12.66a82.32,82.32,0,0,0-.68,10.25,26.75,26.75,0,0,0,5.2-2.83A49.55,49.55,0,0,1,82,100.28a49.84,49.84,0,0,1,8.91-11.1A7.18,7.18,0,0,1,89.8,89.45Z"/><path class="cls-23" d="M34.61,79A11.17,11.17,0,0,1,30,77.3l.06-.1a10.58,10.58,0,0,1-2.48-12.71c2.3-4.29,7.27-6.37,12-7.48a8.87,8.87,0,0,0,3.16-1.14A2.79,2.79,0,0,0,44,53c-7.84-.3-16.69.83-21.57,7,0-.16,0-.34.06-.54A25.42,25.42,0,0,0,21,62c-2.32,4.55-3.27,9.76-5.59,14.28l.58.29c1,3.09.13,6.45.42,9.68a18.45,18.45,0,0,0,5,10.47A54.28,54.28,0,0,0,30.15,104a10.6,10.6,0,0,1,.59-1.38c1-1.93,2.51-3.68,2.76-5.83.64-5.46-9.22-8.32,1.74-8.67,2.33-2.79,4.54-5.56,6.87-8.23C39.05,81.8,35.83,82.66,34.61,79Z"/><path class="cls-24" d="M43.05,82.22c5,2.51,9.19,10.87,12.53,7.52,5.21-4.46,7.75-13.55,4.71-20.8h-.44a15.49,15.49,0,0,0-4.46.93c-3.12,1.19-5.61,3.55-8,5.83a36.85,36.85,0,0,1-5.24,4.17c-.61.69-1.19,1.4-1.78,2.11A4.42,4.42,0,0,1,43.05,82.22Z"/><path class="cls-16" d="M72,85.52a50,50,0,0,0-4.81-16.38,1.09,1.09,0,0,1,.05.17,44,44,0,0,0-7-.37c3,7.25.5,16.34-4.71,20.8-3.34,3.35-7.52-5-12.53-7.52A4.42,4.42,0,0,0,40.33,82l-.77.9c-1.43,1.72-2.85,3.46-4.32,5.22h.36c4-.1,8.21-.15,11.66,1.85a14.33,14.33,0,0,1,3.65,3.17L52.22,93a13.26,13.26,0,0,1,4.41-3.67l.25-.12a5.42,5.42,0,0,1,3-.39,9.67,9.67,0,0,1,3,1.2l6.6,3.55.66-1.23c-1.59-1-.68-3.52.48-5C71.05,86.67,71.53,86.09,72,85.52Z"/><path class="cls-25" d="M34.61,79a9,9,0,0,1-.35-1.5c-.94-6.24,8.65-14.9,12.2-19.28A21,21,0,0,1,51.85,53c2.16-1.28,5-1.74,7.18-.53,1.89,1,3,3.06,3.91,5a71,71,0,0,1,4.27,11.62,1.09,1.09,0,0,1,.05.17c-4-.44-8.13-.86-11.87.57-3.12,1.19-5.61,3.55-8,5.83C44.18,78.68,36.64,85.07,34.61,79Z"/><path class="cls-26" d="M68,134.26a55.42,55.42,0,0,1-13.89,2.39,37.89,37.89,0,0,0-14-.74c-1.93-1.08-3.35-2.92-5-4.39a9.89,9.89,0,0,0-2.06-1.38l.84-.13a15.5,15.5,0,0,1,2.17-8.79,10.17,10.17,0,0,1,7.46-4.81,14.57,14.57,0,0,1,7.15,1.66,22,22,0,0,1,8.62,6.27c1.54,2,2.53,4.4,4,6.44A8.82,8.82,0,0,0,68,134.26Z"/><path class="cls-27" d="M46.84,117.83a5.38,5.38,0,0,1-4.3,2.12,3.51,3.51,0,0,1-2.64-1.06,4.62,4.62,0,0,1-.88-2c-.38-1.68-6.86-4.5-6.83-6.22,3.34-3.34,16.91-2.8,18.38-1.67S47.76,116.61,46.84,117.83Z"/><path class="cls-28" d="M33.35,95a4.69,4.69,0,0,1,.15,1.77c-.25,2.15-1.79,3.9-2.76,5.83a10.6,10.6,0,0,0-.59,1.38,12.08,12.08,0,0,0,.46,9.07c.11.23.22.45.34.67a31.12,31.12,0,0,1,18.26-3.88,20.15,20.15,0,0,1,2.76.47C48,103.13,40.57,98.93,33.35,95Z"/><path class="cls-29" d="M51.92,94.39c-.32-.44-.66-.86-1-1.27A14.33,14.33,0,0,0,47.26,90c-3.45-2-7.67-2-11.66-1.85-10.25.26-3.47,2.54-2.25,6.91C40.57,98.93,48,103.13,52,110.32c2.61.65,5.05,1.91,6.35,4.19A32.27,32.27,0,0,0,51.92,94.39Z"/><path class="cls-30" d="M84.4,160.1a4.57,4.57,0,0,0-2.06-2.82c-1-.68-2.1-1.17-3.08-1.84h0c-16.54,3.72-34.9,5.82-46.93,18.5a20.85,20.85,0,0,1,3.34-1.51,20,20,0,0,1,11.26-1.67c5.23.79,10,3.68,15.31,4.06,5,.36,9.75-1.52,14.36-3.36,2.25-1,4.26-1.73,5.27-4.06.51-1.16,1.46-2.84,2.06-4.43A5.86,5.86,0,0,0,84.4,160.1Z"/><path class="cls-31" d="M79.24,155.43c-.29-.21-.6-.51-.53-.86a1,1,0,0,1,.45-.54c1-.72,2-1.5,2.29-2.68.32-1.43-.74-2.81-1.89-3.73-3-2.36-6.2-2.48-9.78-2.74-1-.08-2-.09-3-.09-4.69,0-9.68.37-13.63,2.8-.4.24-.79.51-1.18.8-3.74,2.89-5.62,7.51-8.4,11.33a48.89,48.89,0,0,1-4.34,5c-3,3.13-6.15,6.15-8.08,9.95a11.29,11.29,0,0,1,1.15-.74C44.34,161.25,62.7,159.15,79.24,155.43Z"/><path class="cls-32" d="M7.36,154a17.58,17.58,0,0,1,2.06.27c5.83,1.06,11.07,4.49,16.45,7.14,4.12,2,8.9,3.61,13.37,3.32a48.89,48.89,0,0,0,4.34-5c2.78-3.82,4.66-8.44,8.4-11.33.17-.13.36-.24.53-.36C37.19,145.9,21.89,148.37,7.36,154Z"/><path class="cls-33" d="M66.79,144.79c1,0,2,0,3,.09a35.8,35.8,0,0,0-15.65-8.23,37.89,37.89,0,0,0-14-.74A34.15,34.15,0,0,0,29.77,139,71.82,71.82,0,0,0,20.24,145L7.33,154h0c14.53-5.62,29.83-8.09,45.15-6,.22-.15.43-.31.65-.44C57.11,145.16,62.1,144.79,66.79,144.79Z"/><path class="cls-34" d="M54.81,144.87a20.14,20.14,0,0,0-7.53,3.65c-2.51,2.09-4,4.73-5.83,7.33-2,2.85-4,5.73-5.74,8.74a19,19,0,0,0,3.53.13,48.89,48.89,0,0,0,4.34-5c2.78-3.82,4.66-8.44,8.4-11.33.39-.29.78-.56,1.18-.8,4-2.43,8.94-2.8,13.63-2.8,1,0,2,0,3,.09-.61-.55-1.24-1.07-1.89-1.57a47.82,47.82,0,0,0-11.75,1.2C55.7,144.62,55.25,144.74,54.81,144.87Z"/><path class="cls-16" d="M10.53,84.15c.68-2.07,2.24-3.69,3.48-5.48a20.69,20.69,0,0,0,1.4-2.39l.58.29c1,3.09.13,6.45.42,9.68a18.45,18.45,0,0,0,5,10.47A54.28,54.28,0,0,0,30.15,104a12.08,12.08,0,0,0,.46,9.07l-2.23,1A18.72,18.72,0,0,0,27.09,112c-3.28-4.59-9-7.51-14.62-6.72a6.38,6.38,0,0,0,.12-.63,19.14,19.14,0,0,0,.28-7c-.75-4.53-3.77-9-2.38-13.37A.25.25,0,0,1,10.53,84.15Z"/><path class="cls-35" d="M28.38,114a22.92,22.92,0,0,1,2.07,14.41c-3.9-6-12.59-18-18-22.9l.06-.3c5.57-.79,11.34,2.13,14.62,6.72A18.72,18.72,0,0,1,28.38,114Z"/><path class="cls-16" d="M30.45,128.43l-2.15.35c-6.45-.89-13.85.67-16.84-5-2.06-3.94-1.39-8.72-.33-13,.42-1.72.9-3.46,1.28-5.2C17.86,110.48,26.55,122.47,30.45,128.43Z"/><path class="cls-16" d="M23.23,48.51a16.39,16.39,0,0,0-4.17-5.75l-.1-.47c5.56-1,11.73.83,12.44,7.15a57.88,57.88,0,0,0-8.89,10c.28-2.53,1-8.32-.34-10.14l.75-.62Z"/><path class="cls-36" d="M22.17,49.28A172.37,172.37,0,0,0,0,71.5,41.55,41.55,0,0,1,12,45.71a13.54,13.54,0,0,1,7-3.42l.1.47a16.39,16.39,0,0,1,4.17,5.75l-.31.15Z"/><path class="cls-37" d="M12.87,97.61a19.14,19.14,0,0,1-.28,7l-.29-.06A18.76,18.76,0,0,1,9.05,94.47c-.07-2.75.42-5.7-.93-8.08C7.35,85,6.05,84,5.36,82.63c-1.12-2.21-.5-4.88.46-7.16a26.7,26.7,0,0,1,5.53-8.33q-1,5.92-2,11.84c-.3,1.83-.26,4.24,1.14,5.17a.25.25,0,0,0,0,.09C9.1,88.62,12.12,93.08,12.87,97.61Z"/><path class="cls-38" d="M182.9,138c4.12,2.14,8.58,4.05,12.17,7.07.29.25,1.4,1.08,1,1.59-2.22,3.06-6.68,3-10.46,2.94a61,61,0,0,0-10.28.76,29.25,29.25,0,0,1-4.25.55,9.86,9.86,0,0,0-4.08,1.22c-.38.19-1.17.68-1.59.45a23.68,23.68,0,0,1,1.38-2.15c.44-.74.85-1.51,1.24-2.28a50.63,50.63,0,0,0,2.07-4.86c.59-1.63,1.11-3.28,1.59-4.95.24-.83.48-1.66.7-2.5a19.85,19.85,0,0,1,.7-2.54,9.78,9.78,0,0,0,1.08,1,7.56,7.56,0,0,0,1.34.73c1,.41,2,.75,3,1.12s2,.65,3,1.08c.35.16.69.35,1,.53Z"/><path class="cls-39" d="M190.93,123.16c5.08,5.08,3.86,7,5.13,7.92a.53.53,0,0,0,.17.08.34.34,0,0,0,.24-.13,9.69,9.69,0,0,0,1.38-1.62c.19-.26.44-.49.63-.76a5.68,5.68,0,0,0,.54-.92,6,6,0,0,0,.08-4.32c-1.9-5.91-8.79-9.58-14.74-9.7-2,0-3.91.23-5.85-.28C182.21,116.67,185.91,118.15,190.93,123.16Z"/><path d="M120,90.6a.42.42,0,0,0-.3-.13.44.44,0,0,0-.42.42v.86a.41.41,0,0,0,.13.29.4.4,0,0,0,.29.12.42.42,0,0,0,.42-.41v-.86A.45.45,0,0,0,120,90.6Z"/><path d="M113.11,95,112.5,94a.44.44,0,0,0-.25-.19.41.41,0,0,0-.51.29.39.39,0,0,0,0,.32l.61.92a.44.44,0,0,0,.25.19.41.41,0,0,0,.51-.29A.39.39,0,0,0,113.11,95Z"/><path d="M100.92,97.81a.4.4,0,0,0-.1-.18c-.1-.11-.21-.21-.31-.31a.38.38,0,0,0-.13-.09.45.45,0,0,0-.16,0,.41.41,0,0,0-.16,0,.34.34,0,0,0-.14.09l-.06.08a.43.43,0,0,0-.06.22v.11a.42.42,0,0,0,.11.18l.31.31a.22.22,0,0,0,.13.08.34.34,0,0,0,.32,0,.29.29,0,0,0,.14-.08l.06-.09a.37.37,0,0,0,.06-.21Z"/><path d="M103.72,91.2l.72.92a.44.44,0,0,0,.3.12.42.42,0,0,0,.3-.12.45.45,0,0,0,.12-.29l0-.11a.39.39,0,0,0-.1-.19l-.73-.92a.45.45,0,0,0-.3-.12.45.45,0,0,0-.29.12.43.43,0,0,0-.13.3l0,.11a.42.42,0,0,0,.11.18Z"/><path d="M92.11,105.34l.73.37a.45.45,0,0,0,.32,0,.42.42,0,0,0,.1-.76l-.73-.37a.45.45,0,0,0-.32,0,.41.41,0,0,0-.25.19.46.46,0,0,0,0,.32.42.42,0,0,0,.2.25Z"/><path d="M102.89,107.92l.36.18a.24.24,0,0,0,.16.05.29.29,0,0,0,.16,0,.32.32,0,0,0,.14-.08.25.25,0,0,0,.11-.12l0-.09a.45.45,0,0,0,0-.23l0-.1a.36.36,0,0,0-.15-.15l-.36-.18a.3.3,0,0,0-.16,0,.29.29,0,0,0-.16,0,.35.35,0,0,0-.15.07.29.29,0,0,0-.1.12l0,.1a.41.41,0,0,0,0,.22l0,.1a.36.36,0,0,0,.15.15Z"/><path d="M111.4,102.72l.55.55a.47.47,0,0,0,.3.12.32.32,0,0,0,.16,0,.26.26,0,0,0,.13-.08.39.39,0,0,0,.12-.3.4.4,0,0,0-.12-.29l-.55-.55a.38.38,0,0,0-.29-.12.29.29,0,0,0-.16,0,.42.42,0,0,0-.14.09.45.45,0,0,0-.12.29.47.47,0,0,0,.12.3Z"/><path d="M115.73,86l.36.54a.45.45,0,0,0,.25.2.33.33,0,0,0,.17,0,.27.27,0,0,0,.15,0,.42.42,0,0,0,.2-.25.41.41,0,0,0,0-.32l-.36-.55a.44.44,0,0,0-.25-.19.33.33,0,0,0-.17,0,.38.38,0,0,0-.15,0,.49.49,0,0,0-.2.25.43.43,0,0,0,0,.33Z"/><path d="M122.62,100.78V101a.41.41,0,0,0,0,.16.42.42,0,0,0,.09.14.26.26,0,0,0,.13.08.33.33,0,0,0,.17,0l.11,0a.4.4,0,0,0,.18-.1l.07-.09a.46.46,0,0,0,0-.21v-.18a.29.29,0,0,0,0-.16.42.42,0,0,0-.09-.14.26.26,0,0,0-.13-.08.32.32,0,0,0-.16,0h-.12a.42.42,0,0,0-.18.11l-.07.09a.46.46,0,0,0,0,.21Z"/><path d="M129.14,87.74l.7-1.66a.45.45,0,0,0,0-.32.45.45,0,0,0-.25-.2.48.48,0,0,0-.33,0,.54.54,0,0,0-.19.25l-.69,1.66a.4.4,0,0,0,0,.32.44.44,0,0,0,.25.19.45.45,0,0,0,.32,0,.51.51,0,0,0,.19-.25Z"/><path d="M130.76,94.67l.37-1.09a.42.42,0,1,0-.81-.22L130,94.45a.43.43,0,0,0,.29.52.44.44,0,0,0,.52-.3Z"/><path d="M139.23,90.28l.55-.55a.47.47,0,0,0,.12-.3.29.29,0,0,0,0-.16.22.22,0,0,0-.08-.13.41.41,0,0,0-.6,0l-.54.55a.47.47,0,0,0-.12.29.33.33,0,0,0,0,.17.26.26,0,0,0,.08.13.42.42,0,0,0,.3.12.4.4,0,0,0,.29-.12Z"/><path d="M137.87,96.75l.26-.21a1.78,1.78,0,0,0,.22-.26,1.92,1.92,0,0,0,.27-.51.45.45,0,0,0,0-.32.4.4,0,0,0-.25-.19.42.42,0,0,0-.33,0l-.08.06a.52.52,0,0,0-.11.19l0,.08,0-.1a1.35,1.35,0,0,1-.19.33l.07-.08a1.66,1.66,0,0,1-.27.26l.08-.06-.06,0a.47.47,0,0,0-.19.25.42.42,0,0,0,0,.33.48.48,0,0,0,.25.19.45.45,0,0,0,.32,0Z"/><path d="M135.76,102.72l.55-.55a.42.42,0,0,0,.12-.3.23.23,0,0,0,0-.16.38.38,0,0,0-.09-.13.4.4,0,0,0-.29-.12.42.42,0,0,0-.3.12l-.55.55a.45.45,0,0,0-.12.29.29.29,0,0,0,0,.16.25.25,0,0,0,.08.14.42.42,0,0,0,.3.12.4.4,0,0,0,.29-.12Z"/><path d="M140.88,107.74a1.89,1.89,0,0,0,1.2-.88.42.42,0,0,0-.15-.57.42.42,0,0,0-.57.15l-.11.15.07-.08a1.6,1.6,0,0,1-.26.26l.09-.07a1.57,1.57,0,0,1-.33.19l.1,0a.87.87,0,0,1-.26.08.45.45,0,0,0-.25.2.4.4,0,0,0,0,.32.44.44,0,0,0,.52.29Z"/><path d="M147.28,98.61a1.51,1.51,0,0,0,1-1,.41.41,0,0,0-.29-.51.41.41,0,0,0-.51.29.36.36,0,0,1,0,.09l.05-.1a1.38,1.38,0,0,1-.14.24l.06-.08a1.7,1.7,0,0,1-.19.19l.08-.06a1.38,1.38,0,0,1-.24.14l.1,0-.14,0a.48.48,0,0,0-.25.19.43.43,0,0,0-.05.33.45.45,0,0,0,.2.25.45.45,0,0,0,.32,0Z"/><path d="M148.28,103.49l.54-.37a.43.43,0,0,0,.12-.11.27.27,0,0,0,.07-.14.33.33,0,0,0,0-.17.3.3,0,0,0-.05-.16.48.48,0,0,0-.25-.19.4.4,0,0,0-.32.05l-.54.37a.25.25,0,0,0-.12.11.32.32,0,0,0-.08.14.29.29,0,0,0,0,.16.3.3,0,0,0,.05.16.37.37,0,0,0,.25.19.4.4,0,0,0,.32,0Z"/><path d="M153.76,97.64l.55-.37a.38.38,0,0,0,.11-.11.29.29,0,0,0,.08-.14.33.33,0,0,0,0-.17.43.43,0,0,0,0-.16.47.47,0,0,0-.25-.19.44.44,0,0,0-.32,0l-.55.38a.25.25,0,0,0-.12.11.31.31,0,0,0-.07.14.29.29,0,0,0,0,.16.4.4,0,0,0,.3.35.39.39,0,0,0,.32,0Z"/><path d="M88.37,114.71l.91.37a.45.45,0,0,0,.32,0,.41.41,0,0,0,.19-.24.42.42,0,0,0,0-.33l-.06-.08a.52.52,0,0,0-.19-.11l-.91-.36a.39.39,0,0,0-.32,0,.45.45,0,0,0-.2.25.46.46,0,0,0,.05.32l.06.08a.37.37,0,0,0,.19.11Z"/><path d="M98.59,120.47l.92.73a.3.3,0,0,0,.13.09.29.29,0,0,0,.16,0,.42.42,0,0,0,.3-.12.45.45,0,0,0,.12-.29.45.45,0,0,0-.12-.3l-.92-.73a.38.38,0,0,0-.13-.09.45.45,0,0,0-.16,0,.41.41,0,0,0-.3.12.42.42,0,0,0-.12.3.4.4,0,0,0,.12.29Z"/><path d="M98.87,114.68l.54.36a.3.3,0,0,0,.16,0,.33.33,0,0,0,.17,0,.27.27,0,0,0,.14-.07.43.43,0,0,0,.11-.12.44.44,0,0,0,0-.32l0-.1a.54.54,0,0,0-.15-.15l-.55-.36a.24.24,0,0,0-.16,0,.29.29,0,0,0-.16,0,.36.36,0,0,0-.15.08.29.29,0,0,0-.1.12.44.44,0,0,0,0,.32l0,.1a.36.36,0,0,0,.15.15Z"/><path d="M91.73,126a1.55,1.55,0,0,0,1.24.2.44.44,0,0,0,.25-.19.42.42,0,0,0,0-.33.44.44,0,0,0-.52-.29l-.13,0,.11,0a.76.76,0,0,1-.3,0l.11,0a1,1,0,0,1-.29-.08l.1,0-.2-.1a.41.41,0,0,0-.61.47.58.58,0,0,0,.19.25Z"/><path d="M86.3,129.32l.55.73a.29.29,0,0,0,.1.12.36.36,0,0,0,.15.08.45.45,0,0,0,.32-.05.37.37,0,0,0,.19-.25.45.45,0,0,0,0-.32L87,128.9a.32.32,0,0,0-.11-.12.31.31,0,0,0-.14-.07.41.41,0,0,0-.51.29.36.36,0,0,0,0,.32Z"/><path d="M100.07,131.71a1.4,1.4,0,0,0,.61,0,1.31,1.31,0,0,0,.53-.29.41.41,0,0,0,.12-.3.4.4,0,0,0-.12-.29.41.41,0,0,0-.3-.12.42.42,0,0,0-.29.12.08.08,0,0,0,0,0l.08-.07a1,1,0,0,1-.17.1l.1,0-.2,0h0l-.11,0a.45.45,0,0,0-.32,0,.42.42,0,0,0-.15.57.41.41,0,0,0,.25.2Z"/><path d="M124.76,145.64v1.53a.42.42,0,1,0,.84,0v-1.53a.42.42,0,0,0-.84,0Z"/><path d="M121.35,152l-.31.92a.45.45,0,0,0,0,.32.4.4,0,0,0,.25.19.42.42,0,0,0,.33,0,.48.48,0,0,0,.19-.25l.31-.92a.4.4,0,0,0,0-.32.45.45,0,0,0-.25-.2.41.41,0,0,0-.32.05.48.48,0,0,0-.19.25Z"/><path d="M126.91,155.47v1.23a.43.43,0,0,0,.42.42.42.42,0,0,0,.42-.42v-1.23a.41.41,0,0,0-.42-.41.43.43,0,0,0-.42.41Z"/><path d="M123,160l-.31.92a.45.45,0,0,0,0,.32.4.4,0,0,0,.25.19.42.42,0,0,0,.51-.29l.31-.92a.45.45,0,0,0,0-.32.45.45,0,0,0-.25-.2.44.44,0,0,0-.52.3Z"/><path d="M113.72,161.4l-.3.61a.4.4,0,0,0,.15.57.42.42,0,0,0,.57-.15l.31-.61a.47.47,0,0,0,0-.33.41.41,0,0,0-.19-.24.43.43,0,0,0-.33-.05.45.45,0,0,0-.25.2Z"/><path d="M139.26,154.34a2.5,2.5,0,0,0,.54,1,2.41,2.41,0,0,0,.92.63.41.41,0,0,0,.51-.29.39.39,0,0,0,0-.32.44.44,0,0,0-.25-.19h0l.1,0a2.3,2.3,0,0,1-.43-.25l.08.06a2.16,2.16,0,0,1-.37-.37l.07.08a1.86,1.86,0,0,1-.27-.45l0,.1a1.42,1.42,0,0,1-.07-.22.42.42,0,0,0-.81.22Z"/><path d="M142.29,143.55l2.45.37a.42.42,0,0,0,.51-.29.41.41,0,0,0-.29-.51l-2.45-.38a.42.42,0,0,0-.22.81Z"/><path d="M155.3,141.75h1.23a.42.42,0,1,0,0-.83H155.3a.41.41,0,0,0-.41.41.42.42,0,0,0,.41.42Z"/><path d="M155.81,132.14l1.52-.94a.42.42,0,0,0,.15-.57.41.41,0,0,0-.57-.15l-1.53.94a.42.42,0,1,0,.43.72Z"/><path d="M155.48,116.73l1.58-.83a.42.42,0,0,0,.15-.58.44.44,0,0,0-.57-.15l-1.58.84a.41.41,0,0,0-.15.57.42.42,0,0,0,.57.15Z"/><path d="M103.68,143.8l-.93.93a.45.45,0,0,0-.12.29.47.47,0,0,0,.12.3.42.42,0,0,0,.3.12.4.4,0,0,0,.29-.12l.93-.92a.47.47,0,0,0,.12-.3.49.49,0,0,0-.12-.3.47.47,0,0,0-.3-.12.45.45,0,0,0-.29.12Z"/><path d="M94.26,143.47l-.91.63a.47.47,0,0,0-.19.25.39.39,0,0,0,0,.32.45.45,0,0,0,.25.2.4.4,0,0,0,.32-.05l.91-.62a.47.47,0,0,0,.19-.25.42.42,0,0,0,0-.33.48.48,0,0,0-.25-.19.45.45,0,0,0-.32,0Z"/><path d="M103.58,154.63l-.9,1.24a.4.4,0,0,0,0,.32.41.41,0,0,0,.19.25.46.46,0,0,0,.32.05.45.45,0,0,0,.25-.2l.9-1.24a.4.4,0,0,0-.15-.57.39.39,0,0,0-.32,0,.43.43,0,0,0-.25.19Z"/><path d="M97.53,151.8l-1.19,1a.41.41,0,0,0-.13.29.43.43,0,0,0,.13.3.45.45,0,0,0,.29.12.53.53,0,0,0,.3-.12l1.19-1a.4.4,0,0,0,.12-.29.41.41,0,0,0-.12-.3.4.4,0,0,0-.29-.12.47.47,0,0,0-.3.12Z"/><path d="M108.59,147.19l-.92.92a.45.45,0,0,0-.12.29.41.41,0,0,0,.12.3.42.42,0,0,0,.3.12.4.4,0,0,0,.29-.12l.92-.92a.43.43,0,0,0,.13-.3.45.45,0,0,0-.42-.42.48.48,0,0,0-.3.13Z"/><path d="M136,162.8l.63.61a.47.47,0,0,0,.29.12.45.45,0,0,0,.3-.12.42.42,0,0,0,.12-.3.4.4,0,0,0-.12-.29l-.62-.61a.47.47,0,0,0-.3-.12.49.49,0,0,0-.3.12.47.47,0,0,0-.12.3.45.45,0,0,0,.12.29Z"/><path d="M151.32,150.24l.92.92a.47.47,0,0,0,.3.12.45.45,0,0,0,.29-.12.39.39,0,0,0,.12-.3.4.4,0,0,0-.12-.29l-.92-.93a.47.47,0,0,0-.3-.12.45.45,0,0,0-.29.12.43.43,0,0,0,0,.6Z"/><path d="M147.93,135.6h1.84a.42.42,0,0,0,.42-.41.43.43,0,0,0-.42-.42h-1.84a.42.42,0,1,0,0,.83Z"/><path d="M150.3,123.58l1.25-.9a.43.43,0,0,0,.15-.58.53.53,0,0,0-.25-.19.47.47,0,0,0-.33,0l-1.24.9a.47.47,0,0,0-.19.25.42.42,0,0,0,0,.33.48.48,0,0,0,.25.19.45.45,0,0,0,.32,0Z"/><path d="M163,121.31l1.23-1.22a.43.43,0,0,0,0-.59.41.41,0,0,0-.59,0l-1.23,1.22a.42.42,0,0,0,.59.59Z"/><path d="M156.64,106.84l.05-.07,0,0,0,0,.11-.11.13-.12c-.09.09,0,0,0,0l.06,0,.15-.08a.2.2,0,0,0,.08,0c-.11.06,0,0,0,0a1.89,1.89,0,0,1,.34-.09l-.12,0a1.72,1.72,0,0,1,.32,0,.41.41,0,0,0,.42-.41.43.43,0,0,0-.42-.42,2.09,2.09,0,0,0-1.85,1,.41.41,0,0,0,.15.57.42.42,0,0,0,.57-.15Z"/><path d="M148.25,114.62l1.54-1.24a.43.43,0,0,0,.12-.29.41.41,0,0,0-.42-.42.5.5,0,0,0-.29.12L147.66,114a.45.45,0,0,0-.12.3.45.45,0,0,0,.12.29.42.42,0,0,0,.3.12.45.45,0,0,0,.29-.12Z"/><path d="M162.13,131.29l.92.62a.44.44,0,0,0,.32.05.49.49,0,0,0,.25-.2.44.44,0,0,0,0-.32.53.53,0,0,0-.19-.25l-.92-.63a.5.5,0,0,0-.32,0,.41.41,0,0,0-.29.52.58.58,0,0,0,.19.25Z"/><path d="M161.16,142.24l.61.62a.47.47,0,0,0,.3.12.4.4,0,0,0,.29-.12.42.42,0,0,0,.12-.3.4.4,0,0,0-.12-.29l-.61-.62a.47.47,0,0,0-.3-.12.45.45,0,0,0-.29.12.43.43,0,0,0-.13.3.46.46,0,0,0,.13.29Z"/><path d="M129.07,165v.62a.41.41,0,0,0,.41.41.42.42,0,0,0,.3-.12.45.45,0,0,0,.12-.29V165a.43.43,0,0,0-.12-.29.42.42,0,0,0-.3-.13.41.41,0,0,0-.29.13.4.4,0,0,0-.12.29Z"/><path d="M149.05,157.93v.62a.41.41,0,0,0,.41.41.42.42,0,0,0,.3-.12.45.45,0,0,0,.12-.29v-.62a.45.45,0,0,0-.12-.29.42.42,0,0,0-.3-.13.39.39,0,0,0-.29.13.4.4,0,0,0-.12.29Z"/><path d="M88.21,137l-1.54.63a.47.47,0,0,0-.25.19.45.45,0,0,0,0,.32.48.48,0,0,0,.19.25.42.42,0,0,0,.33,0l1.53-.62a.49.49,0,0,0,.25-.2.45.45,0,0,0,0-.32.44.44,0,0,0-.19-.25.4.4,0,0,0-.32,0Z"/><path d="M85.84,120.32H84.61a.42.42,0,0,0,0,.84h1.23a.42.42,0,0,0,0-.84Z"/><path d="M99.15,136.67l-1.23.61a.42.42,0,0,0-.15.58.43.43,0,0,0,.57.15l1.23-.62a.41.41,0,0,0,.15-.57.43.43,0,0,0-.57-.15Z"/><path d="M134.94,149.12l.33,1.23a.42.42,0,0,0,.51.29.42.42,0,0,0,.29-.51l-.32-1.23a.42.42,0,0,0-.81.22Z"/><path d="M113.82,150l-.92.92a.43.43,0,0,0-.13.3.45.45,0,0,0,.13.3.45.45,0,0,0,.29.12.47.47,0,0,0,.3-.12l.92-.93a.4.4,0,0,0,.12-.29.42.42,0,0,0-.12-.3.45.45,0,0,0-.3-.12.4.4,0,0,0-.29.12Z"/><path d="M126,137.37l.34.66a.41.41,0,0,0,.76-.1l0-.11a.37.37,0,0,0-.06-.21l-.34-.66a.42.42,0,0,0-.25-.2.45.45,0,0,0-.32.05.37.37,0,0,0-.19.25l0,.11a.56.56,0,0,0,.06.21Z"/><path d="M115,133.57l-.68,1a.44.44,0,0,0,0,.32.49.49,0,0,0,.2.25.44.44,0,0,0,.32,0A.53.53,0,0,0,115,135l.68-1a.42.42,0,0,0-.15-.57.46.46,0,0,0-.32,0,.45.45,0,0,0-.25.2Z"/><path d="M110.91,120.61l1.67.34a.42.42,0,0,0,.51-.29.41.41,0,0,0-.29-.51l-1.66-.34a.42.42,0,1,0-.23.8Z"/><path d="M121.42,113.61v0l0,.1a1.28,1.28,0,0,1-.07-.28v.11a1.82,1.82,0,0,1,0-.33v.11a.91.91,0,0,1,.09-.31l0,.1a1.2,1.2,0,0,1,.16-.27l-.07.09.12-.13a.42.42,0,0,0,0-.59.41.41,0,0,0-.59,0,1.52,1.52,0,0,0-.45.82,1.5,1.5,0,0,0,.11,1,.41.41,0,0,0,.76-.1.45.45,0,0,0,0-.32Z"/><path d="M132,116.38l0,0s.06-.07,0,0l.07-.09.16-.16.1-.09,0,0s-.08,0,0,0l.21-.13.2-.11.06,0c.05,0,0,0,0,0l.12,0a2.47,2.47,0,0,1,.47-.11.4.4,0,0,0,.25-.19.45.45,0,0,0,0-.32.4.4,0,0,0-.19-.25.45.45,0,0,0-.32,0,2.81,2.81,0,0,0-1.91,1.2.42.42,0,0,0,.15.57.43.43,0,0,0,.57-.15Z"/><path d="M136.37,127.12a1.84,1.84,0,0,0,1.74.42.42.42,0,0,0,.29-.51.43.43,0,0,0-.51-.3l-.2,0,.11,0a1.15,1.15,0,0,1-.37,0l.11,0a1.56,1.56,0,0,1-.37-.1l.1,0a1.49,1.49,0,0,1-.3-.18l.08.07-.09-.08a.42.42,0,0,0-.59,0,.41.41,0,0,0,0,.59Z"/><path d="M140.14,136.46l.66.34a.45.45,0,0,0,.32,0,.37.37,0,0,0,.25-.19.4.4,0,0,0-.15-.57l-.66-.34a.45.45,0,0,0-.32,0,.44.44,0,0,0-.25.19.4.4,0,0,0,0,.32.4.4,0,0,0,.19.25Z"/><path d="M142.19,121.82l.67-.33a.47.47,0,0,0,.19-.25.44.44,0,0,0,0-.32.49.49,0,0,0-.25-.2h-.12a.42.42,0,0,0-.21.06l-.66.33a.37.37,0,0,0-.19.25.41.41,0,0,0,.29.51l.11,0a.37.37,0,0,0,.21-.06Z"/><path d="M123.69,124.91H124a.29.29,0,0,0,.16,0,.44.44,0,0,0,.22-.22.29.29,0,0,0,0-.16l0-.11a.37.37,0,0,0-.11-.19l-.08-.06a.42.42,0,0,0-.21-.06h-.33a.33.33,0,0,0-.17,0,.26.26,0,0,0-.13.08.42.42,0,0,0-.09.14.41.41,0,0,0,0,.16v.11a.42.42,0,0,0,.11.18l.08.07a.43.43,0,0,0,.22.06Z"/><path d="M127.45,127.88l.67.33a.45.45,0,0,0,.32,0,.42.42,0,0,0,.1-.76l-.66-.33a.43.43,0,0,0-.33,0,.41.41,0,0,0-.29.52.44.44,0,0,0,.19.25Z"/><path d="M129.09,122.07l.68-1a.42.42,0,0,0-.15-.57.48.48,0,0,0-.33-.05.47.47,0,0,0-.24.2l-.69,1a.5.5,0,0,0,0,.32.41.41,0,0,0,.52.29.58.58,0,0,0,.25-.19Z"/><path d="M121,119.63l-.34-.66a.37.37,0,0,0-.25-.19.4.4,0,0,0-.32,0,.41.41,0,0,0-.19.25v.11a.54.54,0,0,0,0,.21l.34.66a.42.42,0,0,0,.25.2.45.45,0,0,0,.32,0,.37.37,0,0,0,.19-.25l0-.11a.42.42,0,0,0-.06-.21Z"/><path d="M116.69,124.74h-1.33a.41.41,0,0,0-.41.41.42.42,0,0,0,.41.42h1.33a.42.42,0,1,0,0-.83Z"/><path d="M121.89,134.26h0v-.18l0-.1v0l.06-.08h0l.08-.06h0l.1,0h.08l.1,0h0l.08.06,0,0,.07.09v0l0,.1s0,0,0,0l0,.11v0l0,.11v0a.29.29,0,0,0,0-.16.3.3,0,0,0-.05-.16.29.29,0,0,0-.1-.12.35.35,0,0,0-.15-.07H122a.41.41,0,0,0-.21.05l-.08.07a.42.42,0,0,0-.11.18v0s0,.08,0,.11h0a.68.68,0,0,0,0,.14.58.58,0,0,0,0,.11.26.26,0,0,0,.07.1v0l.1.07h0a.38.38,0,0,0,.13.06.9.9,0,0,0,.16,0l.16,0,.14,0,.12-.09a.61.61,0,0,0,.13-.22.57.57,0,0,0,0-.13.32.32,0,0,0,0-.14.29.29,0,0,0-.08-.14.29.29,0,0,0-.11-.11.3.3,0,0,0-.16,0,.33.33,0,0,0-.17,0l-.1,0a.54.54,0,0,0-.15.15l0,.1a.41.41,0,0,0,0,.22Z"/><path d="M131.38,133.11l.33.33a.42.42,0,0,0,.14.09.44.44,0,0,0,.32,0,.3.3,0,0,0,.13-.09l.07-.09a.37.37,0,0,0,.06-.21l0-.11a.34.34,0,0,0-.11-.18l-.33-.33a.28.28,0,0,0-.13-.09.32.32,0,0,0-.16,0,.33.33,0,0,0-.17,0,.28.28,0,0,0-.13.09l-.07.08a.5.5,0,0,0-.05.21v.11a.52.52,0,0,0,.11.19Z"/></g></g></svg>