<svg xmlns="http://www.w3.org/2000/svg" xmlns:xlink="http://www.w3.org/1999/xlink" viewBox="0 0 211.49 188.02"><defs><style>.cls-1{fill:url(#未命名的渐变_156);}.cls-2{fill:#6b8a45;}.cls-3{fill:#fff;}.cls-4{fill:#93b659;}.cls-5{fill:#496e1c;}.cls-6{fill:#ed5020;}.cls-7{fill:url(#未命名的渐变_272);}</style><linearGradient id="未命名的渐变_156" x1="323.05" y1="93.8" x2="489.42" y2="93.8" gradientTransform="matrix(0.84, 0.18, -0.18, 0.84, -193.43, -38.73)" gradientUnits="userSpaceOnUse"><stop offset="0" stop-color="#ff8542"/><stop offset="0.5" stop-color="#f2683a"/><stop offset="1" stop-color="#e74f33"/></linearGradient><linearGradient id="未命名的渐变_272" x1="530.3" y1="69.95" x2="635.8" y2="69.95" gradientTransform="matrix(-0.84, 0.33, 0.33, 0.84, 522.63, -112.51)" gradientUnits="userSpaceOnUse"><stop offset="0" stop-color="#ff8542"/><stop offset="0.46" stop-color="#fb6c34"/><stop offset="1" stop-color="#f75325"/></linearGradient></defs><g id="图层_2" data-name="图层 2"><g id="图层_1-2" data-name="图层 1"><path class="cls-1" d="M115,37a36.89,36.89,0,0,0-32.94,8.58c-6,5.48-9.94,12.85-12.39,20.57-10,31.56,1.56,67.15,17.54,94.6,21,36.05,53.91,34.59,80.93,6.14,18.61-19.6,53.42-71.11,40.55-99A36.77,36.77,0,0,0,200,56.47c-7.9-7.3-18-12.45-28.79-13.17-10.94-.73-21,9.28-30.59,8.16C131.46,50.39,124.81,39.32,115,37Z"/><path class="cls-2" d="M112.44,19.88c-5.16-.74-10.12-.05-14.49,3.42-2.1,1.66-3.61,4.79-2.06,7s4.53,1.87,7.06,2.1c13.68,1.21-9.29,13.8-11.78,16.3-5.8,5.82-11.39,15.77.37,18.29,10.39,2.22,19.47-4.79,29.61-4.37,12.38.51,10.22,11.93,16.31,20.06,4.17,5.55,14.21,6.5,19,1.21,3.22-3.52,2.94-16.64,8-18.39,3.09-1.06,12.72,8.83,16.14,10.22,3.85,1.57,15.46,4.76,19,1,6.92-7.45-6.23-20.75-12-24.56-4.82-3.21-13.63-2.87-15.88-8.73,4.29-2.91,10.16-.22,14.75,1.44,6.85,2.49,19.44,2.15,9.44-7.06a45,45,0,0,0-19.81-11c-12.13-2.86-20.58,6.1-31.55,4.34C135.52,29.61,123.52,21.46,112.44,19.88Z"/><path class="cls-3" d="M141.17,136.69l.7-3.34a1.28,1.28,0,0,0-.12-.92,1.19,1.19,0,0,0-2.17.29l-.7,3.33a1.23,1.23,0,0,0,.12.92,1.19,1.19,0,0,0,.71.55,1.21,1.21,0,0,0,1.46-.83Z"/><path class="cls-3" d="M96.78,121l.14-5.19a1.19,1.19,0,0,0-2.38,0L94.4,121a1.21,1.21,0,0,0,1.19,1.19A1.22,1.22,0,0,0,96.78,121Z"/><path class="cls-3" d="M175.36,138.41l2.16-5.63a1.2,1.2,0,0,0-.83-1.46,1.22,1.22,0,0,0-1.46.83l-2.16,5.63a1.18,1.18,0,0,0,.83,1.46,1.23,1.23,0,0,0,1.46-.83Z"/><path class="cls-3" d="M128.62,105.32l.88-4.17a1.19,1.19,0,0,0-2.29-.63l-.88,4.17a1.21,1.21,0,0,0,.83,1.46,1.2,1.2,0,0,0,1.46-.83Z"/><path class="cls-3" d="M134.49,168.49l2.18-2.17a1.23,1.23,0,0,0,.35-.84,1.21,1.21,0,0,0-.35-.84,1.22,1.22,0,0,0-.84-.35,1.3,1.3,0,0,0-.84.35l-2.18,2.17a1.19,1.19,0,0,0-.35.84,1.21,1.21,0,0,0,.35.84,1.19,1.19,0,0,0,.84.35,1.27,1.27,0,0,0,.84-.35Z"/><path class="cls-3" d="M194.08,108.79l1-5a1.21,1.21,0,0,0-.83-1.46,1.2,1.2,0,0,0-1.46.83l-1.05,5a1.19,1.19,0,1,0,2.29.64Z"/><path class="cls-3" d="M74.75,88.1l1.4-6.68A1.21,1.21,0,0,0,75.32,80a1.2,1.2,0,0,0-1.46.83l-1.41,6.68a1.19,1.19,0,0,0,2.3.63Z"/><path class="cls-4" d="M144.63,38.06a67.36,67.36,0,0,1,8.08,2.86,57.71,57.71,0,0,1,7.66,3.94,35.77,35.77,0,0,1,6.79,5.42,20.16,20.16,0,0,1,4.64,7.29,34.16,34.16,0,0,0-5.71-6.15,57.25,57.25,0,0,0-6.78-4.86c-2.35-1.5-4.81-2.86-7.28-4.24S147.06,39.59,144.63,38.06Z"/><path class="cls-4" d="M144.63,38.06a15.79,15.79,0,0,1,1.54,5.26,25.19,25.19,0,0,1,.11,5.49,24.84,24.84,0,0,1-1.1,5.38,15.79,15.79,0,0,1-2.48,4.89c.38-1.8.7-3.52,1-5.25s.46-3.47.63-5.2.27-3.48.33-5.23S144.67,39.89,144.63,38.06Z"/><path class="cls-4" d="M144.63,38.06a28.43,28.43,0,0,1-8.06,2.25,32.66,32.66,0,0,1-8.44,0A27,27,0,0,1,120,38a18.79,18.79,0,0,1-6.64-5.12,31.54,31.54,0,0,0,7.25,3.68,38,38,0,0,0,7.8,1.84,51.46,51.46,0,0,0,8.06.41A79,79,0,0,0,144.63,38.06Z"/><path class="cls-4" d="M144.63,38.06a3.94,3.94,0,0,1,1.11-2.49,7.06,7.06,0,0,1,2.17-1.6,7,7,0,0,1,2.58-.7,4.18,4.18,0,0,1,2.65.57c-.86.31-1.56.63-2.28,1l-2.08,1c-.69.34-1.37.67-2.05,1A14.57,14.57,0,0,0,144.63,38.06Z"/><path class="cls-4" d="M150.05,57.07a38.63,38.63,0,0,1,0,12.39,33.18,33.18,0,0,1-.5-6.2A33.14,33.14,0,0,1,150.05,57.07Z"/><path class="cls-4" d="M180,57.57a5.06,5.06,0,0,1,3.09,4.66A18,18,0,0,1,181.43,60,19.05,19.05,0,0,1,180,57.57Z"/><path class="cls-4" d="M177.43,33.27a13.86,13.86,0,0,1,3.77.91A13.58,13.58,0,0,1,184.6,36a13.44,13.44,0,0,1-3.76-.91A13.64,13.64,0,0,1,177.43,33.27Z"/><path class="cls-4" d="M101,49.83A19.18,19.18,0,0,1,99,52,19.93,19.93,0,0,1,96.85,54a5.16,5.16,0,0,1,1.47-2.66A5.25,5.25,0,0,1,101,49.83Z"/><path class="cls-4" d="M112.31,25.59l.51.52a0,0,0,1,0,.07-.07l-.51-.52s-.12,0-.07.07Z"/><path class="cls-4" d="M104.59,26.59a10.22,10.22,0,0,1,5.1-1.57,10.34,10.34,0,0,1,5.23,1.06c-1.79-.07-3.48-.15-5.18-.06S106.36,26.34,104.59,26.59Z"/><path class="cls-5" d="M143.6,24.88c-.06-5.67-.07-11.58,2.36-16.71S154-1,159.56.24c.87,6.42-6.06,10.85-9.27,16.47a28.28,28.28,0,0,0-2.84,8.83c-.9,4.66-1.11,9.73-2.56,14.13C142.71,36.05,143.65,29.58,143.6,24.88Z"/><path class="cls-6" d="M102.13,116.69c-1.54-7-5.37-13.94-9.25-19.93C86.51,87,78.26,81.68,66.68,80c-3.53,27.78,6.87,57.21,20.54,80.69a74,74,0,0,0,8.42,11.78C103,155.35,106.12,134.75,102.13,116.69Z"/><path class="cls-3" d="M141.17,136.69l.7-3.34a1.28,1.28,0,0,0-.12-.92,1.19,1.19,0,0,0-2.17.29l-.7,3.33a1.23,1.23,0,0,0,.12.92,1.19,1.19,0,0,0,.71.55,1.21,1.21,0,0,0,1.46-.83Z"/><path class="cls-3" d="M96.78,121l.14-5.19a1.19,1.19,0,0,0-2.38,0L94.4,121a1.21,1.21,0,0,0,1.19,1.19A1.22,1.22,0,0,0,96.78,121Z"/><path class="cls-3" d="M175.36,138.41l2.16-5.63a1.2,1.2,0,0,0-.83-1.46,1.22,1.22,0,0,0-1.46.83l-2.16,5.63a1.18,1.18,0,0,0,.83,1.46,1.23,1.23,0,0,0,1.46-.83Z"/><path class="cls-3" d="M128.62,105.32l.88-4.17a1.19,1.19,0,0,0-2.29-.63l-.88,4.17a1.21,1.21,0,0,0,.83,1.46,1.2,1.2,0,0,0,1.46-.83Z"/><path class="cls-3" d="M134.49,168.49l2.18-2.17a1.23,1.23,0,0,0,.35-.84,1.21,1.21,0,0,0-.35-.84,1.22,1.22,0,0,0-.84-.35,1.3,1.3,0,0,0-.84.35l-2.18,2.17a1.19,1.19,0,0,0-.35.84,1.21,1.21,0,0,0,.35.84,1.19,1.19,0,0,0,.84.35,1.27,1.27,0,0,0,.84-.35Z"/><path class="cls-3" d="M194.08,108.79l1-5a1.21,1.21,0,0,0-.83-1.46,1.2,1.2,0,0,0-1.46.83l-1.05,5a1.19,1.19,0,1,0,2.29.64Z"/><path class="cls-3" d="M74.75,88.1l1.26-6a1.21,1.21,0,0,0-.83-1.46,1.2,1.2,0,0,0-1.46.83l-1.27,6a1.19,1.19,0,0,0,2.3.63Z"/><path class="cls-7" d="M58.65,87.18A24.54,24.54,0,0,1,81.14,89.1a30.79,30.79,0,0,1,10.35,12c10,19.43,6.28,43.88-1.19,63.52-9.82,25.79-31.53,28.51-52.31,13C23.67,166.94-4.72,137.29.67,117.7a24.56,24.56,0,0,1,4.47-8.39c4.38-5.63,10.47-10.11,17.42-11.77s14.73,3.71,20.91,1.91C49.34,97.74,52.49,89.79,58.65,87.18Z"/><path class="cls-2" d="M58.47,75.77a12,12,0,0,1,9.86.61c1.55.85,2.88,2.72,2.1,4.31S67.68,82.41,66,82.84c-8.82,2.31,7.58,8,9.49,9.3,4.43,3.15,9.17,9,1.74,11.94-6.56,2.61-13.27-.94-19.85.46-8.05,1.71-5.4,8.9-8.5,14.86-2.13,4.09-8.6,5.82-12.33,2.91-2.48-1.93-3.73-10.5-7.24-11.07-2.14-.35-7.37,7.15-9.46,8.44-2.34,1.45-9.6,4.82-12.3,2.73-5.34-4.08,1.82-14.2,5.18-17.33,2.81-2.62,8.61-3.38,9.45-7.44-3.13-1.42-6.68,1-9.5,2.58-4.22,2.38-12.49,3.56-7-3.55a30.07,30.07,0,0,1,11.77-9.38c7.63-3.21,14.14,1.69,21.13-.68C44.42,84.66,51.39,78,58.47,75.77Z"/><path class="cls-3" d="M53.84,154.44l-.82-2.1a.88.88,0,0,0-.36-.47.86.86,0,0,0-.61-.08.82.82,0,0,0-.47.37.79.79,0,0,0-.08.6l.82,2.1a.94.94,0,0,0,.36.47.79.79,0,0,0,1.08-.28.77.77,0,0,0,.08-.61Z"/><path class="cls-3" d="M81.26,139.51l-.66-3.36a.79.79,0,0,0-1-.55.81.81,0,0,0-.55,1l.65,3.36a.79.79,0,1,0,1.52-.42Z"/><path class="cls-3" d="M31.57,159.17l-2-3.42a.8.8,0,0,0-1.08-.28.81.81,0,0,0-.28,1.08l2,3.42a.8.8,0,0,0,1.07.28.81.81,0,0,0,.29-1.08Z"/><path class="cls-3" d="M58.64,132.63l-1-2.62a.87.87,0,0,0-.37-.47.78.78,0,0,0-1.07.28.74.74,0,0,0-.08.61l1,2.62a.84.84,0,0,0,.36.47.79.79,0,0,0,.6.08.78.78,0,0,0,.47-.36.74.74,0,0,0,.08-.61Z"/><path class="cls-3" d="M61.05,173.62l-1.66-1.17a.79.79,0,0,0-1.08.28.86.86,0,0,0-.08.61.9.9,0,0,0,.37.47L60.26,175a.77.77,0,0,0,.61.08.81.81,0,0,0,.47-.36.84.84,0,0,0,.08-.6.87.87,0,0,0-.37-.47Z"/><path class="cls-3" d="M16.17,142.16,14.94,139a.88.88,0,0,0-.36-.47.81.81,0,0,0-.61-.08.8.8,0,0,0-.55,1l1.23,3.14a.9.9,0,0,0,.36.47.81.81,0,0,0,.61.08.79.79,0,0,0,.55-1Z"/><path class="cls-3" d="M92,115.43l-1.64-4.19a.81.81,0,0,0-1-.55.8.8,0,0,0-.55,1l1.64,4.19a.81.81,0,0,0,1,.55.8.8,0,0,0,.55-1Z"/><path class="cls-4" d="M40.11,93a66,66,0,0,0,3.39,20.4,66.76,66.76,0,0,1-4.35-20.37Z"/><path class="cls-4" d="M39.76,92.52a18.75,18.75,0,0,0,14.17,2.59,19.24,19.24,0,0,1-14.69-1.73Z"/><path class="cls-4" d="M38.32,92.58a69.55,69.55,0,0,1,16.11-7.3,68.94,68.94,0,0,0-15.49,8.25Z"/><path class="cls-4" d="M38.85,93.37a61.92,61.92,0,0,0-16.91-1.83,62.28,62.28,0,0,1,17.12.85Z"/><path class="cls-4" d="M40,93.71a46.53,46.53,0,0,0-12.34,7.75,47.16,47.16,0,0,1,11.7-9.06Z"/><path class="cls-4" d="M14.51,114.71l1.54-1.56a.43.43,0,0,0,0-.6.45.45,0,0,0-.6,0l-1.55,1.54a.43.43,0,0,0,0,.62.45.45,0,0,0,.61,0Z"/><path class="cls-4" d="M34.94,110.9a18,18,0,0,0,3.21,5.38c.4.47,1.08-.21.68-.68a16.49,16.49,0,0,1-2.94-5,.5.5,0,0,0-.61-.34.49.49,0,0,0-.34.6Z"/><path class="cls-4" d="M66,99.43l1.8-.28c.6-.09,1.19-.22,1.78-.35.37-.09.3-.7-.09-.67-.63,0-1.26.09-1.89.18l-1.84.26a.44.44,0,0,0-.31.54.46.46,0,0,0,.55.32Z"/><path class="cls-4" d="M58.62,80.2a.41.41,0,0,0,0-.82.41.41,0,0,0,0,.82Z"/><path class="cls-5" d="M38.62,83.49c-.58-3.71-1.22-7.55-3.37-10.62s-6.28-5.1-9.76-3.65c.13,4.28,5.14,6.39,7.86,9.69a18.71,18.71,0,0,1,2.82,5.43c1.09,2.93,1.78,6.21,3.21,8.91C40.41,90.65,39.1,86.55,38.62,83.49Z"/></g></g></svg>