<?xml version="1.0" encoding="utf-8"?>
<!-- Uploaded to: SVG Repo, www.svgrepo.com, Generator: SVG Repo Mixer Tools -->
<svg width="800px" height="800px" viewBox="0 0 1024 1024" class="icon"  version="1.1" xmlns="http://www.w3.org/2000/svg"><path d="M496.214908 511.991m-476.816794 0a476.816794 476.816794 0 1 0 953.633587 0 476.816794 476.816794 0 1 0-953.633587 0Z" fill="#FFDB6C" /><path d="M598.391506 918.425381c-263.337543 0-476.814794-213.477251-476.814794-476.814793 0-140.690824 60.946357-267.131565 157.864925-354.408077C125.074733 166.128973 19.398114 326.723914 19.398114 512.001c0 263.337543 213.477251 476.814794 476.814793 476.814794 122.646719 0 234.463374-46.322271 318.949869-122.402717-65.036381 33.250195-138.710813 52.012305-216.77127 52.012304z" fill="#FFB04C" /><path d="M291.303707 518.83704c-35.410207 0-64.118376 28.706168-64.118376 64.114376h128.232752c0.004-35.410207-28.702168-64.114376-64.114376-64.114376zM850.566984 518.83704c-35.410207 0-64.118376 28.706168-64.118376 64.114376h128.232751c0-35.410207-28.706168-64.114376-64.114375-64.114376z" fill="#F9A880" /><path d="M221.761299 253.949488c124.500729-28.574167 225.28732-18.74011 336.929975 7.278043 16.556097 3.856023 34.044199 8.158048 52.516307 8.722051 30.76018 0.942006 65.338383-6.714039 95.150558-14.204083 117.70069-29.566173 209.645228-14.188083 298.247747 4.744027l-6.546038 52.360307c-13.832081 0.306002-18.182107 6.75604-22.13413 19.346113-20.680121 65.890386-3.068018 179.26105-155.956913 165.930973-100.580589-8.770051-129.384758-36.328213-177.321039-157.492923-4.078024-10.30606-6.730039-27.33816-30.022176-26.708157-13.152077 0.354002-24.914146 2.680016-29.01617 25.53015-7.646045 42.576249-65.786385 158.258927-183.831078 158.130927-104.264611-0.112001-144.038844-54.232318-148.786871-173.487017-0.590003-14.806087-13.492079-17.618103-21.234125-17.792104l-7.996047-52.358307z" fill="#56586F" /><path d="M402.564359 237.469391l-72.812427 248.311455c19.162112 7.884046 42.292248 11.776069 70.02841 11.80407 0.488003 0 0.970006-0.018 1.458009-0.020001l74.080434-252.63548c-24.228142-3.664021-48.350283-6.228036-72.754426-7.460044zM855.359012 239.481403c-24.232142-0.776005-49.386289 0-75.806444 2.950017l-65.002381 221.675299c17.776104 14.928087 38.762227 23.598138 66.468389 28.89417l74.340436-253.519486z" fill="#737891" /><path d="M595.539489 861.317047c-106.592625 0-193.005131-86.412506-193.00513-193.005131H788.54462c0.002 106.592625-86.410506 193.005131-193.005131 193.005131z" fill="#7F184C" /><path d="M449.626635 668.307916v30.128176c0 12.704074 10.29806 23.000135 23.000134 23.000135h245.823441c12.704074 0 23.000135-10.29806 23.000134-23.000135v-30.128176H449.626635z" fill="#F2F2F2" /><path d="M599.591513 781.242578c-52.172306-24.240142-110.066645-20.716121-157.01492 4.422026 35.278207 45.980269 90.754532 75.650443 153.186898 75.650443a192.281127 192.281127 0 0 0 77.344453-16.170095c-17.376102-26.886158-42.292248-49.394289-73.516431-63.902374z" fill="#FC4C59" /><path d="M1008.65791 241.519415c-92.632543-19.790116-185.813089-35.034205-307.029799-4.586027-30.182177 7.584044-61.994363 14.474085-89.830526 13.63008-15.552091-0.476003-31.052182-4.096024-46.04227-7.602044l-2.664016-0.624004c-97.26657-22.670133-206.46521-39.24223-345.672025-7.294043a19.398114 19.398114 0 0 0-14.836087 21.834128l8.000047 52.360307a19.396114 19.396114 0 0 0 18.74011 16.462096c0.950006 0.02 1.73001 0.116001 2.328013 0.230002 2.750016 66.008387 15.936093 111.136651 41.476243 141.964832 27.31416 32.968193 68.734403 49.026287 126.628742 49.086287h0.218002c71.188417 0 119.584701-37.840222 147.654865-69.604408 31.478184-35.618209 50.342295-78.148458 55.074322-104.498612 1.238007-6.89204 2.956017-8.60205 2.964018-8.61005 0.282002-0.184001 1.66001-0.800005 7.490044-0.956006 6.040035-0.158001 6.262037-0.162001 9.702057 9.646057 0.592003 1.68801 1.164007 3.308019 1.75801 4.806028 23.394137 59.132346 43.932257 101.200593 73.998433 128.192751 31.794186 28.546167 70.836415 37.230218 119.672702 41.488243 8.802052 0.768005 17.228101 1.154007 25.284148 1.154007 48.494284 0 83.57249-13.950082 106.790626-42.338248 0.590003-0.722004 1.122007-1.470009 1.688009-2.200013 1.034006 12.598074 1.578009 25.258148 1.57801 37.938222 0 252.221478-205.197202 457.41668-457.416681 457.41668S38.794227 764.222478 38.794227 512.001 243.98943 54.58432 496.208907 54.58432c101.060592 0 196.847153 32.290189 277.003624 93.380547 8.52005 6.494038 20.694121 4.850028 27.184159-3.670022 6.494038-8.52205 4.852028-20.694121-3.670022-27.188159-86.97051-66.280388-190.889118-101.316594-300.519761-101.316593C222.599304 15.788093 0 238.389397 0 512.001s222.599304 496.212907 496.208907 496.212908c273.613603 0 496.212907-222.599304 496.212908-496.212908 0-36.180212-3.960023-72.218423-11.682068-107.252628 1.916011-8.998053 3.500021-17.934105 5.014029-26.564156 2.584015-14.680086 5.022029-28.548167 8.674051-40.178235 0.988006-3.142018 1.69601-4.792028 2.120012-5.628033 0.440003-0.06 1.074006-0.118001 1.938012-0.138001a19.396114 19.396114 0 0 0 18.81811-16.9861l6.544038-52.360307a19.388114 19.388114 0 0 0-15.190089-21.374125z m-28.152165 55.360325c-15.966094 6.82004-20.744122 22.038129-23.090135 29.508172-4.404026 14.042082-7.058041 29.116171-9.864058 45.078265-1.282008 7.290043-2.552015 14.458085-3.950023 21.428125a19.320113 19.320113 0 0 0-2.494015 11.466067c-11.194066 47.156276-33.232195 81.96048-119.4547 74.444436-91.150534-7.948047-115.220675-29.676174-160.968943-145.304851-0.414002-1.048006-0.806005-2.180013-1.218007-3.36002-3.764022-10.738063-12.478073-35.624209-45.532267-35.624208-0.600004 0-1.212007 0.008-1.82801 0.026-11.034065 0.298002-40.336236 1.086006-47.586279 41.490243-6.546038 36.456214-59.75035 142.162833-164.550964 142.162833h-0.168001c-89.856527-0.098001-124.934732-42.070247-129.424759-154.858907-0.620004-15.658092-9.540056-27.720162-23.464137-33.198195l-3.220019-21.074123c123.264722-24.950146 222.041301-9.574056 310.59782 11.062064l2.640015 0.616004c16.058094 3.756022 34.260201 8.010047 53.684315 8.60405 32.644191 0.990006 67.570396-6.514038 100.470589-14.780086 105.682619-26.548156 189.731112-15.626092 272.059594 1.250007l-2.638016 21.064124z" fill="" /><path d="M807.942734 668.307916c0-10.712063-8.682051-19.398114-19.398114-19.398114H402.534359a19.396114 19.396114 0 0 0-19.398114 19.398114c0 117.120686 95.282558 212.403245 212.403244 212.403244s212.403245-95.282558 212.403245-212.403244z m-384.934255 19.398114h345.064021c-9.672057 86.634508-83.358488 154.210904-172.53101 154.210903s-162.860954-67.576396-172.533011-154.210903z" fill="" /><path d="M832.644879 174.241021m-19.398114 0a19.398114 19.398114 0 1 0 38.796227 0 19.398114 19.398114 0 1 0-38.796227 0Z" fill="" /></svg>