<?xml version="1.0" encoding="utf-8"?>
<!-- Uploaded to: SVG Repo, www.svgrepo.com, Generator: SVG Repo Mixer Tools -->
<svg width="800px" height="800px" viewBox="0 0 1024 1024" class="icon"  version="1.1" xmlns="http://www.w3.org/2000/svg"><path d="M432.182 511.37m-414.164 0a414.164 414.164 0 1 0 828.328 0 414.164 414.164 0 1 0-828.328 0Z" fill="#FDDF6D" /><path d="M520.942 864.39c-228.736 0-414.162-185.426-414.162-414.162 0-122.206 52.938-232.032 137.122-307.84C109.818 210.944 18.026 350.436 18.026 511.368c0 228.736 185.426 414.162 414.162 414.162 106.532 0 203.656-40.234 277.04-106.32-56.49 28.884-120.486 45.18-188.286 45.18z" fill="#FCC56B" /><path d="M360.07 464.148m-50.546 0a50.546 50.546 0 1 0 101.092 0 50.546 50.546 0 1 0-101.092 0Z" fill="#FFFFFF" /><path d="M644.634 464.148m-50.546 0a50.546 50.546 0 1 0 101.092 0 50.546 50.546 0 1 0-101.092 0Z" fill="#FFFFFF" /><path d="M303.322 594.922c-30.756 0-55.69 24.934-55.69 55.692h111.384c0-30.756-24.934-55.692-55.694-55.692zM684.288 586.478c0-30.756 24.934-55.69 55.69-55.69 30.756 0 55.69 24.934 55.69 55.69" fill="#F9A880" /><path d="M640.294 617.038l-19.704 117.942 121.928-22.038 245.66-267.102c26.484-28.228 25.068-72.58-3.16-99.064-28.228-26.482-72.58-25.068-99.064 3.16l-245.66 267.102z" fill="#FFFFFF" /><path d="M646.112 724.862a16.852 16.852 0 0 1-12.284-28.378l276.656-294.892a16.852 16.852 0 0 1 24.576 23.058L658.404 719.542a16.808 16.808 0 0 1-12.292 5.32z" fill="#FC4C59" /><path d="M375.186 771.886a16.848 16.848 0 0 1-10.338-30.16c33.206-25.76 91.08-41.764 151.038-41.764 62.678 0 118.968 15.754 150.574 42.144a16.848 16.848 0 1 1-21.596 25.864c-25.35-21.164-74.77-34.31-128.978-34.31-52.842 0-102.802 13.292-130.384 34.69a16.796 16.796 0 0 1-10.316 3.536z" fill="#7F184C" /><path d="M739.704 245.538H139.916c-40.96 0-74.166-33.206-74.166-74.166 0-40.96 33.206-74.166 74.166-74.166h599.786c40.96 0 74.166 33.206 74.166 74.166 0.002 40.96-33.204 74.166-74.164 74.166z" fill="#3FA9F5" /><path d="M172.172 171.372c0-40.96 33.206-74.166 74.166-74.166H139.916c-40.96 0-74.166 33.206-74.166 74.166 0 40.96 33.206 74.166 74.166 74.166h106.418c-40.956 0-74.162-33.206-74.162-74.166z" fill="#3784F4" /><path d="M427.462 464.142c0-37.162-30.234-67.396-67.396-67.396s-67.396 30.234-67.396 67.396 30.234 67.396 67.396 67.396 67.396-30.234 67.396-67.396z m-101.092 0c0-18.58 15.116-33.698 33.698-33.698 18.58 0 33.698 15.116 33.698 33.698s-15.116 33.698-33.698 33.698-33.698-15.116-33.698-33.698zM712.036 464.142c0-37.162-30.234-67.396-67.396-67.396s-67.396 30.234-67.396 67.396 30.234 67.396 67.396 67.396 67.396-30.234 67.396-67.396z m-101.094 0c0-18.58 15.116-33.698 33.698-33.698s33.698 15.116 33.698 33.698-15.116 33.698-33.698 33.698-33.698-15.116-33.698-33.698z" fill="" /><path d="M1023.956 395.116c-0.742-23.208-10.476-44.742-27.41-60.626-16.934-15.888-39.032-24.234-62.25-23.49-23.208 0.74-44.742 10.474-60.74 27.53L839.646 375.4a433.954 433.954 0 0 0-63.334-120.724c32.004-14.12 54.408-46.136 54.408-83.302 0-50.184-40.828-91.014-91.014-91.014H139.916c-50.184 0-91.014 40.83-91.014 91.014 0 50.186 40.828 91.016 91.014 91.016h599.668c33.792 41.65 59.116 90.32 73.7 141.668l-185.394 201.576a16.854 16.854 0 0 0-4.166 8.324l-12.922 69.466a13.86 13.86 0 0 0-0.122 0.748l-3.932 28.106c-26.756-7.96-57.924-12.318-90.864-12.318-59.956 0-117.834 16.004-151.04 41.766a16.848 16.848 0 1 0 20.654 26.624c27.584-21.398 77.544-34.692 130.384-34.692 36.428 0 70.68 5.944 96.932 16.262 0.962 0.5 1.968 0.908 3.006 1.216 11.518 4.788 21.382 10.444 29.038 16.838a16.85 16.85 0 0 0 23.732-2.134c4.908-5.88 5.12-14.108 1.062-20.164l4.492-0.578c0.49-0.062 0.978-0.148 1.46-0.254l70.508-15.44a16.856 16.856 0 0 0 8.798-5.052l32.118-34.922c-65.914 133.032-202.602 220.516-356.026 220.516-219.078-0.002-397.312-178.236-397.312-397.316 0-33.882 4.268-67.528 12.686-100a16.85 16.85 0 0 0-12.082-20.538 16.84 16.84 0 0 0-20.538 12.082C4.632 439.41 0 475.9 0 512.63c0 237.66 193.35 431.012 431.012 431.012 195.802 0 366.46-131.384 416.56-320.032l152.894-166.242c15.89-16.934 24.23-39.044 23.49-62.252zM82.602 171.372c0-31.604 25.712-57.318 57.318-57.318h599.786c31.604 0 57.318 25.712 57.318 57.318s-25.712 57.32-57.318 57.32H139.916c-31.604-0.002-57.314-25.718-57.314-57.32z m893.174 263.062L733.716 697.62l-64.586 14.144-3.396 0.436 269.556-287.322a16.85 16.85 0 0 0-24.576-23.058L644.728 685.34l11.246-60.46 188.372-204.812c0.128-0.14 0.258-0.274 0.382-0.416l53.516-58.186c9.73-10.37 22.914-16.332 37.126-16.786 14.238-0.438 27.752 4.654 38.12 14.384 10.37 9.73 16.332 22.914 16.786 37.126 0.454 14.212-4.656 27.75-14.5 38.244z" fill="" /><path d="M50.604 348.14m-16.848 0a16.848 16.848 0 1 0 33.696 0 16.848 16.848 0 1 0-33.696 0Z" fill="" /></svg>