<?xml version="1.0" encoding="utf-8"?>
<!-- Uploaded to: SVG Repo, www.svgrepo.com, Generator: SVG Repo Mixer Tools -->
<svg width="800px" height="800px" viewBox="0 0 1024 1024" class="icon"  version="1.1" xmlns="http://www.w3.org/2000/svg"><path d="M457.843788 533.272083m-439.945718 0a439.945719 439.945719 0 1 0 879.891437 0 439.945719 439.945719 0 1 0-879.891437 0Z" fill="#FDDF6D" /><path d="M552.118157 908.273548c-242.974949 0-439.943719-196.968769-439.943719-439.943719 0-129.812507 56.23422-246.474963 145.656569-327.003277C115.402451 214.150837 17.89807 362.327415 17.89807 533.276083c0 242.974949 196.968769 439.943719 439.943718 439.943719 113.162442 0 216.332845-42.740167 294.28515-112.938442-60.008234 30.68212-127.9865 47.992187-200.008781 47.992188z" fill="#FCC56B" /><path d="M268.77905 539.584108c-32.672128 0-59.160231 26.486103-59.160231 59.158231h118.316462c0.002-32.672128-26.484103-59.158231-59.156231-59.158231zM784.793066 539.584108c-32.672128 0-59.160231 26.486103-59.160231 59.158231h118.316462c0-32.672128-26.486103-59.158231-59.156231-59.158231z" fill="#F9A880" /><path d="M389.13552 52.052203c-55.112215 8.026031-95.500373 49.902195-105.198411 100.298392a11.432045 11.432045 0 0 1-8.692034 9.014035 11.436045 11.436045 0 0 1-11.726046-4.388017c-30.442119-41.266161-84.868332-61.656241-138.020539-45.224176-58.75423 18.164071-95.900375 77.708304-86.440337 138.47654 5.792023 37.212145 27.070106 67.576264 55.906218 86.164337h-0.002l204.000797 141.168551c30.542119 21.136083 72.636284 11.586045 91.062356-20.66408l120.708471-211.226825c20.176079-30.072117 27.368107-68.758269 15.650061-106.824418-17.98007-58.398228-76.7863-95.600373-137.248536-86.794339zM931.993641 160.836628c-42.530166-10.794042-84.56033 7.490029-106.828418 41.238161a9.010035 9.010035 0 0 1-9.044035 3.938016 9.008035 9.008035 0 0 1-7.210028-6.734027c-9.698038-39.216153-43.152169-70.482275-86.790339-74.566291-48.240188-4.514018-93.244364 27.608108-104.700409 74.682292-7.016027 28.826113-0.696003 57.346224 14.680057 79.576311h-0.002l105.848414 164.304642c15.848062 24.600096 49.362193 30.354119 72.506283 12.448048l151.594592-117.284458c23.758093-15.796062 40.670159-41.776163 43.63017-73.016285 4.540018-47.924187-27.028106-92.744362-73.684287-104.586409z" fill="#FD4DD7" /><path d="M391.67953 431.423685l-204.000797-141.168551h0.002c-28.836113-18.588073-50.116196-48.950191-55.906218-86.164337-5.574022-35.81214 5.04802-71.188278 26.730104-97.932382a126.572494 126.572494 0 0 0-33.006129 5.592022c-58.75423 18.164071-95.900375 77.708304-86.440337 138.47654 5.792023 37.212145 27.070106 67.576264 55.906218 86.164337h-0.002l204.000797 141.168551c30.542119 21.136083 72.636284 11.586045 91.062356-20.66408l11.394044-19.940078a64.186251 64.186251 0 0 1-9.740038-5.532022zM830.663245 397.139551l-105.848414-164.304641h0.002c-15.37606-22.232087-21.696085-50.748198-14.680057-79.576311a97.000379 97.000379 0 0 1 12.032047-28.542112 0.388002 0.388002 0 0 0-0.048-0.004c-48.240188-4.514018-93.244364 27.608108-104.700409 74.682292-7.016027 28.830113-0.696003 57.346224 14.680057 79.576311h-0.002l105.848414 164.304642c15.848062 24.600096 49.362193 30.354119 72.506283 12.448048l48.58619-37.588147a49.660194 49.660194 0 0 1-28.376111-20.996082z" fill="#E54190" /><path d="M558.720183 831.067246c-98.350384 0-178.080696-79.730311-178.080696-178.080695h356.161391c0 98.352384-79.728311 178.080696-178.080695 178.080695z" fill="#7F184C" /><path d="M424.089657 652.986551v27.798108c0 11.722046 9.502037 21.222083 21.222082 21.222083h226.814886c11.722046 0 21.222083-9.502037 21.222083-21.222083v-27.798108H424.089657z" fill="#F2F2F2" /><path d="M562.460197 757.186958c-48.138188-22.364087-101.554397-19.114075-144.872566 4.080016 32.550127 42.424166 83.736327 69.800273 141.340552 69.800272a177.414693 177.414693 0 0 0 71.364279-14.920058c-16.034063-24.806097-39.022152-45.572178-67.832265-58.96023z" fill="#FC4C59" /><path d="M85.012332 351.271372l203.766796 141.006551a81.456318 81.456318 0 0 0 46.304181 14.428056c5.984023 0 11.996047-0.660003 17.91407-2.004008a81.452318 81.452318 0 0 0 52.566205-38.926152l120.398471-210.684823c23.866093-35.92014 30.256118-80.166313 17.526068-121.510474-20.50808-66.61426-87.972344-109.274427-156.932613-99.236388-55.930218 8.144032-101.498396 48.268189-117.062457 101.638397-36.992145-41.418162-95.344372-58.006227-149.280583-41.332161-67.164262 20.764081-109.658428 88.830347-98.840387 158.328618 6.284025 40.356158 29.474115 76.162298 63.640249 98.292384z m45.774179-222.420869a107.672421 107.672421 0 0 1 31.826124-4.814018c33.548131 0 65.942258 15.688061 86.506338 43.56417a29.340115 29.340115 0 0 0 30.078118 11.218044 29.336115 29.336115 0 0 0 22.314087-23.086091c8.626034-44.822175 44.880175-79.37031 90.206352-85.970335 51.638202-7.514029 102.200399 24.438095 117.562459 74.34629 9.604038 31.192122 4.720018 64.574252-13.404052 91.584358a16.240063 16.240063 0 0 0-0.678003 1.092004l-120.708471 211.226825c-6.396025 11.192044-16.840066 18.926074-29.410115 21.778085-12.576049 2.852011-25.330099 0.382001-35.93014-6.952027L105.154411 321.673257c-0.160001-0.11-0.324001-0.220001-0.486002-0.326002-25.728101-16.580065-43.194169-43.50617-47.920187-73.872288-8.112032-52.072203 23.722093-103.070403 74.038289-118.624464z" fill="" /><path d="M936.393658 143.490561c-42.464166-10.780042-86.902339 3.166012-115.534452 34.970136-16.340064-39.500154-53.508209-67.492264-97.074379-71.568279-57.010223-5.342021-110.212431 32.612127-123.758483 88.270344-7.860031 32.292126-1.598006 66.43826 17.174067 93.740367l105.696413 164.06464a67.992266 67.992266 0 0 0 45.536178 30.110118c3.794015 0.652003 7.61003 0.972004 11.414044 0.972004a68.016266 68.016266 0 0 0 41.554163-14.170056l46.672182-36.108141a423.501654 423.501654 0 0 1 11.810046 99.508389c0 232.718909-189.32874 422.045649-422.045649 422.045649S35.79414 765.992992 35.79414 533.276083c0-16.562065 0.968004-33.24213 2.878011-49.576194a17.89607 17.89607 0 0 0-15.698061-19.854077c-9.808038-1.152005-18.706073 5.878023-19.854078 15.698061A464.141813 464.141813 0 0 0 0 533.276083c0 252.454986 205.384802 457.839788 457.837788 457.839789 252.454986 0 457.839788-205.384802 457.839789-457.839789 0-41.914164-5.668022-83.338326-16.826066-123.320482l73.654288-56.986222c29.094114-19.578076 47.666186-50.834199 50.984199-85.860336 5.360021-56.510221-32.084125-109.656428-87.09634-123.618482z m51.464201 120.242469c-2.318009 24.456096-15.33606 46.250181-35.71814 59.800234a17.470068 17.470068 0 0 0-1.046004 0.750003l-151.592592 117.280458c-7.186028 5.558022-16.072063 7.76603-25.008098 6.234024-8.948035-1.536006-16.586065-6.586026-21.504084-14.218055l-105.844413-164.304642a17.336068 17.336068 0 0 0-0.326001-0.490002c-13.294052-19.222075-17.558069-42.362165-12.010047-65.162255 8.788034-36.106141 41.678163-61.44424 78.250305-61.44424 2.44601 0 4.918019 0.112 7.392029 0.346002 34.282134 3.210013 62.848246 27.742108 71.084278 61.044238a26.920105 26.920105 0 0 0 21.550084 20.076079 26.918105 26.918105 0 0 0 27.016106-11.720046c18.916074-28.664112 54.068211-42.226165 87.488341-33.748132 38.066149 9.668038 63.97625 46.448181 60.268236 85.556334z" fill="" /><path d="M362.743417 652.986551c0 108.062422 87.914343 195.978766 195.978766 195.978765s195.980766-87.914343 195.980765-195.978765a17.89607 17.89607 0 0 0-17.89807-17.89807H380.639487a17.89807 17.89807 0 0 0-17.89607 17.89807z m355.169387 17.89807c-8.924035 79.934312-76.9143 142.284556-159.192621 142.284555s-150.264587-62.350244-159.190622-142.284555h318.383243z" fill="" /><path d="M583.77028 111.230434m-17.89807 0a17.89807 17.89807 0 1 0 35.79614 0 17.89807 17.89807 0 1 0-35.79614 0Z" fill="" /><path d="M32.778128 421.973648m-17.89807 0a17.89807 17.89807 0 1 0 35.79614 0 17.89807 17.89807 0 1 0-35.79614 0Z" fill="" /></svg>