<?xml version="1.0" encoding="utf-8"?>
<!-- Uploaded to: SVG Repo, www.svgrepo.com, Generator: SVG Repo Mixer Tools -->
<svg width="800px" height="800px" viewBox="0 0 1024 1024" class="icon"  version="1.1" xmlns="http://www.w3.org/2000/svg"><path d="M1004.174039 511.885c0 101.801801-31.951938 202.277605-91.035822 285.207443-57.561888 80.797842-139.427728 143.35972-232.671546 177.311654-96.485812 35.133931-203.609602 38.993924-302.421409 11.079978-95.773813-27.053947-182.147644-83.703837-245.509521-160.403686-64.293874-77.825848-103.479798-174.849658-111.099783-275.527462-7.715985-101.931801 16.591968-205.075599 69.629864-292.511429C142.261722 172.637663 218.855573 104.503796 308.739397 63.659876c93.981816-42.705917 200.897608-54.539893 302.02741-33.955934 97.609809 19.869961 187.943633 69.999863 256.807499 141.925723 69.089865 72.161859 115.241775 164.933678 130.673744 263.673485a495.893031 495.893031 0 0 1 5.925989 76.58185z" fill="#FDDF6D" /><path d="M787.224462 905.006232c-96.485812 35.133931-203.609602 38.993924-302.421409 11.079979-95.773813-27.053947-182.147644-83.703837-245.50952-160.401687-64.295874-77.829848-103.481798-174.851658-111.101783-275.529462-7.717985-101.931801 16.589968-205.075599 69.627864-292.511428 27.443946-45.241912 62.189879-85.801832 102.3618-119.995766-86.187832 41.21392-159.559688 107.67779-209.125592 189.39163-53.037896 87.435829-77.345849 190.579628-69.629864 292.511429 7.619985 100.677803 46.805909 197.699614 111.101783 275.531462 63.361876 76.69785 149.735708 133.34774 245.509521 160.401686 98.807807 27.913945 205.931598 24.051953 302.421409-11.079978 54.971893-20.015961 105.979793-49.983902 150.391706-87.761829a484.231054 484.231054 0 0 1-43.625915 18.363964z" fill="#FCC56B" /><path d="M537.84095 458.417105c0 24.935951-15.993969 47.829907-39.409923 56.403889-23.683954 8.669983-50.9459 1.233998-66.98787-18.203964-15.835969-19.187963-18.093965-47.035908-5.513989-68.511866 12.881975-21.991957 38.981924-33.635934 63.959875-28.525944 27.583946 5.647989 47.951906 30.69994 47.951907 58.837885zM875.952289 458.417105c0 24.935951-15.993969 47.829907-39.409923 56.403889-23.683954 8.669983-50.9459 1.233998-66.987869-18.203964-15.833969-19.187963-18.093965-47.035908-5.513989-68.511866 12.881975-21.991957 38.981924-33.635934 63.959875-28.525944 27.585946 5.647989 47.951906 30.69994 47.951906 58.837885z" fill="#FFFFFF" /><path d="M312.863389 534.130957c-36.05993 0-66.167871 30.107941-66.167871 66.167871h132.337742c-0.002-36.05993-30.109941-66.167871-66.169871-66.167871zM890.026262 525.262974c-36.05993 0-66.167871 30.109941-66.167871 66.169871h132.337741c0-36.06193-30.107941-66.169871-66.16987-66.169871z" fill="#F9A880" /><path d="M164.04968 164.145679c-27.887946 27.883946-52.483897 59.081885-72.995858 92.893819-25.259951 41.645919-43.989914 86.85583-55.859891 133.797739l899.140244-131.539743c-18.867963-31.541938-41.247919-61.015881-66.771869-87.669829-35.459931-37.037928-76.62585-68.275867-121.533763-92.599819L164.04968 164.145679z" fill="#F2F2F2" /><path d="M814.446409 276.839459l91.203822-60.223882a488.825045 488.825045 0 0 0-38.085925-44.987912c-35.459931-37.035928-76.62585-68.275867-121.533763-92.599819L269.899473 148.66371 94.895815 250.91951c-1.277998 2.041996-2.591995 4.059992-3.839993 6.119988-25.259951 41.645919-43.989914 86.85583-55.859891 133.797739l779.250478-113.997778z" fill="#E6E6E6" /><path d="M867.576306 171.629665C818.258402 120.117765 757.92452 79.791844 691.798649 53.747895L42.783916 364.071289c-18.707963 59.665883-26.093949 122.79976-21.347958 185.481638a485.645051 485.645051 0 0 0 6.447988 50.053902L883.756274 189.42163a484.183054 484.183054 0 0 0-16.179968-17.791965z" fill="#FFFFFF" /><path d="M789.588458 777.976481c-9.813981 0-15.755969-7.881985-23.271955-12.939975-7.961984-5.35599-16.699967-9.539981-25.62195-13.035975-22.297956-8.733983-46.24191-13.383974-70.059863-15.28397-24.809952-1.979996-50.051902-0.755999-74.425854 4.393992-10.563979 2.231996-21.015959 5.21599-30.98594 9.389981-8.417984 3.525993-16.711967 11.035978-25.55995 12.869975-21.321958 4.413991-32.099937-23.547954-15.42997-36.083929 16.061969-12.083976 36.921928-19.025963 56.20189-23.757954 47.309908-11.615977 98.787807-10.22198 145.867715 1.835996 22.403956 5.737989 44.665913 14.205972 63.783876 27.425947 7.991984 5.525989 17.999965 12.151976 19.355962 22.569956 1.533997 11.779977-7.937984 22.615956-19.853961 22.615956z" fill="#7F184C" /><path d="M951.462142 249.087514c-4.523991-10.599979-12.609975-20.58796-19.191963-29.997942a517.900988 517.900988 0 0 0-21.275958-28.303945 514.340995 514.340995 0 0 0-45.003912-48.981904c-33.577934-32.069937-72.639858-62.423878-114.627777-82.727838-18.061965-9.575981-38.011926-20.797959-57.867886-26.079949-144.743717-55.005893-310.523394-40.417921-443.369135 39.025923a515.876992 515.876992 0 0 0-95.007814 73.073858c-8.073984 5.745989-14.915971 14.631971-21.565958 21.937957a514.434995 514.434995 0 0 0-20.32596 23.717953 511.791 511.791 0 0 0-89.415826 166.629675c-9.677981 24.675952-14.367972 52.787897-18.231964 78.857846A516.91699 516.91699 0 0 0 0 511.875c0.038 123.327759 45.479911 244.011523 126.671753 336.813342 78.373847 89.581825 187.273634 150.303706 304.903404 168.96167 118.461769 18.789963 241.749528-5.04999 344.441327-67.055869 98.683807-59.585884 175.907656-152.361702 216.167578-260.419491 47.233908-126.773752 41.673919-270.485472-15.32597-393.223232a514.854994 514.854994 0 0 0-25.39595-47.863906c-0.371999-0.863998 46.15191 76.87785 0 0z m-433.639153 209.329591c0 21.793957-18.243964 40.037922-40.037922 40.037921s-40.037922-18.243964-40.037922-40.037921 18.243964-40.037922 40.037922-40.037922 40.037922 18.243964 40.037922 40.037922zM43.629915 570.144886c-7.905985-63.965875-2.671995-129.481747 15.525969-191.321626L689.040654 74.259855c60.313882 24.475952 114.455776 61.063881 159.397689 106.743791l-202.921604 98.117809a19.925961 19.925961 0 0 0-4.719991 2.281995L43.629915 570.144886zM465.423091 137.913731l-386.745245 186.999634c23.491954-54.243894 56.865889-103.245798 97.857809-144.711717l288.887436-42.287917z m410.955197 74.051855a475.063072 475.063072 0 0 1 22.585956 29.731942l-120.583764 17.651965 97.997808-47.383907zM634.78676 56.021891l-49.343903 23.859953-352.549312 51.603899c86.86183-63.925875 194.49162-96.333812 302.20941-91.113822a471.319079 471.319079 0 0 1 99.683805 15.64997z m-122.69176 927.914187c-226.211558 0-415.739188-159.949688-461.501099-372.685272l348.685319-168.597671c-9.539981 47.585907 26.879948 93.889817 75.371853 95.771813 47.387907 1.837996 86.89983-39.491923 82.929838-86.75583-2.291996-27.315947-19.051963-52.071898-43.429915-64.555874l144.209718-69.727864 264.075484-38.653924c70.173863 123.02376 80.889842 274.979463 28.713944 406.591205-43.967914 110.909783-130.387745 202.845604-238.271534 253.757505-62.615878 29.545942-131.553743 44.855912-200.783608 44.855912z" fill="" /><path d="M815.896406 378.343261c-33.435935 0-64.101875 21.635958-75.391852 53.099896-11.429978 31.845938-1.003998 68.281867 25.33995 89.433826 26.111949 20.965959 63.637876 23.303954 92.11782 5.649989 28.343945-17.567966 43.141916-51.797899 36.329929-84.477835-7.639985-36.621928-40.99392-63.705876-78.395847-63.705876z m0 120.111765c-21.793957 0-40.037922-18.243964-40.037921-40.037921s18.243964-40.037922 40.037921-40.037922 40.037922 18.243964 40.037922 40.037922-18.243964 40.037922-40.037922 40.037921zM666.072699 696.28064c-45.015912-2.529995-94.725815 2.935994-134.275738 26.199949-8.131984 4.783991-15.785969 10.21798-16.173968 20.53596-0.359999 9.487981 6.211988 18.037965 15.43597 20.22196 9.891981 2.337995 16.723967-4.073992 24.859951-8.365983 9.357982-4.93799 19.435962-8.489983 29.643942-11.221978 46.469909-12.443976 98.581807-10.33998 144.267719 4.477991 9.721981 3.151994 19.279962 6.989986 28.243944 11.915977 7.793985 4.281992 13.879973 10.777979 21.397959 15.18997 21.011959 12.333976 39.791922-16.433968 23.127954-32.511937-15.51397-14.965971-36.639928-24.629952-56.767889-31.537938-25.65395-8.801983-52.727897-13.393974-79.759844-14.903971-56.13589-3.157994 57.831887 3.231994 0 0z" fill="" /></svg>