<?xml version="1.0" encoding="utf-8"?>
<!-- Uploaded to: SVG Repo, www.svgrepo.com, Generator: SVG Repo Mixer Tools -->
<svg width="800px" height="800px" viewBox="0 0 1024 1024" class="icon"  version="1.1" xmlns="http://www.w3.org/2000/svg"><path d="M512.002 512.002m-491.988 0a491.988 491.988 0 1 0 983.976 0 491.988 491.988 0 1 0-983.976 0Z" fill="#FDDF6D" /><path d="M617.43 931.356c-271.716 0-491.986-220.268-491.986-491.986 0-145.168 62.886-275.632 162.888-365.684C129.054 155.124 20.014 320.828 20.014 512c0 271.716 220.268 491.986 491.986 491.986 126.548 0 241.924-47.796 329.098-126.298-67.106 34.31-143.124 53.668-223.668 53.668z" fill="#FCC56B" /><path d="M426.314 359.704m-142.718 0a142.718 142.718 0 1 0 285.436 0 142.718 142.718 0 1 0-285.436 0Z" fill="#FFFFFF" /><path d="M826.554 359.704m-142.718 0a142.718 142.718 0 1 0 285.436 0 142.718 142.718 0 1 0-285.436 0Z" fill="#FFFFFF" /><path d="M300.576 556.564c-36.536 0-66.156 29.62-66.156 66.156h132.314c-0.004-36.538-29.622-66.156-66.158-66.156zM877.628 556.564c-36.536 0-66.156 29.62-66.156 66.156h132.314c0-36.538-29.622-66.156-66.158-66.156z" fill="#F9A880" /><path d="M717.692 710.348H504.616c-11.054 0-20.014-8.958-20.014-20.014s8.962-20.014 20.014-20.014h213.076c11.054 0 20.014 8.958 20.014 20.014 0.002 11.056-8.96 20.014-20.014 20.014z" fill="" /><path d="M450.33 359.704m-40.03 0a40.03 40.03 0 1 0 80.06 0 40.03 40.03 0 1 0-80.06 0Z" fill="#7F184C" /><path d="M856.468 359.704m-40.03 0a40.03 40.03 0 1 0 80.06 0 40.03 40.03 0 1 0-80.06 0Z" fill="#7F184C" /><path d="M976.296 296.028c-24.834-58.17-82.6-99.052-149.742-99.052-89.732 0-162.732 73-162.732 162.732s73 162.732 162.732 162.732c66.774 0 124.256-40.44 149.316-98.102a475.43 475.43 0 0 1 8.104 87.656c0 260.248-211.724 471.968-471.97 471.968S40.03 772.248 40.03 512 251.752 40.03 512 40.03c85.956 0 170.084 23.324 243.29 67.452 9.468 5.71 21.768 2.658 27.474-6.808 5.706-9.468 2.658-21.768-6.808-27.474C696.514 25.312 605.24 0 512 0 229.68 0 0 229.68 0 512c0 282.316 229.68 512 512 512s512-229.68 512-511.998c0-75.548-16.076-148.154-47.704-215.974z m-27.042 63.684c0 67.66-55.044 122.704-122.704 122.704s-122.704-55.046-122.704-122.704 55.044-122.704 122.704-122.704c48.02 0 89.66 27.744 109.804 68.028 0.136 0.322 0.256 0.648 0.41 0.966 1.016 2.092 1.972 4.206 2.956 6.308a121.964 121.964 0 0 1 9.534 47.402z" fill="" /><path d="M426.326 196.98c-89.732 0-162.732 73-162.732 162.732s73 162.732 162.732 162.732 162.732-73 162.732-162.732-73.002-162.732-162.732-162.732z m0 285.436c-67.66 0-122.704-55.046-122.704-122.704s55.044-122.704 122.704-122.704 122.704 55.046 122.704 122.704-55.046 122.704-122.704 122.704zM484.602 690.33c0 11.056 8.962 20.014 20.014 20.014h213.076c11.054 0 20.014-8.958 20.014-20.014s-8.962-20.014-20.014-20.014H504.616c-11.054 0-20.014 8.958-20.014 20.014z" fill="" /><path d="M826.554 132.542m-20.014 0a20.014 20.014 0 1 0 40.028 0 20.014 20.014 0 1 0-40.028 0Z" fill="" /></svg>