<?xml version="1.0" encoding="utf-8"?>
<!-- Uploaded to: SVG Repo, www.svgrepo.com, Generator: SVG Repo Mixer Tools -->
<svg width="800px" height="800px" viewBox="0 0 1024 1024" class="icon"  version="1.1" xmlns="http://www.w3.org/2000/svg"><path d="M515.507007 512.007m-488.606954 0a488.606954 488.606954 0 1 0 977.213908 0 488.606954 488.606954 0 1 0-977.213908 0Z" fill="#FDDF6D" /><path d="M620.227211 928.473813c-269.850527 0-488.604954-218.754427-488.604954-488.604954 0-144.170282 62.454122-273.738535 161.768316-363.170709C135.206264 157.576308 26.918053 322.140629 26.918053 511.999c0 269.848527 218.754427 488.604954 488.604954 488.604954 125.680245 0 240.262469-47.466093 326.836638-125.430245-66.64413 34.074067-142.142278 53.300104-222.132434 53.300104z" fill="#FCC56B" /><path d="M853.533667 420.456821a19.882039 19.882039 0 0 1-17.720035-10.842021c-12.846025-25.148049-36.894072-40.77408-62.766122-40.77408-25.220049 0-49.584097 15.830031-63.590124 41.308081-5.28801 9.624019-17.378034 13.130026-26.994053 7.844015-9.620019-5.28801-13.132026-17.372034-7.844015-26.994052 20.990041-38.190075 58.706115-61.914121 98.428192-61.914121 40.88408 0 78.498153 23.926047 98.172192 62.448122 4.99401 9.774019 1.116002 21.748042-8.664017 26.744052a19.812039 19.812039 0 0 1-9.022018 2.180004zM522.629021 420.456821a19.882039 19.882039 0 0 1-17.720035-10.842021c-12.846025-25.148049-36.894072-40.77408-62.766122-40.77408-25.220049 0-49.584097 15.830031-63.590125 41.308081-5.28801 9.624019-17.376034 13.130026-26.994052 7.844015-9.620019-5.28801-13.132026-17.372034-7.844016-26.994052 20.990041-38.190075 58.706115-61.914121 98.428193-61.914121 40.88408 0 78.498153 23.926047 98.172191 62.448122 4.99401 9.774019 1.116002 21.748042-8.664017 26.744052a19.800039 19.800039 0 0 1-9.022017 2.180004z" fill="#7F184C" /><path d="M305.548597 481.752941c-36.286071 0-65.704128 29.416057-65.704129 65.704128h131.404257c0.004-36.290071-29.414057-65.704128-65.700128-65.704128zM878.639716 472.946924c-36.286071 0-65.704128 29.416057-65.704128 65.704128h131.404256c0-36.288071-29.416057-65.704128-65.700128-65.704128z" fill="#F9A880" /><path d="M225.43044 303.054592c0 56.762111-46.01409 102.776201-102.7762 102.776201S19.878039 359.814703 19.878039 303.054592 122.65224 98.266192 122.65224 98.266192s102.778201 148.026289 102.7782 204.7884z" fill="#3FA9F5" /><path d="M515.523007 3.518007c-128.530251 0-249.608488 47.288092-343.606671 133.660261-15.990031-25.63605-29.268057-44.968088-32.936065-50.250098a19.876039 19.876039 0 0 0-32.652063 0C95.444186 102.6022 0 241.834472 0 303.054592c0 67.632132 55.022107 122.65224 122.65224 122.652239s122.65624-55.022107 122.656239-122.652239c0-31.970062-26.028051-85.206166-52.452102-131.020256 87.460171-83.134162 201.462393-128.762251 322.66463-128.762251 258.458505 0 468.724915 210.270411 468.724915 468.726915S773.975512 980.725915 515.521007 980.725915c-117.99623 0-230.742451-43.998086-317.47262-123.880241-86.218168-79.422155-139.298272-187.206366-149.458292-303.502593-0.952002-10.938021-10.604021-19.026037-21.530042-18.072036-10.938021 0.954002-19.030037 10.596021-18.072035 21.530043 11.022022 126.194246 68.600134 243.134475 162.128316 329.282643 94.088184 86.666169 216.398423 134.396262 344.404673 134.396262 280.376548 0 508.478993-228.102446 508.478993-508.480993S795.899554 3.518007 515.523007 3.518007zM122.65224 385.952754c-45.710089 0-82.898162-37.188073-82.898162-82.898162 0-31.886062 45.734089-112.324219 82.900162-169.180331 37.168073 56.844111 82.898162 137.266268 82.898161 169.180331 0.004 45.708089-37.188073 82.898162-82.900161 82.898162z" fill="" /><path d="M709.455386 410.148801c14.006027-25.47805 38.374075-41.308081 63.590124-41.308081 25.872051 0 49.920098 15.626031 62.766122 40.77408a19.878039 19.878039 0 1 0 35.40807-18.080035c-19.674038-38.520075-57.288112-62.448122-98.172192-62.448122-39.720078 0-77.438151 23.722046-98.428192 61.914121-5.28801 9.620019-1.776003 21.704042 7.844015 26.994052 9.616019 5.28601 21.704042 1.778003 26.992053-7.846015zM442.144864 329.086643c-39.720078 0-77.438151 23.722046-98.428193 61.914121-5.28801 9.620019-1.776003 21.704042 7.844016 26.994052 9.618019 5.28801 21.704042 1.778003 26.994052-7.844015 14.006027-25.47805 38.374075-41.308081 63.590125-41.308081 25.872051 0 49.920098 15.626031 62.766122 40.77408a19.878039 19.878039 0 1 0 35.408069-18.080035c-19.676038-38.520075-57.290112-62.450122-98.174191-62.450122zM429.690839 742.795451c-8.674017 6.730013-10.25202 19.214038-3.522007 27.886054a19.836039 19.836039 0 0 0 15.718031 7.694015 19.796039 19.796039 0 0 0 12.170024-4.172008c32.542064-25.244049 91.488179-40.92608 153.8223-40.92608 63.952125 0 122.254239 15.51203 152.158297 40.478079 8.422016 7.036014 20.958041 5.908012 27.994055-2.518005 7.036014-8.426016 5.908012-20.962041-2.518005-27.994054-37.282073-31.132061-103.690203-49.720097-177.636347-49.720097-70.730138 0-139.010272 18.878037-178.186348 49.272096z" fill="" /><path d="M28.790056 487.810953m-19.878039 0a19.878039 19.878039 0 1 0 39.756078 0 19.878039 19.878039 0 1 0-39.756078 0Z" fill="" /></svg>