<?xml version="1.0" encoding="utf-8"?>
<!-- Uploaded to: SVG Repo, www.svgrepo.com, Generator: SVG Repo Mixer Tools -->
<svg width="800px" height="800px" viewBox="0 0 1024 1024" class="icon"  version="1.1" xmlns="http://www.w3.org/2000/svg"><path d="M512.002 512.002m-491.988 0a491.988 491.988 0 1 0 983.976 0 491.988 491.988 0 1 0-983.976 0Z" fill="#FDDF6D" /><path d="M617.432 931.356c-271.716 0-491.986-220.268-491.986-491.986 0-145.168 62.886-275.632 162.888-365.684C129.054 155.124 20.014 320.828 20.014 512c0 271.716 220.268 491.986 491.986 491.986 126.548 0 241.924-47.796 329.098-126.298-67.102 34.31-143.124 53.668-223.666 53.668z" fill="#FCC56B" /><path d="M426.314 359.704m-142.718 0a142.718 142.718 0 1 0 285.436 0 142.718 142.718 0 1 0-285.436 0Z" fill="#FFFFFF" /><path d="M826.554 359.704m-142.718 0a142.718 142.718 0 1 0 285.436 0 142.718 142.718 0 1 0-285.436 0Z" fill="#FFFFFF" /><path d="M300.576 556.564c-36.536 0-66.156 29.62-66.156 66.158h132.314c-0.004-36.54-29.622-66.158-66.158-66.158zM877.628 547.698c-36.536 0-66.156 29.62-66.156 66.158h132.314c0-36.538-29.618-66.158-66.158-66.158z" fill="#F9A880" /><path d="M390.526 285.09m-40.03 0a40.03 40.03 0 1 0 80.06 0 40.03 40.03 0 1 0-80.06 0Z" fill="#7F184C" /><path d="M796.612 282.314m-40.03 0a40.03 40.03 0 1 0 80.06 0 40.03 40.03 0 1 0-80.06 0Z" fill="#7F184C" /><path d="M553.388 822.268a19.932 19.932 0 0 1-10.272-2.85c-9.482-5.684-12.558-17.976-6.874-27.458 27.59-46.018 76.732-74.606 128.244-74.606a146.14 146.14 0 0 1 45.684 7.282c10.504 3.448 16.22 14.758 12.77 25.262-3.45 10.498-14.76 16.222-25.262 12.766a106.238 106.238 0 0 0-33.192-5.282c-37.528 0-73.51 21.136-93.908 55.16a20.02 20.02 0 0 1-17.19 9.726z" fill="#7F184C" /><path d="M976.568 296.66a162.334 162.334 0 0 0-7.144-14.786c-0.916-1.814-1.79-3.65-2.724-5.452a19.944 19.944 0 0 0-3.282-4.576c-28.984-44.988-79.486-74.866-136.864-74.866-89.732 0-162.732 73-162.732 162.732 0 89.73 73 162.73 162.732 162.73 66.794 0 124.292-40.462 149.336-98.15 5.354 28.624 8.084 57.894 8.084 87.708 0 260.248-211.724 471.968-471.97 471.968S40.03 772.248 40.03 512 251.752 40.03 512 40.03c73.236 0 143.414 16.308 208.588 48.47 9.906 4.892 21.914 0.824 26.804-9.09 4.892-9.914 0.822-21.914-9.092-26.806C667.572 17.698 591.434 0 512 0 229.68 0 0 229.68 0 512c0 282.316 229.68 512 512 512s512-229.68 512-511.998c0-74.35-16.38-148.314-47.432-215.342z m-27.314 63.052c0 67.66-55.044 122.7-122.704 122.7s-122.704-55.044-122.704-122.7 55.044-122.704 122.704-122.704c46.26 0 86.612 25.742 107.516 63.646a477.884 477.884 0 0 1 5.604 11.532 121.936 121.936 0 0 1 9.584 47.526z" fill="" /><path d="M426.326 196.98c-89.732 0-162.732 73-162.732 162.732 0 89.73 73 162.73 162.732 162.73s162.732-73 162.732-162.73c0.002-89.732-73.002-162.732-162.732-162.732z m0 285.432c-67.66 0-122.704-55.044-122.704-122.7s55.044-122.704 122.704-122.704 122.704 55.046 122.704 122.704-55.046 122.7-122.704 122.7zM543.116 819.42a20.008 20.008 0 0 0 27.458-6.878c20.398-34.026 56.38-55.16 93.908-55.16 11.358 0 22.524 1.778 33.19 5.282 10.502 3.456 21.814-2.266 25.264-12.764 3.45-10.502-2.262-21.814-12.764-25.264a145.99 145.99 0 0 0-45.69-7.282c-51.516 0-100.652 28.588-128.244 74.606-5.68 9.482-2.604 21.776 6.878 27.46z" fill="" /><path d="M791.274 106.798m-20.014 0a20.014 20.014 0 1 0 40.028 0 20.014 20.014 0 1 0-40.028 0Z" fill="" /></svg>