<?xml version="1.0" encoding="utf-8"?>
<!-- Uploaded to: SVG Repo, www.svgrepo.com, Generator: SVG Repo Mixer Tools -->
<svg width="800px" height="800px" viewBox="0 0 1024 1024" class="icon"  version="1.1" xmlns="http://www.w3.org/2000/svg"><path d="M511.270999 474.390927m-455.110889 0a455.110889 455.110889 0 1 0 910.221777 0 455.110889 455.110889 0 1 0-910.221777 0Z" fill="#FDDF6D" /><path d="M608.789189 862.311684c-251.350491 0-455.108889-203.758398-455.108889-455.108889 0-134.286262 58.172114-254.972498 150.678294-338.27466-147.340288 75.336147-248.206485 228.620447-248.206484 405.462792 0 251.350491 203.758398 455.108889 455.108889 455.108888 117.064229 0 223.790437-44.212086 304.430594-116.832228-62.074121 31.738062-132.396259 49.644097-206.902404 49.644097z" fill="#FCC56B" /><path d="M315.682617 449.474878c-33.798066 0-61.19812 27.398054-61.19812 61.196119h122.396239c0-33.796066-27.400054-61.19612-61.198119-61.196119zM849.483659 449.474878c-33.798066 0-61.19612 27.398054-61.196119 61.196119h122.396239c-0.002-33.796066-27.400054-61.19612-61.20012-61.196119z" fill="#F9A880" /><path d="M599.665171 790.923545c-101.740199 0-184.21836-82.478161-184.21836-184.21836h368.43872c0.002 101.740199-82.476161 184.21836-184.22036 184.21836z" fill="#7F184C" /><path d="M460.394899 606.705185v28.756056c0 12.126024 9.830019 21.954043 21.954043 21.954043H716.9814c12.126024 0 21.954043-9.830019 21.954043-21.954043v-28.756056h-278.540544z" fill="#F2F2F2" /><path d="M654.347278 698.815365h-129.448253v0.214a168.074328 168.074328 0 0 0-71.232139 19.690039 185.126362 185.126362 0 0 0 48.404095 44.076086 48.734095 48.734095 0 0 1 22.830044 41.26608v98.048192c0 57.094112 46.28409 103.374202 103.374202 103.374202 57.094112 0 103.374202-46.28409 103.374202-103.374202v-125.992246c0.002-42.692083-34.608068-77.302151-77.302151-77.302151z" fill="#FC4C59" /><path d="M627.871226 963.955883a18.512036 18.512036 0 0 1-18.514036-18.514036v-175.922344c0-2.058004-4.826009-7.102014-9.220018-9.634019-8.948017-4.95201-12.120024-16.182032-7.168014-25.128049 4.95201-8.948017 16.286032-12.146024 25.232049-7.198014 2.886006 1.598003 28.188055 16.340032 28.188055 41.962082v175.922344a18.516036 18.516036 0 0 1-18.518036 18.512036z" fill="#BC3B4A" /><path d="M443.308866 333.508651m-55.544109 0a55.544108 55.544108 0 1 0 111.088217 0 55.544108 55.544108 0 1 0-111.088217 0Z" fill="#FFFFFF" /><path d="M756.007477 333.508651m-55.544109 0a55.544108 55.544108 0 1 0 111.088217 0 55.544108 55.544108 0 1 0-111.088217 0Z" fill="#FFFFFF" /><path d="M511.999 0C250.84249 0 38.376075 212.464415 38.376075 473.622925c0 261.15651 212.464415 473.620925 473.622925 473.620925 1.024002 0 2.052004-0.02 3.076006-0.028 17.972035 44.938088 61.924121 76.78415 113.200221 76.78415 67.212131 0 121.892238-54.680107 121.892238-121.890238v-125.992246a95.400186 95.400186 0 0 0-4.446009-28.846056c36.158071-37.614073 56.678111-88.144172 56.678111-140.570275a18.512036 18.512036 0 0 0-18.514036-18.514036H415.446811a18.514036 18.514036 0 0 0-18.514036 18.514036c0 68.362134 34.114067 131.678257 91.256178 169.358331 0.414001 0.274001 0.854002 0.478001 1.282003 0.716001 10.612021 7.590015 16.914033 19.916039 16.914033 33.292065v92.04218c0 2.704005 0.12 5.376011 0.294001 8.038016-238.294465-2.864006-431.276842-197.564386-431.276843-436.524853 0.002-240.73847 195.858383-436.594853 436.596853-436.594853s436.594853 195.856383 436.594853 436.594853c0 108.626212-40.146078 212.732415-113.042221 293.138573-6.868013 7.574015-6.294012 19.284038 1.284002 26.152051 7.572015 6.868013 19.284038 6.292012 26.152052-1.284003 79.084154-87.23217 122.63824-200.170391 122.638239-318.006621C985.621925 212.464415 773.15751 0 511.999 0z m201.140393 902.111762c0 46.792091-38.070074 84.860166-84.862166 84.860166-38.584075 0-71.216139-25.896051-81.484159-61.21212a18.160035 18.160035 0 0 0-1.050002-3.964008 84.708165 84.708165 0 0 1-2.330005-19.682038v-92.04218c0-26.350051-12.984025-50.660099-34.734067-65.038127a166.658326 166.658326 0 0 1-24.298048-19.554038 150.286294 150.286294 0 0 1 41.404081-7.958016c0.650001-0.032 1.286003-0.096 1.914004-0.192h126.646247c32.418063 0 58.790115 26.374052 58.790115 58.790115v125.992246h0.004z m51.1861-276.892541a166.378325 166.378325 0 0 1-37.772074 88.016172c-17.578034-20.158039-43.420085-32.936064-72.206141-32.936064h-129.448253c-1.300003 0-2.570005 0.138-3.794007 0.398-21.070041 1.348003-41.966082 6.406013-61.40812 14.688029a165.152323 165.152323 0 0 1-24.706048-70.168137h329.336643v0.002z" fill="" /><path d="M443.312866 259.460507c-40.83608 0-74.058145 33.222065-74.058145 74.058144s33.222065 74.058145 74.058145 74.058145 74.058145-33.222065 74.058144-74.058145-33.224065-74.058145-74.058144-74.058144z m0 111.086217c-20.41804 0-37.028072-16.612032-37.028072-37.028073s16.612032-37.028072 37.028072-37.028072 37.028072 16.612032 37.028072 37.028072-16.610032 37.028072-37.028072 37.028073zM756.021477 259.460507c-40.83608 0-74.058145 33.222065-74.058145 74.058144s33.222065 74.058145 74.058145 74.058145c40.83608 0 74.058145-33.222065 74.058144-74.058145s-33.222065-74.058145-74.058144-74.058144z m0 111.086217c-20.41804 0-37.028072-16.612032-37.028073-37.028073s16.612032-37.028072 37.028073-37.028072c20.41804 0 37.028072 16.612032 37.028072 37.028072s-16.610032 37.028072-37.028072 37.028073z" fill="" /><path d="M805.799574 820.439602m-18.514036 0a18.514036 18.514036 0 1 0 37.028072 0 18.514036 18.514036 0 1 0-37.028072 0Z" fill="" /></svg>