<?xml version="1.0" encoding="utf-8"?>
<!-- Uploaded to: SVG Repo, www.svgrepo.com, Generator: SVG Repo Mixer Tools -->
<svg width="800px" height="800px" viewBox="0 0 1024 1024" class="icon"  version="1.1" xmlns="http://www.w3.org/2000/svg"><path d="M512.005 451.251119m-433.611153 0a433.611153 433.611153 0 1 0 867.222306 0 433.611153 433.611153 0 1 0-867.222306 0Z" fill="#FDDF6D" /><path d="M604.922819 820.848397c-239.477532 0-433.609153-194.133621-433.609154-433.609153 0-127.94375 55.423892-242.927526 143.55972-322.295371C174.491659 136.717733 78.389847 282.759448 78.389847 451.249119c0 239.477532 194.133621 433.609153 433.609153 433.609153 111.533782 0 213.219584-42.123918 290.049433-111.311783-59.139884 30.239941-126.139754 47.301908-197.125614 47.301908z" fill="#FCC56B" /><path d="M602.866823 484.233054c93.591817 0 169.465669 75.871852 169.465669 169.465669v51.5439H433.401154V653.698723c0-93.593817 75.873852-169.465669 169.465669-169.465669z" fill="#7F184C" /><path d="M602.866823 561.900903c-54.915893 0-99.431806 44.517913-99.431806 99.431805v234.851542c0 18.305964 14.837971 33.143935 33.143935 33.143935 18.305964 0 33.143935-14.837971 33.143935-33.143935v77.027849c0 18.305964 14.837971 33.143935 33.143936 33.143935 18.305964 0 33.143935-14.837971 33.143935-33.143935v-47.627907c0 18.305964 14.837971 33.143935 33.143935 33.143935s33.143935-14.837971 33.143935-33.143935V661.332708c0.004-54.913893-44.515913-99.431806-99.431805-99.431805z" fill="#B5E589" /><path d="M669.154693 790.170457c-32.731936 0-33.143935 14.483972-33.143935 14.483971-4.553991 16.771967-14.837971 33.143935-33.143935 33.143936-18.305964 0-33.143935-14.837971-33.143936-33.143936 0 0 5.549989-43.883914-33.143935-43.883914-18.305964 0-33.143935-14.837971-33.143935-33.143935v174.04766c0 18.305964 14.837971 33.143935 33.143935 33.143935 18.305964 0 33.143935-14.837971 33.143935-33.143935v77.027849c0 18.305964 14.837971 33.143935 33.143936 33.143936 18.305964 0 33.143935-14.837971 33.143935-33.143936v-47.627907c0 18.305964 14.837971 33.143935 33.143935 33.143936 18.305964 0 33.143935-14.837971 33.143935-33.143936v-174.04766c0.004 18.305964-14.837971 33.143935-33.143935 33.143936z" fill="#8BC673" /><path d="M630.826768 696.18864m-17.639966 0a17.639966 17.639966 0 1 0 35.279931 0 17.639966 17.639966 0 1 0-35.279931 0Z" fill="#8BC673" /><path d="M606.460816 769.616497m-17.639966 0a17.639966 17.639966 0 1 0 35.279931 0 17.639966 17.639966 0 1 0-35.279931 0Z" fill="#8BC673" /><path d="M557.93891 678.548675m-17.639965 0a17.639966 17.639966 0 1 0 35.279931 0 17.639966 17.639966 0 1 0-35.279931 0Z" fill="#8BC673" /><path d="M512.001 0C263.179486 0 60.749881 202.427605 60.749881 451.249119c0 118.981768 45.90391 231.253548 129.255748 316.139382 79.255845 80.713842 183.855641 128.01575 296.107422 134.347738 2.775995 25.39595 24.339952 45.233912 50.465901 45.233911 5.403989 0 10.613979-0.849998 15.50397-2.417995v28.663944c0 27.999945 22.781956 50.783901 50.783901 50.783901 27.755946 0 50.383902-22.385956 50.7799-50.047902a50.613901 50.613901 0 0 0 15.50997 2.419995c28.001945 0 50.783901-22.783956 50.783901-50.783901V722.882588h52.391898a17.639966 17.639966 0 0 0 17.639965-17.639965V653.698723c0-103.169798-83.935836-187.105635-187.105634-187.105634s-187.105635 83.935836-187.105635 187.105634v51.5439a17.639966 17.639966 0 0 0 17.639966 17.639965h52.391897v143.50372c-102.5858-6.351988-198.105613-49.865903-270.617471-123.711759-76.83185-78.249847-119.147767-181.741645-119.147768-291.42343 0.002-229.367552 186.603636-415.971188 415.973188-415.971188s415.969188 186.603636 415.969188 415.969188c0 100.525804-36.335929 197.561614-102.315801 273.237466a17.639966 17.639966 0 0 0 1.701997 24.887951 17.637966 17.637966 0 0 0 24.887951-1.705996c71.58186-82.09784 111.003783-187.371634 111.003784-296.421421C963.250119 202.427605 760.818514 0 512.001 0z m172.661663 925.586192c0 8.549983-6.957986 15.50397-15.50397 15.50397-8.547983 0-15.50397-6.953986-15.50397-15.50397 0-9.743981-7.897985-17.639966-17.639965-17.639965s-17.639966 7.895985-17.639966 17.639965v47.627907c0 8.549983-6.957986 15.50397-15.503969 15.50397s-15.50397-6.953986-15.50397-15.50397v-77.027849c0-9.743981-7.897985-17.639966-17.639966-17.639966s-17.639966 7.895985-17.639965 17.639966c0 8.549983-6.953986 15.50397-15.50397 15.503969s-15.50397-6.953986-15.50397-15.503969V661.332708c0-45.101912 36.693928-81.79184 81.791841-81.79184 45.099912 0 81.79184 36.693928 81.79184 81.79184v264.253484zM451.041119 687.602657V653.698723c0-83.715836 68.107867-151.825703 151.825704-151.825703s151.825703 68.107867 151.825703 151.825703v33.903934H719.938594v-26.267949c0-64.551874-52.519897-117.071771-117.071771-117.071771s-117.071771 52.519897-117.071772 117.071771v26.267949h-34.753932z" fill="" /><path d="M531.580962 320.083375c-14.543972 19.551962-40.70792 31.701938-68.281867 31.701938-28.259945 0-54.073894-11.957977-67.375868-31.203939a17.633966 17.633966 0 0 0-24.539952-4.481991 17.639966 17.639966 0 0 0-4.481992 24.539952c19.789961 28.637944 56.727889 46.425909 96.397812 46.425909 38.511925 0 75.519853-17.597966 96.591811-45.92791 5.813989-7.815985 4.187992-18.865963-3.625992-24.679952-7.823985-5.815989-18.871963-4.191992-24.683952 3.625993zM831.144377 341.137334c5.813989-7.815985 4.187992-18.865963-3.625993-24.679952a17.637966 17.637966 0 0 0-24.681952 3.625993c-14.543972 19.551962-40.70792 31.701938-68.283867 31.701938-28.255945 0-54.073894-11.957977-67.375868-31.203939-5.541989-8.015984-16.525968-10.02398-24.539952-4.481991s-10.02198 16.525968-4.481991 24.539952c19.791961 28.637944 56.729889 46.425909 96.397811 46.425909 38.511925-0.002 75.519853-17.597966 96.591812-45.92791z" fill="" /><path d="M789.962457 784.128468m-17.639965 0a17.639966 17.639966 0 1 0 35.279931 0 17.639966 17.639966 0 1 0-35.279931 0Z" fill="" /></svg>