<svg xmlns="http://www.w3.org/2000/svg" fill="none" viewBox="0 0 1024 1024" height="1024" width="1024">
<rect fill="white" height="1024" width="1024"></rect>
<path fill="black" d="M362.116 382.814C388.612 379.861 411.457 409.644 401.149 434.328C399.979 433.548 397.611 431.96 396.44 431.18C395.855 424.41 394.379 415.745 385.742 415.912C374.403 413.6 364.763 423.741 367.577 434.941C372.174 437.225 376.743 439.622 381.312 442.045C378.331 450.404 375.573 458.873 373.177 467.454C361.253 467.956 347.768 470.24 337.32 463.052C330.355 455.781 328.907 445.221 325.814 436.027C327.876 430.706 330.216 425.524 332.556 420.342C340.329 418.42 348.214 416.386 355.263 412.458C357.826 410.507 360.305 408.446 362.674 406.328C363.816 398.472 363.036 390.587 362.116 382.814Z"></path>
<path fill="#FDFCFC" d="M337.571 388.191C342.698 384.012 349.579 385.265 355.653 385.154C360.082 391.367 362.228 398.722 362.673 406.328C360.305 408.445 357.826 410.507 355.263 412.457C348.353 414.826 340.664 417.416 333.448 414.937C324.644 407.777 328.823 393.484 337.571 388.191Z"></path>
<path fill="#EFF0F3" d="M148.315 505.651C160.518 487.291 180.828 475.896 201.417 469.377C202.894 469.516 205.902 469.794 207.379 469.934C185.341 482.359 158.762 493.532 149.68 519.414C149.541 525.265 150.098 531.283 152.856 536.548C155.781 540.922 158.874 545.185 161.827 549.587C160.713 549.197 158.484 548.473 157.369 548.083C151.352 544.906 146.699 539.836 142.464 534.654C142.018 524.68 142.576 514.148 148.315 505.651Z"></path>
<path fill="#E1D5D7" d="M607.985 541.897C611.329 541.089 614.672 540.393 618.043 539.836L620.439 540.17C644.511 545.073 668.192 552.596 689.589 564.854C724.554 583.521 752.526 614.613 767.403 651.333C782.364 686.02 784.928 725.721 775.65 762.274C773.31 765.534 770.886 768.71 768.462 771.914C764.144 756.897 764.45 740.961 759.602 726.083C752.414 704.826 740.936 684.042 721.991 671.142C713.27 659.775 704.522 648.408 695.272 637.459C688.642 626.649 681.426 616.09 672.288 607.202C650.863 585.945 630.19 563.517 605.004 546.55C606.007 544.962 606.982 543.43 607.985 541.897Z"></path>
<path fill="#FDFDFC" d="M367.577 434.941C364.763 423.741 374.403 413.6 385.742 415.912C394.379 415.745 395.856 424.41 396.441 431.18C386.912 433.074 377.356 435.219 367.577 434.941Z"></path>
<path fill="#F1F3F5" d="M625.816 871.627C628.63 811.643 677.302 760.63 734.611 747.201C734.667 748.009 734.778 749.625 734.834 750.433C708.227 758.652 684.518 774.365 665.127 794.174C652.144 807.714 643.898 824.904 637.49 842.317C634.146 851.4 631.973 860.817 629.466 870.15C628.546 870.512 626.735 871.264 625.816 871.627Z"></path>
<path fill="#FEFDFD" d="M513.037 98.6367C564.244 66.9872 629.549 65.3433 685.577 84.2327C703.324 90.7242 721.935 98.3581 734.305 113.291C748.486 130.119 748.402 157.617 732.661 173.442C717.366 190.131 690.814 188.654 676.104 206.067C666.994 216.013 665.099 234.345 677.999 242.118C717.031 269.171 752.247 301.99 780.33 340.41C840.62 424.298 872.744 528.413 868.509 631.775C867.506 663.703 861.432 695.046 855.414 726.306C865.834 732.825 876.616 739.178 884.974 748.344C902.805 767.735 913.503 793.06 916.958 819.054C920.106 840.06 918.1 861.429 921.332 882.464C922.363 900.685 924.341 920.967 914.2 937.182C905.675 951.475 885.782 955.626 871.267 948.772C858.005 940.916 851.514 925.509 838.224 917.652C821.731 907.901 802.201 905.895 784.621 898.79C770.997 894.026 759.379 885.278 747.845 876.864C724.665 888.928 698.476 890.516 673.095 893.915C656.685 895.586 644.817 909.823 628.323 911.021C616.483 911.523 602.692 908.792 595.754 898.205C585.279 883.69 588.204 864.773 591.297 848.363C600.045 804.566 626.095 764.029 663.79 739.679C674.46 732.073 687.081 727.81 697.696 720.177C697.501 713.685 694.659 707.751 691.79 702.151C683.348 686.243 673.346 670.808 659.499 659.051C655.042 669.08 651.949 681.06 642.059 687.273C622.389 699.894 597.955 700.869 575.305 699.588C535.687 697.331 498.633 677.578 470.828 649.912C467.067 646.235 463.083 642.78 458.987 639.493C454.056 655.93 454.78 673.12 454.39 690.059C453.972 705.912 446.255 723.603 430.152 728.897C403.684 737.06 375.043 727.56 353.674 711.289C329.408 692.205 310.741 666.517 298.706 638.183C295.223 631.72 292.604 621.885 283.522 622.386C250.674 619.544 217.158 617.566 185.954 606.032C176.287 602.578 168.263 596.058 160.072 590.124C149.819 582.657 136.53 581.236 126.305 573.686C114.826 565.356 104.964 553.599 102.289 539.334C97.3021 517.352 107.499 495.147 120.594 477.957C126.611 469.571 136.084 462.049 136.028 450.849C136.585 433.102 133.465 415.411 135.387 397.691C137.226 350.802 154.973 305.055 184.115 268.391C208.103 237.883 240.589 215.484 274.495 197.319C310.491 179.098 349.83 167.703 389.837 162.799C405.969 160.877 422.351 163.022 438.398 160.236C445.921 158.955 451.047 152.714 456.229 147.671C473.28 129.339 491.082 111.146 513.037 98.6367ZM588.232 104.933C546.72 110.366 509.972 134.521 482.306 165.084C474.31 174.334 466.565 183.806 458.876 193.335C409.173 190.298 358.439 196.121 312.051 214.926C268.171 233.259 227.076 261.453 200.052 301.238C174.225 338.989 164.836 386.101 167.956 431.291C169.907 445.639 170.157 460.154 170.547 474.642C156.617 483.279 143.188 494.813 137.533 510.666C132.1 521.698 132.852 535.294 141.043 544.823C151.463 557.778 169.127 558.586 183.614 563.851C192.613 571.095 202.03 578.422 213.648 580.874C246.551 588.954 280.541 591.823 314.224 594.442C317.734 595.194 321.245 595.947 324.755 596.699C328.795 632.332 347.684 666.629 376.297 688.444C389.67 697.443 406.721 705.494 422.908 699.532C422.462 662.394 428.396 623.529 450.518 592.743C455.616 590.18 461.3 589.344 466.76 587.979C482.78 619.433 509.192 646.179 542.039 659.775C567.365 670.613 596.451 671.477 622.501 662.673C624.339 661.085 626.206 659.552 628.073 658.02C612.721 636.651 594.947 615.059 591.548 587.979C613.641 593.133 634.313 603.163 653.927 614.39C699.061 641.248 730.126 689.196 738.818 740.738C735.28 741.629 731.769 742.576 728.287 743.552C696.805 751.715 668.247 770.799 648.271 796.459C630.608 820.642 617.486 850.397 621.052 880.96C634.202 877.31 645.597 869.175 658.942 866.11C682.568 860.371 707.67 860.51 730.265 850.703C740.016 846.691 747.594 839.197 755.339 832.287C761.134 843.014 767.709 853.879 778.296 860.566C802.897 878.257 835.522 878.201 860.29 895.559C870.682 902.607 877.368 913.807 888.011 920.633C890.128 903.332 889.181 885.863 887.621 868.59C885.281 851.539 887.872 833.987 883.358 817.215C878.566 794.397 866.503 771.914 845.97 759.739C836.107 753.581 823.57 753.971 814.042 747.257C819.641 735.974 823.068 723.799 825.771 711.568C833.516 675.321 836.581 638.155 835.661 601.157C833.405 519.358 807.299 438.34 761.636 370.472C732.382 327.065 693.378 290.735 649.832 261.955C644.455 258.249 638.632 253.987 637.239 247.217C632.892 230.863 633.923 212.363 642.978 197.737C649.247 186.704 660.224 179.794 668.498 170.545C673.652 171.464 678.249 167.006 683.097 165.697C693.489 160.571 708.144 159.205 712.796 146.919C715.025 137.502 705.608 131.15 698.866 126.636C665.684 107.719 626.067 100.476 588.232 104.933Z"></path>
<path fill="#34455B" d="M588.232 104.933C626.067 100.476 665.684 107.719 698.866 126.636C705.609 131.15 715.025 137.502 712.797 146.919C708.144 159.205 693.489 160.571 683.097 165.697C678.249 167.006 673.652 171.464 668.498 170.545C667.161 170.182 664.431 169.43 663.065 169.068C676.076 160.041 692.235 157.199 704.996 147.838C705.497 146.724 706.528 144.523 707.029 143.436C696.832 131.791 681.899 126.33 667.718 121.287C629.131 107.803 584.917 107.301 547.556 124.909C527.134 134.103 510.111 148.953 493.59 163.747C489.829 164.276 486.068 164.666 482.307 165.084C509.972 134.521 546.72 110.366 588.232 104.933Z"></path>
<path fill="#CADDE2" d="M547.556 124.909C584.917 107.301 629.132 107.803 667.718 121.287C681.899 126.33 696.833 131.791 707.03 143.436C706.528 144.523 705.497 146.724 704.996 147.838C681.537 129.59 651.838 121.789 622.751 118.696C578.732 115.632 534.322 133.044 502.255 163.022C496.014 168.845 489.049 173.776 481.722 178.178C485.734 173.386 489.523 168.427 493.59 163.747C510.111 148.953 527.134 134.103 547.556 124.909Z"></path>
<path fill="#7695AA" d="M502.255 163.022C534.322 133.044 578.732 115.632 622.751 118.696C651.838 121.789 681.537 129.59 704.996 147.838C692.235 157.199 676.076 160.041 663.066 169.068C648.439 176.813 636.849 190.075 631.555 205.816C626.931 218.966 627.516 233.175 627.933 246.91C579.233 218.353 524.933 199.046 468.599 193.585C472.75 188.264 477.069 183.054 481.722 178.178C489.049 173.776 496.014 168.845 502.255 163.022Z"></path>
<path fill="#2A3D52" d="M482.306 165.084C486.068 164.666 489.829 164.276 493.59 163.747C489.522 168.427 485.733 173.386 481.721 178.178C477.069 183.054 472.75 188.264 468.599 193.585C524.933 199.046 579.233 218.353 627.933 246.91C627.515 233.175 626.93 218.966 631.555 205.816C636.849 190.075 648.439 176.813 663.065 169.068C664.431 169.43 667.161 170.182 668.498 170.545C660.224 179.794 649.247 186.704 642.978 197.737C633.923 212.363 632.893 230.863 637.239 247.217C638.632 253.987 644.455 258.25 649.832 261.955C693.378 290.735 732.382 327.065 761.636 370.472C807.299 438.34 833.405 519.358 835.661 601.157C836.581 638.155 833.516 675.321 825.771 711.568C823.068 723.799 819.642 735.974 814.042 747.257C812.927 749.486 811.813 751.743 810.643 753.999C807.355 760.045 803.12 765.478 798.83 770.855C804.82 754.974 812.175 739.484 815.518 722.768C819.558 707.974 823.375 692.985 823.793 677.606C827.442 637.793 829.894 597.479 824.183 557.722C810.559 462.857 767.041 370.305 694.13 306.727C619.993 239.054 520.141 197.653 419.119 201.135C360.027 202.556 300.712 220.972 253.265 256.773C221.95 280.12 196.681 312.466 185.007 350.05C174.894 379.693 174.225 411.427 176.342 442.408C177.345 451.072 177.15 460.433 182.054 468.039C198.631 462.913 215.932 458.511 233.345 461.826C222.563 463.776 211.865 466.089 201.417 469.376C180.828 475.896 160.518 487.291 148.315 505.651C142.576 514.148 142.018 524.68 142.464 534.654C140.43 526.713 138.87 518.69 137.533 510.666C143.188 494.813 156.617 483.279 170.547 474.642C170.157 460.155 169.907 445.639 167.956 431.291C164.836 386.101 174.225 338.989 200.052 301.238C227.076 261.453 268.171 233.259 312.051 214.926C358.439 196.121 409.173 190.298 458.876 193.335C466.565 183.806 474.311 174.334 482.306 165.084Z"></path>
<path fill="#D7E4E8" d="M253.265 256.773C300.712 220.972 360.027 202.556 419.119 201.136C520.141 197.653 619.993 239.054 694.13 306.727C767.041 370.305 810.559 462.857 824.183 557.722C829.894 597.479 827.442 637.793 823.793 677.606C819.391 654.147 822.483 630.271 820.812 606.617C818.443 561.037 811.367 515.04 793.564 472.72C778.798 429.731 755.897 389.779 727.34 354.508C698.03 319.32 661.979 290.178 623.086 266.218C590.517 246.047 555.05 230.528 518.024 220.694C456.285 204.618 389.559 205.259 329.157 226.656C286.475 242.982 244.907 267.248 217.882 305.083C196.959 332.386 185.731 366.014 181.97 399.976C180.076 422.627 181.998 445.361 182.054 468.039C177.15 460.433 177.345 451.072 176.342 442.408C174.225 411.427 174.894 379.694 185.007 350.05C196.681 312.466 221.95 280.12 253.265 256.773Z"></path>
<path fill="#9AB3C0" d="M329.157 226.656C389.559 205.259 456.285 204.618 518.024 220.694C555.05 230.528 590.517 246.047 623.086 266.218C661.979 290.178 698.03 319.32 727.34 354.508C755.897 389.779 778.798 429.731 793.564 472.72C778.213 464.222 765.509 451.964 751.216 441.934C672.705 385.488 578.481 346.261 480.579 347.347C445.308 346.121 410.51 352.279 375.768 357.294C356.154 359.968 341.388 375.459 321.858 378.44C297.313 382.675 272.796 387.355 248.139 391.033C226.129 394.487 203.729 394.961 181.97 399.976C185.732 366.014 196.959 332.386 217.883 305.083C244.907 267.248 286.475 242.982 329.157 226.656Z"></path>
<path fill="#8BA4B6" d="M375.768 357.293C410.51 352.279 445.308 346.121 480.579 347.347C578.481 346.261 672.705 385.488 751.216 441.934C765.509 451.963 778.213 464.222 793.564 472.72C811.367 515.04 818.444 561.037 820.812 606.617C822.483 630.271 819.391 654.147 823.793 677.606C823.375 692.985 819.558 707.974 815.518 722.768C810.587 700.953 818.249 678.887 814.877 656.961C809.779 617.928 791.307 581.654 768.378 550.116C741.577 512.56 703.575 484.254 662.62 463.776C614.449 441.683 561.542 429.313 508.44 430.372C479.131 429.592 450.016 433.13 420.93 436.417C424.162 413.126 415.581 387.55 395.744 373.954C377.718 362.42 353.173 367.295 337.348 380.557C317.846 400.951 311.243 433.631 323 459.569C317.958 464.919 312.72 470.045 307.343 475.032C305.894 480.743 304.529 486.483 302.829 492.138C301.381 485.842 302.161 477.456 295.613 473.89C276.891 462.857 254.352 463.386 233.345 461.826C215.932 458.511 198.631 462.913 182.054 468.039C181.998 445.361 180.076 422.626 181.97 399.976C203.729 394.961 226.129 394.487 248.139 391.033C272.796 387.355 297.313 382.674 321.858 378.44C341.388 375.459 356.154 359.968 375.768 357.293Z"></path>
<path fill="#030303" d="M337.348 380.557C353.173 367.295 377.718 362.42 395.744 373.954C415.581 387.55 424.162 413.126 420.93 436.417C417.559 448.871 411.485 461.046 400.508 468.485C407.028 455.14 415.33 441.572 414.355 426.137C413.993 405.269 400.62 384.235 380.337 377.799C368.691 374.093 356.767 378.607 345.846 382.535C343.032 381.839 340.19 381.17 337.348 380.557Z"></path>
<path fill="#465A75" d="M345.846 382.535C356.767 378.607 368.691 374.094 380.337 377.799C400.62 384.235 413.993 405.269 414.355 426.137C412.85 422.041 411.207 418.057 409.591 414.073C407.696 430.845 406.47 449.289 395.103 462.774C389.67 469.739 380.198 469.934 372.146 470.073C357.436 469.989 342.503 469.599 328.266 465.587C326.427 455.864 324.7 445.946 325.814 436.027C328.907 445.221 330.355 455.78 337.32 463.052C347.768 470.24 361.253 467.956 373.177 467.454C375.573 458.873 378.331 450.403 381.312 442.045C376.743 439.621 372.174 437.225 367.577 434.941C377.356 435.219 386.912 433.074 396.44 431.18C397.611 431.96 399.979 433.548 401.149 434.328C411.457 409.643 388.612 379.861 362.116 382.814C363.036 390.587 363.816 398.471 362.674 406.328C362.228 398.722 360.083 391.367 355.653 385.154C352.393 384.179 349.133 383.315 345.846 382.535Z"></path>
<path fill="#101217" d="M323 459.57C311.243 433.631 317.846 400.951 337.348 380.557C340.19 381.17 343.032 381.839 345.846 382.535C349.133 383.315 352.393 384.179 355.653 385.154C349.579 385.266 342.697 384.012 337.571 388.191C328.823 393.484 324.644 407.777 333.448 414.937C340.664 417.417 348.353 414.826 355.263 412.458C348.214 416.386 340.329 418.42 332.556 420.342C330.216 425.524 327.876 430.706 325.814 436.027C324.7 445.946 326.427 455.864 328.266 465.587C326.427 463.637 324.672 461.631 323 459.57Z"></path>
<path fill="#7493A7" d="M409.591 414.073C411.207 418.057 412.85 422.041 414.355 426.137C415.33 441.572 407.027 455.14 400.508 468.485C411.485 461.046 417.559 448.871 420.93 436.417C450.016 433.13 479.13 429.592 508.44 430.372C561.542 429.313 614.449 441.683 662.62 463.776C703.575 484.254 741.576 512.56 768.378 550.116C791.307 581.654 809.779 617.928 814.877 656.961C818.248 678.887 810.587 700.953 815.518 722.768C812.175 739.484 804.82 754.974 798.83 770.855C797.771 772.248 796.685 773.641 795.598 775.09C795.152 772.443 794.734 769.824 794.316 767.261C788.493 767.372 782.671 767.456 776.876 767.261C776.569 766.007 775.956 763.528 775.65 762.274C784.927 725.721 782.364 686.02 767.403 651.333C752.526 614.613 724.554 583.521 689.589 564.854C668.192 552.596 644.51 545.073 620.439 540.17C619.464 532.536 619.129 524.122 614.003 517.909C608.626 511.501 600.352 508.938 592.913 505.818C592.383 504.48 591.353 501.862 590.851 500.524C592.801 493.336 594.724 486.121 595.754 478.737C584.332 482.359 580.626 494.785 576.865 504.871C564.439 541.953 571.767 582.518 586.951 617.622C592.69 630.41 600.602 642.084 607.122 654.509C559.982 658.438 512.647 633.698 487.906 593.634C476.79 577.141 472.611 557.416 465.952 538.972C466.231 521.838 475.676 507.099 482.947 492.222C475.397 499.466 468.711 507.74 464.727 517.491C442.995 507.155 419.091 502.976 395.465 499.549C382.204 497.683 368.775 496.373 355.43 497.683C357.854 496.178 360.333 494.785 362.813 493.42C357.519 492.222 352.254 491.052 347.099 489.547C343.31 487.709 339.633 485.675 335.732 484.198C318.96 496.011 308.318 515.792 288.23 523.231C292.186 519.219 295.864 514.984 299.597 510.805C296.923 510.889 294.276 510.972 291.629 511.111C293.384 507.768 295.084 504.397 296.978 501.193C298.957 498.156 300.962 495.175 302.829 492.138C304.529 486.483 305.894 480.743 307.343 475.032C312.72 470.045 317.957 464.919 323 459.569C324.672 461.631 326.427 463.637 328.266 465.587C342.502 469.599 357.436 469.989 372.146 470.073C380.198 469.934 389.67 469.739 395.103 462.773C406.47 449.289 407.696 430.845 409.591 414.073Z"></path>
<path fill="#96AFBE" d="M233.345 461.826C254.352 463.386 276.891 462.857 295.613 473.89C302.161 477.456 301.38 485.842 302.829 492.138C300.963 495.175 298.957 498.156 296.978 501.193C267.418 523.231 229.64 530.085 193.477 528.775C178.46 528.051 164.056 523.426 149.68 519.414C158.762 493.531 185.341 482.359 207.379 469.934C205.902 469.794 202.894 469.516 201.417 469.376C211.865 466.089 222.563 463.776 233.345 461.826Z"></path>
<path fill="#BFD1D9" d="M576.865 504.871C580.626 494.785 584.332 482.36 595.754 478.738C578.732 503.701 574.748 535.406 578.286 564.827C580.793 584.803 585.78 604.807 595.838 622.442C603.026 635.787 613.613 646.904 620.94 660.193C601.522 661.085 581.629 663.787 562.517 658.689C531.425 650.637 504.344 630.243 485.65 604.416C472.082 585.611 463.64 562.375 465.952 538.972C472.611 557.416 476.79 577.141 487.906 593.634C512.647 633.698 559.982 658.438 607.121 654.51C600.602 642.084 592.69 630.41 586.95 617.622C571.766 582.518 564.439 541.953 576.865 504.871Z"></path>
<path fill="#2C3846" d="M595.755 478.738C594.724 486.121 592.801 493.337 590.851 500.525C587.174 513.396 586.449 526.797 585.892 540.087C596.535 538.805 607.4 537.858 618.043 539.836C614.672 540.393 611.329 541.089 607.985 541.897C600.407 543.903 592.941 546.244 585.418 548.445C586.198 558.642 586.505 569.061 589.375 578.98C597.621 583.577 606.982 585.527 615.731 588.87C645.318 599.29 671.786 616.954 695.272 637.459C704.522 648.408 713.27 659.775 721.991 671.142C733.943 696.495 745.393 723.13 746.229 751.576C745.867 768.988 741.186 786.958 730.265 800.861C727.368 803.229 724.387 805.541 721.433 807.882C734.054 790.246 740.657 768.766 738.985 747.034C737.843 746.616 735.559 745.809 734.416 745.391C732.884 744.945 729.819 744.025 728.287 743.552C731.77 742.577 735.28 741.629 738.818 740.738C730.126 689.196 699.061 641.248 653.927 614.39C634.314 603.163 613.641 593.133 591.548 587.979C594.947 615.059 612.722 636.651 628.073 658.02C626.206 659.552 624.34 661.085 622.501 662.673L620.941 660.193C613.613 646.904 603.026 635.787 595.838 622.442C585.781 604.807 580.794 584.803 578.286 564.827C574.748 535.406 578.732 503.701 595.755 478.738Z"></path>
<path fill="#6D8DA2" d="M288.23 523.231C308.318 515.792 318.96 496.011 335.732 484.198C339.633 485.675 343.311 487.709 347.1 489.547C345.985 489.241 343.756 488.656 342.642 488.349C344.174 490.996 345.707 493.671 347.267 496.373C313.5 535.796 261.038 553.822 210.472 557.025C192.557 557.527 173.25 557.471 157.37 548.082C158.484 548.472 160.713 549.197 161.827 549.587C158.874 545.185 155.781 540.922 152.856 536.548C167.427 538.025 181.608 542.287 196.263 542.65C227.857 543.123 259.59 536.576 288.23 523.231Z"></path>
<path fill="#25303E" d="M342.642 488.349C343.756 488.656 345.985 489.241 347.099 489.547C352.254 491.052 357.519 492.222 362.813 493.42C360.333 494.785 357.854 496.178 355.43 497.683C340.469 507.907 329.575 523.119 320.214 538.443C312.831 550.311 302.105 559.756 290.069 566.777C279.816 572.627 269.09 577.642 259.2 584.19C273.993 585.75 288.787 587.31 303.609 588.759C302.523 589.177 300.322 590.012 299.235 590.403C304.194 591.823 309.181 593.216 314.224 594.442C280.541 591.823 246.551 588.954 213.648 580.874C202.03 578.422 192.613 571.095 183.614 563.851C169.126 558.586 151.463 557.778 141.043 544.823C132.852 535.294 132.1 521.699 137.533 510.666C138.87 518.69 140.43 526.713 142.464 534.654C146.699 539.836 151.351 544.906 157.369 548.082C173.25 557.471 192.557 557.527 210.471 557.026C261.038 553.822 313.5 535.796 347.267 496.373C345.706 493.671 344.174 490.996 342.642 488.349ZM268.505 553.209C244.74 561.149 219.61 562.82 194.814 564.826C215.932 582.072 249.198 587.171 272.823 571.875C289.762 561.539 306.897 549.726 317.094 532.23C301.241 539.975 285.472 548.11 268.505 553.209Z"></path>
<path fill="#293345" d="M464.727 517.491C468.711 507.74 475.397 499.466 482.947 492.222C475.676 507.099 466.231 521.838 465.952 538.972C463.64 562.375 472.082 585.61 485.65 604.416C504.344 630.243 531.425 650.637 562.517 658.688C581.629 663.787 601.522 661.085 620.94 660.193L622.501 662.673C596.451 671.477 567.365 670.613 542.04 659.775C509.192 646.179 482.78 619.433 466.76 587.979C461.3 589.344 455.616 590.18 450.518 592.743C428.397 623.529 422.462 662.394 422.908 699.532C406.721 705.494 389.67 697.443 376.297 688.444C347.685 666.629 328.795 632.332 324.755 596.699C321.245 595.947 317.735 595.194 314.224 594.442C309.181 593.216 304.194 591.823 299.235 590.402C300.322 590.012 302.523 589.177 303.609 588.759C356.739 592.966 410.622 592.408 462.999 581.682C459.043 565.356 458.179 548.472 459.74 531.784C461.133 526.908 462.832 522.144 464.727 517.491ZM386.021 597.284C368.998 597.869 351.975 596.755 334.925 597.535C333.336 597.228 330.133 596.643 328.544 596.365C333.03 624.336 346.152 650.915 365.404 671.699C379.278 685.518 397.193 697.192 417.364 697.693C417.921 682.314 420.763 667.13 420.791 651.779C423.716 640.691 423.688 628.934 428.034 618.235C431.322 609.766 435.306 601.63 438.872 593.3C421.236 594.275 403.712 597.033 386.021 597.284Z"></path>
<path fill="#EEE2E1" d="M320.214 538.443C329.575 523.119 340.469 507.908 355.43 497.683C368.775 496.373 382.204 497.683 395.465 499.549C419.091 502.976 442.995 507.155 464.727 517.492C462.832 522.144 461.133 526.908 459.74 531.784C442.438 544.182 425.833 558.614 404.743 564.13C367.549 576.974 327.848 573.519 289.261 573.129C289.456 571.541 289.874 568.365 290.069 566.777C302.105 559.756 312.831 550.311 320.214 538.443Z"></path>
<path fill="#819FB1" d="M193.477 528.775C229.64 530.084 267.418 523.231 296.978 501.193C295.084 504.397 293.384 507.768 291.629 511.111C294.276 510.972 296.923 510.889 299.597 510.805C295.864 514.984 292.186 519.219 288.23 523.231C259.59 536.576 227.856 543.123 196.263 542.649C181.608 542.287 167.427 538.025 152.856 536.548C150.098 531.282 149.541 525.264 149.68 519.414C164.056 523.426 178.46 528.051 193.477 528.775Z"></path>
<path fill="#66869D" d="M585.892 540.086C586.449 526.797 587.173 513.396 590.851 500.525C591.353 501.862 592.383 504.481 592.913 505.818C600.352 508.938 608.626 511.502 614.003 517.909C619.129 524.122 619.464 532.536 620.439 540.17L618.043 539.836C607.4 537.858 596.535 538.805 585.892 540.086Z"></path>
<path fill="#BE586A" d="M268.505 553.209C285.472 548.11 301.241 539.975 317.094 532.23C306.897 549.726 289.763 561.539 272.823 571.875C249.198 587.171 215.932 582.072 194.814 564.826C219.61 562.82 244.74 561.149 268.505 553.209Z"></path>
<path fill="#D7C4CA" d="M404.743 564.13C425.833 558.614 442.438 544.182 459.74 531.784C458.179 548.472 459.043 565.356 462.999 581.682C410.621 592.408 356.739 592.966 303.609 588.759C288.787 587.31 273.994 585.75 259.2 584.19C269.09 577.642 279.816 572.627 290.069 566.777C289.874 568.365 289.456 571.541 289.261 573.129C327.848 573.519 367.549 576.974 404.743 564.13Z"></path>
<path fill="#D3C2C8" d="M585.418 548.445C592.941 546.244 600.407 543.903 607.985 541.897C606.982 543.43 606.007 544.962 605.004 546.55C630.19 563.517 650.863 585.945 672.287 607.202C681.426 616.09 688.641 626.649 695.272 637.459C671.786 616.953 645.318 599.29 615.73 588.87C606.982 585.527 597.621 583.577 589.374 578.98C586.505 569.061 586.198 558.641 585.418 548.445Z"></path>
<path fill="#7092A8" d="M386.021 597.284C403.712 597.033 421.236 594.275 438.872 593.3C435.306 601.63 431.322 609.766 428.034 618.235C423.688 628.934 423.716 640.691 420.791 651.779C420.094 647.6 419.314 643.477 418.478 639.409C412.85 656.153 411.931 673.901 410.176 691.369C369.304 678.275 344.23 637.487 334.924 597.535C351.975 596.755 368.998 597.869 386.021 597.284Z"></path>
<path fill="#9CB8C5" d="M328.544 596.364C330.132 596.643 333.336 597.228 334.924 597.535C344.23 637.487 369.304 678.274 410.176 691.369C411.931 673.9 412.85 656.153 418.478 639.409C419.314 643.477 420.094 647.6 420.79 651.779C420.763 667.13 417.921 682.314 417.364 697.693C397.193 697.192 379.278 685.518 365.404 671.699C346.152 650.915 333.03 624.336 328.544 596.364Z"></path>
<path fill="#CDBEC3" d="M721.99 671.142C740.936 684.042 752.414 704.825 759.602 726.083C764.45 740.961 764.143 756.897 768.462 771.914C766.651 774.198 764.868 776.511 763.085 778.851C756.287 787.07 749.015 794.982 741.381 802.421C739.069 803.173 736.784 803.925 734.5 804.622C733.441 803.675 731.324 801.808 730.265 800.861C741.186 786.958 745.867 768.988 746.229 751.575C745.393 723.13 733.943 696.495 721.99 671.142Z"></path>
<path fill="#445360" d="M648.272 796.459C668.248 770.799 696.805 751.715 728.287 743.552C729.819 744.025 732.884 744.945 734.416 745.391L734.611 747.201C677.302 760.63 628.63 811.643 625.816 871.626C626.736 871.264 628.546 870.512 629.466 870.15C646.516 863.909 663.874 858.142 681.955 855.69C703.463 852.096 727.005 849.059 743.75 833.708C753.445 825.016 752.108 810.835 753.194 799.05C749.238 800.108 745.282 801.195 741.381 802.421C749.015 794.982 756.287 787.07 763.085 778.851C762.138 781.693 761.302 784.59 760.717 787.571C755.228 808.801 759.491 833.597 775.984 848.976C792.673 864.996 816.243 869.203 837.138 877.143C850.121 881.879 862.519 888.426 873.273 897.175C876.923 901.131 880.322 905.282 883.888 909.377C883.916 902.942 883.749 896.534 883.275 890.154C879.486 864.104 882.523 837.219 875.028 811.699C869.651 791.973 857.838 773.251 839.924 762.803C831.037 757.454 820.728 755.504 810.643 753.999C811.813 751.743 812.927 749.486 814.042 747.257C823.57 753.972 836.107 753.581 845.97 759.739C866.503 771.914 878.567 794.397 883.359 817.215C887.872 833.987 885.281 851.539 887.621 868.59C889.182 885.863 890.129 903.332 888.011 920.633C877.369 913.807 870.682 902.607 860.29 895.559C835.522 878.201 802.897 878.257 778.297 860.566C767.71 853.879 761.135 843.014 755.34 832.287C747.594 839.197 740.016 846.691 730.265 850.703C707.67 860.51 682.568 860.371 658.942 866.11C645.597 869.175 634.202 877.31 621.052 880.96C617.486 850.397 630.608 820.642 648.272 796.459Z"></path>
<path fill="#8DA7B9" d="M734.416 745.39C735.559 745.808 737.843 746.616 738.985 747.034C740.657 768.765 734.054 790.246 721.433 807.882C724.387 805.541 727.368 803.229 730.265 800.861C731.324 801.808 733.441 803.674 734.5 804.622C733.469 810.89 731.937 817.939 725.724 821.115C699.507 837.72 667.356 838.472 637.49 842.317C643.898 824.904 652.144 807.714 665.127 794.174C684.518 774.365 708.227 758.652 734.834 750.433C734.779 749.625 734.667 748.009 734.611 747.201L734.416 745.39Z"></path>
<path fill="#8DA6B7" d="M798.83 770.855C803.12 765.478 807.355 760.045 810.643 753.999C823.291 763.472 838.949 768.877 849.536 780.968C861.655 794.007 869.54 810.668 872.242 828.22C876.756 851.901 870.682 877.003 880.377 899.766C881.102 897.37 882.551 892.577 883.275 890.154C883.749 896.534 883.916 902.942 883.888 909.377C880.322 905.282 876.923 901.131 873.273 897.175C872.521 891.045 874.025 883.356 868.397 879.121C842.766 857.975 808.247 852.013 782.086 831.758C768.406 821.366 759.658 805.012 760.717 787.571C761.302 784.59 762.137 781.693 763.085 778.851C764.868 776.511 766.651 774.198 768.462 771.914C770.886 768.71 773.309 765.534 775.65 762.274C775.956 763.528 776.569 766.007 776.876 767.261C782.671 767.456 788.493 767.372 794.316 767.261C794.734 769.824 795.152 772.443 795.598 775.09C796.684 773.641 797.771 772.248 798.83 770.855Z"></path>
<path fill="#CAD4DB" d="M810.643 753.999C820.728 755.504 831.036 757.454 839.924 762.803C857.838 773.251 869.651 791.973 875.028 811.698C882.523 837.219 879.486 864.104 883.275 890.154C882.551 892.577 881.102 897.37 880.377 899.766C870.682 877.003 876.756 851.901 872.242 828.22C869.54 810.668 861.655 794.007 849.536 780.968C838.949 768.877 823.291 763.472 810.643 753.999Z"></path>
<path fill="#6C8BA1" d="M775.984 848.976C759.491 833.597 755.228 808.801 760.717 787.571C759.658 805.012 768.406 821.366 782.086 831.758C808.247 852.013 842.766 857.975 868.397 879.121C874.025 883.356 872.521 891.045 873.273 897.175C862.519 888.426 850.121 881.879 837.138 877.143C816.243 869.203 792.673 864.996 775.984 848.976Z"></path>
<path fill="#6C8EA4" d="M741.381 802.421C745.282 801.195 749.238 800.108 753.194 799.05C752.108 810.835 753.445 825.016 743.749 833.708C727.005 849.059 703.463 852.096 681.955 855.69C663.873 858.142 646.516 863.909 629.466 870.15C631.973 860.816 634.146 851.4 637.489 842.317C667.356 838.472 699.507 837.72 725.724 821.115C731.937 817.939 733.469 810.89 734.5 804.622C736.784 803.925 739.069 803.173 741.381 802.421Z"></path>
</svg>
