<svg xmlns="http://www.w3.org/2000/svg" fill="none" viewBox="0 0 1024 1024" height="1024" width="1024">
<rect fill="white" height="1024" width="1024"></rect>
<path fill="#FDFDFD" d="M290.523 293.065C344.681 249.102 410.679 216.979 481.041 212.329C534.412 207.464 588.927 215.978 638.077 237.512C675.53 253.645 710.121 276.109 741.385 302.187C747.717 307.266 754.692 311.523 761.811 315.458C771.97 302.58 782.379 288.844 797.618 281.582C819.796 270.708 847.948 271.674 868.409 286.018C883.219 296.463 888.298 316.03 903.894 325.653C918.024 334.846 935.051 341.857 943.815 357.203C957.265 380.812 953.116 411.218 938.807 433.468C924.928 455.539 900.925 467.915 876.923 475.928C887.583 485.086 899.602 494.78 902.464 509.41C909.689 534.844 898.564 561.279 882.181 580.631C866.585 597.694 863.187 622.054 847.554 639.046C839.577 648.811 828.667 655.93 821.441 666.339C825.305 692.917 840.507 719.961 830.527 747.004C823.659 766.785 802.59 776.014 783.309 778.769C732.657 786.889 676.639 783.634 633.212 753.622C625.557 749.293 618.224 740.708 608.566 743.605C576.05 750.581 543.283 758.272 509.837 758.057C495.707 758.558 481.399 756.877 467.484 759.595C453.712 766.571 444.483 780.021 430.854 787.318C400.555 804.202 365.607 813.61 330.801 811.857C295.602 812.143 257.541 795.581 241.552 762.743C233.324 747.397 233.789 729.655 233.145 712.77C233.36 704.579 226.313 698.999 220.912 693.919C214.115 686.979 203.741 689.483 195.085 688.911C167.326 689.519 138.458 683.259 115.815 666.554C98.3945 653.605 89.0583 630.818 92.6712 609.355C93.494 598.159 99.4678 586.032 92.707 575.551C80.7236 552.729 71.101 527.618 72.0669 501.433C72.6392 486.552 79.1138 472.959 85.0161 459.617C93.172 441.588 96.0695 421.735 104.261 403.706C119.786 368.435 144.683 335.204 180.597 318.928C206.138 306.229 235.256 306.336 263.086 307.051C274.318 308.16 282.331 299.253 290.523 293.065ZM434.538 255.863C380.058 270.171 332.769 303.188 292.025 341.142C286.552 347.795 277.573 345.434 270.205 345.148C246.059 341.392 221.162 344.182 197.839 351.014C185.712 357.239 172.584 362.962 164.285 374.302C157.06 382.708 157.024 394.691 150.656 403.563C140.605 417.657 132.449 434.004 131.376 451.532C130.088 456.147 129.015 460.833 128.013 465.554C120.43 473.782 111.952 482.045 108.768 493.17C102.401 518.675 113.24 546.505 132.521 563.675C132.807 568.683 137.564 572.082 140.032 576.231C133.272 588.536 125.617 601.522 125.867 616.045C127.584 625.703 133.129 636.542 142.787 640.155C169.115 659.078 204.85 656.717 235.041 650.421C244.449 666.876 260.01 678.108 276.679 686.407C271.421 703.47 264.696 722.25 271.886 739.814C277.216 758.129 294.636 769.862 312.665 773.475C347.041 779.949 383.099 772.509 413.862 756.34C431.533 747.182 445.162 732.48 459.685 719.245C468.736 722.822 478.465 724.718 488.231 724.003C515.846 722.071 543.712 721.678 570.863 715.74C589.929 712.592 607.851 705.08 626.559 700.573C648.952 729.297 685.331 743.748 720.852 746.503C746.25 747.254 772.828 748.327 796.795 738.419C801.624 706.403 784.024 677.321 767.498 651.494C790.034 640.262 814.323 627.706 827.129 604.92C832.638 595.905 829.955 583.35 838.361 576.017C852.205 561.136 870.412 543.608 865.476 521.179C859.216 508.587 843.87 507.049 833.21 500.181C827.272 491.846 822.872 482.546 816.97 474.211C815.897 468.38 812.606 463.373 809.494 458.508C806.31 451.89 804.021 444.986 802.232 437.975C825.162 439.692 848.341 441.409 871.235 438.225C888.835 435.363 906.935 425.204 912.945 407.498C917.13 396.337 918.31 380.204 906.398 373.372C891.446 363.749 880.429 347.187 861.362 345.47C855.675 333.451 852.419 318.212 839.756 311.487C819.081 302.616 794.971 322.147 793.754 342.859C783.059 366.217 796.366 393.404 787.244 416.727C744.998 346.186 678.714 288.808 600.875 261.3C547.612 242.949 488.839 240.803 434.538 255.863Z"></path>
<path fill="#C0C5D3" d="M190.792 438.798C193.475 438.798 198.805 438.833 201.488 438.833C201.559 442.339 206.174 452.033 198.948 450.674C193.081 451.282 193.547 442.375 190.792 438.798Z"></path>
<path fill="#F4E8A1" d="M133.486 468.059C146.972 466.807 160.637 466.663 174.123 468.631C178.165 470.24 182.243 471.886 186.321 473.603C184.997 473.853 182.314 474.354 180.955 474.605C186.428 476.214 191.901 477.896 197.41 479.541C197.481 481.509 197.625 485.443 197.696 487.411C196.265 485.014 194.87 482.653 193.439 480.292C189.683 486.838 185.927 493.385 181.957 499.824C170.402 497.963 158.705 497.606 147.044 498.321C155.844 503.651 164.965 508.444 174.158 513.095C180.311 531.803 187.716 551.871 203.634 564.534C224.596 578.842 253.535 576.016 274.462 562.96C292.705 551.871 303.114 532.59 315.777 516.171C326.294 521.716 336.954 527.046 348.043 531.374C339.673 526.294 331.123 521.537 322.753 516.529C324.971 514.418 327.224 512.308 329.549 510.233C320.392 508.874 311.091 507.657 302.506 504.152C299.859 498.5 298.428 492.383 296.711 486.445C323.611 484.8 350.333 488.413 377.197 488.484C384.78 488.699 392.328 489.736 399.733 491.489C406.458 493.313 413.255 494.959 420.015 496.854C423.235 502.9 427.241 509.196 426.383 516.421C420.015 533.878 410.929 551.442 394.761 561.744C356.485 588.858 308.266 592.221 263.301 598.696C240.05 602.165 216.261 596.907 193.225 602.595C169.938 592.257 149.941 576.16 132.378 557.952C122.29 541.39 110.986 523.683 113.276 503.365C112.417 488.556 120.823 475.249 133.486 468.059ZM127.692 477.037C125.76 482.832 127.763 484.8 133.63 482.904C135.49 477.073 133.486 475.106 127.692 477.037Z"></path>
<path fill="#242E21" d="M434.538 255.862C488.839 240.803 547.612 242.949 600.875 261.3C601.09 262.945 601.555 266.272 601.77 267.953C602.02 268.633 602.485 269.992 602.735 270.672C604.488 273.963 606.348 277.254 608.316 280.509C621.551 303.653 634.214 327.262 644.266 351.98C646.555 360.315 648.272 368.793 650.097 377.306C672.454 376.555 693.845 369.472 713.519 359.063C709.906 363.641 706.365 368.292 702.609 372.763C700.785 373.908 697.136 376.197 695.312 377.342C698.603 381.384 702.001 385.462 705.22 389.683C726.755 421.054 741.922 456.039 760.237 489.235C773.723 478.503 790.213 469.632 798.154 453.607C795.293 446.953 792.181 440.443 788.675 434.111C791.465 427.028 794.22 419.91 796.902 412.756C794.434 415.617 792.037 418.479 789.677 421.412C788.818 419.803 788.031 418.264 787.244 416.726C796.366 393.403 783.059 366.217 793.755 342.858C794.005 344.611 794.506 348.188 794.756 349.941C795.865 373.407 797.94 396.873 801.982 420.053C804.307 423.845 806.883 427.494 809.673 431.035C807.169 433.324 804.665 435.613 802.232 437.974C804.021 444.986 806.31 451.89 809.494 458.507C808.171 459.867 805.523 462.657 804.2 464.052C791.751 476.321 778.122 487.267 764.35 497.927C765.602 501.612 766.89 505.332 768.214 509.052C771.827 519.569 775.404 530.121 779.017 540.674C795.901 533.556 816.505 526.509 824.124 508.265C822.694 496.711 819.081 485.622 816.97 474.211C822.872 482.545 827.272 491.846 833.21 500.181C843.87 507.049 859.216 508.587 865.476 521.179C870.413 543.607 852.205 561.135 838.361 576.016C829.955 583.349 832.638 595.905 827.129 604.919C814.323 627.706 790.034 640.261 767.498 651.494C784.025 677.321 801.624 706.403 796.795 738.418C772.828 748.327 746.25 747.254 720.852 746.502C685.331 743.748 648.952 729.297 626.559 700.572C624.806 698.426 623.161 696.315 621.551 694.169C616.722 687.265 612.465 680.004 608.852 672.492C607.028 668.521 605.311 664.586 603.63 660.687C566.427 658.863 529.154 656.788 492.667 648.99C487.516 662.655 482.186 676.212 475.997 689.411C471.597 698.712 467.055 707.941 462.118 716.991L459.686 719.245C445.162 732.48 431.534 747.182 413.862 756.34C383.099 772.508 347.042 779.949 312.665 773.474C294.637 769.861 277.216 758.128 271.886 739.813C264.696 722.249 271.421 703.47 276.679 686.407C260.01 678.108 244.449 666.875 235.041 650.421C204.85 656.716 169.115 659.077 142.787 640.154C170.581 644.483 199.091 651.744 227.207 645.592C236.902 643.91 241.194 633.966 246.703 627.026C237.259 624.379 227.78 622.018 218.3 619.657C213.722 618.441 209.215 617.189 204.707 615.866C206.854 614.9 211.146 612.968 213.328 611.966C233.754 618.978 255.395 621.16 276.572 624.951C300.575 628.421 326.902 632.392 349.295 620.48C370.186 609.391 390.182 596.12 407.352 579.736C407.495 581.06 407.853 583.743 408.032 585.066C408.211 586.426 408.604 589.18 408.783 590.539C412.289 593.043 415.758 595.583 419.3 598.159C440.226 614.113 463.191 627.527 488.446 635.254C498.426 619.872 508.013 604.204 516.634 588.035C517.671 586.068 519.746 582.169 520.783 580.237C492.917 569.47 466.16 556.199 440.691 540.638C439.117 539.744 436.005 537.955 434.431 537.097C433.072 532.625 431.712 528.19 430.425 523.79C434.324 526.044 438.259 528.333 442.193 530.694C468.485 547.471 496.459 561.994 526.435 570.865C558.987 580.094 593.184 579.307 626.702 579.665C625.915 560.563 625.021 541.461 623.018 522.431C576.336 515.67 528.724 509.696 485.155 490.487C467.663 483.297 452.066 472.494 436.506 461.941C433.143 459.759 429.745 457.649 426.382 455.61C424.344 448.312 421.84 441.158 419.336 434.075C420.266 432.072 422.197 428.102 423.127 426.098C426.597 436.186 431.712 445.808 439.403 453.392C483.187 486.588 538.097 501.576 591.861 508.623C591.968 493.957 591.217 479.29 589.106 464.767C586.03 434.862 583.025 404.922 583.276 374.838C554.694 364.536 525.863 355.056 496.709 346.507C484.189 342.644 471.132 341.249 458.076 341.213C442.408 359.206 430.997 380.812 412.682 396.408C420.444 369.222 451.244 353.983 454.499 325.116C450.135 315.243 444.733 305.906 439.189 296.677C433.286 286.339 426.883 276.324 420.623 266.236C374.013 282.798 331.266 310.736 297.212 346.614C298.929 346.972 302.292 347.723 303.973 348.081C320.821 352.624 338.099 355.199 355.555 355.521C371.402 360.601 387.857 370.724 390.11 388.789C380.345 380.239 369.721 372.513 357.594 367.719C318.639 351.873 276 347.902 234.29 349.44C224.846 349.762 215.689 352.302 206.532 354.412C204.993 354.484 201.881 354.627 200.307 354.734C199.699 353.804 198.447 351.944 197.839 351.014C221.162 344.182 246.059 341.392 270.205 345.148C277.574 345.434 286.552 347.795 292.025 341.141C332.769 303.188 380.059 270.171 434.538 255.862ZM427.885 265.234C429.423 266.558 432.499 269.205 434.038 270.493C444.125 288.951 454.105 307.516 462.798 326.725L460.258 328.693C500.215 338.601 539.706 350.513 578.232 365.215C599.015 373.443 621.086 378.594 643.586 377.628C643.3 375.088 642.764 370.045 642.477 367.541L640.581 366.646C638.328 361.03 637.147 354.699 632.783 350.334C626.702 326.618 613.181 305.871 601.805 284.515C596.261 275.966 591.861 264.805 581.38 261.443C553.693 252.428 524.146 251.284 495.242 252.035C472.349 253.108 448.883 255.397 427.885 265.234ZM593.149 382.636C598.157 425.168 596.905 468.344 603.522 510.626L602.378 512.379C653.137 514.668 707.08 516.6 753.905 493.635C750.972 489.128 748.039 484.692 744.962 480.399C731.226 446.595 712.267 414.687 691.126 384.926C671.416 385.605 651.742 386.285 632.032 386.285C619.19 383.96 606.169 382.421 593.149 382.636ZM730.153 510.805C697.458 520.893 662.831 521.894 628.884 520.821C628.634 525.006 628.455 529.227 628.419 533.484H631.424C630.637 548.937 631.317 564.426 632.283 579.915C674.564 577.232 717.74 571.151 755.837 551.513C761.024 548.115 769.287 546.827 771.576 540.531C770.253 529.513 765.71 519.283 762.025 508.981C761.381 507.335 760.058 504.116 759.378 502.506C749.076 502.9 739.847 507.943 730.153 510.805ZM833.354 513.881C821.37 521.823 811.604 532.661 801.374 542.677C802.841 542.892 805.738 543.321 807.169 543.5C814.037 554.088 821.549 564.247 828.882 574.55C845.194 560.813 855.317 541.676 861.577 521.572L858.036 521.822C851.883 515.133 842.332 510.626 833.354 513.881ZM745.499 566.68C752.546 581.31 760.058 595.726 767.248 610.285C786.886 603.524 806.096 594.617 821.191 579.987C814.395 567.002 807.383 551.441 792.324 546.576C774.974 547.864 760.559 559.025 745.499 566.68ZM721.461 573.798C696.313 582.777 669.771 586.032 643.443 589.502C638.328 589.287 636.396 594.26 633.749 597.658L637.756 597.407C639.115 612.181 641.118 626.991 645.554 641.192C645.232 642.766 644.552 645.949 644.23 647.523C684.115 643.195 721.639 628.028 758.591 613.183C757.447 608.64 756.409 604.168 755.372 599.661C750.507 591.29 745.749 582.884 741.242 574.335C734.875 570.937 727.971 570.901 721.461 573.798ZM528.474 581.275C526.471 584.601 524.503 587.964 522.572 591.362C514.309 604.705 506.51 618.334 499.499 632.392C498.319 635.254 497.103 638.079 495.922 641.013C541.209 652.281 588.427 652.961 634.822 650.778C635.967 646.092 637.147 641.442 638.328 636.792L635.86 637.221C634.071 621.017 629.922 605.241 625.45 589.573C593.006 588.751 560.382 587.606 528.474 581.275ZM750.221 627.062C754.943 634.037 758.305 650.993 769.823 644.518C793.898 633.751 820.977 617.511 826.02 589.287C802.626 605.528 776.334 616.08 750.221 627.062ZM400.412 593.938L398.91 596.799C392.114 600.663 384.28 603.918 380.202 611.001C350.69 625.56 319.068 639.01 296.747 664.085C279.72 683.08 269.489 710.624 277.609 735.807C278.432 740.636 280.399 745.179 282.116 749.794C289.7 756.268 297.677 762.922 307.729 765.032C348.258 774.19 392.507 764.567 425.882 739.885C457.003 717.742 473.601 681.148 484.261 645.592C453.032 634.073 426.633 613.791 400.412 593.938ZM657.108 655.607C642.191 656.037 627.525 658.791 613.109 662.297C622.732 687.48 639.902 710.66 664.513 722.715C699.354 740.958 739.811 741.459 778.087 738.168C785.241 738.061 790.464 732.838 795.543 728.474C793.719 724.181 791.894 719.889 790.07 715.668C791.25 705.795 785.706 696.566 781.95 687.766C771.29 667.627 759.021 647.917 742.709 631.819C742.745 630.639 742.78 628.314 742.816 627.133C715.344 639.868 686.083 647.416 657.108 655.607ZM251.818 628.672C260.725 644.161 278.861 649.133 295.173 652.495C277.466 653.533 262.872 641.871 248.062 634.037C246.453 641.371 240.872 649.956 246.56 657.003C254.429 668.7 267.343 675.532 279.756 681.47C289.879 661.939 306.799 647.988 323.182 634.002C299.287 633.215 275.749 626.74 251.818 628.672Z"></path>
<path fill="#99B883" d="M427.885 265.234C448.883 255.397 472.349 253.108 495.242 252.035C524.146 251.283 553.693 252.428 581.38 261.443C591.861 264.805 596.261 275.966 601.805 284.515C613.18 305.871 626.702 326.618 632.783 350.334C610.569 328.013 604.596 294.245 581.881 272.21C575.263 266.88 566.606 265.342 558.522 263.696C529.69 258.831 499.893 257.436 471.061 263.231C458.684 265.52 446.558 269.241 434.038 270.493C432.499 269.205 429.423 266.558 427.885 265.234Z"></path>
<path fill="#75A065" d="M471.061 263.231C499.893 257.436 529.69 258.831 558.522 263.696C566.607 265.342 575.263 266.88 581.881 272.21C604.596 294.245 610.57 328.013 632.784 350.334C637.148 354.699 638.328 361.03 640.582 366.646C624.377 358.669 608.101 350.692 590.752 345.505C554.909 334.309 518.959 321.038 481.113 318.927C473.887 317.818 468.056 322.54 462.798 326.725C454.106 307.516 444.125 288.951 434.038 270.493C446.558 269.241 458.684 265.521 471.061 263.231Z"></path>
<path fill="#537C51" d="M600.875 261.3C678.714 288.808 744.998 346.185 787.244 416.726C788.031 418.264 788.818 419.803 789.676 421.412C792.037 418.479 794.434 415.617 796.902 412.755C794.219 419.91 791.465 427.028 788.675 434.111C770.61 404.85 751.937 375.267 726.361 351.873C725.789 353.411 724.644 356.451 724.036 357.989C717.418 363.641 710.014 368.22 702.609 372.763C706.365 368.292 709.906 363.641 713.519 359.063C693.845 369.472 672.453 376.555 650.096 377.306C648.272 368.793 646.555 360.315 644.266 351.98C668.233 352.982 694.31 364.249 716.095 349.047C717.382 348.439 719.958 347.222 721.246 346.65C687.978 313.383 648.308 284.122 602.735 270.672C602.485 269.992 602.02 268.633 601.769 267.953C601.555 266.272 601.09 262.945 600.875 261.3Z"></path>
<path fill="#73472D" d="M128.013 465.554C129.015 460.832 130.088 456.146 131.376 451.532C131.877 457.041 132.664 462.549 133.486 468.058C120.823 475.248 112.417 488.555 113.276 503.365C110.986 523.683 122.29 541.39 132.377 557.952C132.413 559.383 132.485 562.244 132.521 563.675C113.24 546.505 102.401 518.675 108.768 493.17C111.952 482.045 120.43 473.782 128.013 465.554Z"></path>
<path fill="#B2D09B" d="M297.212 346.615C331.267 310.736 374.013 282.798 420.624 266.236C426.884 276.324 433.287 286.34 439.189 296.678C440.012 301.829 440.62 307.016 441.335 312.202C433 301.543 425.953 289.595 415.401 280.938C405.242 279.364 395.619 284.587 386.712 288.736C356.664 304.726 328.655 324.615 303.973 348.081C302.292 347.724 298.929 346.972 297.212 346.615Z"></path>
<path fill="#95B77F" d="M602.735 270.672C648.308 284.122 687.979 313.383 721.246 346.65C719.958 347.223 717.383 348.439 716.095 349.047C683.543 321.574 649.024 294.567 608.316 280.509C606.348 277.254 604.488 273.963 602.735 270.672Z"></path>
<path fill="#6A9560" d="M386.712 288.737C395.619 284.587 405.242 279.364 415.401 280.938C425.953 289.595 433 301.543 441.335 312.203C440.62 307.016 440.012 301.829 439.189 296.678C444.733 305.907 450.135 315.243 454.499 325.116C437.329 340.963 425.167 361.174 409.678 378.558C393.902 366.325 376.875 352.946 355.555 355.522C338.099 355.2 320.821 352.624 303.973 348.081C328.655 324.615 356.664 304.726 386.712 288.737Z"></path>
<path fill="#68945F" d="M608.316 280.509C649.024 294.567 683.543 321.575 716.095 349.047C694.31 364.25 668.233 352.982 644.266 351.98C634.214 327.262 621.551 303.653 608.316 280.509Z"></path>
<path fill="#2D3E2A" d="M793.754 342.859C794.971 322.147 819.08 302.616 839.756 311.487C852.419 318.212 855.675 333.451 861.362 345.47C880.429 347.187 891.446 363.749 906.398 373.372C918.31 380.204 917.13 396.337 912.945 407.498C906.935 425.205 888.835 435.364 871.235 438.225C848.341 441.409 825.162 439.692 802.232 437.975C804.665 435.614 807.169 433.325 809.673 431.035C834.677 431.214 861.684 434.899 884.685 422.629C895.273 417.478 903.215 408.356 909.117 398.34C908.115 378.559 889.336 368.113 875.599 357.024C865.404 348.797 853.457 359.349 845.086 365.323C843.083 353.697 840.937 342.108 838.111 330.696C842.368 337.815 847.233 344.612 852.741 350.836C852.384 336.849 848.199 322.505 836.322 314.027C815.897 312.847 802.375 329.123 796.258 346.722L794.756 349.941C794.505 348.189 794.005 344.612 793.754 342.859Z"></path>
<path fill="#A2C191" d="M796.258 346.722C802.375 329.122 815.897 312.846 836.322 314.027C827.844 321.861 818.007 328.514 811.497 338.208C805.022 350.084 803.591 363.856 800.586 376.877C799.12 366.825 797.51 356.774 796.258 346.722Z"></path>
<path fill="#6B9A61" d="M836.322 314.027C848.198 322.504 852.384 336.849 852.741 350.835C847.233 344.611 842.368 337.814 838.111 330.696C840.937 342.107 843.083 353.697 845.086 365.323C839.828 370.474 834.963 375.983 830.062 381.42C836.537 383.745 843.047 386.034 849.593 388.324C832.495 396.909 817.149 408.463 801.982 420.053C797.94 396.873 795.865 373.407 794.756 349.941L796.258 346.722C797.51 356.773 799.12 366.825 800.587 376.877C803.591 363.856 805.022 350.084 811.497 338.208C818.007 328.514 827.845 321.861 836.322 314.027Z"></path>
<path fill="#548058" d="M462.798 326.726C468.056 322.54 473.887 317.819 481.112 318.928C518.959 321.038 554.909 334.309 590.752 345.506C608.101 350.693 624.377 358.67 640.581 366.647L642.477 367.541C642.764 370.045 643.3 375.089 643.586 377.628C621.086 378.594 599.015 373.443 578.232 365.216C539.706 350.514 500.215 338.602 460.258 328.693L462.798 326.726Z"></path>
<path fill="#456542" d="M454.499 325.116C451.244 353.983 420.444 369.222 412.682 396.408C415.794 406.424 419.586 416.225 423.127 426.098C422.197 428.102 420.266 432.072 419.336 434.075C412.146 418.872 410.786 395.049 390.933 391.221L390.11 388.789C387.857 370.724 371.402 360.601 355.555 355.521C376.875 352.946 393.902 366.324 409.677 378.558C425.166 361.173 437.328 340.962 454.499 325.116Z"></path>
<path fill="#6E9A62" d="M412.682 396.408C430.997 380.812 442.408 359.206 458.076 341.213C467.77 347.115 478.036 351.944 488.481 356.38C472.241 377.807 452.209 396.408 439.045 420.089C460.723 401.702 475.675 377.127 495.206 356.738C519.423 363.427 544.07 369.401 567.071 379.739C574.69 382.064 573.474 391.507 574.941 397.767C577.337 426.849 578.661 456.254 586.566 484.549L587.032 487.446C563.494 482.653 539.778 477.967 517.492 468.774C492.345 459.08 469.594 444.342 445.019 433.503C443.195 440.121 441.37 446.774 439.403 453.392C431.712 445.808 426.597 436.186 423.127 426.098C419.586 416.226 415.794 406.424 412.682 396.408Z"></path>
<path fill="#9BC680" d="M458.076 341.213C471.132 341.249 484.189 342.644 496.709 346.507C525.863 355.056 554.694 364.536 583.275 374.838C583.025 404.922 586.03 434.862 589.106 464.767C588.319 471.349 587.282 477.895 586.567 484.549C578.661 456.254 577.338 426.849 574.941 397.767C573.474 391.507 574.69 382.064 567.071 379.739C544.07 369.401 519.424 363.427 495.206 356.738C475.675 377.127 460.723 401.702 439.045 420.089C452.209 396.408 472.241 377.807 488.481 356.38C478.036 351.944 467.77 347.115 458.076 341.213Z"></path>
<path fill="#2A221E" d="M164.285 374.301C172.584 362.962 185.712 357.238 197.839 351.014C198.447 351.944 199.699 353.804 200.307 354.734C203.777 360.207 207.247 365.752 210.717 371.297C204.349 370.045 198.089 368.113 191.615 368.041C177.485 370.474 168.185 382.422 159.564 392.795C173.658 392.759 195.55 385.927 201.309 404.099C201.452 405.136 201.81 407.282 201.989 408.32C193.189 398.948 180.311 390.327 167.362 397.302C145.684 411.861 138.208 439.369 135.168 463.944C141.571 464.052 148.045 464.052 154.484 464.409C159.385 464.946 164.25 465.697 169.115 466.77C170.367 467.235 172.87 468.165 174.122 468.63C160.637 466.663 146.972 466.806 133.486 468.058C132.664 462.549 131.877 457.041 131.376 451.532C132.449 434.004 140.605 417.656 150.656 403.562C157.024 394.691 157.06 382.708 164.285 374.301Z"></path>
<path fill="#FAF8BB" d="M206.532 354.412C215.689 352.302 224.847 349.762 234.29 349.44C276 347.902 318.639 351.873 357.594 367.719C357.63 369.902 357.737 374.266 357.773 376.448C339.136 371.654 320.821 365.573 301.791 362.425C270.276 356.988 238.082 359.385 206.532 354.412Z"></path>
<path fill="#89B279" d="M726.361 351.873C751.938 375.267 770.61 404.85 788.675 434.111C792.181 440.443 795.293 446.953 798.154 453.606C789.963 448.527 783.488 441.301 778.373 433.217C764.207 405.387 743.245 382.242 724.036 357.989C724.644 356.451 725.789 353.411 726.361 351.873Z"></path>
<path fill="#EEE491" d="M200.308 354.735C201.881 354.628 204.994 354.484 206.532 354.413C238.082 359.385 270.276 356.988 301.791 362.426C320.821 365.573 339.136 371.655 357.773 376.448C357.737 374.266 357.63 369.902 357.594 367.72C369.721 372.513 380.345 380.24 390.11 388.789L390.933 391.222C378.413 387.716 364.856 384.676 352.264 389.433C342.642 394.119 335.201 402.132 330.444 411.611C326.402 418.837 322.932 426.385 320.177 434.183C313.882 450.065 314.669 467.415 316.779 484.048C308.945 484.656 301.147 485.551 293.349 486.481C288.806 486.624 284.263 486.803 279.792 486.982C276.608 482.939 273.496 478.897 270.241 475.034C246.667 466.699 219.803 468.488 197.41 479.541C191.901 477.896 186.428 476.215 180.955 474.605C182.315 474.354 184.997 473.854 186.321 473.603C192.903 472.351 201.452 471.779 203.599 464.016C209.429 444.664 208.463 422.987 201.309 404.099C195.55 385.927 173.658 392.76 159.564 392.796C168.185 382.422 177.485 370.474 191.615 368.042C198.09 368.113 204.35 370.045 210.717 371.297C207.247 365.752 203.777 360.208 200.308 354.735Z"></path>
<path fill="#76A56D" d="M845.087 365.323C853.457 359.349 865.405 348.797 875.6 357.024C889.336 368.113 908.116 378.559 909.117 398.34C907.365 398.519 903.823 398.877 902.035 399.056C898.315 392.331 895.56 384.711 889.765 379.489C875.957 376.233 862.15 383.316 849.594 388.324C843.048 386.035 836.537 383.745 830.063 381.42C834.963 375.983 839.828 370.474 845.087 365.323Z"></path>
<path fill="#5E8E5B" d="M702.609 372.763C710.014 368.22 717.418 363.642 724.036 357.99C743.245 382.243 764.207 405.387 778.373 433.217C770.539 424.632 759.736 420.017 748.503 417.943C729.258 416.154 725.109 389.969 705.22 389.683C702.001 385.462 698.602 381.384 695.311 377.342C697.136 376.198 700.785 373.908 702.609 372.763Z"></path>
<path fill="#53814F" d="M849.593 388.324C862.149 383.316 875.957 376.233 889.765 379.488C895.56 384.711 898.314 392.33 902.034 399.055C903.823 398.877 907.364 398.519 909.117 398.34C903.215 408.356 895.273 417.478 884.685 422.629C861.684 434.898 834.677 431.214 809.673 431.035C806.882 427.494 804.307 423.845 801.982 420.053C817.149 408.463 832.495 396.909 849.593 388.324Z"></path>
<path fill="#87B172" d="M593.149 382.636C606.17 382.422 619.19 383.96 632.032 386.285C620.979 386.678 609.961 387.394 598.944 388.252C602.271 389.433 605.633 390.649 609.067 391.722C603.558 425.955 612.358 460.332 613.825 494.565C610.391 499.93 606.957 505.261 603.523 510.626C596.905 468.344 598.157 425.168 593.149 382.636Z"></path>
<path fill="#A2C986" d="M632.032 386.285C651.742 386.285 671.416 385.605 691.127 384.926C712.267 414.687 731.226 446.596 744.962 480.399C745.284 482.76 745.964 487.554 746.322 489.95C743.031 487.768 739.776 485.658 736.556 483.547C726.755 457.434 714.521 432.144 699.533 408.606C695.026 402.561 690.161 394.047 681.432 394.799C657.287 394.369 632.712 398.554 609.067 391.722C605.633 390.649 602.27 389.433 598.944 388.252C609.961 387.394 620.979 386.678 632.032 386.285Z"></path>
<path fill="#DDCB7D" d="M352.264 389.433C364.856 384.675 378.413 387.716 390.933 391.221C410.786 395.049 412.146 418.872 419.336 434.075C421.84 441.158 424.344 448.312 426.383 455.61C430.103 470.562 432.249 485.872 433.358 501.29C428.851 499.752 424.487 498.213 420.015 496.854C413.255 494.958 406.458 493.313 399.733 491.488C396.013 489.342 392.364 487.16 388.787 484.942C391.863 472.744 395.727 460.546 396.227 447.919C396.048 435.256 392.507 422.986 389.681 410.752C392.901 410.609 399.304 410.323 402.523 410.18C387.07 400.629 371.724 387.501 352.264 389.433Z"></path>
<path fill="#517F50" d="M705.22 389.683C725.109 389.969 729.258 416.154 748.503 417.942C759.736 420.017 770.539 424.632 778.373 433.217C783.488 441.301 789.963 448.527 798.154 453.607C790.213 469.632 773.722 478.503 760.237 489.235C741.922 456.039 726.755 421.054 705.22 389.683Z"></path>
<path fill="#27201D" d="M330.443 411.611C335.201 402.132 342.642 394.119 352.264 389.433C371.724 387.501 387.07 400.63 402.523 410.18C399.303 410.324 392.9 410.61 389.681 410.753C392.507 422.987 396.048 435.256 396.227 447.919C395.726 460.547 391.863 472.744 388.787 484.943C392.364 487.16 396.012 489.342 399.733 491.489C392.328 489.736 384.78 488.699 377.197 488.484C350.332 488.413 323.611 484.8 296.711 486.445L293.349 486.481C301.147 485.551 308.945 484.656 316.779 484.048C323.79 483.476 330.873 482.761 337.956 482.761C350.44 483.44 363.711 484.835 374.728 477.466C374.8 478.79 374.943 481.437 375.015 482.761C376.696 483.226 380.094 484.12 381.775 484.585L382.92 482.188C391.255 466.234 392.185 447.633 389.144 430.212C385.675 415.94 375.766 399.914 359.526 399.377C348.293 398.09 338.885 405.315 330.443 411.611Z"></path>
<path fill="#6D9762" d="M613.825 494.565C612.358 460.331 603.558 425.955 609.067 391.722C632.712 398.554 657.287 394.369 681.433 394.798C690.161 394.047 695.026 402.561 699.533 408.606C714.521 432.144 726.755 457.434 736.556 483.547C696.457 493.384 654.998 495.995 613.825 494.565Z"></path>
<path fill="#FCFCFC" d="M167.362 397.302C180.311 390.327 193.189 398.948 201.989 408.32C203.312 417.12 203.992 425.991 204.528 434.898C200.057 431.643 195.657 428.352 191.185 425.24C181.885 423.129 171.511 421.877 162.676 426.17C152.016 435.828 154.269 451.496 154.484 464.409C148.045 464.052 141.571 464.052 135.168 463.944C138.208 439.369 145.684 411.861 167.362 397.302Z"></path>
<path fill="#FCFCFD" d="M330.443 411.611C338.886 405.315 348.293 398.089 359.526 399.377C375.766 399.914 385.675 415.939 389.144 430.212C392.185 447.633 391.255 466.234 382.92 482.188C378.306 474.497 379.271 465.59 379.915 457.112C375.265 454.215 369.72 452.319 366.215 448.026C368.361 441.48 376.446 440.586 381.454 436.937C370.364 431.607 356.664 425.025 345.539 434.04C328.083 443.913 324.935 464.875 321.465 482.689C316.958 466.914 316.528 450.173 320.177 434.183C322.932 426.385 326.401 418.837 330.443 411.611Z"></path>
<path fill="#151322" d="M201.309 404.099C208.463 422.987 209.429 444.664 203.598 464.016C201.452 471.779 192.903 472.351 186.321 473.603C182.243 471.886 178.165 470.24 174.122 468.631C172.87 468.166 170.367 467.236 169.115 466.771C171.368 453.607 174.302 440.55 178.344 427.816C182.6 426.921 186.893 426.063 191.186 425.24C195.657 428.352 200.057 431.643 204.528 434.898C203.992 425.991 203.312 417.12 201.989 408.32C201.81 407.283 201.452 405.137 201.309 404.099ZM190.792 438.798C193.546 442.375 193.081 451.282 198.948 450.674C206.174 452.033 201.559 442.339 201.488 438.833C198.805 438.833 193.475 438.798 190.792 438.798Z"></path>
<path fill="#50556E" d="M162.676 426.17C171.511 421.878 181.885 423.13 191.185 425.24C186.893 426.063 182.6 426.921 178.343 427.816C174.301 440.55 171.368 453.607 169.114 466.771C164.249 465.698 159.384 464.946 154.484 464.41C154.269 451.496 152.016 435.828 162.676 426.17Z"></path>
<path fill="#667176" d="M345.539 434.04C356.664 425.025 370.365 431.607 381.454 436.937C376.446 440.586 368.361 441.48 366.215 448.026C369.721 452.319 375.265 454.215 379.916 457.112C379.272 465.59 378.306 474.497 382.921 482.188L381.776 484.585C380.095 484.12 376.696 483.225 375.015 482.76C374.943 481.437 374.8 478.79 374.729 477.466C374.55 472.565 374.478 467.665 374.514 462.8C366.001 456.719 361.815 447.49 360.671 437.295C352.873 441.516 343.894 444.771 338.492 452.14C332.34 461.369 336.525 472.78 337.956 482.76C330.873 482.76 323.79 483.476 316.779 484.048C314.669 467.414 313.882 450.065 320.177 434.183C316.529 450.172 316.958 466.913 321.465 482.689C324.935 464.874 328.083 443.913 345.539 434.04Z"></path>
<path fill="#517D53" d="M445.02 433.503C469.595 444.342 492.345 459.08 517.493 468.774C539.778 477.967 563.495 482.653 587.032 487.447L586.567 484.549C587.282 477.896 588.32 471.35 589.107 464.768C591.217 479.291 591.968 493.957 591.861 508.623C538.097 501.576 483.188 486.588 439.404 453.392C441.371 446.775 443.195 440.121 445.02 433.503Z"></path>
<path fill="#0B0B0A" d="M338.492 452.14C343.894 444.771 352.872 441.516 360.671 437.295C361.815 447.49 366.001 456.719 374.514 462.8C374.478 467.665 374.55 472.566 374.729 477.466C363.711 484.835 350.44 483.44 337.956 482.76C336.525 472.78 332.34 461.369 338.492 452.14Z"></path>
<path fill="#474C2C" d="M426.382 455.61C429.745 457.649 433.143 459.759 436.506 461.941C436.971 466.949 437.436 471.957 438.08 477.001C440.691 494.744 442.98 512.665 442.193 530.694C438.258 528.333 434.324 526.044 430.425 523.79C431.712 528.19 433.072 532.626 434.431 537.097C429.817 554.983 422.913 573.083 408.032 585.066C407.853 583.743 407.495 581.06 407.352 579.736C420.874 561.421 428.672 539.422 426.382 516.421C427.241 509.195 423.235 502.9 420.015 496.854C424.487 498.213 428.851 499.752 433.358 501.29C432.249 485.872 430.103 470.562 426.382 455.61Z"></path>
<path fill="#4C794B" d="M809.494 458.508C812.606 463.372 815.897 468.38 816.97 474.211C819.081 485.622 822.693 496.711 824.124 508.265C816.505 526.509 795.901 533.556 779.017 540.674C775.404 530.122 771.827 519.569 768.214 509.053C780.09 501.254 792.681 493.671 801.624 482.367C806.203 477.323 803.878 470.097 804.2 464.052C805.523 462.657 808.17 459.867 809.494 458.508Z"></path>
<path fill="#82AF73" d="M438.08 477.001C437.436 471.957 436.971 466.949 436.506 461.941C452.066 472.494 467.663 483.297 485.155 490.487C528.724 509.696 576.336 515.67 623.018 522.431C622.159 525.006 620.514 530.121 619.655 532.697C581.523 528.655 543.391 523.003 506.725 511.485C482.365 503.615 455.751 496.89 438.08 477.001Z"></path>
<path fill="#7EB575" d="M764.35 497.928C778.122 487.268 791.751 476.322 804.2 464.052C803.878 470.098 806.203 477.323 801.624 482.367C792.681 493.671 780.09 501.255 768.214 509.053C766.89 505.332 765.602 501.612 764.35 497.928Z"></path>
<path fill="#9E563D" d="M197.41 479.541C219.803 468.488 246.667 466.699 270.24 475.034C263.837 476.751 257.506 478.504 251.103 479.971C238.869 479.613 226.635 480.149 214.544 481.866C227.994 491.346 245.057 489.808 260.618 491.095C250.924 496.175 241.015 502.864 229.604 502.471C220.733 501.97 212.148 499.358 203.527 497.498C201.452 494.172 199.556 490.809 197.696 487.411C197.624 485.443 197.481 481.509 197.41 479.541Z"></path>
<path fill="#BC9C6A" d="M127.692 477.037C133.487 475.105 135.49 477.073 133.63 482.904C127.763 484.8 125.76 482.832 127.692 477.037Z"></path>
<path fill="#5D2D26" d="M251.103 479.97C257.506 478.504 263.838 476.751 270.241 475.034C273.496 478.897 276.608 482.939 279.792 486.981C270.098 501.111 255.682 510.519 239.835 516.493C249.78 524.327 260.332 533.842 273.925 533.162C288.448 534.271 299.859 524.076 310.77 516.063C307.944 512.057 305.118 508.158 302.506 504.151C311.092 507.657 320.392 508.873 329.55 510.233C327.224 512.307 324.971 514.418 322.753 516.528C331.124 521.536 339.673 526.294 348.044 531.374C336.954 527.045 326.294 521.715 315.778 516.171C303.115 532.59 292.705 551.87 274.462 562.96C253.536 576.016 224.596 578.842 203.634 564.534C187.716 551.87 180.311 531.803 174.159 513.094C174.767 511.95 176.019 509.66 176.663 508.551C180.526 513.13 183.137 519.533 188.789 522.288C202.74 522.896 216.047 517.566 229.748 515.813C219.732 511.807 209.751 506.655 203.527 497.498C212.148 499.358 220.733 501.969 229.604 502.47C241.015 502.864 250.924 496.175 260.618 491.095C262.514 490.093 266.234 488.126 268.13 487.16C262.443 484.656 256.826 482.188 251.103 479.97ZM221.842 525.114C210.359 526.509 199.02 529.013 187.609 530.909C193.761 543.894 200.88 558.238 214.902 564.176C241.48 574.693 274.39 563.854 288.699 538.85C278.253 538.742 267.415 539.386 257.578 535.201C245.916 531.195 234.72 523.182 221.842 525.114Z"></path>
<path fill="#4D7D51" d="M438.08 477.001C455.751 496.89 482.365 503.615 506.725 511.485C543.391 523.004 581.523 528.655 619.655 532.698C620.514 530.122 622.159 525.007 623.018 522.431C625.021 541.462 625.915 560.563 626.702 579.665C593.184 579.308 558.987 580.095 526.435 570.866C496.459 561.994 468.485 547.471 442.193 530.694C442.98 512.666 440.691 494.744 438.08 477.001Z"></path>
<path fill="#F6EFC5" d="M193.44 480.292C194.87 482.653 196.265 485.014 197.696 487.411C199.556 490.809 201.452 494.171 203.527 497.498C209.751 506.656 219.732 511.807 229.748 515.813C216.047 517.566 202.74 522.896 188.789 522.288C183.137 519.533 180.526 513.13 176.663 508.552C177.986 506.37 180.633 502.005 181.957 499.823C185.927 493.385 189.684 486.838 193.44 480.292Z"></path>
<path fill="#E9CD9C" d="M214.544 481.866C226.635 480.149 238.869 479.612 251.103 479.97C256.826 482.188 262.442 484.656 268.13 487.16C266.234 488.126 262.514 490.093 260.618 491.095C245.057 489.807 227.994 491.345 214.544 481.866Z"></path>
<path fill="#578254" d="M744.962 480.4C748.039 484.692 750.972 489.128 753.905 493.635C707.08 516.6 653.137 514.669 602.378 512.379L603.522 510.626C606.956 505.261 610.391 499.931 613.825 494.565C654.997 495.996 696.456 493.385 736.556 483.547C739.776 485.658 743.031 487.768 746.322 489.95C745.964 487.554 745.284 482.76 744.962 480.4Z"></path>
<path fill="#ECE5CA" d="M279.791 486.982C284.263 486.803 288.806 486.624 293.349 486.481L296.711 486.445C298.428 492.383 299.859 498.5 302.506 504.152C305.117 508.158 307.943 512.057 310.769 516.064C299.859 524.076 288.448 534.271 273.925 533.162C260.332 533.842 249.779 524.327 239.835 516.493C255.682 510.519 270.097 501.111 279.791 486.982Z"></path>
<path fill="#C5AE74" d="M147.044 498.321C158.705 497.605 170.402 497.963 181.957 499.823C180.633 502.005 177.986 506.369 176.662 508.551C176.019 509.66 174.766 511.949 174.158 513.094C164.965 508.444 155.844 503.651 147.044 498.321Z"></path>
<path fill="#76AB6C" d="M730.153 510.805C739.847 507.944 749.076 502.9 759.378 502.506C760.058 504.116 761.381 507.335 762.025 508.981C752.868 515.491 742.637 520.535 731.727 523.361C699.103 532.197 665.049 533.484 631.424 533.484H628.419C628.455 529.227 628.634 525.006 628.884 520.821C662.831 521.894 697.458 520.893 730.153 510.805Z"></path>
<path fill="#4A774C" d="M762.025 508.981C765.71 519.283 770.252 529.514 771.576 540.531C769.287 546.827 761.024 548.115 755.837 551.513C717.74 571.151 674.564 577.233 632.282 579.915C631.316 564.426 630.637 548.937 631.424 533.484C665.049 533.484 699.103 532.196 731.727 523.361C742.637 520.535 752.868 515.491 762.025 508.981Z"></path>
<path fill="#75A170" d="M833.353 513.881C842.332 510.626 851.883 515.133 858.036 521.823C849.951 522.681 841.509 522.395 833.926 525.614C824.339 530.551 816.469 538.099 807.169 543.5C805.738 543.321 802.84 542.892 801.374 542.677C811.604 532.661 821.37 521.823 833.353 513.881Z"></path>
<path fill="#E3CD86" d="M394.761 561.744C410.93 551.442 420.015 533.878 426.383 516.422C428.672 539.423 420.874 561.422 407.352 579.737C390.182 596.12 370.186 609.391 349.295 620.48C326.903 632.392 300.575 628.422 276.572 624.952C255.395 621.16 233.754 618.978 213.328 611.967C206.46 609.177 199.807 605.886 193.225 602.595C216.262 596.907 240.05 602.166 263.301 598.696C308.266 592.221 356.486 588.858 394.761 561.744Z"></path>
<path fill="#C7746B" d="M221.842 525.114C234.719 523.182 245.916 531.195 257.577 535.201C267.414 539.386 278.253 538.742 288.698 538.85C274.39 563.854 241.48 574.693 214.902 564.176C200.879 558.238 193.761 543.894 187.608 530.909C199.019 529.013 210.359 526.509 221.842 525.114Z"></path>
<path fill="#568352" d="M833.925 525.614C841.509 522.395 849.951 522.681 858.035 521.823L861.577 521.572C855.317 541.676 845.193 560.814 828.882 574.55C821.549 564.248 814.037 554.088 807.168 543.5C816.469 538.099 824.339 530.551 833.925 525.614Z"></path>
<path fill="#487146" d="M434.431 537.097C436.005 537.955 439.117 539.744 440.691 540.638C440.477 542.713 440.011 546.898 439.797 548.973C439.117 567.395 428.851 583.135 419.3 598.159C415.759 595.583 412.289 593.043 408.783 590.539C408.604 589.18 408.211 586.426 408.032 585.066C422.913 573.083 429.817 554.983 434.431 537.097Z"></path>
<path fill="#81B26E" d="M439.797 548.973C440.011 546.899 440.476 542.713 440.691 540.639C466.16 556.199 492.917 569.47 520.783 580.238C519.746 582.169 517.671 586.068 516.633 588.036C489.841 577.626 462.297 567.431 439.797 548.973Z"></path>
<path fill="#5C8B57" d="M439.797 548.973C462.297 567.431 489.841 577.626 516.634 588.036C508.013 604.204 498.426 619.872 488.446 635.254C463.191 627.527 440.226 614.113 419.3 598.159C428.851 583.135 439.117 567.396 439.797 548.973Z"></path>
<path fill="#6B9A5F" d="M745.499 566.68C760.559 559.025 774.975 547.865 792.324 546.577C807.383 551.442 814.395 567.002 821.191 579.987C806.096 594.618 786.886 603.525 767.248 610.286C760.058 595.727 752.546 581.311 745.499 566.68Z"></path>
<path fill="#51734B" d="M132.521 563.675C132.485 562.245 132.414 559.383 132.378 557.952C149.942 576.16 169.938 592.257 193.225 602.595C199.807 605.886 206.46 609.177 213.328 611.967C211.146 612.968 206.854 614.9 204.708 615.866C184.282 609.499 166.468 597.086 149.727 584.065C148.511 583.063 146.042 581.06 144.826 580.059C137.743 592.4 131.841 606.064 133.737 620.695C138.459 625.631 143.61 631.426 151.051 631.677C167.756 633.287 184.676 633.859 201.452 632.464C209.429 632.5 213.507 624.737 218.301 619.658C227.78 622.019 237.26 624.379 246.703 627.027C241.194 633.966 236.902 643.911 227.208 645.592C199.092 651.745 170.582 644.483 142.787 640.155C133.129 636.542 127.584 625.703 125.867 616.045C125.617 601.522 133.272 588.537 140.033 576.231C137.565 572.082 132.807 568.683 132.521 563.675Z"></path>
<path fill="#96C07E" d="M721.461 573.798C727.971 570.901 734.875 570.937 741.242 574.335C731.334 580.094 720.495 584.208 709.191 586.211C685.475 590.539 661.901 596.334 637.756 597.407L633.749 597.658C636.396 594.26 638.328 589.287 643.443 589.502C669.771 586.032 696.313 582.777 721.461 573.798Z"></path>
<path fill="#6E9863" d="M741.242 574.335C745.75 582.885 750.507 591.291 755.372 599.661C722.784 622.877 682.148 627.527 645.554 641.192C641.118 626.991 639.115 612.181 637.756 597.408C661.902 596.335 685.475 590.54 709.191 586.211C720.495 584.208 731.334 580.095 741.242 574.335Z"></path>
<path fill="#AFC27F" d="M144.826 580.059C146.042 581.06 148.51 583.063 149.727 584.065C146.15 596.943 140.498 609.177 133.737 620.695C131.841 606.064 137.743 592.4 144.826 580.059Z"></path>
<path fill="#99C37F" d="M528.474 581.275C560.382 587.607 593.006 588.751 625.45 589.574C629.922 605.242 634.071 621.017 635.86 637.221C626.345 625.846 620.693 612.11 616.472 598.052C585.1 596.37 553.657 595.977 522.572 591.362C524.504 587.964 526.471 584.602 528.474 581.275Z"></path>
<path fill="#759E6A" d="M149.727 584.065C166.468 597.085 184.282 609.498 204.708 615.866C209.215 617.189 213.722 618.441 218.301 619.657C213.507 624.737 209.429 632.499 201.452 632.463C184.675 633.859 167.756 633.286 151.051 631.676C143.61 631.426 138.459 625.631 133.737 620.695C140.498 609.176 146.15 596.942 149.727 584.065Z"></path>
<path fill="#6E9A65" d="M499.499 632.392C506.51 618.334 514.309 604.705 522.572 591.362C553.657 595.976 585.1 596.37 616.472 598.051C620.693 612.109 626.345 625.845 635.86 637.221C614.361 641.656 592.326 640.19 570.577 640.011C546.717 639.51 522.429 639.689 499.499 632.392Z"></path>
<path fill="#CDAD4A" d="M750.221 627.062C776.334 616.08 802.626 605.528 826.02 589.288C820.977 617.511 793.898 633.751 769.823 644.519C758.305 650.993 754.943 634.038 750.221 627.062Z"></path>
<path fill="#5A8153" d="M400.413 593.938C426.633 613.791 453.032 634.074 484.261 645.592C473.601 681.149 457.003 717.743 425.882 739.885C392.507 764.568 348.258 774.19 307.729 765.033C297.677 762.922 289.7 756.269 282.117 749.794C283.977 748.22 287.697 745.108 289.557 743.534C317.316 751.618 347.149 754.122 375.265 746.181C414.9 736.666 447.166 704.794 460.33 666.59C462.369 659.042 465.66 648.454 456.86 643.982C436.184 630.318 411.287 625.703 388.358 617.154C391.899 610.393 395.44 603.596 398.91 596.8L400.413 593.938Z"></path>
<path fill="#87AB68" d="M380.202 611.001C384.28 603.918 392.114 600.663 398.91 596.8C395.441 603.596 391.899 610.393 388.358 617.153C411.287 625.703 436.184 630.317 456.86 643.982C465.66 648.453 462.369 659.042 460.33 666.59C447.166 704.793 414.9 736.666 375.266 746.181C347.149 754.122 317.316 751.618 289.557 743.534C287.697 745.108 283.977 748.22 282.117 749.794C280.4 745.179 278.432 740.636 277.61 735.807C282.904 717.242 285.05 697.281 295.209 680.54C309.911 656.538 335.559 643.088 359.812 630.675C368.648 626.561 375.337 619.336 380.202 611.001Z"></path>
<path fill="#527750" d="M755.372 599.661C756.41 604.169 757.447 608.64 758.591 613.183C721.64 628.028 684.116 643.195 644.23 647.524C644.552 645.95 645.232 642.766 645.554 641.192C682.148 627.527 722.784 622.877 755.372 599.661Z"></path>
<path fill="#B0C39B" d="M296.747 664.085C319.068 639.009 350.69 625.56 380.202 611.001C375.337 619.335 368.647 626.561 359.812 630.675C335.559 643.088 309.911 656.538 295.209 680.54C285.05 697.281 282.904 717.241 277.609 735.807C269.489 710.624 279.72 683.08 296.747 664.085Z"></path>
<path fill="#87AC67" d="M657.108 655.608C686.082 647.416 715.343 639.868 742.816 627.134C742.78 628.314 742.744 630.639 742.708 631.82C740.562 645.091 751.222 654.785 757.768 664.98C770.968 683.044 777.156 704.901 788.102 724.289C788.603 722.143 789.569 717.814 790.07 715.668C791.894 719.889 793.719 724.181 795.543 728.474C757.446 723.251 716.13 728.975 681.432 709.122C662.938 699.285 649.417 682.436 641.118 663.442C646.376 660.759 651.67 658.04 657.108 655.608Z"></path>
<path fill="#DEC14F" d="M251.818 628.672C275.749 626.74 299.287 633.215 323.182 634.002C306.799 647.989 289.879 661.939 279.756 681.47C267.343 675.532 254.429 668.7 246.56 657.003C240.872 649.956 246.452 641.371 248.062 634.038C262.872 641.872 277.466 653.533 295.173 652.496C278.861 649.133 260.725 644.161 251.818 628.672Z"></path>
<path fill="#568255" d="M495.922 641.013C497.103 638.08 498.319 635.254 499.499 632.392C522.429 639.689 546.717 639.51 570.577 640.011C592.326 640.19 614.361 641.657 635.86 637.221L638.328 636.792C637.147 641.442 635.967 646.092 634.822 650.779C588.427 652.961 541.209 652.281 495.922 641.013Z"></path>
<path fill="#A1C07E" d="M757.768 664.98C751.222 654.785 740.562 645.091 742.708 631.82C759.02 647.917 771.29 667.627 781.95 687.766C785.706 696.566 791.25 705.795 790.07 715.668C789.569 717.814 788.603 722.142 788.102 724.289C777.156 704.901 770.968 683.044 757.768 664.98Z"></path>
<path fill="#CCB150" d="M492.667 648.99C529.154 656.788 566.427 658.863 603.63 660.687C605.311 664.586 607.028 668.521 608.852 672.492C581.487 681.65 553.013 688.16 524.074 688.768C508.048 689.126 492.023 688.911 475.997 689.412C482.186 676.212 487.516 662.655 492.667 648.99Z"></path>
<path fill="#5E8353" d="M613.109 662.297C627.525 658.791 642.191 656.037 657.108 655.608C651.671 658.04 646.377 660.759 641.118 663.442C649.417 682.436 662.939 699.285 681.432 709.122C716.131 728.975 757.447 723.251 795.543 728.474C790.464 732.838 785.241 738.061 778.087 738.168C739.811 741.459 699.354 740.958 664.513 722.715C639.902 710.66 622.732 687.48 613.109 662.297Z"></path>
<path fill="#EBCC59" d="M524.074 688.768C553.013 688.16 581.487 681.65 608.852 672.492C612.465 680.004 616.722 687.266 621.551 694.17C570.97 714.273 515.847 716.24 462.118 716.991C467.054 707.941 471.597 698.712 475.997 689.412C492.023 688.911 508.049 689.126 524.074 688.768Z"></path>
<path fill="#5D4B32" d="M462.118 716.991C515.846 716.24 570.97 714.273 621.551 694.169C623.161 696.315 624.806 698.426 626.559 700.572C607.851 705.079 589.929 712.591 570.863 715.739C543.712 721.677 515.846 722.071 488.231 724.002C478.465 724.718 468.736 722.822 459.685 719.245L462.118 716.991Z"></path>
</svg>
