<svg xmlns="http://www.w3.org/2000/svg" fill="none" viewBox="0 0 1024 1024" height="1024" width="1024">
<rect fill="white" height="1024" width="1024"></rect>
<path fill="#FDFDFD" d="M213.94 96.5048C223.558 83.1874 238.259 70.449 255.855 72.1539C268.11 72.2182 279.112 82.6727 280.141 94.8321C282.007 108.793 280.978 123.59 287.315 136.586C296.161 155.886 314.754 168.303 333.314 177.246C345.634 183.486 359.209 177.246 371.336 173.643C402.957 162.577 435.157 152.219 468.708 149.26C532.078 141.54 596.349 153.86 655.409 176.892C691.565 191.206 735.86 163.607 739.945 125.198C741.876 110.723 737.726 93.2237 749.242 81.8364C761.369 69.6448 782.149 72.2183 794.212 83.2196C817.309 102.874 827.506 133.208 833.135 162.095C835.451 190.113 836.287 219.321 826.444 246.149C820.397 265.932 807.851 282.595 796.4 299.45C833.746 359.668 843.622 435.616 823.324 503.426C821.04 511.467 817.727 519.348 817.051 527.744C817.405 534.371 820.847 540.29 823.42 546.273C845.648 592.337 856.843 644.288 851.503 695.466C848.929 721.619 843.3 749.122 825.994 769.806C820.686 776.561 813.577 782.866 813.03 792.034C809.46 822.271 801.386 853.152 782.889 877.857C775.169 888.858 760.436 893.522 747.859 888.794C732.193 883.39 722.285 869.204 712.346 856.819C701.28 863.799 690.053 870.49 678.602 876.731C677.862 890.853 679.374 907.129 668.984 918.324C661.875 927.91 650.165 931.448 639.1 934.118C625.654 936.949 616.003 948.626 602.268 950.523C576.116 953.547 548.773 952.582 524.487 941.388C511.62 937.11 501.422 926.719 488.298 923.535C476.525 931.48 466.07 942.224 451.756 945.538C425.185 952.389 394.626 953.226 370.79 937.849C357.858 929.775 339.169 931.159 330.484 916.876C320.319 903.913 322.023 886.767 325.819 871.809C316.008 865.118 305.94 858.846 295.485 853.216C284.098 867.338 272.711 886.317 252.606 887.636C240.832 889.276 229.509 882.714 223.462 872.806C207.668 847.748 202.778 817.768 200.333 788.752C199.658 777.204 191.584 768.326 186.373 758.579C176.98 742.367 174.953 723.259 173.473 704.956C167.619 647.183 179.296 587.801 207.024 536.751C215.002 524.238 205.544 510.824 202.456 498.407C191.873 467.623 191.294 434.715 193.289 402.58C196.827 364.654 212.396 329.399 230.41 296.298C216.288 279.474 203.743 260.914 197.277 239.715C187.659 213.917 188.624 185.867 190.619 158.878C194.061 136.875 201.331 115.001 213.94 96.5048ZM233.53 129.026C219.698 160.904 218.765 197.929 229.767 230.773C228.737 236.177 233.562 240.712 235.621 245.473C244.113 265.288 258.814 282.337 276.024 295.204C260.937 315.792 245.658 336.701 237.744 361.277C219.441 410.011 223.944 465.339 245.883 512.079C248.52 517.161 248.939 522.887 249.132 528.516C245.272 535.046 237.905 541.319 238.677 549.425C231.086 559.815 226.775 572.039 222.529 584.038C212.396 612.474 205.416 642.454 205.931 672.788C205.512 695.852 207.249 719.785 217.189 740.951C219.344 746.195 224.684 748.639 229.155 751.599C230.539 760.67 231.632 769.838 231.825 779.038C232.533 804.482 238.581 829.67 248.713 852.991C252.059 851.833 256.337 852.251 258.943 849.388C272.775 835.17 282.554 817.768 293.877 801.619C312.18 825.906 339.265 842.022 367.219 852.927C361.236 865.633 350.846 878.307 354.288 893.297C359.241 902.401 371.497 901.436 380.376 903.012C393.275 922.023 419.395 919.9 439.371 917.166C456.42 914.721 467.582 898.991 469.705 882.746C486.818 877.053 505.862 882.457 523.779 880.913C524.487 885.706 525.323 890.531 526.256 895.324C529.762 906.904 540.763 914.206 551.958 917.294C568.17 921.637 585.283 920.929 601.753 918.485C611.307 917.262 617.805 909.638 624.013 903.044C632.634 902.529 645.437 902.529 646.852 891.367C647.238 879.723 640.419 869.558 635.947 859.264C652.61 853.474 668.501 845.432 683.652 836.393C698.031 827.933 709.097 815.291 721.449 804.289C730.585 823.654 739.013 845.078 757.155 857.913C778.032 826.646 782.503 788.624 785.077 752.049C800.646 752.821 806.983 737.123 812.258 725.35C829.725 667.448 814.864 605.204 788.872 552.256C785.398 544.118 779.319 536.848 777.839 528.034C779.898 515.714 786.975 504.937 790.384 493.003C812.419 427.317 793.794 353.17 752.877 298.839C752.909 292.406 759.214 289.478 763.203 285.393C786.556 266.06 797.815 235.791 801.289 206.389C803.058 176.699 797.911 144.467 779.576 120.277C779.19 116.352 775.298 114.422 772.917 111.817C772.628 124.587 773.464 137.744 768.832 149.935C767.899 154.31 764.94 158.653 766.162 163.156C756.512 174.93 747.633 187.764 734.606 196.064C715.434 208.513 693.335 216.136 670.914 219.996C662.132 217.68 654.412 212.662 646.145 209.156C606.45 191.496 563.442 181.46 520.08 179.401C463.175 177.278 406.367 191.56 355.574 216.876C348.851 220.286 341.646 215.911 335.212 213.917C312.18 204.427 288.408 193.748 271.778 174.576C255.018 157.076 247.009 132.886 247.169 108.922C241.604 114.873 236.65 121.467 233.53 129.026Z"></path>
<path fill="#1A1530" d="M233.53 129.026C236.65 121.467 241.604 114.872 247.169 108.921C247.008 132.886 255.018 157.076 271.777 174.576C288.408 193.748 312.18 204.427 335.212 213.917C341.646 215.911 348.851 220.286 355.574 216.876C406.367 191.56 463.175 177.278 520.079 179.401C563.441 181.459 606.449 191.496 646.144 209.156C654.411 212.662 662.132 217.68 670.913 219.996C693.334 216.136 715.433 208.512 734.605 196.064C747.633 187.764 756.512 174.929 766.162 163.156C766.516 164.668 767.288 167.627 767.674 169.139C752.33 200.889 717.556 215.589 685.292 223.889C643.7 234.182 602.171 249.977 569.811 278.927C551.668 295.011 540.828 317.143 529.408 338.084C523.779 347.412 519.5 357.481 516.573 367.967C528.25 356.805 536.871 342.78 549.352 332.358C573.639 313.218 600.659 297.07 630.511 288.353C666.314 277.737 702.502 266.704 734.863 247.628C764.232 230.193 783.372 197.929 787.393 164.314C787.425 149.292 781.088 135.17 779.576 120.277C797.911 144.467 803.058 176.699 801.289 206.389C797.815 235.791 786.556 266.06 763.202 285.393C759.214 289.478 752.909 292.406 752.877 298.839C752.072 297.617 750.496 295.172 749.692 293.95C743.805 295.783 737.919 297.649 732.064 299.483C723.572 302.024 715.176 304.79 706.748 307.396C709.161 307.75 713.922 308.49 716.302 308.843C713.568 311.771 710.834 314.666 708.131 317.593C716.785 324.992 726.081 331.618 735.474 338.052C733.898 340.561 732.322 343.005 730.681 345.45C735.989 353.138 741.425 360.762 746.218 368.804C732.386 366.359 722.961 355.133 711.959 347.509C701.119 331.361 685.936 314.537 664.834 314.634C639.035 315.341 611.564 316.724 588.822 330.331C584.479 334.577 580.587 339.242 576.469 343.649C565.178 353.717 552.987 363.786 546.875 378.036C540.184 392.737 539.83 409.142 539.798 425.001C538.801 425.483 536.807 426.384 535.809 426.866C524.969 426.191 514.16 425.515 503.352 425.258C512.23 424.1 521.173 423.65 530.148 423.135C531.499 403.77 537.289 385.209 542.372 366.584C532.464 373.372 524.004 382.346 513.195 387.751C504.382 389.23 496.533 383.569 488.62 380.642C492.351 395.599 493.155 411.008 492.383 426.352C494.345 426.159 498.334 425.773 500.328 425.58C497.176 425.966 494.088 426.416 491.032 426.866C489.231 415.254 488.04 403.545 484.888 392.19C479.291 371.988 467.582 352.205 449.021 341.494C439.757 335.896 428.659 336.057 418.333 334.674C416.178 334.191 411.835 333.226 409.68 332.744C419.813 331.136 430.042 330.46 440.304 330.01C419.427 318.397 396.33 308.232 371.883 309.776C350.813 311.32 329.293 319.877 315.911 336.797C313.402 339.885 311.054 343.038 308.867 346.286C306.326 341.011 303.816 335.735 301.307 330.492C308.095 324.927 314.239 318.558 320.544 312.414C309.928 309.487 299.409 306.238 289.18 302.152C286.478 301.059 283.84 299.901 281.267 298.646C279.948 297.778 277.342 296.073 276.024 295.204C258.814 282.337 244.113 265.288 235.621 245.473C235.46 243.865 235.171 240.648 235.01 239.04C243.084 246.535 250.997 254.191 259.457 261.267C251.48 247.982 242.666 235.276 233.691 222.666C232.694 224.693 230.731 228.746 229.766 230.772C218.765 197.929 219.698 160.904 233.53 129.026ZM231.504 186.445C232.565 202.915 241.701 217.359 250.997 230.483C256.723 250.684 276.12 263.937 294.745 271.4C282.071 257.697 265.087 247.017 258.75 228.553C273.096 237.849 284.805 250.942 300.374 258.501C325.819 271.239 354.127 275.968 381.212 284.042C411.546 292.47 440.336 306.013 465.941 324.316C474.787 344.968 487.043 365.298 505.54 378.679C504.221 360.312 492.576 344.71 484.727 328.562C483.054 319.812 477.039 312.864 471.185 306.559C453.589 278.445 425.764 257.729 396.298 243.286C370.082 230.033 340.68 225.143 314.239 212.469C291.882 202.336 270.812 187.443 257.688 166.309C250.129 154.535 246.687 140.8 242.119 127.74C231.922 145.432 230.056 166.469 231.504 186.445ZM406.721 201.982C390.991 207.966 373.459 211.633 360.85 223.47C398.872 226.462 430.428 250.33 457.674 275.035C482.476 297.617 495.149 329.398 510.429 358.478C522.878 336.315 533.075 312.8 547.647 291.859C559.099 275.646 574.668 262.779 591.363 252.196C611.661 239.715 633.181 228.649 656.631 223.47C647.56 213.949 634.5 210.636 622.694 206.036C553.727 181.041 476.428 178.211 406.721 201.982ZM744.095 265.16C764.553 258.919 785.816 244.476 790.577 222.345C776.102 237.753 760.275 251.617 744.095 265.16Z"></path>
<path fill="#1A1530" d="M494.088 811.495C500.65 817.156 505.797 824.684 513.678 828.672C522.106 830.056 530.824 830.088 539.316 828.737C544.173 825.97 548.451 822.303 553.019 819.022C543.465 831.728 524.293 838.451 510.011 829.863C502.226 826.356 496.661 819.569 494.088 811.495Z"></path>
<path fill="#483F66" d="M772.917 111.817C775.298 114.422 779.19 116.352 779.576 120.277C781.088 135.17 787.425 149.292 787.393 164.314C783.372 197.929 764.232 230.194 734.863 247.628C702.502 266.704 666.314 277.737 630.511 288.353C600.659 297.07 573.639 313.218 549.352 332.358C536.871 342.78 528.25 356.805 516.573 367.967C519.5 357.481 523.779 347.412 529.408 338.084C529.569 339.724 529.923 343.07 530.083 344.71C542.436 326.31 552.601 306.109 568.653 290.476C597.282 261.525 636.43 246.824 674.581 235.212C704.818 225.722 737.275 215.782 758.796 191.045C769.121 180.398 774.59 166.276 778.096 152.09C774.526 157.72 770.987 163.381 767.674 169.139C767.288 167.627 766.516 164.668 766.162 163.156C764.939 158.653 767.899 154.31 768.832 149.935C773.464 137.744 772.628 124.587 772.917 111.817Z"></path>
<path fill="#85829D" d="M231.504 186.445C230.056 166.469 231.922 145.432 242.119 127.74C246.687 140.8 250.129 154.535 257.688 166.309C270.812 187.443 291.882 202.336 314.239 212.469C340.681 225.143 370.082 230.033 396.298 243.286C425.764 257.729 453.589 278.445 471.185 306.559C471.442 308.168 471.957 311.417 472.214 313.025C460.312 302.056 450.179 289.253 437.666 278.96C412.286 257.954 382.241 242.932 350.556 234.118C324.661 227.041 298.605 218.066 277.182 201.371C260.454 189.373 250.193 171.23 239.61 154.085C238.162 167.081 236.393 180.494 239.964 193.297C243.405 205.746 248.166 217.809 250.997 230.483C241.701 217.359 232.565 202.915 231.504 186.445Z"></path>
<path fill="#9D99AE" d="M767.674 169.139C770.987 163.381 774.526 157.72 778.096 152.091C774.59 166.276 769.122 180.398 758.796 191.046C737.276 215.782 704.818 225.722 674.581 235.212C636.43 246.824 597.282 261.525 568.653 290.476C552.601 306.109 542.436 326.31 530.084 344.71C529.923 343.07 529.569 339.724 529.408 338.084C540.828 317.143 551.668 295.011 569.811 278.928C602.172 249.977 643.7 234.182 685.293 223.889C717.557 215.589 752.33 200.889 767.674 169.139Z"></path>
<path fill="#544C70" d="M239.61 154.085C250.193 171.23 260.454 189.373 277.182 201.371C298.605 218.066 324.661 227.041 350.556 234.118C382.241 242.932 412.286 257.954 437.666 278.96C450.179 289.253 460.312 302.056 472.214 313.025C471.957 311.417 471.442 308.168 471.185 306.56C477.039 312.864 483.055 319.813 484.727 328.562C485.049 330.01 485.692 332.937 486.014 334.385C479.195 331.264 472.439 328.015 465.941 324.316C440.336 306.013 411.546 292.47 381.212 284.042C354.127 275.968 325.819 271.239 300.375 258.501C284.805 250.942 273.096 237.849 258.75 228.553C265.087 247.017 282.071 257.697 294.745 271.4C276.12 263.937 256.723 250.684 250.997 230.483C248.167 217.809 243.406 205.746 239.964 193.297C236.393 180.495 238.162 167.081 239.61 154.085Z"></path>
<path fill="#B6B7C0" d="M406.721 201.982C476.428 178.211 553.727 181.041 622.695 206.036C634.5 210.636 647.56 213.949 656.631 223.47C635.208 223.02 616.486 211.568 595.963 207.129C574.154 202.079 551.99 198.412 529.698 196.385C497.884 193.394 465.942 197.801 434.932 204.652C409.97 210.024 386.68 222.216 360.85 223.47C373.46 211.633 390.991 207.966 406.721 201.982Z"></path>
<path fill="#62567F" d="M434.932 204.652C465.942 197.801 497.884 193.394 529.698 196.385C551.99 198.412 574.154 202.079 595.963 207.129C616.486 211.568 635.208 223.02 656.631 223.47C633.181 228.649 611.661 239.715 591.363 252.196C574.668 262.779 559.099 275.646 547.647 291.859C533.075 312.8 522.878 336.315 510.429 358.478C495.15 329.398 482.476 297.617 457.675 275.035C430.429 250.33 398.872 226.462 360.85 223.47C386.68 222.216 409.97 210.024 434.932 204.652Z"></path>
<path fill="#443D52" d="M233.691 222.666C242.666 235.276 251.48 247.982 259.457 261.267C250.997 254.191 243.084 246.535 235.01 239.04C235.171 240.648 235.46 243.865 235.621 245.473C233.562 240.712 228.737 236.177 229.767 230.772C230.732 228.746 232.694 224.693 233.691 222.666Z"></path>
<path fill="#4F4466" d="M744.095 265.16C760.275 251.617 776.102 237.753 790.577 222.345C785.816 244.476 764.554 258.919 744.095 265.16Z"></path>
<path fill="#26202D" d="M276.024 295.204C277.343 296.073 279.948 297.778 281.267 298.646C245.336 338.759 226.421 394.57 235.557 448.161C240.092 495.416 264.186 539.936 298.895 571.91C297.029 572.843 293.362 574.677 291.528 575.609C273.997 563 266.052 541.673 249.132 528.516C248.939 522.887 248.52 517.161 245.883 512.078C223.944 465.339 219.441 410.011 237.744 361.277C245.658 336.7 260.937 315.792 276.024 295.204Z"></path>
<path fill="#2C2835" d="M732.064 299.483C737.919 297.649 743.805 295.783 749.692 293.95C750.496 295.172 752.072 297.617 752.877 298.839C793.794 353.17 812.419 427.317 790.384 493.003C786.974 504.937 779.897 515.713 777.839 528.034C779.318 536.848 785.398 544.117 788.872 552.256C814.864 605.204 829.725 667.448 812.258 725.35C810.618 723.581 807.304 720.042 805.632 718.273C821.941 661.722 805.825 600.54 779.222 549.682C777.485 546.08 775.748 542.509 774.043 538.939C760.565 555.022 749.338 573.261 732.933 586.643C724.28 593.945 713.632 598.063 703.403 602.437C699.832 605.172 695.168 607.777 695.297 612.892C692.884 633.672 695.715 654.742 699.961 675.136C698.095 678.932 696.326 682.792 694.653 686.652C688.67 660.436 687.126 633.511 688.155 606.716C674.645 609.321 660.781 609.772 647.753 604.786C680.339 605.686 713.343 594.17 736.471 570.881C764.972 541.898 782.214 503.232 790.32 463.763C800.549 404.735 778.257 345.45 744.803 297.52C740.492 298.099 736.246 298.743 732.064 299.483Z"></path>
<path fill="#F2F3F4" d="M281.267 298.646C283.84 299.901 286.478 301.059 289.18 302.153C291.11 314.473 292.075 327.115 289.084 339.37C279.852 354.232 269.236 368.418 262.256 384.566C267.982 380.545 273.45 376.138 278.758 371.57C268.754 391.997 263.414 414.611 264.089 437.417C265.28 436.806 267.692 435.584 268.914 434.973C271.166 429.279 273.45 423.618 275.798 417.924C277.31 442.082 287.379 464.245 295.292 486.763C297.705 493.357 300.696 499.726 304.331 505.774C305.296 507.446 307.291 510.792 308.288 512.465C309.864 507.253 311.44 502.042 312.856 496.799C320.447 508.926 329.808 519.831 339.908 529.932C348.079 535.85 358.244 533.92 367.444 532.408C378.799 545.436 397.457 542.799 412.64 540C437.151 535.529 457.642 520.571 480.32 511.274C491.032 532.698 497.755 555.698 504.317 578.633C497.434 588.509 489.938 598.063 480.481 605.558C480.159 599.961 479.87 594.395 479.612 588.83C462.885 597.419 446.769 607.198 429.688 615.079C423.48 616.334 417.304 617.717 411.095 618.618C402.635 619.036 395.012 615.723 388.739 610.318C391.151 609.707 396.009 608.485 398.454 607.874C403.697 606.105 407.975 602.373 412.511 599.253C387.774 589.152 359.595 592.658 335.566 580.37C324.597 575.899 317.681 566.056 310.765 557.049C301.082 544.278 287.379 535.271 277.986 522.308C262.127 500.788 252.638 475.536 244.049 450.445C243.47 454.852 242.891 459.227 242.376 463.634C240.028 458.487 237.68 453.373 235.557 448.161C226.421 394.57 245.336 338.759 281.267 298.646Z"></path>
<path fill="#C3C4CE" d="M706.748 307.396C715.176 304.79 723.572 302.024 732.064 299.483C736.246 298.743 740.492 298.099 744.802 297.52C778.257 345.45 800.549 404.735 790.32 463.763C782.213 503.232 764.972 541.898 736.471 570.881C713.343 594.17 680.339 605.686 647.753 604.786C660.781 609.772 674.645 609.321 688.155 606.716C687.126 633.511 688.67 660.436 694.653 686.652C696.422 707.111 698.899 727.666 705.011 747.353C708.839 761.442 714.662 774.952 717.846 789.203C719.873 797.341 712.281 803.356 707.681 808.986C676.221 840.285 633.116 856.465 590.494 865.826C532.046 878.05 470.091 878.725 412.833 860.261C372.398 850.514 330.548 835.267 302.401 803.196C294.713 796.119 301.179 786.404 304.685 779.038C315.204 759.705 322.474 738.893 331.48 718.852C341.227 726.572 352.968 730.915 365.514 729.339C359.692 731.623 353.901 734.067 348.143 736.416C343.961 757.067 341.259 778.073 335.115 798.274C331.963 796.473 328.875 794.639 325.819 792.838C325.562 794.124 325.047 796.698 324.79 797.984C335.759 806.187 346.567 815.098 359.434 820.309C370.371 824.812 382.37 821.917 393.725 820.92C402.764 830.409 411.835 842.183 425.796 843.855C447.187 846.332 468.772 847.072 490.067 850.514C528.057 855.886 566.497 848.809 602.075 835.395C599.823 832.822 597.571 830.249 595.512 827.579C592.585 822.947 590.012 818.154 587.471 813.361C601.303 820.888 617.193 835.46 633.502 825.23C648.332 815.484 666.217 805.319 672.554 787.787C672.876 786.854 673.519 785.021 673.841 784.12C672.554 784.088 669.916 784.056 668.597 784.024C678.473 772.668 675.771 757.228 674.806 743.525C673.969 731.88 671.364 720.493 667.632 709.459C673.519 706.564 679.341 703.476 685.228 700.452C681.979 701.417 678.762 702.35 675.578 703.283C674.291 679.061 672.972 654.838 670.656 630.681C648.267 639.559 624.946 648.083 600.402 646.378C563.988 646.957 529.923 629.426 503.899 604.914C485.017 622.446 462.725 637.822 436.572 641.232C410.709 644.641 384.654 639.623 359.306 634.734C357.568 654.099 357.633 673.592 359.273 692.989C359.37 694.34 359.563 696.978 359.659 698.329C357.826 697.847 354.159 696.882 352.357 696.399C350.91 706.403 349.591 716.439 348.433 726.476C342.482 723.452 336.885 719.946 331.32 716.375C343.415 680.766 346.02 642.84 343.608 605.558C358.308 609.386 373.491 611.637 388.739 610.318C395.012 615.723 402.635 619.036 411.095 618.618C399.547 620.194 387.903 621.159 376.419 623.089C385.94 628.783 396.974 628.461 407.589 626.756C418.108 628.268 428.948 631.227 439.532 628.204C451.723 624.89 463.432 619.969 475.141 615.176C489.392 609.128 499.235 596.679 509.818 585.903C520.658 597.709 531.692 609.804 545.717 617.974C556.622 624.665 569.103 628.011 581.455 631.163C582.066 629.716 583.289 626.788 583.9 625.309C595.352 628.429 607.125 632.321 619.188 630.841C634.371 628.847 648.525 622.574 662.228 615.98C644.568 616.366 626.94 617.234 609.345 617.846C615.006 620.162 620.7 622.446 626.393 624.826C610.76 624.311 594.676 622.703 580.973 614.532C601.077 613.342 621.247 614.5 641.384 614.661C639.711 608.71 638.07 602.791 636.462 596.872C647.978 594.524 659.719 592.691 670.913 588.863C689.699 582.493 706.362 571.363 722.414 559.912C739.077 548.203 744.545 527.455 752.394 509.762C759.085 491.266 767.127 473.252 773.882 454.788C780.476 431.949 777.71 407.502 772.016 384.759C766.323 363.786 762.784 341.719 751.107 322.933C747.215 322.096 743.516 322.418 739.977 323.898C738.498 328.626 737.05 333.355 735.474 338.052C726.081 331.618 716.785 324.992 708.131 317.593C710.833 314.666 713.568 311.771 716.302 308.843C713.922 308.49 709.161 307.75 706.748 307.396Z"></path>
<path fill="#C2C1C6" d="M289.18 302.152C299.41 306.238 309.928 309.487 320.544 312.414C314.239 318.558 308.095 324.927 301.307 330.492C297.254 333.516 293.105 336.347 289.084 339.37C292.075 327.115 291.11 314.473 289.18 302.152Z"></path>
<path fill="#C2BFC5" d="M315.911 336.797C329.293 319.877 350.813 311.32 371.883 309.776C396.33 308.232 419.427 318.397 440.304 330.01C430.042 330.46 419.813 331.136 409.68 332.744C406.142 333.033 402.635 333.355 399.161 333.645C371.722 325.088 343.318 332.261 315.911 336.797Z"></path>
<path fill="#C6C6C9" d="M588.822 330.331C611.564 316.724 639.035 315.341 664.834 314.634C685.936 314.537 701.119 331.361 711.96 347.509C713.825 352.688 715.562 357.931 717.428 363.11C700.572 339.017 666.989 339.21 640.58 340.722C624.335 332.873 606.224 333.13 588.822 330.331Z"></path>
<path fill="#E2E3E7" d="M739.978 323.898C743.516 322.418 747.215 322.096 751.108 322.933C762.784 341.719 766.323 363.786 772.017 384.759C777.71 407.502 780.477 431.949 773.882 454.788C767.127 473.252 759.085 491.266 752.394 509.762C744.545 527.455 739.077 548.203 722.414 559.912C706.362 571.363 689.7 582.493 670.914 588.863C681.658 581.657 690.439 572.039 699.607 563C705.365 562.067 712.539 562.871 716.688 557.885C719.808 550.873 720.291 542.927 723.862 536.076C740.75 508.411 760.629 481.23 767.706 449.03C764.94 447.647 762.238 446.264 759.536 444.88C758.377 456.557 757.927 469.135 750.786 479.042C738.401 496.606 729.041 516.292 714.083 531.958C709.45 529.449 704.851 526.972 700.283 524.495C706.427 520.088 713.182 516.646 719.583 512.529C731.582 490.205 733.319 464.503 736.375 439.862C739.559 440.055 742.776 440.28 746.025 440.506C746.379 417.795 742.551 395.246 736.825 373.34C742.165 376.653 747.569 379.934 753.102 382.99C750.947 378.165 748.824 373.34 746.218 368.804C741.425 360.762 735.989 353.138 730.681 345.45C732.322 343.005 733.898 340.561 735.474 338.052C737.05 333.355 738.498 328.627 739.978 323.898Z"></path>
<path fill="#2D284A" d="M465.941 324.316C472.439 328.015 479.195 331.264 486.014 334.385C485.692 332.937 485.049 330.01 484.727 328.562C492.576 344.71 504.221 360.312 505.54 378.679C487.043 365.298 474.787 344.968 465.941 324.316Z"></path>
<path fill="#FBFAF9" d="M315.912 336.797C343.318 332.261 371.722 325.088 399.161 333.645C382.82 344.807 366.672 358.253 359.177 377.167C349.527 400.039 350.942 429.182 368.152 448.161C391.216 473.22 434.546 474.217 459.54 451.507C470.573 441.278 475.656 426.609 480.417 412.713C482.025 407.887 483.698 403.127 485.21 398.269C485.306 406.922 486.464 415.962 483.505 424.325C479.677 435.68 470.22 445.105 469.994 457.587C469.094 465.049 471.217 473.863 465.201 479.686C439.628 507.092 399 517.933 363.005 507.704C331.513 495.351 306.293 468.62 295.582 436.581C285.352 406.601 291.754 372.503 308.867 346.286C311.054 343.038 313.402 339.885 315.912 336.797Z"></path>
<path fill="#1A1B23" d="M576.469 343.649C580.587 339.242 584.479 334.578 588.822 330.331C606.224 333.13 624.335 332.873 640.58 340.722C654.669 352.302 667.44 366.584 672.361 384.566C681.432 410.397 671.557 441.985 648.364 456.943C629.256 468.717 603.908 471.933 583.868 460.482C569.457 453.566 562.251 438.64 555.528 425.033C553.791 416.219 553.695 407.148 555.4 398.366C556.879 398.269 559.839 398.109 561.318 398.012C572.159 399.041 587.857 393.83 586.345 380.416C587.535 370.477 574.507 369.962 567.849 367.453C577.531 357.577 589.433 349.117 603.683 348.024C610.374 349.117 617.033 350.726 623.466 352.977C621.568 353.106 617.74 353.331 615.843 353.46C617.612 360.215 622.694 367.935 618.03 374.626C609.859 387.3 599.276 399.17 586.313 407.019C578.946 407.502 571.741 405.346 564.6 404.06C565.725 413.646 565.05 424.197 570.744 432.496C575.279 439.315 581.069 445.234 586.892 450.96C584.608 450.671 580.008 450.027 577.724 449.705C600.37 475.858 644.697 464.985 660.974 437.289C681.464 405.732 666.732 359.282 633.02 343.617C619.67 336.636 604.037 335.543 589.722 339.982C585.219 340.979 580.812 342.266 576.469 343.649Z"></path>
<path fill="#3F3735" d="M289.084 339.37C293.105 336.347 297.254 333.516 301.307 330.492C303.816 335.736 306.325 341.011 308.867 346.287C291.754 372.503 285.352 406.601 295.581 436.581C306.293 468.62 331.513 495.351 363.005 507.704C361.3 508.218 357.858 509.183 356.153 509.698C364.967 513.687 373.813 517.644 382.499 521.986C372.012 521.439 361.171 521.053 351.489 516.518C333.539 508.508 319.611 494.193 303.656 483.128C303.43 490.687 303.43 498.279 304.331 505.774C300.696 499.726 297.704 493.357 295.292 486.763C287.379 464.245 277.31 442.082 275.798 417.924C273.45 423.618 271.166 429.279 268.914 434.973C267.692 435.584 265.279 436.806 264.089 437.417C263.414 414.611 268.754 391.997 278.758 371.57C273.45 376.138 267.982 380.545 262.256 384.566C269.236 368.418 279.851 354.232 289.084 339.37Z"></path>
<path fill="#A77C3A" d="M399.162 333.645C402.636 333.355 406.142 333.034 409.68 332.744C411.836 333.227 416.178 334.192 418.333 334.674C403.182 340.046 388.257 347.477 378.06 360.312C374.328 364.654 370.725 369.158 367.38 373.822C358.116 392.994 356.507 417.055 367.959 435.68C376.001 449.706 391.184 459.324 407.493 459.71C422.29 460.192 441.526 461.736 450.308 447.003C457.288 438.093 464.14 429.086 470.606 419.79C477.458 409.85 477.232 397.433 476.332 385.917C478.776 394.635 479.967 403.674 480.417 412.713C475.656 426.609 470.574 441.278 459.54 451.507C434.546 474.217 391.216 473.22 368.152 448.161C350.942 429.183 349.527 400.039 359.177 377.168C366.672 358.253 382.82 344.807 399.162 333.645Z"></path>
<path fill="#F5E27C" d="M418.333 334.674C428.659 336.057 439.757 335.896 449.021 341.494C467.582 352.205 479.291 371.988 484.888 392.19C484.985 393.702 485.146 396.758 485.21 398.269C483.698 403.127 482.025 407.888 480.417 412.713C479.966 403.674 478.776 394.635 476.332 385.917C468.933 367.485 453.428 350.114 432.969 347.026C418.912 345.901 406.817 354.425 394.529 359.797C389.029 360.151 383.528 360.215 378.059 360.312C388.257 347.477 403.182 340.046 418.333 334.674Z"></path>
<path fill="#E6BC5C" d="M589.723 339.982C604.037 335.542 619.671 336.636 633.02 343.617C666.732 359.282 681.465 405.732 660.974 437.289C644.697 464.985 600.37 475.858 577.724 449.705C580.008 450.027 584.608 450.67 586.892 450.96C597.25 453.469 608.348 457.104 618.802 452.761C640.869 445.524 652.256 421.237 652.771 399.299C651.903 379.998 638.939 363.464 623.466 352.977C617.033 350.726 610.374 349.117 603.683 348.023C604.23 346.544 605.292 343.584 605.839 342.105C600.435 341.365 595.062 340.593 589.723 339.982Z"></path>
<path fill="#FCFBFA" d="M640.579 340.721C666.989 339.21 700.572 339.017 717.428 363.11C728.236 389.327 726.435 418.664 721.385 445.974C715.112 460.385 708.389 475.182 696.937 486.312C687.866 495.319 675.996 500.498 664.383 505.323C638.746 509.248 611.017 510.985 586.988 499.469C573.574 493.035 560.225 484.961 551.25 472.834C549.062 464.599 551.153 455.946 550.735 447.518C551.153 438.511 545.395 431.048 541.696 423.328C543.594 418.792 545.267 414.128 547.004 409.496C549.834 414.675 552.73 419.822 555.528 425.033C562.251 438.64 569.457 453.566 583.868 460.482C603.908 471.933 629.256 468.716 648.364 456.943C671.557 441.985 681.432 410.397 672.361 384.566C667.439 366.584 654.669 352.302 640.579 340.721Z"></path>
<path fill="#F0DEA8" d="M576.47 343.649C580.812 342.266 585.219 340.979 589.723 339.982C595.062 340.593 600.434 341.365 605.839 342.105C605.292 343.584 604.23 346.544 603.683 348.024C589.433 349.117 577.531 357.577 567.849 367.453C560.933 366.552 554.531 370.83 553.566 377.972C550.478 385.917 557.008 392.254 561.318 398.012C559.839 398.109 556.879 398.269 555.4 398.366C553.695 407.148 553.791 416.219 555.528 425.033C552.73 419.822 549.835 414.675 547.004 409.496C545.267 414.128 543.594 418.792 541.696 423.328L539.798 425.001C539.831 409.142 540.184 392.737 546.875 378.036C552.987 363.786 565.179 353.717 576.47 343.649Z"></path>
<path fill="#10101A" d="M394.529 359.797C406.817 354.425 418.912 345.901 432.97 347.026C453.428 350.115 468.933 367.485 476.332 385.917C477.232 397.433 477.457 409.85 470.606 419.79C470.413 416.573 470.252 413.388 470.123 410.172C457.192 408.467 444.1 408.981 431.233 410.911C415.374 413.356 399.58 409.786 384.075 406.923C386.938 419.629 392.149 431.659 399.869 442.178C398.422 443.015 395.559 444.72 394.111 445.588C379.893 432.785 375.936 413.099 376.773 394.731C378.799 394.828 382.853 394.988 384.879 395.085C390.83 395.021 398.422 396.886 402.957 391.739C408.104 386.786 411.353 377.618 405.949 371.667C401.992 368.611 396.813 368.257 392.31 366.681C392.985 364.397 393.725 362.113 394.529 359.797ZM457.192 391.353C455.005 394.345 454.2 398.012 453.042 401.454C458.061 404.767 463.915 405.25 469.769 404.446C469.705 400.071 469.673 395.728 469.609 391.353C465.427 391.257 461.309 391.032 457.192 391.353Z"></path>
<path fill="#332A2A" d="M711.959 347.509C722.961 355.133 732.386 366.359 746.218 368.804C748.823 373.34 750.947 378.165 753.102 382.99C747.569 379.934 742.165 376.653 736.825 373.34C742.551 395.246 746.379 417.795 746.025 440.506C742.776 440.28 739.559 440.055 736.375 439.862C733.319 464.503 731.582 490.205 719.583 512.529C717.717 512.979 713.954 513.88 712.088 514.33C711.927 509.57 711.863 504.809 711.863 500.08C700.958 513.783 687.448 525.01 674.999 537.234C676.028 532.827 677.058 528.452 678.151 524.045C660.298 530.189 642.091 538.617 622.726 534.982C591.878 532.537 564.31 515.488 544.688 492.167C535.263 506.514 526.481 521.278 518.889 536.655C516.058 541.641 513.839 547.592 508.467 550.358C499.846 530.897 490.968 511.435 478.229 494.258C460.666 509.248 441.462 523.369 418.751 529.16C404.598 533.277 389.736 532.569 375.261 531.25C365.546 528.13 355.896 524.881 346.213 521.825C344.09 524.527 341.999 527.23 339.908 529.932C329.808 519.831 320.447 508.926 312.856 496.799C311.44 502.042 309.864 507.253 308.288 512.465C307.291 510.792 305.296 507.446 304.331 505.774C303.43 498.279 303.43 490.687 303.656 483.128C319.611 494.193 333.539 508.508 351.489 516.518C361.171 521.053 372.012 521.439 382.499 521.986C373.813 517.644 364.967 513.687 356.153 509.698C357.858 509.183 361.3 508.218 363.005 507.704C399 517.933 439.628 507.093 465.201 479.686C471.217 473.863 469.094 465.049 469.994 457.587C470.22 445.106 479.677 435.68 483.505 424.325C486.464 415.962 485.306 406.923 485.21 398.269C485.145 396.758 484.985 393.702 484.888 392.19C488.04 403.545 489.231 415.254 491.032 426.866L491.45 428.668C483.698 436.742 474.723 445.588 474.112 457.458C474.627 474.957 484.663 490.076 494.41 503.908C500.361 512.754 505.797 521.954 511.169 531.186C523.135 511.66 539.058 493.55 543.819 470.55C546.972 457.072 550.703 440.763 538.672 430.405C537.933 429.536 536.517 427.735 535.809 426.866C536.807 426.384 538.801 425.483 539.798 425.001L541.696 423.328C545.395 431.048 551.153 438.511 550.735 447.518C551.153 455.946 549.062 464.599 551.25 472.834C560.225 484.961 573.574 493.035 586.988 499.469C611.017 510.985 638.746 509.248 664.383 505.323C667.021 505.645 672.232 506.321 674.87 506.642C649.072 518.673 620.249 513.687 592.907 512.915C619.831 525.878 651.356 523.305 678.827 513.526C698.771 506.063 716.109 490.044 722.575 469.424C725.052 461.704 722.317 453.694 721.385 445.974C726.435 418.664 728.236 389.327 717.428 363.11C715.562 357.931 713.825 352.688 711.959 347.509Z"></path>
<path fill="#030305" d="M615.843 353.46C617.741 353.331 621.569 353.106 623.466 352.977C638.939 363.464 651.903 379.998 652.771 399.299C652.256 421.237 640.869 445.524 618.802 452.761C608.348 457.104 597.25 453.469 586.892 450.96C581.07 445.234 575.279 439.315 570.744 432.496C565.05 424.197 565.726 413.646 564.6 404.06C571.741 405.346 578.946 407.502 586.313 407.019C599.276 399.17 609.86 387.3 618.03 374.626C622.694 367.935 617.612 360.215 615.843 353.46ZM628.099 406.987C633.31 409.046 638.746 407.727 643.861 405.893C643.925 402.065 643.571 398.302 642.799 394.602C634.918 392.962 625.493 397.819 628.099 406.987Z"></path>
<path fill="#FCFAFA" d="M378.06 360.312C383.528 360.215 389.029 360.151 394.529 359.797C393.725 362.113 392.985 364.397 392.31 366.681C396.813 368.257 401.992 368.611 405.949 371.667C411.353 377.618 408.104 386.786 402.957 391.739C398.422 396.886 390.83 395.021 384.879 395.085C376.226 390.71 371.208 382.346 367.38 373.822C370.725 369.158 374.328 364.654 378.06 360.312Z"></path>
<path fill="#FFFFFE" d="M553.566 377.972C554.531 370.83 560.932 366.552 567.848 367.453C574.507 369.962 587.535 370.477 586.345 380.416C587.857 393.83 572.159 399.041 561.318 398.012C557.008 392.254 550.478 385.917 553.566 377.972Z"></path>
<path fill="#D3D4DF" d="M513.196 387.751C524.004 382.346 532.464 373.372 542.372 366.584C537.289 385.209 531.499 403.77 530.148 423.135C521.173 423.65 512.231 424.1 503.352 425.258L500.329 425.58C498.334 425.773 494.345 426.159 492.383 426.352C493.155 411.008 492.351 395.599 488.62 380.641C496.533 383.569 504.382 389.23 513.196 387.751Z"></path>
<path fill="#F5E185" d="M367.959 435.68C356.507 417.055 358.116 392.994 367.38 373.822C371.208 382.346 376.226 390.71 384.879 395.085C382.853 394.988 378.799 394.827 376.773 394.731C375.937 413.099 379.893 432.785 394.111 445.588C410.838 456.364 432.745 455.335 450.308 447.003C441.526 461.736 422.29 460.192 407.493 459.709C391.184 459.323 376.001 449.705 367.959 435.68Z"></path>
<path fill="#EEF0ED" d="M457.192 391.353C461.309 391.032 465.427 391.257 469.609 391.353C469.673 395.728 469.705 400.071 469.769 404.446C463.915 405.25 458.061 404.767 453.042 401.454C454.2 398.012 455.005 394.345 457.192 391.353Z"></path>
<path fill="#F9F9F8" d="M628.098 406.987C625.493 397.819 634.918 392.962 642.799 394.602C643.571 398.302 643.925 402.065 643.861 405.893C638.746 407.727 633.31 409.046 628.098 406.987Z"></path>
<path fill="#000001" d="M384.075 406.923C399.58 409.785 415.374 413.356 431.233 410.911C444.1 408.981 457.192 408.467 470.123 410.171C470.252 413.388 470.413 416.573 470.606 419.79C464.14 429.086 457.288 438.093 450.308 447.003C432.744 455.335 410.838 456.364 394.111 445.588C395.559 444.719 398.422 443.015 399.869 442.178C392.149 431.659 386.938 419.629 384.075 406.923Z"></path>
<path fill="#D99942" d="M500.328 425.58L503.352 425.258C514.16 425.515 524.969 426.191 535.809 426.867C536.517 427.735 537.933 429.536 538.672 430.405C534.008 444.301 531.242 458.712 528.732 473.124C525.998 489.014 518.117 503.297 508.95 516.325C502.709 492.199 509.947 465.693 498.366 442.95C498.27 439.734 498.205 436.549 498.141 433.364C496.468 432.206 493.123 429.858 491.45 428.668L491.032 426.867C494.088 426.416 497.176 425.966 500.328 425.58ZM511.619 439.219C510.558 446.167 511.266 453.18 511.555 460.16C515.673 459.581 519.854 459.131 523.94 458.069C529.891 454.499 531.113 446.006 526.803 440.666C523.779 435.648 514.514 432.657 511.619 439.219Z"></path>
<path fill="#E2A74E" d="M474.112 457.458C474.723 445.588 483.698 436.742 491.45 428.668C493.123 429.858 496.468 432.206 498.141 433.364C498.206 436.549 498.27 439.734 498.366 442.95C497.82 463.312 498.366 483.835 494.41 503.908C484.663 490.076 474.627 474.957 474.112 457.458Z"></path>
<path fill="#B46C32" d="M538.672 430.405C550.703 440.763 546.972 457.072 543.819 470.55C539.058 493.55 523.136 511.66 511.169 531.186C505.797 521.954 500.361 512.754 494.41 503.908C498.366 483.835 497.819 463.312 498.366 442.95C509.947 465.693 502.709 492.199 508.95 516.325C518.117 503.297 525.998 489.014 528.733 473.124C531.242 458.712 534.008 444.301 538.672 430.405Z"></path>
<path fill="#362B29" d="M631.187 690.062C643.539 700.13 659.108 711.035 675.578 703.283C678.763 702.35 681.979 701.417 685.228 700.452C679.342 703.476 673.519 706.564 667.632 709.459C651.999 713.673 639.293 701.9 631.187 690.062Z"></path>
<path fill="#362B29" d="M391.57 724.61C401.767 732.845 411.031 743.46 424.317 746.581C436.154 750.698 448.088 745.39 459.411 742.109C450.662 748.06 440.658 752.918 429.785 751.695C412.64 752.403 398.325 739.439 391.57 724.61Z"></path>
<path fill="#362B29" d="M494.667 734.518C502.741 741.337 510.14 750.183 520.948 752.66C531.628 756.006 542.468 750.762 552.955 748.736C542.919 757.164 528.894 761.024 516.38 756.231C506.441 752.274 500.168 743.171 494.667 734.518Z"></path>
<path fill="#362B29" d="M592.071 740.79C601.078 744.811 609.184 752.499 619.638 751.92C630.382 752.081 639.55 745.583 649.104 741.595C639.228 751.727 624.882 761.41 610.181 756.167C601.914 754.269 596.445 747.513 592.071 740.79Z"></path>
<path fill="#362B29" d="M637.523 770.256C646.852 776.915 656.052 785.922 668.597 784.024C669.916 784.056 672.554 784.088 673.841 784.12C673.519 785.021 672.876 786.855 672.554 787.787C665.22 787.53 657.725 788.27 650.616 786.276C644.021 783.22 641.126 776.046 637.523 770.256Z"></path>
<path fill="#362B29" d="M445.354 772.99C452.174 780.517 458.736 789.428 469.222 791.873C482.282 796.312 495.439 790.94 507.534 786.05C491.096 806.252 450.276 800.687 445.354 772.99Z"></path>
<path fill="#362B29" d="M358.759 775.789C364.774 782.898 369.728 791.487 378.22 796.022C386.97 798.982 396.331 796.698 405.337 796.826C388.482 813.2 360.335 797.341 358.759 775.789Z"></path>
<path fill="#EBC963" d="M511.619 439.219C514.514 432.657 523.779 435.648 526.803 440.666C531.113 446.006 529.891 454.498 523.94 458.069C519.854 459.131 515.673 459.581 511.555 460.16C511.266 453.18 510.558 446.167 511.619 439.219Z"></path>
<path fill="#F3F3F3" d="M759.536 444.88C762.238 446.264 764.94 447.647 767.706 449.03C760.629 481.23 740.75 508.411 723.862 536.076C720.291 542.927 719.808 550.873 716.688 557.885C712.539 562.871 705.365 562.067 699.607 563C690.439 572.039 681.658 581.657 670.914 588.863C659.719 592.691 647.978 594.524 636.462 596.872C638.07 602.791 639.711 608.71 641.384 614.661C621.247 614.5 601.078 613.342 580.973 614.532C571.869 609.547 562.766 604.528 553.148 600.668C558.166 608.356 564.021 615.498 570.197 622.285C546.2 613.535 526.32 596.615 512.359 575.384C526.61 556.856 537.322 536.011 547.551 515.07C569.682 524.978 589.304 540.708 613.72 545.083C614.299 543.249 615.424 539.55 615.971 537.716C633.342 538.842 650.391 542.959 667.793 543.603C681.432 543.828 690.439 532.119 700.283 524.495C704.851 526.972 709.451 529.449 714.083 531.958C729.041 516.293 738.401 496.606 750.786 479.042C757.927 469.135 758.378 456.557 759.536 444.88Z"></path>
<path fill="#CBCCD2" d="M235.557 448.161C237.68 453.373 240.028 458.487 242.376 463.634C242.891 459.227 243.47 454.852 244.049 450.445C252.638 475.536 262.127 500.788 277.986 522.308C287.379 535.271 301.082 544.278 310.765 557.049C317.681 566.056 324.597 575.899 335.566 580.37C359.595 592.658 387.774 589.152 412.511 599.253C407.975 602.373 403.697 606.105 398.454 607.874C380.376 607.681 361.815 607.295 344.863 600.379C328.103 593.495 312.598 583.716 298.895 571.91C264.186 539.936 240.092 495.416 235.557 448.161Z"></path>
<path fill="#443B3A" d="M696.937 486.312C708.389 475.182 715.112 460.385 721.385 445.974C722.318 453.694 725.052 461.704 722.575 469.424C716.109 490.044 698.771 506.063 678.827 513.526C651.356 523.305 619.831 525.879 592.907 512.915C620.25 513.687 649.072 518.673 674.87 506.642C672.232 506.321 667.021 505.645 664.384 505.323C675.996 500.498 687.866 495.319 696.937 486.312Z"></path>
<path fill="#C9CAD1" d="M518.889 536.654C526.481 521.278 535.263 506.513 544.688 492.167C564.31 515.488 591.878 532.537 622.727 534.982C642.092 538.617 660.298 530.189 678.151 524.045C677.058 528.452 676.028 532.827 674.999 537.234C687.448 525.01 700.958 513.783 711.863 500.08C711.863 504.809 711.927 509.569 712.088 514.33C713.954 513.88 717.718 512.979 719.583 512.529C713.182 516.646 706.427 520.088 700.283 524.495C690.439 532.119 681.432 543.828 667.793 543.603C650.391 542.959 633.342 538.842 615.971 537.716C615.424 539.55 614.299 543.249 613.72 545.082C589.304 540.708 569.682 524.978 547.551 515.07C537.322 536.011 526.61 556.856 512.359 575.384C509.625 576.446 506.955 577.54 504.318 578.633C497.755 555.698 491.032 532.698 480.32 511.274C457.642 520.571 437.152 535.529 412.64 540C397.457 542.799 378.799 545.436 367.444 532.408C369.406 532.119 373.331 531.54 375.261 531.25C389.736 532.569 404.598 533.277 418.752 529.159C441.462 523.369 460.666 509.248 478.229 494.258C490.968 511.435 499.846 530.897 508.467 550.358C513.839 547.592 516.059 541.64 518.889 536.654Z"></path>
<path fill="#9E9DA0" d="M346.213 521.825C355.896 524.881 365.546 528.13 375.261 531.25C373.331 531.54 369.406 532.119 367.444 532.408C358.244 533.92 348.079 535.85 339.909 529.931C341.999 527.229 344.09 524.527 346.213 521.825Z"></path>
<path fill="#514A70" d="M238.677 549.425C237.905 541.319 245.271 535.046 249.132 528.516C266.052 541.673 273.997 563 291.528 575.61C304.588 585.71 318.421 594.749 332.51 603.402C336.241 628.075 336.885 653.423 332.317 678.031C329.808 690.77 325.626 704.023 315.879 713.126C306.486 722.037 295.485 729.66 288.794 741.016C277.536 759.351 267.371 778.33 255.79 796.473C251.062 788.978 246.365 781.482 242.601 773.505C244.113 773.762 247.137 774.341 248.617 774.631C246.622 750.441 247.201 726.122 248.971 701.932C247.491 702.286 244.531 702.993 243.052 703.347C230.667 710.842 230.217 727.634 224.073 739.536C223.462 737.606 222.239 733.746 221.66 731.816C219.441 703.315 216.899 674.396 222.561 646.121C228.062 608.903 241.09 573.551 252.155 537.78C248.199 543.635 244.113 549.361 240.157 555.215C239.771 553.768 239.063 550.873 238.677 549.425Z"></path>
<path fill="#C0C3D5" d="M240.157 555.215C244.113 549.361 248.199 543.635 252.155 537.78C241.09 573.551 228.062 608.903 222.561 646.121C216.9 674.396 219.441 703.315 221.66 731.816C200.558 673.624 217.157 610.222 240.157 555.215Z"></path>
<path fill="#4E456C" d="M732.933 586.643C749.338 573.261 760.565 555.022 774.043 538.939C775.748 542.509 777.485 546.08 779.222 549.683C780.605 556.985 781.699 564.383 783.629 571.589C774.59 573.647 765.647 575.996 756.737 578.44C763.106 584.552 770.279 590.182 775.008 597.773C778.386 603.499 773.882 610.158 769.539 613.889C759.953 614.05 750.657 611.284 741.457 609.032C746.99 615.272 753.295 621.191 756.994 628.815C758.667 635.634 758.12 642.744 758.345 649.724C751.011 649.338 743.709 649.016 736.439 648.791C744.545 661.948 758.667 670.987 764.36 685.591C764.264 699.359 763.781 713.126 763.91 726.894C762.366 724.321 760.918 721.779 759.471 719.206C755.45 728.921 748.47 736.834 738.594 740.662L737.919 737.895C736.471 717.533 719.873 703.605 713.053 685.301C701.441 659.342 700.25 630.327 703.403 602.438C713.632 598.063 724.28 593.945 732.933 586.643Z"></path>
<path fill="#18122D" d="M238.677 549.425C239.063 550.873 239.771 553.768 240.157 555.215C217.157 610.222 200.559 673.624 221.661 731.816C222.24 733.746 223.462 737.606 224.073 739.536C230.217 727.634 230.667 710.842 243.052 703.347C238.709 726.411 235.107 750.634 242.602 773.505C246.365 781.482 251.062 788.978 255.79 796.473C267.371 778.33 277.536 759.351 288.794 741.016C295.485 729.66 306.487 722.037 315.88 713.126C325.626 704.023 329.808 690.77 332.317 678.031C336.885 653.423 336.242 628.075 332.51 603.402C318.421 594.749 304.589 585.71 291.529 575.61C293.362 574.677 297.029 572.843 298.895 571.91C312.598 583.716 328.103 593.495 344.863 600.379C361.815 607.295 380.376 607.681 398.454 607.874C396.009 608.485 391.152 609.707 388.739 610.318C373.492 611.637 358.309 609.386 343.608 605.558C346.021 642.84 343.415 680.766 331.32 716.375C336.885 719.946 342.482 723.452 348.433 726.476C356.379 726.991 364.388 726.894 372.398 726.958C370.082 727.73 367.798 728.535 365.514 729.339C352.969 730.915 341.228 726.572 331.481 718.852C322.474 738.893 315.204 759.705 304.685 779.038C301.179 786.404 294.713 796.119 302.401 803.196C330.548 835.267 372.398 850.514 412.833 860.261C470.091 878.725 532.046 878.05 590.495 865.826C633.117 856.465 676.221 840.285 707.681 808.986C712.281 803.356 719.873 797.341 717.846 789.203C714.662 774.952 708.839 761.442 705.011 747.353C698.9 727.666 696.423 707.111 694.654 686.652C696.326 682.792 698.095 678.932 699.961 675.136C701.827 681.859 704.175 688.486 706.523 695.112C707.199 709.652 706.877 725.221 715.53 737.734C728.204 757.26 738.98 777.944 751.719 797.405C759.632 782.962 766.612 767.522 767.964 750.891C769.508 736.062 770.505 721.2 772.563 706.468C778.675 711.775 784.787 717.147 790.867 722.551C793.312 720.493 795.821 718.434 798.362 716.375C800.195 719.206 802.061 722.004 803.991 724.835C804.216 723.806 804.699 721.779 804.956 720.75L805.632 718.273C807.305 720.042 810.618 723.581 812.258 725.35C806.983 737.123 800.646 752.821 785.077 752.049C782.503 788.624 778.032 826.646 757.155 857.913C739.013 845.078 730.585 823.654 721.449 804.289C709.097 815.291 698.031 827.932 683.652 836.393C668.501 845.432 652.61 853.474 635.948 859.264C634.307 859.811 631.058 860.872 629.417 861.387C621.762 863.832 614.106 866.083 606.418 868.206C603.201 869.075 599.984 869.879 596.832 870.683C591.395 871.906 585.927 873.032 580.491 873.836C565.404 875.83 550.221 877.406 535.327 880.462C532.11 882.006 529.408 884.194 527.157 886.992C526.931 889.083 526.481 893.233 526.256 895.324C525.323 890.531 524.487 885.706 523.779 880.913C505.862 882.457 486.818 877.052 469.705 882.746C467.454 881.556 465.202 880.43 462.95 879.336C456.291 876.795 449.375 874.962 442.524 873.192C428.209 869.783 414.12 865.633 399.869 862.159C390.83 860.036 381.887 857.752 373.074 854.921C371.626 854.406 368.699 853.409 367.219 852.927C339.266 842.022 312.18 825.906 293.877 801.619C282.554 817.768 272.775 835.17 258.943 849.388C256.337 852.251 252.059 851.833 248.714 852.991C238.581 829.67 232.533 804.482 231.826 779.038C231.633 769.838 230.539 760.67 229.156 751.599C224.684 748.639 219.345 746.195 217.189 740.951C207.249 719.785 205.512 695.852 205.931 672.788C205.416 642.454 212.396 612.474 222.529 584.038C226.775 572.039 231.086 559.815 238.677 549.425Z"></path>
<path fill="#9290A8" d="M783.629 571.589C781.699 564.383 780.605 556.985 779.222 549.682C805.825 600.54 821.941 661.722 805.632 718.273L804.956 720.75C804.345 693.375 806.854 665.711 801.933 638.562C798.072 615.658 790.416 593.688 783.629 571.589Z"></path>
<path fill="#392F55" d="M756.737 578.44C765.647 575.996 774.59 573.647 783.629 571.589C790.416 593.688 798.072 615.658 801.932 638.562C806.854 665.711 804.345 693.375 804.956 720.75C804.699 721.779 804.216 723.806 803.991 724.835C802.061 722.005 800.195 719.206 798.362 716.375C795.82 718.434 793.311 720.493 790.867 722.551C784.787 717.147 778.675 711.775 772.563 706.468C770.504 721.2 769.507 736.062 767.963 750.891C767.416 729.146 770.247 706.821 764.36 685.591C758.667 670.987 744.545 661.948 736.439 648.791C743.709 649.016 751.011 649.338 758.345 649.724C758.12 642.744 758.667 635.635 756.994 628.815C753.295 621.191 746.99 615.272 741.457 609.032C750.657 611.284 759.953 614.05 769.539 613.889C773.882 610.158 778.386 603.499 775.008 597.773C770.279 590.182 763.106 584.552 756.737 578.44Z"></path>
<path fill="#87858F" d="M504.317 578.633C506.955 577.54 509.625 576.446 512.359 575.384C526.32 596.615 546.2 613.535 570.197 622.285C564.021 615.497 558.166 608.356 553.148 600.668C562.766 604.528 571.869 609.546 580.973 614.532C594.676 622.703 610.76 624.311 626.394 624.826C620.7 622.446 615.006 620.162 609.345 617.846C626.94 617.234 644.568 616.366 662.228 615.98C648.525 622.574 634.371 628.847 619.188 630.841C607.125 632.321 595.352 628.429 583.9 625.309C583.289 626.788 582.067 629.716 581.455 631.163C569.103 628.011 556.622 624.665 545.717 617.974C531.692 609.804 520.659 597.709 509.818 585.903C499.235 596.679 489.392 609.128 475.141 615.176C463.432 619.969 451.723 624.89 439.532 628.204C437.795 628.139 434.321 628.011 432.583 627.946C444.421 619.068 457.385 611.862 470.284 604.625C470.445 606.619 470.734 610.64 470.895 612.667C474.08 610.318 477.329 608.002 480.481 605.558C489.938 598.063 497.434 588.509 504.317 578.633Z"></path>
<path fill="#ACADB3" d="M429.688 615.079C446.769 607.198 462.885 597.419 479.612 588.83C479.87 594.395 480.159 599.96 480.481 605.558C477.329 608.002 474.08 610.318 470.895 612.667C470.734 610.64 470.445 606.619 470.284 604.625C457.385 611.862 444.421 619.068 432.583 627.946C434.32 628.011 437.795 628.139 439.532 628.204C428.949 631.227 418.108 628.268 407.589 626.756C418.623 623.893 429.785 621.062 440.046 615.883C437.441 615.69 432.294 615.272 429.688 615.079Z"></path>
<path fill="#8E88AB" d="M695.297 612.892C695.168 607.777 699.832 605.172 703.403 602.437C700.25 630.327 701.441 659.342 713.053 685.301C719.873 703.605 736.471 717.533 737.919 737.895C726.113 724.674 716.206 709.909 706.523 695.112C704.175 688.486 701.827 681.859 699.961 675.136C695.715 654.742 692.884 633.672 695.297 612.892Z"></path>
<path fill="#F1F1F2" d="M436.572 641.232C462.725 637.822 485.017 622.446 503.899 604.914C529.923 629.426 563.988 646.957 600.402 646.378C624.946 648.083 648.268 639.559 670.656 630.681C672.972 654.839 674.291 679.061 675.578 703.283C659.108 711.035 643.539 700.131 631.187 690.062C639.293 701.9 651.999 713.673 667.632 709.459C671.364 720.493 673.97 731.88 674.806 743.525C675.771 757.228 678.473 772.669 668.597 784.024C656.052 785.922 646.852 776.915 637.524 770.256C641.126 776.046 644.021 783.22 650.616 786.275C657.725 788.27 665.22 787.53 672.554 787.787C666.217 805.319 648.332 815.484 633.503 825.231C617.194 835.46 601.303 820.888 587.471 813.361C590.012 818.154 592.585 822.947 595.513 827.579C585.412 835.621 573.253 840.542 560.418 841.7C539.959 843.984 518.342 849.195 498.366 841.861C492.222 839.963 490.453 833.208 487.654 828.222C468.997 839.288 447.574 845.271 425.796 843.856C411.835 842.183 402.764 830.409 393.725 820.92C382.37 821.917 370.371 824.812 359.434 820.309C346.567 815.098 335.759 806.187 324.79 797.985C325.047 796.698 325.562 794.124 325.819 792.838C328.875 794.639 331.963 796.473 335.116 798.274C341.26 778.073 343.962 757.067 348.143 736.416C353.901 734.067 359.692 731.623 365.514 729.339C367.798 728.535 370.082 727.73 372.398 726.958C364.388 726.894 356.378 726.991 348.433 726.476C349.591 716.44 350.91 706.403 352.357 696.399C354.159 696.882 357.826 697.847 359.66 698.329C367.058 703.926 374.778 710.971 384.782 710.521C395.687 711.582 403.472 702.897 411.096 696.56C402.442 699.359 393.95 703.186 384.782 703.765C375.1 704.119 367.187 697.589 359.274 692.989C357.633 673.592 357.569 654.099 359.306 634.734C384.654 639.623 410.71 644.641 436.572 641.232ZM454.747 699.198C461.374 710.167 473.758 718.048 486.882 716.247C495.857 715.828 502.709 709.298 508.017 702.672C498.302 705.47 488.684 711.518 478.262 709.202C469.995 706.918 462.564 702.511 454.747 699.198ZM550.735 698.619C564.342 720.042 597.925 717.565 613.816 699.905C603.169 703.444 592.457 708.237 581.005 707.336C570.261 707.111 560.804 701.482 550.735 698.619ZM391.57 724.61C398.325 739.439 412.64 752.403 429.785 751.695C440.658 752.918 450.662 748.06 459.411 742.109C448.088 745.39 436.154 750.698 424.317 746.581C411.031 743.46 401.767 732.845 391.57 724.61ZM494.667 734.518C500.168 743.171 506.441 752.274 516.38 756.231C528.894 761.024 542.919 757.164 552.955 748.736C542.468 750.762 531.628 756.006 520.948 752.66C510.14 750.183 502.741 741.337 494.667 734.518ZM592.071 740.79C596.445 747.513 601.914 754.269 610.181 756.167C624.882 761.41 639.228 751.727 649.104 741.595C639.55 745.583 630.382 752.081 619.638 751.92C609.184 752.499 601.078 744.811 592.071 740.79ZM445.354 772.99C450.276 800.687 491.097 806.252 507.534 786.05C495.439 790.94 482.283 796.312 469.222 791.873C458.736 789.428 452.174 780.517 445.354 772.99ZM358.759 775.789C360.335 797.341 388.482 813.2 405.338 796.826C396.331 796.698 386.97 798.982 378.22 796.022C369.728 791.487 364.774 782.898 358.759 775.789ZM544.559 779.359C546.746 786.983 550.8 794.703 558.777 797.534C574.218 803.871 591.749 796.923 601.335 783.895C590.977 788.913 580.04 794.639 568.138 792.999C558.52 792.355 551.893 784.603 544.559 779.359ZM494.088 811.495C496.661 819.569 502.226 826.356 510.011 829.863C524.293 838.451 543.465 831.728 553.019 819.022C548.451 822.303 544.173 825.97 539.316 828.737C530.824 830.088 522.106 830.056 513.678 828.672C505.797 824.684 500.65 817.156 494.088 811.495Z"></path>
<path fill="#818088" d="M411.096 618.618C417.304 617.717 423.48 616.334 429.689 615.079C432.294 615.272 437.441 615.69 440.047 615.883C429.785 621.062 418.623 623.893 407.59 626.756C396.974 628.461 385.941 628.783 376.419 623.089C387.903 621.159 399.547 620.194 411.096 618.618Z"></path>
<path fill="#43395E" d="M764.361 685.591C770.247 706.821 767.417 729.146 767.963 750.891C766.612 767.522 759.632 782.962 751.719 797.405C738.98 777.944 728.204 757.26 715.53 737.734C706.877 725.221 707.199 709.652 706.523 695.112C716.206 709.909 726.113 724.674 737.919 737.895L738.594 740.662C748.47 736.834 755.45 728.92 759.471 719.206C760.919 721.779 762.366 724.321 763.91 726.894C763.782 713.126 764.264 699.358 764.361 685.591Z"></path>
<path fill="#5E595A" d="M359.66 698.329C359.563 696.978 359.37 694.34 359.274 692.989C367.187 697.589 375.1 704.119 384.782 703.765C393.95 703.186 402.442 699.358 411.096 696.56C403.472 702.897 395.687 711.582 384.782 710.521C374.778 710.971 367.058 703.926 359.66 698.329Z"></path>
<path fill="#514B4D" d="M454.747 699.198C462.564 702.511 469.994 706.918 478.261 709.202C488.684 711.518 498.302 705.47 508.017 702.672C502.709 709.298 495.857 715.828 486.882 716.247C473.758 718.048 461.373 710.167 454.747 699.198Z"></path>
<path fill="#504D4E" d="M550.735 698.619C560.804 701.482 570.261 707.111 581.005 707.336C592.457 708.237 603.169 703.444 613.816 699.905C597.925 717.565 564.342 720.042 550.735 698.619Z"></path>
<path fill="#827796" d="M243.052 703.347C244.532 702.993 247.491 702.286 248.971 701.932C247.202 726.122 246.622 750.441 248.617 774.631C247.137 774.341 244.113 773.762 242.601 773.505C235.106 750.634 238.709 726.411 243.052 703.347Z"></path>
<path fill="#4A4648" d="M544.559 779.359C551.893 784.603 558.52 792.355 568.138 792.998C580.04 794.639 590.977 788.913 601.335 783.895C591.749 796.923 574.218 803.871 558.777 797.534C550.8 794.703 546.746 786.983 544.559 779.359Z"></path>
<path fill="#E2E3E5" d="M425.796 843.855C447.574 845.271 468.997 839.288 487.654 828.222C490.453 833.208 492.222 839.963 498.366 841.861C518.342 849.195 539.959 843.984 560.418 841.7C573.253 840.542 585.412 835.621 595.513 827.579C597.571 830.249 599.823 832.822 602.075 835.395C566.497 848.809 528.057 855.886 490.067 850.514C468.772 847.072 447.188 846.332 425.796 843.855Z"></path>
<path fill="#7E4D2F" d="M367.219 852.927C368.699 853.409 371.626 854.406 373.073 854.921C372.141 856.465 370.307 859.553 369.374 861.065C362.426 870.844 358.566 882.392 359.981 894.455C365.9 894.97 371.883 895.871 377.899 895.388C389.736 888.311 396.299 875.09 399.869 862.159C414.119 865.633 428.209 869.783 442.523 873.192C439.082 876.859 435.672 880.527 432.552 884.419C428.241 893.329 425.41 902.851 422.805 912.34C435.221 911.086 448.571 908.995 457.224 898.991C459.444 892.525 461.181 885.899 462.95 879.336C465.202 880.43 467.453 881.556 469.705 882.746C467.582 898.991 456.42 914.721 439.371 917.166C419.395 919.9 393.275 922.023 380.376 903.012C371.497 901.436 359.241 902.401 354.288 893.297C350.846 878.307 361.236 865.633 367.219 852.927ZM400.287 873.546C395.237 882.071 387.742 890.241 387.356 900.599C389.35 903.752 391.538 906.84 393.886 909.799C400.641 910.507 407.364 911.408 414.119 912.34C420.617 901.661 428.016 891.013 430.589 878.564C424.413 868.657 410.002 870.201 400.287 873.546Z"></path>
<path fill="#D6953E" d="M373.073 854.921C381.887 857.752 390.83 860.036 399.869 862.159C396.298 875.09 389.736 888.311 377.899 895.388C371.883 895.871 365.9 894.97 359.981 894.455C365.771 892.686 371.626 890.949 377.513 889.244C378.574 883.068 380.086 876.892 380.118 870.587C376.901 867.016 373.041 864.089 369.374 861.065C370.307 859.553 372.141 856.465 373.073 854.921Z"></path>
<path fill="#814622" d="M629.417 861.387C631.058 860.872 634.307 859.811 635.947 859.264C640.419 869.557 647.238 879.723 646.852 891.367C645.437 902.529 632.634 902.529 624.013 903.044C617.805 909.638 611.307 917.262 601.753 918.484C585.283 920.929 568.17 921.637 551.958 917.294C540.763 914.206 529.762 906.904 526.256 895.324C526.481 893.233 526.931 889.083 527.156 886.992C532.721 894.327 537.225 903.205 545.428 908.03C555.303 913.08 566.723 913.048 577.531 914.271C577.595 912.694 577.692 909.574 577.724 907.998C577.917 903.913 578.174 899.859 578.496 895.806C579.944 896.289 582.871 897.222 584.318 897.704C586.409 902.98 586.248 912.726 594.097 912.437C603.072 912.726 616.293 908.738 616.582 897.929C615.36 885.963 604.616 878.532 596.831 870.683C599.984 869.879 603.201 869.075 606.418 868.206C613.334 877.471 619.928 886.96 626.233 896.643C631.669 895.774 637.137 894.873 642.67 893.941C641.158 882.071 636.494 870.973 629.417 861.387Z"></path>
<path fill="#F3D46F" d="M369.374 861.065C373.041 864.089 376.901 867.016 380.118 870.587C380.086 876.892 378.574 883.068 377.512 889.244C371.626 890.949 365.771 892.686 359.981 894.455C358.566 882.392 362.426 870.844 369.374 861.065Z"></path>
<path fill="#E6B253" d="M606.417 868.206C614.106 866.083 621.761 863.832 629.417 861.387C636.494 870.973 641.158 882.071 642.67 893.941C637.137 894.873 631.669 895.774 626.233 896.643C619.928 886.96 613.334 877.471 606.417 868.206Z"></path>
<path fill="#DD9D43" d="M400.287 873.546C410.002 870.201 424.413 868.657 430.589 878.564C428.016 891.013 420.617 901.661 414.119 912.34C407.364 911.408 400.641 910.507 393.886 909.799C402.057 901.757 407.718 891.689 410.935 880.72C407.332 878.307 403.794 875.927 400.287 873.546Z"></path>
<path fill="#EAB54B" d="M580.49 873.836C585.927 873.032 591.395 871.906 596.831 870.683C604.616 878.532 615.36 885.963 616.582 897.929C616.293 908.738 603.072 912.726 594.097 912.437C586.248 912.726 586.409 902.98 584.318 897.704C582.774 889.791 581.681 881.813 580.49 873.836Z"></path>
<path fill="#EEC969" d="M387.356 900.599C387.742 890.241 395.237 882.071 400.287 873.546C403.793 875.927 407.332 878.307 410.935 880.72C407.718 891.689 402.056 901.757 393.886 909.799C391.538 906.84 389.35 903.752 387.356 900.599Z"></path>
<path fill="#D8913D" d="M432.551 884.419C435.672 880.527 439.081 876.859 442.523 873.192C449.375 874.962 456.291 876.795 462.95 879.336C461.18 885.899 459.443 892.525 457.224 898.991C455.873 895.002 454.554 891.045 453.267 887.089C446.351 886.188 439.435 885.287 432.551 884.419Z"></path>
<path fill="#D3973D" d="M535.327 880.462C550.221 877.406 565.404 875.83 580.49 873.836C581.681 881.813 582.774 889.791 584.318 897.704C582.871 897.222 579.944 896.289 578.496 895.806C578.174 899.859 577.917 903.912 577.724 907.998C572.223 899.795 566.497 891.464 558.681 885.32C551.765 880.977 543.144 881.331 535.327 880.462Z"></path>
<path fill="#EBB94E" d="M527.156 886.992C529.408 884.194 532.11 882.006 535.327 880.462C543.144 881.331 551.765 880.977 558.681 885.32C566.497 891.464 572.223 899.795 577.724 907.998C577.692 909.574 577.595 912.694 577.531 914.27C566.723 913.048 555.303 913.08 545.428 908.03C537.225 903.205 532.721 894.326 527.156 886.992Z"></path>
<path fill="#EFBE54" d="M432.551 884.419C439.435 885.287 446.351 886.188 453.267 887.089C454.554 891.045 455.873 895.002 457.224 898.991C448.571 908.995 435.221 911.086 422.804 912.34C425.41 902.851 428.241 893.329 432.551 884.419Z"></path>
</svg>
