<?xml version="1.0" encoding="utf-8"?>
<!-- Uploaded to: SVG Repo, www.svgrepo.com, Generator: SVG Repo Mixer Tools -->
<svg width="800px" height="800px" viewBox="0 0 1024 1024" class="icon"  version="1.1" xmlns="http://www.w3.org/2000/svg"><path d="M887.3 489L715.4 365.1s-38.5 14.2-51.4 5c-12.8-9.2-20.7-57.4-20.7-57.4l-101.8-59.9-89.9-12.4s-29.2 27.7-51.7 27.7c-22.4 0-48.1-27.7-48.1-27.7s-108.2 12.8-143 35.6-90.6 80.5-90.6 80.5L887.3 489z" fill="#FFFCEE" /><path d="M907.1 780.3V683s-48.9-30.6-48.9-65.7 48.9-61.7 48.9-61.7v-53.3L118.2 356.5v278l788.9 145.8z" fill="#FFDEB3" /><path d="M600.7 609.2c0 27.6 22.5 50.1 50.1 50.1s50.1-22.5 50.1-50.1-22.5-50.1-50.1-50.1-50.1 22.5-50.1 50.1z m25 0c0-13.9 11.3-25.2 25.2-25.2 13.9 0 25.2 11.3 25.2 25.2 0 13.9-11.3 25.2-25.2 25.2-14 0-25.2-11.3-25.2-25.2zM577.7 358c3-8.6 1.1-18.3-5.2-26.4-11.3-14.7-34.5-22.2-53.8-17.5-11.5 2.8-19.9 9.7-23.1 19-3 8.6-1.1 18.3 5.2 26.4 9.1 11.7 25.6 18.9 41.8 18.9 4.1 0 8.1-0.5 12-1.4 11.4-2.8 19.9-9.7 23.1-19z m-23.5-8.2c-0.1 0.4-1.5 2-5.5 3-9.4 2.3-22.9-1.7-28.1-8.5-1.3-1.6-1.4-2.7-1.4-2.9 0.1-0.4 1.5-2 5.5-3 1.8-0.4 3.8-0.7 5.8-0.7 8.5 0 18.1 3.7 22.3 9.2 1.2 1.6 1.4 2.7 1.4 2.9zM400 526.6c0 31.5 25.7 57.2 57.2 57.2 31.5 0 57.2-25.7 57.2-57.2 0-31.5-25.7-57.2-57.2-57.2-31.6 0-57.2 25.7-57.2 57.2z m24.9 0c0-17.8 14.5-32.2 32.2-32.2 17.8 0 32.2 14.5 32.2 32.2s-14.5 32.2-32.2 32.2c-17.7 0.1-32.2-14.4-32.2-32.2z" fill="#004364" /><path d="M102.8 355.5v283.8c0 6 4.3 11.2 10.2 12.3L214.2 670l131.2 24 561.1 102.4c0.8 0.1 1.5 0.2 2.2 0.2 2.9 0 5.7-1 8-2.9 2.8-2.4 4.5-5.9 4.5-9.6V675.5c0-6.3-4.6-11.5-10.8-12.4-23.5-3.2-41.2-23.3-41.2-46.8 0-23.5 17.7-43.7 41.2-46.8 6.2-0.8 10.8-6.1 10.8-12.4v-56.8c0-0.5-0.2-1-0.3-1.5-0.1-0.8-0.2-1.7-0.4-2.4-0.2-0.6-0.6-1.2-0.9-1.8-0.3-0.7-0.6-1.3-1.1-1.9-0.4-0.6-1-1-1.6-1.5-0.4-0.4-0.7-0.9-1.2-1.2L711.9 351.5c-4.8-3.2-11.2-2.8-15.5 1.2-4.5 4.2-10.3 6.4-16.2 6.4-13.2 0-24-10.8-24-24 0-2.8 0.6-5.7 1.7-8.6 2.1-5.4 0.2-11.6-4.6-14.8l-103.7-70.4c-1.3-0.9-2.8-1.6-4.4-1.9-1.7-0.4-43.4-9.1-102.3-11.9-5.5-0.2-10.4 3-12.3 8.1-5.1 13.6-17.8 22.4-32.2 22.4-14.1 0-26.7-8.5-32-21.6-2.1-5-7.1-8.2-12.6-7.7-117 9.5-200.7 49.8-248.8 119.8-0.3 0.4-0.5 0.9-0.7 1.4-0.1 0.2-0.3 0.5-0.4 0.7-0.6 1.5-1 3-1 4.6 0 0-0.1 0.2-0.1 0.3z m750 121.9L137.5 346.9c43.9-52.4 114.4-83.5 210-92.6 10.7 17.7 29.8 28.7 50.9 28.7 21.4 0 41.1-11.8 51.6-30.1 45 2.7 78.8 8.8 87.8 10.5l94.3 64c-0.4 2.6-0.7 5.2-0.7 7.8 0 27 22 49 49 49 8.8 0 17.4-2.4 25-6.9l147.4 100.1z m-625 169.5c0-32.2 26.2-58.4 58.4-58.4s58.4 26.2 58.4 58.4c0 3.1-0.4 6.3-0.9 9.4-0.1 0.8-0.3 1.7-0.5 2.5-0.6 2.6-1.3 5.2-2.3 7.7-0.1 0.4-0.3 0.8-0.4 1.2l-112.7-20.6v-0.2zM127.7 370.5L306 403l590.2 107.7V547c-30.3 8.9-52 37-52 69.3s21.7 60.3 52 69.3v83.6l-530.8-96.9c0.2-0.6 0.3-1.2 0.5-1.9 0.8-2.6 1.4-5.3 2-8 0.2-1.2 0.6-2.4 0.7-3.7 0.6-3.9 1-7.9 1-11.8 0-46-37.4-83.4-83.4-83.4-2.8 0-5.6 0.1-8.4 0.4-0.9 0.1-1.8 0.3-2.8 0.4-1.8 0.2-3.6 0.5-5.4 0.8-1.1 0.2-2.1 0.5-3.1 0.8-1.6 0.4-3.2 0.7-4.8 1.2-1.1 0.3-2.1 0.7-3.2 1.1-1.5 0.5-3 1-4.4 1.6-1 0.4-2.1 1-3.1 1.4-1.4 0.6-2.8 1.3-4.1 2l-3 1.8c-1.3 0.8-2.6 1.5-3.8 2.3-1 0.6-1.9 1.4-2.9 2.1-1.2 0.9-2.4 1.7-3.5 2.6-0.9 0.7-1.8 1.5-2.7 2.3-1.1 1-2.2 1.9-3.2 2.9-0.9 0.8-1.7 1.7-2.5 2.6-1 1-2 2.1-2.9 3.2-0.8 0.9-1.5 1.9-2.3 2.9-0.9 1.1-1.7 2.2-2.5 3.4-0.7 1-1.4 2-2 3.1-0.8 1.2-1.5 2.4-2.2 3.6-0.6 1.1-1.2 2.2-1.7 3.3-0.6 1.3-1.3 2.5-1.8 3.8-0.5 1.1-1 2.3-1.4 3.5-0.5 1.3-1 2.6-1.5 4-0.4 1.2-0.8 2.4-1.1 3.7-0.4 1.4-0.7 2.7-1.1 4.1-0.3 1.3-0.5 2.5-0.8 3.8-0.3 1.4-0.5 2.8-0.6 4.2-0.2 1.3-0.3 2.6-0.4 4-0.1 0.7-0.2 1.4-0.2 2.2l-75.2-13.7V370.5z" fill="#004364" /><path d="M157.4 414.3m-14.4 0a14.4 14.4 0 1 0 28.8 0 14.4 14.4 0 1 0-28.8 0Z" fill="#004364" /><path d="M157.4 464.1m-14.4 0a14.4 14.4 0 1 0 28.8 0 14.4 14.4 0 1 0-28.8 0Z" fill="#004364" /><path d="M208.9 428.7m-14.4 0a14.4 14.4 0 1 0 28.8 0 14.4 14.4 0 1 0-28.8 0Z" fill="#004364" /><path d="M861.1 725.6m-14.4 0a14.4 14.4 0 1 0 28.8 0 14.4 14.4 0 1 0-28.8 0Z" fill="#004364" /><path d="M803.9 711.2m-14.4 0a14.4 14.4 0 1 0 28.8 0 14.4 14.4 0 1 0-28.8 0Z" fill="#004364" /></svg>