<?xml version="1.0" encoding="utf-8"?>
<!-- Uploaded to: SVG Repo, www.svgrepo.com, Generator: SVG Repo Mixer Tools -->
<svg width="800px" height="800px" viewBox="0 0 1024 1024" class="icon"  version="1.1" xmlns="http://www.w3.org/2000/svg"><path d="M480.8 563.8c61.4-33.2 133.6-41.4 201.4-22.3C747 446.2 792.1 336.6 813 223.7c3.3-17.7-3.4-35.8-17.3-47.2-14-11.4-33-14.2-49.7-7.4C639.7 212.6 541.7 279.2 461.5 362c32.6 62.6 39.3 135 19.3 201.8z" fill="#FCD04E" /><path d="M632 542.5l37.9 16.8c71.5-99.7 120.7-214.7 143.1-335.6 2.6-14.2-1.4-28.5-10.2-39.5-27.3 130.3-85.4 253.2-169.4 356.6l-1.4 1.7z" fill="#F6BB33" /><path d="M662.5 603.8c6.1-7.5 13.3-13.7 21.2-18.5-88.1-30.4-189.8-4.6-252 71.8L288.3 833.5c70 43.7 163.5 29.4 216.9-36.2l157.3-193.5z" fill="#95C751" /><path d="M683.4 585.2c-15.6-5.3-32.9 0.4-43.3 13.2L510.9 757.3c-48.7 60-130.9 76.9-198.1 46.1l-24.4 30.1c70 43.7 163.5 29.4 216.9-36.2l157.3-193.4c6.1-7.5 13.3-13.7 21.2-18.5-0.2-0.1-0.3-0.2-0.4-0.2z" fill="#6EB748" /><path d="M256.1 807.2l143.4-176.3c62.1-76.4 66.6-181.2 18.9-261.3-3.1 8.7-7.7 17-13.8 24.5L247.3 587.5c-53.4 65.7-48.2 160.1 8.8 219.7z" fill="#95C751" /><path d="M269.1 560.7l-21.8 26.9c-53.4 65.6-48.2 160.1 8.8 219.7l21.8-26.9c-57-59.6-62.1-154.1-8.8-219.7z" fill="#6EB748" /><path d="M684.8 247m-20.8 0a20.8 20.8 0 1 0 41.6 0 20.8 20.8 0 1 0-41.6 0Z" fill="#004364" /><path d="M749.3 299.5m-20.8 0a20.8 20.8 0 1 0 41.6 0 20.8 20.8 0 1 0-41.6 0Z" fill="#004364" /><path d="M606.2 343.8m-20.8 0a20.8 20.8 0 1 0 41.6 0 20.8 20.8 0 1 0-41.6 0Z" fill="#004364" /><path d="M670.6 396.2m-20.8 0a20.8 20.8 0 1 0 41.6 0 20.8 20.8 0 1 0-41.6 0Z" fill="#004364" /><path d="M527.5 440.5m-20.8 0a20.8 20.8 0 1 0 41.6 0 20.8 20.8 0 1 0-41.6 0Z" fill="#004364" /><path d="M592 492.9m-20.8 0a20.8 20.8 0 1 0 41.6 0 20.8 20.8 0 1 0-41.6 0Z" fill="#004364" /><path d="M742.2 374m-20.8 0a20.8 20.8 0 1 0 41.6 0 20.8 20.8 0 1 0-41.6 0Z" fill="#004364" /><path d="M613.2 269.2m-20.8 0a20.8 20.8 0 1 0 41.6 0 20.8 20.8 0 1 0-41.6 0Z" fill="#004364" /><path d="M756.4 224.9m-20.8 0a20.8 20.8 0 1 0 41.6 0 20.8 20.8 0 1 0-41.6 0Z" fill="#004364" /><path d="M677.7 321.6m-20.8 0a20.8 20.8 0 1 0 41.6 0 20.8 20.8 0 1 0-41.6 0Z" fill="#004364" /><path d="M663.6 470.8m-20.8 0a20.8 20.8 0 1 0 41.6 0 20.8 20.8 0 1 0-41.6 0Z" fill="#004364" /><path d="M534.6 365.9m-20.8 0a20.8 20.8 0 1 0 41.6 0 20.8 20.8 0 1 0-41.6 0Z" fill="#004364" /><path d="M599.1 418.3m-20.8 0a20.8 20.8 0 1 0 41.6 0 20.8 20.8 0 1 0-41.6 0Z" fill="#004364" /><path d="M779.4 591.7c-18-14.6-37.3-26.3-57.3-35.6C787 458 832.5 346.4 853.9 231.2c6-32.7-6.2-66-32-87S761 118 730.2 130.6C621.8 175 521.8 242.4 439.1 325.9c-13.2-17.8-28.6-34.3-46.5-48.8-8.9-7.2-22-5.9-29.2 3-7.2 8.9-5.9 22 3 29.2 17.8 14.4 20.5 40.7 6 58.5L215.1 561.3c-72.3 88.9-58.7 220 30.1 292.3 88.9 72.3 220 58.8 292.3-30.1L694.8 630c14.5-17.8 40.7-20.5 58.5-6 8.9 7.2 22 5.9 29.2-3 7.2-8.9 5.8-22-3.1-29.3zM256.1 807.2c-57-59.6-62.2-154.1-8.8-219.7l157.3-193.4c6.1-7.5 10.7-15.8 13.8-24.5 47.7 80.1 43.2 184.9-18.9 261.3L256.1 807.2z m205.4-445.1c20.1-20.7 41.3-40.5 63.4-59 1.1 1.6 2.1 3.2 3.6 4.4 8.9 7.2 22 5.9 29.2-3 6.5-8 5.7-19.3-1-26.8 58.2-44.2 122-81 189.2-108.5 16.7-6.8 35.7-4 49.7 7.4s20.6 29.4 17.3 47.2c-13.2 71.4-36.2 141.4-67.6 207.3-8.7-5.1-19.9-3.6-26.4 4.5-7.2 8.9-5.9 22 3 29.2 1.5 1.3 3.3 1.9 5.1 2.7-13.7 25.5-28.7 50.3-44.9 74.1-67.2-18.8-139.6-11-201.2 22 19.9-67.1 12.8-139.6-19.4-201.5z m201 241.7L505.2 797.2c-53.4 65.6-146.9 79.9-216.9 36.2l143.4-176.3c62.1-76.4 163.8-102.2 252-71.8-7.9 4.8-15.1 11-21.2 18.5z" fill="#004364" /></svg>