<?xml version="1.0" encoding="utf-8"?>
<!-- Uploaded to: SVG Repo, www.svgrepo.com, Generator: SVG Repo Mixer Tools -->
<svg width="800px" height="800px" viewBox="0 0 1024 1024" class="icon"  version="1.1" xmlns="http://www.w3.org/2000/svg"><path d="M628.8 438.4l47.5-116-159.2-89.6 13.7-38.7h16.7l-8.6-51.1 24-18.5 336.4 219.6-22.6 58.4-111.6-39.6-66.3 107.7-50.2-13.3-29.7-3.1z" fill="#F2F5FB" /><path d="M688 292.8l-155.9-90.1-8.7 27.7 167.2 94.9 4.6-10.1c3.8-8.1 0.7-17.8-7.2-22.4zM855.6 319.1l-4.7 21.9c-2.2 10.1-12.9 15.8-22.4 12l-68.9-32.7c-12.8-4.5-27.1 0.5-34.2 12.1l-51.3 97.8-27.6-12-11.5 28-9.9 15.8 29.7 3.1 50.1 13.3 66.3-107.7L883 410.1l22.6-58.4-50-32.6z" fill="#DEEAF4" /><path d="M618.9 454.2S603.1 414 603 405.7c-0.1-8.3-41.5-80.5-123.4-61.6s-85.5 43.2-85.5 43.2-101.9-54.6-135.6 24.4 31.2 119.5 31.2 119.5-30.7 41.8-31.2 62.3 0 45.3 0 45.3-53.3 14.7-64.1 40.8c-10.8 26.2-13.9 80.5-13.9 80.5S80.8 789.8 145.6 880s123.6-55.4 123.6-55.4l26.7-1.6s22.2 59.9 60.1 66.4c38 6.4 70.1-17.8 84.9-39.7s2.4-40.6 2.4-40.6 61.5-9.3 68.6-16.7c7.1-7.4 43.5-32.2 43.5-32.2s25.9 72.2 38.3 77c12.4 4.7 59.8 31.6 85.2 26.9 25.3-4.7 87-48.5 91.8-71.7 4.7-23.2 17.6-13.6 17.6-13.6s41 24 64.7 11.1c23.7-12.9 50.6-53 42.7-82-7.9-29-23.7-53.4-23.7-53.4s36.6-58 25.1-103.8-73.8-86.1-108.8-80.2c-35 5.9-73 13.9-73 13.9s-17.3-21.4-47.4-25-49-5.2-49-5.2z" fill="#9F9FF7" /><path d="M871.9 645.8s36.6-58 25.1-103.8c-6.4-25.7-40.9-47.4-65.6-62.5 25.2 26.5 30.4 63.3 30 93.3-0.5 34.4-45.4 73.5-80.9 76.1-46.6 3.5-89.9-15.3-89.9-15.3s50.8 44.3 46 67.5c-4.7 23.2-70.4 42-95.7 46.7-25.3 4.7-70-13.7-88.6-27-10.8-7.7-51.9-65.3-51.9-65.3s5.7 44.9-20.1 81.5c-17.2 24.5-61.4 37.1-85.9 44-4.2 1.2 31.6 54.4-18.1 61.6-57.7 8.4-75.5-58.9-77.4-58.5-79.9 14.5-108.5-87.7-108.5-87.7s8.3 159.8-41.6 145.8c-3.8 17.3-23.5 0.6-3.2 28.8 64.9 90.2 123.6-55.4 123.6-55.4l26.7-1.6s22.2 59.9 60.1 66.4c38 6.4 70.1-17.7 84.9-39.7 14.8-21.9 2.4-40.6 2.4-40.6s61.5-9.3 68.6-16.7c7.1-7.4 43.5-32.2 43.5-32.2s25.9 72.2 38.3 77c12.4 4.7 59.8 31.6 85.2 26.9 25.3-4.7 87-48.5 91.8-71.7 4.7-23.2 17.6-13.6 17.6-13.6s41 24 64.7 11.1c23.7-12.9 50.6-53 42.7-82-7.9-28.6-23.8-53.1-23.8-53.1z" fill="#7D7AE5" /><path d="M502.7 621.7s60.7 74 131.3 67.3 74.2-34.4 74.2-34.4l42.9 34.9s-40.8 59.9-110.2 58.4S512 682.7 512 682.7l-9.3-61z" fill="#7D7AE5" /><path d="M776.4 371.9l97.1 45.1c3.3 1.5 7 1.6 10.4 0.4 3.4-1.3 6.1-3.9 7.5-7.2l22.7-53.6c2.5-5.9 0.5-12.7-4.8-16.3L566.7 110.2c-2.9-2-6.6-2.7-10-2-3.5 0.7-6.5 2.7-8.5 5.7L530.1 141c-2.3 3.4-2.9 7.7-1.6 11.6l8.5 25.8-10.4 1.7c-4.5 0.8-8.3 3.7-10.1 7.9l-14.9 35.1c-2.6 6.2-0.2 13.5 5.7 16.8l158 89.4-41.2 90.4c-17.2-55.8-69.2-96.4-130.5-96.4-42 0-79.5 19.1-104.6 48.9-16.7-11.8-36.6-18.3-57.3-18.3-55.1 0-99.9 44.8-99.9 99.9 0 32.8 16.6 63.1 42.8 81.6-19.5 16.1-32 40.4-32 67.6 0 9.3 1.4 18.2 4.1 26.5-47.2 9.9-82.9 52.1-82.9 101.9 0 6.4 0.7 12.6 1.8 18.7-33.5 12-56.6 43.8-56.6 80.3 0 47.2 38.4 85.5 85.5 85.5 45.7 0 83-36.1 85.3-81.2 2.2-0.3 4.5-0.4 6.7-0.8 9.7 37.4 43.6 65.1 84 65.1 45.6 0 83.1-35.4 86.5-80.2 33.7-0.6 65.9-13.6 90.7-35.9 13.8 53.5 62.4 93.3 120.2 93.3 53.9 0 99.8-34.6 117-82.6 12.8 7.2 27.3 11.1 42.2 11.1 47.8 0 86.6-38.9 86.6-86.6 0-23.4-9.6-45.5-26.1-61.7 15.6-20.8 25-46.5 25-74.4 0-68.5-55.8-124.3-124.3-124.3-22.2 0-43.1 5.9-61.1 16.2-4.5-3.1-9-6.1-13.7-8.7l62.9-93.3z m-81.7-42.6c2.9-6.3 0.4-13.7-5.6-17.1l-158.3-89.6 7.4-17.4 18.6-3.1c3.8-0.6 7.2-2.9 9.2-6.3 2-3.3 2.5-7.4 1.2-11.1l-11.4-34.4 7.1-10.6 322.2 216.5-13 30.7-94.8-43.9c-6-2.8-13-0.8-16.7 4.6l-71.8 106.6c-7-2.4-14.1-4.3-21.4-5.7-0.8-0.2-1.5-0.3-2.3-0.5-2.4-0.4-4.9-0.8-7.3-1.1-1.9-0.3-3.8-0.5-5.7-0.7-1.9-0.2-3.9-0.3-5.9-0.4-1.5-0.1-3-0.3-4.5-0.3l53-116.2z m-201 20.8c56.9 0 103.8 43.4 109.4 99.1-7.2 1.6-14.3 3.8-21.1 6.3-0.3 0.1-0.7 0.2-1 0.4-13.9 5.3-26.8 12.5-38.6 21.3-0.1 0.1-0.1 0.1-0.2 0.1-11.8 8.9-22.2 19.3-31.1 31.1-0.1 0.1-0.2 0.2-0.3 0.4-6.6 8.8-12.3 18.2-16.9 28.2 0 0.1-0.1 0.2-0.1 0.3-1.5 3.2-2.8 6.5-4.1 9.8-0.2 0.5-0.3 1-0.5 1.4-2.5 6.7-4.6 13.5-6.1 20.5-2-0.2-4-0.2-6-0.5-0.9-0.1-1.7-0.2-2.6-0.4-5.1-0.9-10-2.2-14.9-3.8-0.7-0.2-1.5-0.5-2.2-0.8-5.1-1.8-10.1-3.9-14.9-6.5-5.2-2.8-10.2-5.9-14.9-9.6-0.1-0.1-0.3-0.1-0.4-0.2-12-9.1-21.9-20.7-29.3-33.9-4.4-7.9-7.9-16.3-10.2-24.9-0.1-0.5-0.3-1.1-0.4-1.6-0.9-3.7-1.7-7.4-2.2-11.1-0.1-1-0.3-1.9-0.4-2.9-0.5-4.3-0.9-8.6-0.9-13 0-4.9 0.4-9.7 1.1-14.5 0.2-1.3 0.4-2.5 0.6-3.8 0.7-4.2 1.6-8.4 2.8-12.5 0.2-0.6 0.3-1.1 0.4-1.7 1.4-4.4 3.1-8.7 5-12.9 0.6-1.3 1.2-2.5 1.8-3.7 1.9-3.8 4-7.5 6.3-11 19.6-29.8 53.4-49.6 91.9-49.6zM301.2 520.5c-25.8-11.9-42.8-38-42.8-66.5 0-40.4 32.9-73.3 73.3-73.3 15.3 0 29.9 4.7 42.2 13.5l-0.3 0.6c-2.4 4.3-4.5 8.9-6.4 13.5-0.7 1.7-1.2 3.3-1.8 5-1.2 3.2-2.3 6.5-3.2 9.9-0.5 1.8-1 3.7-1.4 5.5-0.8 3.5-1.5 7-2 10.5-0.3 1.6-0.6 3.3-0.8 4.9-0.6 5.2-1 10.4-1 15.8 0 4.9 0.3 9.7 0.8 14.4 0.1 0.6 0.2 1.3 0.3 1.9 0.5 4.2 1.2 8.3 2 12.4l0.6 2.1c0.9 3.9 2 7.8 3.2 11.6 0.3 1 0.7 1.9 1 2.9 1.2 3.5 2.5 6.9 4 10.2 0.2 0.4 0.3 0.8 0.5 1.3-2.8 1.7-5.8 3.2-8.8 4.5-0.7-0.3-1.5-0.4-2.3-0.6-3.3-1.2-6.7-2.1-10.2-2.9-1.3-0.3-2.7-0.6-4-0.8-4.6-0.8-9.3-1.3-14-1.3-4.5 0-8.8 0.4-13.1 1.1-0.9 0.1-1.7 0.2-2.6 0.4-4.1 0.8-8.2 1.8-12.1 3.1-0.3 0.2-0.7 0.2-1.1 0.3z m5.2 26.6c3.8-1.6 7.7-2.8 11.7-3.6 1.1-0.2 2.3-0.2 3.5-0.3 3-0.4 6-0.9 9.1-0.8 8.2 0.1 16.3 1.9 24 5.3 8.3 3.7 15.7 9.3 21.7 16.4-32.8 22.3-55.2 58.1-60.3 98.1-0.5-0.1-1-0.2-1.6-0.3-1.4-0.4-2.8-0.9-4.2-1.4-13.3-4.6-24.8-13.8-32.3-26.4-0.3-0.6-0.8-1-1.2-1.5-4.8-8.7-7.5-18.6-7.5-29.3 0-25.3 15.3-46.9 37.1-56.2z m-47.1 107.5c11.4 15.6 27.8 27.3 47.1 32.6 0.4 0.1 0.7 0.2 1.1 0.3 2 0.5 4.1 1 6.1 1.4l1.5 0.3c0.1 0.7 0.2 1.5 0.3 2.2 0.2 2.1 0.5 4.3 0.7 6.4 0.3 2.1 0.6 4.2 1 6.3 0.4 2.5 1 4.9 1.5 7.3l1.2 4.8c0.7 2.7 1.5 5.4 2.4 8.1 0.4 1.2 0.9 2.4 1.3 3.6 1.1 2.9 2.2 5.8 3.5 8.6 0.1 0.2 0.2 0.5 0.3 0.7-3.3 1.9-6.5 4-9.5 6.3-0.6 0.4-1.1 1-1.7 1.4-2.6 2.1-5.1 4.3-7.4 6.6-1 1-1.8 2-2.7 3-1.8 2-3.6 4.1-5.2 6.3-0.9 1.2-1.7 2.3-2.5 3.5-1.5 2.3-2.9 4.7-4.2 7.1-0.6 1.1-1.3 2.3-1.9 3.4-1.6 3.4-3.1 6.8-4.3 10.4-0.1 0.3-0.2 0.5-0.3 0.8-1.2 3.8-2.2 7.8-2.8 11.8-0.2 1.2-0.3 2.5-0.4 3.7-0.2 2-0.6 3.9-0.7 5.9-5.2 1.1-10.5 1.7-15.7 1.7-0.6 0-1.1-0.1-1.7-0.1h-0.1c-16.2-0.4-31.4-5.8-43.9-15-0.4-0.3-0.8-0.6-1.1-0.9-2.9-2.2-5.7-4.6-8.2-7.2-0.1-0.1-0.2-0.3-0.4-0.4-2.3-2.4-4.5-5-6.5-7.7-0.4-0.6-0.9-1.1-1.3-1.7-2-2.8-3.8-5.8-5.5-8.9-0.3-0.5-0.5-1.1-0.8-1.6-1.5-3.1-2.9-6.4-4.1-9.8-2.5-7.7-4-15.8-4-24.4 0-39.4 30.3-72.4 68.9-76.8z m-64.9 234.8c-32.5 0-58.9-26.4-58.9-58.9 0-24.8 15.4-46.4 37.9-54.9 0.3 0.6 0.7 1.2 1 1.8 1.3 2.6 2.7 5.2 4.2 7.7 0.6 1 1.2 2.1 1.9 3.1 1.9 2.9 3.9 5.8 6.1 8.5 0.3 0.3 0.5 0.7 0.8 1 2.5 3 5.2 5.9 8 8.6 0.7 0.7 1.4 1.3 2.1 1.9a104 104 0 0 0 7.2 6c0.7 0.6 1.4 1.1 2.2 1.6 3 2.2 6.1 4.2 9.3 6 0.2 0.1 0.4 0.2 0.5 0.3 7.3 4.1 15.2 7.4 23.4 9.7 0.2 0.1 0.4 0.1 0.6 0.2 3.9 1 7.8 1.9 11.8 2.5 0.2 0 0.4 0.1 0.6 0.1-2.1 30.6-27.6 54.8-58.7 54.8z m176-16.9c-31.6 0-57.3-24.6-59.7-55.6v-0.3c-0.1-1-0.2-2-0.5-4.3v-0.2c0-2.9 0.3-5.7 0.7-8.5 0.1-0.9 0.4-1.8 0.6-2.8 0.4-1.9 0.8-3.8 1.4-5.6 0.3-1 0.7-2 1.1-3.1 0.6-1.7 1.3-3.3 2-4.9l1.5-3c0.8-1.6 1.8-3.1 2.8-4.6 0.6-0.9 1.2-1.8 1.8-2.6 1.2-1.6 2.4-3.1 3.8-4.5 0.6-0.7 1.1-1.3 1.7-2 1.9-2 4-3.9 6.2-5.6l0.1-0.1c2.2-1.7 4.5-3.1 6.9-4.5 0.3 0.5 0.7 0.9 1.1 1.4 2.2 3 4.5 5.9 6.9 8.7 0.6 0.7 1.3 1.4 1.9 2.1 2.4 2.7 4.9 5.3 7.4 7.8 0.7 0.6 1.4 1.3 2.1 1.9 2.7 2.4 5.4 4.8 8.2 7l2.1 1.5c2.9 2.2 5.9 4.4 9 6.3 0.7 0.4 1.3 0.8 2 1.2 3.2 2 6.4 3.8 9.8 5.5 0.7 0.3 1.3 0.6 2 1 3.4 1.7 6.8 3.2 10.3 4.6 0.8 0.3 1.5 0.5 2.3 0.8 3.4 1.3 6.9 2.5 10.5 3.5 0.9 0.3 1.9 0.5 2.8 0.7 3.4 0.9 6.9 1.7 10.4 2.3 0.3 0.1 0.6 0.2 1 0.2-2.5 31.2-28.6 55.7-60.2 55.7z m84.1-80c-3.4 0-6.7-0.2-10-0.5-9-0.8-17.7-2.7-26.1-5.5-0.2-0.1-0.5-0.2-0.7-0.3-3.8-1.3-7.6-2.9-11.3-4.6l-1.2-0.6c-3.6-1.8-7.2-3.7-10.6-5.9-0.2-0.1-0.5-0.3-0.7-0.4-11-7-20.7-15.9-28.8-26.3-0.4-0.5-0.7-0.9-1-1.4-2.3-3.1-4.5-6.3-6.5-9.6-0.2-0.4-0.5-0.8-0.7-1.2-4.8-8.3-8.6-17.1-11.1-26.2-0.2-0.8-0.4-1.7-0.6-2.5-0.9-3.5-1.6-7.1-2.2-10.7-0.2-1.2-0.4-2.5-0.6-3.7-0.5-4.1-0.8-8.2-0.8-12.3 0-0.4-0.1-0.8-0.1-1.1 0.1-0.5 0.2-1.8 0.2-2.3 0.2-9.3 1.6-18.4 4-27.2 0.3-0.9 0.4-1.9 0.7-2.8 1-3.5 2.4-6.9 3.8-10.2 0.6-1.5 1.2-3.1 1.9-4.6 1.5-3.2 3.2-6.3 5-9.4 0.8-1.4 1.7-2.8 2.6-4.2 2-3.1 4.1-6.1 6.4-9 0.8-1 1.6-2 2.4-2.9 2.7-3.1 5.4-6.2 8.4-9.1 0.3-0.2 0.5-0.5 0.8-0.7 7.1-6.6 15.1-12.4 23.9-17.1 0.3-0.2 0.5-0.5 0.8-0.7 4.7-2.5 9.6-4.7 14.7-6.5 1.1 0.7 2.3 1.3 3.4 2 2.9 1.9 5.9 3.7 8.9 5.3 2.6 1.4 5.3 2.6 8 3.9 1.7 0.8 3.3 1.5 5.1 2.2 3 1.2 6 2.3 9 3.3 1.5 0.5 3.1 0.9 4.6 1.4 3.2 0.9 6.3 1.8 9.6 2.5 1.7 0.4 3.4 0.6 5 0.8 2.9 0.5 5.7 1.1 8.6 1.4-0.1 2.5-0.2 5-0.2 7.4 0 6 0.4 11.9 1.1 17.7 0.2 2 0.6 4 0.9 6 0.6 3.7 1.2 7.5 2 11.1 0.5 2.4 1.2 4.7 1.8 7.1 0.9 3.1 1.8 6.2 2.9 9.3l2.7 7.5c1.1 2.8 2.4 5.5 3.7 8.2 1.2 2.5 2.3 4.9 3.5 7.3 1.6 3 3.4 5.9 5.3 8.8 2 3.2 4.1 6.3 6.3 9.4 2.2 3.1 4.5 6.1 6.9 9 1.4 1.6 2.9 3.2 4.3 4.8 2.6 2.8 5.3 5.6 8.1 8.2 1.3 1.2 2.6 2.4 4 3.6 3.6 3.2 7.3 6.1 11.2 9 0.5 0.4 1 0.9 1.6 1.3-0.1 0.9-0.1 1.7-0.3 2.6-0.5 3.5-0.8 7-1.1 10.4-0.1 1.4-0.4 2.9-0.4 4.3-21.4 27.4-54.4 43.7-89.1 43.7z m213.4 57.3c-53.5 0-97.1-43.3-97.6-96.7V752v-0.4c0-1.8 0.2-3.6 0.4-5.4 0.3 0.1 0.6 0.2 0.9 0.4 4.2 1.9 8.4 3.6 12.7 5.1 1 0.4 1.9 0.7 2.9 1.1 4.3 1.4 8.7 2.6 13.1 3.7 1 0.2 2.1 0.6 3.1 0.8 4.4 1 8.9 1.7 13.5 2.2 1 0.1 2.1 0.4 3.1 0.5 5.5 0.6 11.1 0.9 16.8 0.9 6 0 11.9-0.4 17.8-1.1 2-0.2 3.9-0.6 5.8-0.9 3.9-0.6 7.8-1.2 11.6-2.1 2.3-0.5 4.4-1.2 6.7-1.8 3.4-1 6.9-2 10.2-3.1 2.3-0.8 4.5-1.7 6.8-2.6 3.2-1.3 6.4-2.7 9.5-4.2 2.2-1.1 4.4-2.2 6.6-3.4 3-1.6 6-3.4 8.9-5.2 2.1-1.3 4.1-2.6 6.2-4 2.9-2 5.7-4.2 8.4-6.4 1.9-1.5 3.7-2.9 5.5-4.5 2.8-2.5 5.5-5.1 8.1-7.8 1.5-1.5 3.1-3 4.5-4.6l0.9-0.9c0.3 0.6 0.8 1.2 1.1 1.9 0.3 0.6 0.5 1.2 0.8 1.7 1.6 3.5 3 7 4.2 10.6 0.4 1.1 0.7 2.2 1 3.4 1 3.2 1.7 6.5 2.3 9.8 0.2 1.2 0.5 2.3 0.6 3.5 0.6 4.4 1 8.8 1 13.2 0 2.9-0.2 5.8-0.4 8.6-0.3 2.8-0.7 5.7-1.2 8.7-8 45.3-47.9 80.1-95.8 80.1z m159.2-71.5c-13 0-25.4-4.2-35.8-11.9 0.5-4.7 0.9-9.4 0.9-14.2 0-5.5-0.5-11-1.3-16.5l-0.6-3.9c-0.9-5.1-2-10.2-3.6-15.3-0.4-1.3-0.9-2.6-1.3-3.8-0.7-2.1-1.4-4.2-2.2-6.2h2.6c0.8 0 1.6 0.1 2.5 0.1 0.9 0 1.9-0.1 2.8-0.1 2.7-0.1 5.4-0.2 8.1-0.4 1.2-0.1 2.3-0.2 3.5-0.3 3.2-0.4 6.3-0.8 9.5-1.4 0.7-0.1 1.4-0.3 2.1-0.4 3.4-0.7 6.8-1.6 10.1-2.6 0.5-0.1 0.9-0.3 1.4-0.4 3.4-1.1 6.7-2.3 9.9-3.6 0.5-0.2 1-0.4 1.4-0.6 3-1.3 5.9-2.7 8.8-4.3 0.8-0.4 1.5-0.8 2.2-1.2 2.4-1.3 4.7-2.7 6.9-4.2 1.2-0.8 2.5-1.6 3.7-2.4 1.6-1.1 3.1-2.3 4.7-3.5 1.8-1.4 3.5-2.7 5.2-4.1 0.3-0.2 0.5-0.4 0.8-0.6 11.1 11.2 17.5 26.3 17.5 42.2 0.1 32.7-26.8 59.6-59.8 59.6z m58.8-196.1c0 26-10.3 49.6-26.9 67.1-2.9 3.1-6 6-9.2 8.6-0.3 0.2-0.6 0.4-0.9 0.7-2.5 2-5.1 3.8-7.8 5.6-1.6 1-3.2 2-4.9 3-1.2 0.7-2.4 1.3-3.6 1.9-7.5 3.9-15.6 6.8-24 8.6-0.3 0.1-0.7 0.2-1 0.2-2.7 0.5-5.5 1-8.3 1.3l-3.6 0.3c-2.3 0.2-4.6 0.3-6.9 0.4-3.9 0-7.8-0.2-11.8-0.7-0.1 0-0.3 0-0.4-0.1-4.4-0.6-8.9-1.4-13.4-2.6-0.5-0.1-1-0.2-1.5-0.4h-0.1c-1.2-0.3-2.3-0.6-3.5-1-0.1 0-0.3-0.1-0.4-0.1-4.6-1.5-8.9-3.4-13.1-5.5-0.5-0.3-1.1-0.5-1.6-0.8-3.9-2-7.6-4.4-11.2-6.9-1-0.7-2-1.5-3-2.2-3-2.3-5.9-4.8-8.7-7.4-1-0.9-1.9-1.9-2.8-2.9-2.3-2.4-4.4-5-6.5-7.6-0.9-1.2-1.8-2.3-2.7-3.6-2.3-3.3-4.4-6.7-6.3-10.2-0.6-1.1-1-2.2-1.6-3.3-1.6-3.3-3-6.6-4.2-10-0.3-0.8-0.6-1.6-0.9-2.5-1.3-4.2-2.3-8.4-3.1-12.8-0.2-1-0.3-2.1-0.5-3.1-0.7-4.6-1.1-9.2-1.1-13.9 0-3.8 0.3-7.5 0.7-11.2 0.1-1.1 0.3-2.2 0.5-3.3 0.4-2.6 0.8-5.2 1.4-7.7 0.3-1.2 0.6-2.5 0.9-3.7 0.7-2.4 1.4-4.7 2.2-7 0.4-1.2 0.8-2.4 1.3-3.6 1-2.5 2.1-4.9 3.3-7.3 0.4-0.9 0.8-1.8 1.3-2.6 1.6-3 3.4-5.9 5.4-8.7 0.8-1.2 1.8-2.4 2.7-3.6 1.3-1.7 2.5-3.3 3.9-4.9l3.3-3.6c1.4-1.5 2.9-2.9 4.4-4.4 1.1-1 2.2-2.1 3.4-3.1 2.4-2 5-4 7.6-5.8 15.7-10.9 34.8-17.3 55.3-17.3 54.1 0 97.9 43.8 97.9 97.7z m-187.3-85.8c-1.8 1.9-3.6 3.8-5.3 5.8-0.9 1.1-1.8 2.3-2.7 3.4-1.6 2.1-3.2 4.1-4.7 6.3-0.9 1.3-1.7 2.6-2.5 3.9-1.3 2.1-2.7 4.2-3.9 6.4-0.9 1.6-1.6 3.3-2.5 4.9-1 2-2 4-2.9 6-0.9 2.1-1.6 4.2-2.4 6.3-0.6 1.7-1.3 3.4-1.9 5.2-0.8 2.6-1.5 5.3-2.1 7.9-0.3 1.4-0.8 2.7-1.1 4.1-0.6 3.1-1.1 6.3-1.5 9.4-0.1 1-0.4 2.1-0.5 3.1-0.4 4.2-0.7 8.5-0.7 12.9 0 5.3 0.4 10.5 1.1 15.7 0.2 1.5 0.4 3 0.7 4.5 0.6 3.9 1.4 7.7 2.4 11.4 0.4 1.4 0.6 2.7 1 4.1 1.4 4.6 3 9.1 4.9 13.5 0.7 1.6 1.5 3.1 2.3 4.7 1.4 2.9 2.8 5.7 4.4 8.4 1.1 1.9 2.2 3.7 3.4 5.5 1.7 2.7 3.6 5.2 5.5 7.7 1.8 2.4 3.8 4.7 5.8 7 2.1 2.3 4.2 4.6 6.4 6.8 1.6 1.5 3.2 3 4.8 4.4 2.5 2.1 5 4.2 7.6 6.1 1.3 1 2.5 2 3.9 2.9 4.1 2.8 8.3 5.3 12.8 7.6 0.3 0.2 0.6 0.4 1 0.6-3.2 3.3-6.4 6.6-9.9 9.5-0.6 0.5-1.2 0.9-1.8 1.4-3.1 2.6-6.3 5.1-9.7 7.3-1.4 0.9-2.8 1.7-4.2 2.6-2.7 1.7-5.4 3.3-8.2 4.8-1.6 0.9-3.3 1.7-4.9 2.5-2.7 1.3-5.4 2.5-8.2 3.6-1.8 0.7-3.5 1.4-5.3 2-2.8 1-5.7 1.9-8.6 2.7-1.8 0.5-3.5 1-5.3 1.4-3.2 0.7-6.4 1.3-9.6 1.8-1.6 0.2-3.1 0.6-4.7 0.7-4.8 0.5-9.7 0.9-14.6 0.9-5.6 0-11.1-0.5-16.6-1.2-1.3-0.2-2.5-0.4-3.8-0.6-4.8-0.8-9.6-1.8-14.4-3.1-0.6-0.2-1.2-0.3-1.8-0.5-5.6-1.7-11.2-3.7-16.5-6.1-0.1-0.1-0.2-0.1-0.3-0.2-5.3-2.4-10.4-5.1-15.3-8.2-0.4-0.3-0.8-0.5-1.2-0.8-9-5.7-17.1-12.4-24.3-19.8l-3-3.3c-2.3-2.5-4.5-5.2-6.6-7.9-1.1-1.5-2.3-3-3.4-4.5-1.9-2.7-3.7-5.6-5.4-8.4-0.8-1.4-1.7-2.7-2.5-4.1-2.2-4.1-4.2-8.3-6-12.6-0.7-1.7-1.2-3.4-1.9-5.1-1.1-3-2.1-6.1-3-9.2-0.5-1.8-1-3.6-1.4-5.5-0.8-3.3-1.4-6.7-1.9-10-0.3-1.6-0.6-3.2-0.7-4.9-0.6-5-1-10.1-1-15.3 0-3.3 0.3-6.6 0.5-9.9 0.2-2.6 0.5-5.3 0.9-8.3 8-57.6 53.9-103.5 111.5-111.5 0.8-0.1 1.6-0.3 2.4-0.4 0.4 0 0.7 0.1 1 0 2.3-0.3 4.2-0.4 6.1-0.6 2.8-0.2 5.6-0.4 8.5-0.4 5.3 0 10.5 0.4 15.7 1 1.9 0.2 3.9 0.6 5.8 0.9 3.1 0.5 6.2 1.2 9.2 1.9 2.4 0.6 4.8 1.1 7.1 1.9 2.4 0.7 4.8 1.7 7.2 2.5 2.2 0.8 4.5 1.6 6.7 2.5 0.1 0.1 0.3 0 0.4 0.1 5.2 2.3 10.3 4.8 15.1 7.8l-2.4 2.4c-1 1.5-2 2.6-3 3.7z" fill="#004364" /><path d="M430.2 450.4m-15.4 0a15.4 15.4 0 1 0 30.8 0 15.4 15.4 0 1 0-30.8 0Z" fill="#004364" /><path d="M469.2 417.1c8-2.8 12.3-11.6 9.5-19.6-2.8-8-11.6-12.3-19.6-9.5-8 2.8-12.3 11.6-9.5 19.6 2.8 8 11.6 12.3 19.6 9.5z" fill="#004364" /><path d="M547.5 637.1m-15.4 0a15.4 15.4 0 1 0 30.8 0 15.4 15.4 0 1 0-30.8 0Z" fill="#004364" /><path d="M578.3 673.6m-15.4 0a15.4 15.4 0 1 0 30.8 0 15.4 15.4 0 1 0-30.8 0Z" fill="#004364" /><path d="M456.4 763m-15.4 0a15.4 15.4 0 1 0 30.8 0 15.4 15.4 0 1 0-30.8 0Z" fill="#004364" /><path d="M237.2 712m-15.4 0a15.4 15.4 0 1 0 30.8 0 15.4 15.4 0 1 0-30.8 0Z" fill="#004364" /><path d="M785.6 543.5c8-2.8 12.3-11.6 9.5-19.6-2.8-8-11.6-12.3-19.6-9.5-8 2.8-12.3 11.6-9.5 19.6 2.8 8 11.5 12.3 19.6 9.5zM836.5 560.5c8-2.8 12.3-11.6 9.5-19.6-2.8-8-11.6-12.3-19.6-9.5-8 2.8-12.3 11.6-9.5 19.6 2.8 8 11.6 12.3 19.6 9.5z" fill="#004364" /></svg>