<?xml version="1.0" encoding="utf-8"?>
<!-- Uploaded to: SVG Repo, www.svgrepo.com, Generator: SVG Repo Mixer Tools -->
<svg width="800px" height="800px" viewBox="0 0 1024 1024" class="icon"  version="1.1" xmlns="http://www.w3.org/2000/svg"><path d="M248.4 889.9l53.9-434.3s118.8 60.8 166.9 87.5 147.4 71.1 147.4 71.1L248.4 889.9z" fill="#F2F5FB" /><path d="M554 589.3L256.7 811.9l-10.1 81 368.3-275.7c0 0.1-27.7-12.3-60.9-27.9z" fill="#DEEAF4" /><path d="M292.5 441.6s-56.1-34.2-39.2-63.5 37.1-45.5 37.1-45.5l47.3-35.4 38.7-46.7 31.2-9 62.1-65.5 98.9-11.2 68.5 3.7 66.1-53.4 50.5 66.8 15.4 85.7-7 23.8 22.5 67.5-30.3 52.8-9.3 8.5 27.7 62.3-24.1 41.9-7.7 13.4-10.9 59.5-31.1 24.4s-118.6-9.1-242.1-77.8-164.3-102.3-164.3-102.3z" fill="#95C751" /><path d="M747.2 548.5l7.7-13.4 24.1-41.9-27.7-62.3 9.3-8.5 30.3-52.8-22.5-67.5 7-23.8-15.4-85.7-50.5-66.8-34.6 27.9 12.3 68.2-6.6 22.6 21.4 64.1-28.8 50.1-8.9 8 26.3 59.1-22.8 39.8-7.3 12.7-10.3 56.7-29.6 23.2s-112.6-8.6-229.9-73.8c-69.6-38.7-111.3-65.6-133.9-81.1 2.8 25.1 42.1 49.1 42.1 49.1s40.8 33.7 164.3 102.3 242.1 77.8 242.1 77.8l31.1-24.4 10.8-59.6z" fill="#6EB748" /><path d="M756.5 537.7c9.5-6.8 17.3-15.8 22.5-26.9 10.6-22.7 8-49.5-6.7-69.7l-11-15.1c7-3.7 13-8.2 17.6-13.7 35.6-42.6 11.4-111.9 2-134.5 43.1-86.9-67-166.5-71.9-169.9-7.4-5.3-17.4-3.5-22.6 3.8-0.4 0.5-38.8 52.9-106.3 40.4-58.9-10.9-116.8 12.2-148.5 35.3-17.3 12.6-29.5 26.8-35.7 40.9-2.9 0-5.4 0.1-7.5 0.3-29.7 3.1-56.6 24.4-64 50.5-1 3.4-1.4 6.7-1.7 10.1-16.6 2.2-31.6 12.4-39.1 28.6-0.6 1.3-0.9 2.7-1.4 4-15.6 2.4-29.7 11.7-37.8 25.9-19.1 33.3-8.6 75.4 23.9 95.8l9.6 6-54.3 452c-0.8 6.5 2.4 12.8 8 16 5.7 3.3 12.7 2.8 17.9-1.1l385.3-291.5c14.1 3 28.4 5.6 42.8 7.7 29.5 4.2 58.2-9.8 73.1-35.7 10.4-18.4 12.3-39.9 5.8-59.2z m-6.9-40.7c-4.4 9.5-12.6 16.1-22.1 19.2-1.2 0.4-2.5 0.8-3.7 1-3 0.6-6.1 1.1-9.3 0.9-83-4.6-162.6-26.1-236.5-64.1l-149-76.4c-0.9-0.5-1.8-1.1-2.6-1.6-1.3-0.8-2.5-1.6-3.6-2.5-0.5-0.4-1-0.8-1.5-1.3-1.1-1-2-2-3-3.1-0.4-0.5-0.9-1-1.3-1.6-0.8-1-1.4-2-2-3.1-0.4-0.8-0.9-1.5-1.3-2.3-0.2-0.5-0.4-0.9-0.6-1.4-2.8-6.3-3.8-13.4-2.5-20.6v-0.5c0.5-2.8 1.3-5.7 2.6-8.4 3.4-7.4 11.3-11.3 19-10.2 0.1 0.1 0.2 0.1 0.2 0.2 2.8 3.6 6 7 9.9 10 3.1 2.4 6.8 4.9 10.6 7.5l2.7 1.8c3.9 2.5 8 5 12.5 7.6 0.3 0.2 0.5 0.3 0.7 0.5l2.1 1.2c4 2.3 8.2 4.6 12.5 6.9 1.1 0.6 2.1 1.2 3.3 1.7 5 2.6 10.1 5.2 15.4 7.8 1.5 0.7 3 1.4 4.5 2.2 5.1 2.5 10.2 4.9 15.4 7.3 0.8 0.4 1.5 0.7 2.3 1.1 5.3 2.4 10.7 4.8 16.1 7.2 1.5 0.6 2.9 1.3 4.4 1.9 5.5 2.4 11.1 4.7 16.5 7 1.1 0.5 2.1 0.9 3.2 1.3 4.9 2 9.7 3.9 14.4 5.8l3 1.2c5.2 2 10.2 3.9 15.1 5.7 1.1 0.4 2.1 0.8 3.1 1.1 4.9 1.8 9.6 3.4 13.9 4.9 1 0.3 2.3 0.7 3.8 1.2 22.5 7.1 65.2 16.7 110 22 29.5 3.6 60.3 5.1 87 2.3 0.7-0.1 1.4-0.2 2-0.2 3-0.4 6-0.8 8.9-1.2 1-0.2 2-0.2 2.9-0.4l17.3 23.8c7.9 10.4 9.2 24.6 3.7 36.6zM450.8 213.5c26.5-19.3 74.6-38.6 123.4-29.6 64.5 12 108.2-21.2 127.5-40.6 24.6 20.9 78.1 74.8 47.4 125.5-17.7 29.2-80.2 43.4-176.1 40.1-7.2-0.3-14.4-0.9-21.5-1.9-2.5-0.3-4.9-1-7.4-1.4-4.6-0.8-9.1-1.6-13.6-2.7-2.9-0.7-5.7-1.7-8.6-2.5-3.9-1.1-7.9-2.2-11.8-3.6-3-1.1-5.9-2.4-8.8-3.6-3.6-1.5-7.3-2.9-10.8-4.6-1.9-0.9-3.8-2-5.7-3 14.7-10.4 38.2-22.8 67.3-23.6 60-1.6 99-16.8 100.6-17.5 8.3-3.3 12.4-12.7 9.1-21.1-3.3-8.4-12.7-12.4-21.1-9.2-0.4 0.1-35.7 13.7-89.5 15.2-45.5 1.2-79.5 24-96 37.8-0.3-0.2-0.7-0.4-1-0.7-2.6-2-5.2-4.1-7.7-6.3-2.9-2.4-5.8-4.9-8.6-7.5-2.4-2.3-4.8-4.7-7.1-7.1-1.7-1.7-3.3-3.5-4.9-5.3 3.3-7 11-16.7 24.9-26.8z m-59.1 47.2c1.1-0.1 3.4-0.2 8.1 0 1.4 1.5 2.9 2.9 4.3 4.3 3.1 3.4 6.3 6.6 9.6 9.8 2.3 2.2 4.7 4.3 7 6.5 3.4 3 6.9 5.9 10.5 8.7 2.4 1.9 4.9 3.8 7.4 5.7 1.9 1.4 3.8 2.8 5.8 4.1 0.2 0.2 0.3 0.6 0.6 0.8 0.9 0.8 1.9 1.6 2.9 2.1 0.9 0.5 1.8 0.7 2.7 1 2.4 1.5 4.7 3.1 7.1 4.5 0.7 0.4 1.3 0.9 2 1.2 1.8 1 3.7 1.8 5.5 2.7 5.6 3 11.3 5.9 17.1 8.5 3 1.3 6 2.5 9 3.7 5.5 2.2 11.1 4.2 16.8 5.9 3.1 1 6.3 2 9.5 2.8 6 1.6 12.2 2.9 18.4 4.1 2.8 0.5 5.6 1.2 8.5 1.6 9 1.4 18.2 2.3 27.4 2.6 10 0.4 19.5 0.5 28.8 0.4h5.8c8.9-0.1 17.6-0.3 25.9-0.8 1.4-0.1 2.8-0.2 4.1-0.3 7.5-0.5 14.8-1.1 21.8-1.8 1.2-0.1 2.4-0.2 3.6-0.4 7.5-0.9 14.6-1.9 21.4-3.2 1.5-0.3 2.9-0.5 4.3-0.8 6.8-1.3 13.4-2.8 19.5-4.4 0.2-0.1 0.4-0.1 0.6-0.2 6-1.7 11.5-3.5 16.8-5.5 1.1-0.4 2.2-0.8 3.2-1.2 5.2-2.1 10.1-4.3 14.6-6.7 0.8-0.4 1.5-0.9 2.2-1.3 4.1-2.3 8-4.8 11.5-7.4 0.3-0.3 0.8-0.5 1.1-0.7 8.2 26.1 14.2 63.1-3.3 84-4.1 4.9-11.5 8.5-20.9 11-0.5 0.1-1 0-1.4 0.1-49.9 12.8-150.4-3.9-198-17.7-3.2-1-6.5-1.9-9.4-2.9-45.8-15.3-131.9-52.7-162.2-76.3-2.3-1.8-3.9-3.7-5.1-5.9-2-3.5-2.6-7.4-1.3-11.9 3.5-11.4 18-24.7 36.2-26.7zM260.5 867.1l47.9-398.8 111 69.6c7.4 4.6 14.8 9.1 22.3 13.4 5.1 2.9 10.3 5.6 15.5 8.4 1.9 1 3.8 2.1 5.7 3.1 41.9 22.1 85.7 39.4 131.2 52L260.5 867.1z m421.7-267c-16-2.3-31.8-5.3-47.4-8.8-0.1 0-0.1-0.1-0.2-0.1-42.6-9.4-83.7-23.1-122.9-40.8-2.8-1.3-5.6-2.5-8.4-3.9-5.3-2.5-10.6-5-15.8-7.7-4.7-2.4-9.3-4.8-13.9-7.3-3.8-2-7.6-4-11.4-6.1-8.6-4.9-17.2-9.9-25.7-15.2L303.8 427l-18.3-11.5a38.62 38.62 0 0 1-13-52.1c1.5-2.5 3.4-4.7 5.7-6.3 0.8 4.6 2 9 3.7 13.3 0.5 1.3 1 2.6 1.6 3.9 1 2.1 2 4.2 3.2 6.3 1.2 2.1 2.5 4.1 3.9 6 1 1.3 2 2.5 3.1 3.8 1.7 1.9 3.4 3.8 5.3 5.5l2.7 2.4c2.5 2.1 5.3 4 8.1 5.7 0.5 0.3 0.8 0.6 1.3 0.9 1 0.5 1.9 1.1 2.9 1.6l149 76.4c78.1 40.1 162 62.8 249.6 67.6 4.3 0.2 8.6 0 12.7-0.6h1.1c2.8 10.1 1.5 21.1-3.9 30.5-8.2 14.3-24 22-40.3 19.7z" fill="#004364" /><path d="M347.7 530.2m-18.8 0a18.8 18.8 0 1 0 37.6 0 18.8 18.8 0 1 0-37.6 0Z" fill="#004364" /><path d="M348.6 599.2c-9-5.2-20.5-2.1-25.7 6.9-5.2 9-2.1 20.5 6.9 25.7 9 5.2 20.5 2.1 25.7-6.9 5.2-9 2.1-20.5-6.9-25.7z" fill="#004364" /><path d="M508.1 622.3m-18.8 0a18.8 18.8 0 1 0 37.6 0 18.8 18.8 0 1 0-37.6 0Z" fill="#004364" /><path d="M430.2 689.4c9 5.2 20.5 2.1 25.7-6.9 5.2-9 2.1-20.5-6.9-25.7-9-5.2-20.5-2.1-25.7 6.9-5.2 9-2.1 20.5 6.9 25.7z" fill="#004364" /><path d="M419.5 591.9m-18.8 0a18.8 18.8 0 1 0 37.6 0 18.8 18.8 0 1 0-37.6 0Z" fill="#004364" /><path d="M364.2 688.1m-18.8 0a18.8 18.8 0 1 0 37.6 0 18.8 18.8 0 1 0-37.6 0Z" fill="#004364" /><path d="M323.6 758.9m-18.8 0a18.8 18.8 0 1 0 37.6 0 18.8 18.8 0 1 0-37.6 0Z" fill="#004364" /></svg>