<?xml version="1.0" encoding="utf-8"?>
<!-- Uploaded to: SVG Repo, www.svgrepo.com, Generator: SVG Repo Mixer Tools -->
<svg width="800px" height="800px" viewBox="0 0 1024 1024" class="icon"  version="1.1" xmlns="http://www.w3.org/2000/svg"><path d="M289.9 369s-31.1-12.6-47-41.8c-15.9-29.2-19.7-49.8-19.7-49.8s106.5-7.3 132.9 11.8c26.5 19.1 25 0 25 0l87.3-84.4s48.7 66.1 52.8 98.7 7 44 7 44l-98.1 28.3-140.2-6.8z" fill="#95C751" /><path d="M436.5 379.5s22.3-32 111.3-32h159.5s77.4-3.1 119.1 62.9 55.6 91 55.6 91 27.4 12.8 27.4 32.8-25.6 29.8-25.6 29.8S818 718.4 733.2 721.2s-198 3.7-198 3.7l-98.7-345.4z" fill="#EDE551" /><path d="M882 504.5s-32.8-49.6-38.5-59.2c2.2 6.4 4.6 23.4 6.3 37.9 1.9 16.1-0.9 32.4-8.4 46.9-22.1 43.1-75.5 132.2-139.7 134.3-66.6 2.2-150.6 3.2-183.6 3.6l17.1 59.9s113.1-0.9 198-3.7S883.9 567 883.9 567s25.5-9.7 25.5-29.7c-0.1-19.9-27.4-32.8-27.4-32.8z" fill="#DBD045" /><path d="M344.4 585.9m-232.2 0a232.2 232.2 0 1 0 464.4 0 232.2 232.2 0 1 0-464.4 0Z" fill="#EDE551" /><path d="M891.2 496.3l-6.6-12.1c-0.7-1.4-16.2-34.1-39.3-69.3-26.3-40-74-82.6-129.2-82.6H538.4c-2.4-69.4-57.1-133.6-59.5-136.4-3.6-4.2-9.6-5.3-14.4-2.7-46 24.5-75.8 59.4-94.8 90.5-21.4-9.1-74.9-27.4-148.5-21.5-3.2 0.3-6.2 1.8-8.2 4.4-2 2.5-2.9 5.8-2.4 9 0.4 2.5 8.2 53.8 48.2 86.6-91.8 34.6-157.4 123.2-157.4 227 0 134 109 243 243 243 78.7 0 148.6-37.8 193-95.9l178.5 0.1c56.6 0 106.9-43.2 129.6-83.3l38.6-68 6.9-12.7c17.9-3.4 31.4-19.2 31.4-38 0.2-19-13.3-34.7-31.2-38.1zM467 218.6c13.7 18 46.5 66.2 48 114.8-22.8 2.4-44.8 8.8-65.2 19.2l13.6-55.6c1.5-6.3-2.3-12.6-8.6-14.2-6.3-1.6-12.6 2.3-14.2 8.6l-16.7 68.3c-18.5-6.4-38-10.8-58.2-12.5 8.5-25.5 35.4-89.5 101.3-128.6z m-230.3 66.1c58.6-2.3 102.3 11.9 121.5 19.6-3.9 7.9-7.1 15.2-9.7 21.6l-53.9-23.3c-6-2.6-12.8 0.2-15.4 6.1-2.6 5.9 0.2 12.8 6.1 15.4l51.9 22.4c-17 0.5-33.6 2.8-49.6 6.7-31.8-17.5-45.6-50.5-50.9-68.5z m107.7 524.1c-121.1 0-219.6-98.5-219.6-219.6s98.5-219.6 219.6-219.6c30.2 0 59 6.1 85.2 17.2 0.3 0.1 0.6 0.3 1 0.5 5.8 2.5 11.5 5.3 17.1 8.3 1.1 0.6 2.1 1.2 3.1 1.7 5.3 3 10.5 6.1 15.5 9.4 0.4 0.3 0.8 0.5 1.2 0.8 34.5 23.5 62 56.5 78.7 95.2l0.9 2.1c5.2 12.4 9.2 25.3 12.1 38.7 0.3 1.5 0.6 3.1 0.9 4.7 1 5 1.7 10.1 2.3 15.3 0.2 1.9 0.5 3.8 0.6 5.6 0.6 6.6 1 13.4 1 20.2 0 6.8-0.4 13.6-1 20.2-0.2 2.1-0.5 4.2-0.8 6.4-0.6 4.6-1.2 9.1-2.1 13.6-0.4 2.4-0.9 4.8-1.4 7.1-0.9 4.3-2.1 8.6-3.3 12.8-0.6 2.2-1.2 4.5-1.9 6.7-1.8 5.8-3.9 11.4-6.2 16.9-1.3 3.2-2.9 6.4-4.4 9.6-1.2 2.5-2.3 4.9-3.5 7.4-1.8 3.5-3.8 7-5.9 10.5-1.1 1.8-2.2 3.7-3.3 5.4-2.3 3.6-4.6 7.2-7.1 10.7-39.8 55.6-105 92.2-178.7 92.2z m539.5-259.2c-4.3 0-8.2 2.3-10.3 6.1l-48.3 85.8c-19.5 34.4-62 71.4-109.3 71.4H553.4c0.6-1 1.1-2 1.6-3 1.7-3 3.4-6 5-9.1 2.1-4.1 4.1-8.2 6-12.4l3.9-9c2-4.8 3.7-9.7 5.4-14.7 0.7-2.2 1.4-4.5 2.1-6.8 1.8-6 3.4-12.1 4.7-18.3 0.1-0.7 0.3-1.3 0.5-2 1.4-6.9 2.4-14 3.2-21.1 0.2-1.8 0.4-3.6 0.6-5.5 0.7-7.3 1.1-14.6 1.1-22 0-7.5-0.5-14.8-1.1-22.1-0.2-1.8-0.4-3.7-0.6-5.5-0.8-6.9-1.8-13.7-3.1-20.5-0.1-0.3-0.1-0.6-0.2-1-1.5-7.3-3.4-14.5-5.6-21.6-0.3-1.1-0.7-2.2-1-3.3-16.5-51.7-49.9-96.6-95.4-127.3-0.2-0.2-0.4-0.3-0.7-0.4-6.3-4.2-12.8-8.2-19.5-11.9-0.1 0-0.1-0.1-0.2-0.1-0.6-0.3-1.2-0.7-1.8-1 23.5-12.3 49.6-18.8 76.3-18.8H716c45.9 0 87.8 38.8 109.7 72.1 22.2 33.7 37.6 66.1 38 67l9.9 18.1c2.1 3.8 6 6.1 10.3 6.1 8.4 0 15.3 6.9 15.3 15.3s-6.9 15.5-15.3 15.5z" fill="#004364" /><path d="M483.5 727.4c35.3-35.5 57.2-84.4 57.2-138.3s-21.9-102.8-57.2-138.3c-0.1-0.1-0.2-0.3-0.3-0.5-0.1-0.1-0.3-0.2-0.5-0.3-35.5-35.3-84.4-57.2-138.3-57.2-53.9 0-102.7 21.8-138.2 57.1-0.2 0.1-0.4 0.2-0.5 0.3-0.2 0.2-0.2 0.4-0.3 0.5-35.3 35.5-57.1 84.3-57.1 138.2 0 53.9 21.8 102.7 57.1 138.2 0.1 0.2 0.2 0.4 0.3 0.5 0.2 0.2 0.4 0.2 0.5 0.3 35.5 35.3 84.3 57.1 138.2 57.1 53.9 0 102.8-21.9 138.3-57.2 0.1-0.1 0.3-0.2 0.5-0.3 0.1 0.3 0.1 0.1 0.3-0.1zM172.3 600.9h143.9L214.5 702.6c-24.2-27.6-39.6-62.9-42.2-101.7z m42.2-125.1l101.7 101.7H172.3c2.6-38.8 18-74.1 42.2-101.7z m302.1 101.7H372.7l101.7-101.7c24.2 27.6 39.6 62.8 42.2 101.7z m-160.4-16.6V417c38.8 2.6 74.1 18 101.7 42.2L356.2 560.9z m-23.5 0L231 459.2c27.6-24.1 62.9-39.6 101.7-42.2v143.9z m0 56.5v143.9c-38.8-2.6-74.1-18.1-101.7-42.2l101.7-101.7z m23.5 0.1l101.7 101.7c-27.6 24.1-62.9 39.6-101.7 42.2V617.5z m16.5-16.6h143.9c-2.6 38.8-18 74.1-42.2 101.7L372.7 600.9z" fill="#004364" /><path d="M381.1 467.3m-13.5 0a13.5 13.5 0 1 0 27 0 13.5 13.5 0 1 0-27 0Z" fill="#004364" /><path d="M641.4 396.9m-13.5 0a13.5 13.5 0 1 0 27 0 13.5 13.5 0 1 0-27 0Z" fill="#004364" /><path d="M688.9 396.9m-13.5 0a13.5 13.5 0 1 0 27 0 13.5 13.5 0 1 0-27 0Z" fill="#004364" /><path d="M764.2 644.1m-13.5 0a13.5 13.5 0 1 0 27 0 13.5 13.5 0 1 0-27 0Z" fill="#004364" /><path d="M469.2 629.9c-2.5-7.1-10.2-10.8-17.2-8.3-7.1 2.5-10.8 10.2-8.3 17.2 2.5 7.1 10.2 10.8 17.2 8.3s10.8-10.2 8.3-17.2z" fill="#004364" /><path d="M276.4 714.5m-13.5 0a13.5 13.5 0 1 0 27 0 13.5 13.5 0 1 0-27 0Z" fill="#004364" /></svg>