<?xml version="1.0" encoding="utf-8"?>
<!-- Uploaded to: SVG Repo, www.svgrepo.com, Generator: SVG Repo Mixer Tools -->
<svg width="800px" height="800px" viewBox="0 0 1024 1024" class="icon"  version="1.1" xmlns="http://www.w3.org/2000/svg"><path d="M167.7 388.7s120.9-187.2 329.8-176.3 280.9 103.3 303.8 126.9 51.7 70.3 51.7 70.3L671.6 689.8s-41.4-24.8-65.1-5.5-19.6 56-12.8 65.9 18.7 15.8 18.7 15.8l-96.2 149.5L243 507.6s46.3-27.4 19.8-71.6c-25.7-43-61.4 4.4-61.4 4.4l-33.7-51.7z" fill="#FFFCEE" /><path d="M359.9 643.4m-78.6 0a78.6 78.6 0 1 0 157.2 0 78.6 78.6 0 1 0-157.2 0Z" fill="#FCD04E" /><path d="M399.4 356m-32.8 0a32.8 32.8 0 1 0 65.6 0 32.8 32.8 0 1 0-65.6 0Z" fill="#E8433F" /><path d="M732.8 573.2m-32.8 0a32.8 32.8 0 1 0 65.6 0 32.8 32.8 0 1 0-65.6 0Z" fill="#FFDEB3" /><path d="M547.2 501.7c23.3 14.5 49.3-1.3 54.5-19 5.2-17.7 20.8-42.3 20.8-42.3l28.9 8.2s1.5-47.4-19.3-62c-20.8-14.5-70.5-11.1-70.5-11.1l12.6 33.4s-28 23.6-41.5 53c-13.4 29.5 14.5 39.8 14.5 39.8z" fill="#95C751" /><path d="M167.6 384.4l-57.1-89.8s176-211.4 415.2-185.7 389.2 205 389.2 205L854.5 402s-107-175.3-342.4-185.7c-223-9.8-344.5 168.1-344.5 168.1z" fill="#FFDEB3" /><path d="M926.3 309.1C827.5 175.7 669.6 96 503.8 96c-157.5 0-305.4 69.8-405.7 191.5-3.5 4.2-3.8 10.3-0.8 14.9l57.8 87.1c0.2 1.8 0.8 3.6 1.8 5.2l33.5 50.6c2.5 3.8 6.9 5.9 11.3 5.6 4.5-0.3 8.5-3.1 10.4-7.2 4.1-8.8 13-14.5 22.6-14.5 13.8 0 25 11.2 25 25 0 13.5-10.6 24.4-24.1 24.9-4.5 0.2-8.6 2.8-10.7 6.8-2.1 4-1.8 8.9 0.7 12.6l57.2 86.2c-12.5 16.3-20 36.6-20 58.7 0 53.5 43.5 97 97 97 8.3 0 16.4-1.2 24.1-3.2l122.9 185.2c2.3 3.5 6.2 5.6 10.4 5.6s8.1-2.1 10.4-5.6l100-150.4c2.2-3.3 2.7-7.3 1.4-11-1.3-3.7-4.2-6.6-7.9-7.8-13.4-4.4-22.4-16.6-22.4-30.5 0-17.8 14.5-32.3 32.3-32.3 9.3 0 17.9 4 24.3 11.3 2.6 2.9 6.2 4.5 10.3 4.3 3.9-0.3 7.5-2.3 9.6-5.6l52-78.4c1.9 0.2 3.8 0.6 5.7 0.6 27.6 0 50-22.4 50-50 0-9-2.6-17.2-6.7-24.5l84.5-127.4c1.7-1 3.1-2.3 4.2-3.9l61.7-93.1c3-4.6 2.9-10.4-0.3-14.6zM288 643.4c0-19.2 7.6-36.6 19.9-49.5 1.5-1.5 3-3 4.5-4.4 0.3-0.2 0.5-0.5 0.8-0.7 1.4-1.2 2.9-2.4 4.5-3.5 0.5-0.4 0.9-0.7 1.4-1.1 1.2-0.9 2.5-1.6 3.8-2.4l2.4-1.5c0.9-0.5 1.9-0.9 2.8-1.4 1.2-0.6 2.4-1.2 3.7-1.8 0.5-0.2 1-0.3 1.4-0.5 8.2-3.3 17.2-5.2 26.6-5.2 39.7 0 71.9 32.3 71.9 71.9 0 3.4-0.3 6.8-0.8 10.1l-0.3 1.8c-1.2 6.9-3.3 13.5-6.3 19.7 0 0.1 0 0.1-0.1 0.2-8 16.1-21.9 29.1-39.4 35.6-7.8 2.9-16.2 4.6-25.1 4.6-39.4 0-71.7-32.3-71.7-71.9z m415.3-30.8l-41.1 62c-9.2-6-20-9.4-31.1-9.4-31.6 0-57.3 25.7-57.3 57.3 0 19.3 9.7 36.9 25.2 47.3l-81.5 122.9-109.7-165.1 0.1-0.1c3.5-2 6.8-4.2 10-6.6 0.3-0.2 0.6-0.5 1-0.7 6.6-5.1 12.5-10.9 17.6-17.4 0 0 0-0.1 0.1-0.1 2.5-3.3 4.9-6.7 7-10.3l0.1-0.1c4.1-7 7.4-14.6 9.6-22.7 0.2-0.6 0.3-1.1 0.4-1.7 0.8-3.2 1.5-6.5 2-9.8 0.1-0.9 0.3-1.8 0.4-2.7 0.5-3.9 0.8-7.9 0.8-11.9 0-53.5-43.5-97-97-97-4.8 0-9.5 0.5-14.2 1.2-1.1 0.2-2.1 0.3-3.2 0.5-4.4 0.8-8.6 1.9-12.8 3.2-1.1 0.4-2.1 0.8-3.2 1.2-3.8 1.4-7.5 3-11.1 4.9-0.5 0.3-1.1 0.5-1.7 0.8-4.1 2.2-8 4.9-11.7 7.6-0.4 0.3-0.8 0.5-1.2 0.8l-44.6-67.2c17-8 28.6-25.2 28.6-45.1 0-27.6-22.4-50-50-50-12.4 0-24.2 4.7-33.2 12.7l-19-28.7c1.9-2.5 3.7-5.1 5.6-7.6 2.2-2.9 4.4-5.8 6.6-8.6 2.8-3.4 5.7-6.8 8.5-10.1 2.3-2.7 4.6-5.4 6.9-8 3-3.3 6.2-6.5 9.3-9.7 2.4-2.4 4.7-4.9 7.1-7.3 3.3-3.2 6.7-6.3 10.1-9.4 2.4-2.2 4.8-4.4 7.3-6.6 3.6-3.1 7.3-6 11-9 2.4-1.9 4.8-3.9 7.2-5.8 3.9-3 7.8-5.8 11.8-8.6 2.4-1.7 4.8-3.5 7.2-5.1 4.1-2.8 8.4-5.4 12.6-8.1 2.4-1.5 4.7-3 7.2-4.5 4.4-2.6 8.9-5.1 13.4-7.5 2.4-1.3 4.7-2.6 7-3.9 4.7-2.4 9.4-4.6 14.1-6.8 2.3-1.1 4.6-2.3 7-3.3 4.9-2.2 9.8-4.1 14.7-6.1 2.3-0.9 4.6-1.9 7-2.8 5-1.9 10.1-3.6 15.2-5.2 2.4-0.8 4.7-1.6 7.1-2.4 5.1-1.6 10.3-2.9 15.5-4.3 2.4-0.6 4.8-1.4 7.3-2 5.2-1.3 10.5-2.3 15.8-3.4 2.5-0.5 4.9-1.1 7.4-1.6 5.4-1 10.8-1.7 16.2-2.5 2.4-0.3 4.8-0.8 7.2-1.1 5.7-0.7 11.4-1.1 17.2-1.6 2.2-0.2 4.4-0.5 6.6-0.6 8-0.5 15.9-0.7 24-0.7 8.7 0 17.3 0.3 25.8 0.8 3.3 0.2 6.6 0.6 9.9 0.9 5.2 0.5 10.4 0.8 15.5 1.5 4.1 0.5 8.2 1.3 12.3 1.9 4.2 0.7 8.5 1.2 12.7 2.1 4.5 0.9 8.9 2 13.4 3 3.7 0.8 7.4 1.6 11.1 2.5 4.7 1.2 9.3 2.7 13.9 4 3.3 1 6.7 1.9 10 3 4.7 1.6 9.4 3.3 14.1 5.1 3.1 1.1 6.2 2.2 9.3 3.4 4.7 1.9 9.3 4 13.9 6 3 1.3 6 2.5 8.9 3.9 4.6 2.2 9 4.5 13.5 6.9 2.9 1.5 5.8 2.9 8.6 4.5 4.4 2.4 8.6 5 12.9 7.6 2.8 1.7 5.7 3.4 8.5 5.1 4.1 2.6 8.2 5.5 12.2 8.3 2.8 1.9 5.6 3.8 8.3 5.8 3.9 2.8 7.6 5.8 11.4 8.8 2.8 2.2 5.6 4.3 8.3 6.6 3.6 3 7.1 6.2 10.6 9.3 2.7 2.5 5.5 4.9 8.2 7.4 3.3 3.1 6.5 6.4 9.7 9.7 2.7 2.8 5.5 5.5 8.1 8.4 3 3.2 5.9 6.6 8.8 9.9 2.7 3.1 5.3 6.1 7.9 9.3 2.7 3.3 5.3 6.8 7.9 10.2 2.6 3.4 5.2 6.8 7.7 10.3 2.4 3.4 4.8 6.9 7.1 10.4 1.6 2.4 3.2 4.8 4.7 7.3l-80.4 121.2c-1.2-0.7-2.4-1.3-3.7-1.9-1.4-0.7-2.9-1.4-4.4-1.9-2-0.7-4-1.4-6-1.9l-2.7-0.6c-2.9-0.5-5.8-0.9-8.7-0.9-27.6 0-50 22.4-50 50 0 3.1 0.4 6.1 0.9 9.1 0.1 0.6 0.2 1.1 0.3 1.6 0.6 2.7 1.4 5.4 2.5 7.9 0.3 0.6 0.5 1.2 0.8 1.9 1.1 2.4 2.3 4.8 3.8 7 0.3 0.5 0.7 1 1.1 1.4 1.3 1.8 2.6 3.4 4.1 5 0.7 0.7 1.4 1.5 2.1 2.2 1.3 1.8 2.9 3.1 4.7 4.4z m29.5-15.2c-2.6 0-5.1-0.5-7.5-1.3-0.1 0-0.1-0.1-0.2-0.1-7.6-2.5-13.3-8.3-15.9-15.4-0.1-0.4-0.3-0.8-0.4-1.2-0.7-2.3-1.1-4.6-1.1-7.1 0-13.8 11.2-25 25-25 1.8 0 3.5 0.2 5.2 0.6 0.3 0.1 0.5 0.2 0.8 0.2 1.5 0.4 2.9 0.8 4.2 1.4 0.1 0 0.1 0.1 0.2 0.1 3.1 1.5 6 3.6 8.4 6.4l0.1 0.1c3.7 4.4 6.1 10 6.1 16.1 0.2 14-11.1 25.2-24.9 25.2z m121.9-210.7c-1-1.5-2.1-2.9-3.1-4.3-2.2-3.2-4.5-6.4-6.8-9.6-3-4.1-6.1-8.2-9.2-12.3-2.4-3-4.8-5.9-7.2-8.9-3.3-4-6.6-7.9-10.1-11.8-2.5-2.8-5-5.5-7.5-8.1-3.6-3.8-7.2-7.6-10.9-11.2-2.5-2.5-5.1-5-7.7-7.4-3.9-3.6-7.8-7.2-11.8-10.7-2.6-2.3-5.2-4.5-7.9-6.7-4.1-3.4-8.4-6.8-12.6-10-2.7-2-5.3-4.1-8.1-6.1-4.4-3.2-8.9-6.3-13.4-9.3-2.7-1.8-5.5-3.7-8.2-5.4-4.6-3-9.4-5.8-14.1-8.5-2.8-1.6-5.6-3.3-8.4-4.8-4.9-2.7-9.8-5.2-14.7-7.7-2.9-1.4-5.7-2.9-8.6-4.3-5-2.4-10.1-4.6-15.3-6.7-2.9-1.2-5.9-2.5-8.8-3.7-5.2-2.1-10.5-3.9-15.7-5.8-3-1.1-6-2.2-9-3.2-5.3-1.7-10.7-3.3-16.1-4.8-3.1-0.9-6.2-1.8-9.3-2.6-5.5-1.4-11-2.6-16.5-3.8-3.1-0.7-6.3-1.4-9.4-2.1-5.7-1.1-11.4-1.9-17.2-2.8-3.1-0.5-6.2-1-9.3-1.4-6.1-0.8-12.4-1.3-18.6-1.8-2.8-0.2-5.5-0.6-8.3-0.8-9-0.6-18-0.9-27.1-0.9-8.4 0-16.8 0.3-25.2 0.8-3 0.2-5.9 0.5-8.9 0.8-5.3 0.4-10.7 0.8-16 1.5-3.7 0.4-7.3 1.1-10.9 1.6-4.6 0.7-9.1 1.3-13.6 2.1-3.9 0.7-7.8 1.6-11.7 2.4-4.2 0.9-8.3 1.7-12.4 2.7-4.1 1-8.1 2.1-12.1 3.2-3.9 1.1-7.8 2.1-11.6 3.3-4.1 1.3-8.2 2.7-12.3 4-3.7 1.2-7.4 2.5-11 3.8-4.1 1.5-8.2 3.2-12.2 4.8-3.5 1.4-7 2.8-10.5 4.3-4.1 1.8-8.1 3.7-12.1 5.6-3.4 1.6-6.8 3.2-10.1 4.9-4 2-7.9 4.1-11.8 6.3-3.3 1.8-6.5 3.6-9.7 5.5-3.9 2.2-7.7 4.6-11.4 6.9-3.2 2-6.3 4-9.5 6.1-3.7 2.4-7.4 5-11 7.5-3.1 2.2-6.2 4.4-9.2 6.7-3.5 2.6-7 5.3-10.4 8.1-3 2.4-6 4.9-8.9 7.4-3.3 2.8-6.6 5.6-9.8 8.5l-8.7 8.1c-3.1 2.9-6.2 5.9-9.2 9-2.9 2.9-5.6 5.9-8.4 8.9-2.9 3.1-5.7 6.1-8.5 9.3-2.8 3.2-5.5 6.4-8.2 9.7-2.6 3.2-5.2 6.3-7.8 9.5-0.6 0.8-1.3 1.5-1.9 2.3l-45.4-68.4C218.7 184.8 356.8 121 503.8 121c155 0 302.8 73.1 397.2 196l-46.3 69.7z" fill="#004364" /><path d="M401 308.9c-27.6 0-50 22.4-50 50s22.4 50 50 50 50-22.4 50-50c0.1-27.5-22.4-50-50-50z m0 75.1c-13.8 0-25-11.2-25-25s11.2-25 25-25 25 11.2 25 25-11.2 25-25 25zM637.1 375.6c-21.1-15.7-47.8-20.7-73.2-13.9-5.8 1.6-10.6 5.6-13.3 11-2.7 5.7-2.8 12.3-0.2 18.1 3.1 7 8.4 11.9 12.7 15.8 0.7 0.6 1.5 1.4 2.3 2.2l-37.7 34c-0.6 0.5-1.2 1.2-1.7 1.8-16.1 21.7-12.3 52.1 9.5 68.5 8.2 6 17.8 8.9 27.5 8.9 15 0 30.1-7.1 39.9-20.3 0.5-0.7 0.9-1.4 1.3-2.1l21.8-45.9c1 0.5 1.9 1.1 2.7 1.6 5 3 11.2 6.7 18.8 7.6 6.3 0.8 12.6-1.3 17.3-5.5 4.4-4.1 6.9-9.8 6.7-15.9-0.7-26.1-13.3-50.2-34.4-65.9z m4.5 58.4c-6.3-3.7-22.9-13.6-34.7 2.4-0.5 0.7-0.9 1.4-1.3 2.1l-23.5 49.4c-8 9.8-22.3 12.2-32.5 4.8-9.4-7.1-11.2-21.5-4.2-32l40.6-36.6c0.6-0.6 1.2-1.2 1.7-1.8 11.9-16-2.4-29-7.8-33.9-1.2-1.1-2.6-2.4-3.7-3.5 16.2-2.7 32.6 1.2 45.9 11.1 13.3 9.9 21.8 24.5 23.9 40.8-1.4-1.1-2.9-2-4.4-2.8z" fill="#004364" /><path d="M489.8 516.2m-14.5 0a14.5 14.5 0 1 0 29 0 14.5 14.5 0 1 0-29 0Z" fill="#004364" /><path d="M374.4 613.1m-14.5 0a14.5 14.5 0 1 0 29 0 14.5 14.5 0 1 0-29 0Z" fill="#004364" /><path d="M320.5 639.9m-14.5 0a14.5 14.5 0 1 0 29 0 14.5 14.5 0 1 0-29 0Z" fill="#004364" /><path d="M357.3 682.6m-14.5 0a14.5 14.5 0 1 0 29 0 14.5 14.5 0 1 0-29 0Z" fill="#004364" /><path d="M637 186.4m-14.5 0a14.5 14.5 0 1 0 29 0 14.5 14.5 0 1 0-29 0Z" fill="#004364" /><path d="M547.2 770.9m-14.5 0a14.5 14.5 0 1 0 29 0 14.5 14.5 0 1 0-29 0Z" fill="#004364" /><path d="M512 807.7m-14.5 0a14.5 14.5 0 1 0 29 0 14.5 14.5 0 1 0-29 0Z" fill="#004364" /></svg>