<?xml version="1.0" encoding="utf-8"?>
<!-- Uploaded to: SVG Repo, www.svgrepo.com, Generator: SVG Repo Mixer Tools -->
<svg width="800px" height="800px" viewBox="0 0 1024 1024" class="icon"  version="1.1" xmlns="http://www.w3.org/2000/svg"><path d="M397.6 295.1l253.7 0.9 69.4-50.1-96.7-28.5 0.2-59.4-51.6 26.7-51.7-71.2-54.3 67.2-47.7-25.3-6.2 58.8-90.9 25.5z" fill="#95C751" /><path d="M518.1 296.4c163.2 0.6 369.3-29.7 278.8 270.6S560.6 912.2 518.2 912c-100-0.3-277.9-200.3-305.2-371.7-27.1-169.9-2.3-231.9 165.6-238s139.5-5.9 139.5-5.9z" fill="#E8433F" /><path d="M755.8 337.3c22.9 36.2 26.5 94.6-1.8 188.5-82.3 273.2-215 314-253.5 313.9-91-0.3-252.8-182.3-277.7-338.1-7.2-45.4-10.2-82.1-7.2-111.8-13 36.2-10.8 87 0.2 156.1C242.5 713.3 416.3 908.7 514 909c41.4 0.1 183.8-43.7 272.3-337.1 40.8-135.6 19.7-202.2-30.5-234.6z" fill="#DC2831" /><path d="M794.3 329.8c-26.8-26.7-64.6-38.9-109.7-44.5l47.8-29.2c5.3-3.2 8.2-9.3 7.2-15.5-0.9-6.2-5.4-11.2-11.4-12.7l-88.9-23.1 0.2-52.5c0-5.6-3-10.9-8-13.6-4.9-2.7-11-2.6-15.7 0.4l-37.2 23.3-45.4-58.7c-5.8-7.6-18.5-7.6-24.4-0.1L463 162l-37.1-23.6c-4.8-3-10.8-3.2-15.7-0.5-5 2.7-8 7.9-8.1 13.5l-0.2 52.5-89.1 22.5c-6 1.5-10.6 6.5-11.5 12.6-1 6.1 1.8 12.3 7.1 15.5l45.3 28.1c-50.9 4.4-93.7 16-123.2 45.1-27.5 27.1-40.9 66.5-41.1 120.6-0.6 175 157.8 477 320.9 477.5 163.2 0.6 323.6-300.4 324.2-475.3 0.3-53.9-12.9-93.5-40.2-120.7z m-385.8-49.5l-52.7-32.7 65.3-16.5c6.9-1.7 11.7-7.9 11.7-15l0.1-36.4 25.2 16.1c6.8 4.3 15.6 2.7 20.5-3.5l42.2-53.8 41.8 54.1c4.8 6.3 13.7 7.9 20.5 3.7l25.3-15.9-0.1 36.4c0 7.1 4.7 13.3 11.6 15l65.2 17-53.5 32.7H629c-11.8-0.4-23.8-0.5-36.2-0.6H535.7l0.2-49.7c0-8.6-6.9-15.5-15.4-15.5-8.6 0-15.5 6.9-15.5 15.4l-0.2 49.7c-5.2 0-10.3-0.1-15.5-0.1-6-0.1-12-0.1-17.9-0.1-9.4-0.1-18.7-0.2-27.9-0.3h-5.6c-8.8 0-17.4 0-25.9 0.1-1.1-0.1-2.3-0.2-3.5-0.1z m102 614.7c-144.6-0.5-290.6-286.8-290.1-446.5 0.2-45.4 10.6-77.7 31.9-98.7 31.1-30.7 85.9-37.6 152.1-38.6 10.3-0.2 21-0.2 31.8-0.1 5.4 0 11 0.1 16.5 0.1 6.2 0.1 12.2 0.1 18.5 0.2 15.9 0.2 32.2 0.3 48.5 0.3 0.1 0 0.2 0.1 0.4 0.1 0.1 0 0.2-0.1 0.4-0.1h32.9c12.9-0.1 25.5-0.1 37.8-0.1 2.4 0 4.8 0 7.2 0.1 11.4 0.1 22.4 0.3 33.2 0.7 61.2 2.1 111.6 10.2 140.8 39.3 21.2 21.1 31.4 53.5 31.2 98.9-0.5 159.6-148.5 444.9-293.1 444.4z" fill="#004364" /><path d="M306.4 396.9m-17.9 0a17.9 17.9 0 1 0 35.8 0 17.9 17.9 0 1 0-35.8 0Z" fill="#004364" /><path d="M412 397.2m-17.9 0a17.9 17.9 0 1 0 35.8 0 17.9 17.9 0 1 0-35.8 0Z" fill="#004364" /><path d="M517.9 351.2m-17.9 0a17.9 17.9 0 1 0 35.8 0 17.9 17.9 0 1 0-35.8 0Z" fill="#004364" /><path d="M623.4 398m-17.9 0a17.9 17.9 0 1 0 35.8 0 17.9 17.9 0 1 0-35.8 0Z" fill="#004364" /><path d="M734.9 415.2c9.3-3.2 14.3-13.4 11.1-22.7-3.2-9.3-13.4-14.3-22.7-11.1-9.3 3.2-14.3 13.4-11.1 22.7 3.2 9.4 13.4 14.4 22.7 11.1z" fill="#004364" /><path d="M275.1 475.2m-17.9 0a17.9 17.9 0 1 0 35.8 0 17.9 17.9 0 1 0-35.8 0Z" fill="#004364" /><path d="M411.8 475.7m-17.9 0a17.9 17.9 0 1 0 35.8 0 17.9 17.9 0 1 0-35.8 0Z" fill="#004364" /><path d="M517.6 445.1m-17.9 0a17.9 17.9 0 1 0 35.8 0 17.9 17.9 0 1 0-35.8 0Z" fill="#004364" /><path d="M623.1 476.4m-17.9 0a17.9 17.9 0 1 0 35.8 0 17.9 17.9 0 1 0-35.8 0Z" fill="#004364" /><path d="M738.5 459.9c-9.3 3.2-14.3 13.4-11.1 22.7 3.2 9.3 13.4 14.3 22.7 11.1 9.3-3.2 14.3-13.4 11.1-22.7-3.2-9.4-13.4-14.3-22.7-11.1z" fill="#004364" /><path d="M305.8 558.6m-17.9 0a17.9 17.9 0 1 0 35.8 0 17.9 17.9 0 1 0-35.8 0Z" fill="#004364" /><path d="M411.5 558.9m-17.9 0a17.9 17.9 0 1 0 35.8 0 17.9 17.9 0 1 0-35.8 0Z" fill="#004364" /><path d="M517.3 528.3m-17.9 0a17.9 17.9 0 1 0 35.8 0 17.9 17.9 0 1 0-35.8 0Z" fill="#004364" /><path d="M622.8 559.6m-17.9 0a17.9 17.9 0 1 0 35.8 0 17.9 17.9 0 1 0-35.8 0Z" fill="#004364" /><path d="M722.7 543.1c-9.3 3.2-14.3 13.4-11.1 22.7 3.2 9.3 13.4 14.3 22.7 11.1 9.3-3.2 14.3-13.4 11.1-22.7-3.2-9.4-13.4-14.3-22.7-11.1z" fill="#004364" /><path d="M305.5 641.8m-17.9 0a17.9 17.9 0 1 0 35.8 0 17.9 17.9 0 1 0-35.8 0Z" fill="#004364" /><path d="M411.2 642.2m-17.9 0a17.9 17.9 0 1 0 35.8 0 17.9 17.9 0 1 0-35.8 0Z" fill="#004364" /><path d="M517 611.6m-17.9 0a17.9 17.9 0 1 0 35.8 0 17.9 17.9 0 1 0-35.8 0Z" fill="#004364" /><path d="M622.6 642.9m-17.9 0a17.9 17.9 0 1 0 35.8 0 17.9 17.9 0 1 0-35.8 0Z" fill="#004364" /><path d="M722.4 626.3c-9.3 3.2-14.3 13.4-11.1 22.7 3.2 9.3 13.4 14.3 22.7 11.1 9.3-3.2 14.3-13.4 11.1-22.7-3.2-9.3-13.3-14.3-22.7-11.1z" fill="#004364" /><path d="M349 725.2m-17.9 0a17.9 17.9 0 1 0 35.8 0 17.9 17.9 0 1 0-35.8 0Z" fill="#004364" /><path d="M454.7 710.1m-17.9 0a17.9 17.9 0 1 0 35.8 0 17.9 17.9 0 1 0-35.8 0Z" fill="#004364" /><path d="M577.3 704.6c-3.2-9.3-13.4-14.3-22.7-11.1-9.3 3.2-14.3 13.4-11.1 22.7 3.2 9.3 13.4 14.3 22.7 11.1 9.4-3.2 14.3-13.3 11.1-22.7zM660.2 709.4c-9.3 3.2-14.3 13.4-11.1 22.7 3.2 9.3 13.4 14.3 22.7 11.1 9.3-3.2 14.3-13.4 11.1-22.7-3.2-9.4-13.4-14.3-22.7-11.1z" fill="#004364" /><path d="M426.1 808.7m-17.9 0a17.9 17.9 0 1 0 35.8 0 17.9 17.9 0 1 0-35.8 0Z" fill="#004364" /><path d="M516.4 793.5m-17.9 0a17.9 17.9 0 1 0 35.8 0 17.9 17.9 0 1 0-35.8 0Z" fill="#004364" /><path d="M585.2 792.4c-9.3 3.2-14.3 13.4-11.1 22.7 3.2 9.3 13.4 14.3 22.7 11.1 9.3-3.2 14.3-13.4 11.1-22.7-3.2-9.4-13.4-14.3-22.7-11.1z" fill="#004364" /></svg>