<svg t="1731289290303" class="icon" viewBox="0 0 1024 1024" version="1.1" xmlns="http://www.w3.org/2000/svg" p-id="2357" width="192" height="192"><path d="M853.333333 277.333333a21.333333 21.333333 0 0 1 21.333334 21.333334v426.666666a21.333333 21.333333 0 0 1-21.333334 21.333334H170.666667a21.333333 21.333333 0 0 1-21.333334-21.333334V298.666667a21.333333 21.333333 0 0 1 21.333334-21.333334h682.666666M853.333333 213.333333H170.666667a85.333333 85.333333 0 0 0-85.333334 85.333334v426.666666a85.333333 85.333333 0 0 0 85.333334 85.333334h682.666666a85.333333 85.333333 0 0 0 85.333334-85.333334V298.666667a85.333333 85.333333 0 0 0-85.333334-85.333334z" p-id="2358" fill="#1296db"></path><path d="M256 389.973333a12.8 12.8 0 0 0-12.8-12.8h-38.4a13.226667 13.226667 0 0 0-12.8 12.8v235.093334a13.226667 13.226667 0 0 0 12.8 12.8h145.066667a12.8 12.8 0 0 0 12.8-12.8v-38.4a12.373333 12.373333 0 0 0-12.8-12.8H256zM573.44 426.666667v-38.4a13.226667 13.226667 0 0 0-12.8-12.8h-145.066667a12.8 12.8 0 0 0-12.8 12.8v235.093333a12.8 12.8 0 0 0 12.8 12.8h145.066667a13.226667 13.226667 0 0 0 12.8-12.8v-38.4a12.8 12.8 0 0 0-12.8-12.8h-93.866667v-34.133333h93.866667a13.226667 13.226667 0 0 0 12.8-12.8v-38.4a12.8 12.8 0 0 0-12.8-12.8h-93.866667v-34.56h93.866667a12.8 12.8 0 0 0 12.8-12.8zM686.933333 379.733333h-61.013333a12.373333 12.373333 0 0 0-12.8 12.8v229.973334a12.373333 12.373333 0 0 0 12.8 12.8h65.706667a128 128 0 0 0 125.44-153.173334 130.56 130.56 0 0 0-130.133334-102.4z m4.693334 191.573334h-14.506667v-128h14.506667a64 64 0 1 1 0 128z" p-id="2359" fill="#1296db"></path></svg>
