<?xml version="1.0" encoding="utf-8"?>
<!-- Uploaded to: SVG Repo, www.svgrepo.com, Generator: SVG Repo Mixer Tools -->
<svg width="800px" height="800px" viewBox="0 0 1024 1024" class="icon"  version="1.1" xmlns="http://www.w3.org/2000/svg"><path d="M327 202.1c-5 0-9.1 4.1-9.1 9.1v115.3c0 32.4-20.3 61.2-50.4 71.6-38.3 13.3-64 49.6-64 90.1v372.4c0 15.5 12.6 28.1 28.1 28.1h248.9c15.5 0 28.1-12.6 28.1-28.1V488.2c0-40.6-25.8-76.8-64.1-90.1-30.1-10.4-50.4-39.2-50.4-71.6V211.1c0-5-4.1-9.1-9.1-9.1h-58z" fill="#95C751" /><path d="M444.6 398c-30.1-10.4-50.4-39.2-50.4-71.6V202.1h-38.1v124.4c0 32.4 20.2 61.2 50.4 71.6 38.3 13.4 64.1 49.6 64.1 90.1v381.5c0 10.5-8.6 19.1-19.1 19.1h38.1c10.5 0 19.1-8.5 19.1-19.1V488.2c0-40.6-25.7-76.8-64.1-90.2z" fill="#6EB748" /><path d="M318 125.8h76.3v38.1H318z" fill="#FCD04E" /><path d="M356.1 125.8h38.1v38.1h-38.1z" fill="#F6BB33" /><path d="M480.1 888.7h-248c-15.8 0-28.6-12.8-28.6-28.6V687.4c0-15.2 12.4-27.6 27.6-27.6h250c15.2 0 27.6 12.4 27.6 27.6v172.7c0 15.8-12.8 28.6-28.6 28.6z" fill="#13AA5B" /><path d="M470.6 869.6c0 10.5-8.6 19.1-19.1 19.1h38.1c10.5 0 19.1-8.5 19.1-19.1V659.8h-38.1v209.8z" fill="#089648" /><path d="M260.7 583.5h190.7v114.4H260.7z" fill="#F2F5FB" /><path d="M470.6 736.1H241.7c-10.5 0-19.1-8.5-19.1-19.1V564.5c0-10.5 8.5-19.1 19.1-19.1h228.9c10.5 0 19.1 8.5 19.1 19.1V717c-0.1 10.6-8.6 19.1-19.1 19.1zM260.7 698h190.7V583.5H260.7V698z" fill="#004364" /><path d="M413.3 640.7m-19.1 0a19.1 19.1 0 1 0 38.2 0 19.1 19.1 0 1 0-38.2 0Z" fill="#004364" /><path d="M356.1 640.7m-19.1 0a19.1 19.1 0 1 0 38.2 0 19.1 19.1 0 1 0-38.2 0Z" fill="#004364" /><path d="M298.9 640.7m-19.1 0a19.1 19.1 0 1 0 38.2 0 19.1 19.1 0 1 0-38.2 0Z" fill="#004364" /><path d="M451.5 368.1s-0.1 0 0 0c-14.8-5.1-24.8-19.4-24.8-35.6l0.2-216.3c0-10.5-8.5-19.1-19.1-19.1H305.6c-10.5 0-19.1 8.5-19.1 19.1l-0.9 210.5c0 16.2-9.9 30.5-24.8 35.6C207.3 381 172 431.4 172 488.2l2.9 371.9c0 31.6 25.7 57.2 57.2 57.2h248c31.6 0 57.2-25.7 57.2-57.2l4.5-366.9c0-56.8-36.7-106.4-90.3-125.1zM327.6 125.8h57c5.3 0 9.6 4.3 9.6 9.6v18.9c0 5.3-4.3 9.6-9.6 9.6h-57c-5.3 0-9.6-4.3-9.6-9.6v-18.9c0-5.3 4.3-9.6 9.6-9.6zM508.7 860c0 15.9-12.9 28.7-28.7 28.7H232.2c-15.9 0-28.7-12.9-28.7-28.7V488.2c0-40.6 25.8-76.8 64-90.1 30.2-10.4 50.4-39.2 50.4-71.6V211.7c0-5.3 4.3-9.6 9.6-9.6h57c5.3 0 9.6 4.3 9.6 9.6v114.7c0 32.4 20.2 61.2 50.4 71.6 38.3 13.4 64.1 49.6 64.1 90.1V860z" fill="#004364" /><path d="M623.1 768v101.7c0 10.5 8.5 19.1 19.1 19.1h152.6c10.5 0 19.1-8.6 19.1-19.1V746.1c-24.9-14.6-61.1-13-83.4 4.9-29.6 23.6-71.8 29.3-107.4 17z" fill="#FCD04E" /><path d="M813.9 704.3v-82.6H623.1v104.5c24.9 14.6 61.1 13 83.4-4.9 29.6-23.7 71.8-29.3 107.4-17z" fill="#F2F5FB" /><path d="M775.7 621.7v76.4c13 0 26 2 38.1 6.2v-82.6h-38.1z" fill="#DEEAF4" /><path d="M775.7 736.6v132.9c0 10.5-8.6 19.1-19.1 19.1h38.1c10.5 0 19.1-8.5 19.1-19.1V746.1c-11.1-6.6-24.6-9.5-38.1-9.5z" fill="#F6BB33" /><path d="M833 583.5H604.1c-10.5 0-19.1 8.5-19.1 19.1v267c0 31.6 25.7 57.2 57.2 57.2h152.6c31.6 0 57.2-25.7 57.2-57.2v-267c0-10.5-8.5-19.1-19-19.1z m-209.9 38.2h190.7v82.6c-35.6-12.3-77.8-6.7-107.3 17-22.3 17.9-58.6 19.5-83.4 4.9V621.7z m171.7 267H642.2c-10.5 0-19.1-8.6-19.1-19.1V767.8c12.2 4.2 25.2 6.5 38.1 6.5 24.9 0 49.8-7.8 69.1-23.3 22.3-17.9 58.6-19.3 83.4-4.6v123.3c0.2 10.4-8.4 19-18.9 19z" fill="#004364" /></svg>