<?xml version="1.0" encoding="utf-8"?>
<!-- Uploaded to: SVG Repo, www.svgrepo.com, Generator: SVG Repo Mixer Tools -->
<svg width="800px" height="800px" viewBox="0 0 1024 1024" class="icon"  version="1.1" xmlns="http://www.w3.org/2000/svg"><path d="M529.7 364c14.4 0.6 70.3-27.6 50.2-113.3s-64.7-123.4-64.7-123.4-5 62.8-22 84.1c-17 21.3-37 82.3-17.6 111.1 19.5 29 54.1 41.5 54.1 41.5z" fill="#FCD04E" /><path d="M220.4 743s151.6-53.7 295.7-52.7c144.1 0.9 273.1 23.5 291 37.7 17.9 14.1 31.1 26.8 31.1 26.8s-69 73-307.2 62.7c-238.2-10.4-277.5-13.2-296.9-37.7-19.4-24.6-13.7-36.8-13.7-36.8z" fill="#8DD6E2" /><path d="M512 911.6c73.8-1.9 217-19.8 260.3-56.5s49-75.3 49-75.3-112.3 40.4-290.2 37.6c-177.9-2.8-290-37.7-290-37.7s33.9 82.9 121.5 105.5c87.6 22.6 149.4 26.4 149.4 26.4z" fill="#A6EEFF" /><path d="M434.1 454.2h193.8v358.1H434.1z" fill="#F2F5FB" /><path d="M566.7 454.2h55.9v358.1h-55.9z" fill="#DEEAF4" /><path d="M856.9 754.7c0-49.5-127.1-67.9-212.4-74.7V427.4c0-3-0.9-5.9-2.5-8.3-10.1-24.4-50.2-37.9-91.5-41.2v-0.6c15.3-7.3 25.5-20.2 30.7-28.3 23.2-35.6 26.8-85.7 9.6-134-14.9-41.9-41.3-77-66.8-110.9-3.9-5.2-10.8-7.3-17-5.2-6.2 2.1-10.3 8-10.2 14.5 0.3 27.5-9.1 54.1-19 82.3-3.7 10.4-7.4 21.2-10.7 32-16.5 54.8-11.4 101.6 14.5 131.7 7.2 8.4 15.6 14.7 24.5 18.7-40.4 3.7-79.1 17.1-89 41.1-1.5 2.4-2.4 5.2-2.4 8.2V680c-68.2 5.4-163.1 18.3-198.4 48.6-8.1-14.4-14-31.2-16.9-49.5-6.5-40.9 1.9-80.4 22.9-108.4 22.8-30.4 61.8-45.8 94.6-37.4 34 8.7 58.5 45.5 51.3 77.2-3.1 13.6-11.5 25-22 29.8-10.1 4.6-23.4 2.3-29.4-5.3-2.8-3.5-4-8.9-3-14 0.8-4.2 2.8-7.5 5.6-9.1 7.2-4.2 9.6-13.5 5.4-20.7-4.2-7.2-13.5-9.6-20.7-5.4-10.4 6.1-17.7 16.9-20 29.8-2.5 13.7 0.9 28.1 9.2 38.4 14.7 18.3 42.9 24.2 65.6 13.8 19.2-8.8 33.7-27.7 38.9-50.6 10.8-47.6-23.5-100.5-73.3-113.2-44.4-11.4-96.4 8.6-126.3 48.5-25.9 34.6-36.4 82.5-28.6 131.4 5 31.3 17.2 59.3 34.7 80.9 0.8 2.2 2 4.4 3.4 6.5 18.7 47.2 87.2 154.7 322 154.7 234.7 0 303.3-107.4 322-154.7 3.3-5.2 5.2-10.6 5.2-16.6z m-30.2-0.3c-0.1 0.2-0.2 0.5-0.3 0.7-0.1 0.2-0.3 0.3-0.5 0.5-2.2 2.9-5.9 5.7-11.1 8.6-12 6.4-33.6 14.1-67 21-26.2 5.3-58 9.9-94.3 13.2h-0.3c-2.9 0.3-5.8 0.5-8.8 0.7v-88.8c128.9 10.6 179.2 34.8 182.3 44.1z m-310 49.2H513c-1.7 0-3.3 0-4.9-0.1-36.1-0.6-54.3-2.5-63-4V469c22.1 10.9 53.4 16.5 84.6 16.5 31.2 0 62.5-5.6 84.6-16.5v329.5c-11.6 2-34.6 4.7-75.1 5.1h-9.5c-4.4 0.1-8.7 0-13 0z m-12-463.8c-25.5-29.7-16.3-77.5-8.5-103.3 3.1-10.2 6.7-20.6 10.3-30.7 6-17.1 12.2-34.6 16.2-52.7 16.1 22.7 30.7 46.3 39.8 72 14 39.5 11.6 79.7-6.5 107.4-3.3 5-7.1 9.3-11.1 12.6v-78.7c0-8.4-6.8-15.1-15.1-15.1-8.4 0-15.1 6.8-15.1 15.1v81.9c-3.6-2.1-7-5-10-8.5z m9.9 68v15.6c0 8.4 6.8 15.1 15.1 15.1 8.4 0 15.1-6.8 15.1-15.1v-15.6c41.7 2.6 63.6 14.9 68.4 21.2-5.7 7-33.7 20.4-83.5 20.4-50 0-78.1-13.5-83.6-20.3 4.7-6.3 26.5-18.7 68.5-21.3z m-99.8 302.5v88.8c-3-0.2-6-0.5-8.9-0.8h-0.2c-44.9-4.1-83-10.1-112-17.2-1.4-0.3-2.7-0.7-4-1-0.7-0.2-1.4-0.4-2.1-0.5-7.8-2-14.6-4-20.6-6-0.3-0.1-0.6-0.2-0.8-0.3l-2.7-0.9c-2.6-0.9-5-1.8-7.3-2.8l-0.9-0.6c-7.7-4.2-14.7-9.8-21.1-16.3 9.4-11 61.3-32.6 180.6-42.4z m114.9 185.3c-154.9 0-230.3-50-266.2-91.4 29.4 9.5 65.8 15.9 100.8 20.2 2.2 0.3 4.5 0.5 6.7 0.8l7.8 0.9c5.1 0.6 10.2 1.1 15.4 1.6 0.3 0 0.6 0.1 0.9 0.1 5.7 0.5 11.4 1 17.2 1.5h0.2c4.6 0.4 9.2 0.7 13.8 1 0.9 0.1 1.8 0.1 2.6 0.2h0.3c22.2 1.5 44.9 2.5 67.5 3 9.7 0.2 20.7 0.4 33.1 0.4 33.3 0 67.4-1.1 100.5-3.4h0.3c0.8-0.1 1.7-0.1 2.5-0.2 10.6-0.7 21-1.6 31.3-2.6 0.2 0 0.5 0 0.7-0.1 5.3-0.5 10.5-1 15.6-1.6 2.5-0.3 5.1-0.6 7.7-0.9 2.3-0.3 4.6-0.5 6.9-0.8 35-4.3 71.4-10.8 100.8-20.2-36.1 41.5-111.6 91.5-266.4 91.5z" fill="#004364" /><path d="M591.8 505.4m-13.5 0a13.5 13.5 0 1 0 27 0 13.5 13.5 0 1 0-27 0Z" fill="#004364" /><path d="M591.8 660m-13.5 0a13.5 13.5 0 1 0 27 0 13.5 13.5 0 1 0-27 0Z" fill="#004364" /><path d="M588.6 560.3m-13.5 0a13.5 13.5 0 1 0 27 0 13.5 13.5 0 1 0-27 0Z" fill="#004364" /></svg>