<?xml version="1.0" encoding="utf-8"?>
<!-- Uploaded to: SVG Repo, www.svgrepo.com, Generator: SVG Repo Mixer Tools -->
<svg width="800px" height="800px" viewBox="0 0 1024 1024" class="icon"  version="1.1" xmlns="http://www.w3.org/2000/svg"><path d="M241 919.7c-9.3 4.2-19.4 6.3-29.9 6.1-18.3-0.4-35.2-7.9-47.9-21.1-9.8-10.2-16-22.9-18-36.6-13.6-2.7-26-9.5-35.8-19.7-26-27.2-25-70.6 2.2-96.6 24.3-23.2 61.4-24.9 87.6-5.7L343.8 608c3.2-3.1 7.7-4.5 12.2-3.9 4.4 0.6 8.4 3.3 10.6 7.1 5.8 9.9 12.4 18.8 19.8 26.5 7.9 8.3 17.2 15.8 27.7 22.3 3.9 2.4 6.4 6.4 6.8 10.9 0.5 4.5-1.2 9-4.5 12.1L271 822c16.3 26.8 12.4 62.4-11.2 85-5.5 5.2-11.9 9.5-18.8 12.7z" fill="#F2F5FB" /><path d="M135.2 830.7c-10.8-2.2-20.7-7.5-28.7-15.4 2.5 5 5.6 9.8 9.6 14.1 6.5 6.8 14.4 11.8 23 14.8-1.8-4.4-3.2-8.8-3.9-13.5zM358.6 628.4c-6.3-6.6-26 3.7-21.1 8.9 6.6 6.9 7 3.9 13.4 12 12.7 15.9 3 25.2 0.2 27.8l-132 125.3c13.7 22.5 7.3 45.9-7.7 56.6-16.1 11.5-49 13.9-59.4 3.8 2.6 5.4 6.1 10.5 10.4 14.9 10.8 11.3 29.5 31.7 45.2 32.1 9 0.2 17.7-1.6 25.7-5.2 5.9-2.7 11.4-6.4 16.2-11 20.3-19.4 19.6-63.9 5.5-86.9l125-119.4c2.8-2.7 15.7-13.5 15-17.3-2.3-12.2-29.6-34.5-36.4-41.6z" fill="#DEEAF4" /><path d="M314.5 642.2l110.3-400.7s37-66.3 117.1-103.9 244.8-28.7 301.5 51.9C900 270.2 962 423.1 876.1 531.1S408.8 703.5 408.8 703.5L391 658.8l-30.7-24.3-45.8 7.7z" fill="#DD9121" /><path d="M864.7 218.4C830.4 169.6 721 89 635.1 128.2c28.4 11.9 113.6 32.1 147.2 74.2 73.4 92 98.5 206.8 12.6 314.8-58.6 73.7-288 110.2-406.7 136.7l-3.8 56.6s392.8-50.9 478.8-159 58.1-252.4 1.5-333.1z" fill="#CE790A" /><path d="M240 917.4c-9.3 4.2-19.4 6.3-29.9 6.1-18.3-0.4-35.2-7.9-47.9-21.1-9.8-10.2-16-22.9-18-36.6-13.6-2.7-26-9.5-35.8-19.7-26-27.2-25-70.6 2.2-96.6 24.3-23.2 61.4-24.9 87.6-5.7l144.6-138.1c3.2-3.1 7.7-4.5 12.2-3.9 4.4 0.6 8.4 3.3 10.6 7.1 5.8 9.9 12.4 18.8 19.8 26.5 7.9 8.3 17.2 15.8 27.7 22.3 3.9 2.4 6.4 6.4 6.8 10.9 0.5 4.5-1.2 9-4.5 12.1L270 819.7c16.3 26.8 12.4 62.4-11.2 85-5.5 5.3-11.9 9.6-18.8 12.7z m-98.3-154c-3.9 1.8-7.5 4.2-10.7 7.3-15.6 14.9-16.1 39.6-1.3 55.2 7.4 7.8 17.5 12 28.4 11.9 4 0 7.9 1.6 10.7 4.5 2.8 2.9 4.2 6.8 4 10.9-0.6 10.9 3.2 21.2 10.6 28.9 7.2 7.5 16.9 11.8 27.3 12.1 10.4 0.2 20.3-3.6 27.9-10.8 15.6-14.9 16.1-39.6 1.3-55.2-5.6-5.9-5.4-15.1 0.5-20.7l141.9-135.6c-6.5-5.1-12.6-10.5-18.1-16.3-4.9-5.1-9.5-10.7-13.9-16.6L208.5 774.5c-2.9 2.8-6.8 4.2-10.8 4-4-0.2-7.8-2-10.4-5-0.3-0.3-1.2-1.5-1.6-2-11.7-12-29.5-14.8-44-8.1z" fill="#004364" /><path d="M771 634.4c-18.6 8.5-38.5 15.1-59.3 19.5l-348.6 73.8c-6.4 1.4-12.9-1.7-16-7.5-3.1-5.8-1.9-12.9 2.8-17.4l32.4-30.9c-6.5-5.1-12.6-10.5-18.1-16.3-4.9-5.1-9.5-10.7-13.9-16.6l-35.2 33.7c-4.7 4.5-11.9 5.4-17.6 2-5.6-3.3-8.4-10-6.8-16.3l90.9-349.8C414.8 180.9 530 94.4 661.9 98.4c152.7 4.5 275 132.5 272.5 285.2-1.8 110.6-66.5 206.6-163.4 250.8z m-363.5 54l298.2-63.1c115.5-24.5 197.6-124 199.4-242.1 2.2-136.8-107.3-251.4-244.1-255.4-118-3.5-221.3 73.9-250.9 188.2l-77.9 299.9 10.7-10.2c3.2-3.1 7.7-4.5 12.2-3.9 4.4 0.6 8.4 3.3 10.6 7.1 5.8 9.9 12.4 18.8 19.8 26.5 7.9 8.3 17.2 15.8 27.7 22.3 3.9 2.4 6.4 6.4 6.8 10.9 0.5 4.5-1.2 9-4.5 12.1l-8 7.7z" fill="#004364" /><path d="M474.4 627.1c-3.5 1.6-7.7 1.8-11.5 0.3-1.6-0.7-40.2-16.6-63.3-65.4-3.5-7.3-0.3-16.1 7-19.5 7.4-3.4 16.1-0.3 19.5 7 17.9 37.9 47.4 50.6 47.7 50.7 7.5 3 11.2 11.5 8.2 19.1-1.6 3.6-4.3 6.3-7.6 7.8z" fill="#004364" /><path d="M485.8 334.4m-16.9 0a16.9 16.9 0 1 0 33.8 0 16.9 16.9 0 1 0-33.8 0Z" fill="#004364" /><path d="M500.4 246.1m-16.9 0a16.9 16.9 0 1 0 33.8 0 16.9 16.9 0 1 0-33.8 0Z" fill="#004364" /><path d="M606.6 181.1m-16.9 0a16.9 16.9 0 1 0 33.8 0 16.9 16.9 0 1 0-33.8 0Z" fill="#004364" /><path d="M701.1 211.4m-16.9 0a16.9 16.9 0 1 0 33.8 0 16.9 16.9 0 1 0-33.8 0Z" fill="#004364" /><path d="M588.7 281.2m-16.9 0a16.9 16.9 0 1 0 33.8 0 16.9 16.9 0 1 0-33.8 0Z" fill="#004364" /></svg>