<?xml version="1.0" encoding="utf-8"?>
<!-- Uploaded to: SVG Repo, www.svgrepo.com, Generator: SVG Repo Mixer Tools -->
<svg width="800px" height="800px" viewBox="0 0 1024 1024" class="icon"  version="1.1" xmlns="http://www.w3.org/2000/svg"><path d="M863.8 838.6s-34.1-58.1-25.7-92c8.4-33.9 25.7-62.1 25.7-62.1s-46.6 24.9-79.2-20.6c-32.5-45.6-14.1-52.2-14.1-52.2l-137.8 0.1L597 703l-32.5 79.2s62.9 5.2 82.4 33c19.5 27.8 26.8 78.8 26.8 78.8s40.4-42.3 74.1-50.4c33.6-8.3 116-5 116-5zM403.9 739.6l-14.9 91s-35.6-14.3-64.6-14.5c-29-0.2-74.5 0-74.5 0s41.2-40.9 34.7-79.7c-6.5-38.8-34.7-63.7-34.7-63.7l74.5-38.2 79.5 105.1zM273.7 498l57.7-11.8L446 413.4v-80.3s-36.6-17.1-42.1-54.7 0-87.4 0-87.4-38 36.4-83.5-6.7-39-56.6-39-56.6-24.9 36.2-40.1 46c-15.2 9.8-60.7 10.6-60.7 10.6s42.3 61.9 42.3 90.7-42.3 102.6-42.3 102.6 48.8 15.4 69.4 45.1c20.5 29.7 23.7 75.3 23.7 75.3z" fill="#95C751" /><path d="M470.1 586.2m-162.7 0a162.7 162.7 0 1 0 325.4 0 162.7 162.7 0 1 0-325.4 0Z" fill="#FC5C30" /><path d="M698.6 486.2m-134.1 0a134.1 134.1 0 1 0 268.2 0 134.1 134.1 0 1 0-268.2 0Z" fill="#FC5C30" /><path d="M554.6 368m-108.6 0a108.6 108.6 0 1 0 217.2 0 108.6 108.6 0 1 0-217.2 0Z" fill="#FC5C30" /><path d="M885.5 828.1c-15.8-9.3-27.6-26.8-30.3-44.7-4-27.6 5.7-58.5 30.6-97.5 4.3-6.8 3-15.7-3.1-20.9-6.1-5.2-15.1-5.1-21.1 0.3-6.4 5.7-14.5 8.6-24.1 8.6-19 0-39.8-11.5-50.7-27.9-5.1-7.7-8.9-16.4-11.8-26.3 69.7-44.6 91.8-137.1 48.8-208.5-28-46.6-77.3-74.3-131.7-74.3-6.8 0-13.6 0.5-20.3 1.4-3.1-10-7.2-19.6-12.6-28.6-23.5-39-64.8-62.4-110.4-62.4-23.3 0-46.3 6.4-66.4 18.5-19 11.5-34 27.2-44.6 45.3-5.3-5.7-9.7-12.1-12.4-18.9-12.3-30.9-5.2-67.7 4.2-102.9 1.8-6.8-1-14-7-17.8-6-3.8-13.7-3.2-19 1.5-10.9 9.4-26 14.8-41.6 14.8-11.8 0-23-3-32.4-8.8-20.7-12.7-32.7-38.7-29.1-63.2 1.2-8.5-4.5-16.5-12.9-18.1-8.4-1.6-16.7 3.8-18.6 12.2-6.3 27.2-27.3 50.3-53.5 58.9-12.8 4.2-27.2 4.8-41.3 1.8-7.3-1.5-14.7 2.1-17.9 8.8-3.2 6.7-1.3 14.8 4.5 19.4 26.6 21.2 43.5 50.4 46.2 80.1 4 42.7-25.7 87.6-64.9 98.1-8.2 2.2-13.3 10.5-11.5 18.8 1.7 8.3 9.7 13.9 18.1 12.6 6.5-1 13-1.5 19.4-1.5 26.8 0 50.2 8.4 66.2 23.7 21.7 20.8 26 58.4 9.2 79.4-1.8 1.8-3.5 3.6-5.1 5.5-5.7 6.4-5.3 16.2 0.8 22.1 3.1 3 7.2 4.6 11.2 4.6 3.9 0 7.9-1.4 10.9-4.3 2.1-1.9 4.1-4 5.9-6.2 13.2-12.9 28.6-21.1 43.6-26.3-18.3 37.1-23.8 79.9-14.5 121-23.1 12.6-47.5 22.9-72.7 30.3-7.9 2.3-12.7 10.2-11.3 18.3 1.5 8.1 8.8 13.7 17 13.1 12.5-1 21.6 7 26.8 13.6 10.3 13.1 14.6 32.2 10.9 47.7-7.5 30.8-33.1 54.5-63.2 80.2-6 5.1-7.4 13.9-3.3 20.6 4.1 6.7 12.5 9.5 19.8 6.4 28.4-11.8 57.8-24 87.8-25.5 1.7-0.1 3.3-0.1 5-0.1 22.4 0 51.5 7.9 66.2 30.1 3 4.6 8.1 7.2 13.4 7.2 1.8 0 3.6-0.3 5.3-0.9 7-2.5 11.3-9.3 10.6-16.7-3-30.2 0.4-61.4 9.6-91.1 17.6 5.6 36.3 8.5 55.5 8.5 32 0 63.5-8.6 91.3-24.8-8.2 18.8-21.9 34.4-38.9 43-7.6 3.8-10.9 12.9-7.5 20.7 3.4 7.8 12.3 11.6 20.3 8.7 13.9-5.1 28.6-7.8 42.4-7.8 17.5 0 33 4.1 45.9 12.3 25.4 16 37.3 52 25.1 75.9-1.4 2.1-2.7 4.2-3.9 6.4-4.3 7.4-1.9 16.9 5.3 21.5 2.7 1.7 5.7 2.5 8.6 2.5 5 0 10-2.4 13.1-6.8 1.6-2.3 3.2-4.8 4.5-7.3 20-29.8 56.9-50.5 101.4-56.8 26.3-3.7 53.9-3.2 93.4 2.1 7.6 1 14.8-3.4 17.3-10.7 3.1-7 0.1-15-6.5-18.9z m-89.1-400.3c34.6 57.4 16 132.2-41.4 166.8-2.7 1.6-5.6 3-8.4 4.4-2.2 1.1-4.5 2.1-6.7 3.1-2 0.8-3.9 1.6-5.9 2.3-2.1 0.8-4.2 1.4-6.4 2.1-2.1 0.6-4.3 1.3-6.5 1.8s-4.3 0.9-6.5 1.3c-2.1 0.4-4.3 0.8-6.5 1.1-2.3 0.3-4.7 0.5-7.1 0.6-2 0.1-4 0.3-6 0.4-2.6 0.1-5.2 0-7.8-0.2-1.8-0.1-3.6-0.1-5.3-0.2-2.9-0.2-5.7-0.7-8.5-1.1-1.5-0.2-3.1-0.4-4.6-0.7-2.9-0.6-5.8-1.4-8.7-2.1-1.4-0.4-2.9-0.7-4.3-1.1l-0.9-0.3c3.2-28.9-0.5-58.7-11.7-86.9 0-0.1 0-0.1-0.1-0.2-1.7-4.3-3.6-8.5-5.6-12.7-0.3-0.6-0.6-1.3-1-1.9-2-4-4.2-8.1-6.6-12-2.8-4.7-5.9-9.2-9.1-13.6l-1.8-2.4c-10.6-14.1-23-26.4-36.8-36.6 0.4-0.9 0.8-1.7 1.2-2.6 0.6-1.3 1.3-2.5 1.9-3.8 0.8-1.5 1.7-3 2.5-4.5 0.7-1.2 1.4-2.4 2.2-3.6 0.9-1.5 1.9-2.9 2.9-4.3 0.8-1.1 1.5-2.2 2.4-3.3l3.3-4.2c0.8-1 1.6-2 2.5-3 1.2-1.4 2.5-2.7 3.8-4.1 0.9-0.9 1.7-1.8 2.6-2.7 1.4-1.4 2.9-2.7 4.4-4 0.8-0.7 1.6-1.5 2.5-2.2 1.8-1.5 3.6-2.9 5.5-4.3 0.6-0.5 1.3-1 1.9-1.5 2.6-1.8 5.2-3.6 7.9-5.2 2.5-1.5 5.1-2.9 7.8-4.3 0.8-0.4 1.6-0.8 2.4-1.1 1.8-0.9 3.7-1.7 5.5-2.5 1-0.4 2-0.8 3.1-1.2 1.7-0.7 3.5-1.3 5.2-1.9 1-0.3 2.1-0.7 3.1-1 1.8-0.6 3.7-1.1 5.5-1.6 9.7-2.5 19.8-3.8 29.9-3.8 43.1 0 82.1 22 104.2 58.8zM499.2 293.3c15.1-9.1 32.3-13.9 49.8-13.9 34.3 0 65.3 17.5 83 46.8 3.7 6.1 6.7 12.7 8.9 19.5-0.3 0.1-0.5 0.2-0.8 0.3-4 1.4-7.8 3.1-11.7 4.8-1.1 0.5-2.1 1-3.2 1.5-4.1 2-8.1 4.1-12.1 6.5-3.6 2.1-7 4.5-10.3 6.9-1.1 0.8-2.1 1.6-3.1 2.4-2.3 1.7-4.5 3.5-6.7 5.3l-3.3 3c-2 1.8-4 3.7-5.9 5.6-1 1-2 2-3 3.1-2.1 2.2-4.1 4.5-6 6.8-0.7 0.8-1.4 1.6-2.1 2.5-2.6 3.2-5 6.5-7.3 9.9-0.4 0.6-0.8 1.3-1.2 1.9-1.8 2.8-3.6 5.7-5.3 8.6-0.7 1.2-1.3 2.4-2 3.7-0.7 1.4-1.5 2.8-2.2 4.2-24.6-12.1-52-18.6-80.7-18.6-5.7 0-11.4 0.4-17 0.9-0.6-1.8-1.1-3.5-1.5-5.3-0.2-0.7-0.4-1.4-0.5-2-0.7-3-1.2-5.9-1.6-8.9v-0.1c-0.4-3-0.6-5.9-0.7-8.9v-1.2c-0.1-2.7 0-5.4 0.1-8.1 0-0.3 0-0.6 0.1-0.9 0.7-9.2 2.7-18.5 6-27.4 0.1-0.3 0.1-0.5 0.2-0.8 7.3-19.5 21-36.6 40.1-48.1z m-213 187.4c0.8-26.3-9.3-53.8-29.4-73.2-14.9-14.3-34.1-24.2-55.9-29.1 26.3-26.2 41.8-64.5 38.3-102.4-2.4-25.7-12.7-50.9-29.4-72.8 5.4-0.9 10.6-2.1 15.7-3.8 19.9-6.5 37.7-18.9 51.1-35 7.7 17.3 20.3 32.3 36.3 42.1 14.4 8.9 31.5 13.5 49.2 13.5 9.8 0 19.4-1.4 28.5-4.1-5.4 29.7-6.3 59.9 5 88.3 5.8 14.6 16.1 28.2 29 38.6-0.1 0.3-0.1 0.5-0.2 0.8-1.8 6.9-3.1 14-3.7 21.2-0.2 1.6-0.3 3.3-0.4 4.9-0.1 1.6-0.1 3.1-0.1 4.7 0 2.1 0 4.3 0.1 6.4 0 1.2 0.1 2.5 0.1 3.7 0.2 3.4 0.5 6.7 1 10.1 0.1 0.7 0.2 1.3 0.4 2 0.5 2.8 1 5.7 1.7 8.5 0.2 1 0.5 2.1 0.8 3.1 0.2 0.9 0.4 1.8 0.7 2.7-0.8 0.2-1.6 0.5-2.4 0.8-1.7-2.6-4.1-4.8-7.2-6.2-18.1-7.9-32.9-19-45.1-34.4-8.8-28-6.7-59.9 5.9-86.3 3.8-8 0.4-17.6-7.6-21.4-8-3.8-17.6-0.4-21.4 7.5-4.2 8.8-7.5 17.9-9.8 27.2-3.6-14-6.7-29.4-9.3-46.6-1.3-8.8-9.5-14.8-18.3-13.4-8.8 1.3-14.8 9.5-13.4 18.3 6.4 42.3 15.9 76.2 29.2 103.2-15.9-1.7-22.3-3.7-36.6-20.6-5.7-6.7-15.9-7.6-22.6-1.8-6.7 5.7-7.6 15.9-1.8 22.6 23.1 27.1 38.1 29.8 62.8 32.2 5.9 0.6 12.6 1.3 20.3 2.5 0.2 0.1 0.5 0.2 0.7 0.3 10.9 13 23.6 23.4 38.1 31.8-2.1 1.2-4.3 2.3-6.4 3.6-3.7 2.3-7.3 4.7-10.9 7.1-0.5 0.3-0.9 0.7-1.4 1-11.4 8.2-21.7 17.5-30.7 27.8-18.3 2.6-35.5 7.5-50.9 14.6z m90.2 334.4c-17.6-10.5-39.3-16.2-62.8-16.2-2.2 0-4.4 0.1-6.6 0.2-10.6 0.5-21.1 2.1-31.3 4.5 10.3-13.7 18.7-29.1 22.9-46.5 6.1-24.9-0.6-54.4-16.8-75.1-2.5-3.2-5.2-6.2-8.1-8.8 11.2-4.7 22.3-9.9 33-15.5 1.6 3.8 3.4 7.5 5.3 11.2l0.3 0.6c1.9 3.6 3.8 7.2 5.9 10.7 2.1 3.6 4.4 7 6.8 10.4 0.1 0.1 0.2 0.2 0.2 0.3 16.8 24 38.7 43.1 63.8 56.3-7.1 22.1-11.4 45-12.6 67.9z m97.9-79.1c-19.8 0-38.9-3.8-56.5-10.9-0.8-0.5-1.5-1-2.4-1.3-21.7-9.2-40.5-23.1-55.4-40.6-0.3-0.4-0.7-0.8-1-1.2-2-2.4-3.9-4.9-5.7-7.4-0.4-0.6-0.9-1.2-1.3-1.8-2.1-3-4.2-6.1-6.1-9.3 0-0.1-0.1-0.1-0.1-0.2-2.1-3.5-4-7.1-5.7-10.7-0.8-1.6-1.6-3.2-2.3-4.9-0.5-1-0.8-2.1-1.3-3.1-2-4.8-3.8-9.7-5.4-14.8-14.6-48-4-100.1 27.4-138.5 2.6-3.1 5.2-6.1 8-9 0.4-0.5 0.9-0.9 1.3-1.4 2.5-2.5 5.1-5 7.7-7.3 1.2-1.1 2.5-2.1 3.8-3.2 2.1-1.7 4.1-3.4 6.3-5 3.5-2.6 7.1-5 10.8-7.3 0.2-0.1 0.4-0.3 0.6-0.4 3.7-2.2 7.4-4.2 11.2-6.1 0.8-0.4 1.7-0.8 2.5-1.2 3.6-1.7 7.3-3.3 11-4.7 0.2-0.1 0.3-0.1 0.5-0.2 8.7-3.2 17.7-5.6 27-7.2 8.2-1.4 16.5-2.1 24.8-2.1 28.9 0 57 8.3 81.3 24 14.4 9.3 26.9 20.5 37.2 33.7 0.2 0.3 0.5 0.6 0.7 0.9 3.4 4.4 6.6 9 9.5 13.8 2.5 4.2 4.7 8.4 6.8 12.7 0.9 2 1.7 4 2.6 6 1 2.3 2 4.6 2.8 6.9 1 2.6 1.8 5.2 2.6 7.9 0.5 1.7 1.1 3.5 1.6 5.3 0.8 3 1.4 6 2 9 0.3 1.4 0.6 2.9 0.8 4.3 0.5 3.2 1 6.5 1.3 9.8 0.1 1.2 0.2 2.5 0.3 3.7 0.3 3.4 0.4 6.9 0.4 10.4v3.2c0 3.6-0.2 7.2-0.5 10.8l-0.3 2.7c-0.4 3.7-0.9 7.4-1.6 11.1-0.2 1-0.4 1.9-0.6 2.9-0.6 3.1-1.3 6.2-2.1 9.3v0.1c-1.7 6.3-3.8 12.5-6.3 18.5-0.5 1.2-0.9 2.4-1.5 3.6-1.1 2.4-2.3 4.8-3.5 7.1-0.7 1.4-1.5 2.9-2.2 4.3-1.3 2.3-2.6 4.7-4 6.9-0.7 1.2-1.5 2.3-2.3 3.5-5.4 8.2-11.6 15.8-18.6 22.9-8.5 8.6-18 16.3-28.8 22.8-23.5 14.3-50.2 21.7-77.3 21.7z m349.2 52.1c1.7 11.8 5.9 23.3 12.1 33.7-21.4-1.1-40.1-0.4-58.2 2.2-34.1 4.8-64.7 17-88.9 34.9-4.5-25.9-20-50.9-43.6-65.8-17.3-10.9-38.2-16.8-60.6-17.2 12.3-18.6 20.1-41 21.7-64.2 8.9-9.4 16.8-19.6 23.4-30.5 23.6 17.5 38.7 27.2 52.1 35.5 3.3 26.7 10.3 66.9 23.8 90.3 3 5.2 8.4 8 13.9 8 2.7 0 5.5-0.7 8-2.1 7.7-4.4 10.3-14.2 5.9-21.9-6.9-11.9-12-31.9-15.6-51.6 11.2 7.5 24.7 17.2 43.1 31.2 2.9 2.2 6.3 3.3 9.7 3.3 4.8 0 9.6-2.2 12.8-6.3 5.4-7 4-17.1-3-22.5-32.6-24.9-50.9-36.8-67-46.7l32-0.4c8.9-0.1 16-7.4 15.9-16.2-0.1-8.8-7.3-15.9-16-15.9h-0.2l-78.3 0.9c-0.6 0-1.2 0.1-1.9 0.2-6.1-4.3-13-9.3-20.8-15.2 1.8-4.7 3.4-9.4 4.8-14.2 4 1.2 8 2.2 12 3.1 1.2 0.2 2.3 0.4 3.5 0.6 3.4 0.6 6.8 1.2 10.2 1.6 2.3 0.3 4.6 0.4 6.9 0.6 2.3 0.2 4.6 0.3 6.8 0.4 1.5 0 3.1 0.2 4.6 0.2 18 0 35.8-3.3 52.6-9.4 0.2-0.1 0.5-0.1 0.7-0.2 3.5 10.7 8.2 20.4 14.1 29.3 16.7 25.3 47.8 42.4 77.5 42.4h0.5c-10.9 24-18.8 52.3-14.5 81.9z" fill="#004364" /><path d="M393.4 531.8m-15.8 0a15.8 15.8 0 1 0 31.6 0 15.8 15.8 0 1 0-31.6 0Z" fill="#004364" /><path d="M425.1 500.2m-15.8 0a15.8 15.8 0 1 0 31.6 0 15.8 15.8 0 1 0-31.6 0Z" fill="#004364" /><path d="M748.3 423.5m-15.8 0a15.8 15.8 0 1 0 31.6 0 15.8 15.8 0 1 0-31.6 0Z" fill="#004364" /><path d="M768.4 457.7m-15.8 0a15.8 15.8 0 1 0 31.6 0 15.8 15.8 0 1 0-31.6 0Z" fill="#004364" /></svg>