<?xml version="1.0" encoding="utf-8"?>
<!-- Uploaded to: SVG Repo, www.svgrepo.com, Generator: SVG Repo Mixer Tools -->
<svg width="800px" height="800px" viewBox="0 0 1024 1024" class="icon"  version="1.1" xmlns="http://www.w3.org/2000/svg"><path d="M932.1 354.7c6.5 27.2-0.6 59.1-19.2 85.4-145.1 205.4-358.7 354.8-601.5 420.5-31 8.4-63.4 4.2-86.7-11.3-16.7-11.1-27.2-26.8-29.5-44.6l-5.2-33c-2-14.7 0.5-29.3 6.3-42.7v-0.1c8.6-19.6 24.2-35.9 43.6-46.2 0.3-0.1 0.5-0.3 0.8-0.4 2.7-1.4 5.6-2.7 8.5-3.9 0.6-0.2 1.2-0.5 1.8-0.8 3.3-1.3 6.6-2.4 10-3.4 17.9-4.8 35.5-10.4 53-16.4 14.1-4.8 28-9.9 41.8-15.4 12.4-4.9 24.6-10.1 36.8-15.5 144.6-65 270.5-167.8 362.7-298.3 2.1-2.9 4.3-5.6 6.6-8.3 0.4-0.5 0.8-0.9 1.2-1.3 2.2-2.4 4.5-4.7 6.8-6.9l0.3-0.3c16.4-14.8 37.2-23.9 58.6-25.3 0.2 0 0.4-0.1 0.6-0.2 14.3-0.8 28.6 2 41.5 8.8l29.7 16.4c15.6 8.5 26.8 23.7 31.5 43.2z" fill="#DD9121" /><path d="M183.9 794.6c-0.4-0.5-0.6 27.9 44.9 60.6 22.7 16.3 55.7 19.7 86.7 11.3C558.3 800.8 771.9 651.4 917 445.9c18.5-26.2 25.7-58.1 19.2-85.3-4.3-17.8-21.7-58.7-35.3-67.3 7.9 19-128.9 228.8-317.4 357.5-147.4 100.7-384.4 165.6-399.6 143.8z" fill="#CE790A" /><path d="M875.7 270.2c-10.3-5.4-21.3-8.8-32.4-10.5 10.5-20 13.6-42.5 8.3-63.2-5.1-19.8-17.3-35.8-34.3-44.9-36.5-19.6-84.2-5.9-108.5 31.2C682.7 223 652.4 262.1 619 299c-3.5 3.8-4.1 9.5-1.6 14l0.3 0.6-1.1-0.5c-4.6-1.9-9.9-0.7-13.3 2.9-37 38.9-78 74.9-121.8 107.2-3.4 2.5-5.3 6.7-4.9 10.9l2.4 25.8-23.4-11.1c-3.8-1.8-8.4-1.5-11.9 0.9-45.4 30.1-93.3 56.2-142.5 77.6-4.6 2-7.5 6.6-7.3 11.5v1.2l-0.4-0.5c-3.4-3.9-8.9-5.2-13.7-3.3-46.1 18.7-93.2 33.7-140 44.5C96.5 590.9 67.2 631 73 672c2.7 19.1 13.5 36.1 30.4 47.6 17.6 12.1 39.9 16.9 62.2 13.9-2.3 11.1-2.9 22.7-1.3 34.3l5.1 32.8c3.3 24.5 17.5 46.1 39.9 61.1 29.3 19.5 67.9 24.7 105.9 14.4 123.2-33.3 239-87.9 342.4-160.2s194.4-162.3 268-266.6c22.7-32.1 31-70.2 22.8-104.4-6.3-26.2-21.8-47-43.4-58.3l-29.3-16.4z m-706.6 438c-18.7 4.3-37.6 1.2-51.9-8.6-11.2-7.7-18.3-18.7-20.1-31-4.1-28.7 17-56.8 48-64 45.2-10.5 90.8-24.7 135.5-42.4l17.1 19.6c3.4 3.9 8.8 5.2 13.6 3.3 4.8-1.9 7.9-6.6 7.7-11.7l-0.8-27c45.8-20.4 90.5-44.8 133-72.5l36.5 17.2c7.9 3.7 18.1-3.4 17.3-12.1l-3.7-40.2c40.6-30.4 78.9-64 113.8-100l25.1 10.1c4.8 1.9 10.2 0.6 13.6-3.2 3.4-3.8 4-9.4 1.6-13.9L642.9 309c32-36 61-73.8 86.4-112.7 17.4-26.6 51.1-36.8 76.6-23.1 11 5.9 18.9 16.3 22.2 29.5 4.3 16.8 0.8 35.6-9.7 51.7-1.1 1.7-2.2 3.3-3.4 5-24.4 2.8-48.2 13.7-67.6 31.5-0.3 0.3-0.7 0.6-1 0.9-2.6 2.4-5.1 5-7.5 7.7-0.5 0.6-1 1.1-1.5 1.6-2.7 3.1-5.3 6.4-7.8 9.8-115.1 163-284.5 281.4-477.1 333.5-35.2 9.7-62.9 33.2-77.6 62.5-1.9 0.4-3.8 0.9-5.8 1.3zM925 350.5c6.5 27-0.6 58.7-19 84.7-144 204-356 352.2-597 417.4-30.8 8.4-63 4.2-86.1-11.2-16.6-11-27-26.6-29.3-44.3l-5.1-32.8c-2-14.6 0.5-29.1 6.2-42.3v-0.1c8.5-19.4 24-35.6 43.3-45.9 0.3-0.1 0.5-0.3 0.8-0.4 2.7-1.4 5.5-2.7 8.4-3.9 0.6-0.2 1.2-0.5 1.8-0.7 3.3-1.3 6.6-2.4 10-3.3 17.8-4.8 35.3-10.4 52.6-16.2 14-4.7 27.8-9.8 41.5-15.2 12.3-4.9 24.5-10 36.5-15.4C533 556.4 658 454.4 749.4 324.8c2-2.9 4.2-5.6 6.6-8.2 0.4-0.4 0.8-0.9 1.2-1.3 2.2-2.4 4.4-4.7 6.8-6.8l0.3-0.3c16.3-14.7 36.9-23.8 58.1-25.1 0.2 0 0.4-0.1 0.5-0.2 14.2-0.8 28.4 2 41.2 8.7l29.5 16.3c15.6 8.2 26.7 23.3 31.4 42.6z" fill="#004364" /><path d="M502.3 743.8m-14.1 0a14.1 14.1 0 1 0 28.2 0 14.1 14.1 0 1 0-28.2 0Z" fill="#004364" /><path d="M412.4 758.4m-14.1 0a14.1 14.1 0 1 0 28.2 0 14.1 14.1 0 1 0-28.2 0Z" fill="#004364" /><path d="M339.1 802.2m-14.1 0a14.1 14.1 0 1 0 28.2 0 14.1 14.1 0 1 0-28.2 0Z" fill="#004364" /><path d="M845.3 427.9m-14.1 0a14.1 14.1 0 1 0 28.2 0 14.1 14.1 0 1 0-28.2 0Z" fill="#004364" /><path d="M557.4 686.2m-14 0a14 14 0 1 0 28 0 14 14 0 1 0-28 0Z" fill="#004364" /><path d="M801.1 515.9m-14 0a14 14 0 1 0 28 0 14 14 0 1 0-28 0Z" fill="#004364" /><path d="M722.8 562.2m-14 0a14 14 0 1 0 28 0 14 14 0 1 0-28 0Z" fill="#004364" /><path d="M672.7 641.8m-14 0a14 14 0 1 0 28 0 14 14 0 1 0-28 0Z" fill="#004364" /><path d="M169.5 708.9c-19.1 3.8-38.7-0.4-53.9-11.5-11.9-8.7-19.7-20.7-22.1-33.9-5.5-30.7 15-59.7 46.6-66 46.2-9.1 92.5-22.3 137.9-39.1l18.5 21.6c3.7 4.3 9.3 5.9 14.2 4.1 4.9-1.8 7.8-6.6 7.4-12.1l-2.1-28.7c46.3-19.7 91.3-43.6 133.9-71.2l38.4 20c8.3 4.3 18.5-2.8 17.3-12.1l-5.6-42.9c40.6-30.5 78.5-64.6 112.9-101.3l26.3 11.8c5 2.2 10.6 1.1 13.9-2.8 3.3-3.9 3.7-9.8 1-14.7l-13.9-24.8c31.4-36.8 59.6-75.8 84.1-116 16.8-27.5 51-36.8 78-21.1 11.6 6.7 20.2 18.2 24.2 32.4 5.2 18.1 2.4 37.9-7.7 54.5l-3.3 5.1c-25 1.9-49.1 12.4-68.3 30.5-0.3 0.3-0.7 0.6-1 0.9-2.6 2.5-5 5.1-7.4 7.9-0.5 0.6-1 1.1-1.5 1.7-2.7 3.2-5.2 6.5-7.6 10.1-111.3 168-280.7 286.4-476.9 333.3-35.8 8.7-63.4 32.5-77.2 63-2 0.5-4 0.9-6.1 1.3z" fill="#F75252" /></svg>