<?xml version="1.0" encoding="utf-8"?>
<!-- Uploaded to: SVG Repo, www.svgrepo.com, Generator: SVG Repo Mixer Tools -->
<svg width="800px" height="800px" viewBox="0 0 1024 1024" class="icon"  version="1.1" xmlns="http://www.w3.org/2000/svg"><path d="M378.2 460.7l-82.1 80.6 8.2 18.6 33.7 13.5 25.8-23.4 23.6 7 4.6 28.6 56 23.7 24.2-20.5 24.2 12.7 1.1 32.2 47 16.3 8.3-13.5-5.5-114.7z" fill="#E8433F" /><path d="M334 504.1s58.9 14.1 108.6 34 108.2 56.7 108.2 56.7l-5.1-65.9s-53.1 2.3-89-14.8c-36-17.2-80.9-53.3-80.9-53.3L334 504.1z" fill="#DC2831" /><path d="M399.886 593.856l42.604 17.08-117.062 292.011-42.605-17.08z" fill="#F2F5FB" /><path d="M531.2 322.6m-200.2 0a200.2 200.2 0 1 0 400.4 0 200.2 200.2 0 1 0-400.4 0Z" fill="#FCD04E" /><path d="M657.6 175.4c25.1 49.6 29.7 109.3 7.4 164.9-41.1 102.6-157.7 152.5-260.3 111.3-18.7-7.5-35.6-17.6-50.6-29.6 21.2 41.9 56.9 76.6 103.9 95.4 102.6 41.1 219.2-8.7 260.3-111.3 33.7-83.9 6.5-177-60.7-230.7z" fill="#F6BB33" /><path d="M731.6 404.1c44.3-110.5-9.6-236.4-120-280.7-110.5-44.3-236.4 9.6-280.7 120-29.9 74.5-15 156 31.8 214.7L295 521.6c-7.7 7.2-11.1 17.6-9.1 28 1.9 10.3 8.9 18.8 18.7 22.7l21.8 8.7c15.7 6.3 33.5-1.4 39.8-17 1-2.5 3.8-3.7 6.3-2.7l5 2c2.5 1 3.7 3.8 2.7 6.3-4.2 10.6-2 22 4.6 30.4L270.9 883.6c-2.6 6.6 0.6 14.1 7.2 16.7l37.9 15.2c6.6 2.6 14.1-0.6 16.7-7.2l113.6-283.5c10.5-1.5 20.1-8.2 24.3-18.8 1-2.5 3.8-3.7 6.3-2.7l5 2c2.5 1 3.7 3.8 2.7 6.3-6.3 15.7 1.4 33.5 17 39.8l21.8 8.7c9.7 3.9 20.7 2.6 29.2-3.5s13.3-16.1 12.7-26.5l-5.1-92.6c74.4-10.2 141.5-58.8 171.4-133.4z m-418 482.7l-13.9-5.6L407 613.5l13.9 5.6-107.3 267.7z m225.9-255.3c0.1 2.3-1.2 3.6-2 4.2-0.8 0.6-2.5 1.4-4.6 0.6l-21.8-8.7c-2.5-1-3.7-3.8-2.7-6.3 6.3-15.7-1.4-33.5-17-39.8l-5-2c-15.7-6.3-33.5 1.4-39.8 17-1 2.5-3.8 3.7-6.3 2.7l-33.9-13.6c-2.5-1-3.7-3.8-2.7-6.3 6.3-15.7-1.4-33.5-17-39.8l-5-2c-15.7-6.3-33.5 1.4-39.8 17-1 2.5-3.8 3.7-6.3 2.7l-21.8-8.7c-2.1-0.9-2.8-2.6-2.9-3.6-0.2-1-0.2-2.8 1.4-4.4l67.2-63c19.8 19.6 43.7 35.6 71.2 46.6 27.4 11 55.8 15.9 83.6 15.4l5.2 92z m-0.6-117.9c-54.2 2.2-106.7-18.8-144.3-57.8-50.3-52.3-68.5-131.1-39.8-202.6 39-97.3 149.9-144.7 247.2-105.7s144.7 149.9 105.7 247.2c-28.7 71.4-96.3 115.8-168.8 118.9z" fill="#004364" /><path d="M423.7 415.3c-10.9-12.9-19.4-27.5-25.2-43.4-2.4-6.7-9.8-10.1-16.5-7.7-6.7 2.4-10.1 9.8-7.7 16.5 6.8 18.8 16.9 36.1 29.8 51.4 1.4 1.7 3.1 2.9 5 3.6 4.3 1.7 9.4 1.1 13.1-2.1 5.4-4.8 6.1-12.9 1.5-18.3zM622.7 448.4c-3.7-6.1-11.6-8-17.7-4.3-38.4 23.5-84.5 27.4-126.3 10.7-6.6-2.6-14.1 0.6-16.7 7.2-2.6 6.6 0.6 14.1 7.2 16.7 48.7 19.5 104.5 14.8 149.3-12.6 6-3.7 7.9-11.6 4.2-17.7zM479.4 211.9c8.2 0.4 15.2-6 15.6-14.2 0.4-8.2-6-15.2-14.2-15.6-8.2-0.4-15.2 6-15.6 14.2-0.3 8.3 6 15.3 14.2 15.6z" fill="#004364" /><path d="M526.1 176.6m-14.9 0a14.9 14.9 0 1 0 29.8 0 14.9 14.9 0 1 0-29.8 0Z" fill="#004364" /><path d="M593.3 180.5m-14.9 0a14.9 14.9 0 1 0 29.8 0 14.9 14.9 0 1 0-29.8 0Z" fill="#004364" /></svg>