<?xml version="1.0" encoding="utf-8"?>
<!-- Uploaded to: SVG Repo, www.svgrepo.com, Generator: SVG Repo Mixer Tools -->
<svg width="800px" height="800px" viewBox="0 0 1024 1024" class="icon"  version="1.1" xmlns="http://www.w3.org/2000/svg"><path d="M512 513.7m-406 0a406 406 0 1 0 812 0 406 406 0 1 0-812 0Z" fill="#F2B53B" /><path d="M505.5 164.5c39.1 0 102.5 47.5 136.7 56.7 34.2 9.2 104.6 27.2 112.3 40.4 7.7 13.2 44.4 114.6 56.7 135.8 12.2 21.3 44.4 78.2 44.4 108.7s-36.7 91.7-45.9 117.7c-9.2 26.1-18.4 100.6-44.4 125.3s-207.7 109-245.5 109-103.3-41.3-124.1-49c-20.8-7.7-109.7-26.1-120.4-41.4-10.7-15.3-44.5-90.2-52.9-115.5-8.4-25.3-58.8-122.6-60.4-150.8-1.6-28.2 56.6-96.9 60.4-125.8 3.9-28.9 20.7-99.7 45.2-114.1 24.5-14.4 102.9-34.3 128-48.1 25-13.7 109.9-48.9 109.9-48.9z" fill="#EDE551" /><path d="M512 513.7m-125.7 0a125.7 125.7 0 1 0 251.4 0 125.7 125.7 0 1 0-251.4 0Z" fill="#FFFCEE" /><path d="M838.5 422.2c-7.4-12.9-14.4-25.1-19.5-37.4-5.4-12.9-9.2-27-13.4-41.8-8.4-30.5-17.2-62.1-39.9-84.8-22.7-22.7-54.2-31.4-84.8-39.9-14.9-4.1-28.9-8-41.8-13.4-12.2-5.1-24.4-12.1-37.4-19.5-27.7-15.9-56.3-32.3-89.8-32.3s-62.2 16.4-89.8 32.3c-12.9 7.4-25.1 14.4-37.4 19.5-12.9 5.4-27 9.3-41.8 13.4-30.5 8.4-62.1 17.2-84.8 39.9-22.7 22.7-31.4 54.2-39.9 84.8-4.1 14.9-8 28.9-13.4 41.8-5.1 12.2-12.1 24.5-19.5 37.4-15.9 27.7-32.3 56.2-32.3 89.8 0 33.6 16.4 62.2 32.3 89.8 7.4 12.9 14.4 25.1 19.5 37.4 5.4 12.9 9.3 27 13.4 41.8 8.4 30.5 17.2 62 39.9 84.8 22.7 22.7 54.3 31.4 84.8 39.9 14.9 4.1 28.9 8 41.8 13.4 12.2 5.1 24.4 12.1 37.4 19.5 27.6 15.9 56.2 32.3 89.8 32.3 33.5 0 62.1-16.4 89.8-32.3 12.9-7.4 25.1-14.5 37.4-19.5 12.9-5.4 27-9.2 41.8-13.4 30.5-8.4 62.1-17.2 84.8-39.9 22.7-22.7 31.4-54.3 39.9-84.8 4.1-14.9 8-28.9 13.4-41.8 5.1-12.2 12.1-24.4 19.5-37.4 15.9-27.7 32.4-56.3 32.4-89.8s-16.5-62.1-32.4-89.8z m-21.2 167.4c-7.5 13-15.2 26.5-20.9 40.2-5.9 14.3-10.2 29.8-14.3 44.7-7.9 28.7-15.4 55.8-33.6 74-18.1 18.1-45.3 25.6-74 33.6-14.9 4.1-30.4 8.4-44.7 14.3-13.7 5.7-27.2 13.4-40.2 20.9-26 15-50.6 29.1-77.6 29.1s-51.6-14.1-77.6-29.1c-13-7.5-26.5-15.2-40.2-20.9-14.3-5.9-29.8-10.2-44.7-14.3-28.7-7.9-55.8-15.5-74-33.6-18.1-18.1-25.6-45.3-33.6-74-4.1-14.9-8.4-30.4-14.3-44.7-5.7-13.7-13.4-27.2-20.9-40.2-15-26-29.1-50.6-29.1-77.6 0-27 14.1-51.6 29.1-77.6 7.5-13 15.2-26.5 20.9-40.2 5.9-14.3 10.2-29.8 14.3-44.7 7.9-28.7 15.4-55.8 33.6-74 18.1-18.1 45.3-25.6 74-33.6 14.9-4.1 30.4-8.4 44.7-14.3 13.7-5.7 27.2-13.4 40.2-20.9 26-15 50.6-29.1 77.6-29.1 27 0 51.6 14.1 77.6 29.1 13 7.5 26.5 15.2 40.2 20.9 14.3 5.9 29.8 10.2 44.7 14.3 28.7 7.9 55.8 15.4 74 33.6 18.1 18.1 25.6 45.3 33.6 74 4.1 14.9 8.4 30.3 14.3 44.7 5.7 13.7 13.4 27.2 20.9 40.2 15 26 29.1 50.6 29.1 77.6 0 27-14.2 51.6-29.1 77.6z" fill="#004364" /><path d="M512 96C282.6 96 96 282.6 96 512s186.6 416 416 416 416-186.6 416-416S741.4 96 512 96z m0 806.4c-215.3 0-390.4-175.1-390.4-390.4 0-215.3 175.1-390.4 390.4-390.4S902.4 296.7 902.4 512c0 215.3-175.1 390.4-390.4 390.4z" fill="#004364" /><path d="M512 371c-77.8 0-141 63.3-141 141 0 77.8 63.3 141 141 141s141-63.3 141-141c0-77.8-63.2-141-141-141z m0 257.5c-64.3 0-116.5-52.3-116.5-116.5S447.8 395.5 512 395.5 628.5 447.8 628.5 512c0 64.3-52.3 116.5-116.5 116.5z" fill="#004364" /><path d="M512 441.7c-38.8 0-70.3 31.5-70.3 70.3s31.5 70.3 70.3 70.3 70.3-31.6 70.3-70.3c0-38.8-31.5-70.3-70.3-70.3z m0 116.1c-25.3 0-45.8-20.6-45.8-45.8 0-25.3 20.6-45.8 45.8-45.8 25.3 0 45.8 20.6 45.8 45.8 0 25.3-20.5 45.8-45.8 45.8z" fill="#004364" /><path d="M321.7 289.9m-14.2 0a14.2 14.2 0 1 0 28.4 0 14.2 14.2 0 1 0-28.4 0Z" fill="#004364" /><path d="M554.6 275.7m-14.2 0a14.2 14.2 0 1 0 28.4 0 14.2 14.2 0 1 0-28.4 0Z" fill="#004364" /><path d="M295.1 348.7m-14.2 0a14.2 14.2 0 1 0 28.4 0 14.2 14.2 0 1 0-28.4 0Z" fill="#004364" /><path d="M250.6 557.8m-14.2 0a14.2 14.2 0 1 0 28.4 0 14.2 14.2 0 1 0-28.4 0Z" fill="#004364" /><path d="M628.5 361.5c-7.8 0-14.2 6.3-14.2 14.2s6.3 14.2 14.2 14.2c7.8 0 14.2-6.3 14.2-14.2s-6.4-14.2-14.2-14.2z" fill="#004364" /><path d="M222.2 506.1m-14.2 0a14.2 14.2 0 1 0 28.4 0 14.2 14.2 0 1 0-28.4 0Z" fill="#004364" /><path d="M653 712.5m-14.2 0a14.2 14.2 0 1 0 28.4 0 14.2 14.2 0 1 0-28.4 0Z" fill="#004364" /><path d="M278.9 498.1m-14.2 0a14.2 14.2 0 1 0 28.4 0 14.2 14.2 0 1 0-28.4 0Z" fill="#004364" /><path d="M637.7 817.8c-4.7 0-9.2-2.7-11.2-7.3L552.8 642c-2.7-6.2 0.1-13.4 6.3-16.1 6.2-2.7 13.4 0.1 16.1 6.3l73.7 168.5c2.7 6.2-0.1 13.4-6.3 16.1-1.6 0.7-3.3 1-4.9 1zM456.9 404.2c-4.7 0-9.2-2.7-11.2-7.3L372 228.4c-2.7-6.2 0.1-13.4 6.3-16.1 6.2-2.7 13.4 0.1 16.1 6.3L468.1 387c2.7 6.2-0.1 13.4-6.3 16.1-1.6 0.8-3.3 1.1-4.9 1.1zM802.9 643.7c-1.8 0-3.6-0.4-5.3-1.2L632.4 563c-6.1-2.9-8.7-10.3-5.7-16.4 2.9-6.1 10.3-8.6 16.4-5.7l165.2 79.5c6.1 2.9 8.7 10.3 5.7 16.4-2.2 4.4-6.6 6.9-11.1 6.9zM568.7 407.7c-1.6 0-3.2-0.3-4.7-1-6.2-2.6-9.2-9.8-6.5-16l73.4-174.4c2.6-6.2 9.9-9.1 16-6.5 6.2 2.6 9.2 9.8 6.5 16L580 400.2c-2 4.7-6.5 7.5-11.3 7.5zM637.7 494.2c-4.5 0-8.9-2.5-11-6.9-3-6.1-0.4-13.4 5.6-16.4l173.4-84.6c6.1-3 13.4-0.4 16.4 5.6 3 6.1 0.4 13.4-5.6 16.4L643 493c-1.7 0.8-3.5 1.2-5.3 1.2zM386.3 496.2c-1.8 0-3.6-0.4-5.4-1.2l-173.4-84.6c-6.1-3-8.6-10.3-5.6-16.4 3-6.1 10.3-8.6 16.4-5.6L391.7 473c6.1 3 8.6 10.3 5.6 16.4-2.1 4.3-6.5 6.8-11 6.8zM224 662.6c-4.6 0-9.1-2.6-11.1-7.1-2.8-6.1-0.2-13.4 6-16.3l173.4-80.1c6.2-2.8 13.4-0.2 16.3 6 2.8 6.1 0.2 13.4-6 16.3l-173.4 80.1c-1.7 0.7-3.5 1.1-5.2 1.1zM386.3 818.5c-1.6 0-3.2-0.3-4.7-0.9-6.2-2.6-9.2-9.8-6.6-16l70.4-168.7c2.6-6.2 9.8-9.2 16-6.6s9.2 9.8 6.6 16L397.6 811c-1.9 4.6-6.5 7.5-11.3 7.5z" fill="#004364" /></svg>