<?xml version="1.0" encoding="utf-8"?>
<!-- Uploaded to: SVG Repo, www.svgrepo.com, Generator: SVG Repo Mixer Tools -->
<svg width="800px" height="800px" viewBox="0 0 1024 1024" class="icon"  version="1.1" xmlns="http://www.w3.org/2000/svg"><path d="M768.7 711.8H250.8c-15.4 0-27.9 12.5-27.9 27.9v136.8c0 15.4 12.5 27.9 27.9 27.9h517.8c15.4 0 27.9-12.5 27.9-27.9V739.8c0.1-15.4-12.4-28-27.8-28z" fill="#F2F5FB" /><path d="M742.1 688.2v115.2c0 20.1-16.3 36.4-36.4 36.4H230.4v60.1h560.3V688.2h-48.6z" fill="#DEEAF4" /><path d="M769.4 916.4H250.1c-21.5 0-39-17.5-39-39V680.9c0-21.5 17.5-39 39-39h519.3c21.5 0 39 17.5 39 39v196.5c0 21.5-17.5 39-39 39zM250.1 665.5c-8.5 0-15.4 6.9-15.4 15.4v196.5c0 8.5 6.9 15.4 15.4 15.4h519.3c8.5 0 15.4-6.9 15.4-15.4V680.9c0-8.5-6.9-15.4-15.4-15.4H250.1z" fill="#004364" /><path d="M512.3 176.3s-128.4 2.8-180.3 67.4-90.3 127-90.3 207 0.3 108.4 0.3 108.4h543.3l-3-155.7s-24.2-83.1-77.5-147.8c-65.3-79.3-192.5-79.3-192.5-79.3z" fill="#95C751" /><path d="M540.8 176.3c79.6 47 133.1 133.5 133.1 232.6v156.3H241.7v36.1h540.6V445c0-139.5-105.7-254.3-241.5-268.7z" fill="#79AA2B" /><path d="M540.8 176.3c79.6 47 133.1 133.5 133.1 232.6v156.3H241.7v36.1h540.6V445c0-139.5-105.7-254.3-241.5-268.7z" fill="#80AF35" /><path d="M782.6 542.5c-6.5 0-11.8-5.3-11.8-11.8v-84c0-142.5-116-258.5-258.5-258.5s-258.5 116-258.5 258.5v84c0 6.5-5.3 11.8-11.8 11.8-6.5 0-11.8-5.3-11.8-11.8v-84c0-155.6 126.6-282.1 282.1-282.1s282.1 126.6 282.1 282.1v84c0.1 6.5-5.2 11.8-11.8 11.8z" fill="#004364" /><path d="M674.7 542.5c-6.5 0-11.8-5.3-11.8-11.8v-91.2c0-107.5-59.8-204.1-156-252.1-5.8-2.9-8.2-10-5.3-15.9 2.9-5.8 10-8.3 15.9-5.3 104.3 52 169.1 156.7 169.1 273.3v91.2c-0.1 6.5-5.4 11.8-11.9 11.8z" fill="#004364" /><path d="M341.5 542.5c-6.5 0-11.8-5.3-11.8-11.8v-91.2c0-116.5 64.8-221.2 169.1-273.3 5.8-3 12.9-0.5 15.9 5.3 2.9 5.8 0.5 12.9-5.3 15.9-96.2 48-156 144.6-156 252.1v91.2c-0.1 6.5-5.4 11.8-11.9 11.8z" fill="#004364" /><path d="M510.2 540.8c-6.5 0-11.8-5.3-11.8-11.8V176.8c0-6.5 5.3-11.8 11.8-11.8 6.5 0 11.8 5.3 11.8 11.8V529c0.1 6.5-5.2 11.8-11.8 11.8zM233.1 511h-58.7c-6.5 0-11.8-5.3-11.8-11.8 0-6.5 5.3-11.8 11.8-11.8h58.7c6.5 0 11.8 5.3 11.8 11.8 0.1 6.5-5.2 11.8-11.8 11.8zM242 406.8c-1.4 0-2.7-0.2-4.1-0.7l-55-20.3c-6.1-2.3-9.3-9.1-7-15.2 2.3-6.1 9.1-9.3 15.2-7l55 20.3c6.1 2.3 9.3 9.1 7 15.2-1.8 4.8-6.3 7.7-11.1 7.7zM281.2 305.5c-2.7 0-5.4-0.9-7.7-2.8l-44.6-38.1c-5-4.2-5.6-11.7-1.3-16.7 4.2-5 11.7-5.6 16.7-1.3l44.6 38.1c5 4.2 5.6 11.7 1.3 16.7-2.3 2.7-5.6 4.1-9 4.1zM370.2 230.1c-4.1 0-8.2-2.2-10.3-6l-28.7-51.2c-3.2-5.7-1.2-12.9 4.5-16.1 5.7-3.2 12.9-1.2 16.1 4.5l28.7 51.2c3.2 5.7 1.2 12.9-4.5 16.1-1.9 1-3.9 1.5-5.8 1.5zM477.4 189.2c-5.7 0-10.7-4.1-11.7-10l-9.2-57.9c-1-6.4 3.4-12.5 9.8-13.5 6.4-1.1 12.5 3.4 13.5 9.8l9.2 57.9c1 6.4-3.4 12.5-9.8 13.5-0.5 0.2-1.2 0.2-1.8 0.2zM852.9 511h-58.7c-6.5 0-11.8-5.3-11.8-11.8 0-6.5 5.3-11.8 11.8-11.8h58.7c6.5 0 11.8 5.3 11.8 11.8 0 6.5-5.3 11.8-11.8 11.8zM785.3 406.8c-4.8 0-9.3-3-11.1-7.7-2.3-6.1 0.9-12.9 7-15.2l55-20.3c6.1-2.3 12.9 0.9 15.2 7 2.3 6.1-0.9 12.9-7 15.2l-55 20.3c-1.3 0.5-2.7 0.7-4.1 0.7zM746.1 305.5c-3.3 0-6.7-1.4-9-4.1-4.2-5-3.6-12.4 1.3-16.7l44.6-38.1c5-4.3 12.4-3.6 16.7 1.3 4.2 5 3.6 12.4-1.3 16.7l-44.6 38.1c-2.3 1.9-5 2.8-7.7 2.8zM657.1 230.1c-2 0-3.9-0.5-5.8-1.5-5.7-3.2-7.7-10.4-4.5-16.1l28.7-51.2c3.2-5.7 10.4-7.7 16.1-4.5 5.7 3.2 7.7 10.4 4.5 16.1l-28.7 51.2c-2.1 3.9-6.1 6-10.3 6zM549.9 189.2c-0.6 0-1.2 0-1.9-0.2-6.5-1-10.8-7.1-9.8-13.5l9.2-57.9c1-6.5 7.1-10.9 13.5-9.8 6.5 1 10.8 7.1 9.8 13.5l-9.2 57.9c-0.9 5.9-5.9 10-11.6 10z" fill="#004364" /><path d="M166.8 562.5h690.4v142H166.8z" fill="#F2F5FB" /><path d="M808.6 562.3v69.4c0 20-16.2 36.2-36.2 36.2H166.8v36.5h690.4v-142h-48.6z" fill="#DEEAF4" /><path d="M853.8 719.7H170.2c-8.4 0-15.2-6.8-15.2-15.2v-142c0-8.4 6.8-15.2 15.2-15.2h683.7c8.4 0 15.2 6.8 15.2 15.2v142c-0.1 8.4-6.9 15.2-15.3 15.2z m-675.2-23.6h666.8V570.9H178.6v125.2z" fill="#004364" /><path d="M333.8 292.2m-14.4 0a14.4 14.4 0 1 0 28.8 0 14.4 14.4 0 1 0-28.8 0Z" fill="#004364" /><path d="M407.9 339.9m-14.4 0a14.4 14.4 0 1 0 28.8 0 14.4 14.4 0 1 0-28.8 0Z" fill="#004364" /><path d="M453.8 269.1m-14.4 0a14.4 14.4 0 1 0 28.8 0 14.4 14.4 0 1 0-28.8 0Z" fill="#004364" /><path d="M812.8 618.9m-14.4 0a14.4 14.4 0 1 0 28.8 0 14.4 14.4 0 1 0-28.8 0Z" fill="#004364" /><path d="M812.8 669.2m-14.4 0a14.4 14.4 0 1 0 28.8 0 14.4 14.4 0 1 0-28.8 0Z" fill="#004364" /><path d="M209.1 665.9m-14.4 0a14.4 14.4 0 1 0 28.8 0 14.4 14.4 0 1 0-28.8 0Z" fill="#004364" /><path d="M749.9 745.5m-14.4 0a14.4 14.4 0 1 0 28.8 0 14.4 14.4 0 1 0-28.8 0Z" fill="#004364" /><path d="M749.9 805m-14.4 0a14.4 14.4 0 1 0 28.8 0 14.4 14.4 0 1 0-28.8 0Z" fill="#004364" /><path d="M749.9 863.7m-14.4 0a14.4 14.4 0 1 0 28.8 0 14.4 14.4 0 1 0-28.8 0Z" fill="#004364" /><path d="M209.1 601.3m-14.4 0a14.4 14.4 0 1 0 28.8 0 14.4 14.4 0 1 0-28.8 0Z" fill="#004364" /><path d="M678.3 865.4m-14.4 0a14.4 14.4 0 1 0 28.8 0 14.4 14.4 0 1 0-28.8 0Z" fill="#004364" /><path d="M266.9 836.7m-14.4 0a14.4 14.4 0 1 0 28.8 0 14.4 14.4 0 1 0-28.8 0Z" fill="#004364" /></svg>