<?xml version="1.0" encoding="utf-8"?>
<!-- Uploaded to: SVG Repo, www.svgrepo.com, Generator: SVG Repo Mixer Tools -->
<svg width="800px" height="800px" viewBox="0 0 1024 1024" class="icon"  version="1.1" xmlns="http://www.w3.org/2000/svg"><path d="M781.8 122.6l94.4 43.4-301.6 641s-102 121.5-226.7 97.6c-124.7-23.9-227.8-143-203.9-252.1s33.6-75.5 33.6-75.5l79.2 36.4s-18.4 78.5 13 120.2c0 0 79.2 101.6 187.8 37.6 54.1-31.8 324.2-648.6 324.2-648.6z" fill="#F2F5FB" /><path d="M164.3 572.7s-13.8 33.7-16.8 60.1c-3.2 27.5-1.9 61.3-1.9 61.3l109-5.9s-3.3-19.5 0-41.5 13-31.7 13-31.7l-103.3-42.3z" fill="#FCD04E" /><path d="M779.6 374.9l-69.9-92.8 29.3-74.6 76 88.5z" fill="#E8433F" /><path d="M672.7 605.9l-70-92.8 29.3-74.5 76 88.5z" fill="#FCD04E" /><path d="M887.1 153.4l-99.3-47.2c-3.3-1.6-7-1.7-10.5-0.5-3.4 1.2-6.2 3.7-7.8 7L482.3 717.4c-25 48.2-80.8 82.2-149 49.8-68.3-32.4-77.1-97.2-55.5-147 2.9-6.8 0-14.7-6.7-17.8l-99.3-47.2c-3.3-1.6-7.2-1.8-10.6-0.5-3.5 1.3-6.2 3.9-7.8 7.2-18.3 40.4-27.3 86.5-23.4 132.3v0.2c0 0.1 0.1 0.2 0.1 0.3 6.6 76.2 49 151.3 144.3 196.6h0.1c40.6 19.3 79.3 27.7 115.3 27.7 99.3 0 177.7-64.3 216.4-142 0-0.1 0.1-0.2 0.1-0.2l287.5-605.1c3.1-6.8 0.2-15-6.7-18.3z m-108.7 197l-56.2-74.2 21-44.3 56.2 74.2-21 44.3z m-75.5 158.9l-56.2-74.2 62.2-131 56.2 74.2-62.2 131z m-34.3 72.2l-56.2-74.2 21.1-44.3 56.2 74.2-21.1 44.3z m-75.5 158.9l-56.2-74.2 62.2-131 56.2 74.2-62.2 131z m-69.4-46.2l56 74c-7 13.6-15.5 26.6-25.1 38.9l-52.4-69.2c1.6-2.7 3.2-5.4 4.7-8.2l16.8-35.5z m-350.8-108l74.9 35.6c-5.7 17.1-8.4 35.5-7.6 54l-83.4 3.7c-1-32.1 4.9-64.1 16.1-93.3z m-13.3 120.6l84.8-3.8c8.1 31.7 28.4 61.6 65 82.6l-35.5 74.8C203.6 822.9 169 766 159.6 706.8z m174.5 90.6c7.9 3 15.7 5.2 23.3 6.8l-5.6 83.6c-17.2-3-35-8-53.2-15.6l35.5-74.8z m45 93.4l5.6-83.5c41.2 0.4 76.2-18.8 100.6-46.4l50.9 67.2c-39.5 39.7-93.9 65.6-157.1 62.7z m433.6-612.6L756.5 204l31.9-67.2 74.6 35.4-50.3 106z" fill="#004364" /></svg>