<svg xmlns="http://www.w3.org/2000/svg" xmlns:xlink="http://www.w3.org/1999/xlink" viewBox="0 0 155.3 188.73"><defs><style>.cls-1{fill:#f9f5e4;}.cls-2{fill:#816330;}.cls-3{fill:url(#未命名的渐变_402);}.cls-4{clip-path:url(#clip-path);}.cls-5{fill:#f5e38f;}.cls-6{fill:#91a51b;}</style><linearGradient id="未命名的渐变_402" x1="83.25" y1="32.66" x2="73.88" y2="188.86" gradientUnits="userSpaceOnUse"><stop offset="0" stop-color="#b3c42d"/><stop offset="1" stop-color="#9ab139"/></linearGradient><clipPath id="clip-path"><path class="cls-1" d="M106.27,59.53,99.89,64l19.3,7.58a20.19,20.19,0,0,1-9.94,3.31,64.77,64.77,0,0,1,17.28,10.07l-10.2,1.47a40.94,40.94,0,0,1,17.25,10.1,52.43,52.43,0,0,1-11.84,2.12,29.23,29.23,0,0,1,12.74,14.45l-8.18-.33a26.13,26.13,0,0,1,6.79,18.33,16,16,0,0,1-6.88-2c1.48,6.62,2.31,14.46.42,21-4.73-3-6-5-8.31.65s-2.65,11-6,16.28l-3.13-14.1-4.33,12.94c-.54,1.61-1.22,3.38-2.88,4.17l-1.65-11.63c-1.06,5.9-2.32,12.18-6.92,16.51-.32-4-.5-8-.75-11.92-2.05,2.54-3.81,5.53-5.7,8.25-.86,1.25-6,5.77-6.13,6.2,6.5-18.7,8.63-41.9,7.6-61.51C87.83,104.6,84.29,94.24,79,84,73.4,73.31,65.57,61.1,73.21,49.51c2.9-4.4,7.53-5.16,12.24-2.87,2.72,1.31,4.8,4.12,7.59,5.65,4.51,2.49,9.92,4.18,14.73,6.2Z"/></clipPath></defs><g id="图层_2" data-name="图层 2"><g id="图层_1-2" data-name="图层 1"><path class="cls-2" d="M71.52,20.73c-.52-7,.61-14.19,4.58-20.2A30.76,30.76,0,0,1,92.57,2c-5,5.11-7,12-7.65,18.79-.47,4.58,2.36,25.1-7.71,20.3C72.41,38.75,71.82,24.86,71.52,20.73Z"/><path class="cls-3" d="M140.82,131.92l14.46-5.77c.42-.09-8-11.59-8.5-12.24a14.28,14.28,0,0,0,5.56-4.22,109.29,109.29,0,0,0-9.45-7c3-1.69,6.18-3.17,8.78-5.33.29-.23.58-.52.56-.86s-.43-.66-.81-.86c-5-2.71-11.33-4.4-15.86-7.43,2.74-3.33,5.62-6.45,7.56-10.29a69.3,69.3,0,0,0-17.93-5.55l-.59-.9,7.65-9.16c-1.35,1.62-9.63-1.85-11.61-2l-.24-5.83a27.44,27.44,0,0,1-8.54,1.61,47.07,47.07,0,0,0,3.43-14.18c-2.34.74-9.44,4-11.77,3.23s-3.48-5.7-4.41-7.63c-.29-.62-.78-1.36-1.54-1.3a1.82,1.82,0,0,0-1.18.83,18.88,18.88,0,0,1-4,4.17,49.76,49.76,0,0,0-2.91-6.93c-.26-.56-.62-1.19-1.28-1.33a2.32,2.32,0,0,0-1.7.59c-2,1.44-5.32,6.16-7.9,6.26S73.22,36.15,71.31,35a29.18,29.18,0,0,0-2,8.42l-8.55-6c-.07,3.57,1.45,7.85-3.29,8.44-3.85.48-11.21-.75-14.53,1-5,2.62-1.51,9-5,11.8-2.14,1.71-11.66,3.19-14.57,3.83.48.68,5.82,6.46,5.57,6.81-.93,1.27-1.81,2.57-2.66,3.91a68.73,68.73,0,0,0-14,4.78c-.33.15,3.24,5,3.49,5.52,1.82,3.38,2.52,2,1,5.22-1.93,4-10.16,8.83-13.76,12,.72-.62,10,2.14,10.41,3.72.7,2.54-7.42,8.64-9.25,10.55-.24.25-.49.55-.4.87s.35.41.6.54a23.67,23.67,0,0,0,3.32,1.38c-.4.32-8.8,8-7.57,8.47l13.81,5.51.18,1.08L6.44,145.85a54.37,54.37,0,0,0,14.11,4.77q-1.34,7.63-2.66,15.27l11-4.39c1.19,1.19,2.44,2.31,3.74,3.38l4.48,14.38,7-7.12c1.06.5,2.14,1,3.25,1.42.94.39,3.05,10.69,4.3,12.31A63.64,63.64,0,0,0,57,180.3a5.14,5.14,0,0,1,2.13-1.61c2-.63,3.92,1,5.24,2.51l5.93,6.67a2.2,2.2,0,0,0,1.18.83,2.36,2.36,0,0,0,1.65-.53,40.19,40.19,0,0,0,9.24-8.41l5.78,6.05L94,177.17c0,2.46,7.08,8,9.75,8.83,1.31-2.7,1.71-12.7,4.5-14,.65-.32,1.28-.65,1.92-1l8.19,8.28q2.91-9.36,5.83-18.72l13.38,5.35q-1.34-7.63-2.66-15.27A54.37,54.37,0,0,0,149,145.85Z"/><path class="cls-1" d="M106.27,59.53,99.89,64l19.3,7.58a20.19,20.19,0,0,1-9.94,3.31,64.77,64.77,0,0,1,17.28,10.07l-10.2,1.47a40.94,40.94,0,0,1,17.25,10.1,52.43,52.43,0,0,1-11.84,2.12,29.23,29.23,0,0,1,12.74,14.45l-8.18-.33a26.13,26.13,0,0,1,6.79,18.33,16,16,0,0,1-6.88-2c1.48,6.62,2.31,14.46.42,21-4.73-3-6-5-8.31.65s-2.65,11-6,16.28l-3.13-14.1-4.33,12.94c-.54,1.61-1.22,3.38-2.88,4.17l-1.65-11.63c-1.06,5.9-2.32,12.18-6.92,16.51-.32-4-.5-8-.75-11.92-2.05,2.54-3.81,5.53-5.7,8.25-.86,1.25-6,5.77-6.13,6.2,6.5-18.7,8.63-41.9,7.6-61.51C87.83,104.6,84.29,94.24,79,84,73.4,73.31,65.57,61.1,73.21,49.51c2.9-4.4,7.53-5.16,12.24-2.87,2.72,1.31,4.8,4.12,7.59,5.65,4.51,2.49,9.92,4.18,14.73,6.2Z"/><g class="cls-4"><path class="cls-5" d="M114.67,93.14A65.64,65.64,0,0,0,96.9,68.51c-1.45-1.25-3.15-2.66-5-4.09A95.92,95.92,0,0,0,77.05,52.89a3.52,3.52,0,0,0-4,.14c-3.31-2.66-7.43-4.69-11.63-2.05a3.66,3.66,0,0,0-1.28,5.08,2.1,2.1,0,0,0,.6,3.23,22.12,22.12,0,0,0,6.46,2.43,1.09,1.09,0,0,0,.13.17,8.43,8.43,0,0,0,.86.83,2.91,2.91,0,0,0,1.67,4.71,8.27,8.27,0,0,0,.08,1,24.38,24.38,0,0,0,5.79,12.34A8,8,0,0,0,80.3,84.9c.12,0,.25.08.37.12.39,1.53.75,3.07,1.08,4.61.2,1,.38,1.92.55,2.88-1.28.08-2.59,1.12-2.13,2.45,1.18,3.4,2.51,6.75,3.62,10.17q.22,3.3.33,6.6c.41,13.7-.81,27.39-2.22,41-4.38.53-6.36,4.13-5.75,7.14A7.45,7.45,0,0,0,75,162.15a4.27,4.27,0,0,0,3.34,5.25c4.6.68,8.36-1.61,11.48-4.54a23.38,23.38,0,0,0,6.31-3.44,5.87,5.87,0,0,0,7-2.2c6.52-9.8,12.7-19.8,14.8-31.2A58.4,58.4,0,0,0,114.67,93.14Z"/></g><path class="cls-6" d="M41.81,65.31c.87,2,1.7,4,2.63,6a3.49,3.49,0,0,0,3.88,2.17,6,6,0,0,0,3.61-2.77c.47-.69,1.33-2.54,2.33-1.65s1.34,2.19,2.37,3a6.13,6.13,0,0,0,4.88,1.07c1.52-.21,3-.89,4.54-.92a3.08,3.08,0,0,1,1.67.3c.52.31,0,0,.39.33,1,.77.08-.28.32.31a1.71,1.71,0,0,0,3.27,0c1.14-3.71-3.58-4.82-6.27-4.53-1.63.18-3.14.91-4.77,1.08s-2.27-.78-3.19-2.06a4.55,4.55,0,0,0-3.65-2.23,4.94,4.94,0,0,0-4,2.48c-.45.65-1.85,3.51-2.67,2-1.06-2-1.9-4.06-2.84-6.06-.8-1.73-3.28-.23-2.53,1.48Z"/><path class="cls-6" d="M31.8,83.75c1.07,1.81.66,4,1.3,6a6,6,0,0,0,3.53,3.93c3.47,1.22,5.9-1.71,8.57-3.31,3.17-1.91,5.86,1.27,8.76,2.34a6.42,6.42,0,0,0,5.13-.31c.75-.36,1.43-.89,2.2-1.19a2.34,2.34,0,0,1,2.41.55,14.13,14.13,0,0,0,5.07,2.71,11.66,11.66,0,0,0,6.2-.2c.91-.3,1.88-.93,1.84-2a1.69,1.69,0,0,0-1.94-1.52c-.94.06-1.83.52-2.79.57a8.62,8.62,0,0,1-2.94-.34c-1.92-.58-3.16-2.16-5-3a5.76,5.76,0,0,0-5.47.63c-1.54.9-2.59,1.39-4.31.62s-3-1.78-4.67-2.41a6.83,6.83,0,0,0-5.56.3c-1.61.78-2.87,2.1-4.42,3a2.3,2.3,0,0,1-3.61-1.22c-.88-2.17-.5-4.54-1.81-6.6a1.47,1.47,0,0,0-2.54,1.48Z"/><path class="cls-6" d="M25.57,105.5c-.42,4.66,2.92,8.8,7.22,10.23a12,12,0,0,0,7.1.06A15.33,15.33,0,0,0,45.8,112c1.69-1.53,3.23-2.13,5.36-1.08,1.9.94,3.65,2.21,5.79,2.53,2.35.36,4.51-.52,6.63-1.43,1.4-.61,3.6-2,5-.74.89.76,1.4,1.81,2.42,2.45a5.42,5.42,0,0,0,4.24.53,21.29,21.29,0,0,0,4-1.8,3.88,3.88,0,0,1,1.92-.53c.3,0,1.16.45,1.14.57-.33,1.91,2.62,2.71,2.9.8.35-2.35-1.45-4-3.7-4.27-2.77-.33-4.75,1.7-7.36,2-1.22.11-1.75-.52-2.5-1.36a6.37,6.37,0,0,0-2.78-2c-2-.67-4.15.06-6,.84s-3.81,1.91-5.8,1.38-3.84-2.1-5.94-2.75a7,7,0,0,0-6.35,1.2c-1.83,1.36-3.22,3.25-5.44,4-4.89,1.72-11.32-1-11.15-6.81,0-1.69-2.46-1.64-2.6,0Z"/><path class="cls-6" d="M19.41,129.05c1,2.51,2.12,5.11,4.28,6.87a8.4,8.4,0,0,0,7.09,1.9c2.22-.5,3.94-2.08,5.85-3.23s3.34-1.11,4.68.63,2.29,3.65,4.26,4.86a10.16,10.16,0,0,0,6.7,1.36c2.54-.35,4.22-1.73,6.27-3.13.74-.5,1.79-1.31,2.68-.71s1.23,1.91,1.89,2.68c1.74,2,4.69,2.44,7.17,1.84a12.06,12.06,0,0,0,3.94-1.89c.62-.42,1.2-.88,1.79-1.33l.64-.51.69-.52a1.36,1.36,0,0,1-.16-.79,1.12,1.12,0,0,0,1.37,1.37,1.72,1.72,0,0,0,1.1-2.43,2.45,2.45,0,0,0-3.23-.94,19.81,19.81,0,0,0-3.22,2.18,10.23,10.23,0,0,1-3.94,1.83,5,5,0,0,1-3.1-.34c-1-.53-1.38-1.63-2-2.48a4.87,4.87,0,0,0-6.3-1.37c-2.18,1-3.77,2.92-6.32,3a6.84,6.84,0,0,1-5.8-2.29C44.35,134,43.37,132,41.3,131s-4.4-.47-6.38.66-4.21,3.32-6.8,2.77c-3.2-.69-4.62-3.92-5.8-6.62-.72-1.63-3.59-.45-2.91,1.23Z"/><path class="cls-6" d="M33.86,153.15a17.33,17.33,0,0,0,19.24,5.19,38.21,38.21,0,0,1,5.59-1.87,4.63,4.63,0,0,1,4.69,1.64,6.92,6.92,0,0,0,4.11,2.52,6.74,6.74,0,0,0,4-.92c1.45-.76,2.73-1.8,4.12-2.64a8.75,8.75,0,0,1,2.23-1,2.39,2.39,0,0,1,1-.17c.4.12.33.59.32.11a1,1,0,0,0,.67.89,1.6,1.6,0,0,0,.84,0,1.26,1.26,0,0,0,.89-.88c.35-1.68-1.29-2.84-2.82-2.84a9.2,9.2,0,0,0-4.32,1.31c-1.36.73-2.6,1.64-4,2.37a3.93,3.93,0,0,1-3.24.6,6.82,6.82,0,0,1-2-1.71A7.84,7.84,0,0,0,63,154a8.37,8.37,0,0,0-5.5-.34,52.82,52.82,0,0,0-5.6,1.92,15.63,15.63,0,0,1-5.38.86,15,15,0,0,1-11-5c-1-1.18-2.68.52-1.72,1.71Z"/><path class="cls-6" d="M52.09,168.89c4.35,2.8,9.58,5.93,15,5.66a14.18,14.18,0,0,0,7.24-2.62,5.3,5.3,0,0,1,3.31-1.26A9.18,9.18,0,0,1,80.73,172a1.38,1.38,0,0,0,1.87-1.87c-1-2.37-4.23-3-6.52-2.65-2.7.4-4.58,2.55-7.16,3.24-5.32,1.42-11-1.72-15.41-4.29a1.41,1.41,0,0,0-1.42,2.43Z"/></g></g></svg>