<svg xmlns="http://www.w3.org/2000/svg" xmlns:xlink="http://www.w3.org/1999/xlink" viewBox="0 0 258.99 159.78"><defs><style>.cls-1{fill:url(#未命名的渐变_357);}.cls-2{fill:#966d27;}.cls-3{fill:#a38042;}.cls-4{fill:#8a621e;}.cls-5{fill:#a17730;}.cls-6{fill:#ad884a;}.cls-7{clip-path:url(#clip-path);}.cls-8{fill:#e0ebbe;}.cls-9{fill:#2d4205;}.cls-10{fill:#fff8a3;}</style><radialGradient id="未命名的渐变_357" cx="70.97" cy="89.36" r="60.67" gradientUnits="userSpaceOnUse"><stop offset="0" stop-color="#f6ff5c"/><stop offset="0.23" stop-color="#d7ec44"/><stop offset="0.75" stop-color="#96c313"/><stop offset="1" stop-color="#7db300"/></radialGradient><clipPath id="clip-path"><path class="cls-1" d="M21.77,56.66C8.3,74.77,6.09,100.78,16.94,120.57s34.46,32,56.79,28.67c17.09-2.54,32-13.15,43.88-25.73,7-7.48,13.5-16.39,14.21-26.64.43-6.17-1.28-12.29-3.55-18-7.47-18.95-25.85-45-47.41-49.26C60.74,25.6,33.29,41.17,21.77,56.66Z"/></clipPath></defs><g id="图层_2" data-name="图层 2"><g id="图层_1-2" data-name="图层 1"><path class="cls-2" d="M257.53,75.4a31.44,31.44,0,0,1-2.87,4.82c-22.32,31.87-39.76,59.71-85.51,59.71-19.57,0-39.25-6-54.52-17.93-4.37-3.41-27-37.54-29.66-36.84-3.34.87-5.29-3.48-5.72-6.77L77.88,67.91C90.3,69.2,101.4,33.48,111,25c15.67-13.84,37-20.94,58.16-20.94,18.32,0,36.72,5.28,51.54,15.73,6.89,4.86,13.84,11.06,18.2,18.21,4.6,7.53,5.46,16,12.74,22.11,2.4,2,5.26,3.76,6.55,6.56S258.86,72.52,257.53,75.4Z"/><path class="cls-3" d="M255.77,74.59c.12.33.7.43.87-.21-.24-.27-.48-.54-.73-.79C255.87,73.92,255.82,74.25,255.77,74.59Z"/><path class="cls-3" d="M258.7,70.86a2.48,2.48,0,0,0-.9-1.09,1.24,1.24,0,0,0-1.25,0,1.91,1.91,0,0,1,.75.73,4.69,4.69,0,0,0,.79,1c0,.68-.54,1.06-.86.86.19.29-.46.88,0,1.41a2.2,2.2,0,0,0,.86-2.94C258.29,70.53,258.52,70.78,258.7,70.86Z"/><path class="cls-3" d="M218.49,16.68c.11.11.21.23.32.35A1.29,1.29,0,0,0,218.49,16.68Z"/><path class="cls-3" d="M177.83,2.58c.34,0,.48-.07.51-.16C178,2.46,177.77,2.49,177.83,2.58Z"/><path class="cls-3" d="M170.43,1.14l.44.07C170.71,1.12,170.54,1.06,170.43,1.14Z"/><path class="cls-3" d="M218.49,16.68l-.83-.86C217.43,16.05,218.05,16.33,218.49,16.68Z"/><path class="cls-3" d="M253.28,64.62a1.59,1.59,0,0,0,.59.17,4.25,4.25,0,0,1-.46-.27Z"/><path class="cls-3" d="M233.88,28.17l.25.26a2.25,2.25,0,0,0,.49-.06Z"/><path class="cls-3" d="M242.75,40.35c-.12-.32-.9-.07-1.28,0a1,1,0,0,1,.82.41A1.27,1.27,0,0,0,242.75,40.35Z"/><path class="cls-3" d="M252.88,60l.38.16C253.16,60.17,253,60.08,252.88,60Z"/><path class="cls-3" d="M226.09,20.93a.69.69,0,0,0,.08-.32A.42.42,0,0,0,226.09,20.93Z"/><path class="cls-3" d="M245.14,87.12a.83.83,0,0,0,.12.08C245.24,87.09,245.21,87,245.14,87.12Z"/><path class="cls-3" d="M257.72,75.49l-.06.23a4.25,4.25,0,0,0,.39.25Z"/><path class="cls-3" d="M156.59.87h.06C157,.73,156.8.77,156.59.87Z"/><path class="cls-3" d="M78,84.9c-.2-1,.42-.45,1-.07s1.06.59.62-.7c-.06.19-.66-.12-1.12-.28S77.56,83.72,78,84.9Z"/><path class="cls-3" d="M253.08,64.31c-.14-.1-.29-.22-.43-.34A1.92,1.92,0,0,0,253.08,64.31Z"/><path class="cls-3" d="M79.58,84.13h0l-.07-.27Z"/><path class="cls-3" d="M126.25,10.55a1,1,0,0,0,.45.18C126.66,10.66,126.55,10.6,126.25,10.55Z"/><path class="cls-3" d="M148.88,3.86l-.59,0A2.19,2.19,0,0,0,148.88,3.86Z"/><path class="cls-3" d="M116.29,17.86c-.3.13-.46.08-.75.43a.49.49,0,0,0,.17,0C115.77,18.11,115.91,18,116.29,17.86Z"/><path class="cls-3" d="M106.52,26.47l.28-.09L107,26Z"/><path class="cls-3" d="M222.24,116a2.32,2.32,0,0,1,.91.15C222.62,115.81,223.75,114.46,222.24,116Z"/><path class="cls-3" d="M253.58,64.26a.46.46,0,0,1-.5,0,3,3,0,0,0,.33.21C253.51,64.45,253.59,64.37,253.58,64.26Z"/><path class="cls-3" d="M119.62,23.42l-1.56,1A15.74,15.74,0,0,0,119.62,23.42Z"/><path class="cls-3" d="M142.9,132.72l.44,0A.57.57,0,0,0,142.9,132.72Z"/><path class="cls-3" d="M113.84,28a2.08,2.08,0,0,0-1,.18.6.6,0,0,0,0,.26Z"/><path class="cls-3" d="M223.16,116.11h0Z"/><path class="cls-3" d="M230.26,105.57c-1.19,1.37.25,1.33.47,2-1.19,1.87-1.25.26-2.15.45-.69,1.19-.64,2.65-1.36,3.36-.19-.07-.37,0-.37-.29a6.27,6.27,0,0,1-1.63,2.42,6.24,6.24,0,0,0-1.71,2.61.6.6,0,0,1-.35,0,2.6,2.6,0,0,1,1.22.89c-.59.58-.65,1.55-1.36,1.25.38-.33.22-.57.24-.89l-.42.82c-1.26-.21.62-1.07.1-1.61-1,1.4-1.88,3.32-3.05,4-.84-.58,2-2.24.17-1.77.57-.35,1.17-.67,1.72-1-2.15-.12.95-.74-1.19-1-2.1,1.48-1.79,2.31-4,3.69-.1.79.66.51.56,1.31-2.33,3-3.76-.22-5.16,2.36-.19.94.29,2.16-1.71,2.62l0-1.3c-2.14,1.22-.35,2.16-3,2.8.19-.61,1.51-1.29,1.12-1.22-1.9.07-.71,1.14-1.85,1.79l-.71-.75c-2.24,1.34-4.55,3.27-7.26,4.47.05-.33.4-.81-.35-.84-3.25,1.79-7.51,2.35-11.07,2.48l-1.16,1.1c-.32,0-.65-.27-.35-.5-1.41-.06,0,.55-.57,1-.77.22-1.11-.32-.66-.63-2.27,1.09-6.79,2.52-9.47,1.67l.49-.29c-2-.21-2.22,1.9-4.15,1.13l.36-.16c-4.43-.23-9.39.29-12.61-1.4-.79,1.17-4.23-1.09-4.77.53-2.35-1.3-1.6-1.4-4.91-2.72-.9-.26-1.61.76-2.79.63l.19-.88-1.77.52c-.18-.42-.36-.83-.53-1.27l-1.11-.09c.4.18.78.66.64.89a5.47,5.47,0,0,1-2.56-1c-.71-.51-1.17-1.08-1.12-1.3-1.35-.19-2.7-.39-4-.67.22-.3.89-.17,1.46-.19-2.32.07,0-1-2.14-1,.17.29-.34.45-.45.6a6,6,0,0,0-1.83-1.28,22.18,22.18,0,0,0-2.48-1l.55-.42c-2.6-1.41-5.69-2.57-8.5-4.35.86.86.07,1.64-.84,1.21l.18-1c-.85.14.67.87-.81.75-1-.8-.11-1.38.65-1.24l-1.44-.57c.09-.28.47-.21.75-.46-.42.07-.83-.49-1.29-1s-.93-1.08-1.6-.93l.11-.28-.94-.67-.36-.26s-.08,0-.14-.09c-.32-.27-.72-.66-1.1-1a32.24,32.24,0,0,1-2.37-2.6c-.68.46-1.21-.5-2.24-.77a47,47,0,0,0-3.44-6c-1.38-1.17-.87,0-1.73-.35.52-.54-1-2.52.19-1.79a48.62,48.62,0,0,0-5.16-5.74c0,.52.17,1-.18.93-.51-.49-.68-1.46-.33-1.59l.17.1c-3.44-2.78-4.19-9.29-7.63-11.07l.19.1c-1-.77-2-1.54-3-2.3-1-1.38,1.11.41.62-.85a19.93,19.93,0,0,1-2.4-1.78,16.09,16.09,0,0,0-1.35-1.06,5,5,0,0,0-.57-.34l-.4-.18a3.93,3.93,0,0,0-.65-.19,2.13,2.13,0,0,0-.39-.06,4.42,4.42,0,0,0-.63,0,5.77,5.77,0,0,0-.62.09h0l0,0h0s0,0,0,.06v.11c0,.07,0,.19,0,.11l0-.13c0-.1.12-.24.09-.22a3.3,3.3,0,0,1-.69-.34c.55-1.17,0-2.27-.37-4.06-.22-1.11-.46-2.25-.59-3.32a10.45,10.45,0,0,1-.09-1.55,5.55,5.55,0,0,1,0-.72c0-.16.05-.16.08-.17l.12,0-.52,0c-.54-.19.27-.2.4-.19-.43-.12-.47.06-.77-.11a3.25,3.25,0,0,1-.18-.5c0-.14-.19-.44.06-.36a2.78,2.78,0,0,0,.69-.09l.17,0,.28-.12.35-.16a10.56,10.56,0,0,0,1.39-.68,24.44,24.44,0,0,0,4.56-3.35A48.25,48.25,0,0,0,96,58.52c1.61-2.34-1.44-2.75,1.39-5.11l.33,1.33c1.81-5.39,5.47-9.88,7.15-15,.05.38.3.53.05,1,1.14-.64,2-3.55,1.53-3.85.46-.67.54.1,1-.19.9-.73.63-2.81,1.53-2.92.15,0,0,.38,0,.57.08-.79,1.82-2.64.79-2.54,1.35-1.31,1.79-3.08,3-3.65a1.07,1.07,0,0,1,.32-.78,8.62,8.62,0,0,1,.89-.67c.6-.43,1.11-.83.82-1.43.38.57,1.15.2,2-.37a6.56,6.56,0,0,0,1.92-2.08c-.1.55,1.09-.27,1,.45,1.12-.77,2-1.68,1.45-2.12a4.89,4.89,0,0,0,3.24-1.78c.83-.84,1.64-1.48,2.75-.94a48.32,48.32,0,0,1,10-6.2c.17.64-.78,1-1.69,1.42s-1.75.85-1.4,1.46c3-1.88,4.55-3.62,8-4.41.91-.11-.33.71-.55,1a24.21,24.21,0,0,1,4.85-1.66,26.29,26.29,0,0,0,4.64-1.42c0,.12-.29.32-.58.48.6-.16,1.45-.09,1.27-.66l-.57.27C150,8.1,153.27,6.52,153.32,6c-.77,1.85,3.2,0,1.85,2.35.39-.17.86-.53.71-.91.62,0,.84.23.29.77,2.15-.65,1.3-1.16,3.31-1.36,0,.28-.37.44-.54.8a5,5,0,0,1,3.67-1.22c-.09.18.12.39-.39.42,2.9-.29,5-1.79,8.23-1.21-1,1.24,1.1.43,1.24,1.53.58-.11,1.15-.19,1.73-.26l-.67-.57c1.51.11,2.92-.65,4.2-.15l-1.16.34,2.86,0-1.57-.56c1.59-.42-.05-1.38,2-.9-.42.06,1.55.19,2.26.94h0a3.54,3.54,0,0,1,2.73,0c.23.39-.43,1.15-.27,1.41.43-.39,1.33-.31,2.25-.23a3.86,3.86,0,0,0,2.43-.15.85.85,0,0,0-.42.85l.77-.6c.65.37.72.51.51.93,2,.63-.35-1.51,2-.33-.21,0-.14.14-.57.15a10.83,10.83,0,0,0,1.81.5c.6.14,1.2.25,1.79.36a11.64,11.64,0,0,1,3.42,1c.31,1.26-2-.36-1.55.76,3.23.76,7,1,9.89,2.58l-.5-.36c1-1.21,1.92,1.67,3.68,1.76-.41-.08-.85.54-.68.43,1.87,1.22,4.22,1.69,7.36,3.07l-.57.12c.95,1,2.8,2,3.87,3,.58-.1,1.2.44,1.13-.32,1.14,2.2,2.94,3.2,4.74,4.22s3.55,2,4.28,4.07c-.33-.31-1-.5-.77-.25.88.66,1.74,1.34,2.58,2.05.3-.65,0-.6-.11-1.46a3.36,3.36,0,0,1,2,1.1c-1.36-.8-.78.74-.64,1.47.08-.22.4-.21.52-.39.24,2.08,1.23-.69,2.15,1.67l-.36.12c.7.57,1.58.94,2.07,1.79-.39.77-.86-.55-1.41-.21.83,1,2.77,1.3,2.77,2.76-.49-.36-.94-1-1.45-1.39A3.9,3.9,0,0,0,237.4,39l0-.1c.24.71.51,1.39.71,2.11l0-.61a2.72,2.72,0,0,1,2.15,1.8A5.91,5.91,0,0,0,242,44.77c-2-1.56-.82-.05-1.7.13,0,.63.09,1.55-.24,1.41,1.07.72.17,1.89,1.74,2.92-.23.18.45,1.11-.31,1.16.79,1.25.31-.52.7-.54.88.82,1.17,2.13,1.62,3.56a6.87,6.87,0,0,0,2.71,4,7.94,7.94,0,0,0,2.78,1.69A19.45,19.45,0,0,1,252,60.26c.37.89-1.2.36-1.2.34a6,6,0,0,0,2.87,2.33c-.35,0-.27.36-.19.85.79.56,1.2-.37,1.85.82a4.9,4.9,0,0,1-1.47.19,11.39,11.39,0,0,1,2.88,1.7c-.29.48-1-.14-1.45-.19a10,10,0,0,1,1.29,1.37,3.17,3.17,0,0,0,1.17,1.09,6,6,0,0,0,.09-.85c.16.44-.58.38-.81.14-.43-.36-.51-.66-.46-1a1.23,1.23,0,0,1,.35-.65c.19.19.35.4.53.61.59-.71.07-1.55-.77-2.13a28.79,28.79,0,0,1-2.56-1.55c.45-.16.9-.3,1.36-.44-.7-.16-1.38-.28-2.06-.4-.11-.49.09-1.19.91-.78-.65-1.28-1.18-.37-1.63-1.58,0-.16,0-.17.17-.14-.4-.16-.81-.32-1.18-.51.35,0,.4-.78.85-.16a5.18,5.18,0,0,0-2-1.76c-.64-.36-1.13-.68-1-1.29l.17.1c-1.12-1-1.29-1-1.54-.8s-.47.54-1.59-.16c.32-.87.67-1.69,1-2.49l-.92.18c-.12-.3-.37-.88,0-.94-1.09-.76-.25.36-1.08,0,0-1.72-2.16-3.75-1-4.63-.84-.25.1,1.57-1,.22,1.22-1-1-1.67-.89-3.26.9.1,1,1.51,1.14-.08-1.57-.28-.82-2.71-1.62-3.74-1,.41-1.57-2.24-3-3.81.18,0-.21-1-.8-2s-1.4-2.38-1.87-3.25l.18-.07c-1.07.39-2.19-1.25-3.35-2.14.51-.4.87-.39,1.62,0-.31-.34-.62-.68-.94-1a2.67,2.67,0,0,1-1.61-.72l.81-.33c-1.32-1.28-3.27-1.86-4.67-3.78-.57.49,0,2.75-2.13,1.57.19-.36.57-1,1.16-.66-.19-.1-.78-.23-1-.62l1.18.1c-.61-.91-.79.08-1.38-.5.38-.44-.22-.72.16-1,.2.09.41.65.81.68a4.87,4.87,0,0,1-1.38-2.25c-.14.31-.48.6-1.08.24-1.44-1.06-.06-.93-.73-1.8-.58.06-1.27-1-1.8-.27-.43-.31-.27-.7-.3-1-1-.22-3.7-2.36-3.32-1l.16.18-.14-.05h0c-3-.9-5.13-3.73-8-4.74l.14-.25c-1.75-.55-3.73-1.54-5.14-1.5-.49-.2-1-1-.61-1.19a6.54,6.54,0,0,1-3.31-1.22c1.48,0-.3-.58,1.46.14-1.6-.84-1.83-1.45-3.92-1.32.87-.5-1-1.3-1.9-1.35l1.05.89a18.33,18.33,0,0,1-2.53-.81l.72-.8a8.09,8.09,0,0,0-5-1c-1.62,0-3.08,0-4.28-1.21-1.09.48,1.88.87.87,1.47-1.62-.48-3.14-2.12-3.68-2.22-2.24-.92-2.36,1.1-4.72.41.27.4.45,1.31-1.37,1.47-1.64-.27-1.93-1.63-.84-1.81.41,0,.6.13.57.25.56-.08,1.29-.16.66-.59l-.26.32c-.8-.43-3.15-.6-2.56-1.12-1.32.27-.59.53.35.78-2.16-.62-3.41-.24-5.66-.6.36.2.68.61.32.6-3.29-.49-1.45.62-3.66.81-1.28-.51.42-1.27-1.81-.78-1.39-.33-.33-.92.22-1.21-2,.72-3.89-.22-5.1-.28L161.92,0a9.39,9.39,0,0,1-1.73.3l.68.62c-.65-.05-1.19,0-1.2-.29-.61.52.6,1.1-.62,1.85-.88-.26-2.5.64-2.91-.2,2.68,0-.42-.91,1.82-1.31a4.28,4.28,0,0,1-1.61.18c-.11-.09.07-.21.24-.28-2.68-.44-1,1.2-3.66,1.56.25-.57-.77-.86-1.19-.66,1.07-.19.65.75-.23,1.33-1.74-.08-1.75.63-2.63.76h1c-.23.57-1.07.66-2.17,1.1-.19-.37,1-.51.53-.59-1.05,1.2-3.1-.29-4.71.83-.9-.11-.33-.91-1.12-.94-1.8,1.19-2.36,0-4.27,1.16.82.46.86.27-.37,1.39L141,5.23,139.17,6.9c1-.32,2-1.14,2.66-1.18-.88.84-.82.65-.17,1.06-1.69-.56-2.53,1.46-4.33,1.32l-.53-1.65a7,7,0,0,0-3.38,1.39,12,12,0,0,1-3.73,2l1.1-.14c-.07.4-.53.62-1.07.83a6.26,6.26,0,0,0-1.59.81c-.16-.56-.85-.46-1.43-.58.13.18-.43.43-1,.8s-1.07.87-.93,1.45l-1.66,0a3.85,3.85,0,0,0-2.11,2,4.59,4.59,0,0,1-1.92,2.1c.3-.95-.91-.67.31-2-.75.43-1.43.8-1.22,1.14-.62,0-1.53,2-2.49,2-.14.43.12,1-.67,1.52-.15,0-.17-.23-.17-.23.17.23-1,1.21.1,1.22a4.39,4.39,0,0,0-2.27.78,18.62,18.62,0,0,0-2,1.66c-.65.57-1.35,1.28-2,1.86a5.66,5.66,0,0,1-1.89,1.28c-1,1.65-2.11,3.63-3,5.09-.09-.19-.25-.16,0-.4-1.66,1.71.68,2.07-1.15,4-1.47.69.26-1.46-.46-.91-1.84-.63-1.34,2.87-3.14,3.87l.11-.42c-1.21.87-.93,3.21-2.08,5.06,0,0-.09-.17-.24-.15.14,1.77-.91,4.39-1.69,6.34-.33-.93.12-1-.73-1-.36.87,1.19.35.47,2.08-.66.33-1.63,1.32-2.42,1.07l.83-1.54c-1.34.27-1.09,2-1.71,2.67l-.33-.33c-1.24,2.34-.27,3-1.91,5.32l.45,0c.06,1.95-1.26.71-1.48,2.46l-1.2-.32A17.43,17.43,0,0,1,84.62,64c.2-1.28,1.22-3.11,1.61-4.43-.3.39-.82,1-1.24,1.65a3.48,3.48,0,0,0-.78,1.6c.21-.33.32-.9.72-1a5.28,5.28,0,0,1-2.63,4,.86.86,0,0,0-.67-.57,1.89,1.89,0,0,0-1,.06,5.92,5.92,0,0,1-1,.13c-.42,0-.83.12-1.31.14a26.09,26.09,0,0,1-2.94,0l-.19.27-.09.14a1.55,1.55,0,0,0,0,.22,7.48,7.48,0,0,1,0,.85,2.33,2.33,0,0,1-.43,1.21,39.05,39.05,0,0,1,.89,4.52c.13.92.18,1.84.22,2.79s.07,1.92.1,2.92l0,.38,0,.47c0,.32.09.64.15,1a11.51,11.51,0,0,0,.53,1.9c.53-1.18.67-.79.86-.27s.54,1.22,1.29.7c.58,1,.84,1.37.8,1.53a6,6,0,0,0,2.79,3.58c.59.41.11.45-.5.28s-1.28-.49-1.32-.28a6.84,6.84,0,0,0,1.18.68,7.62,7.62,0,0,0,.83.38,2.22,2.22,0,0,1,.78.46,2,2,0,0,0,.52.39,3.35,3.35,0,0,0,1.62.26c-.2-.13-.19-.27,0-.41a1.35,1.35,0,0,1,.33-.21l.11-.06,0,0,0,0h0c.21.8-1.81-7-1-3.68h0a.33.33,0,0,1,0,.22,7.19,7.19,0,0,1-1.48,2.91l-.08.13h0l0,.06a1.87,1.87,0,0,1,.14.21,1.08,1.08,0,0,1,0-.56h0a.71.71,0,0,1,.1-.14L84,88a5.84,5.84,0,0,0,.33-.53c.11-.17.21-.41.29-.53a3.48,3.48,0,0,0,.22-.43,4.57,4.57,0,0,0,.25-.74c0-.13,0-.17,0-.23a.29.29,0,0,0,0-.09v0h0l.74,2.85h-.07l.07,0c-1.47-5.64-.41-1.56-.74-2.82h0v0a.2.2,0,0,1,0,.11A2.31,2.31,0,0,1,85,86a5,5,0,0,1-.4.94c-.08.13-.2.39-.31.58l-.18.29L84,88s0,0,0,0a.87.87,0,0,1,.31.3,2.48,2.48,0,0,1,.31.94,2.66,2.66,0,0,0,1.53,2.14l-1-.32c1.21.84,3.51,4.3,5.57,4.64,0,.35-.17.93-.68.47,2.08,3.06,6.21,5.73,7.23,8.6l-.52,0c.51.49,1.38.5,1.54,1.46-.17.07-.52,0-.34.31a5.43,5.43,0,0,1,2.06,2l-.87-.35c1.72,3.3,4.3,3.84,6.39,6.13-1,.77.37,3.35,1.11,4.64l-.17.07a20.58,20.58,0,0,0,4.24,4.34c.41.32.82.63,1.38,1l.47.31.32.15.65.31c.87.41,1.73.85,2.64,1.34.65,1.27,2.35,2.66,4.36,3.91,1,.66,2,1.27,3.07,1.89.51.31,1,.63,1.48.95s.94.61,1.36.92c-.46-.48.54-.85,1.24-.64.75.68,2.77.31,2.14,1.32l-.3-.16c.19,1.33,2.12,1.91,3.57,2.48l.8-1.34c1.45,1.79,4,2.49,6.4,3s4.53.76,5.35,2c1-.11,2.22.11,3.23-.05l-.22.8a30.76,30.76,0,0,0,3.35.86,26.26,26.26,0,0,0,3.91.51l-.76.5c1.89.31,2.66-2,4.36-1.93l.39,1.28c3.23.31,6.55,1.5,9.79.38a.71.71,0,0,1-.68.6c1.53,0,6,.71,5.36-1,.09,1.09,3.38,0,5.06-.75l-.19.83a6.3,6.3,0,0,1,3.39-2c.49,0,.51.58-.16.47,1.67.18,1.14-.93,3.15-.81-.21.22-.42.43-.64.63,1.67-.22,1.49-.49,2.28-1.25a4.07,4.07,0,0,1,2-.32,2,2,0,0,1,1.57.52,2.09,2.09,0,0,1,1.87-1.32c.2.23-.1.5-.26.62a7.38,7.38,0,0,0,3.21-1.09,4.44,4.44,0,0,1,2.59-.85.59.59,0,0,0,.47.35c-1.07.36-2,.68-2.71.87a3.82,3.82,0,0,1-1,.22c.21.72,2,.33.91,1.73.64-.46,1.45-1.22,2.33-1.88a7.38,7.38,0,0,1,2.68-1.38,1.15,1.15,0,0,1,.32.15l-.15.15a2.05,2.05,0,0,0,1-.53,5.5,5.5,0,0,0,1.45-.36c.44.48,2.07-.56,2.92-.92-.43-.71.69-1.13-.6-1.23.15,0-.11.16-.64.44a1.21,1.21,0,0,0-.32.24l0-.1-2,1a2.44,2.44,0,0,1,2.11-1.3c.2-.66.42-1.36.56-1.73,1.58.49,4-.07,4.63.35,2.24-1.71,5.45-3.72,6-6,.52-.6,1-.17,1.36-.14-.26.4-.71.69-.79,1,1.05-1.23,3.62-2.91,3.21-4,1.82-.86-.22,1.46,1.75-.38l-.07.49c2.6-1.05,3.76-3.06,4.92-5a17.54,17.54,0,0,1,1.94-2.91,9.52,9.52,0,0,1,3.14-2.48c-.37.21-.55.32-.74.26a40.12,40.12,0,0,0,6.64-7.62A41.44,41.44,0,0,1,244,99c1.34-1.31.9-1.88,1.14-3.1l.95.2.29-2.16c1-2.64,4.49-2.59,5.31-6.22l-.74,0c.8-1,1.95-3.4,2.4-2.84,0-.17-.28-.69.25-.91l.4.24,1.09-2.94c.8-.86,1.14-.55,1.51-.34s.83.31,1.85-1.24a7.34,7.34,0,0,0,.53-2.49c0-.83-.1-1.44-.35-1.27-.25.49-.88,1.11-1.3.92.12-.39.22-.78.32-1.17a6.44,6.44,0,0,0-1.7-1.09c-.63-.17-1.31,0-2.34.84-.05.64-.13,1.3-.23,2l-.88.13c.27-.44.54-.88.79-1.31-1,.4-.81,1.14-.87,1.89a1.24,1.24,0,0,0-1.05.24l-.06,2.36c-.57-.11-.36-1.33-1.36-.42,0,1.1,1.48,0,.94,1.43-1.06.43-1.31-.08-1.52,1.14-.37-.08-.42-.4-.29-.85-.23,1.06-1.37,2.27-1.07,3.1-1.19.37-1.76,2.87-2.76,2A6,6,0,0,1,244.6,90c-.3-2.25-2,2.73-3.14,1.4.41,1.81-2.09,4-2.77,6.15,0-.17-.06-.49.12-.6a7.18,7.18,0,0,1-2.05,1.41c.82.81-.12,2.48-.19,3.72-1.8.5-.5-1.53-1.63-1.81.78.51-.87,2.59.05,2.67-1.24.47-.86.57-2,.43,1,1.06-.48,1-.4,2.26-1.58.82-1.29-.52-2.12,1.12C229.62,107.11,230.26,105.57,230.26,105.57Zm-31.6,27.16h0l.79-.37Zm-3.35,1.2c.42-.11.93-.28,1.47-.47a.37.37,0,0,1-.16.65C196.74,133.87,195.89,134,195.31,133.93Zm9.36,2.47c-.51.36-.76.29-.9.17.25-.13.55-.29.93-.53,0,0,0-.08,0-.12A1.1,1.1,0,0,1,204.67,136.4Z"/><path class="cls-3" d="M205.22,135a2,2,0,0,1,.2-.16l-.41,0-.08.32Z"/><path class="cls-3" d="M218.86,17.09l-.05-.06a.62.62,0,0,1,.07.19A.83.83,0,0,1,218.86,17.09Z"/><polygon class="cls-3" points="146.8 133.39 146.75 133.59 147.09 133.49 146.8 133.39"/><path class="cls-3" d="M232.48,32.15a.47.47,0,0,0,0,.33S232.51,32.3,232.48,32.15Z"/><path class="cls-3" d="M237.4,39l.33,1.15A7.39,7.39,0,0,0,237.4,39Z"/><path class="cls-3" d="M239.91,44.92a1.05,1.05,0,0,0,.37,0h0Z"/><path class="cls-3" d="M150.47,9.15a.85.85,0,0,0-.24.08C149.69,9.51,150.06,9.35,150.47,9.15Z"/><path class="cls-3" d="M181.3,6.1a6.59,6.59,0,0,1-1,.26C180.8,6.49,181.23,6.56,181.3,6.1Z"/><path class="cls-3" d="M119.8,23.32s0,0,0,0l-.17.12Z"/><path class="cls-3" d="M178.81,6.18a2.92,2.92,0,0,0,1.45.18A3.56,3.56,0,0,0,178.81,6.18Z"/><path class="cls-3" d="M256.05,68.24l0,.22a.23.23,0,0,1,.14,0Z"/><path class="cls-3" d="M256.22,68.45l.15.21C256.34,68.55,256.31,68.45,256.22,68.45Z"/><path class="cls-3" d="M256.68,69.15c-.11-.17-.19-.34-.31-.49C256.42,68.84,256.42,69.06,256.68,69.15Z"/><path class="cls-3" d="M251.26,62.62l-.27.17A.45.45,0,0,0,251.26,62.62Z"/><path class="cls-3" d="M249,60.79c.47.52.92,1.71,1.78,2.13l.21-.13c-.3,0-.6-.43-.92-.92S249.42,60.84,249,60.79Z"/><path class="cls-3" d="M245.64,49.23c.23.71.47,1.41.73,2.1.11-.49.28-1.12.78-.27C246.81,48.19,246.74,51.9,245.64,49.23Z"/><path class="cls-3" d="M243.32,42.59c.64,1.09.42-.19.61-.21C243.34,41.77,243.2,41.63,243.32,42.59Z"/><path class="cls-3" d="M204.86,9.08l.39-.65C204.32,8.17,205.14,8.7,204.86,9.08Z"/><polygon class="cls-3" points="194.43 9.57 195.16 10.25 195.76 9.71 194.43 9.57"/><path class="cls-3" d="M190.13,3h.44c-.55,0-1.1,0-1.65-.07Z"/><path class="cls-3" d="M107.52,24.14l.89.39a.69.69,0,0,0-.06-.84C108.17,23.53,107.81,23.59,107.52,24.14Z"/><path class="cls-3" d="M89.11,56.56A1.67,1.67,0,0,0,87.72,58C88.24,57.43,89,57,89.11,56.56Z"/><path class="cls-3" d="M135.29,137.53h-.83c.48.1,1,.21,1.45.28Z"/><path class="cls-3" d="M255.77,74.59c.12.33.7.43.87-.21-.24-.27-.48-.54-.73-.79C255.87,73.92,255.82,74.25,255.77,74.59Z"/><path class="cls-3" d="M258.7,70.86a2.48,2.48,0,0,0-.9-1.09,1.24,1.24,0,0,0-1.25,0,1.91,1.91,0,0,1,.75.73,4.69,4.69,0,0,0,.79,1c0,.68-.54,1.06-.86.86.19.29-.46.88,0,1.41a2.2,2.2,0,0,0,.86-2.94C258.29,70.53,258.52,70.78,258.7,70.86Z"/><path class="cls-3" d="M218.49,16.68c.11.11.21.23.32.35A1.29,1.29,0,0,0,218.49,16.68Z"/><path class="cls-3" d="M177.83,2.58c.34,0,.48-.07.51-.16C178,2.46,177.77,2.49,177.83,2.58Z"/><path class="cls-3" d="M170.43,1.14l.44.07C170.71,1.12,170.54,1.06,170.43,1.14Z"/><path class="cls-3" d="M218.49,16.68l-.83-.86C217.43,16.05,218.05,16.33,218.49,16.68Z"/><path class="cls-3" d="M253.28,64.62a1.59,1.59,0,0,0,.59.17,4.25,4.25,0,0,1-.46-.27Z"/><path class="cls-3" d="M233.88,28.17l.25.26a2.25,2.25,0,0,0,.49-.06Z"/><path class="cls-3" d="M242.75,40.35c-.12-.32-.9-.07-1.28,0a1,1,0,0,1,.82.41A1.27,1.27,0,0,0,242.75,40.35Z"/><path class="cls-3" d="M252.88,60l.38.16C253.16,60.17,253,60.08,252.88,60Z"/><path class="cls-3" d="M226.09,20.93a.69.69,0,0,0,.08-.32A.42.42,0,0,0,226.09,20.93Z"/><path class="cls-3" d="M245.14,87.12a.83.83,0,0,0,.12.08C245.24,87.09,245.21,87,245.14,87.12Z"/><path class="cls-3" d="M257.72,75.49l-.06.23a4.25,4.25,0,0,0,.39.25Z"/><path class="cls-3" d="M156.59.87h.06C157,.73,156.8.77,156.59.87Z"/><path class="cls-3" d="M78,84.9c-.2-1,.42-.45,1-.07s1.06.59.62-.7c-.06.19-.66-.12-1.12-.28S77.56,83.72,78,84.9Z"/><path class="cls-3" d="M253.08,64.31c-.14-.1-.29-.22-.43-.34A1.92,1.92,0,0,0,253.08,64.31Z"/><path class="cls-3" d="M79.58,84.13h0l-.07-.27Z"/><path class="cls-3" d="M126.25,10.55a1,1,0,0,0,.45.18C126.66,10.66,126.55,10.6,126.25,10.55Z"/><path class="cls-3" d="M148.88,3.86l-.59,0A2.19,2.19,0,0,0,148.88,3.86Z"/><path class="cls-3" d="M116.29,17.86c-.3.13-.46.08-.75.43a.49.49,0,0,0,.17,0C115.77,18.11,115.91,18,116.29,17.86Z"/><path class="cls-3" d="M106.52,26.47l.28-.09L107,26Z"/><path class="cls-3" d="M222.24,116a2.32,2.32,0,0,1,.91.15C222.62,115.81,223.75,114.46,222.24,116Z"/><path class="cls-3" d="M253.58,64.26a.46.46,0,0,1-.5,0,3,3,0,0,0,.33.21C253.51,64.45,253.59,64.37,253.58,64.26Z"/><path class="cls-3" d="M119.62,23.42l-1.56,1A15.74,15.74,0,0,0,119.62,23.42Z"/><path class="cls-3" d="M142.9,132.72l.44,0A.57.57,0,0,0,142.9,132.72Z"/><path class="cls-3" d="M113.84,28a2.08,2.08,0,0,0-1,.18.6.6,0,0,0,0,.26Z"/><path class="cls-3" d="M223.16,116.11h0Z"/><path class="cls-3" d="M230.26,105.57c-1.19,1.37.25,1.33.47,2-1.19,1.87-1.25.26-2.15.45-.69,1.19-.64,2.65-1.36,3.36-.19-.07-.37,0-.37-.29a6.27,6.27,0,0,1-1.63,2.42,6.24,6.24,0,0,0-1.71,2.61.6.6,0,0,1-.35,0,2.6,2.6,0,0,1,1.22.89c-.59.58-.65,1.55-1.36,1.25.38-.33.22-.57.24-.89l-.42.82c-1.26-.21.62-1.07.1-1.61-1,1.4-1.88,3.32-3.05,4-.84-.58,2-2.24.17-1.77.57-.35,1.17-.67,1.72-1-2.15-.12.95-.74-1.19-1-2.1,1.48-1.79,2.31-4,3.69-.1.79.66.51.56,1.31-2.33,3-3.76-.22-5.16,2.36-.19.94.29,2.16-1.71,2.62l0-1.3c-2.14,1.22-.35,2.16-3,2.8.19-.61,1.51-1.29,1.12-1.22-1.9.07-.71,1.14-1.85,1.79l-.71-.75c-2.24,1.34-4.55,3.27-7.26,4.47.05-.33.4-.81-.35-.84-3.25,1.79-7.51,2.35-11.07,2.48l-1.16,1.1c-.32,0-.65-.27-.35-.5-1.41-.06,0,.55-.57,1-.77.22-1.11-.32-.66-.63-2.27,1.09-6.79,2.52-9.47,1.67l.49-.29c-2-.21-2.22,1.9-4.15,1.13l.36-.16c-4.43-.23-9.39.29-12.61-1.4-.79,1.17-4.23-1.09-4.77.53-2.35-1.3-1.6-1.4-4.91-2.72-.9-.26-1.61.76-2.79.63l.19-.88-1.77.52c-.18-.42-.36-.83-.53-1.27l-1.11-.09c.4.18.78.66.64.89a5.47,5.47,0,0,1-2.56-1c-.71-.51-1.17-1.08-1.12-1.3-1.35-.19-2.7-.39-4-.67.22-.3.89-.17,1.46-.19-2.32.07,0-1-2.14-1,.17.29-.34.45-.45.6a6,6,0,0,0-1.83-1.28,22.18,22.18,0,0,0-2.48-1l.55-.42c-2.6-1.41-5.69-2.57-8.5-4.35.86.86.07,1.64-.84,1.21l.18-1c-.85.14.67.87-.81.75-1-.8-.11-1.38.65-1.24l-1.44-.57c.09-.28.47-.21.75-.46-.42.07-.83-.49-1.29-1s-.93-1.08-1.6-.93l.11-.28-.94-.67-.36-.26s-.08,0-.14-.09c-.32-.27-.72-.66-1.1-1a32.24,32.24,0,0,1-2.37-2.6c-.68.46-1.21-.5-2.24-.77a47,47,0,0,0-3.44-6c-1.38-1.17-.87,0-1.73-.35.52-.54-1-2.52.19-1.79a48.62,48.62,0,0,0-5.16-5.74c0,.52.17,1-.18.93-.51-.49-.68-1.46-.33-1.59l.17.1c-3.44-2.78-4.19-9.29-7.63-11.07l.19.1c-1-.77-2-1.54-3-2.3-1-1.38,1.11.41.62-.85a19.93,19.93,0,0,1-2.4-1.78,16.09,16.09,0,0,0-1.35-1.06,5,5,0,0,0-.57-.34l-.4-.18a3.93,3.93,0,0,0-.65-.19,2.13,2.13,0,0,0-.39-.06,4.42,4.42,0,0,0-.63,0,5.77,5.77,0,0,0-.62.09h0l0,0h0s0,0,0,.06v.11c0,.07,0,.19,0,.11l0-.13c0-.1.12-.24.09-.22a3.3,3.3,0,0,1-.69-.34c.55-1.17,0-2.27-.37-4.06-.22-1.11-.46-2.25-.59-3.32a10.45,10.45,0,0,1-.09-1.55,5.55,5.55,0,0,1,0-.72c0-.16.05-.16.08-.17l.12,0-.52,0c-.54-.19.27-.2.4-.19-.43-.12-.47.06-.77-.11a3.25,3.25,0,0,1-.18-.5c0-.14-.19-.44.06-.36a2.78,2.78,0,0,0,.69-.09l.17,0,.28-.12.35-.16a10.56,10.56,0,0,0,1.39-.68,24.44,24.44,0,0,0,4.56-3.35A48.25,48.25,0,0,0,96,58.52c1.61-2.34-1.44-2.75,1.39-5.11l.33,1.33c1.81-5.39,5.47-9.88,7.15-15,.05.38.3.53.05,1,1.14-.64,2-3.55,1.53-3.85.46-.67.54.1,1-.19.9-.73.63-2.81,1.53-2.92.15,0,0,.38,0,.57.08-.79,1.82-2.64.79-2.54,1.35-1.31,1.79-3.08,3-3.65a1.07,1.07,0,0,1,.32-.78,8.62,8.62,0,0,1,.89-.67c.6-.43,1.11-.83.82-1.43.38.57,1.15.2,2-.37a6.56,6.56,0,0,0,1.92-2.08c-.1.55,1.09-.27,1,.45,1.12-.77,2-1.68,1.45-2.12a4.89,4.89,0,0,0,3.24-1.78c.83-.84,1.64-1.48,2.75-.94a48.32,48.32,0,0,1,10-6.2c.17.64-.78,1-1.69,1.42s-1.75.85-1.4,1.46c3-1.88,4.55-3.62,8-4.41.91-.11-.33.71-.55,1a24.21,24.21,0,0,1,4.85-1.66,26.29,26.29,0,0,0,4.64-1.42c0,.12-.29.32-.58.48.6-.16,1.45-.09,1.27-.66l-.57.27C150,8.1,153.27,6.52,153.32,6c-.77,1.85,3.2,0,1.85,2.35.39-.17.86-.53.71-.91.62,0,.84.23.29.77,2.15-.65,1.3-1.16,3.31-1.36,0,.28-.37.44-.54.8a5,5,0,0,1,3.67-1.22c-.09.18.12.39-.39.42,2.9-.29,5-1.79,8.23-1.21-1,1.24,1.1.43,1.24,1.53.58-.11,1.15-.19,1.73-.26l-.67-.57c1.51.11,2.92-.65,4.2-.15l-1.16.34,2.86,0-1.57-.56c1.59-.42-.05-1.38,2-.9-.42.06,1.55.19,2.26.94h0a3.54,3.54,0,0,1,2.73,0c.23.39-.43,1.15-.27,1.41.43-.39,1.33-.31,2.25-.23a3.86,3.86,0,0,0,2.43-.15.85.85,0,0,0-.42.85l.77-.6c.65.37.72.51.51.93,2,.63-.35-1.51,2-.33-.21,0-.14.14-.57.15a10.83,10.83,0,0,0,1.81.5c.6.14,1.2.25,1.79.36a11.64,11.64,0,0,1,3.42,1c.31,1.26-2-.36-1.55.76,3.23.76,7,1,9.89,2.58l-.5-.36c1-1.21,1.92,1.67,3.68,1.76-.41-.08-.85.54-.68.43,1.87,1.22,4.22,1.69,7.36,3.07l-.57.12c.95,1,2.8,2,3.87,3,.58-.1,1.2.44,1.13-.32,1.14,2.2,2.94,3.2,4.74,4.22s3.55,2,4.28,4.07c-.33-.31-1-.5-.77-.25.88.66,1.74,1.34,2.58,2.05.3-.65,0-.6-.11-1.46a3.36,3.36,0,0,1,2,1.1c-1.36-.8-.78.74-.64,1.47.08-.22.4-.21.52-.39.24,2.08,1.23-.69,2.15,1.67l-.36.12c.7.57,1.58.94,2.07,1.79-.39.77-.86-.55-1.41-.21.83,1,2.77,1.3,2.77,2.76-.49-.36-.94-1-1.45-1.39A3.9,3.9,0,0,0,237.4,39l0-.1c.24.71.51,1.39.71,2.11l0-.61a2.72,2.72,0,0,1,2.15,1.8A5.91,5.91,0,0,0,242,44.77c-2-1.56-.82-.05-1.7.13,0,.63.09,1.55-.24,1.41,1.07.72.17,1.89,1.74,2.92-.23.18.45,1.11-.31,1.16.79,1.25.31-.52.7-.54.88.82,1.17,2.13,1.62,3.56a6.87,6.87,0,0,0,2.71,4,7.94,7.94,0,0,0,2.78,1.69A19.45,19.45,0,0,1,252,60.26c.37.89-1.2.36-1.2.34a6,6,0,0,0,2.87,2.33c-.35,0-.27.36-.19.85.79.56,1.2-.37,1.85.82a4.9,4.9,0,0,1-1.47.19,11.39,11.39,0,0,1,2.88,1.7c-.29.48-1-.14-1.45-.19a10,10,0,0,1,1.29,1.37,3.17,3.17,0,0,0,1.17,1.09,6,6,0,0,0,.09-.85c.16.44-.58.38-.81.14-.43-.36-.51-.66-.46-1a1.23,1.23,0,0,1,.35-.65c.19.19.35.4.53.61.59-.71.07-1.55-.77-2.13a28.79,28.79,0,0,1-2.56-1.55c.45-.16.9-.3,1.36-.44-.7-.16-1.38-.28-2.06-.4-.11-.49.09-1.19.91-.78-.65-1.28-1.18-.37-1.63-1.58,0-.16,0-.17.17-.14-.4-.16-.81-.32-1.18-.51.35,0,.4-.78.85-.16a5.18,5.18,0,0,0-2-1.76c-.64-.36-1.13-.68-1-1.29l.17.1c-1.12-1-1.29-1-1.54-.8s-.47.54-1.59-.16c.32-.87.67-1.69,1-2.49l-.92.18c-.12-.3-.37-.88,0-.94-1.09-.76-.25.36-1.08,0,0-1.72-2.16-3.75-1-4.63-.84-.25.1,1.57-1,.22,1.22-1-1-1.67-.89-3.26.9.1,1,1.51,1.14-.08-1.57-.28-.82-2.71-1.62-3.74-1,.41-1.57-2.24-3-3.81.18,0-.21-1-.8-2s-1.4-2.38-1.87-3.25l.18-.07c-1.07.39-2.19-1.25-3.35-2.14.51-.4.87-.39,1.62,0-.31-.34-.62-.68-.94-1a2.67,2.67,0,0,1-1.61-.72l.81-.33c-1.32-1.28-3.27-1.86-4.67-3.78-.57.49,0,2.75-2.13,1.57.19-.36.57-1,1.16-.66-.19-.1-.78-.23-1-.62l1.18.1c-.61-.91-.79.08-1.38-.5.38-.44-.22-.72.16-1,.2.09.41.65.81.68a4.87,4.87,0,0,1-1.38-2.25c-.14.31-.48.6-1.08.24-1.44-1.06-.06-.93-.73-1.8-.58.06-1.27-1-1.8-.27-.43-.31-.27-.7-.3-1-1-.22-3.7-2.36-3.32-1l.16.18-.14-.05h0c-3-.9-5.13-3.73-8-4.74l.14-.25c-1.75-.55-3.73-1.54-5.14-1.5-.49-.2-1-1-.61-1.19a6.54,6.54,0,0,1-3.31-1.22c1.48,0-.3-.58,1.46.14-1.6-.84-1.83-1.45-3.92-1.32.87-.5-1-1.3-1.9-1.35l1.05.89a18.33,18.33,0,0,1-2.53-.81l.72-.8a8.09,8.09,0,0,0-5-1c-1.62,0-3.08,0-4.28-1.21-1.09.48,1.88.87.87,1.47-1.62-.48-3.14-2.12-3.68-2.22-2.24-.92-2.36,1.1-4.72.41.27.4.45,1.31-1.37,1.47-1.64-.27-1.93-1.63-.84-1.81.41,0,.6.13.57.25.56-.08,1.29-.16.66-.59l-.26.32c-.8-.43-3.15-.6-2.56-1.12-1.32.27-.59.53.35.78-2.16-.62-3.41-.24-5.66-.6.36.2.68.61.32.6-3.29-.49-1.45.62-3.66.81-1.28-.51.42-1.27-1.81-.78-1.39-.33-.33-.92.22-1.21-2,.72-3.89-.22-5.1-.28L161.92,0a9.39,9.39,0,0,1-1.73.3l.68.62c-.65-.05-1.19,0-1.2-.29-.61.52.6,1.1-.62,1.85-.88-.26-2.5.64-2.91-.2,2.68,0-.42-.91,1.82-1.31a4.28,4.28,0,0,1-1.61.18c-.11-.09.07-.21.24-.28-2.68-.44-1,1.2-3.66,1.56.25-.57-.77-.86-1.19-.66,1.07-.19.65.75-.23,1.33-1.74-.08-1.75.63-2.63.76h1c-.23.57-1.07.66-2.17,1.1-.19-.37,1-.51.53-.59-1.05,1.2-3.1-.29-4.71.83-.9-.11-.33-.91-1.12-.94-1.8,1.19-2.36,0-4.27,1.16.82.46.86.27-.37,1.39L141,5.23,139.17,6.9c1-.32,2-1.14,2.66-1.18-.88.84-.82.65-.17,1.06-1.69-.56-2.53,1.46-4.33,1.32l-.53-1.65a7,7,0,0,0-3.38,1.39,12,12,0,0,1-3.73,2l1.1-.14c-.07.4-.53.62-1.07.83a6.26,6.26,0,0,0-1.59.81c-.16-.56-.85-.46-1.43-.58.13.18-.43.43-1,.8s-1.07.87-.93,1.45l-1.66,0a3.85,3.85,0,0,0-2.11,2,4.59,4.59,0,0,1-1.92,2.1c.3-.95-.91-.67.31-2-.75.43-1.43.8-1.22,1.14-.62,0-1.53,2-2.49,2-.14.43.12,1-.67,1.52-.15,0-.17-.23-.17-.23.17.23-1,1.21.1,1.22a4.39,4.39,0,0,0-2.27.78,18.62,18.62,0,0,0-2,1.66c-.65.57-1.35,1.28-2,1.86a5.66,5.66,0,0,1-1.89,1.28c-1,1.65-2.11,3.63-3,5.09-.09-.19-.25-.16,0-.4-1.66,1.71.68,2.07-1.15,4-1.47.69.26-1.46-.46-.91-1.84-.63-1.34,2.87-3.14,3.87l.11-.42c-1.21.87-.93,3.21-2.08,5.06,0,0-.09-.17-.24-.15.14,1.77-.91,4.39-1.69,6.34-.33-.93.12-1-.73-1-.36.87,1.19.35.47,2.08-.66.33-1.63,1.32-2.42,1.07l.83-1.54c-1.34.27-1.09,2-1.71,2.67l-.33-.33c-1.24,2.34-.27,3-1.91,5.32l.45,0c.06,1.95-1.26.71-1.48,2.46l-1.2-.32A17.43,17.43,0,0,1,84.62,64c.2-1.28,1.22-3.11,1.61-4.43-.3.39-.82,1-1.24,1.65a3.48,3.48,0,0,0-.78,1.6c.21-.33.32-.9.72-1a5.28,5.28,0,0,1-2.63,4,.86.86,0,0,0-.67-.57,1.89,1.89,0,0,0-1,.06,5.92,5.92,0,0,1-1,.13c-.42,0-.83.12-1.31.14a26.09,26.09,0,0,1-2.94,0l-.19.27-.09.14a1.55,1.55,0,0,0,0,.22,7.48,7.48,0,0,1,0,.85,2.33,2.33,0,0,1-.43,1.21,39.05,39.05,0,0,1,.89,4.52c.13.92.18,1.84.22,2.79s.07,1.92.1,2.92l0,.38,0,.47c0,.32.09.64.15,1a11.51,11.51,0,0,0,.53,1.9c.53-1.18.67-.79.86-.27s.54,1.22,1.29.7c.58,1,.84,1.37.8,1.53a6,6,0,0,0,2.79,3.58c.59.41.11.45-.5.28s-1.28-.49-1.32-.28a6.84,6.84,0,0,0,1.18.68,7.62,7.62,0,0,0,.83.38,2.22,2.22,0,0,1,.78.46,2,2,0,0,0,.52.39,3.35,3.35,0,0,0,1.62.26c-.2-.13-.19-.27,0-.41a1.35,1.35,0,0,1,.33-.21l.11-.06,0,0,0,0h0c.21.8-1.81-7-1-3.68h0a.33.33,0,0,1,0,.22,7.19,7.19,0,0,1-1.48,2.91l-.08.13h0l0,.06a1.87,1.87,0,0,1,.14.21,1.08,1.08,0,0,1,0-.56h0a.71.71,0,0,1,.1-.14L84,88a5.84,5.84,0,0,0,.33-.53c.11-.17.21-.41.29-.53a3.48,3.48,0,0,0,.22-.43,4.57,4.57,0,0,0,.25-.74c0-.13,0-.17,0-.23a.29.29,0,0,0,0-.09v0h0l.74,2.85h-.07l.07,0c-1.47-5.64-.41-1.56-.74-2.82h0v0a.2.2,0,0,1,0,.11A2.31,2.31,0,0,1,85,86a5,5,0,0,1-.4.94c-.08.13-.2.39-.31.58l-.18.29L84,88s0,0,0,0a.87.87,0,0,1,.31.3,2.48,2.48,0,0,1,.31.94,2.66,2.66,0,0,0,1.53,2.14l-1-.32c1.21.84,3.51,4.3,5.57,4.64,0,.35-.17.93-.68.47,2.08,3.06,6.21,5.73,7.23,8.6l-.52,0c.51.49,1.38.5,1.54,1.46-.17.07-.52,0-.34.31a5.43,5.43,0,0,1,2.06,2l-.87-.35c1.72,3.3,4.3,3.84,6.39,6.13-1,.77.37,3.35,1.11,4.64l-.17.07a20.58,20.58,0,0,0,4.24,4.34c.41.32.82.63,1.38,1l.47.31.32.15.65.31c.87.41,1.73.85,2.64,1.34.65,1.27,2.35,2.66,4.36,3.91,1,.66,2,1.27,3.07,1.89.51.31,1,.63,1.48.95s.94.61,1.36.92c-.46-.48.54-.85,1.24-.64.75.68,2.77.31,2.14,1.32l-.3-.16c.19,1.33,2.12,1.91,3.57,2.48l.8-1.34c1.45,1.79,4,2.49,6.4,3s4.53.76,5.35,2c1-.11,2.22.11,3.23-.05l-.22.8a30.76,30.76,0,0,0,3.35.86,26.26,26.26,0,0,0,3.91.51l-.76.5c1.89.31,2.66-2,4.36-1.93l.39,1.28c3.23.31,6.55,1.5,9.79.38a.71.71,0,0,1-.68.6c1.53,0,6,.71,5.36-1,.09,1.09,3.38,0,5.06-.75l-.19.83a6.3,6.3,0,0,1,3.39-2c.49,0,.51.58-.16.47,1.67.18,1.14-.93,3.15-.81-.21.22-.42.43-.64.63,1.67-.22,1.49-.49,2.28-1.25a4.07,4.07,0,0,1,2-.32,2,2,0,0,1,1.57.52,2.09,2.09,0,0,1,1.87-1.32c.2.23-.1.5-.26.62a7.38,7.38,0,0,0,3.21-1.09,4.44,4.44,0,0,1,2.59-.85.59.59,0,0,0,.47.35c-1.07.36-2,.68-2.71.87a3.82,3.82,0,0,1-1,.22c.21.72,2,.33.91,1.73.64-.46,1.45-1.22,2.33-1.88a7.38,7.38,0,0,1,2.68-1.38,1.15,1.15,0,0,1,.32.15l-.15.15a2.05,2.05,0,0,0,1-.53,5.5,5.5,0,0,0,1.45-.36c.44.48,2.07-.56,2.92-.92-.43-.71.69-1.13-.6-1.23.15,0-.11.16-.64.44a1.21,1.21,0,0,0-.32.24l0-.1-2,1a2.44,2.44,0,0,1,2.11-1.3c.2-.66.42-1.36.56-1.73,1.58.49,4-.07,4.63.35,2.24-1.71,5.45-3.72,6-6,.52-.6,1-.17,1.36-.14-.26.4-.71.69-.79,1,1.05-1.23,3.62-2.91,3.21-4,1.82-.86-.22,1.46,1.75-.38l-.07.49c2.6-1.05,3.76-3.06,4.92-5a17.54,17.54,0,0,1,1.94-2.91,9.52,9.52,0,0,1,3.14-2.48c-.37.21-.55.32-.74.26a40.12,40.12,0,0,0,6.64-7.62A41.44,41.44,0,0,1,244,99c1.34-1.31.9-1.88,1.14-3.1l.95.2.29-2.16c1-2.64,4.49-2.59,5.31-6.22l-.74,0c.8-1,1.95-3.4,2.4-2.84,0-.17-.28-.69.25-.91l.4.24,1.09-2.94c.8-.86,1.14-.55,1.51-.34s.83.31,1.85-1.24a7.34,7.34,0,0,0,.53-2.49c0-.83-.1-1.44-.35-1.27-.25.49-.88,1.11-1.3.92.12-.39.22-.78.32-1.17a6.44,6.44,0,0,0-1.7-1.09c-.63-.17-1.31,0-2.34.84-.05.64-.13,1.3-.23,2l-.88.13c.27-.44.54-.88.79-1.31-1,.4-.81,1.14-.87,1.89a1.24,1.24,0,0,0-1.05.24l-.06,2.36c-.57-.11-.36-1.33-1.36-.42,0,1.1,1.48,0,.94,1.43-1.06.43-1.31-.08-1.52,1.14-.37-.08-.42-.4-.29-.85-.23,1.06-1.37,2.27-1.07,3.1-1.19.37-1.76,2.87-2.76,2A6,6,0,0,1,244.6,90c-.3-2.25-2,2.73-3.14,1.4.41,1.81-2.09,4-2.77,6.15,0-.17-.06-.49.12-.6a7.18,7.18,0,0,1-2.05,1.41c.82.81-.12,2.48-.19,3.72-1.8.5-.5-1.53-1.63-1.81.78.51-.87,2.59.05,2.67-1.24.47-.86.57-2,.43,1,1.06-.48,1-.4,2.26-1.58.82-1.29-.52-2.12,1.12C229.62,107.11,230.26,105.57,230.26,105.57Zm-31.6,27.16h0l.79-.37Zm-3.35,1.2c.42-.11.93-.28,1.47-.47a.37.37,0,0,1-.16.65C196.74,133.87,195.89,134,195.31,133.93Zm9.36,2.47c-.51.36-.76.29-.9.17.25-.13.55-.29.93-.53,0,0,0-.08,0-.12A1.1,1.1,0,0,1,204.67,136.4Z"/><path class="cls-3" d="M205.22,135a2,2,0,0,1,.2-.16l-.41,0-.08.32Z"/><path class="cls-3" d="M218.86,17.09l-.05-.06a.62.62,0,0,1,.07.19A.83.83,0,0,1,218.86,17.09Z"/><polygon class="cls-3" points="146.8 133.39 146.75 133.59 147.09 133.49 146.8 133.39"/><path class="cls-3" d="M232.48,32.15a.47.47,0,0,0,0,.33S232.51,32.3,232.48,32.15Z"/><path class="cls-3" d="M237.4,39l.33,1.15A7.39,7.39,0,0,0,237.4,39Z"/><path class="cls-3" d="M239.91,44.92a1.05,1.05,0,0,0,.37,0h0Z"/><path class="cls-3" d="M150.47,9.15a.85.85,0,0,0-.24.08C149.69,9.51,150.06,9.35,150.47,9.15Z"/><path class="cls-3" d="M181.3,6.1a6.59,6.59,0,0,1-1,.26C180.8,6.49,181.23,6.56,181.3,6.1Z"/><path class="cls-3" d="M119.8,23.32s0,0,0,0l-.17.12Z"/><path class="cls-3" d="M178.81,6.18a2.92,2.92,0,0,0,1.45.18A3.56,3.56,0,0,0,178.81,6.18Z"/><path class="cls-3" d="M256.05,68.24l0,.22a.23.23,0,0,1,.14,0Z"/><path class="cls-3" d="M256.22,68.45l.15.21C256.34,68.55,256.31,68.45,256.22,68.45Z"/><path class="cls-3" d="M256.68,69.15c-.11-.17-.19-.34-.31-.49C256.42,68.84,256.42,69.06,256.68,69.15Z"/><path class="cls-3" d="M251.26,62.62l-.27.17A.45.45,0,0,0,251.26,62.62Z"/><path class="cls-3" d="M249,60.79c.47.52.92,1.71,1.78,2.13l.21-.13c-.3,0-.6-.43-.92-.92S249.42,60.84,249,60.79Z"/><path class="cls-3" d="M245.64,49.23c.23.71.47,1.41.73,2.1.11-.49.28-1.12.78-.27C246.81,48.19,246.74,51.9,245.64,49.23Z"/><path class="cls-3" d="M243.32,42.59c.64,1.09.42-.19.61-.21C243.34,41.77,243.2,41.63,243.32,42.59Z"/><path class="cls-3" d="M204.86,9.08l.39-.65C204.32,8.17,205.14,8.7,204.86,9.08Z"/><polygon class="cls-3" points="194.43 9.57 195.16 10.25 195.76 9.71 194.43 9.57"/><path class="cls-3" d="M190.13,3h.44c-.55,0-1.1,0-1.65-.07Z"/><path class="cls-3" d="M107.52,24.14l.89.39a.69.69,0,0,0-.06-.84C108.17,23.53,107.81,23.59,107.52,24.14Z"/><path class="cls-3" d="M89.11,56.56A1.67,1.67,0,0,0,87.72,58C88.24,57.43,89,57,89.11,56.56Z"/><path class="cls-3" d="M135.29,137.53h-.83c.48.1,1,.21,1.45.28Z"/><path class="cls-4" d="M189.55,126.91a127.42,127.42,0,0,1-47.64,0,152.7,152.7,0,0,1-32.12-10.52,41.16,41.16,0,0,0,4.84,5.65c15.27,11.89,35,17.93,54.52,17.93,30.08,0,47.93-12,63-29.34A129,129,0,0,1,189.55,126.91Z"/><path class="cls-4" d="M145.16,109.28a61.49,61.49,0,0,0-.79-27.71c-5.64-20.85-21.26-37.39-35.39-53a5.34,5.34,0,0,1-.56-.74c-9,11.65-19.21,41.24-30.54,40.06q.69,5.25,1.37,10.48c.43,3.29,2.38,7.64,5.72,6.77,2.7-.7,25.29,33.43,29.66,36.84a81.19,81.19,0,0,0,16.85,10C137.93,125.57,142.16,117.73,145.16,109.28Z"/><path class="cls-5" d="M15,52.18C-.29,72.77-2.8,102.35,9.54,124.85s39.18,36.35,64.57,32.59c19.44-2.88,36.42-14.95,49.89-29.25,8-8.5,15.35-18.64,16.16-30.29.49-7-1.46-14-4-20.51-8.5-21.54-29.4-51.17-53.92-56C59.34,16.86,28.13,34.56,15,52.18Z"/><path class="cls-6" d="M14.34,51.66c-.05.25.23.3.57-.22l-.07-.62Z"/><path class="cls-6" d="M17.58,48.9c.33-.68.63-1.55,0-1.46-.18.81-.44.82-.56,1.74-.37.51-.81.75-.86.57-.06.23-.69.69-.68,1.13a5.12,5.12,0,0,0,1.9-2.21C17.62,48.56,17.56,48.8,17.58,48.9Z"/><path class="cls-6" d="M69.84,21.51h-.38A1.55,1.55,0,0,0,69.84,21.51Z"/><path class="cls-6" d="M103.76,33.16c-.23-.17-.34-.21-.38-.19C103.6,33.11,103.78,33.23,103.76,33.16Z"/><path class="cls-6" d="M108.18,37.69l-.25-.28A.63.63,0,0,0,108.18,37.69Z"/><path class="cls-6" d="M69.84,21.51l1,0C70.9,21.4,70.33,21.5,69.84,21.51Z"/><path class="cls-6" d="M22.74,42.19a2.49,2.49,0,0,0-.33.46l.35-.39A.14.14,0,0,1,22.74,42.19Z"/><path class="cls-6" d="M54.09,25.6l-.28.11a1.14,1.14,0,0,0-.18.25Z"/><path class="cls-6" d="M42.69,30.78c.26-.12.17-.49.2-.68a1.18,1.18,0,0,1-.43.52A.4.4,0,0,0,42.69,30.78Z"/><path class="cls-6" d="M25.85,41.41l-.24.27Z"/><path class="cls-6" d="M62.68,23.13a.28.28,0,0,0,.14.1S62.76,23.15,62.68,23.13Z"/><path class="cls-6" d="M6.11,64.17s0,0,.06,0S6.15,64.08,6.11,64.17Z"/><path class="cls-6" d="M15.1,52.23l-.1.18a.73.73,0,0,0,.14.16Z"/><path class="cls-6" d="M115.67,46.43l0,0C115.43,46.18,115.54,46.31,115.67,46.43Z"/><path class="cls-6" d="M113,136.6c1.12-.54-1.21,1.61.4.69C113.2,137.29,114.29,135.78,113,136.6Z"/><path class="cls-6" d="M23,42l.38-.35A3.67,3.67,0,0,0,23,42Z"/><path class="cls-6" d="M113.42,137.29h0l.16-.09Z"/><path class="cls-6" d="M130.4,68.52a.77.77,0,0,0,0-.31S130.37,68.31,130.4,68.52Z"/><path class="cls-6" d="M120.42,51.35l.25.42A3.58,3.58,0,0,0,120.42,51.35Z"/><path class="cls-6" d="M135.13,77.69a2,2,0,0,0,.23.68.24.24,0,0,0,0-.12A1.14,1.14,0,0,1,135.13,77.69Z"/><path class="cls-6" d="M138.32,87.87c0-.06,0-.14,0-.21l-.1-.32Z"/><path class="cls-6" d="M.28,97.09a1.55,1.55,0,0,1,.31-.52C.34,96.75.21,95.13.28,97.09Z"/><path class="cls-6" d="M22.88,42.34A.45.45,0,0,1,23,42l-.26.26C22.77,42.33,22.8,42.37,22.88,42.34Z"/><path class="cls-6" d="M138,77.06l.57,1.66A16.5,16.5,0,0,0,138,77.06Z"/><path class="cls-6" d="M46,156.32l-.4-.07A1.05,1.05,0,0,0,46,156.32Z"/><path class="cls-6" d="M140.21,83.69a4.46,4.46,0,0,0,0,1,1.41,1.41,0,0,0,.14.18Z"/><path class="cls-6" d="M.59,96.56h0Z"/><path class="cls-6" d="M.16,84.94c-.2,1.68.37.83.61,1.22C.68,88.15.31,87,0,87.7.07,89,.46,90,.4,90.88c-.08.07-.11.25-.2,0,.25,1.33,0,3.93.51,5.45a.43.43,0,0,1-.12.2.67.67,0,0,1,.65-.26c0,.74.34,1.36.07,1.66a1.19,1.19,0,0,0-.27-.7c.05.26.13.52.2.77-.39.73-.26-1-.56-1a32.48,32.48,0,0,1,.77,4.42c-.41.29-.4-2.71-.64-1.11V98.48c-.56,1.44-.05-1.1-.67.23a16.36,16.36,0,0,0,.28,2.53c.06.33.12.67.17,1.06s.15.86.21,1.46c.33.49.33-.23.66.26,1,3.25-.69,2.85.47,5.18a3,3,0,0,1,1.16,2.46l-.62-.46c.55,2.27,1.06,1.07,1.45,3.49-.32-.35-.71-1.69-.66-1.34.11,1.62.61,1,1,2.13l-.34.38a34.3,34.3,0,0,0,1.61,3.53c.3.6.58,1.21.9,1.81s.67,1.18,1,1.79c-.19-.08-.52-.44-.36.19.44.75.86,1.54,1.27,2.35s.92,1.58,1.36,2.38.84,1.64,1.32,2.39l1.37,2.23,1.05.81c.16.25.18.55-.06.34.69,1.11.22-.09.73.3.5.55.46.88.07.6.88.77,2,1.94,3.19,3.09A23.77,23.77,0,0,1,20.41,141l-.41-.25c1.27,1.4,2.1.83,3.16,2.25l-.3-.17L24,143.86c.39.34.82.64,1.23,1l2.46,1.86a42.06,42.06,0,0,1,4.39,3.3c.78-.19,3.41,2.17,4,1.62a23.6,23.6,0,0,0,4.13,2.8c.79.41,1.4,0,2.43.37l-.12.38,1.53.13.57.72c.33.09.65.19,1,.25-.39-.13-.75-.46-.66-.54,1.55.34,3.61,1.38,3.6,1.61,1.22.28,2.48.42,3.73.58-.12.14-.75,0-1.26,0,2.06,0,.27.48,2.15.51-.22-.14.18-.2.24-.27a13.54,13.54,0,0,0,4.47.87l-.33.24c.69.11,1.4.21,2.13.29l2.25.09,2.31.08c.78,0,1.56,0,2.35,0-1.13-.11-.87-.59,0-.65l.37.41c.59-.27-1-.14.25-.48,1.16,0,.8.46.13.61l1.42-.18c.09.13-.24.2-.32.36.57-.22,2.5.24,3.3-.3l.1.12a26.81,26.81,0,0,0,3.75-.56c1.05-.25,2-.4,3.28-.73,0-.36,1-.52,1.62-1,.93-.14,1.89-.33,2.91-.55a19.31,19.31,0,0,0,3.12-.88c1.43-.7.33-.45.93-.89.11.14.69,0,1.12-.08s.69-.16.19.18A43.83,43.83,0,0,0,94.93,152c-.39,0-.79.16-.64,0,.53-.31,1.32-.48,1.31-.3l-.13.11A39.36,39.36,0,0,1,101,149a25.39,25.39,0,0,0,2.71-1.4,8.73,8.73,0,0,0,2.07-1.58l-.12.12L108,144c1.2-.81-.55.72.43.25,2.39-2.48,4.32-3.21,6.22-5.3,2.32-.64,5.67-5.16,8.14-6.79l-.28,0c.37-.7.73-.56,1.16-.93-.19-.06-.72.45-.48,0,4.26-4.72,9.2-9.48,12.87-15.14a2.79,2.79,0,0,0,.57-2c0-.5.11-1,1-2.26v1c.92-2.31,1.88-4.66,2.64-7.08a24,24,0,0,0,1.26-7.39c.07.29.2.31.14.79.5-1,.22-3.85,0-3.85,0-.76.22-.18.33-.65.17-1.06-.56-2.57-.31-3.14,0-.1.13.27.17.46-.18-.66-.39-3.12-.64-2.42-.13-1.83-.82-3.37-1-4.81-.62-.8-.67-3-1.32-3.12.61-.06-.56-3.13-1.24-4.07.3.29-.19-1,.2-.66-.49-1.19-1-2.24-1.23-1.92-.29-2.46-2.42-4.11-2.21-5.68-1.95-3.29-3.82-6.27-5.68-9.13.58-.2,2,3.23,2.39,2.81-1.8-2.72-3.19-4.06-4.8-6.83-.39-.74.46.26.7.44-1.94-2.6-3.42-5.26-5.41-7.38,0,0,.28.19.49.4-.35-.44-.71-1.11-.89-.9l.39.4c.24,1-2-1.31-2.22-1.26,1.19.29-1.61-2.34.09-1.74-.27-.26-.67-.55-.75-.37-.31-.46-.34-.66.17-.35-1.39-1.5-1.16-.75-2.34-2.16.1-.08.38.17.62.22a10.32,10.32,0,0,1-2.56-2.32c.12,0,.08-.19.39.16-1.83-2-3.58-2.88-5.52-5.08,1,.2-.6-.81-.39-1.27-.41-.33-.84-.64-1.27-1l.32.59c-1-.93-2.17-1.47-3-2.33l.92.5c-.69-.52-1.36-1.07-2.07-1.57.36.34.69.71,1,1.06-1.24-.69-.25.55-1.61-.68A18.77,18.77,0,0,1,102,30h0a6.52,6.52,0,0,1-2.07-1.23c-.14-.27.48-.32.39-.5-.78-.05-2.78-1.69-3.75-1.74.29.06.44-.15.38-.24h-.65c-.5-.42-.56-.5-.37-.63-1.67-1,.24.83-1.64-.49a2.83,2.83,0,0,1,.47.11,51.79,51.79,0,0,0-6-2.67c-.21-.33.24-.21.67-.07s.84.32.59,0a57.71,57.71,0,0,0-9.11-2.07l.53.15c-.26.3-.78.12-1.44-.1a5.51,5.51,0,0,0-2.23-.37c.37,0,.51-.34.41-.27a27.12,27.12,0,0,0-7.22.37l.37-.2a35.66,35.66,0,0,0-4.42.32c-.36.23-1.08.31-.6.5a13.33,13.33,0,0,0-5.61,1,22.5,22.5,0,0,1-5.17,1.43c.4-.14.9-.47.59-.36-.93.38-1.87.72-2.78,1.13.33.2.43,0,1.1,0a5.7,5.7,0,0,1-1.72,1c1.18-.65-.18-.44-.78-.4.12.05,0,.22.05.29-1.64.08,0,.65-2.11,1.12l0-.19A18.07,18.07,0,0,1,47.81,27c-.47-.17.7-.49.64-.77-1.1.49-1.89,1.57-3,1.73.42-.31,1.08-.62,1.5-.93a5.74,5.74,0,0,0-2.15.62l.08,0L43,28.42l.52-.14c-.93,1.47-2.65,1.56-4.12,3.09,1.43-1.47.13-.45.06-.86-.5.17-1.25.46-1.11.25-.67.75-1.51.62-2.43,1.72-.12-.08-.87.54-.86.16-1,.76.37,0,.36.21-1.38,1.4-4.09,2.06-6,4.2-1.76,1.64-1.83,2.25-3.4,3.81-.7.32.18-.74.18-.74a9.72,9.72,0,0,0-2.47,2.1c.1-.23-.13-.14-.49,0-.65.64-.14.75-1.15,1.42a3.19,3.19,0,0,1,.33-1c-.73.8-1.31,1.73-2,2.58-.37.05.24-.7.43-1.08-.85.93-2.15,2.47-2.15,3,.2-.17.42-.33.64-.5-.31.34-.38,0-.2-.32.56-1,1.17-1,1.3-1l-.49.62c1.07-.07,2.15-2.32,3.38-3.36l-.13.84L24.07,42c.35-.13.73,0,.19.52,1-.54.63-.8,1.56-1.21.11,0,.09,0,0,.09.24-.28.49-.55.75-.83-.1.23.38.18-.19.55,1.71-1,2.23-2.32,3.08-2.45l-.11.12c2.08-1.8,0-.48,1.36-2.08.57,0,1.12,0,1.69,0v-.48c.24-.15.72-.44.72-.25.72-.83-.24,0,.12-.6,1.32-.48,3.07-2.22,3.67-1.84.26-.52-1.24.49-.1-.46.7.36,1.37-1,2.62-1.34-.16.49-1.27.92,0,.57.35-.9,2.17-1.1,3-1.68-.18-.45,1.92-1.25,3.45-2.15a6.64,6.64,0,0,0,1.73-.59c1-.36,2.16-.83,3-1.05v.1c.11-.56,1.7-1.13,2.83-1.63,0,.28-.12.46-.69.81l1.08-.4A2.89,2.89,0,0,1,55,25l-.16.43c.72-.26,1.42-.6,2.18-.93a12,12,0,0,1,2.59-.77c0-.35-1.78-.46.2-1.23.12.15.28.43-.24.64a3,3,0,0,1,1-.33l-.74.51c.91-.1.4-.36,1.1-.52.05.25.56,0,.51.26-.17.07-.63.06-.87.23a5.52,5.52,0,0,1,2.14-.13c-.1-.13-.08-.33.5-.5,1.49-.35.57.18,1.47.14.33-.24,1.32-.24,1.28-.62a.91.91,0,0,1,.74.17,19.56,19.56,0,0,1,2-.43c.7-.12,1.19-.23.73-.39h-.21l.13,0h0c2.57-.67,5.41-.17,8-.15v.12a22.06,22.06,0,0,1,2.42.1,14.94,14.94,0,0,0,2.11.1c.45.06,1,.45.78.55a7.28,7.28,0,0,1,2.91.71c-1.19-.12.33.3-1.2-.18a11.26,11.26,0,0,0,3.33,1c-.63.14.94.73,1.63,1-.3-.2-.59-.42-.9-.61a16.51,16.51,0,0,1,2.07.86l-.53.24c2.58,1.68,5.44,1.66,7,3.66.86.16-1.34-1.05-.53-1a18.27,18.27,0,0,1,2.48,2.38c1.44,1.33,1.87.51,3.41,1.91-.12-.28-.07-.76,1.25.07,1.09,1,1,1.63.19,1.14-.27-.21-.37-.35-.33-.38-.4-.25-.92-.56-.57-.09h.24c.46.57,2,1.82,1.46,1.72.93.58.52.1,0-.47.64.66,1.17,1.15,1.72,1.63a17.22,17.22,0,0,1,1.74,1.66c-.16-.27-.24-.59,0-.38,1.9,2,1.09.64,2.49,1.92.6.93-.65.11.81,1.34.69,1-.12.46-.53.21a12.87,12.87,0,0,1,2.67,3.26l-.69-.59a9.65,9.65,0,0,1,1,1l-.12-.59c.32.43.62.78.51.85.51.29.11-.65,1,0,.35.65,1.54,1.56,1.38,2-1.33-1.83-.15.44-1.42-1a5.1,5.1,0,0,1,.86,1c0,.09-.12,0-.23-.11,1.07,1.9,1,.47,2.36,2.23-.35-.08,0,.67.24.93-.55-.71,0-.57.68,0,.73,1.25,1,1.17,1.47,1.79l-.44-.74c.35.1.76.69,1.41,1.46-.09.17-.64-.67-.49-.33,1,.67,1.13,2.28,2.2,3.41.28.68-.31.3,0,.88,1.21,1.27.76,1.73,1.94,3.13,0-.61-.12-.65.81.28-.58-.81-1.19-1.61-1.79-2.41l1.42,1.38c-.49-.77-1.2-1.5-1.45-2,.71.63.59.6.57.09.29,1.29,1.56,1.93,2,3.32l-.67.36c.83,2,2.3,3.08,3.47,5.63l-.31-.85c.45.18.85,1.5,1.39,2.23-.26,0-.09.59-.06,1,.15-.13.92,1.82,1.47,1.83l.24,1.27c.83,2.09,1.75,2,2.53,4.06-.51-.49-.29.48-1-.77.28.66.5,1.28.66,1.22,0,.45,1.08,1.72,1.09,2.43.21.25.51.24.77,1,0,.1-.12,0-.12,0s.6,1.14.62.38a15.79,15.79,0,0,0,1,4.09,10.66,10.66,0,0,1,.73,3.89,30.88,30.88,0,0,1,.94,4.77c-.08-.09-.12,0-.13-.26-.07,2,.87,1.14.66,3.4-.41,1.14-.23-1.18-.38-.47-.82.3.13,2.67-.58,4.11l0-.36a8.18,8.18,0,0,0-.23,2c0,.39,0,.81-.06,1.24a11.37,11.37,0,0,1-.26,1.32s0-.11-.12,0a9.75,9.75,0,0,1-.27,2.57,27.48,27.48,0,0,1-.85,2.86c-.07-.65.17-.82-.27-.64-.28.76.59,0,0,1.52-.35.42-1,1.39-1.41,1.37.21-.46.45-.9.64-1.37-.74.51-.83,1.77-1.28,2.44l-.13-.18c-1.06,2-.64,2.35-2,4.45l.27-.13c-.35,1.43-.85.82-1.35,2.15l-.66,0a33.6,33.6,0,0,1-2.47,4.19,39.18,39.18,0,0,1,1.84-3.66,16.87,16.87,0,0,0-1.93,3,3.86,3.86,0,0,1,.66-1,11.43,11.43,0,0,1-2.34,3.74c-.52-.88-3.31,3.35-4.82,3.73-1.94,2.56-4.58,4.35-7.29,6.86,1.51-.29-.8.72-.11,1.17-.62.6-.88.81-1,.82-.75.47-1.54.88-2.32,1.31-.62.22.53-.65.36-.73-1.5,1.14-.83.24-1.92.85.37.06-.25.74-1.18,1.29.47-.21,1-.4,1.42-.63-1.84,1.93-2.19.88-4.09,2.76l.54-.68c-.51.45-1.53,1.16-2.52,1.93a10.08,10.08,0,0,0-2.37,2.14c-.25.05-.63,0-.16-.33-2.78,1.64-5.9,4.26-8.38,5l.14-.28c-.52.31-.79.78-1.56.93,0-.09.14-.28-.12-.17a7.83,7.83,0,0,1-2.12,1.15l.55-.47a16.4,16.4,0,0,0-2,.8c-.58.26-1.11.53-1.62.81l-1.52.84a16,16,0,0,1-1.71.73c-.16-.54-2.58,0-3.81.15l0-.09c-1.77.43-3.28.76-4.74,1.19s-2.94.68-4.62,1a26.26,26.26,0,0,0-4.78-.26c-1,0-2-.13-3-.2a15.93,15.93,0,0,1-2.73-.37c.49.18-.13.43-.74.4-.77-.22-2.24.09-2-.41l.27.05a2.61,2.61,0,0,0-1.41-.58c-.62-.17-1.33-.29-2-.43l-.35.62a13.28,13.28,0,0,0-2.65-1c-.95-.31-2-.56-2.94-.79-.49-.13-1-.22-1.41-.36s-.86-.29-1.24-.45a4.93,4.93,0,0,1-1.71-1,11.28,11.28,0,0,1-1.28-.31,11.14,11.14,0,0,0-1.25-.39l.19-.31c-1-.52-1.73-.9-2.54-1.29s-1.64-.88-2.87-1.49l.62,0c-1.32-.79-2.27,0-3.49-.77l-.07-.7c-1.13-.75-2.25-1.54-3.3-2.4a18.26,18.26,0,0,0-3.35-2.3c.09,0,.25-.11.61.14-1-.79-3.46-3.5-3.63-2.64.26-.33-2-2-3.15-2.89l.42-.08a5.72,5.72,0,0,1-2.56-1.76c-.23-.35,0-.46.27,0-.74-1.17-.95-.6-1.88-2l.58.33a4.68,4.68,0,0,0-1.57-1.41c-.64-.64-1.5-2.25-1.35-2.59a2.32,2.32,0,0,1-1.3-1.3c0-.16.26.06.37.17a11.49,11.49,0,0,0-1.53-2.4,5,5,0,0,1-1.11-2,.36.36,0,0,0,.07-.34,22.45,22.45,0,0,0,1.12,2.08,4.8,4.8,0,0,1,.42.76c.28-.17-.44-1.48.57-.7a19.14,19.14,0,0,1-1.54-1.72,9.46,9.46,0,0,1-1.25-2.13.58.58,0,0,1,0-.23l.1.12a3.12,3.12,0,0,0-.47-.8l-.41-1.15c.18-.27-.51-1.65-.78-2.35-.31.19-.63-.74-.56.22,0-.12.09.12.29.58a3.08,3.08,0,0,0,.16.28l0,0L8.35,120a3.53,3.53,0,0,1-.89-1.85c-.36-.28-.75-.59-.94-.77,0-1.14-.3-3.12-.09-3.48-.22-.53-.44-1.12-.66-1.71s-.45-1.21-.63-1.81a9.83,9.83,0,0,0-1.3-2.91c-.24-.62,0-.77.09-1a3.81,3.81,0,0,0,.37,1c-.49-1.23-.73-3.81-1.27-4,0-1.67.58.86.14-1.38l.19.29a14.75,14.75,0,0,0-.15-3.1c-.15-1-.41-1.86-.54-2.8a13.63,13.63,0,0,1,0-6.31c-.07.34-.11.52-.19.58.17-1.41.23-2.85.42-4.29l.21-2.17.11-1.09L3.36,82c.25-1.43.41-2.89.79-4.28a35.06,35.06,0,0,1,1.33-4.06A5.7,5.7,0,0,0,6,70.92l.47-.21c0-.57,0-1.15.11-1.72.62-2.32,2.32-3.45,3.13-6.35l-.41.23c.5-.94,1.37-3.12,1.59-2.8a.84.84,0,0,1,.27-.73l.19.07,1-2.45c1.19-1.66.48.67,2.17-1.75.55-1,1.29-2.93.94-2.67s-.75.87-.93.78l.49-.91c-.38-.5-.41-1.54-2.21.33l-.7,1.68-.57.31.83-1.25a3.06,3.06,0,0,0-1,1.72,1.17,1.17,0,0,0-.66.47l-.39,1.81c-.32.07,0-.92-.72,0-.18.84.85-.41.32.84-.66.6-.73.28-1,1.26-.21.05-.19-.18,0-.56a10.63,10.63,0,0,0-.92,2.7c-.69.66-1.26,2.73-1.71,2.43a9.23,9.23,0,0,1-.46,2.4C5.65,65,4.49,69.41,4,68.81a6.8,6.8,0,0,1-.44,2.67l-.48,1.64a10.65,10.65,0,0,0-.25,1.59,1,1,0,0,1,0-.51,13.54,13.54,0,0,1-.86,2c.46.26.11,1.94.29,2.91-.72,1.24-.43-.92-1-.6.42,0,0,2.4.4,2-.48,1-.3.85-.81,1.31.6.27-.09,1,.22,1.87-.47,1.45-.63.31-.62,2C.22,86.43.16,84.94.16,84.94Zm7.35,38h0l-.38-.71ZM9,125.84c-.21-.34-.44-.78-.67-1.25.06-.16.23-.11.37.18C8.57,124.65,8.84,125.38,9,125.84Zm-.72-7.2c.23.44.23.62.19.72l-.37-.79-.06,0A.52.52,0,0,1,8.3,118.64Z"/><path class="cls-6" d="M7.52,118c0-.07-.06-.1-.1-.18,0,.1,0,.2,0,.31l.17.12Z"/><path class="cls-6" d="M69.39,21.5h.07l-.15,0Z"/><polygon class="cls-6" points="42.49 155.24 42.52 155.15 42.22 155.12 42.49 155.24"/><path class="cls-6" d="M51.91,24.65a.71.71,0,0,0-.26,0A.68.68,0,0,0,51.91,24.65Z"/><path class="cls-6" d="M44.79,27.69l-1,.37C44.21,27.92,44.53,27.78,44.79,27.69Z"/><path class="cls-6" d="M39.45,30.32a.37.37,0,0,0,0,.19h0Z"/><path class="cls-6" d="M122.13,49.58l.15.18C122.66,50.15,122.42,49.87,122.13,49.58Z"/><path class="cls-6" d="M102,30a7,7,0,0,1,.82.41C102.41,30.1,102.09,29.86,102,30Z"/><path class="cls-6" d="M137.89,76.87h0l.07.19Z"/><path class="cls-6" d="M103.82,31.23a5,5,0,0,0-1-.8A6.84,6.84,0,0,0,103.82,31.23Z"/><path class="cls-6" d="M18.89,45.89l-.21.2s0,0,0,.07Z"/><path class="cls-6" d="M18.7,46.16l-.19.26C18.61,46.31,18.7,46.22,18.7,46.16Z"/><path class="cls-6" d="M18.12,47c.13-.18.25-.37.39-.55A1.22,1.22,0,0,0,18.12,47Z"/><path class="cls-6" d="M24.77,40.59l0-.16A.16.16,0,0,0,24.77,40.59Z"/><path class="cls-6" d="M26.59,39a10.9,10.9,0,0,0-1.85,1.28v.13C24.9,40,26.31,39.54,26.59,39Z"/><path class="cls-6" d="M35.58,34.53c-.57.33-1.15.65-1.71,1,.36-.08.84-.18.12.35C36.29,34.85,33.38,35.9,35.58,34.53Z"/><path class="cls-6" d="M40.92,31.54c-.88.58.11.16.1.26C41.55,31.37,41.68,31.27,40.92,31.54Z"/><path class="cls-6" d="M83,22.4l-.17.3C83.6,22.83,82.84,22.58,83,22.4Z"/><polygon class="cls-6" points="91.59 23.49 90.91 22.99 90.44 23.12 91.59 23.49"/><path class="cls-6" d="M95,27.86l-.33-.13c.41.18.81.38,1.21.57Z"/><path class="cls-6" d="M137.57,86.11l.34-.34C137.7,85.26,137.23,85.27,137.57,86.11Z"/><path class="cls-6" d="M132.56,116a2.68,2.68,0,0,0-1.11,1.42A18,18,0,0,0,132.56,116Z"/><polygon class="cls-6" points="51.63 154.71 52.27 154.72 51.08 154.57 51.63 154.71"/><path class="cls-1" d="M21.77,56.66C8.3,74.77,6.09,100.78,16.94,120.57s34.46,32,56.79,28.67c17.09-2.54,32-13.15,43.88-25.73,7-7.48,13.5-16.39,14.21-26.64.43-6.17-1.28-12.29-3.55-18-7.47-18.95-25.85-45-47.41-49.26C60.74,25.6,33.29,41.17,21.77,56.66Z"/><g class="cls-7"><path class="cls-8" d="M7.73,83.4c-3.55,17.36,5.81,35.31,16.5,48.45a64.4,64.4,0,0,0,44,23.45c2.89.28,2.87-4.24,0-4.52A59.67,59.67,0,0,1,28.5,130C18.36,118.07,8.8,100.64,12.08,84.6c.58-2.84-3.77-4-4.35-1.2Z"/><path class="cls-9" d="M74.32,69.68a12.22,12.22,0,0,1,1-5.17,2.28,2.28,0,0,0-1.58-2.78,2.31,2.31,0,0,0-2.77,1.58,15.59,15.59,0,0,0-1.12,6.37c.09,2.9,4.61,2.91,4.52,0Z"/><path class="cls-9" d="M88.5,75.8h1a2.25,2.25,0,0,0,2.26-2.26A2.29,2.29,0,0,0,91.06,72a2.33,2.33,0,0,0-1.6-.66h-1a2.33,2.33,0,0,0-1.6.66,2.27,2.27,0,0,0-.66,1.59A2.25,2.25,0,0,0,88.5,75.8Z"/><path class="cls-9" d="M96.29,95l0-.07-.35.45.17-.17-.46.35.21-.12-.53.23a1.58,1.58,0,0,1,.31-.09l-.6.08h.34l-.6-.08a1.28,1.28,0,0,1,.32.09l-.54-.23a1.13,1.13,0,0,1,.21.12l-.46-.35a1,1,0,0,1,.18.17l-.36-.46,0,.07a2.45,2.45,0,0,0,1.35,1,2.26,2.26,0,0,0,2.55-3.32,3.39,3.39,0,0,0-5.74,0,2.25,2.25,0,0,0-.22,1.74,2.25,2.25,0,0,0,4.12.54Z"/><path class="cls-9" d="M79.92,108.39l2,2.87a2.3,2.3,0,0,0,3.09.81,2.28,2.28,0,0,0,.81-3.09l-2-2.87a2.26,2.26,0,0,0-3.9,2.28Z"/><path class="cls-9" d="M55.49,106.91l-.94,2.91a2.29,2.29,0,0,0,1.58,2.78A2.32,2.32,0,0,0,58.91,111l.93-2.91a2.27,2.27,0,0,0-1.58-2.77,2.3,2.3,0,0,0-2.77,1.57Z"/><path class="cls-9" d="M49.34,95.73l-2.9,1a2.26,2.26,0,0,0,1.2,4.35l2.9-1a2.26,2.26,0,0,0-1.2-4.35Z"/><path class="cls-9" d="M53.51,78.59l-2.9-2.89a2.26,2.26,0,0,0-3.19,3.19l2.9,2.89a2.26,2.26,0,0,0,3.19-3.19Z"/><path class="cls-9" d="M96.62,82.32l2.9-1A2.26,2.26,0,1,0,98.32,77l-2.9,1a2.26,2.26,0,0,0,1.2,4.35Z"/><path class="cls-9" d="M83,67.51V65.58a2.26,2.26,0,0,0-4.52,0v1.93a2.26,2.26,0,1,0,4.52,0Z"/><path class="cls-9" d="M63.08,70.35l-1-1.93A2.26,2.26,0,0,0,59,67.61a2.3,2.3,0,0,0-.81,3.08l1,1.93a2.27,2.27,0,0,0,3.09.81,2.3,2.3,0,0,0,.81-3.08Z"/><path class="cls-9" d="M43.65,86l-1.93,1a2.27,2.27,0,0,0-.81,3.09,2.32,2.32,0,0,0,3.09.81l1.93-1a2.28,2.28,0,0,0,.81-3.09A2.31,2.31,0,0,0,43.65,86Z"/><path class="cls-9" d="M69.93,110.35l-1,2.89A2.28,2.28,0,0,0,70.54,116a2.31,2.31,0,0,0,2.77-1.58l1-2.89a2.27,2.27,0,0,0-1.57-2.78,2.31,2.31,0,0,0-2.78,1.58Z"/><path class="cls-9" d="M90.64,104.53l1,1a2.33,2.33,0,0,0,1.6.66,2.25,2.25,0,0,0,2.26-2.25,2.38,2.38,0,0,0-.66-1.6l-1-1a2.34,2.34,0,0,0-1.6-.67,2.28,2.28,0,0,0-1.59.67,2.22,2.22,0,0,0-.66,1.59,2.33,2.33,0,0,0,.66,1.6Z"/></g><path class="cls-10" d="M53,77.42a22.19,22.19,0,0,0-1.76,23.33A20.85,20.85,0,0,0,72,111.21c6.24-.93,11.7-4.8,16-9.39,2.57-2.73,4.92-6,5.18-9.72a15.14,15.14,0,0,0-1.29-6.58c-2.73-6.92-9.43-16.43-17.31-18C67.24,66.09,57.22,71.77,53,77.42Z"/><path class="cls-8" d="M65,124.17a113.16,113.16,0,0,0-.13,12.89.39.39,0,0,0,.78,0c.1-4.29.21-8.6.49-12.89,0-.73-1.09-.72-1.14,0Z"/><path class="cls-8" d="M76.88,57.26a133.25,133.25,0,0,1-.33-18.42c0-.64-.94-.63-1,0a106.9,106.9,0,0,0,.26,18.42c.07.67,1.12.68,1.06,0Z"/><path class="cls-8" d="M79.34,58.18a12.36,12.36,0,0,1,.54-4.87c.07-.21-.24-.28-.32-.09a10.89,10.89,0,0,0-.66,5c0,.28.47.28.44,0Z"/><path class="cls-8" d="M69.58,57.09c-.62-1-1.21-2.06-1.91-3a.27.27,0,0,0-.46.27c.52,1.07,1.16,2.08,1.77,3.11.23.39.84,0,.6-.35Z"/><path class="cls-8" d="M40.56,75.56q-5.22-.9-10.37-2.11c-3.43-.8-6.81-1.86-10.26-2.58a.32.32,0,0,0-.17.62,71.15,71.15,0,0,0,10.17,2.9c3.44.81,6.9,1.47,10.39,2,.57.1.81-.77.24-.87Z"/><path class="cls-8" d="M42.07,73.2a46.21,46.21,0,0,0-8.69-1.77.26.26,0,0,0-.07.5c2.88.55,5.76,1.1,8.58,1.89a.32.32,0,0,0,.18-.62Z"/><path class="cls-8" d="M38.3,78.84c-1.87.17-3.74.31-5.59.58-.25,0-.19.43,0,.42,1.85-.07,3.7-.27,5.54-.44.35,0,.35-.59,0-.56Z"/><path class="cls-8" d="M104.18,89.24c5,1.18,9.86,2.74,14.75,4.26.41.13.56-.49.17-.64a104.4,104.4,0,0,0-14.71-4.37c-.49-.11-.69.64-.21.75Z"/><path class="cls-8" d="M104.52,92.51l2,.62a20.71,20.71,0,0,0,2,.56.22.22,0,0,0,.12-.42,20,20,0,0,0-2-.67l-2-.61c-.33-.1-.47.42-.14.52Z"/><path class="cls-8" d="M105.6,87.38a13.22,13.22,0,0,1,5.38.47c.28.08.49-.35.21-.48a10.58,10.58,0,0,0-5.76-.62c-.42.06-.24.69.17.63Z"/><path class="cls-8" d="M44.3,107.68a85.32,85.32,0,0,1-14.16,7.9c-.34.15-.05.65.3.5a75.68,75.68,0,0,0,14.13-7.93c.29-.2,0-.67-.27-.47Z"/><path class="cls-8" d="M44.83,109.84c-1.13,1-2.26,2-3.37,3.08-.28.26.14.67.42.42,1.14-1,2.27-2,3.39-3.06.3-.27-.14-.71-.44-.44Z"/><path class="cls-8" d="M38.44,108.16c1.33-.71,2.69-1.38,4-2.17a.27.27,0,0,0-.27-.47c-1.37.64-2.69,1.4-4,2.12-.35.18,0,.7.3.52Z"/><path class="cls-8" d="M61.72,123.35a7.28,7.28,0,0,0-1.6,3.51.29.29,0,0,0,.19.34.29.29,0,0,0,.34-.19,7.26,7.26,0,0,1,1.49-3.23.3.3,0,0,0,0-.43.29.29,0,0,0-.42,0Z"/><path class="cls-8" d="M69,124.05l.93,1.68a14.34,14.34,0,0,0,1,1.65.29.29,0,0,0,.36.12.28.28,0,0,0,.16-.33,13.75,13.75,0,0,0-.9-1.75l-1-1.7a.33.33,0,0,0-.57.33Z"/><path class="cls-8" d="M91.67,115.3a88.29,88.29,0,0,0,8.34,8.85c.39.37,1-.21.59-.59-2.92-2.82-5.73-5.76-8.35-8.85-.34-.41-.92.18-.58.59Z"/><path class="cls-8" d="M94.87,113.33c.72.72,1.42,1.44,2.17,2.13a.26.26,0,0,0,.37-.37c-.68-.75-1.41-1.46-2.12-2.18-.27-.27-.7.15-.42.42Z"/><path class="cls-8" d="M89.19,117.52c.41,1.13.83,2.25,1.28,3.36a.33.33,0,0,0,.39.22.32.32,0,0,0,.22-.39c-.37-1.13-.77-2.26-1.18-3.39a.38.38,0,0,0-.45-.26.37.37,0,0,0-.26.46Z"/><path class="cls-8" d="M96.47,65.1c.83-1,1.65-2.08,2.44-3.15.12-.16-.15-.37-.28-.22-.86,1-1.68,2-2.5,3a.24.24,0,1,0,.34.34Z"/><path class="cls-8" d="M98.05,67.3a10.71,10.71,0,0,1,3.52-2.18c.26-.1.17-.51-.11-.43a9.11,9.11,0,0,0-3.78,2.24c-.24.23.13.6.37.37Z"/><path class="cls-2" d="M151.4,26l1.78-.26a7.32,7.32,0,0,0,1.74-.39.72.72,0,0,0,.51-.77.73.73,0,0,0-.7-.62,8.18,8.18,0,0,0-2,.14l-1.81.25a.85.85,0,0,0-.52.39.89.89,0,0,0-.08.66.87.87,0,0,0,.39.51,1.07,1.07,0,0,0,.66.09Z"/><path class="cls-2" d="M152.51,28.22c.6.05,1.21.14,1.82.15h.91a7.9,7.9,0,0,0,1-.13.47.47,0,0,0,0-.9c-.32,0-.64-.1-1-.12s-.61,0-.91,0c-.61,0-1.22.1-1.82.15a.44.44,0,0,0,0,.87Z"/><path class="cls-3" d="M137.66,29.87l1.87-.58a12.17,12.17,0,0,0,1.14-.44l.44-.2a3.17,3.17,0,0,0,.56-.4,1,1,0,0,0,.28-.48,1.05,1.05,0,0,0,0-.7,1.12,1.12,0,0,0-1-.67,3,3,0,0,0-.73,0l-.5.08c-.3,0-.6.13-.9.21l-1.85.52a1.36,1.36,0,1,0,.73,2.63Z"/><path class="cls-3" d="M137.68,33.48l2.17,0c.35,0,.71,0,1.06,0l1.11-.15a1,1,0,0,0,.67-.28.93.93,0,0,0,.28-.67,1,1,0,0,0-.95-1l-1.11.05c-.42,0-.85.11-1.27.18l-2.17.32a.82.82,0,0,0,.21,1.6Z"/><path class="cls-3" d="M162.78,56.38l.93.34.45.17a1.16,1.16,0,0,0,.37.07h.23a.48.48,0,0,0,.44-.29.5.5,0,0,0-.1-.52l-.17-.17a.85.85,0,0,0-.3-.19l-.44-.2-.9-.4a.8.8,0,0,0-.33-.08l-.18,0a.6.6,0,0,0-.42.38.62.62,0,0,0,0,.5.64.64,0,0,0,.42.38Z"/><path class="cls-3" d="M164.05,53.43h.1l.15,0,.35.07c.23.06.45.13.68.17s.47.1.7.16a1.33,1.33,0,0,0,.55.09l.36,0a.77.77,0,0,0,.68-.46.73.73,0,0,0-.15-.81,3.15,3.15,0,0,0-.3-.24,1.12,1.12,0,0,0-.44-.27l-.21,0c-.32-.06-.63-.1-1-.13a3.56,3.56,0,0,0-.92.1,6.49,6.49,0,0,0-.76.19.59.59,0,0,0-.41.64.6.6,0,0,0,.57.51Z"/><path class="cls-3" d="M167.85,102.51c.92.4,1.84.83,2.79,1.16a1,1,0,0,0,.79-.1,1.06,1.06,0,0,0,.42-.49,1,1,0,0,0-.42-1.28c-.81-.42-1.67-.76-2.51-1.12a.69.69,0,0,0-.39-.12.79.79,0,0,0-.43,0,1.1,1.1,0,0,0-.63.49,1.08,1.08,0,0,0-.11.82,1,1,0,0,0,.49.63Z"/><path class="cls-3" d="M170.79,99.9l.61.33a6.85,6.85,0,0,0,.84.36c.44.15.88.31,1.33.42a.89.89,0,0,0,.68-1.62c-.39-.25-.81-.45-1.22-.67a6.2,6.2,0,0,0-.84-.35l-.66-.22a1,1,0,0,0-.74.1,1,1,0,0,0-.39.45,1,1,0,0,0,.39,1.2Z"/><path class="cls-3" d="M202.66,54.37l1.5-.38a4.18,4.18,0,0,0,.71-.22l.38-.15a1.48,1.48,0,0,0,.53-.3l.13-.14a1,1,0,0,0,.25-.93.95.95,0,0,0-.67-.67,1.19,1.19,0,0,0-.59-.1l-.39,0a6.74,6.74,0,0,0-1,.18l-1.51.35a1.2,1.2,0,0,0,.64,2.32Z"/><path class="cls-3" d="M203.78,58.13,205.1,58l.77-.12a1.66,1.66,0,0,0,.42-.12l.3-.12a.57.57,0,0,0-.28-1.06l-.35,0-.3,0c-.25,0-.51.07-.76.12l-1.28.26a.61.61,0,0,0-.43.66.59.59,0,0,0,.59.52Z"/><path class="cls-3" d="M204.6,31.39l.56.16a1.78,1.78,0,0,0,.51.1H206l.23,0a.8.8,0,0,0,.29-.15.46.46,0,0,0,.15-.16.69.69,0,0,0,.15-.28l0-.23,0-.23a.69.69,0,0,0-.15-.28.56.56,0,0,0-.24-.22l-.24-.18a1.15,1.15,0,0,0-.32-.14l-.14-.06-.55-.21a.74.74,0,0,0-.39,0,.67.67,0,0,0-.37.11.78.78,0,0,0-.28.26.7.7,0,0,0-.18.34l0,.26a1,1,0,0,0,.13.5,1,1,0,0,0,.59.45Z"/><path class="cls-3" d="M210.19,30.86l.57.32.28.16a2.71,2.71,0,0,0,.3.13.5.5,0,0,0,.29.09.55.55,0,0,0,.31,0l.18-.08a.48.48,0,0,0,.22-.2.37.37,0,0,0,.1-.17.6.6,0,0,0,.07-.3.81.81,0,0,0-.23-.55l-.12-.12c-.08-.08-.18-.15-.27-.23l-.26-.19-.53-.41a.65.65,0,0,0-.33-.11.63.63,0,0,0-.36,0,.71.71,0,0,0-.31.16.69.69,0,0,0-.23.25.91.91,0,0,0-.09.7,1,1,0,0,0,.41.54Z"/><path class="cls-3" d="M230.11,64.62l1.14.71.27.17a3.35,3.35,0,0,0,.62.25l.31.1a2,2,0,0,0,.6.09,1.17,1.17,0,0,0,1-.59,1.12,1.12,0,0,0,.16-.6,1.17,1.17,0,0,0-.16-.6,2,2,0,0,0-.34-.49l-.22-.26A3.57,3.57,0,0,0,233,63l-.26-.18-1.1-.79a1.19,1.19,0,0,0-.57-.18,1.22,1.22,0,0,0-.6,0,1.53,1.53,0,0,0-.91.7,1.55,1.55,0,0,0-.16,1.17,1.71,1.71,0,0,0,.7.91Z"/><path class="cls-3" d="M233.4,62.85l.56.34.27.17.29.15a.46.46,0,0,0,.25.08.5.5,0,0,0,.27,0l.16-.07a.52.52,0,0,0,.19-.17.69.69,0,0,0,.15-.41.72.72,0,0,0-.2-.48c-.12-.1-.24-.21-.37-.3l-.28-.19-.54-.39a.66.66,0,0,0-.28-.09.58.58,0,0,0-.29,0,.76.76,0,0,0-.45.34.74.74,0,0,0,.27,1Z"/><path class="cls-3" d="M226.51,86l.77.49.18.12a1.61,1.61,0,0,0,.36.15l.41.15a.65.65,0,0,0,.31,0,.56.56,0,0,0,.31-.21.54.54,0,0,0,.11-.28.49.49,0,0,0-.07-.37l-.26-.34a2.43,2.43,0,0,0-.24-.3l-.17-.14-.71-.57a.75.75,0,0,0-.36-.22l-.22,0a.82.82,0,0,0-.66.33.8.8,0,0,0-.16.62.54.54,0,0,0,.1.3.72.72,0,0,0,.3.3Z"/><path class="cls-3" d="M226.06,92.31l.74.36.37.17a2.42,2.42,0,0,0,.59.2l.24,0a.81.81,0,0,0,.34-.08.82.82,0,0,0,.42-.36,1.16,1.16,0,0,0,.12-.45.59.59,0,0,0-.08-.34.57.57,0,0,0-.18-.28l-.15-.12a1.91,1.91,0,0,0-.33-.25l-.37-.19-.73-.38a1,1,0,0,0-.75-.1,1,1,0,0,0-.58.45,1,1,0,0,0-.1.75,1,1,0,0,0,.45.58Z"/><path class="cls-3" d="M197.38,123l1.42-1.12.35-.28a1.94,1.94,0,0,0,.32-.32l.6-.66a1,1,0,0,0-1.16-1.5l-.79.42a3,3,0,0,0-.38.23l-.36.27-1.43,1.1a1.15,1.15,0,0,0-.43.42l-.12.29a1.16,1.16,0,0,0,.21,1,1.09,1.09,0,0,0,.78.44.84.84,0,0,0,.47,0,1.1,1.1,0,0,0,.52-.3Z"/><path class="cls-3" d="M198.67,126.68l1.29-.9a4.21,4.21,0,0,0,.71-.55l.52-.59a.47.47,0,0,0,0-.62.49.49,0,0,0-.62-.13l-.7.35a4.73,4.73,0,0,0-.72.55l-1.2,1a.55.55,0,0,0-.05.74.56.56,0,0,0,.73.15Z"/></g></g></svg>